0
SECTION
2
HEADER
9
$ACADVER
1
AC1009
9
$INSUNITS
70
1
9
$EXTMIN
10
0.0000
20
0.0000
30
0.0000
9
$EXTMAX
10
22.0000
20
17.0000
30
0.0000
9
$LIMMIN
10
0.0000
20
0.0000
9
$LIMMAX
10
22.0000
20
17.0000
0
ENDSEC
0
SECTION
2
TABLES
0
TABLE
2
LTYPE
70
2
0
LTYPE
2
CONTINUOUS
70
0
3
Solid line
72
65
73
0
40
0.0000
0
LTYPE
2
DASHED
70
0
3
__ __ __
72
65
73
2
40
0.1500
49
0.1000
49
-0.0500
0
ENDTAB
0
TABLE
2
LAYER
70
13
0
LAYER
2
0
70
0
62
7
6
CONTINUOUS
0
LAYER
2
BORDER
70
0
62
7
6
CONTINUOUS
0
LAYER
2
TITLE_BLOCK
70
0
62
7
6
CONTINUOUS
0
LAYER
2
ASSEMBLY
70
0
62
7
6
CONTINUOUS
0
LAYER
2
CABLE
70
0
62
7
6
CONTINUOUS
0
LAYER
2
DIMENSIONS
70
0
62
3
6
CONTINUOUS
0
LAYER
2
BALLOONS
70
0
62
5
6
CONTINUOUS
0
LAYER
2
WIRING
70
0
62
7
6
CONTINUOUS
0
LAYER
2
SHIELDS
70
0
62
4
6
CONTINUOUS
0
LAYER
2
FACE_VIEWS
70
0
62
7
6
CONTINUOUS
0
LAYER
2
TABLES
70
0
62
7
6
CONTINUOUS
0
LAYER
2
NOTES
70
0
62
7
6
CONTINUOUS
0
LAYER
2
TEXT
70
0
62
7
6
CONTINUOUS
0
ENDTAB
0
ENDSEC
0
SECTION
2
ENTITIES
0
POLYLINE
8
BORDER
66
1
10
0.0000
20
0.0000
30
0.0000
70
1
0
VERTEX
8
BORDER
10
0.3750
20
16.6250
30
0.0000
0
VERTEX
8
BORDER
10
21.6250
20
16.6250
30
0.0000
0
VERTEX
8
BORDER
10
21.6250
20
0.3750
30
0.0000
0
VERTEX
8
BORDER
10
0.3750
20
0.3750
30
0.0000
0
SEQEND
8
BORDER
0
POLYLINE
8
BORDER
66
1
10
0.0000
20
0.0000
30
0.0000
70
1
0
VERTEX
8
BORDER
10
0.7500
20
16.2500
30
0.0000
0
VERTEX
8
BORDER
10
21.2500
20
16.2500
30
0.0000
0
VERTEX
8
BORDER
10
21.2500
20
0.7500
30
0.0000
0
VERTEX
8
BORDER
10
0.7500
20
0.7500
30
0.0000
0
SEQEND
8
BORDER
0
TEXT
8
BORDER
10
2.8000
20
16.3148
30
0.0000
40
0.2448
1
5
72
1
11
2.8000
21
16.3148
31
0.0000
0
TEXT
8
BORDER
10
2.8000
20
0.4398
30
0.0000
40
0.2448
1
5
72
1
11
2.8000
21
0.4398
31
0.0000
0
TEXT
8
BORDER
10
6.9000
20
16.3148
30
0.0000
40
0.2448
1
4
72
1
11
6.9000
21
16.3148
31
0.0000
0
TEXT
8
BORDER
10
6.9000
20
0.4398
30
0.0000
40
0.2448
1
4
72
1
11
6.9000
21
0.4398
31
0.0000
0
LINE
8
BORDER
10
4.8500
20
16.6250
30
0.0000
11
4.8500
21
16.2500
31
0.0000
0
LINE
8
BORDER
10
4.8500
20
0.7500
30
0.0000
11
4.8500
21
0.3750
31
0.0000
0
TEXT
8
BORDER
10
11.0000
20
16.3148
30
0.0000
40
0.2448
1
3
72
1
11
11.0000
21
16.3148
31
0.0000
0
TEXT
8
BORDER
10
11.0000
20
0.4398
30
0.0000
40
0.2448
1
3
72
1
11
11.0000
21
0.4398
31
0.0000
0
LINE
8
BORDER
10
8.9500
20
16.6250
30
0.0000
11
8.9500
21
16.2500
31
0.0000
0
LINE
8
BORDER
10
8.9500
20
0.7500
30
0.0000
11
8.9500
21
0.3750
31
0.0000
0
TEXT
8
BORDER
10
15.1000
20
16.3148
30
0.0000
40
0.2448
1
2
72
1
11
15.1000
21
16.3148
31
0.0000
0
TEXT
8
BORDER
10
15.1000
20
0.4398
30
0.0000
40
0.2448
1
2
72
1
11
15.1000
21
0.4398
31
0.0000
0
LINE
8
BORDER
10
13.0500
20
16.6250
30
0.0000
11
13.0500
21
16.2500
31
0.0000
0
LINE
8
BORDER
10
13.0500
20
0.7500
30
0.0000
11
13.0500
21
0.3750
31
0.0000
0
TEXT
8
BORDER
10
19.2000
20
16.3148
30
0.0000
40
0.2448
1
1
72
1
11
19.2000
21
16.3148
31
0.0000
0
TEXT
8
BORDER
10
19.2000
20
0.4398
30
0.0000
40
0.2448
1
1
72
1
11
19.2000
21
0.4398
31
0.0000
0
LINE
8
BORDER
10
17.1500
20
16.6250
30
0.0000
11
17.1500
21
16.2500
31
0.0000
0
LINE
8
BORDER
10
17.1500
20
0.7500
30
0.0000
11
17.1500
21
0.3750
31
0.0000
0
TEXT
8
BORDER
10
0.5625
20
13.5439
30
0.0000
40
0.2448
1
C
72
1
11
0.5625
21
13.5439
31
0.0000
0
TEXT
8
BORDER
10
21.4375
20
13.5439
30
0.0000
40
0.2448
1
C
72
1
11
21.4375
21
13.5439
31
0.0000
0
TEXT
8
BORDER
10
0.5625
20
8.3773
30
0.0000
40
0.2448
1
B
72
1
11
0.5625
21
8.3773
31
0.0000
0
TEXT
8
BORDER
10
21.4375
20
8.3773
30
0.0000
40
0.2448
1
B
72
1
11
21.4375
21
8.3773
31
0.0000
0
LINE
8
BORDER
10
0.3750
20
11.0833
30
0.0000
11
0.7500
21
11.0833
31
0.0000
0
LINE
8
BORDER
10
21.2500
20
11.0833
30
0.0000
11
21.6250
21
11.0833
31
0.0000
0
TEXT
8
BORDER
10
0.5625
20
3.2106
30
0.0000
40
0.2448
1
A
72
1
11
0.5625
21
3.2106
31
0.0000
0
TEXT
8
BORDER
10
21.4375
20
3.2106
30
0.0000
40
0.2448
1
A
72
1
11
21.4375
21
3.2106
31
0.0000
0
LINE
8
BORDER
10
0.3750
20
5.9167
30
0.0000
11
0.7500
21
5.9167
31
0.0000
0
LINE
8
BORDER
10
21.2500
20
5.9167
30
0.0000
11
21.6250
21
5.9167
31
0.0000
0
POLYLINE
8
BORDER
66
1
10
0.0000
20
0.0000
30
0.0000
70
1
0
VERTEX
8
BORDER
10
0.7500
20
16.2500
30
0.0000
0
VERTEX
8
BORDER
10
3.5000
20
16.2500
30
0.0000
0
VERTEX
8
BORDER
10
3.5000
20
15.7500
30
0.0000
0
VERTEX
8
BORDER
10
0.7500
20
15.7500
30
0.0000
0
SEQEND
8
BORDER
0
TEXT
8
BORDER
10
2.1250
20
16.0614
30
0.0000
40
0.1224
1
W101-001  REV A
50
180.0000
72
1
11
2.1250
21
16.0614
31
0.0000
0
TEXT
8
0
10
0.9167
20
15.4129
30
0.0000
40
0.1224
1
WIRING DIAGRAM
0
POLYLINE
8
WIRING
66
1
10
0.0000
20
0.0000
30
0.0000
70
1
0
VERTEX
8
WIRING
10
0.9167
20
15.1906
30
0.0000
0
VERTEX
8
WIRING
10
3.9759
20
15.1906
30
0.0000
0
VERTEX
8
WIRING
10
3.9759
20
14.1338
30
0.0000
0
VERTEX
8
WIRING
10
0.9167
20
14.1338
30
0.0000
0
SEQEND
8
WIRING
0
TEXT
8
WIRING
10
2.4463
20
14.8291
30
0.0000
40
0.1997
1
P1
72
1
11
2.4463
21
14.8291
31
0.0000
0
TEXT
8
WIRING
10
2.4463
20
14.5510
30
0.0000
40
0.1398
1
D38999/26WD18SN
72
1
11
2.4463
21
14.5510
31
0.0000
0
TEXT
8
WIRING
10
2.4463
20
14.2729
30
0.0000
40
0.1398
1
TO FLIGHT COMPUTER J3
72
1
11
2.4463
21
14.2729
31
0.0000
0
POLYLINE
8
WIRING
66
1
10
0.0000
20
0.0000
30
0.0000
70
1
0
VERTEX
8
WIRING
10
0.9167
20
14.1338
30
0.0000
0
VERTEX
8
WIRING
10
3.9759
20
14.1338
30
0.0000
0
VERTEX
8
WIRING
10
3.9759
20
13.8001
30
0.0000
0
VERTEX
8
WIRING
10
0.9167
20
13.8001
30
0.0000
0
SEQEND
8
WIRING
0
TEXT
8
WIRING
10
1.3338
20
13.8835
30
0.0000
40
0.1398
1
PIN
72
1
11
1.3338
21
13.8835
31
0.0000
0
TEXT
8
WIRING
10
2.8634
20
13.8835
30
0.0000
40
0.1398
1
SIGNAL
72
1
11
2.8634
21
13.8835
31
0.0000
0
POLYLINE
8
WIRING
66
1
10
0.0000
20
0.0000
30
0.0000
70
1
0
VERTEX
8
WIRING
10
0.9167
20
13.8001
30
0.0000
0
VERTEX
8
WIRING
10
3.9759
20
13.8001
30
0.0000
0
VERTEX
8
WIRING
10
3.9759
20
6.7918
30
0.0000
0
VERTEX
8
WIRING
10
0.9167
20
6.7918
30
0.0000
0
SEQEND
8
WIRING
0
LINE
8
WIRING
10
1.7510
20
14.1338
30
0.0000
11
1.7510
21
6.7918
31
0.0000
0
TEXT
8
WIRING
10
1.3338
20
13.5220
30
0.0000
40
0.1398
1
A
72
1
11
1.3338
21
13.5220
31
0.0000
0
TEXT
8
WIRING
10
1.8622
20
13.5220
30
0.0000
40
0.1398
1
+28V PWR
0
CIRCLE
8
WIRING
10
3.9759
20
13.6054
30
0.0000
40
0.0362
0
LINE
8
WIRING
10
3.9759
20
13.6054
30
0.0000
11
7.6627
21
13.6054
31
0.0000
0
TEXT
8
WIRING
10
4.1149
20
13.6749
30
0.0000
40
0.1398
1
W1  20 AWG  RED
0
LINE
8
WIRING
10
0.9167
20
13.4107
30
0.0000
11
3.9759
21
13.4107
31
0.0000
0
TEXT
8
WIRING
10
1.3338
20
13.1326
30
0.0000
40
0.1398
1
B
72
1
11
1.3338
21
13.1326
31
0.0000
0
TEXT
8
WIRING
10
1.8622
20
13.1326
30
0.0000
40
0.1398
1
28V RTN
0
CIRCLE
8
WIRING
10
3.9759
20
13.2161
30
0.0000
40
0.0362
0
LINE
8
WIRING
10
3.9759
20
13.2161
30
0.0000
11
7.6627
21
13.2161
31
0.0000
0
TEXT
8
WIRING
10
4.1149
20
13.2856
30
0.0000
40
0.1398
1
W2  20 AWG  BLK
0
LINE
8
WIRING
10
0.9167
20
13.0214
30
0.0000
11
3.9759
21
13.0214
31
0.0000
0
TEXT
8
WIRING
10
1.3338
20
12.7433
30
0.0000
40
0.1398
1
C
72
1
11
1.3338
21
12.7433
31
0.0000
0
TEXT
8
WIRING
10
1.8622
20
12.7433
30
0.0000
40
0.1398
1
RS422 TX+
0
CIRCLE
8
WIRING
10
3.9759
20
12.8267
30
0.0000
40
0.0362
0
LINE
8
WIRING
10
3.9759
20
12.8267
30
0.0000
11
7.6627
21
12.8267
31
0.0000
0
TEXT
8
WIRING
10
4.1149
20
12.8962
30
0.0000
40
0.1398
1
W3  22 AWG  WHT
0
LINE
8
WIRING
10
0.9167
20
12.6320
30
0.0000
11
3.9759
21
12.6320
31
0.0000
0
TEXT
8
WIRING
10
1.3338
20
12.3539
30
0.0000
40
0.1398
1
D
72
1
11
1.3338
21
12.3539
31
0.0000
0
TEXT
8
WIRING
10
1.8622
20
12.3539
30
0.0000
40
0.1398
1
RS422 TX-
0
CIRCLE
8
WIRING
10
3.9759
20
12.4374
30
0.0000
40
0.0362
0
LINE
8
WIRING
10
3.9759
20
12.4374
30
0.0000
11
7.6627
21
12.4374
31
0.0000
0
TEXT
8
WIRING
10
4.1149
20
12.5069
30
0.0000
40
0.1398
1
W4  22 AWG  BLU
0
LINE
8
WIRING
10
0.9167
20
12.2427
30
0.0000
11
3.9759
21
12.2427
31
0.0000
0
TEXT
8
WIRING
10
1.3338
20
11.9646
30
0.0000
40
0.1398
1
E
72
1
11
1.3338
21
11.9646
31
0.0000
0
TEXT
8
WIRING
10
1.8622
20
11.9646
30
0.0000
40
0.1398
1
RS422 RX+
0
CIRCLE
8
WIRING
10
3.9759
20
12.0480
30
0.0000
40
0.0362
0
LINE
8
WIRING
10
3.9759
20
12.0480
30
0.0000
11
7.6627
21
12.0480
31
0.0000
0
TEXT
8
WIRING
10
4.1149
20
12.1175
30
0.0000
40
0.1398
1
W5  22 AWG  WHT
0
LINE
8
WIRING
10
0.9167
20
11.8533
30
0.0000
11
3.9759
21
11.8533
31
0.0000
0
TEXT
8
WIRING
10
1.3338
20
11.5752
30
0.0000
40
0.1398
1
F
72
1
11
1.3338
21
11.5752
31
0.0000
0
TEXT
8
WIRING
10
1.8622
20
11.5752
30
0.0000
40
0.1398
1
RS422 RX-
0
CIRCLE
8
WIRING
10
3.9759
20
11.6587
30
0.0000
40
0.0362
0
LINE
8
WIRING
10
3.9759
20
11.6587
30
0.0000
11
7.6627
21
11.6587
31
0.0000
0
TEXT
8
WIRING
10
4.1149
20
11.7282
30
0.0000
40
0.1398
1
W6  22 AWG  BLU
0
LINE
8
WIRING
10
0.9167
20
11.4640
30
0.0000
11
3.9759
21
11.4640
31
0.0000
0
TEXT
8
WIRING
10
1.3338
20
11.1859
30
0.0000
40
0.1398
1
G
72
1
11
1.3338
21
11.1859
31
0.0000
0
TEXT
8
WIRING
10
1.8622
20
11.1859
30
0.0000
40
0.1398
1
DISCRETE IN 1
0
CIRCLE
8
WIRING
10
3.9759
20
11.2693
30
0.0000
40
0.0362
0
LINE
8
WIRING
10
3.9759
20
11.2693
30
0.0000
11
7.6627
21
11.2693
31
0.0000
0
TEXT
8
WIRING
10
4.1149
20
11.3388
30
0.0000
40
0.1398
1
W7  22 AWG  WHT
0
LINE
8
WIRING
10
0.9167
20
11.0746
30
0.0000
11
3.9759
21
11.0746
31
0.0000
0
TEXT
8
WIRING
10
1.3338
20
10.7965
30
0.0000
40
0.1398
1
H
72
1
11
1.3338
21
10.7965
31
0.0000
0
TEXT
8
WIRING
10
1.8622
20
10.7965
30
0.0000
40
0.1398
1
DISCRETE OUT 1
0
CIRCLE
8
WIRING
10
3.9759
20
10.8800
30
0.0000
40
0.0362
0
LINE
8
WIRING
10
3.9759
20
10.8800
30
0.0000
11
7.6627
21
10.8800
31
0.0000
0
TEXT
8
WIRING
10
4.1149
20
10.9495
30
0.0000
40
0.1398
1
W8  22 AWG  WHT
0
LINE
8
WIRING
10
0.9167
20
10.6853
30
0.0000
11
3.9759
21
10.6853
31
0.0000
0
TEXT
8
WIRING
10
1.3338
20
10.4072
30
0.0000
40
0.1398
1
J
72
1
11
1.3338
21
10.4072
31
0.0000
0
TEXT
8
WIRING
10
1.8622
20
10.4072
30
0.0000
40
0.1398
1
SIG GND
0
CIRCLE
8
WIRING
10
3.9759
20
10.4906
30
0.0000
40
0.0362
0
LINE
8
WIRING
10
3.9759
20
10.4906
30
0.0000
11
7.6627
21
10.4906
31
0.0000
0
TEXT
8
WIRING
10
4.1149
20
10.5601
30
0.0000
40
0.1398
1
W9  22 AWG  BLK
0
LINE
8
WIRING
10
0.9167
20
10.2959
30
0.0000
11
3.9759
21
10.2959
31
0.0000
0
TEXT
8
WIRING
10
1.3338
20
10.0178
30
0.0000
40
0.1398
1
K
72
1
11
1.3338
21
10.0178
31
0.0000
0
TEXT
8
WIRING
10
1.8622
20
10.0178
30
0.0000
40
0.1398
1
ADDR STRAP
0
CIRCLE
8
WIRING
10
3.9759
20
10.1012
30
0.0000
40
0.0362
0
LINE
8
WIRING
10
3.9759
20
10.1012
30
0.0000
11
7.6627
21
10.1012
31
0.0000
0
TEXT
8
WIRING
10
4.1149
20
10.1708
30
0.0000
40
0.1398
1
W10  22 AWG  WHT
0
LINE
8
WIRING
10
0.9167
20
9.9066
30
0.0000
11
3.9759
21
9.9066
31
0.0000
0
TEXT
8
WIRING
10
1.3338
20
9.6285
30
0.0000
40
0.1398
1
L
72
1
11
1.3338
21
9.6285
31
0.0000
0
TEXT
8
WIRING
10
1.8622
20
9.6285
30
0.0000
40
0.1398
1
ADDR STRAP
0
CIRCLE
8
WIRING
10
3.9759
20
9.7119
30
0.0000
40
0.0362
0
LINE
8
WIRING
10
3.9759
20
9.7119
30
0.0000
11
7.6627
21
9.7119
31
0.0000
0
TEXT
8
WIRING
10
4.1149
20
9.7814
30
0.0000
40
0.1398
1
W10  22 AWG  WHT
0
LINE
8
WIRING
10
0.9167
20
9.5172
30
0.0000
11
3.9759
21
9.5172
31
0.0000
0
TEXT
8
WIRING
10
1.3338
20
9.2391
30
0.0000
40
0.1398
1
M
72
1
11
1.3338
21
9.2391
31
0.0000
0
TEXT
8
WIRING
10
1.8622
20
9.2391
30
0.0000
40
0.1398
1
CHASSIS GND
0
CIRCLE
8
WIRING
10
3.9759
20
9.3225
30
0.0000
40
0.0362
0
LINE
8
WIRING
10
3.9759
20
9.3225
30
0.0000
11
7.6627
21
9.3225
31
0.0000
0
TEXT
8
WIRING
10
4.1149
20
9.3921
30
0.0000
40
0.1398
1
W11  20 AWG  GRN
0
LINE
8
WIRING
10
0.9167
20
9.1279
30
0.0000
11
3.9759
21
9.1279
31
0.0000
0
TEXT
8
WIRING
10
1.3338
20
8.8498
30
0.0000
40
0.1398
1
N
72
1
11
1.3338
21
8.8498
31
0.0000
0
TEXT
8
WIRING
10
1.8622
20
8.8498
30
0.0000
40
0.1398
1
NC
0
LINE
8
WIRING
10
0.9167
20
8.7385
30
0.0000
11
3.9759
21
8.7385
31
0.0000
0
TEXT
8
WIRING
10
1.3338
20
8.4604
30
0.0000
40
0.1398
1
P
72
1
11
1.3338
21
8.4604
31
0.0000
0
TEXT
8
WIRING
10
1.8622
20
8.4604
30
0.0000
40
0.1398
1
NC
0
LINE
8
WIRING
10
0.9167
20
8.3492
30
0.0000
11
3.9759
21
8.3492
31
0.0000
0
TEXT
8
WIRING
10
1.3338
20
8.0711
30
0.0000
40
0.1398
1
R
72
1
11
1.3338
21
8.0711
31
0.0000
0
TEXT
8
WIRING
10
1.8622
20
8.0711
30
0.0000
40
0.1398
1
NC
0
LINE
8
WIRING
10
0.9167
20
7.9598
30
0.0000
11
3.9759
21
7.9598
31
0.0000
0
TEXT
8
WIRING
10
1.3338
20
7.6817
30
0.0000
40
0.1398
1
S
72
1
11
1.3338
21
7.6817
31
0.0000
0
TEXT
8
WIRING
10
1.8622
20
7.6817
30
0.0000
40
0.1398
1
NC
0
LINE
8
WIRING
10
0.9167
20
7.5705
30
0.0000
11
3.9759
21
7.5705
31
0.0000
0
TEXT
8
WIRING
10
1.3338
20
7.2923
30
0.0000
40
0.1398
1
T
72
1
11
1.3338
21
7.2923
31
0.0000
0
TEXT
8
WIRING
10
1.8622
20
7.2923
30
0.0000
40
0.1398
1
NC
0
LINE
8
WIRING
10
0.9167
20
7.1811
30
0.0000
11
3.9759
21
7.1811
31
0.0000
0
TEXT
8
WIRING
10
1.3338
20
6.9030
30
0.0000
40
0.1398
1
U
72
1
11
1.3338
21
6.9030
31
0.0000
0
TEXT
8
WIRING
10
1.8622
20
6.9030
30
0.0000
40
0.1398
1
NC
0
POLYLINE
8
WIRING
66
1
10
0.0000
20
0.0000
30
0.0000
70
1
0
VERTEX
8
WIRING
10
18.0241
20
15.1906
30
0.0000
0
VERTEX
8
WIRING
10
21.0833
20
15.1906
30
0.0000
0
VERTEX
8
WIRING
10
21.0833
20
14.1338
30
0.0000
0
VERTEX
8
WIRING
10
18.0241
20
14.1338
30
0.0000
0
SEQEND
8
WIRING
0
TEXT
8
WIRING
10
19.5537
20
14.8291
30
0.0000
40
0.1997
1
P2
72
1
11
19.5537
21
14.8291
31
0.0000
0
TEXT
8
WIRING
10
19.5537
20
14.5510
30
0.0000
40
0.1398
1
D38999/26WD18PN
72
1
11
19.5537
21
14.5510
31
0.0000
0
TEXT
8
WIRING
10
19.5537
20
14.2729
30
0.0000
40
0.1398
1
TO POWER DISTRIBUTION J7
72
1
11
19.5537
21
14.2729
31
0.0000
0
POLYLINE
8
WIRING
66
1
10
0.0000
20
0.0000
30
0.0000
70
1
0
VERTEX
8
WIRING
10
18.0241
20
14.1338
30
0.0000
0
VERTEX
8
WIRING
10
21.0833
20
14.1338
30
0.0000
0
VERTEX
8
WIRING
10
21.0833
20
13.8001
30
0.0000
0
VERTEX
8
WIRING
10
18.0241
20
13.8001
30
0.0000
0
SEQEND
8
WIRING
0
TEXT
8
WIRING
10
20.6662
20
13.8835
30
0.0000
40
0.1398
1
PIN
72
1
11
20.6662
21
13.8835
31
0.0000
0
TEXT
8
WIRING
10
19.1366
20
13.8835
30
0.0000
40
0.1398
1
SIGNAL
72
1
11
19.1366
21
13.8835
31
0.0000
0
POLYLINE
8
WIRING
66
1
10
0.0000
20
0.0000
30
0.0000
70
1
0
VERTEX
8
WIRING
10
18.0241
20
13.8001
30
0.0000
0
VERTEX
8
WIRING
10
21.0833
20
13.8001
30
0.0000
0
VERTEX
8
WIRING
10
21.0833
20
6.7918
30
0.0000
0
VERTEX
8
WIRING
10
18.0241
20
6.7918
30
0.0000
0
SEQEND
8
WIRING
0
LINE
8
WIRING
10
20.2490
20
14.1338
30
0.0000
11
20.2490
21
6.7918
31
0.0000
0
TEXT
8
WIRING
10
20.6662
20
13.5220
30
0.0000
40
0.1398
1
A
72
1
11
20.6662
21
13.5220
31
0.0000
0
TEXT
8
WIRING
10
18.1354
20
13.5220
30
0.0000
40
0.1398
1
+28V PWR
0
CIRCLE
8
WIRING
10
18.0241
20
13.6054
30
0.0000
40
0.0362
0
LINE
8
WIRING
10
18.0241
20
13.6054
30
0.0000
11
14.3373
21
13.6054
31
0.0000
0
TEXT
8
WIRING
10
17.8851
20
13.6749
30
0.0000
40
0.1398
1
W1  20 AWG  RED
72
2
11
17.8851
21
13.6749
31
0.0000
0
LINE
8
WIRING
10
18.0241
20
13.4107
30
0.0000
11
21.0833
21
13.4107
31
0.0000
0
TEXT
8
WIRING
10
20.6662
20
13.1326
30
0.0000
40
0.1398
1
B
72
1
11
20.6662
21
13.1326
31
0.0000
0
TEXT
8
WIRING
10
18.1354
20
13.1326
30
0.0000
40
0.1398
1
28V RTN
0
CIRCLE
8
WIRING
10
18.0241
20
13.2161
30
0.0000
40
0.0362
0
LINE
8
WIRING
10
18.0241
20
13.2161
30
0.0000
11
14.3373
21
13.2161
31
0.0000
0
TEXT
8
WIRING
10
17.8851
20
13.2856
30
0.0000
40
0.1398
1
W2  20 AWG  BLK
72
2
11
17.8851
21
13.2856
31
0.0000
0
LINE
8
WIRING
10
18.0241
20
13.0214
30
0.0000
11
21.0833
21
13.0214
31
0.0000
0
TEXT
8
WIRING
10
20.6662
20
12.7433
30
0.0000
40
0.1398
1
C
72
1
11
20.6662
21
12.7433
31
0.0000
0
TEXT
8
WIRING
10
18.1354
20
12.7433
30
0.0000
40
0.1398
1
RS422 TX+
0
CIRCLE
8
WIRING
10
18.0241
20
12.8267
30
0.0000
40
0.0362
0
LINE
8
WIRING
10
18.0241
20
12.8267
30
0.0000
11
14.3373
21
12.8267
31
0.0000
0
TEXT
8
WIRING
10
17.8851
20
12.8962
30
0.0000
40
0.1398
1
W3  22 AWG  WHT
72
2
11
17.8851
21
12.8962
31
0.0000
0
LINE
8
WIRING
10
18.0241
20
12.6320
30
0.0000
11
21.0833
21
12.6320
31
0.0000
0
TEXT
8
WIRING
10
20.6662
20
12.3539
30
0.0000
40
0.1398
1
D
72
1
11
20.6662
21
12.3539
31
0.0000
0
TEXT
8
WIRING
10
18.1354
20
12.3539
30
0.0000
40
0.1398
1
RS422 TX-
0
CIRCLE
8
WIRING
10
18.0241
20
12.4374
30
0.0000
40
0.0362
0
LINE
8
WIRING
10
18.0241
20
12.4374
30
0.0000
11
14.3373
21
12.4374
31
0.0000
0
TEXT
8
WIRING
10
17.8851
20
12.5069
30
0.0000
40
0.1398
1
W4  22 AWG  BLU
72
2
11
17.8851
21
12.5069
31
0.0000
0
LINE
8
WIRING
10
18.0241
20
12.2427
30
0.0000
11
21.0833
21
12.2427
31
0.0000
0
TEXT
8
WIRING
10
20.6662
20
11.9646
30
0.0000
40
0.1398
1
E
72
1
11
20.6662
21
11.9646
31
0.0000
0
TEXT
8
WIRING
10
18.1354
20
11.9646
30
0.0000
40
0.1398
1
RS422 RX+
0
CIRCLE
8
WIRING
10
18.0241
20
12.0480
30
0.0000
40
0.0362
0
LINE
8
WIRING
10
18.0241
20
12.0480
30
0.0000
11
14.3373
21
12.0480
31
0.0000
0
TEXT
8
WIRING
10
17.8851
20
12.1175
30
0.0000
40
0.1398
1
W5  22 AWG  WHT
72
2
11
17.8851
21
12.1175
31
0.0000
0
LINE
8
WIRING
10
18.0241
20
11.8533
30
0.0000
11
21.0833
21
11.8533
31
0.0000
0
TEXT
8
WIRING
10
20.6662
20
11.5752
30
0.0000
40
0.1398
1
F
72
1
11
20.6662
21
11.5752
31
0.0000
0
TEXT
8
WIRING
10
18.1354
20
11.5752
30
0.0000
40
0.1398
1
RS422 RX-
0
CIRCLE
8
WIRING
10
18.0241
20
11.6587
30
0.0000
40
0.0362
0
LINE
8
WIRING
10
18.0241
20
11.6587
30
0.0000
11
14.3373
21
11.6587
31
0.0000
0
TEXT
8
WIRING
10
17.8851
20
11.7282
30
0.0000
40
0.1398
1
W6  22 AWG  BLU
72
2
11
17.8851
21
11.7282
31
0.0000
0
LINE
8
WIRING
10
18.0241
20
11.4640
30
0.0000
11
21.0833
21
11.4640
31
0.0000
0
TEXT
8
WIRING
10
20.6662
20
11.1859
30
0.0000
40
0.1398
1
G
72
1
11
20.6662
21
11.1859
31
0.0000
0
TEXT
8
WIRING
10
18.1354
20
11.1859
30
0.0000
40
0.1398
1
DISCRETE OUT 1
0
CIRCLE
8
WIRING
10
18.0241
20
11.2693
30
0.0000
40
0.0362
0
LINE
8
WIRING
10
18.0241
20
11.2693
30
0.0000
11
14.3373
21
11.2693
31
0.0000
0
TEXT
8
WIRING
10
17.8851
20
11.3388
30
0.0000
40
0.1398
1
W8  22 AWG  WHT
72
2
11
17.8851
21
11.3388
31
0.0000
0
LINE
8
WIRING
10
18.0241
20
11.0746
30
0.0000
11
21.0833
21
11.0746
31
0.0000
0
TEXT
8
WIRING
10
20.6662
20
10.7965
30
0.0000
40
0.1398
1
H
72
1
11
20.6662
21
10.7965
31
0.0000
0
TEXT
8
WIRING
10
18.1354
20
10.7965
30
0.0000
40
0.1398
1
DISCRETE IN 1
0
CIRCLE
8
WIRING
10
18.0241
20
10.8800
30
0.0000
40
0.0362
0
LINE
8
WIRING
10
18.0241
20
10.8800
30
0.0000
11
14.3373
21
10.8800
31
0.0000
0
TEXT
8
WIRING
10
17.8851
20
10.9495
30
0.0000
40
0.1398
1
W7  22 AWG  WHT
72
2
11
17.8851
21
10.9495
31
0.0000
0
LINE
8
WIRING
10
18.0241
20
10.6853
30
0.0000
11
21.0833
21
10.6853
31
0.0000
0
TEXT
8
WIRING
10
20.6662
20
10.4072
30
0.0000
40
0.1398
1
J
72
1
11
20.6662
21
10.4072
31
0.0000
0
TEXT
8
WIRING
10
18.1354
20
10.4072
30
0.0000
40
0.1398
1
SIG GND A
0
CIRCLE
8
WIRING
10
18.0241
20
10.4906
30
0.0000
40
0.0362
0
LINE
8
WIRING
10
18.0241
20
10.4906
30
0.0000
11
14.3373
21
10.4906
31
0.0000
0
TEXT
8
WIRING
10
17.8851
20
10.5601
30
0.0000
40
0.1398
1
W12  22 AWG  BLK
72
2
11
17.8851
21
10.5601
31
0.0000
0
LINE
8
WIRING
10
18.0241
20
10.2959
30
0.0000
11
21.0833
21
10.2959
31
0.0000
0
TEXT
8
WIRING
10
20.6662
20
10.0178
30
0.0000
40
0.1398
1
K
72
1
11
20.6662
21
10.0178
31
0.0000
0
TEXT
8
WIRING
10
18.1354
20
10.0178
30
0.0000
40
0.1398
1
SIG GND B
0
CIRCLE
8
WIRING
10
18.0241
20
10.1012
30
0.0000
40
0.0362
0
LINE
8
WIRING
10
18.0241
20
10.1012
30
0.0000
11
14.3373
21
10.1012
31
0.0000
0
TEXT
8
WIRING
10
17.8851
20
10.1708
30
0.0000
40
0.1398
1
W13  22 AWG  BLK
72
2
11
17.8851
21
10.1708
31
0.0000
0
LINE
8
WIRING
10
18.0241
20
9.9066
30
0.0000
11
21.0833
21
9.9066
31
0.0000
0
TEXT
8
WIRING
10
20.6662
20
9.6285
30
0.0000
40
0.1398
1
L
72
1
11
20.6662
21
9.6285
31
0.0000
0
TEXT
8
WIRING
10
18.1354
20
9.6285
30
0.0000
40
0.1398
1
TSP1 SHIELD
0
CIRCLE
8
WIRING
10
18.0241
20
9.7119
30
0.0000
40
0.0362
0
LINE
8
WIRING
10
18.0241
20
9.5172
30
0.0000
11
21.0833
21
9.5172
31
0.0000
0
TEXT
8
WIRING
10
20.6662
20
9.2391
30
0.0000
40
0.1398
1
M
72
1
11
20.6662
21
9.2391
31
0.0000
0
TEXT
8
WIRING
10
18.1354
20
9.2391
30
0.0000
40
0.1398
1
CHASSIS GND
0
CIRCLE
8
WIRING
10
18.0241
20
9.3225
30
0.0000
40
0.0362
0
LINE
8
WIRING
10
18.0241
20
9.3225
30
0.0000
11
14.3373
21
9.3225
31
0.0000
0
TEXT
8
WIRING
10
17.8851
20
9.3921
30
0.0000
40
0.1398
1
W11  20 AWG  GRN
72
2
11
17.8851
21
9.3921
31
0.0000
0
LINE
8
WIRING
10
18.0241
20
9.1279
30
0.0000
11
21.0833
21
9.1279
31
0.0000
0
TEXT
8
WIRING
10
20.6662
20
8.8498
30
0.0000
40
0.1398
1
N
72
1
11
20.6662
21
8.8498
31
0.0000
0
TEXT
8
WIRING
10
18.1354
20
8.8498
30
0.0000
40
0.1398
1
NC
0
LINE
8
WIRING
10
18.0241
20
8.7385
30
0.0000
11
21.0833
21
8.7385
31
0.0000
0
TEXT
8
WIRING
10
20.6662
20
8.4604
30
0.0000
40
0.1398
1
P
72
1
11
20.6662
21
8.4604
31
0.0000
0
TEXT
8
WIRING
10
18.1354
20
8.4604
30
0.0000
40
0.1398
1
NC
0
LINE
8
WIRING
10
18.0241
20
8.3492
30
0.0000
11
21.0833
21
8.3492
31
0.0000
0
TEXT
8
WIRING
10
20.6662
20
8.0711
30
0.0000
40
0.1398
1
R
72
1
11
20.6662
21
8.0711
31
0.0000
0
TEXT
8
WIRING
10
18.1354
20
8.0711
30
0.0000
40
0.1398
1
NC
0
LINE
8
WIRING
10
18.0241
20
7.9598
30
0.0000
11
21.0833
21
7.9598
31
0.0000
0
TEXT
8
WIRING
10
20.6662
20
7.6817
30
0.0000
40
0.1398
1
S
72
1
11
20.6662
21
7.6817
31
0.0000
0
TEXT
8
WIRING
10
18.1354
20
7.6817
30
0.0000
40
0.1398
1
NC
0
LINE
8
WIRING
10
18.0241
20
7.5705
30
0.0000
11
21.0833
21
7.5705
31
0.0000
0
TEXT
8
WIRING
10
20.6662
20
7.2923
30
0.0000
40
0.1398
1
T
72
1
11
20.6662
21
7.2923
31
0.0000
0
TEXT
8
WIRING
10
18.1354
20
7.2923
30
0.0000
40
0.1398
1
NC
0
LINE
8
WIRING
10
18.0241
20
7.1811
30
0.0000
11
21.0833
21
7.1811
31
0.0000
0
TEXT
8
WIRING
10
20.6662
20
6.9030
30
0.0000
40
0.1398
1
U
72
1
11
20.6662
21
6.9030
31
0.0000
0
TEXT
8
WIRING
10
18.1354
20
6.9030
30
0.0000
40
0.1398
1
NC
0
LINE
8
WIRING
10
7.6627
20
13.6054
30
0.0000
11
14.3373
21
13.6054
31
0.0000
0
LINE
8
WIRING
10
7.6627
20
13.2161
30
0.0000
11
14.3373
21
13.2161
31
0.0000
0
LINE
8
WIRING
10
7.6627
20
12.8267
30
0.0000
11
14.3373
21
12.8267
31
0.0000
0
LINE
8
WIRING
10
7.6627
20
12.4374
30
0.0000
11
14.3373
21
12.4374
31
0.0000
0
LINE
8
WIRING
10
7.6627
20
12.0480
30
0.0000
11
14.3373
21
12.0480
31
0.0000
0
LINE
8
WIRING
10
7.6627
20
11.6587
30
0.0000
11
14.3373
21
11.6587
31
0.0000
0
LINE
8
WIRING
10
7.6627
20
11.2693
30
0.0000
11
14.3373
21
10.8800
31
0.0000
0
LINE
8
WIRING
10
7.6627
20
10.8800
30
0.0000
11
14.3373
21
11.2693
31
0.0000
0
LINE
8
WIRING
10
7.6627
20
10.4906
30
0.0000
11
11.0000
21
10.3608
31
0.0000
0
POLYLINE
8
WIRING
66
1
10
0.0000
20
0.0000
30
0.0000
70
0
0
VERTEX
8
WIRING
10
7.6627
20
10.1012
30
0.0000
0
VERTEX
8
WIRING
10
7.9964
20
10.1012
30
0.0000
0
VERTEX
8
WIRING
10
7.9964
20
9.7119
30
0.0000
0
VERTEX
8
WIRING
10
7.6627
20
9.7119
30
0.0000
0
SEQEND
8
WIRING
0
LINE
8
WIRING
10
7.6627
20
9.3225
30
0.0000
11
14.3373
21
9.3225
31
0.0000
0
LINE
8
WIRING
10
11.0000
20
10.3608
30
0.0000
11
14.3373
21
10.4906
31
0.0000
0
LINE
8
WIRING
10
11.0000
20
10.3608
30
0.0000
11
14.3373
21
10.1012
31
0.0000
0
CIRCLE
8
WIRING
10
11.0000
20
10.3608
30
0.0000
40
0.0973
0
TEXT
8
WIRING
10
11.0000
20
10.5555
30
0.0000
40
0.1597
1
SP1
72
1
11
11.0000
21
10.5555
31
0.0000
0
TEXT
8
WIRING
10
11.0000
20
9.9715
30
0.0000
40
0.1398
1
M81824/1-1
72
1
11
11.0000
21
9.9715
31
0.0000
0
LINE
8
SHIELDS
6
DASHED
10
18.0241
20
9.7119
30
0.0000
11
15.1994
21
9.7119
31
0.0000
0
TEXT
8
SHIELDS
10
17.8851
20
9.7814
30
0.0000
40
0.1398
1
TSP1 SHLD
72
2
11
17.8851
21
9.7814
31
0.0000
0
LINE
8
SHIELDS
10
6.3000
20
12.8267
30
0.0000
11
6.5224
21
12.4374
31
0.0000
0
LINE
8
SHIELDS
10
6.3000
20
12.4374
30
0.0000
11
6.5224
21
12.8267
31
0.0000
0
POLYLINE
8
SHIELDS
6
DASHED
66
1
10
0.0000
20
0.0000
30
0.0000
70
1
0
VERTEX
8
SHIELDS
10
6.6059
20
12.6320
30
0.0000
0
VERTEX
8
SHIELDS
10
6.6035
20
12.5777
30
0.0000
0
VERTEX
8
SHIELDS
10
6.5964
20
12.5246
30
0.0000
0
VERTEX
8
SHIELDS
10
6.5847
20
12.4742
30
0.0000
0
VERTEX
8
SHIELDS
10
6.5687
20
12.4277
30
0.0000
0
VERTEX
8
SHIELDS
10
6.5489
20
12.3862
30
0.0000
0
VERTEX
8
SHIELDS
10
6.5256
20
12.3508
30
0.0000
0
VERTEX
8
SHIELDS
10
6.4996
20
12.3223
30
0.0000
0
VERTEX
8
SHIELDS
10
6.4714
20
12.3014
30
0.0000
0
VERTEX
8
SHIELDS
10
6.4417
20
12.2887
30
0.0000
0
VERTEX
8
SHIELDS
10
6.4112
20
12.2844
30
0.0000
0
VERTEX
8
SHIELDS
10
6.3808
20
12.2887
30
0.0000
0
VERTEX
8
SHIELDS
10
6.3510
20
12.3014
30
0.0000
0
VERTEX
8
SHIELDS
10
6.3228
20
12.3223
30
0.0000
0
VERTEX
8
SHIELDS
10
6.2968
20
12.3508
30
0.0000
0
VERTEX
8
SHIELDS
10
6.2735
20
12.3862
30
0.0000
0
VERTEX
8
SHIELDS
10
6.2537
20
12.4277
30
0.0000
0
VERTEX
8
SHIELDS
10
6.2377
20
12.4742
30
0.0000
0
VERTEX
8
SHIELDS
10
6.2261
20
12.5246
30
0.0000
0
VERTEX
8
SHIELDS
10
6.2189
20
12.5777
30
0.0000
0
VERTEX
8
SHIELDS
10
6.2165
20
12.6320
30
0.0000
0
VERTEX
8
SHIELDS
10
6.2189
20
12.6864
30
0.0000
0
VERTEX
8
SHIELDS
10
6.2261
20
12.7395
30
0.0000
0
VERTEX
8
SHIELDS
10
6.2377
20
12.7899
30
0.0000
0
VERTEX
8
SHIELDS
10
6.2537
20
12.8364
30
0.0000
0
VERTEX
8
SHIELDS
10
6.2735
20
12.8779
30
0.0000
0
VERTEX
8
SHIELDS
10
6.2968
20
12.9133
30
0.0000
0
VERTEX
8
SHIELDS
10
6.3228
20
12.9418
30
0.0000
0
VERTEX
8
SHIELDS
10
6.3510
20
12.9627
30
0.0000
0
VERTEX
8
SHIELDS
10
6.3808
20
12.9754
30
0.0000
0
VERTEX
8
SHIELDS
10
6.4112
20
12.9797
30
0.0000
0
VERTEX
8
SHIELDS
10
6.4417
20
12.9754
30
0.0000
0
VERTEX
8
SHIELDS
10
6.4714
20
12.9627
30
0.0000
0
VERTEX
8
SHIELDS
10
6.4996
20
12.9418
30
0.0000
0
VERTEX
8
SHIELDS
10
6.5256
20
12.9133
30
0.0000
0
VERTEX
8
SHIELDS
10
6.5489
20
12.8779
30
0.0000
0
VERTEX
8
SHIELDS
10
6.5687
20
12.8364
30
0.0000
0
VERTEX
8
SHIELDS
10
6.5847
20
12.7899
30
0.0000
0
VERTEX
8
SHIELDS
10
6.5964
20
12.7395
30
0.0000
0
VERTEX
8
SHIELDS
10
6.6035
20
12.6864
30
0.0000
0
SEQEND
8
SHIELDS
0
TEXT
8
SHIELDS
10
6.6615
20
12.8962
30
0.0000
40
0.1398
1
TSP1
0
LINE
8
SHIELDS
6
DASHED
10
6.6059
20
12.6320
30
0.0000
11
6.8006
21
12.6320
31
0.0000
0
LINE
8
SHIELDS
10
6.8006
20
12.7572
30
0.0000
11
6.8006
21
12.5069
31
0.0000
0
LINE
8
SHIELDS
10
6.8617
20
12.7155
30
0.0000
11
6.8617
21
12.5486
31
0.0000
0
LINE
8
SHIELDS
10
6.9229
20
12.6738
30
0.0000
11
6.9229
21
12.5903
31
0.0000
0
LINE
8
SHIELDS
10
15.4776
20
12.8267
30
0.0000
11
15.7000
21
12.4374
31
0.0000
0
LINE
8
SHIELDS
10
15.4776
20
12.4374
30
0.0000
11
15.7000
21
12.8267
31
0.0000
0
POLYLINE
8
SHIELDS
6
DASHED
66
1
10
0.0000
20
0.0000
30
0.0000
70
1
0
VERTEX
8
SHIELDS
10
15.7835
20
12.6320
30
0.0000
0
VERTEX
8
SHIELDS
10
15.7811
20
12.5777
30
0.0000
0
VERTEX
8
SHIELDS
10
15.7739
20
12.5246
30
0.0000
0
VERTEX
8
SHIELDS
10
15.7623
20
12.4742
30
0.0000
0
VERTEX
8
SHIELDS
10
15.7463
20
12.4277
30
0.0000
0
VERTEX
8
SHIELDS
10
15.7265
20
12.3862
30
0.0000
0
VERTEX
8
SHIELDS
10
15.7032
20
12.3508
30
0.0000
0
VERTEX
8
SHIELDS
10
15.6772
20
12.3223
30
0.0000
0
VERTEX
8
SHIELDS
10
15.6490
20
12.3014
30
0.0000
0
VERTEX
8
SHIELDS
10
15.6192
20
12.2887
30
0.0000
0
VERTEX
8
SHIELDS
10
15.5888
20
12.2844
30
0.0000
0
VERTEX
8
SHIELDS
10
15.5583
20
12.2887
30
0.0000
0
VERTEX
8
SHIELDS
10
15.5286
20
12.3014
30
0.0000
0
VERTEX
8
SHIELDS
10
15.5004
20
12.3223
30
0.0000
0
VERTEX
8
SHIELDS
10
15.4744
20
12.3508
30
0.0000
0
VERTEX
8
SHIELDS
10
15.4511
20
12.3862
30
0.0000
0
VERTEX
8
SHIELDS
10
15.4313
20
12.4277
30
0.0000
0
VERTEX
8
SHIELDS
10
15.4153
20
12.4742
30
0.0000
0
VERTEX
8
SHIELDS
10
15.4036
20
12.5246
30
0.0000
0
VERTEX
8
SHIELDS
10
15.3965
20
12.5777
30
0.0000
0
VERTEX
8
SHIELDS
10
15.3941
20
12.6320
30
0.0000
0
VERTEX
8
SHIELDS
10
15.3965
20
12.6864
30
0.0000
0
VERTEX
8
SHIELDS
10
15.4036
20
12.7395
30
0.0000
0
VERTEX
8
SHIELDS
10
15.4153
20
12.7899
30
0.0000
0
VERTEX
8
SHIELDS
10
15.4313
20
12.8364
30
0.0000
0
VERTEX
8
SHIELDS
10
15.4511
20
12.8779
30
0.0000
0
VERTEX
8
SHIELDS
10
15.4744
20
12.9133
30
0.0000
0
VERTEX
8
SHIELDS
10
15.5004
20
12.9418
30
0.0000
0
VERTEX
8
SHIELDS
10
15.5286
20
12.9627
30
0.0000
0
VERTEX
8
SHIELDS
10
15.5583
20
12.9754
30
0.0000
0
VERTEX
8
SHIELDS
10
15.5888
20
12.9797
30
0.0000
0
VERTEX
8
SHIELDS
10
15.6192
20
12.9754
30
0.0000
0
VERTEX
8
SHIELDS
10
15.6490
20
12.9627
30
0.0000
0
VERTEX
8
SHIELDS
10
15.6772
20
12.9418
30
0.0000
0
VERTEX
8
SHIELDS
10
15.7032
20
12.9133
30
0.0000
0
VERTEX
8
SHIELDS
10
15.7265
20
12.8779
30
0.0000
0
VERTEX
8
SHIELDS
10
15.7463
20
12.8364
30
0.0000
0
VERTEX
8
SHIELDS
10
15.7623
20
12.7899
30
0.0000
0
VERTEX
8
SHIELDS
10
15.7739
20
12.7395
30
0.0000
0
VERTEX
8
SHIELDS
10
15.7811
20
12.6864
30
0.0000
0
SEQEND
8
SHIELDS
0
TEXT
8
SHIELDS
10
15.3385
20
12.8962
30
0.0000
40
0.1398
1
TSP1
72
2
11
15.3385
21
12.8962
31
0.0000
0
POLYLINE
8
SHIELDS
6
DASHED
66
1
10
0.0000
20
0.0000
30
0.0000
70
0
0
VERTEX
8
SHIELDS
10
15.3941
20
12.6320
30
0.0000
0
VERTEX
8
SHIELDS
10
15.1994
20
12.6320
30
0.0000
0
VERTEX
8
SHIELDS
10
15.1994
20
9.7119
30
0.0000
0
SEQEND
8
SHIELDS
0
CIRCLE
8
SHIELDS
10
15.1994
20
9.7119
30
0.0000
40
0.0389
0
LINE
8
SHIELDS
10
6.3000
20
12.0480
30
0.0000
11
6.5224
21
11.6587
31
0.0000
0
LINE
8
SHIELDS
10
6.3000
20
11.6587
30
0.0000
11
6.5224
21
12.0480
31
0.0000
0
TEXT
8
SHIELDS
10
6.6615
20
12.1175
30
0.0000
40
0.1398
1
TP2
0
LINE
8
SHIELDS
10
15.4776
20
12.0480
30
0.0000
11
15.7000
21
11.6587
31
0.0000
0
LINE
8
SHIELDS
10
15.4776
20
11.6587
30
0.0000
11
15.7000
21
12.0480
31
0.0000
0
TEXT
8
SHIELDS
10
15.3385
20
12.1175
30
0.0000
40
0.1398
1
TP2
72
2
11
15.3385
21
12.1175
31
0.0000
0
TEXT
8
WIRING
10
0.9167
20
6.2912
30
0.0000
40
0.1398
1
LEGEND:
0
LINE
8
WIRING
10
2.0708
20
6.4580
30
0.0000
11
2.2933
21
6.2912
31
0.0000
0
LINE
8
WIRING
10
2.0708
20
6.2912
30
0.0000
11
2.2933
21
6.4580
31
0.0000
0
TEXT
8
WIRING
10
2.4045
20
6.2912
30
0.0000
40
0.1398
1
TWISTED
0
POLYLINE
8
WIRING
6
DASHED
66
1
10
0.0000
20
0.0000
30
0.0000
70
1
0
VERTEX
8
WIRING
10
3.8646
20
6.3746
30
0.0000
0
VERTEX
8
WIRING
10
3.8629
20
6.3485
30
0.0000
0
VERTEX
8
WIRING
10
3.8578
20
6.3230
30
0.0000
0
VERTEX
8
WIRING
10
3.8495
20
6.2988
30
0.0000
0
VERTEX
8
WIRING
10
3.8381
20
6.2765
30
0.0000
0
VERTEX
8
WIRING
10
3.8239
20
6.2566
30
0.0000
0
VERTEX
8
WIRING
10
3.8073
20
6.2396
30
0.0000
0
VERTEX
8
WIRING
10
3.7887
20
6.2259
30
0.0000
0
VERTEX
8
WIRING
10
3.7685
20
6.2159
30
0.0000
0
VERTEX
8
WIRING
10
3.7473
20
6.2098
30
0.0000
0
VERTEX
8
WIRING
10
3.7256
20
6.2077
30
0.0000
0
VERTEX
8
WIRING
10
3.7038
20
6.2098
30
0.0000
0
VERTEX
8
WIRING
10
3.6826
20
6.2159
30
0.0000
0
VERTEX
8
WIRING
10
3.6624
20
6.2259
30
0.0000
0
VERTEX
8
WIRING
10
3.6438
20
6.2396
30
0.0000
0
VERTEX
8
WIRING
10
3.6272
20
6.2566
30
0.0000
0
VERTEX
8
WIRING
10
3.6131
20
6.2765
30
0.0000
0
VERTEX
8
WIRING
10
3.6017
20
6.2988
30
0.0000
0
VERTEX
8
WIRING
10
3.5933
20
6.3230
30
0.0000
0
VERTEX
8
WIRING
10
3.5882
20
6.3485
30
0.0000
0
VERTEX
8
WIRING
10
3.5865
20
6.3746
30
0.0000
0
VERTEX
8
WIRING
10
3.5882
20
6.4007
30
0.0000
0
VERTEX
8
WIRING
10
3.5933
20
6.4262
30
0.0000
0
VERTEX
8
WIRING
10
3.6017
20
6.4503
30
0.0000
0
VERTEX
8
WIRING
10
3.6131
20
6.4727
30
0.0000
0
VERTEX
8
WIRING
10
3.6272
20
6.4926
30
0.0000
0
VERTEX
8
WIRING
10
3.6438
20
6.5096
30
0.0000
0
VERTEX
8
WIRING
10
3.6624
20
6.5233
30
0.0000
0
VERTEX
8
WIRING
10
3.6826
20
6.5333
30
0.0000
0
VERTEX
8
WIRING
10
3.7038
20
6.5394
30
0.0000
0
VERTEX
8
WIRING
10
3.7256
20
6.5415
30
0.0000
0
VERTEX
8
WIRING
10
3.7473
20
6.5394
30
0.0000
0
VERTEX
8
WIRING
10
3.7685
20
6.5333
30
0.0000
0
VERTEX
8
WIRING
10
3.7887
20
6.5233
30
0.0000
0
VERTEX
8
WIRING
10
3.8073
20
6.5096
30
0.0000
0
VERTEX
8
WIRING
10
3.8239
20
6.4926
30
0.0000
0
VERTEX
8
WIRING
10
3.8381
20
6.4727
30
0.0000
0
VERTEX
8
WIRING
10
3.8495
20
6.4503
30
0.0000
0
VERTEX
8
WIRING
10
3.8578
20
6.4262
30
0.0000
0
VERTEX
8
WIRING
10
3.8629
20
6.4007
30
0.0000
0
SEQEND
8
WIRING
0
TEXT
8
WIRING
10
3.9759
20
6.2912
30
0.0000
40
0.1398
1
SHIELD
0
POLYLINE
8
WIRING
66
1
10
0.0000
20
0.0000
30
0.0000
70
1
0
VERTEX
8
WIRING
10
5.2631
20
6.3746
30
0.0000
0
VERTEX
8
WIRING
10
5.2613
20
6.3485
30
0.0000
0
VERTEX
8
WIRING
10
5.2563
20
6.3230
30
0.0000
0
VERTEX
8
WIRING
10
5.2479
20
6.2988
30
0.0000
0
VERTEX
8
WIRING
10
5.2365
20
6.2765
30
0.0000
0
VERTEX
8
WIRING
10
5.2223
20
6.2566
30
0.0000
0
VERTEX
8
WIRING
10
5.2057
20
6.2396
30
0.0000
0
VERTEX
8
WIRING
10
5.1871
20
6.2259
30
0.0000
0
VERTEX
8
WIRING
10
5.1670
20
6.2159
30
0.0000
0
VERTEX
8
WIRING
10
5.1458
20
6.2098
30
0.0000
0
VERTEX
8
WIRING
10
5.1240
20
6.2077
30
0.0000
0
VERTEX
8
WIRING
10
5.1023
20
6.2098
30
0.0000
0
VERTEX
8
WIRING
10
5.0810
20
6.2159
30
0.0000
0
VERTEX
8
WIRING
10
5.0609
20
6.2259
30
0.0000
0
VERTEX
8
WIRING
10
5.0423
20
6.2396
30
0.0000
0
VERTEX
8
WIRING
10
5.0257
20
6.2566
30
0.0000
0
VERTEX
8
WIRING
10
5.0115
20
6.2765
30
0.0000
0
VERTEX
8
WIRING
10
5.0001
20
6.2988
30
0.0000
0
VERTEX
8
WIRING
10
4.9918
20
6.3230
30
0.0000
0
VERTEX
8
WIRING
10
4.9867
20
6.3485
30
0.0000
0
VERTEX
8
WIRING
10
4.9850
20
6.3746
30
0.0000
0
VERTEX
8
WIRING
10
4.9867
20
6.4007
30
0.0000
0
VERTEX
8
WIRING
10
4.9918
20
6.4262
30
0.0000
0
VERTEX
8
WIRING
10
5.0001
20
6.4503
30
0.0000
0
VERTEX
8
WIRING
10
5.0115
20
6.4727
30
0.0000
0
VERTEX
8
WIRING
10
5.0257
20
6.4926
30
0.0000
0
VERTEX
8
WIRING
10
5.0423
20
6.5096
30
0.0000
0
VERTEX
8
WIRING
10
5.0609
20
6.5233
30
0.0000
0
VERTEX
8
WIRING
10
5.0810
20
6.5333
30
0.0000
0
VERTEX
8
WIRING
10
5.1023
20
6.5394
30
0.0000
0
VERTEX
8
WIRING
10
5.1240
20
6.5415
30
0.0000
0
VERTEX
8
WIRING
10
5.1458
20
6.5394
30
0.0000
0
VERTEX
8
WIRING
10
5.1670
20
6.5333
30
0.0000
0
VERTEX
8
WIRING
10
5.1871
20
6.5233
30
0.0000
0
VERTEX
8
WIRING
10
5.2057
20
6.5096
30
0.0000
0
VERTEX
8
WIRING
10
5.2223
20
6.4926
30
0.0000
0
VERTEX
8
WIRING
10
5.2365
20
6.4727
30
0.0000
0
VERTEX
8
WIRING
10
5.2479
20
6.4503
30
0.0000
0
VERTEX
8
WIRING
10
5.2563
20
6.4262
30
0.0000
0
VERTEX
8
WIRING
10
5.2613
20
6.4007
30
0.0000
0
SEQEND
8
WIRING
0
TEXT
8
WIRING
10
5.3743
20
6.2912
30
0.0000
40
0.1398
1
JACKETED CABLE
0
LINE
8
WIRING
10
7.4729
20
6.4997
30
0.0000
11
7.4729
21
6.2494
31
0.0000
0
LINE
8
WIRING
10
7.5341
20
6.4580
30
0.0000
11
7.5341
21
6.2912
31
0.0000
0
LINE
8
WIRING
10
7.5953
20
6.4163
30
0.0000
11
7.5953
21
6.3329
31
0.0000
0
TEXT
8
WIRING
10
7.7510
20
6.2912
30
0.0000
40
0.1398
1
SHIELD TO BACKSHELL / SHELL
0
TEXT
8
WIRING
10
11.1481
20
6.2912
30
0.0000
40
0.1398
1
? = SHIELD TERMINATION NOT SPECIFIED
0
POLYLINE
8
TITLE_BLOCK
66
1
10
0.0000
20
0.0000
30
0.0000
70
1
0
VERTEX
8
TITLE_BLOCK
10
17.2500
20
1.6000
30
0.0000
0
VERTEX
8
TITLE_BLOCK
10
21.2500
20
1.6000
30
0.0000
0
VERTEX
8
TITLE_BLOCK
10
21.2500
20
0.7500
30
0.0000
0
VERTEX
8
TITLE_BLOCK
10
17.2500
20
0.7500
30
0.0000
0
SEQEND
8
TITLE_BLOCK
0
POLYLINE
8
TITLE_BLOCK
66
1
10
0.0000
20
0.0000
30
0.0000
70
1
0
VERTEX
8
TITLE_BLOCK
10
17.2500
20
1.6000
30
0.0000
0
VERTEX
8
TITLE_BLOCK
10
17.8500
20
1.6000
30
0.0000
0
VERTEX
8
TITLE_BLOCK
10
17.8500
20
1.1000
30
0.0000
0
VERTEX
8
TITLE_BLOCK
10
17.2500
20
1.1000
30
0.0000
0
SEQEND
8
TITLE_BLOCK
0
TEXT
8
TITLE_BLOCK
10
17.2917
20
1.4792
30
0.0000
40
0.1020
1
SIZE
0
TEXT
8
TITLE_BLOCK
10
17.5500
20
1.1694
30
0.0000
40
0.2448
1
C
72
1
11
17.5500
21
1.1694
31
0.0000
0
POLYLINE
8
TITLE_BLOCK
66
1
10
0.0000
20
0.0000
30
0.0000
70
1
0
VERTEX
8
TITLE_BLOCK
10
17.8500
20
1.6000
30
0.0000
0
VERTEX
8
TITLE_BLOCK
10
18.8500
20
1.6000
30
0.0000
0
VERTEX
8
TITLE_BLOCK
10
18.8500
20
1.1000
30
0.0000
0
VERTEX
8
TITLE_BLOCK
10
17.8500
20
1.1000
30
0.0000
0
SEQEND
8
TITLE_BLOCK
0
TEXT
8
TITLE_BLOCK
10
17.8917
20
1.4792
30
0.0000
40
0.1020
1
CAGE CODE
0
POLYLINE
8
TITLE_BLOCK
66
1
10
0.0000
20
0.0000
30
0.0000
70
1
0
VERTEX
8
TITLE_BLOCK
10
18.8500
20
1.6000
30
0.0000
0
VERTEX
8
TITLE_BLOCK
10
20.6500
20
1.6000
30
0.0000
0
VERTEX
8
TITLE_BLOCK
10
20.6500
20
1.1000
30
0.0000
0
VERTEX
8
TITLE_BLOCK
10
18.8500
20
1.1000
30
0.0000
0
SEQEND
8
TITLE_BLOCK
0
TEXT
8
TITLE_BLOCK
10
18.8917
20
1.4792
30
0.0000
40
0.1020
1
DWG NO.
0
TEXT
8
TITLE_BLOCK
10
18.9194
20
1.1694
30
0.0000
40
0.2448
1
W101-001
0
POLYLINE
8
TITLE_BLOCK
66
1
10
0.0000
20
0.0000
30
0.0000
70
1
0
VERTEX
8
TITLE_BLOCK
10
20.6500
20
1.6000
30
0.0000
0
VERTEX
8
TITLE_BLOCK
10
21.2500
20
1.6000
30
0.0000
0
VERTEX
8
TITLE_BLOCK
10
21.2500
20
1.1000
30
0.0000
0
VERTEX
8
TITLE_BLOCK
10
20.6500
20
1.1000
30
0.0000
0
SEQEND
8
TITLE_BLOCK
0
TEXT
8
TITLE_BLOCK
10
20.6917
20
1.4792
30
0.0000
40
0.1020
1
REV
0
TEXT
8
TITLE_BLOCK
10
20.9500
20
1.1694
30
0.0000
40
0.1224
1
A
72
1
11
20.9500
21
1.1694
31
0.0000
0
POLYLINE
8
TITLE_BLOCK
66
1
10
0.0000
20
0.0000
30
0.0000
70
1
0
VERTEX
8
TITLE_BLOCK
10
17.2500
20
1.1000
30
0.0000
0
VERTEX
8
TITLE_BLOCK
10
18.5833
20
1.1000
30
0.0000
0
VERTEX
8
TITLE_BLOCK
10
18.5833
20
0.7500
30
0.0000
0
VERTEX
8
TITLE_BLOCK
10
17.2500
20
0.7500
30
0.0000
0
SEQEND
8
TITLE_BLOCK
0
TEXT
8
TITLE_BLOCK
10
17.2917
20
0.9792
30
0.0000
40
0.1020
1
SCALE
0
TEXT
8
TITLE_BLOCK
10
17.3194
20
0.8194
30
0.0000
40
0.1224
1
NONE
0
POLYLINE
8
TITLE_BLOCK
66
1
10
0.0000
20
0.0000
30
0.0000
70
1
0
VERTEX
8
TITLE_BLOCK
10
18.5833
20
1.1000
30
0.0000
0
VERTEX
8
TITLE_BLOCK
10
19.9167
20
1.1000
30
0.0000
0
VERTEX
8
TITLE_BLOCK
10
19.9167
20
0.7500
30
0.0000
0
VERTEX
8
TITLE_BLOCK
10
18.5833
20
0.7500
30
0.0000
0
SEQEND
8
TITLE_BLOCK
0
TEXT
8
TITLE_BLOCK
10
18.6250
20
0.9792
30
0.0000
40
0.1020
1
WEIGHT
0
POLYLINE
8
TITLE_BLOCK
66
1
10
0.0000
20
0.0000
30
0.0000
70
1
0
VERTEX
8
TITLE_BLOCK
10
19.9167
20
1.1000
30
0.0000
0
VERTEX
8
TITLE_BLOCK
10
21.2500
20
1.1000
30
0.0000
0
VERTEX
8
TITLE_BLOCK
10
21.2500
20
0.7500
30
0.0000
0
VERTEX
8
TITLE_BLOCK
10
19.9167
20
0.7500
30
0.0000
0
SEQEND
8
TITLE_BLOCK
0
TEXT
8
TITLE_BLOCK
10
19.9583
20
0.9792
30
0.0000
40
0.1020
1
SHEET
0
TEXT
8
TITLE_BLOCK
10
19.9861
20
0.8194
30
0.0000
40
0.1224
1
3 OF 4
0
ENDSEC
0
EOF
