0
SECTION
2
HEADER
9
$ACADVER
1
AC1009
9
$INSUNITS
70
1
9
$EXTMIN
10
0.0000
20
0.0000
30
0.0000
9
$EXTMAX
10
22.0000
20
17.0000
30
0.0000
9
$LIMMIN
10
0.0000
20
0.0000
9
$LIMMAX
10
22.0000
20
17.0000
0
ENDSEC
0
SECTION
2
TABLES
0
TABLE
2
LTYPE
70
2
0
LTYPE
2
CONTINUOUS
70
0
3
Solid line
72
65
73
0
40
0.0000
0
LTYPE
2
DASHED
70
0
3
__ __ __
72
65
73
2
40
0.1500
49
0.1000
49
-0.0500
0
ENDTAB
0
TABLE
2
LAYER
70
12
0
LAYER
2
0
70
0
62
7
6
CONTINUOUS
0
LAYER
2
BORDER
70
0
62
7
6
CONTINUOUS
0
LAYER
2
TITLE_BLOCK
70
0
62
7
6
CONTINUOUS
0
LAYER
2
ASSEMBLY
70
0
62
7
6
CONTINUOUS
0
LAYER
2
CABLE
70
0
62
7
6
CONTINUOUS
0
LAYER
2
DIMENSIONS
70
0
62
3
6
CONTINUOUS
0
LAYER
2
BALLOONS
70
0
62
5
6
CONTINUOUS
0
LAYER
2
WIRING
70
0
62
7
6
CONTINUOUS
0
LAYER
2
SHIELDS
70
0
62
4
6
CONTINUOUS
0
LAYER
2
TABLES
70
0
62
7
6
CONTINUOUS
0
LAYER
2
NOTES
70
0
62
7
6
CONTINUOUS
0
LAYER
2
TEXT
70
0
62
7
6
CONTINUOUS
0
ENDTAB
0
ENDSEC
0
SECTION
2
ENTITIES
0
POLYLINE
8
BORDER
66
1
10
0.0000
20
0.0000
30
0.0000
70
1
0
VERTEX
8
BORDER
10
0.3750
20
16.6250
30
0.0000
0
VERTEX
8
BORDER
10
21.6250
20
16.6250
30
0.0000
0
VERTEX
8
BORDER
10
21.6250
20
0.3750
30
0.0000
0
VERTEX
8
BORDER
10
0.3750
20
0.3750
30
0.0000
0
SEQEND
8
BORDER
0
POLYLINE
8
BORDER
66
1
10
0.0000
20
0.0000
30
0.0000
70
1
0
VERTEX
8
BORDER
10
0.7500
20
16.2500
30
0.0000
0
VERTEX
8
BORDER
10
21.2500
20
16.2500
30
0.0000
0
VERTEX
8
BORDER
10
21.2500
20
0.7500
30
0.0000
0
VERTEX
8
BORDER
10
0.7500
20
0.7500
30
0.0000
0
SEQEND
8
BORDER
0
TEXT
8
BORDER
10
2.8000
20
16.3148
30
0.0000
40
0.2448
1
5
72
1
11
2.8000
21
16.3148
31
0.0000
0
TEXT
8
BORDER
10
2.8000
20
0.4398
30
0.0000
40
0.2448
1
5
72
1
11
2.8000
21
0.4398
31
0.0000
0
TEXT
8
BORDER
10
6.9000
20
16.3148
30
0.0000
40
0.2448
1
4
72
1
11
6.9000
21
16.3148
31
0.0000
0
TEXT
8
BORDER
10
6.9000
20
0.4398
30
0.0000
40
0.2448
1
4
72
1
11
6.9000
21
0.4398
31
0.0000
0
LINE
8
BORDER
10
4.8500
20
16.6250
30
0.0000
11
4.8500
21
16.2500
31
0.0000
0
LINE
8
BORDER
10
4.8500
20
0.7500
30
0.0000
11
4.8500
21
0.3750
31
0.0000
0
TEXT
8
BORDER
10
11.0000
20
16.3148
30
0.0000
40
0.2448
1
3
72
1
11
11.0000
21
16.3148
31
0.0000
0
TEXT
8
BORDER
10
11.0000
20
0.4398
30
0.0000
40
0.2448
1
3
72
1
11
11.0000
21
0.4398
31
0.0000
0
LINE
8
BORDER
10
8.9500
20
16.6250
30
0.0000
11
8.9500
21
16.2500
31
0.0000
0
LINE
8
BORDER
10
8.9500
20
0.7500
30
0.0000
11
8.9500
21
0.3750
31
0.0000
0
TEXT
8
BORDER
10
15.1000
20
16.3148
30
0.0000
40
0.2448
1
2
72
1
11
15.1000
21
16.3148
31
0.0000
0
TEXT
8
BORDER
10
15.1000
20
0.4398
30
0.0000
40
0.2448
1
2
72
1
11
15.1000
21
0.4398
31
0.0000
0
LINE
8
BORDER
10
13.0500
20
16.6250
30
0.0000
11
13.0500
21
16.2500
31
0.0000
0
LINE
8
BORDER
10
13.0500
20
0.7500
30
0.0000
11
13.0500
21
0.3750
31
0.0000
0
TEXT
8
BORDER
10
19.2000
20
16.3148
30
0.0000
40
0.2448
1
1
72
1
11
19.2000
21
16.3148
31
0.0000
0
TEXT
8
BORDER
10
19.2000
20
0.4398
30
0.0000
40
0.2448
1
1
72
1
11
19.2000
21
0.4398
31
0.0000
0
LINE
8
BORDER
10
17.1500
20
16.6250
30
0.0000
11
17.1500
21
16.2500
31
0.0000
0
LINE
8
BORDER
10
17.1500
20
0.7500
30
0.0000
11
17.1500
21
0.3750
31
0.0000
0
TEXT
8
BORDER
10
0.5625
20
13.5439
30
0.0000
40
0.2448
1
C
72
1
11
0.5625
21
13.5439
31
0.0000
0
TEXT
8
BORDER
10
21.4375
20
13.5439
30
0.0000
40
0.2448
1
C
72
1
11
21.4375
21
13.5439
31
0.0000
0
TEXT
8
BORDER
10
0.5625
20
8.3773
30
0.0000
40
0.2448
1
B
72
1
11
0.5625
21
8.3773
31
0.0000
0
TEXT
8
BORDER
10
21.4375
20
8.3773
30
0.0000
40
0.2448
1
B
72
1
11
21.4375
21
8.3773
31
0.0000
0
LINE
8
BORDER
10
0.3750
20
11.0833
30
0.0000
11
0.7500
21
11.0833
31
0.0000
0
LINE
8
BORDER
10
21.2500
20
11.0833
30
0.0000
11
21.6250
21
11.0833
31
0.0000
0
TEXT
8
BORDER
10
0.5625
20
3.2106
30
0.0000
40
0.2448
1
A
72
1
11
0.5625
21
3.2106
31
0.0000
0
TEXT
8
BORDER
10
21.4375
20
3.2106
30
0.0000
40
0.2448
1
A
72
1
11
21.4375
21
3.2106
31
0.0000
0
LINE
8
BORDER
10
0.3750
20
5.9167
30
0.0000
11
0.7500
21
5.9167
31
0.0000
0
LINE
8
BORDER
10
21.2500
20
5.9167
30
0.0000
11
21.6250
21
5.9167
31
0.0000
0
POLYLINE
8
BORDER
66
1
10
0.0000
20
0.0000
30
0.0000
70
1
0
VERTEX
8
BORDER
10
0.7500
20
16.2500
30
0.0000
0
VERTEX
8
BORDER
10
3.5000
20
16.2500
30
0.0000
0
VERTEX
8
BORDER
10
3.5000
20
15.7500
30
0.0000
0
VERTEX
8
BORDER
10
0.7500
20
15.7500
30
0.0000
0
SEQEND
8
BORDER
0
TEXT
8
BORDER
10
2.1250
20
16.0614
30
0.0000
40
0.1224
1
W101-001  REV A
50
180.0000
72
1
11
2.1250
21
16.0614
31
0.0000
0
TEXT
8
0
10
0.9167
20
15.4129
30
0.0000
40
0.1224
1
WIRING DIAGRAM
0
POLYLINE
8
WIRING
66
1
10
0.0000
20
0.0000
30
0.0000
70
1
0
VERTEX
8
WIRING
10
0.9167
20
15.1906
30
0.0000
0
VERTEX
8
WIRING
10
4.0987
20
15.1906
30
0.0000
0
VERTEX
8
WIRING
10
4.0987
20
14.0914
30
0.0000
0
VERTEX
8
WIRING
10
0.9167
20
14.0914
30
0.0000
0
SEQEND
8
WIRING
0
TEXT
8
WIRING
10
2.5077
20
14.8146
30
0.0000
40
0.2077
1
P1
72
1
11
2.5077
21
14.8146
31
0.0000
0
TEXT
8
WIRING
10
2.5077
20
14.5253
30
0.0000
40
0.1454
1
D38999/26WD18SN
72
1
11
2.5077
21
14.5253
31
0.0000
0
TEXT
8
WIRING
10
2.5077
20
14.2360
30
0.0000
40
0.1454
1
TO FLIGHT COMPUTER J3
72
1
11
2.5077
21
14.2360
31
0.0000
0
POLYLINE
8
WIRING
66
1
10
0.0000
20
0.0000
30
0.0000
70
1
0
VERTEX
8
WIRING
10
0.9167
20
14.0914
30
0.0000
0
VERTEX
8
WIRING
10
4.0987
20
14.0914
30
0.0000
0
VERTEX
8
WIRING
10
4.0987
20
13.7442
30
0.0000
0
VERTEX
8
WIRING
10
0.9167
20
13.7442
30
0.0000
0
SEQEND
8
WIRING
0
TEXT
8
WIRING
10
1.3506
20
13.8310
30
0.0000
40
0.1454
1
PIN
72
1
11
1.3506
21
13.8310
31
0.0000
0
TEXT
8
WIRING
10
2.9416
20
13.8310
30
0.0000
40
0.1454
1
SIGNAL
72
1
11
2.9416
21
13.8310
31
0.0000
0
POLYLINE
8
WIRING
66
1
10
0.0000
20
0.0000
30
0.0000
70
1
0
VERTEX
8
WIRING
10
0.9167
20
13.7442
30
0.0000
0
VERTEX
8
WIRING
10
4.0987
20
13.7442
30
0.0000
0
VERTEX
8
WIRING
10
4.0987
20
8.8844
30
0.0000
0
VERTEX
8
WIRING
10
0.9167
20
8.8844
30
0.0000
0
SEQEND
8
WIRING
0
LINE
8
WIRING
10
1.7845
20
14.0914
30
0.0000
11
1.7845
21
8.8844
31
0.0000
0
TEXT
8
WIRING
10
1.3506
20
13.4550
30
0.0000
40
0.1454
1
1
72
1
11
1.3506
21
13.4550
31
0.0000
0
TEXT
8
WIRING
10
1.9002
20
13.4550
30
0.0000
40
0.1454
1
+28V PWR
0
CIRCLE
8
WIRING
10
4.0987
20
13.5417
30
0.0000
40
0.0376
0
LINE
8
WIRING
10
4.0987
20
13.5417
30
0.0000
11
7.5287
21
13.5417
31
0.0000
0
TEXT
8
WIRING
10
4.2434
20
13.6141
30
0.0000
40
0.1454
1
W1  20 AWG  RED
0
LINE
8
WIRING
10
0.9167
20
13.3393
30
0.0000
11
4.0987
21
13.3393
31
0.0000
0
TEXT
8
WIRING
10
1.3506
20
13.0500
30
0.0000
40
0.1454
1
2
72
1
11
1.3506
21
13.0500
31
0.0000
0
TEXT
8
WIRING
10
1.9002
20
13.0500
30
0.0000
40
0.1454
1
28V RTN
0
CIRCLE
8
WIRING
10
4.0987
20
13.1368
30
0.0000
40
0.0376
0
LINE
8
WIRING
10
4.0987
20
13.1368
30
0.0000
11
7.5287
21
13.1368
31
0.0000
0
TEXT
8
WIRING
10
4.2434
20
13.2091
30
0.0000
40
0.1454
1
W2  20 AWG  BLK
0
LINE
8
WIRING
10
0.9167
20
12.9343
30
0.0000
11
4.0987
21
12.9343
31
0.0000
0
TEXT
8
WIRING
10
1.3506
20
12.6450
30
0.0000
40
0.1454
1
3
72
1
11
1.3506
21
12.6450
31
0.0000
0
TEXT
8
WIRING
10
1.9002
20
12.6450
30
0.0000
40
0.1454
1
RS422 TX+
0
CIRCLE
8
WIRING
10
4.0987
20
12.7318
30
0.0000
40
0.0376
0
LINE
8
WIRING
10
4.0987
20
12.7318
30
0.0000
11
7.5287
21
12.7318
31
0.0000
0
TEXT
8
WIRING
10
4.2434
20
12.8041
30
0.0000
40
0.1454
1
W3  22 AWG  WHT
0
LINE
8
WIRING
10
0.9167
20
12.5293
30
0.0000
11
4.0987
21
12.5293
31
0.0000
0
TEXT
8
WIRING
10
1.3506
20
12.2400
30
0.0000
40
0.1454
1
4
72
1
11
1.3506
21
12.2400
31
0.0000
0
TEXT
8
WIRING
10
1.9002
20
12.2400
30
0.0000
40
0.1454
1
RS422 TX-
0
CIRCLE
8
WIRING
10
4.0987
20
12.3268
30
0.0000
40
0.0376
0
LINE
8
WIRING
10
4.0987
20
12.3268
30
0.0000
11
7.5287
21
12.3268
31
0.0000
0
TEXT
8
WIRING
10
4.2434
20
12.3991
30
0.0000
40
0.1454
1
W4  22 AWG  BLU
0
LINE
8
WIRING
10
0.9167
20
12.1243
30
0.0000
11
4.0987
21
12.1243
31
0.0000
0
TEXT
8
WIRING
10
1.3506
20
11.8350
30
0.0000
40
0.1454
1
5
72
1
11
1.3506
21
11.8350
31
0.0000
0
TEXT
8
WIRING
10
1.9002
20
11.8350
30
0.0000
40
0.1454
1
RS422 RX+
0
CIRCLE
8
WIRING
10
4.0987
20
11.9218
30
0.0000
40
0.0376
0
LINE
8
WIRING
10
4.0987
20
11.9218
30
0.0000
11
7.5287
21
11.9218
31
0.0000
0
TEXT
8
WIRING
10
4.2434
20
11.9941
30
0.0000
40
0.1454
1
W5  22 AWG  WHT
0
LINE
8
WIRING
10
0.9167
20
11.7193
30
0.0000
11
4.0987
21
11.7193
31
0.0000
0
TEXT
8
WIRING
10
1.3506
20
11.4300
30
0.0000
40
0.1454
1
6
72
1
11
1.3506
21
11.4300
31
0.0000
0
TEXT
8
WIRING
10
1.9002
20
11.4300
30
0.0000
40
0.1454
1
RS422 RX-
0
CIRCLE
8
WIRING
10
4.0987
20
11.5168
30
0.0000
40
0.0376
0
LINE
8
WIRING
10
4.0987
20
11.5168
30
0.0000
11
7.5287
21
11.5168
31
0.0000
0
TEXT
8
WIRING
10
4.2434
20
11.5891
30
0.0000
40
0.1454
1
W6  22 AWG  BLU
0
LINE
8
WIRING
10
0.9167
20
11.3143
30
0.0000
11
4.0987
21
11.3143
31
0.0000
0
TEXT
8
WIRING
10
1.3506
20
11.0250
30
0.0000
40
0.1454
1
7
72
1
11
1.3506
21
11.0250
31
0.0000
0
TEXT
8
WIRING
10
1.9002
20
11.0250
30
0.0000
40
0.1454
1
DISCRETE IN 1
0
CIRCLE
8
WIRING
10
4.0987
20
11.1118
30
0.0000
40
0.0376
0
LINE
8
WIRING
10
4.0987
20
11.1118
30
0.0000
11
7.5287
21
11.1118
31
0.0000
0
TEXT
8
WIRING
10
4.2434
20
11.1841
30
0.0000
40
0.1454
1
W7  22 AWG  WHT
0
LINE
8
WIRING
10
0.9167
20
10.9093
30
0.0000
11
4.0987
21
10.9093
31
0.0000
0
TEXT
8
WIRING
10
1.3506
20
10.6200
30
0.0000
40
0.1454
1
8
72
1
11
1.3506
21
10.6200
31
0.0000
0
TEXT
8
WIRING
10
1.9002
20
10.6200
30
0.0000
40
0.1454
1
DISCRETE OUT 1
0
CIRCLE
8
WIRING
10
4.0987
20
10.7068
30
0.0000
40
0.0376
0
LINE
8
WIRING
10
4.0987
20
10.7068
30
0.0000
11
7.5287
21
10.7068
31
0.0000
0
TEXT
8
WIRING
10
4.2434
20
10.7791
30
0.0000
40
0.1454
1
W8  22 AWG  WHT
0
LINE
8
WIRING
10
0.9167
20
10.5043
30
0.0000
11
4.0987
21
10.5043
31
0.0000
0
TEXT
8
WIRING
10
1.3506
20
10.2150
30
0.0000
40
0.1454
1
9
72
1
11
1.3506
21
10.2150
31
0.0000
0
TEXT
8
WIRING
10
1.9002
20
10.2150
30
0.0000
40
0.1454
1
SIG GND
0
CIRCLE
8
WIRING
10
4.0987
20
10.3018
30
0.0000
40
0.0376
0
LINE
8
WIRING
10
4.0987
20
10.3018
30
0.0000
11
7.5287
21
10.3018
31
0.0000
0
TEXT
8
WIRING
10
4.2434
20
10.3741
30
0.0000
40
0.1454
1
W9  22 AWG  BLK
0
LINE
8
WIRING
10
0.9167
20
10.0993
30
0.0000
11
4.0987
21
10.0993
31
0.0000
0
TEXT
8
WIRING
10
1.3506
20
9.8101
30
0.0000
40
0.1454
1
10
72
1
11
1.3506
21
9.8101
31
0.0000
0
TEXT
8
WIRING
10
1.9002
20
9.8101
30
0.0000
40
0.1454
1
ADDR STRAP
0
CIRCLE
8
WIRING
10
4.0987
20
9.8968
30
0.0000
40
0.0376
0
LINE
8
WIRING
10
4.0987
20
9.8968
30
0.0000
11
7.5287
21
9.8968
31
0.0000
0
TEXT
8
WIRING
10
4.2434
20
9.9692
30
0.0000
40
0.1454
1
W10  22 AWG  WHT
0
LINE
8
WIRING
10
0.9167
20
9.6943
30
0.0000
11
4.0987
21
9.6943
31
0.0000
0
TEXT
8
WIRING
10
1.3506
20
9.4051
30
0.0000
40
0.1454
1
11
72
1
11
1.3506
21
9.4051
31
0.0000
0
TEXT
8
WIRING
10
1.9002
20
9.4051
30
0.0000
40
0.1454
1
ADDR STRAP
0
CIRCLE
8
WIRING
10
4.0987
20
9.4918
30
0.0000
40
0.0376
0
LINE
8
WIRING
10
4.0987
20
9.4918
30
0.0000
11
7.5287
21
9.4918
31
0.0000
0
TEXT
8
WIRING
10
4.2434
20
9.5642
30
0.0000
40
0.1454
1
W10  22 AWG  WHT
0
LINE
8
WIRING
10
0.9167
20
9.2894
30
0.0000
11
4.0987
21
9.2894
31
0.0000
0
TEXT
8
WIRING
10
1.3506
20
9.0001
30
0.0000
40
0.1454
1
12
72
1
11
1.3506
21
9.0001
31
0.0000
0
TEXT
8
WIRING
10
1.9002
20
9.0001
30
0.0000
40
0.1454
1
CHASSIS GND
0
CIRCLE
8
WIRING
10
4.0987
20
9.0869
30
0.0000
40
0.0376
0
LINE
8
WIRING
10
4.0987
20
9.0869
30
0.0000
11
7.5287
21
9.0869
31
0.0000
0
TEXT
8
WIRING
10
4.2434
20
9.1592
30
0.0000
40
0.1454
1
W11  20 AWG  GRN
0
POLYLINE
8
WIRING
66
1
10
0.0000
20
0.0000
30
0.0000
70
1
0
VERTEX
8
WIRING
10
17.9013
20
15.1906
30
0.0000
0
VERTEX
8
WIRING
10
21.0833
20
15.1906
30
0.0000
0
VERTEX
8
WIRING
10
21.0833
20
14.0914
30
0.0000
0
VERTEX
8
WIRING
10
17.9013
20
14.0914
30
0.0000
0
SEQEND
8
WIRING
0
TEXT
8
WIRING
10
19.4923
20
14.8146
30
0.0000
40
0.2077
1
P2
72
1
11
19.4923
21
14.8146
31
0.0000
0
TEXT
8
WIRING
10
19.4923
20
14.5253
30
0.0000
40
0.1454
1
D38999/26WD18PN
72
1
11
19.4923
21
14.5253
31
0.0000
0
TEXT
8
WIRING
10
19.4923
20
14.2360
30
0.0000
40
0.1454
1
TO POWER DISTRIBUTION J7
72
1
11
19.4923
21
14.2360
31
0.0000
0
POLYLINE
8
WIRING
66
1
10
0.0000
20
0.0000
30
0.0000
70
1
0
VERTEX
8
WIRING
10
17.9013
20
14.0914
30
0.0000
0
VERTEX
8
WIRING
10
21.0833
20
14.0914
30
0.0000
0
VERTEX
8
WIRING
10
21.0833
20
13.7442
30
0.0000
0
VERTEX
8
WIRING
10
17.9013
20
13.7442
30
0.0000
0
SEQEND
8
WIRING
0
TEXT
8
WIRING
10
20.6494
20
13.8310
30
0.0000
40
0.1454
1
PIN
72
1
11
20.6494
21
13.8310
31
0.0000
0
TEXT
8
WIRING
10
19.0584
20
13.8310
30
0.0000
40
0.1454
1
SIGNAL
72
1
11
19.0584
21
13.8310
31
0.0000
0
POLYLINE
8
WIRING
66
1
10
0.0000
20
0.0000
30
0.0000
70
1
0
VERTEX
8
WIRING
10
17.9013
20
13.7442
30
0.0000
0
VERTEX
8
WIRING
10
21.0833
20
13.7442
30
0.0000
0
VERTEX
8
WIRING
10
21.0833
20
8.8844
30
0.0000
0
VERTEX
8
WIRING
10
17.9013
20
8.8844
30
0.0000
0
SEQEND
8
WIRING
0
LINE
8
WIRING
10
20.2155
20
14.0914
30
0.0000
11
20.2155
21
8.8844
31
0.0000
0
TEXT
8
WIRING
10
20.6494
20
13.4550
30
0.0000
40
0.1454
1
1
72
1
11
20.6494
21
13.4550
31
0.0000
0
TEXT
8
WIRING
10
18.0170
20
13.4550
30
0.0000
40
0.1454
1
+28V PWR
0
CIRCLE
8
WIRING
10
17.9013
20
13.5417
30
0.0000
40
0.0376
0
LINE
8
WIRING
10
17.9013
20
13.5417
30
0.0000
11
14.4713
21
13.5417
31
0.0000
0
TEXT
8
WIRING
10
17.7566
20
13.6141
30
0.0000
40
0.1454
1
W1  20 AWG  RED
72
2
11
17.7566
21
13.6141
31
0.0000
0
LINE
8
WIRING
10
17.9013
20
13.3393
30
0.0000
11
21.0833
21
13.3393
31
0.0000
0
TEXT
8
WIRING
10
20.6494
20
13.0500
30
0.0000
40
0.1454
1
2
72
1
11
20.6494
21
13.0500
31
0.0000
0
TEXT
8
WIRING
10
18.0170
20
13.0500
30
0.0000
40
0.1454
1
28V RTN
0
CIRCLE
8
WIRING
10
17.9013
20
13.1368
30
0.0000
40
0.0376
0
LINE
8
WIRING
10
17.9013
20
13.1368
30
0.0000
11
14.4713
21
13.1368
31
0.0000
0
TEXT
8
WIRING
10
17.7566
20
13.2091
30
0.0000
40
0.1454
1
W2  20 AWG  BLK
72
2
11
17.7566
21
13.2091
31
0.0000
0
LINE
8
WIRING
10
17.9013
20
12.9343
30
0.0000
11
21.0833
21
12.9343
31
0.0000
0
TEXT
8
WIRING
10
20.6494
20
12.6450
30
0.0000
40
0.1454
1
3
72
1
11
20.6494
21
12.6450
31
0.0000
0
TEXT
8
WIRING
10
18.0170
20
12.6450
30
0.0000
40
0.1454
1
RS422 TX+
0
CIRCLE
8
WIRING
10
17.9013
20
12.7318
30
0.0000
40
0.0376
0
LINE
8
WIRING
10
17.9013
20
12.7318
30
0.0000
11
14.4713
21
12.7318
31
0.0000
0
TEXT
8
WIRING
10
17.7566
20
12.8041
30
0.0000
40
0.1454
1
W3  22 AWG  WHT
72
2
11
17.7566
21
12.8041
31
0.0000
0
LINE
8
WIRING
10
17.9013
20
12.5293
30
0.0000
11
21.0833
21
12.5293
31
0.0000
0
TEXT
8
WIRING
10
20.6494
20
12.2400
30
0.0000
40
0.1454
1
4
72
1
11
20.6494
21
12.2400
31
0.0000
0
TEXT
8
WIRING
10
18.0170
20
12.2400
30
0.0000
40
0.1454
1
RS422 TX-
0
CIRCLE
8
WIRING
10
17.9013
20
12.3268
30
0.0000
40
0.0376
0
LINE
8
WIRING
10
17.9013
20
12.3268
30
0.0000
11
14.4713
21
12.3268
31
0.0000
0
TEXT
8
WIRING
10
17.7566
20
12.3991
30
0.0000
40
0.1454
1
W4  22 AWG  BLU
72
2
11
17.7566
21
12.3991
31
0.0000
0
LINE
8
WIRING
10
17.9013
20
12.1243
30
0.0000
11
21.0833
21
12.1243
31
0.0000
0
TEXT
8
WIRING
10
20.6494
20
11.8350
30
0.0000
40
0.1454
1
5
72
1
11
20.6494
21
11.8350
31
0.0000
0
TEXT
8
WIRING
10
18.0170
20
11.8350
30
0.0000
40
0.1454
1
RS422 RX+
0
CIRCLE
8
WIRING
10
17.9013
20
11.9218
30
0.0000
40
0.0376
0
LINE
8
WIRING
10
17.9013
20
11.9218
30
0.0000
11
14.4713
21
11.9218
31
0.0000
0
TEXT
8
WIRING
10
17.7566
20
11.9941
30
0.0000
40
0.1454
1
W5  22 AWG  WHT
72
2
11
17.7566
21
11.9941
31
0.0000
0
LINE
8
WIRING
10
17.9013
20
11.7193
30
0.0000
11
21.0833
21
11.7193
31
0.0000
0
TEXT
8
WIRING
10
20.6494
20
11.4300
30
0.0000
40
0.1454
1
6
72
1
11
20.6494
21
11.4300
31
0.0000
0
TEXT
8
WIRING
10
18.0170
20
11.4300
30
0.0000
40
0.1454
1
RS422 RX-
0
CIRCLE
8
WIRING
10
17.9013
20
11.5168
30
0.0000
40
0.0376
0
LINE
8
WIRING
10
17.9013
20
11.5168
30
0.0000
11
14.4713
21
11.5168
31
0.0000
0
TEXT
8
WIRING
10
17.7566
20
11.5891
30
0.0000
40
0.1454
1
W6  22 AWG  BLU
72
2
11
17.7566
21
11.5891
31
0.0000
0
LINE
8
WIRING
10
17.9013
20
11.3143
30
0.0000
11
21.0833
21
11.3143
31
0.0000
0
TEXT
8
WIRING
10
20.6494
20
11.0250
30
0.0000
40
0.1454
1
7
72
1
11
20.6494
21
11.0250
31
0.0000
0
TEXT
8
WIRING
10
18.0170
20
11.0250
30
0.0000
40
0.1454
1
DISCRETE OUT 1
0
CIRCLE
8
WIRING
10
17.9013
20
11.1118
30
0.0000
40
0.0376
0
LINE
8
WIRING
10
17.9013
20
11.1118
30
0.0000
11
14.4713
21
11.1118
31
0.0000
0
TEXT
8
WIRING
10
17.7566
20
11.1841
30
0.0000
40
0.1454
1
W8  22 AWG  WHT
72
2
11
17.7566
21
11.1841
31
0.0000
0
LINE
8
WIRING
10
17.9013
20
10.9093
30
0.0000
11
21.0833
21
10.9093
31
0.0000
0
TEXT
8
WIRING
10
20.6494
20
10.6200
30
0.0000
40
0.1454
1
8
72
1
11
20.6494
21
10.6200
31
0.0000
0
TEXT
8
WIRING
10
18.0170
20
10.6200
30
0.0000
40
0.1454
1
DISCRETE IN 1
0
CIRCLE
8
WIRING
10
17.9013
20
10.7068
30
0.0000
40
0.0376
0
LINE
8
WIRING
10
17.9013
20
10.7068
30
0.0000
11
14.4713
21
10.7068
31
0.0000
0
TEXT
8
WIRING
10
17.7566
20
10.7791
30
0.0000
40
0.1454
1
W7  22 AWG  WHT
72
2
11
17.7566
21
10.7791
31
0.0000
0
LINE
8
WIRING
10
17.9013
20
10.5043
30
0.0000
11
21.0833
21
10.5043
31
0.0000
0
TEXT
8
WIRING
10
20.6494
20
10.2150
30
0.0000
40
0.1454
1
9
72
1
11
20.6494
21
10.2150
31
0.0000
0
TEXT
8
WIRING
10
18.0170
20
10.2150
30
0.0000
40
0.1454
1
SIG GND A
0
CIRCLE
8
WIRING
10
17.9013
20
10.3018
30
0.0000
40
0.0376
0
LINE
8
WIRING
10
17.9013
20
10.3018
30
0.0000
11
14.4713
21
10.3018
31
0.0000
0
TEXT
8
WIRING
10
17.7566
20
10.3741
30
0.0000
40
0.1454
1
W12  22 AWG  BLK
72
2
11
17.7566
21
10.3741
31
0.0000
0
LINE
8
WIRING
10
17.9013
20
10.0993
30
0.0000
11
21.0833
21
10.0993
31
0.0000
0
TEXT
8
WIRING
10
20.6494
20
9.8101
30
0.0000
40
0.1454
1
10
72
1
11
20.6494
21
9.8101
31
0.0000
0
TEXT
8
WIRING
10
18.0170
20
9.8101
30
0.0000
40
0.1454
1
SIG GND B
0
CIRCLE
8
WIRING
10
17.9013
20
9.8968
30
0.0000
40
0.0376
0
LINE
8
WIRING
10
17.9013
20
9.8968
30
0.0000
11
14.4713
21
9.8968
31
0.0000
0
TEXT
8
WIRING
10
17.7566
20
9.9692
30
0.0000
40
0.1454
1
W13  22 AWG  BLK
72
2
11
17.7566
21
9.9692
31
0.0000
0
LINE
8
WIRING
10
17.9013
20
9.6943
30
0.0000
11
21.0833
21
9.6943
31
0.0000
0
TEXT
8
WIRING
10
20.6494
20
9.4051
30
0.0000
40
0.1454
1
11
72
1
11
20.6494
21
9.4051
31
0.0000
0
TEXT
8
WIRING
10
18.0170
20
9.4051
30
0.0000
40
0.1454
1
TSP1 SHIELD
0
CIRCLE
8
WIRING
10
17.9013
20
9.4918
30
0.0000
40
0.0376
0
LINE
8
WIRING
10
17.9013
20
9.2894
30
0.0000
11
21.0833
21
9.2894
31
0.0000
0
TEXT
8
WIRING
10
20.6494
20
9.0001
30
0.0000
40
0.1454
1
12
72
1
11
20.6494
21
9.0001
31
0.0000
0
TEXT
8
WIRING
10
18.0170
20
9.0001
30
0.0000
40
0.1454
1
CHASSIS GND
0
CIRCLE
8
WIRING
10
17.9013
20
9.0869
30
0.0000
40
0.0376
0
LINE
8
WIRING
10
17.9013
20
9.0869
30
0.0000
11
14.4713
21
9.0869
31
0.0000
0
TEXT
8
WIRING
10
17.7566
20
9.1592
30
0.0000
40
0.1454
1
W11  20 AWG  GRN
72
2
11
17.7566
21
9.1592
31
0.0000
0
LINE
8
WIRING
10
7.5287
20
13.5417
30
0.0000
11
14.4713
21
13.5417
31
0.0000
0
LINE
8
WIRING
10
7.5287
20
13.1368
30
0.0000
11
14.4713
21
13.1368
31
0.0000
0
LINE
8
WIRING
10
7.5287
20
12.7318
30
0.0000
11
14.4713
21
12.7318
31
0.0000
0
LINE
8
WIRING
10
7.5287
20
12.3268
30
0.0000
11
14.4713
21
12.3268
31
0.0000
0
LINE
8
WIRING
10
7.5287
20
11.9218
30
0.0000
11
14.4713
21
11.9218
31
0.0000
0
LINE
8
WIRING
10
7.5287
20
11.5168
30
0.0000
11
14.4713
21
11.5168
31
0.0000
0
LINE
8
WIRING
10
7.5287
20
11.1118
30
0.0000
11
14.4713
21
10.7068
31
0.0000
0
LINE
8
WIRING
10
7.5287
20
10.7068
30
0.0000
11
14.4713
21
11.1118
31
0.0000
0
LINE
8
WIRING
10
7.5287
20
10.3018
30
0.0000
11
11.0000
21
10.1668
31
0.0000
0
POLYLINE
8
WIRING
66
1
10
0.0000
20
0.0000
30
0.0000
70
0
0
VERTEX
8
WIRING
10
7.5287
20
9.8968
30
0.0000
0
VERTEX
8
WIRING
10
7.8758
20
9.8968
30
0.0000
0
VERTEX
8
WIRING
10
7.8758
20
9.4918
30
0.0000
0
VERTEX
8
WIRING
10
7.5287
20
9.4918
30
0.0000
0
SEQEND
8
WIRING
0
LINE
8
WIRING
10
7.5287
20
9.0869
30
0.0000
11
14.4713
21
9.0869
31
0.0000
0
LINE
8
WIRING
10
11.0000
20
10.1668
30
0.0000
11
14.4713
21
10.3018
31
0.0000
0
LINE
8
WIRING
10
11.0000
20
10.1668
30
0.0000
11
14.4713
21
9.8968
31
0.0000
0
CIRCLE
8
WIRING
10
11.0000
20
10.1668
30
0.0000
40
0.1012
0
TEXT
8
WIRING
10
11.0000
20
10.3693
30
0.0000
40
0.1662
1
SP1
72
1
11
11.0000
21
10.3693
31
0.0000
0
TEXT
8
WIRING
10
11.0000
20
9.7618
30
0.0000
40
0.1454
1
M81824/1-1
72
1
11
11.0000
21
9.7618
31
0.0000
0
LINE
8
SHIELDS
6
DASHED
10
17.9013
20
9.4918
30
0.0000
11
14.9631
21
9.4918
31
0.0000
0
TEXT
8
SHIELDS
10
17.7566
20
9.5642
30
0.0000
40
0.1454
1
TSP1 SHLD
72
2
11
17.7566
21
9.5642
31
0.0000
0
LINE
8
SHIELDS
10
6.5162
20
12.7318
30
0.0000
11
6.7476
21
12.3268
31
0.0000
0
LINE
8
SHIELDS
10
6.5162
20
12.3268
30
0.0000
11
6.7476
21
12.7318
31
0.0000
0
POLYLINE
8
SHIELDS
6
DASHED
66
1
10
0.0000
20
0.0000
30
0.0000
70
1
0
VERTEX
8
SHIELDS
10
6.8344
20
12.5293
30
0.0000
0
VERTEX
8
SHIELDS
10
6.8319
20
12.4727
30
0.0000
0
VERTEX
8
SHIELDS
10
6.8245
20
12.4175
30
0.0000
0
VERTEX
8
SHIELDS
10
6.8123
20
12.3651
30
0.0000
0
VERTEX
8
SHIELDS
10
6.7957
20
12.3167
30
0.0000
0
VERTEX
8
SHIELDS
10
6.7751
20
12.2736
30
0.0000
0
VERTEX
8
SHIELDS
10
6.7509
20
12.2367
30
0.0000
0
VERTEX
8
SHIELDS
10
6.7238
20
12.2071
30
0.0000
0
VERTEX
8
SHIELDS
10
6.6945
20
12.1854
30
0.0000
0
VERTEX
8
SHIELDS
10
6.6636
20
12.1721
30
0.0000
0
VERTEX
8
SHIELDS
10
6.6319
20
12.1677
30
0.0000
0
VERTEX
8
SHIELDS
10
6.6002
20
12.1721
30
0.0000
0
VERTEX
8
SHIELDS
10
6.5693
20
12.1854
30
0.0000
0
VERTEX
8
SHIELDS
10
6.5400
20
12.2071
30
0.0000
0
VERTEX
8
SHIELDS
10
6.5129
20
12.2367
30
0.0000
0
VERTEX
8
SHIELDS
10
6.4887
20
12.2736
30
0.0000
0
VERTEX
8
SHIELDS
10
6.4681
20
12.3167
30
0.0000
0
VERTEX
8
SHIELDS
10
6.4515
20
12.3651
30
0.0000
0
VERTEX
8
SHIELDS
10
6.4393
20
12.4175
30
0.0000
0
VERTEX
8
SHIELDS
10
6.4319
20
12.4727
30
0.0000
0
VERTEX
8
SHIELDS
10
6.4294
20
12.5293
30
0.0000
0
VERTEX
8
SHIELDS
10
6.4319
20
12.5858
30
0.0000
0
VERTEX
8
SHIELDS
10
6.4393
20
12.6410
30
0.0000
0
VERTEX
8
SHIELDS
10
6.4515
20
12.6934
30
0.0000
0
VERTEX
8
SHIELDS
10
6.4681
20
12.7418
30
0.0000
0
VERTEX
8
SHIELDS
10
6.4887
20
12.7850
30
0.0000
0
VERTEX
8
SHIELDS
10
6.5129
20
12.8218
30
0.0000
0
VERTEX
8
SHIELDS
10
6.5400
20
12.8515
30
0.0000
0
VERTEX
8
SHIELDS
10
6.5693
20
12.8732
30
0.0000
0
VERTEX
8
SHIELDS
10
6.6002
20
12.8864
30
0.0000
0
VERTEX
8
SHIELDS
10
6.6319
20
12.8909
30
0.0000
0
VERTEX
8
SHIELDS
10
6.6636
20
12.8864
30
0.0000
0
VERTEX
8
SHIELDS
10
6.6945
20
12.8732
30
0.0000
0
VERTEX
8
SHIELDS
10
6.7238
20
12.8515
30
0.0000
0
VERTEX
8
SHIELDS
10
6.7509
20
12.8218
30
0.0000
0
VERTEX
8
SHIELDS
10
6.7751
20
12.7850
30
0.0000
0
VERTEX
8
SHIELDS
10
6.7957
20
12.7418
30
0.0000
0
VERTEX
8
SHIELDS
10
6.8123
20
12.6934
30
0.0000
0
VERTEX
8
SHIELDS
10
6.8245
20
12.6410
30
0.0000
0
VERTEX
8
SHIELDS
10
6.8319
20
12.5858
30
0.0000
0
SEQEND
8
SHIELDS
0
TEXT
8
SHIELDS
10
6.8922
20
12.8041
30
0.0000
40
0.1454
1
TSP1
0
LINE
8
SHIELDS
6
DASHED
10
6.8344
20
12.5293
30
0.0000
11
7.0369
21
12.5293
31
0.0000
0
LINE
8
SHIELDS
10
7.0369
20
12.6594
30
0.0000
11
7.0369
21
12.3991
31
0.0000
0
LINE
8
SHIELDS
10
7.1005
20
12.6161
30
0.0000
11
7.1005
21
12.4425
31
0.0000
0
LINE
8
SHIELDS
10
7.1642
20
12.5727
30
0.0000
11
7.1642
21
12.4859
31
0.0000
0
LINE
8
SHIELDS
10
15.2524
20
12.7318
30
0.0000
11
15.4838
21
12.3268
31
0.0000
0
LINE
8
SHIELDS
10
15.2524
20
12.3268
30
0.0000
11
15.4838
21
12.7318
31
0.0000
0
POLYLINE
8
SHIELDS
6
DASHED
66
1
10
0.0000
20
0.0000
30
0.0000
70
1
0
VERTEX
8
SHIELDS
10
15.5706
20
12.5293
30
0.0000
0
VERTEX
8
SHIELDS
10
15.5681
20
12.4727
30
0.0000
0
VERTEX
8
SHIELDS
10
15.5607
20
12.4175
30
0.0000
0
VERTEX
8
SHIELDS
10
15.5485
20
12.3651
30
0.0000
0
VERTEX
8
SHIELDS
10
15.5319
20
12.3167
30
0.0000
0
VERTEX
8
SHIELDS
10
15.5113
20
12.2736
30
0.0000
0
VERTEX
8
SHIELDS
10
15.4871
20
12.2367
30
0.0000
0
VERTEX
8
SHIELDS
10
15.4600
20
12.2071
30
0.0000
0
VERTEX
8
SHIELDS
10
15.4307
20
12.1854
30
0.0000
0
VERTEX
8
SHIELDS
10
15.3998
20
12.1721
30
0.0000
0
VERTEX
8
SHIELDS
10
15.3681
20
12.1677
30
0.0000
0
VERTEX
8
SHIELDS
10
15.3364
20
12.1721
30
0.0000
0
VERTEX
8
SHIELDS
10
15.3055
20
12.1854
30
0.0000
0
VERTEX
8
SHIELDS
10
15.2762
20
12.2071
30
0.0000
0
VERTEX
8
SHIELDS
10
15.2491
20
12.2367
30
0.0000
0
VERTEX
8
SHIELDS
10
15.2249
20
12.2736
30
0.0000
0
VERTEX
8
SHIELDS
10
15.2043
20
12.3167
30
0.0000
0
VERTEX
8
SHIELDS
10
15.1877
20
12.3651
30
0.0000
0
VERTEX
8
SHIELDS
10
15.1755
20
12.4175
30
0.0000
0
VERTEX
8
SHIELDS
10
15.1681
20
12.4727
30
0.0000
0
VERTEX
8
SHIELDS
10
15.1656
20
12.5293
30
0.0000
0
VERTEX
8
SHIELDS
10
15.1681
20
12.5858
30
0.0000
0
VERTEX
8
SHIELDS
10
15.1755
20
12.6410
30
0.0000
0
VERTEX
8
SHIELDS
10
15.1877
20
12.6934
30
0.0000
0
VERTEX
8
SHIELDS
10
15.2043
20
12.7418
30
0.0000
0
VERTEX
8
SHIELDS
10
15.2249
20
12.7850
30
0.0000
0
VERTEX
8
SHIELDS
10
15.2491
20
12.8218
30
0.0000
0
VERTEX
8
SHIELDS
10
15.2762
20
12.8515
30
0.0000
0
VERTEX
8
SHIELDS
10
15.3055
20
12.8732
30
0.0000
0
VERTEX
8
SHIELDS
10
15.3364
20
12.8864
30
0.0000
0
VERTEX
8
SHIELDS
10
15.3681
20
12.8909
30
0.0000
0
VERTEX
8
SHIELDS
10
15.3998
20
12.8864
30
0.0000
0
VERTEX
8
SHIELDS
10
15.4307
20
12.8732
30
0.0000
0
VERTEX
8
SHIELDS
10
15.4600
20
12.8515
30
0.0000
0
VERTEX
8
SHIELDS
10
15.4871
20
12.8218
30
0.0000
0
VERTEX
8
SHIELDS
10
15.5113
20
12.7850
30
0.0000
0
VERTEX
8
SHIELDS
10
15.5319
20
12.7418
30
0.0000
0
VERTEX
8
SHIELDS
10
15.5485
20
12.6934
30
0.0000
0
VERTEX
8
SHIELDS
10
15.5607
20
12.6410
30
0.0000
0
VERTEX
8
SHIELDS
10
15.5681
20
12.5858
30
0.0000
0
SEQEND
8
SHIELDS
0
TEXT
8
SHIELDS
10
15.1078
20
12.8041
30
0.0000
40
0.1454
1
TSP1
72
2
11
15.1078
21
12.8041
31
0.0000
0
POLYLINE
8
SHIELDS
6
DASHED
66
1
10
0.0000
20
0.0000
30
0.0000
70
0
0
VERTEX
8
SHIELDS
10
15.1656
20
12.5293
30
0.0000
0
VERTEX
8
SHIELDS
10
14.9631
20
12.5293
30
0.0000
0
VERTEX
8
SHIELDS
10
14.9631
20
9.4918
30
0.0000
0
SEQEND
8
SHIELDS
0
CIRCLE
8
SHIELDS
10
14.9631
20
9.4918
30
0.0000
40
0.0405
0
LINE
8
SHIELDS
10
6.5162
20
11.9218
30
0.0000
11
6.7476
21
11.5168
31
0.0000
0
LINE
8
SHIELDS
10
6.5162
20
11.5168
30
0.0000
11
6.7476
21
11.9218
31
0.0000
0
TEXT
8
SHIELDS
10
6.8922
20
11.9941
30
0.0000
40
0.1454
1
TP2
0
LINE
8
SHIELDS
10
15.2524
20
11.9218
30
0.0000
11
15.4838
21
11.5168
31
0.0000
0
LINE
8
SHIELDS
10
15.2524
20
11.5168
30
0.0000
11
15.4838
21
11.9218
31
0.0000
0
TEXT
8
SHIELDS
10
15.1078
20
11.9941
30
0.0000
40
0.1454
1
TP2
72
2
11
15.1078
21
11.9941
31
0.0000
0
TEXT
8
WIRING
10
0.9167
20
8.3637
30
0.0000
40
0.1454
1
LEGEND:
0
LINE
8
WIRING
10
2.1172
20
8.5372
30
0.0000
11
2.3486
21
8.3637
31
0.0000
0
LINE
8
WIRING
10
2.1172
20
8.3637
30
0.0000
11
2.3486
21
8.5372
31
0.0000
0
TEXT
8
WIRING
10
2.4643
20
8.3637
30
0.0000
40
0.1454
1
TWISTED
0
POLYLINE
8
WIRING
6
DASHED
66
1
10
0.0000
20
0.0000
30
0.0000
70
1
0
VERTEX
8
WIRING
10
3.9830
20
8.4504
30
0.0000
0
VERTEX
8
WIRING
10
3.9812
20
8.4233
30
0.0000
0
VERTEX
8
WIRING
10
3.9759
20
8.3968
30
0.0000
0
VERTEX
8
WIRING
10
3.9673
20
8.3716
30
0.0000
0
VERTEX
8
WIRING
10
3.9554
20
8.3484
30
0.0000
0
VERTEX
8
WIRING
10
3.9407
20
8.3277
30
0.0000
0
VERTEX
8
WIRING
10
3.9234
20
8.3100
30
0.0000
0
VERTEX
8
WIRING
10
3.9040
20
8.2958
30
0.0000
0
VERTEX
8
WIRING
10
3.8831
20
8.2854
30
0.0000
0
VERTEX
8
WIRING
10
3.8610
20
8.2790
30
0.0000
0
VERTEX
8
WIRING
10
3.8384
20
8.2769
30
0.0000
0
VERTEX
8
WIRING
10
3.8158
20
8.2790
30
0.0000
0
VERTEX
8
WIRING
10
3.7937
20
8.2854
30
0.0000
0
VERTEX
8
WIRING
10
3.7727
20
8.2958
30
0.0000
0
VERTEX
8
WIRING
10
3.7534
20
8.3100
30
0.0000
0
VERTEX
8
WIRING
10
3.7361
20
8.3277
30
0.0000
0
VERTEX
8
WIRING
10
3.7214
20
8.3484
30
0.0000
0
VERTEX
8
WIRING
10
3.7095
20
8.3716
30
0.0000
0
VERTEX
8
WIRING
10
3.7008
20
8.3968
30
0.0000
0
VERTEX
8
WIRING
10
3.6955
20
8.4233
30
0.0000
0
VERTEX
8
WIRING
10
3.6937
20
8.4504
30
0.0000
0
VERTEX
8
WIRING
10
3.6955
20
8.4776
30
0.0000
0
VERTEX
8
WIRING
10
3.7008
20
8.5041
30
0.0000
0
VERTEX
8
WIRING
10
3.7095
20
8.5292
30
0.0000
0
VERTEX
8
WIRING
10
3.7214
20
8.5525
30
0.0000
0
VERTEX
8
WIRING
10
3.7361
20
8.5732
30
0.0000
0
VERTEX
8
WIRING
10
3.7534
20
8.5909
30
0.0000
0
VERTEX
8
WIRING
10
3.7727
20
8.6051
30
0.0000
0
VERTEX
8
WIRING
10
3.7937
20
8.6155
30
0.0000
0
VERTEX
8
WIRING
10
3.8158
20
8.6219
30
0.0000
0
VERTEX
8
WIRING
10
3.8384
20
8.6240
30
0.0000
0
VERTEX
8
WIRING
10
3.8610
20
8.6219
30
0.0000
0
VERTEX
8
WIRING
10
3.8831
20
8.6155
30
0.0000
0
VERTEX
8
WIRING
10
3.9040
20
8.6051
30
0.0000
0
VERTEX
8
WIRING
10
3.9234
20
8.5909
30
0.0000
0
VERTEX
8
WIRING
10
3.9407
20
8.5732
30
0.0000
0
VERTEX
8
WIRING
10
3.9554
20
8.5525
30
0.0000
0
VERTEX
8
WIRING
10
3.9673
20
8.5292
30
0.0000
0
VERTEX
8
WIRING
10
3.9759
20
8.5041
30
0.0000
0
VERTEX
8
WIRING
10
3.9812
20
8.4776
30
0.0000
0
SEQEND
8
WIRING
0
TEXT
8
WIRING
10
4.0987
20
8.3637
30
0.0000
40
0.1454
1
SHIELD
0
POLYLINE
8
WIRING
66
1
10
0.0000
20
0.0000
30
0.0000
70
1
0
VERTEX
8
WIRING
10
5.4376
20
8.4504
30
0.0000
0
VERTEX
8
WIRING
10
5.4359
20
8.4233
30
0.0000
0
VERTEX
8
WIRING
10
5.4306
20
8.3968
30
0.0000
0
VERTEX
8
WIRING
10
5.4219
20
8.3716
30
0.0000
0
VERTEX
8
WIRING
10
5.4100
20
8.3484
30
0.0000
0
VERTEX
8
WIRING
10
5.3953
20
8.3277
30
0.0000
0
VERTEX
8
WIRING
10
5.3780
20
8.3100
30
0.0000
0
VERTEX
8
WIRING
10
5.3587
20
8.2958
30
0.0000
0
VERTEX
8
WIRING
10
5.3377
20
8.2854
30
0.0000
0
VERTEX
8
WIRING
10
5.3156
20
8.2790
30
0.0000
0
VERTEX
8
WIRING
10
5.2930
20
8.2769
30
0.0000
0
VERTEX
8
WIRING
10
5.2704
20
8.2790
30
0.0000
0
VERTEX
8
WIRING
10
5.2483
20
8.2854
30
0.0000
0
VERTEX
8
WIRING
10
5.2273
20
8.2958
30
0.0000
0
VERTEX
8
WIRING
10
5.2080
20
8.3100
30
0.0000
0
VERTEX
8
WIRING
10
5.1907
20
8.3277
30
0.0000
0
VERTEX
8
WIRING
10
5.1760
20
8.3484
30
0.0000
0
VERTEX
8
WIRING
10
5.1641
20
8.3716
30
0.0000
0
VERTEX
8
WIRING
10
5.1554
20
8.3968
30
0.0000
0
VERTEX
8
WIRING
10
5.1501
20
8.4233
30
0.0000
0
VERTEX
8
WIRING
10
5.1484
20
8.4504
30
0.0000
0
VERTEX
8
WIRING
10
5.1501
20
8.4776
30
0.0000
0
VERTEX
8
WIRING
10
5.1554
20
8.5041
30
0.0000
0
VERTEX
8
WIRING
10
5.1641
20
8.5292
30
0.0000
0
VERTEX
8
WIRING
10
5.1760
20
8.5525
30
0.0000
0
VERTEX
8
WIRING
10
5.1907
20
8.5732
30
0.0000
0
VERTEX
8
WIRING
10
5.2080
20
8.5909
30
0.0000
0
VERTEX
8
WIRING
10
5.2273
20
8.6051
30
0.0000
0
VERTEX
8
WIRING
10
5.2483
20
8.6155
30
0.0000
0
VERTEX
8
WIRING
10
5.2704
20
8.6219
30
0.0000
0
VERTEX
8
WIRING
10
5.2930
20
8.6240
30
0.0000
0
VERTEX
8
WIRING
10
5.3156
20
8.6219
30
0.0000
0
VERTEX
8
WIRING
10
5.3377
20
8.6155
30
0.0000
0
VERTEX
8
WIRING
10
5.3587
20
8.6051
30
0.0000
0
VERTEX
8
WIRING
10
5.3780
20
8.5909
30
0.0000
0
VERTEX
8
WIRING
10
5.3953
20
8.5732
30
0.0000
0
VERTEX
8
WIRING
10
5.4100
20
8.5525
30
0.0000
0
VERTEX
8
WIRING
10
5.4219
20
8.5292
30
0.0000
0
VERTEX
8
WIRING
10
5.4306
20
8.5041
30
0.0000
0
VERTEX
8
WIRING
10
5.4359
20
8.4776
30
0.0000
0
SEQEND
8
WIRING
0
TEXT
8
WIRING
10
5.5533
20
8.3637
30
0.0000
40
0.1454
1
JACKETED CABLE
0
LINE
8
WIRING
10
7.7362
20
8.5806
30
0.0000
11
7.7362
21
8.3203
31
0.0000
0
LINE
8
WIRING
10
7.7999
20
8.5372
30
0.0000
11
7.7999
21
8.3637
31
0.0000
0
LINE
8
WIRING
10
7.8635
20
8.4938
30
0.0000
11
7.8635
21
8.4070
31
0.0000
0
TEXT
8
WIRING
10
8.0255
20
8.3637
30
0.0000
40
0.1454
1
SHIELD TO BACKSHELL
0
TEXT
8
WIRING
10
10.7487
20
8.3637
30
0.0000
40
0.1454
1
? = SHIELD TERMINATION NOT SPECIFIED
0
POLYLINE
8
TITLE_BLOCK
66
1
10
0.0000
20
0.0000
30
0.0000
70
1
0
VERTEX
8
TITLE_BLOCK
10
17.2500
20
1.6000
30
0.0000
0
VERTEX
8
TITLE_BLOCK
10
21.2500
20
1.6000
30
0.0000
0
VERTEX
8
TITLE_BLOCK
10
21.2500
20
0.7500
30
0.0000
0
VERTEX
8
TITLE_BLOCK
10
17.2500
20
0.7500
30
0.0000
0
SEQEND
8
TITLE_BLOCK
0
POLYLINE
8
TITLE_BLOCK
66
1
10
0.0000
20
0.0000
30
0.0000
70
1
0
VERTEX
8
TITLE_BLOCK
10
17.2500
20
1.6000
30
0.0000
0
VERTEX
8
TITLE_BLOCK
10
17.8500
20
1.6000
30
0.0000
0
VERTEX
8
TITLE_BLOCK
10
17.8500
20
1.1000
30
0.0000
0
VERTEX
8
TITLE_BLOCK
10
17.2500
20
1.1000
30
0.0000
0
SEQEND
8
TITLE_BLOCK
0
TEXT
8
TITLE_BLOCK
10
17.2917
20
1.4792
30
0.0000
40
0.1020
1
SIZE
0
TEXT
8
TITLE_BLOCK
10
17.5500
20
1.1694
30
0.0000
40
0.2448
1
C
72
1
11
17.5500
21
1.1694
31
0.0000
0
POLYLINE
8
TITLE_BLOCK
66
1
10
0.0000
20
0.0000
30
0.0000
70
1
0
VERTEX
8
TITLE_BLOCK
10
17.8500
20
1.6000
30
0.0000
0
VERTEX
8
TITLE_BLOCK
10
18.8500
20
1.6000
30
0.0000
0
VERTEX
8
TITLE_BLOCK
10
18.8500
20
1.1000
30
0.0000
0
VERTEX
8
TITLE_BLOCK
10
17.8500
20
1.1000
30
0.0000
0
SEQEND
8
TITLE_BLOCK
0
TEXT
8
TITLE_BLOCK
10
17.8917
20
1.4792
30
0.0000
40
0.1020
1
CAGE CODE
0
POLYLINE
8
TITLE_BLOCK
66
1
10
0.0000
20
0.0000
30
0.0000
70
1
0
VERTEX
8
TITLE_BLOCK
10
18.8500
20
1.6000
30
0.0000
0
VERTEX
8
TITLE_BLOCK
10
20.6500
20
1.6000
30
0.0000
0
VERTEX
8
TITLE_BLOCK
10
20.6500
20
1.1000
30
0.0000
0
VERTEX
8
TITLE_BLOCK
10
18.8500
20
1.1000
30
0.0000
0
SEQEND
8
TITLE_BLOCK
0
TEXT
8
TITLE_BLOCK
10
18.8917
20
1.4792
30
0.0000
40
0.1020
1
DWG NO.
0
TEXT
8
TITLE_BLOCK
10
18.9194
20
1.1694
30
0.0000
40
0.2448
1
W101-001
0
POLYLINE
8
TITLE_BLOCK
66
1
10
0.0000
20
0.0000
30
0.0000
70
1
0
VERTEX
8
TITLE_BLOCK
10
20.6500
20
1.6000
30
0.0000
0
VERTEX
8
TITLE_BLOCK
10
21.2500
20
1.6000
30
0.0000
0
VERTEX
8
TITLE_BLOCK
10
21.2500
20
1.1000
30
0.0000
0
VERTEX
8
TITLE_BLOCK
10
20.6500
20
1.1000
30
0.0000
0
SEQEND
8
TITLE_BLOCK
0
TEXT
8
TITLE_BLOCK
10
20.6917
20
1.4792
30
0.0000
40
0.1020
1
REV
0
TEXT
8
TITLE_BLOCK
10
20.9500
20
1.1694
30
0.0000
40
0.1224
1
A
72
1
11
20.9500
21
1.1694
31
0.0000
0
POLYLINE
8
TITLE_BLOCK
66
1
10
0.0000
20
0.0000
30
0.0000
70
1
0
VERTEX
8
TITLE_BLOCK
10
17.2500
20
1.1000
30
0.0000
0
VERTEX
8
TITLE_BLOCK
10
18.5833
20
1.1000
30
0.0000
0
VERTEX
8
TITLE_BLOCK
10
18.5833
20
0.7500
30
0.0000
0
VERTEX
8
TITLE_BLOCK
10
17.2500
20
0.7500
30
0.0000
0
SEQEND
8
TITLE_BLOCK
0
TEXT
8
TITLE_BLOCK
10
17.2917
20
0.9792
30
0.0000
40
0.1020
1
SCALE
0
TEXT
8
TITLE_BLOCK
10
17.3194
20
0.8194
30
0.0000
40
0.1224
1
NONE
0
POLYLINE
8
TITLE_BLOCK
66
1
10
0.0000
20
0.0000
30
0.0000
70
1
0
VERTEX
8
TITLE_BLOCK
10
18.5833
20
1.1000
30
0.0000
0
VERTEX
8
TITLE_BLOCK
10
19.9167
20
1.1000
30
0.0000
0
VERTEX
8
TITLE_BLOCK
10
19.9167
20
0.7500
30
0.0000
0
VERTEX
8
TITLE_BLOCK
10
18.5833
20
0.7500
30
0.0000
0
SEQEND
8
TITLE_BLOCK
0
TEXT
8
TITLE_BLOCK
10
18.6250
20
0.9792
30
0.0000
40
0.1020
1
WEIGHT
0
POLYLINE
8
TITLE_BLOCK
66
1
10
0.0000
20
0.0000
30
0.0000
70
1
0
VERTEX
8
TITLE_BLOCK
10
19.9167
20
1.1000
30
0.0000
0
VERTEX
8
TITLE_BLOCK
10
21.2500
20
1.1000
30
0.0000
0
VERTEX
8
TITLE_BLOCK
10
21.2500
20
0.7500
30
0.0000
0
VERTEX
8
TITLE_BLOCK
10
19.9167
20
0.7500
30
0.0000
0
SEQEND
8
TITLE_BLOCK
0
TEXT
8
TITLE_BLOCK
10
19.9583
20
0.9792
30
0.0000
40
0.1020
1
SHEET
0
TEXT
8
TITLE_BLOCK
10
19.9861
20
0.8194
30
0.0000
40
0.1224
1
2 OF 3
0
ENDSEC
0
EOF
