0
SECTION
2
HEADER
9
$ACADVER
1
AC1009
9
$INSUNITS
70
1
9
$EXTMIN
10
0.0000
20
0.0000
30
0.0000
9
$EXTMAX
10
22.0000
20
17.0000
30
0.0000
9
$LIMMIN
10
0.0000
20
0.0000
9
$LIMMAX
10
22.0000
20
17.0000
0
ENDSEC
0
SECTION
2
TABLES
0
TABLE
2
LTYPE
70
2
0
LTYPE
2
CONTINUOUS
70
0
3
Solid line
72
65
73
0
40
0.0000
0
LTYPE
2
DASHED
70
0
3
__ __ __
72
65
73
2
40
0.1500
49
0.1000
49
-0.0500
0
ENDTAB
0
TABLE
2
LAYER
70
13
0
LAYER
2
0
70
0
62
7
6
CONTINUOUS
0
LAYER
2
BORDER
70
0
62
7
6
CONTINUOUS
0
LAYER
2
TITLE_BLOCK
70
0
62
7
6
CONTINUOUS
0
LAYER
2
ASSEMBLY
70
0
62
7
6
CONTINUOUS
0
LAYER
2
CABLE
70
0
62
7
6
CONTINUOUS
0
LAYER
2
DIMENSIONS
70
0
62
3
6
CONTINUOUS
0
LAYER
2
BALLOONS
70
0
62
5
6
CONTINUOUS
0
LAYER
2
WIRING
70
0
62
7
6
CONTINUOUS
0
LAYER
2
SHIELDS
70
0
62
4
6
CONTINUOUS
0
LAYER
2
FACE_VIEWS
70
0
62
7
6
CONTINUOUS
0
LAYER
2
TABLES
70
0
62
7
6
CONTINUOUS
0
LAYER
2
NOTES
70
0
62
7
6
CONTINUOUS
0
LAYER
2
TEXT
70
0
62
7
6
CONTINUOUS
0
ENDTAB
0
ENDSEC
0
SECTION
2
ENTITIES
0
POLYLINE
8
BORDER
66
1
10
0.0000
20
0.0000
30
0.0000
70
1
0
VERTEX
8
BORDER
10
0.3750
20
16.6250
30
0.0000
0
VERTEX
8
BORDER
10
21.6250
20
16.6250
30
0.0000
0
VERTEX
8
BORDER
10
21.6250
20
0.3750
30
0.0000
0
VERTEX
8
BORDER
10
0.3750
20
0.3750
30
0.0000
0
SEQEND
8
BORDER
0
POLYLINE
8
BORDER
66
1
10
0.0000
20
0.0000
30
0.0000
70
1
0
VERTEX
8
BORDER
10
0.7500
20
16.2500
30
0.0000
0
VERTEX
8
BORDER
10
21.2500
20
16.2500
30
0.0000
0
VERTEX
8
BORDER
10
21.2500
20
0.7500
30
0.0000
0
VERTEX
8
BORDER
10
0.7500
20
0.7500
30
0.0000
0
SEQEND
8
BORDER
0
TEXT
8
BORDER
10
2.8000
20
16.3148
30
0.0000
40
0.2448
1
5
72
1
11
2.8000
21
16.3148
31
0.0000
0
TEXT
8
BORDER
10
2.8000
20
0.4398
30
0.0000
40
0.2448
1
5
72
1
11
2.8000
21
0.4398
31
0.0000
0
TEXT
8
BORDER
10
6.9000
20
16.3148
30
0.0000
40
0.2448
1
4
72
1
11
6.9000
21
16.3148
31
0.0000
0
TEXT
8
BORDER
10
6.9000
20
0.4398
30
0.0000
40
0.2448
1
4
72
1
11
6.9000
21
0.4398
31
0.0000
0
LINE
8
BORDER
10
4.8500
20
16.6250
30
0.0000
11
4.8500
21
16.2500
31
0.0000
0
LINE
8
BORDER
10
4.8500
20
0.7500
30
0.0000
11
4.8500
21
0.3750
31
0.0000
0
TEXT
8
BORDER
10
11.0000
20
16.3148
30
0.0000
40
0.2448
1
3
72
1
11
11.0000
21
16.3148
31
0.0000
0
TEXT
8
BORDER
10
11.0000
20
0.4398
30
0.0000
40
0.2448
1
3
72
1
11
11.0000
21
0.4398
31
0.0000
0
LINE
8
BORDER
10
8.9500
20
16.6250
30
0.0000
11
8.9500
21
16.2500
31
0.0000
0
LINE
8
BORDER
10
8.9500
20
0.7500
30
0.0000
11
8.9500
21
0.3750
31
0.0000
0
TEXT
8
BORDER
10
15.1000
20
16.3148
30
0.0000
40
0.2448
1
2
72
1
11
15.1000
21
16.3148
31
0.0000
0
TEXT
8
BORDER
10
15.1000
20
0.4398
30
0.0000
40
0.2448
1
2
72
1
11
15.1000
21
0.4398
31
0.0000
0
LINE
8
BORDER
10
13.0500
20
16.6250
30
0.0000
11
13.0500
21
16.2500
31
0.0000
0
LINE
8
BORDER
10
13.0500
20
0.7500
30
0.0000
11
13.0500
21
0.3750
31
0.0000
0
TEXT
8
BORDER
10
19.2000
20
16.3148
30
0.0000
40
0.2448
1
1
72
1
11
19.2000
21
16.3148
31
0.0000
0
TEXT
8
BORDER
10
19.2000
20
0.4398
30
0.0000
40
0.2448
1
1
72
1
11
19.2000
21
0.4398
31
0.0000
0
LINE
8
BORDER
10
17.1500
20
16.6250
30
0.0000
11
17.1500
21
16.2500
31
0.0000
0
LINE
8
BORDER
10
17.1500
20
0.7500
30
0.0000
11
17.1500
21
0.3750
31
0.0000
0
TEXT
8
BORDER
10
0.5625
20
13.5439
30
0.0000
40
0.2448
1
C
72
1
11
0.5625
21
13.5439
31
0.0000
0
TEXT
8
BORDER
10
21.4375
20
13.5439
30
0.0000
40
0.2448
1
C
72
1
11
21.4375
21
13.5439
31
0.0000
0
TEXT
8
BORDER
10
0.5625
20
8.3773
30
0.0000
40
0.2448
1
B
72
1
11
0.5625
21
8.3773
31
0.0000
0
TEXT
8
BORDER
10
21.4375
20
8.3773
30
0.0000
40
0.2448
1
B
72
1
11
21.4375
21
8.3773
31
0.0000
0
LINE
8
BORDER
10
0.3750
20
11.0833
30
0.0000
11
0.7500
21
11.0833
31
0.0000
0
LINE
8
BORDER
10
21.2500
20
11.0833
30
0.0000
11
21.6250
21
11.0833
31
0.0000
0
TEXT
8
BORDER
10
0.5625
20
3.2106
30
0.0000
40
0.2448
1
A
72
1
11
0.5625
21
3.2106
31
0.0000
0
TEXT
8
BORDER
10
21.4375
20
3.2106
30
0.0000
40
0.2448
1
A
72
1
11
21.4375
21
3.2106
31
0.0000
0
LINE
8
BORDER
10
0.3750
20
5.9167
30
0.0000
11
0.7500
21
5.9167
31
0.0000
0
LINE
8
BORDER
10
21.2500
20
5.9167
30
0.0000
11
21.6250
21
5.9167
31
0.0000
0
POLYLINE
8
BORDER
66
1
10
0.0000
20
0.0000
30
0.0000
70
1
0
VERTEX
8
BORDER
10
0.7500
20
16.2500
30
0.0000
0
VERTEX
8
BORDER
10
3.5000
20
16.2500
30
0.0000
0
VERTEX
8
BORDER
10
3.5000
20
15.7500
30
0.0000
0
VERTEX
8
BORDER
10
0.7500
20
15.7500
30
0.0000
0
SEQEND
8
BORDER
0
TEXT
8
BORDER
10
2.1250
20
16.0614
30
0.0000
40
0.1224
1
W101-001  REV A
50
180.0000
72
1
11
2.1250
21
16.0614
31
0.0000
0
TEXT
8
0
10
0.9167
20
15.4129
30
0.0000
40
0.1224
1
ASSEMBLY VIEW AND CONNECTOR PINOUTS (NOT TO SCALE)
0
POLYLINE
8
CABLE
66
1
10
0.0000
20
0.0000
30
0.0000
70
0
0
VERTEX
8
CABLE
10
3.3090
20
10.2228
30
0.0000
0
VERTEX
8
CABLE
10
10.8829
20
10.2228
30
0.0000
0
SEQEND
8
CABLE
0
POLYLINE
8
CABLE
66
1
10
0.0000
20
0.0000
30
0.0000
70
0
0
VERTEX
8
CABLE
10
3.3090
20
10.5739
30
0.0000
0
VERTEX
8
CABLE
10
10.8829
20
10.5739
30
0.0000
0
SEQEND
8
CABLE
0
POLYLINE
8
CABLE
66
1
10
0.0000
20
0.0000
30
0.0000
70
0
0
VERTEX
8
CABLE
10
18.4568
20
10.5739
30
0.0000
0
VERTEX
8
CABLE
10
10.8829
20
10.5739
30
0.0000
0
SEQEND
8
CABLE
0
POLYLINE
8
CABLE
66
1
10
0.0000
20
0.0000
30
0.0000
70
0
0
VERTEX
8
CABLE
10
18.4568
20
10.2228
30
0.0000
0
VERTEX
8
CABLE
10
10.8829
20
10.2228
30
0.0000
0
SEQEND
8
CABLE
0
LINE
8
ASSEMBLY
10
10.2334
20
10.1476
30
0.0000
11
10.3838
21
10.6491
31
0.0000
0
LINE
8
ASSEMBLY
10
10.4340
20
10.1476
30
0.0000
11
10.5845
21
10.6491
31
0.0000
0
POLYLINE
8
ASSEMBLY
66
1
10
0.0000
20
0.0000
30
0.0000
70
1
0
VERTEX
8
ASSEMBLY
10
2.3058
20
11.1758
30
0.0000
0
VERTEX
8
ASSEMBLY
10
2.7573
20
11.1758
30
0.0000
0
VERTEX
8
ASSEMBLY
10
2.7573
20
9.6209
30
0.0000
0
VERTEX
8
ASSEMBLY
10
2.3058
20
9.6209
30
0.0000
0
SEQEND
8
ASSEMBLY
0
LINE
8
ASSEMBLY
10
2.4187
20
11.1758
30
0.0000
11
2.4187
21
9.6209
31
0.0000
0
LINE
8
ASSEMBLY
10
2.5316
20
11.1758
30
0.0000
11
2.5316
21
9.6209
31
0.0000
0
LINE
8
ASSEMBLY
10
2.6444
20
11.1758
30
0.0000
11
2.6444
21
9.6209
31
0.0000
0
POLYLINE
8
ASSEMBLY
66
1
10
0.0000
20
0.0000
30
0.0000
70
1
0
VERTEX
8
ASSEMBLY
10
2.7573
20
11.0504
30
0.0000
0
VERTEX
8
ASSEMBLY
10
3.7103
20
11.0504
30
0.0000
0
VERTEX
8
ASSEMBLY
10
3.7103
20
9.7463
30
0.0000
0
VERTEX
8
ASSEMBLY
10
2.7573
20
9.7463
30
0.0000
0
SEQEND
8
ASSEMBLY
0
TEXT
8
ASSEMBLY
10
3.2338
20
10.2980
30
0.0000
40
0.1981
1
P1
72
1
11
3.2338
21
10.2980
31
0.0000
0
POLYLINE
8
ASSEMBLY
66
1
10
0.0000
20
0.0000
30
0.0000
70
1
0
VERTEX
8
ASSEMBLY
10
3.7103
20
10.9250
30
0.0000
0
VERTEX
8
ASSEMBLY
10
4.9141
20
10.6491
30
0.0000
0
VERTEX
8
ASSEMBLY
10
4.9141
20
10.1476
30
0.0000
0
VERTEX
8
ASSEMBLY
10
3.7103
20
9.8717
30
0.0000
0
SEQEND
8
ASSEMBLY
0
LINE
8
ASSEMBLY
10
3.9109
20
10.8824
30
0.0000
11
3.9109
21
9.9143
31
0.0000
0
POLYLINE
8
ASSEMBLY
66
1
10
0.0000
20
0.0000
30
0.0000
70
1
0
VERTEX
8
ASSEMBLY
10
4.3623
20
10.7244
30
0.0000
0
VERTEX
8
ASSEMBLY
10
5.8671
20
10.7244
30
0.0000
0
VERTEX
8
ASSEMBLY
10
5.8671
20
10.0723
30
0.0000
0
VERTEX
8
ASSEMBLY
10
4.3623
20
10.0723
30
0.0000
0
SEQEND
8
ASSEMBLY
0
POLYLINE
8
ASSEMBLY
66
1
10
0.0000
20
0.0000
30
0.0000
70
1
0
VERTEX
8
ASSEMBLY
10
6.2683
20
10.6491
30
0.0000
0
VERTEX
8
ASSEMBLY
10
7.7229
20
10.6491
30
0.0000
0
VERTEX
8
ASSEMBLY
10
7.7229
20
10.1476
30
0.0000
0
VERTEX
8
ASSEMBLY
10
6.2683
20
10.1476
30
0.0000
0
SEQEND
8
ASSEMBLY
0
TEXT
8
ASSEMBLY
10
6.9956
20
10.3357
30
0.0000
40
0.1260
1
W101-P1
72
1
11
6.9956
21
10.3357
31
0.0000
0
CIRCLE
8
ASSEMBLY
10
3.2338
20
12.0536
30
0.0000
40
0.2257
0
TEXT
8
ASSEMBLY
10
3.2338
20
11.9909
30
0.0000
40
0.1260
1
1
72
1
11
3.2338
21
11.9909
31
0.0000
0
LINE
8
ASSEMBLY
10
3.2338
20
11.8279
30
0.0000
11
3.2338
21
11.0504
31
0.0000
0
CIRCLE
8
ASSEMBLY
10
3.2338
20
11.0504
30
0.0000
40
0.0351
0
CIRCLE
8
ASSEMBLY
10
4.0614
20
12.0536
30
0.0000
40
0.2257
0
TEXT
8
ASSEMBLY
10
4.0614
20
11.9909
30
0.0000
40
0.1260
1
3
72
1
11
4.0614
21
11.9909
31
0.0000
0
LINE
8
ASSEMBLY
10
4.0614
20
11.8279
30
0.0000
11
4.0614
21
10.8498
31
0.0000
0
CIRCLE
8
ASSEMBLY
10
4.0614
20
10.8498
30
0.0000
40
0.0351
0
CIRCLE
8
ASSEMBLY
10
5.2652
20
12.0536
30
0.0000
40
0.2257
0
TEXT
8
ASSEMBLY
10
5.2652
20
11.9909
30
0.0000
40
0.1260
1
4
72
1
11
5.2652
21
11.9909
31
0.0000
0
LINE
8
ASSEMBLY
10
5.2652
20
11.8279
30
0.0000
11
5.2652
21
10.7244
31
0.0000
0
CIRCLE
8
ASSEMBLY
10
5.2652
20
10.7244
30
0.0000
40
0.0351
0
POLYLINE
8
ASSEMBLY
66
1
10
0.0000
20
0.0000
30
0.0000
70
1
0
VERTEX
8
ASSEMBLY
10
5.7166
20
12.2327
30
0.0000
0
VERTEX
8
ASSEMBLY
10
5.8834
20
11.9438
30
0.0000
0
VERTEX
8
ASSEMBLY
10
5.5498
20
11.9438
30
0.0000
0
SEQEND
8
ASSEMBLY
0
TEXT
8
ASSEMBLY
10
5.7166
20
11.9669
30
0.0000
40
0.1260
1
13
72
1
11
5.7166
21
11.9669
31
0.0000
0
CIRCLE
8
ASSEMBLY
10
6.9956
20
12.0536
30
0.0000
40
0.2257
0
TEXT
8
ASSEMBLY
10
6.9956
20
11.9909
30
0.0000
40
0.1260
1
5
72
1
11
6.9956
21
11.9909
31
0.0000
0
LINE
8
ASSEMBLY
10
6.9956
20
11.8279
30
0.0000
11
6.9956
21
10.6491
31
0.0000
0
CIRCLE
8
ASSEMBLY
10
6.9956
20
10.6491
30
0.0000
40
0.0351
0
POLYLINE
8
ASSEMBLY
66
1
10
0.0000
20
0.0000
30
0.0000
70
1
0
VERTEX
8
ASSEMBLY
10
7.4471
20
12.2327
30
0.0000
0
VERTEX
8
ASSEMBLY
10
7.6138
20
11.9438
30
0.0000
0
VERTEX
8
ASSEMBLY
10
7.2803
20
11.9438
30
0.0000
0
SEQEND
8
ASSEMBLY
0
TEXT
8
ASSEMBLY
10
7.4471
20
11.9669
30
0.0000
40
0.1260
1
14
72
1
11
7.4471
21
11.9669
31
0.0000
0
TEXT
8
ASSEMBLY
10
2.1554
20
10.4360
30
0.0000
40
0.1260
1
TO FLIGHT
72
2
11
2.1554
21
10.4360
31
0.0000
0
TEXT
8
ASSEMBLY
10
2.1554
20
10.2103
30
0.0000
40
0.1260
1
COMPUTER J3
72
2
11
2.1554
21
10.2103
31
0.0000
0
CIRCLE
8
ASSEMBLY
10
8.4753
20
11.6398
30
0.0000
40
0.2257
0
TEXT
8
ASSEMBLY
10
8.4753
20
11.5771
30
0.0000
40
0.1260
1
6
72
1
11
8.4753
21
11.5771
31
0.0000
0
LINE
8
ASSEMBLY
10
8.4140
20
11.4226
30
0.0000
11
8.1744
21
10.5739
31
0.0000
0
CIRCLE
8
ASSEMBLY
10
8.1744
20
10.5739
30
0.0000
40
0.0351
0
CIRCLE
8
ASSEMBLY
10
8.9267
20
11.6398
30
0.0000
40
0.2257
0
TEXT
8
ASSEMBLY
10
8.9267
20
11.5771
30
0.0000
40
0.1260
1
7
72
1
11
8.9267
21
11.5771
31
0.0000
0
CIRCLE
8
ASSEMBLY
10
9.3782
20
11.6398
30
0.0000
40
0.2257
0
TEXT
8
ASSEMBLY
10
9.3782
20
11.5771
30
0.0000
40
0.1260
1
8
72
1
11
9.3782
21
11.5771
31
0.0000
0
CIRCLE
8
ASSEMBLY
10
9.8296
20
11.6398
30
0.0000
40
0.2257
0
TEXT
8
ASSEMBLY
10
9.8296
20
11.5771
30
0.0000
40
0.1260
1
9
72
1
11
9.8296
21
11.5771
31
0.0000
0
CIRCLE
8
ASSEMBLY
10
8.4753
20
12.0912
30
0.0000
40
0.2257
0
TEXT
8
ASSEMBLY
10
8.4753
20
12.0285
30
0.0000
40
0.1260
1
10
72
1
11
8.4753
21
12.0285
31
0.0000
0
CIRCLE
8
ASSEMBLY
10
8.9267
20
12.0912
30
0.0000
40
0.2257
0
TEXT
8
ASSEMBLY
10
8.9267
20
12.0285
30
0.0000
40
0.1260
1
11
72
1
11
8.9267
21
12.0285
31
0.0000
0
CIRCLE
8
ASSEMBLY
10
9.3782
20
12.0912
30
0.0000
40
0.2257
0
TEXT
8
ASSEMBLY
10
9.3782
20
12.0285
30
0.0000
40
0.1260
1
12
72
1
11
9.3782
21
12.0285
31
0.0000
0
CIRCLE
8
ASSEMBLY
10
9.8296
20
12.0912
30
0.0000
40
0.2257
0
TEXT
8
ASSEMBLY
10
9.8296
20
12.0285
30
0.0000
40
0.1260
1
13
72
1
11
9.8296
21
12.0285
31
0.0000
0
POLYLINE
8
ASSEMBLY
66
1
10
0.0000
20
0.0000
30
0.0000
70
1
0
VERTEX
8
ASSEMBLY
10
10.2810
20
12.2703
30
0.0000
0
VERTEX
8
ASSEMBLY
10
10.4478
20
11.9814
30
0.0000
0
VERTEX
8
ASSEMBLY
10
10.1142
20
11.9814
30
0.0000
0
SEQEND
8
ASSEMBLY
0
TEXT
8
ASSEMBLY
10
10.2810
20
12.0045
30
0.0000
40
0.1260
1
11
72
1
11
10.2810
21
12.0045
31
0.0000
0
CIRCLE
8
ASSEMBLY
10
8.4753
20
12.5426
30
0.0000
40
0.2257
0
TEXT
8
ASSEMBLY
10
8.4753
20
12.4799
30
0.0000
40
0.1260
1
15
72
1
11
8.4753
21
12.4799
31
0.0000
0
POLYLINE
8
ASSEMBLY
66
1
10
0.0000
20
0.0000
30
0.0000
70
1
0
VERTEX
8
ASSEMBLY
10
8.9267
20
12.7217
30
0.0000
0
VERTEX
8
ASSEMBLY
10
9.0935
20
12.4329
30
0.0000
0
VERTEX
8
ASSEMBLY
10
8.7600
20
12.4329
30
0.0000
0
SEQEND
8
ASSEMBLY
0
TEXT
8
ASSEMBLY
10
8.9267
20
12.4560
30
0.0000
40
0.1260
1
15
72
1
11
8.9267
21
12.4560
31
0.0000
0
LINE
8
ASSEMBLY
10
11.1813
20
10.1476
30
0.0000
11
11.3318
21
10.6491
31
0.0000
0
LINE
8
ASSEMBLY
10
11.3820
20
10.1476
30
0.0000
11
11.5325
21
10.6491
31
0.0000
0
POLYLINE
8
ASSEMBLY
66
1
10
0.0000
20
0.0000
30
0.0000
70
1
0
VERTEX
8
ASSEMBLY
10
19.0085
20
11.1758
30
0.0000
0
VERTEX
8
ASSEMBLY
10
19.4600
20
11.1758
30
0.0000
0
VERTEX
8
ASSEMBLY
10
19.4600
20
9.6209
30
0.0000
0
VERTEX
8
ASSEMBLY
10
19.0085
20
9.6209
30
0.0000
0
SEQEND
8
ASSEMBLY
0
LINE
8
ASSEMBLY
10
19.3471
20
11.1758
30
0.0000
11
19.3471
21
9.6209
31
0.0000
0
LINE
8
ASSEMBLY
10
19.2343
20
11.1758
30
0.0000
11
19.2343
21
9.6209
31
0.0000
0
LINE
8
ASSEMBLY
10
19.1214
20
11.1758
30
0.0000
11
19.1214
21
9.6209
31
0.0000
0
POLYLINE
8
ASSEMBLY
66
1
10
0.0000
20
0.0000
30
0.0000
70
1
0
VERTEX
8
ASSEMBLY
10
18.0555
20
11.0504
30
0.0000
0
VERTEX
8
ASSEMBLY
10
19.0085
20
11.0504
30
0.0000
0
VERTEX
8
ASSEMBLY
10
19.0085
20
9.7463
30
0.0000
0
VERTEX
8
ASSEMBLY
10
18.0555
20
9.7463
30
0.0000
0
SEQEND
8
ASSEMBLY
0
TEXT
8
ASSEMBLY
10
18.5320
20
10.2980
30
0.0000
40
0.1981
1
P2
72
1
11
18.5320
21
10.2980
31
0.0000
0
POLYLINE
8
ASSEMBLY
66
1
10
0.0000
20
0.0000
30
0.0000
70
1
0
VERTEX
8
ASSEMBLY
10
18.0555
20
10.9250
30
0.0000
0
VERTEX
8
ASSEMBLY
10
16.8517
20
10.6491
30
0.0000
0
VERTEX
8
ASSEMBLY
10
16.8517
20
10.1476
30
0.0000
0
VERTEX
8
ASSEMBLY
10
18.0555
20
9.8717
30
0.0000
0
SEQEND
8
ASSEMBLY
0
LINE
8
ASSEMBLY
10
17.8549
20
10.8824
30
0.0000
11
17.8549
21
9.9143
31
0.0000
0
POLYLINE
8
ASSEMBLY
66
1
10
0.0000
20
0.0000
30
0.0000
70
1
0
VERTEX
8
ASSEMBLY
10
15.8987
20
10.7244
30
0.0000
0
VERTEX
8
ASSEMBLY
10
17.4035
20
10.7244
30
0.0000
0
VERTEX
8
ASSEMBLY
10
17.4035
20
10.0723
30
0.0000
0
VERTEX
8
ASSEMBLY
10
15.8987
20
10.0723
30
0.0000
0
SEQEND
8
ASSEMBLY
0
POLYLINE
8
ASSEMBLY
66
1
10
0.0000
20
0.0000
30
0.0000
70
1
0
VERTEX
8
ASSEMBLY
10
14.0429
20
10.6491
30
0.0000
0
VERTEX
8
ASSEMBLY
10
15.4975
20
10.6491
30
0.0000
0
VERTEX
8
ASSEMBLY
10
15.4975
20
10.1476
30
0.0000
0
VERTEX
8
ASSEMBLY
10
14.0429
20
10.1476
30
0.0000
0
SEQEND
8
ASSEMBLY
0
TEXT
8
ASSEMBLY
10
14.7702
20
10.3357
30
0.0000
40
0.1260
1
W101-P2
72
1
11
14.7702
21
10.3357
31
0.0000
0
CIRCLE
8
ASSEMBLY
10
18.5320
20
12.0536
30
0.0000
40
0.2257
0
TEXT
8
ASSEMBLY
10
18.5320
20
11.9909
30
0.0000
40
0.1260
1
2
72
1
11
18.5320
21
11.9909
31
0.0000
0
LINE
8
ASSEMBLY
10
18.5320
20
11.8279
30
0.0000
11
18.5320
21
11.0504
31
0.0000
0
CIRCLE
8
ASSEMBLY
10
18.5320
20
11.0504
30
0.0000
40
0.0351
0
CIRCLE
8
ASSEMBLY
10
17.7044
20
12.0536
30
0.0000
40
0.2257
0
TEXT
8
ASSEMBLY
10
17.7044
20
11.9909
30
0.0000
40
0.1260
1
3
72
1
11
17.7044
21
11.9909
31
0.0000
0
LINE
8
ASSEMBLY
10
17.7044
20
11.8279
30
0.0000
11
17.7044
21
10.8498
31
0.0000
0
CIRCLE
8
ASSEMBLY
10
17.7044
20
10.8498
30
0.0000
40
0.0351
0
CIRCLE
8
ASSEMBLY
10
16.5006
20
12.0536
30
0.0000
40
0.2257
0
TEXT
8
ASSEMBLY
10
16.5006
20
11.9909
30
0.0000
40
0.1260
1
4
72
1
11
16.5006
21
11.9909
31
0.0000
0
LINE
8
ASSEMBLY
10
16.5006
20
11.8279
30
0.0000
11
16.5006
21
10.7244
31
0.0000
0
CIRCLE
8
ASSEMBLY
10
16.5006
20
10.7244
30
0.0000
40
0.0351
0
POLYLINE
8
ASSEMBLY
66
1
10
0.0000
20
0.0000
30
0.0000
70
1
0
VERTEX
8
ASSEMBLY
10
16.0492
20
12.2327
30
0.0000
0
VERTEX
8
ASSEMBLY
10
16.2160
20
11.9438
30
0.0000
0
VERTEX
8
ASSEMBLY
10
15.8824
20
11.9438
30
0.0000
0
SEQEND
8
ASSEMBLY
0
TEXT
8
ASSEMBLY
10
16.0492
20
11.9669
30
0.0000
40
0.1260
1
13
72
1
11
16.0492
21
11.9669
31
0.0000
0
CIRCLE
8
ASSEMBLY
10
14.7702
20
12.0536
30
0.0000
40
0.2257
0
TEXT
8
ASSEMBLY
10
14.7702
20
11.9909
30
0.0000
40
0.1260
1
5
72
1
11
14.7702
21
11.9909
31
0.0000
0
LINE
8
ASSEMBLY
10
14.7702
20
11.8279
30
0.0000
11
14.7702
21
10.6491
31
0.0000
0
CIRCLE
8
ASSEMBLY
10
14.7702
20
10.6491
30
0.0000
40
0.0351
0
POLYLINE
8
ASSEMBLY
66
1
10
0.0000
20
0.0000
30
0.0000
70
1
0
VERTEX
8
ASSEMBLY
10
14.3187
20
12.2327
30
0.0000
0
VERTEX
8
ASSEMBLY
10
14.4855
20
11.9438
30
0.0000
0
VERTEX
8
ASSEMBLY
10
14.1520
20
11.9438
30
0.0000
0
SEQEND
8
ASSEMBLY
0
TEXT
8
ASSEMBLY
10
14.3187
20
11.9669
30
0.0000
40
0.1260
1
14
72
1
11
14.3187
21
11.9669
31
0.0000
0
TEXT
8
ASSEMBLY
10
19.6104
20
10.4360
30
0.0000
40
0.1260
1
TO POWER
0
TEXT
8
ASSEMBLY
10
19.6104
20
10.2103
30
0.0000
40
0.1260
1
DISTRIBUTION J7
0
POLYLINE
8
ASSEMBLY
66
1
10
0.0000
20
0.0000
30
0.0000
70
1
0
VERTEX
8
ASSEMBLY
10
13.0522
20
10.6491
30
0.0000
0
VERTEX
8
ASSEMBLY
10
13.4535
20
10.6491
30
0.0000
0
VERTEX
8
ASSEMBLY
10
13.4535
20
10.1476
30
0.0000
0
VERTEX
8
ASSEMBLY
10
13.0522
20
10.1476
30
0.0000
0
SEQEND
8
ASSEMBLY
0
CIRCLE
8
ASSEMBLY
10
13.2529
20
11.2510
30
0.0000
40
0.2257
0
TEXT
8
ASSEMBLY
10
13.2529
20
11.1883
30
0.0000
40
0.1260
1
14
72
1
11
13.2529
21
11.1883
31
0.0000
0
LINE
8
ASSEMBLY
10
13.2529
20
11.0253
30
0.0000
11
13.2529
21
10.6491
31
0.0000
0
CIRCLE
8
ASSEMBLY
10
13.2529
20
10.6491
30
0.0000
40
0.0351
0
POLYLINE
8
ASSEMBLY
66
1
10
0.0000
20
0.0000
30
0.0000
70
1
0
VERTEX
8
ASSEMBLY
10
13.7043
20
11.4301
30
0.0000
0
VERTEX
8
ASSEMBLY
10
13.8711
20
11.1413
30
0.0000
0
VERTEX
8
ASSEMBLY
10
13.5375
20
11.1413
30
0.0000
0
SEQEND
8
ASSEMBLY
0
TEXT
8
ASSEMBLY
10
13.7043
20
11.1644
30
0.0000
40
0.1260
1
12
72
1
11
13.7043
21
11.1644
31
0.0000
0
TEXT
8
ASSEMBLY
10
12.9018
20
11.1758
30
0.0000
40
0.1260
1
SP1
72
2
11
12.9018
21
11.1758
31
0.0000
0
LINE
8
ASSEMBLY
10
19.4600
20
9.5457
30
0.0000
11
19.4600
21
9.1444
31
0.0000
0
LINE
8
ASSEMBLY
10
13.2529
20
10.0974
30
0.0000
11
13.2529
21
9.1444
31
0.0000
0
LINE
8
ASSEMBLY
10
13.2529
20
9.2447
30
0.0000
11
19.4600
21
9.2447
31
0.0000
0
SOLID
8
ASSEMBLY
10
13.2529
20
9.2447
30
0.0000
11
13.4013
21
9.2695
31
0.0000
13
13.4013
23
9.2200
33
0.0000
12
13.4013
22
9.2200
32
0.0000
0
SOLID
8
ASSEMBLY
10
19.4600
20
9.2447
30
0.0000
11
19.3115
21
9.2200
31
0.0000
13
19.3115
23
9.2695
33
0.0000
12
19.3115
22
9.2695
32
0.0000
0
TEXT
8
ASSEMBLY
10
16.3564
20
9.1695
30
0.0000
40
0.1441
1
6
72
1
11
16.3564
21
9.1695
31
0.0000
0
LINE
8
ASSEMBLY
10
2.3058
20
9.5457
30
0.0000
11
2.3058
21
8.3920
31
0.0000
0
LINE
8
ASSEMBLY
10
19.4600
20
9.5457
30
0.0000
11
19.4600
21
8.3920
31
0.0000
0
LINE
8
ASSEMBLY
10
2.3058
20
8.4923
30
0.0000
11
19.4600
21
8.4923
31
0.0000
0
SOLID
8
ASSEMBLY
10
2.3058
20
8.4923
30
0.0000
11
2.4543
21
8.5171
31
0.0000
13
2.4543
23
8.4676
33
0.0000
12
2.4543
22
8.4676
32
0.0000
0
SOLID
8
ASSEMBLY
10
19.4600
20
8.4923
30
0.0000
11
19.3115
21
8.4676
31
0.0000
13
19.3115
23
8.5171
33
0.0000
12
19.3115
22
8.5171
32
0.0000
0
TEXT
8
ASSEMBLY
10
10.8829
20
8.4171
30
0.0000
40
0.1441
1
48
72
1
11
10.8829
21
8.4171
31
0.0000
0
CIRCLE
8
FACE_VIEWS
10
3.0081
20
6.6842
30
0.0000
40
1.0770
0
CIRCLE
8
FACE_VIEWS
10
3.0081
20
6.6842
30
0.0000
40
1.2063
0
CIRCLE
8
FACE_VIEWS
10
2.8113
20
7.4281
30
0.0000
40
0.0828
0
TEXT
8
FACE_VIEWS
10
2.6927
20
7.5072
30
0.0000
40
0.1260
1
A
72
1
11
2.6927
21
7.5072
31
0.0000
0
CIRCLE
8
FACE_VIEWS
10
2.3643
20
7.0581
30
0.0000
40
0.0828
0
TEXT
8
FACE_VIEWS
10
2.2568
20
7.1352
30
0.0000
40
0.1260
1
B
72
1
11
2.2568
21
7.1352
31
0.0000
0
CIRCLE
8
FACE_VIEWS
10
2.1490
20
6.6850
30
0.0000
40
0.0822
0
TEXT
8
FACE_VIEWS
10
2.0368
20
6.7276
30
0.0000
40
0.1260
1
C
72
1
11
2.0368
21
6.7276
31
0.0000
0
CIRCLE
8
FACE_VIEWS
10
2.3643
20
6.3118
30
0.0000
40
0.0828
0
TEXT
8
FACE_VIEWS
10
2.2224
20
6.3242
30
0.0000
40
0.1260
1
D
72
1
11
2.2224
21
6.3242
31
0.0000
0
CIRCLE
8
FACE_VIEWS
10
2.5784
20
5.9419
30
0.0000
40
0.0828
0
TEXT
8
FACE_VIEWS
10
2.4338
20
5.9368
30
0.0000
40
0.1260
1
E
72
1
11
2.4338
21
5.9368
31
0.0000
0
CIRCLE
8
FACE_VIEWS
10
3.0081
20
5.9418
30
0.0000
40
0.0821
0
TEXT
8
FACE_VIEWS
10
2.8713
20
5.9743
30
0.0000
40
0.1260
1
F
72
1
11
2.8713
21
5.9743
31
0.0000
0
CIRCLE
8
FACE_VIEWS
10
3.4376
20
5.9413
30
0.0000
40
0.0830
0
TEXT
8
FACE_VIEWS
10
3.5682
20
5.9740
30
0.0000
40
0.1260
1
G
72
1
11
3.5682
21
5.9740
31
0.0000
0
CIRCLE
8
FACE_VIEWS
10
3.6517
20
6.3116
30
0.0000
40
0.0828
0
TEXT
8
FACE_VIEWS
10
3.7860
20
6.3570
30
0.0000
40
0.1260
1
H
72
1
11
3.7860
21
6.3570
31
0.0000
0
CIRCLE
8
FACE_VIEWS
10
3.8658
20
6.6849
30
0.0000
40
0.0828
0
TEXT
8
FACE_VIEWS
10
3.9773
20
6.7560
30
0.0000
40
0.1260
1
J
72
1
11
3.9773
21
6.7560
31
0.0000
0
CIRCLE
8
FACE_VIEWS
10
3.6517
20
7.0581
30
0.0000
40
0.0828
0
TEXT
8
FACE_VIEWS
10
3.7622
20
7.1334
30
0.0000
40
0.1260
1
K
72
1
11
3.7622
21
7.1334
31
0.0000
0
CIRCLE
8
FACE_VIEWS
10
3.2444
20
7.4280
30
0.0000
40
0.0821
0
TEXT
8
FACE_VIEWS
10
3.3569
20
7.5083
30
0.0000
40
0.1260
1
L
72
1
11
3.3569
21
7.5083
31
0.0000
0
CIRCLE
8
FACE_VIEWS
10
3.2222
20
7.0583
30
0.0000
40
0.0821
0
TEXT
8
FACE_VIEWS
10
3.3480
20
7.1215
30
0.0000
40
0.1260
1
M
72
1
11
3.3480
21
7.1215
31
0.0000
0
CIRCLE
8
FACE_VIEWS
10
2.7927
20
7.0580
30
0.0000
40
0.0828
0
TEXT
8
FACE_VIEWS
10
2.6767
20
7.1345
30
0.0000
40
0.1260
1
N
72
1
11
2.6767
21
7.1345
31
0.0000
0
CIRCLE
8
FACE_VIEWS
10
2.5784
20
6.6850
30
0.0000
40
0.0828
0
TEXT
8
FACE_VIEWS
10
2.4540
20
6.7538
30
0.0000
40
0.1260
1
P
72
1
11
2.4540
21
6.7538
31
0.0000
0
CIRCLE
8
FACE_VIEWS
10
2.7927
20
6.3116
30
0.0000
40
0.0828
0
TEXT
8
FACE_VIEWS
10
2.6458
20
6.3524
30
0.0000
40
0.1260
1
R
72
1
11
2.6458
21
6.3524
31
0.0000
0
CIRCLE
8
FACE_VIEWS
10
3.2222
20
6.3120
30
0.0000
40
0.0819
0
TEXT
8
FACE_VIEWS
10
3.3462
20
6.3504
30
0.0000
40
0.1260
1
S
72
1
11
3.3462
21
6.3504
31
0.0000
0
CIRCLE
8
FACE_VIEWS
10
3.4376
20
6.6849
30
0.0000
40
0.0828
0
TEXT
8
FACE_VIEWS
10
3.5534
20
6.7348
30
0.0000
40
0.1260
1
T
72
1
11
3.5534
21
6.7348
31
0.0000
0
CIRCLE
8
FACE_VIEWS
10
3.0081
20
6.6850
30
0.0000
40
0.0822
0
TEXT
8
FACE_VIEWS
10
3.0772
20
6.7688
30
0.0000
40
0.1260
1
U
72
1
11
3.0772
21
6.7688
31
0.0000
0
TEXT
8
FACE_VIEWS
10
3.0081
20
5.1519
30
0.0000
40
0.1260
1
P1 PINOUT, FRONT FACE
72
1
11
3.0081
21
5.1519
31
0.0000
0
TEXT
8
FACE_VIEWS
10
3.0081
20
4.9011
30
0.0000
40
0.1260
1
D38999/26WD18SN
72
1
11
3.0081
21
4.9011
31
0.0000
0
TEXT
8
FACE_VIEWS
10
3.0081
20
4.6503
30
0.0000
40
0.1260
1
INSERT 15-18, KEY N
72
1
11
3.0081
21
4.6503
31
0.0000
0
TEXT
8
FACE_VIEWS
10
3.0081
20
4.3995
30
0.0000
40
0.1260
1
SOCKET CONTACTS
72
1
11
3.0081
21
4.3995
31
0.0000
0
CIRCLE
8
FACE_VIEWS
10
18.7577
20
6.6842
30
0.0000
40
1.0770
0
CIRCLE
8
FACE_VIEWS
10
18.7577
20
6.6842
30
0.0000
40
1.2063
0
CIRCLE
8
FACE_VIEWS
10
18.9545
20
7.4281
30
0.0000
40
0.0828
0
TEXT
8
FACE_VIEWS
10
19.0731
20
7.5072
30
0.0000
40
0.1260
1
A
72
1
11
19.0731
21
7.5072
31
0.0000
0
CIRCLE
8
FACE_VIEWS
10
19.4015
20
7.0581
30
0.0000
40
0.0828
0
TEXT
8
FACE_VIEWS
10
19.5090
20
7.1352
30
0.0000
40
0.1260
1
B
72
1
11
19.5090
21
7.1352
31
0.0000
0
CIRCLE
8
FACE_VIEWS
10
19.6168
20
6.6850
30
0.0000
40
0.0822
0
TEXT
8
FACE_VIEWS
10
19.7290
20
6.7276
30
0.0000
40
0.1260
1
C
72
1
11
19.7290
21
6.7276
31
0.0000
0
CIRCLE
8
FACE_VIEWS
10
19.4015
20
6.3118
30
0.0000
40
0.0828
0
TEXT
8
FACE_VIEWS
10
19.5434
20
6.3242
30
0.0000
40
0.1260
1
D
72
1
11
19.5434
21
6.3242
31
0.0000
0
CIRCLE
8
FACE_VIEWS
10
19.1874
20
5.9419
30
0.0000
40
0.0828
0
TEXT
8
FACE_VIEWS
10
19.3320
20
5.9368
30
0.0000
40
0.1260
1
E
72
1
11
19.3320
21
5.9368
31
0.0000
0
CIRCLE
8
FACE_VIEWS
10
18.7577
20
5.9418
30
0.0000
40
0.0821
0
TEXT
8
FACE_VIEWS
10
18.8945
20
5.9743
30
0.0000
40
0.1260
1
F
72
1
11
18.8945
21
5.9743
31
0.0000
0
CIRCLE
8
FACE_VIEWS
10
18.3282
20
5.9413
30
0.0000
40
0.0830
0
TEXT
8
FACE_VIEWS
10
18.1976
20
5.9740
30
0.0000
40
0.1260
1
G
72
1
11
18.1976
21
5.9740
31
0.0000
0
CIRCLE
8
FACE_VIEWS
10
18.1141
20
6.3116
30
0.0000
40
0.0828
0
TEXT
8
FACE_VIEWS
10
17.9798
20
6.3570
30
0.0000
40
0.1260
1
H
72
1
11
17.9798
21
6.3570
31
0.0000
0
CIRCLE
8
FACE_VIEWS
10
17.9000
20
6.6849
30
0.0000
40
0.0828
0
TEXT
8
FACE_VIEWS
10
17.7885
20
6.7560
30
0.0000
40
0.1260
1
J
72
1
11
17.7885
21
6.7560
31
0.0000
0
CIRCLE
8
FACE_VIEWS
10
18.1141
20
7.0581
30
0.0000
40
0.0828
0
TEXT
8
FACE_VIEWS
10
18.0036
20
7.1334
30
0.0000
40
0.1260
1
K
72
1
11
18.0036
21
7.1334
31
0.0000
0
CIRCLE
8
FACE_VIEWS
10
18.5214
20
7.4280
30
0.0000
40
0.0821
0
TEXT
8
FACE_VIEWS
10
18.4089
20
7.5083
30
0.0000
40
0.1260
1
L
72
1
11
18.4089
21
7.5083
31
0.0000
0
CIRCLE
8
FACE_VIEWS
10
18.5436
20
7.0583
30
0.0000
40
0.0821
0
TEXT
8
FACE_VIEWS
10
18.4178
20
7.1215
30
0.0000
40
0.1260
1
M
72
1
11
18.4178
21
7.1215
31
0.0000
0
CIRCLE
8
FACE_VIEWS
10
18.9732
20
7.0580
30
0.0000
40
0.0828
0
TEXT
8
FACE_VIEWS
10
19.0891
20
7.1345
30
0.0000
40
0.1260
1
N
72
1
11
19.0891
21
7.1345
31
0.0000
0
CIRCLE
8
FACE_VIEWS
10
19.1874
20
6.6850
30
0.0000
40
0.0828
0
TEXT
8
FACE_VIEWS
10
19.3118
20
6.7538
30
0.0000
40
0.1260
1
P
72
1
11
19.3118
21
6.7538
31
0.0000
0
CIRCLE
8
FACE_VIEWS
10
18.9732
20
6.3116
30
0.0000
40
0.0828
0
TEXT
8
FACE_VIEWS
10
19.1201
20
6.3524
30
0.0000
40
0.1260
1
R
72
1
11
19.1201
21
6.3524
31
0.0000
0
CIRCLE
8
FACE_VIEWS
10
18.5436
20
6.3120
30
0.0000
40
0.0819
0
TEXT
8
FACE_VIEWS
10
18.4196
20
6.3504
30
0.0000
40
0.1260
1
S
72
1
11
18.4196
21
6.3504
31
0.0000
0
CIRCLE
8
FACE_VIEWS
10
18.3282
20
6.6849
30
0.0000
40
0.0828
0
TEXT
8
FACE_VIEWS
10
18.2125
20
6.7348
30
0.0000
40
0.1260
1
T
72
1
11
18.2125
21
6.7348
31
0.0000
0
CIRCLE
8
FACE_VIEWS
10
18.7577
20
6.6850
30
0.0000
40
0.0822
0
TEXT
8
FACE_VIEWS
10
18.6886
20
6.7688
30
0.0000
40
0.1260
1
U
72
1
11
18.6886
21
6.7688
31
0.0000
0
TEXT
8
FACE_VIEWS
10
18.7577
20
5.1519
30
0.0000
40
0.1260
1
P2 PINOUT, FRONT FACE
72
1
11
18.7577
21
5.1519
31
0.0000
0
TEXT
8
FACE_VIEWS
10
18.7577
20
4.9011
30
0.0000
40
0.1260
1
D38999/26WD18PN
72
1
11
18.7577
21
4.9011
31
0.0000
0
TEXT
8
FACE_VIEWS
10
18.7577
20
4.6503
30
0.0000
40
0.1260
1
INSERT 15-18, KEY N
72
1
11
18.7577
21
4.6503
31
0.0000
0
TEXT
8
FACE_VIEWS
10
18.7577
20
4.3995
30
0.0000
40
0.1260
1
PIN CONTACTS
72
1
11
18.7577
21
4.3995
31
0.0000
0
POLYLINE
8
TITLE_BLOCK
66
1
10
0.0000
20
0.0000
30
0.0000
70
1
0
VERTEX
8
TITLE_BLOCK
10
17.2500
20
1.6000
30
0.0000
0
VERTEX
8
TITLE_BLOCK
10
21.2500
20
1.6000
30
0.0000
0
VERTEX
8
TITLE_BLOCK
10
21.2500
20
0.7500
30
0.0000
0
VERTEX
8
TITLE_BLOCK
10
17.2500
20
0.7500
30
0.0000
0
SEQEND
8
TITLE_BLOCK
0
POLYLINE
8
TITLE_BLOCK
66
1
10
0.0000
20
0.0000
30
0.0000
70
1
0
VERTEX
8
TITLE_BLOCK
10
17.2500
20
1.6000
30
0.0000
0
VERTEX
8
TITLE_BLOCK
10
17.8500
20
1.6000
30
0.0000
0
VERTEX
8
TITLE_BLOCK
10
17.8500
20
1.1000
30
0.0000
0
VERTEX
8
TITLE_BLOCK
10
17.2500
20
1.1000
30
0.0000
0
SEQEND
8
TITLE_BLOCK
0
TEXT
8
TITLE_BLOCK
10
17.2917
20
1.4792
30
0.0000
40
0.1020
1
SIZE
0
TEXT
8
TITLE_BLOCK
10
17.5500
20
1.1694
30
0.0000
40
0.2448
1
C
72
1
11
17.5500
21
1.1694
31
0.0000
0
POLYLINE
8
TITLE_BLOCK
66
1
10
0.0000
20
0.0000
30
0.0000
70
1
0
VERTEX
8
TITLE_BLOCK
10
17.8500
20
1.6000
30
0.0000
0
VERTEX
8
TITLE_BLOCK
10
18.8500
20
1.6000
30
0.0000
0
VERTEX
8
TITLE_BLOCK
10
18.8500
20
1.1000
30
0.0000
0
VERTEX
8
TITLE_BLOCK
10
17.8500
20
1.1000
30
0.0000
0
SEQEND
8
TITLE_BLOCK
0
TEXT
8
TITLE_BLOCK
10
17.8917
20
1.4792
30
0.0000
40
0.1020
1
CAGE CODE
0
POLYLINE
8
TITLE_BLOCK
66
1
10
0.0000
20
0.0000
30
0.0000
70
1
0
VERTEX
8
TITLE_BLOCK
10
18.8500
20
1.6000
30
0.0000
0
VERTEX
8
TITLE_BLOCK
10
20.6500
20
1.6000
30
0.0000
0
VERTEX
8
TITLE_BLOCK
10
20.6500
20
1.1000
30
0.0000
0
VERTEX
8
TITLE_BLOCK
10
18.8500
20
1.1000
30
0.0000
0
SEQEND
8
TITLE_BLOCK
0
TEXT
8
TITLE_BLOCK
10
18.8917
20
1.4792
30
0.0000
40
0.1020
1
DWG NO.
0
TEXT
8
TITLE_BLOCK
10
18.9194
20
1.1694
30
0.0000
40
0.2448
1
W101-001
0
POLYLINE
8
TITLE_BLOCK
66
1
10
0.0000
20
0.0000
30
0.0000
70
1
0
VERTEX
8
TITLE_BLOCK
10
20.6500
20
1.6000
30
0.0000
0
VERTEX
8
TITLE_BLOCK
10
21.2500
20
1.6000
30
0.0000
0
VERTEX
8
TITLE_BLOCK
10
21.2500
20
1.1000
30
0.0000
0
VERTEX
8
TITLE_BLOCK
10
20.6500
20
1.1000
30
0.0000
0
SEQEND
8
TITLE_BLOCK
0
TEXT
8
TITLE_BLOCK
10
20.6917
20
1.4792
30
0.0000
40
0.1020
1
REV
0
TEXT
8
TITLE_BLOCK
10
20.9500
20
1.1694
30
0.0000
40
0.1224
1
A
72
1
11
20.9500
21
1.1694
31
0.0000
0
POLYLINE
8
TITLE_BLOCK
66
1
10
0.0000
20
0.0000
30
0.0000
70
1
0
VERTEX
8
TITLE_BLOCK
10
17.2500
20
1.1000
30
0.0000
0
VERTEX
8
TITLE_BLOCK
10
18.5833
20
1.1000
30
0.0000
0
VERTEX
8
TITLE_BLOCK
10
18.5833
20
0.7500
30
0.0000
0
VERTEX
8
TITLE_BLOCK
10
17.2500
20
0.7500
30
0.0000
0
SEQEND
8
TITLE_BLOCK
0
TEXT
8
TITLE_BLOCK
10
17.2917
20
0.9792
30
0.0000
40
0.1020
1
SCALE
0
TEXT
8
TITLE_BLOCK
10
17.3194
20
0.8194
30
0.0000
40
0.1224
1
NONE
0
POLYLINE
8
TITLE_BLOCK
66
1
10
0.0000
20
0.0000
30
0.0000
70
1
0
VERTEX
8
TITLE_BLOCK
10
18.5833
20
1.1000
30
0.0000
0
VERTEX
8
TITLE_BLOCK
10
19.9167
20
1.1000
30
0.0000
0
VERTEX
8
TITLE_BLOCK
10
19.9167
20
0.7500
30
0.0000
0
VERTEX
8
TITLE_BLOCK
10
18.5833
20
0.7500
30
0.0000
0
SEQEND
8
TITLE_BLOCK
0
TEXT
8
TITLE_BLOCK
10
18.6250
20
0.9792
30
0.0000
40
0.1020
1
WEIGHT
0
POLYLINE
8
TITLE_BLOCK
66
1
10
0.0000
20
0.0000
30
0.0000
70
1
0
VERTEX
8
TITLE_BLOCK
10
19.9167
20
1.1000
30
0.0000
0
VERTEX
8
TITLE_BLOCK
10
21.2500
20
1.1000
30
0.0000
0
VERTEX
8
TITLE_BLOCK
10
21.2500
20
0.7500
30
0.0000
0
VERTEX
8
TITLE_BLOCK
10
19.9167
20
0.7500
30
0.0000
0
SEQEND
8
TITLE_BLOCK
0
TEXT
8
TITLE_BLOCK
10
19.9583
20
0.9792
30
0.0000
40
0.1020
1
SHEET
0
TEXT
8
TITLE_BLOCK
10
19.9861
20
0.8194
30
0.0000
40
0.1224
1
2 OF 4
0
ENDSEC
0
EOF
