0
SECTION
2
HEADER
9
$ACADVER
1
AC1009
9
$INSUNITS
70
1
9
$EXTMIN
10
0.0000
20
0.0000
30
0.0000
9
$EXTMAX
10
17.0000
20
11.0000
30
0.0000
9
$LIMMIN
10
0.0000
20
0.0000
9
$LIMMAX
10
17.0000
20
11.0000
0
ENDSEC
0
SECTION
2
TABLES
0
TABLE
2
LTYPE
70
2
0
LTYPE
2
CONTINUOUS
70
0
3
Solid line
72
65
73
0
40
0.0000
0
LTYPE
2
DASHED
70
0
3
__ __ __
72
65
73
2
40
0.1500
49
0.1000
49
-0.0500
0
ENDTAB
0
TABLE
2
LAYER
70
12
0
LAYER
2
0
70
0
62
7
6
CONTINUOUS
0
LAYER
2
BORDER
70
0
62
7
6
CONTINUOUS
0
LAYER
2
TITLE_BLOCK
70
0
62
7
6
CONTINUOUS
0
LAYER
2
ASSEMBLY
70
0
62
7
6
CONTINUOUS
0
LAYER
2
CABLE
70
0
62
7
6
CONTINUOUS
0
LAYER
2
DIMENSIONS
70
0
62
3
6
CONTINUOUS
0
LAYER
2
BALLOONS
70
0
62
5
6
CONTINUOUS
0
LAYER
2
WIRING
70
0
62
7
6
CONTINUOUS
0
LAYER
2
SHIELDS
70
0
62
4
6
CONTINUOUS
0
LAYER
2
TABLES
70
0
62
7
6
CONTINUOUS
0
LAYER
2
NOTES
70
0
62
7
6
CONTINUOUS
0
LAYER
2
TEXT
70
0
62
7
6
CONTINUOUS
0
ENDTAB
0
ENDSEC
0
SECTION
2
ENTITIES
0
POLYLINE
8
BORDER
66
1
10
0.0000
20
0.0000
30
0.0000
70
1
0
VERTEX
8
BORDER
10
0.3750
20
10.6250
30
0.0000
0
VERTEX
8
BORDER
10
16.6250
20
10.6250
30
0.0000
0
VERTEX
8
BORDER
10
16.6250
20
0.3750
30
0.0000
0
VERTEX
8
BORDER
10
0.3750
20
0.3750
30
0.0000
0
SEQEND
8
BORDER
0
POLYLINE
8
BORDER
66
1
10
0.0000
20
0.0000
30
0.0000
70
1
0
VERTEX
8
BORDER
10
0.6250
20
10.3750
30
0.0000
0
VERTEX
8
BORDER
10
16.3750
20
10.3750
30
0.0000
0
VERTEX
8
BORDER
10
16.3750
20
0.6250
30
0.0000
0
VERTEX
8
BORDER
10
0.6250
20
0.6250
30
0.0000
0
SEQEND
8
BORDER
0
TEXT
8
BORDER
10
2.5938
20
10.4583
30
0.0000
40
0.0800
1
4
72
1
11
2.5938
21
10.4583
31
0.0000
0
TEXT
8
BORDER
10
2.5938
20
0.4583
30
0.0000
40
0.0800
1
4
72
1
11
2.5938
21
0.4583
31
0.0000
0
TEXT
8
BORDER
10
6.5312
20
10.4583
30
0.0000
40
0.0800
1
3
72
1
11
6.5312
21
10.4583
31
0.0000
0
TEXT
8
BORDER
10
6.5312
20
0.4583
30
0.0000
40
0.0800
1
3
72
1
11
6.5312
21
0.4583
31
0.0000
0
LINE
8
BORDER
10
4.5625
20
10.6250
30
0.0000
11
4.5625
21
10.3750
31
0.0000
0
LINE
8
BORDER
10
4.5625
20
0.6250
30
0.0000
11
4.5625
21
0.3750
31
0.0000
0
TEXT
8
BORDER
10
10.4688
20
10.4583
30
0.0000
40
0.0800
1
2
72
1
11
10.4688
21
10.4583
31
0.0000
0
TEXT
8
BORDER
10
10.4688
20
0.4583
30
0.0000
40
0.0800
1
2
72
1
11
10.4688
21
0.4583
31
0.0000
0
LINE
8
BORDER
10
8.5000
20
10.6250
30
0.0000
11
8.5000
21
10.3750
31
0.0000
0
LINE
8
BORDER
10
8.5000
20
0.6250
30
0.0000
11
8.5000
21
0.3750
31
0.0000
0
TEXT
8
BORDER
10
14.4062
20
10.4583
30
0.0000
40
0.0800
1
1
72
1
11
14.4062
21
10.4583
31
0.0000
0
TEXT
8
BORDER
10
14.4062
20
0.4583
30
0.0000
40
0.0800
1
1
72
1
11
14.4062
21
0.4583
31
0.0000
0
LINE
8
BORDER
10
12.4375
20
10.6250
30
0.0000
11
12.4375
21
10.3750
31
0.0000
0
LINE
8
BORDER
10
12.4375
20
0.6250
30
0.0000
11
12.4375
21
0.3750
31
0.0000
0
TEXT
8
BORDER
10
0.5000
20
7.8958
30
0.0000
40
0.0800
1
B
72
1
11
0.5000
21
7.8958
31
0.0000
0
TEXT
8
BORDER
10
16.5000
20
7.8958
30
0.0000
40
0.0800
1
B
72
1
11
16.5000
21
7.8958
31
0.0000
0
TEXT
8
BORDER
10
0.5000
20
3.0208
30
0.0000
40
0.0800
1
A
72
1
11
0.5000
21
3.0208
31
0.0000
0
TEXT
8
BORDER
10
16.5000
20
3.0208
30
0.0000
40
0.0800
1
A
72
1
11
16.5000
21
3.0208
31
0.0000
0
LINE
8
BORDER
10
0.3750
20
5.5000
30
0.0000
11
0.6250
21
5.5000
31
0.0000
0
LINE
8
BORDER
10
16.3750
20
5.5000
30
0.0000
11
16.6250
21
5.5000
31
0.0000
0
TEXT
8
TABLES
10
10.9682
20
5.6111
30
0.0000
40
0.0900
1
BILL OF MATERIALS
0
POLYLINE
8
TABLES
66
1
10
0.0000
20
0.0000
30
0.0000
70
1
0
VERTEX
8
TABLES
10
10.9682
20
5.5417
30
0.0000
0
VERTEX
8
TABLES
10
16.2083
20
5.5417
30
0.0000
0
VERTEX
8
TABLES
10
16.2083
20
5.3472
30
0.0000
0
VERTEX
8
TABLES
10
10.9682
20
5.3472
30
0.0000
0
SEQEND
8
TABLES
0
TEXT
8
TABLES
10
11.1399
20
5.4028
30
0.0000
40
0.0700
1
ITEM
72
1
11
11.1399
21
5.4028
31
0.0000
0
TEXT
8
TABLES
10
11.4671
20
5.4028
30
0.0000
40
0.0700
1
QTY
72
1
11
11.4671
21
5.4028
31
0.0000
0
TEXT
8
TABLES
10
11.7916
20
5.4028
30
0.0000
40
0.0700
1
UNIT
72
1
11
11.7916
21
5.4028
31
0.0000
0
TEXT
8
TABLES
10
12.4565
20
5.4028
30
0.0000
40
0.0700
1
PART NUMBER
72
1
11
12.4565
21
5.4028
31
0.0000
0
TEXT
8
TABLES
10
14.0370
20
5.4028
30
0.0000
40
0.0700
1
DESCRIPTION
72
1
11
14.0370
21
5.4028
31
0.0000
0
TEXT
8
TABLES
10
15.6650
20
5.4028
30
0.0000
40
0.0700
1
USED ON
72
1
11
15.6650
21
5.4028
31
0.0000
0
TEXT
8
TABLES
10
11.1399
20
5.2292
30
0.0000
40
0.0700
1
1
72
1
11
11.1399
21
5.2292
31
0.0000
0
TEXT
8
TABLES
10
11.4671
20
5.2292
30
0.0000
40
0.0700
1
1
72
1
11
11.4671
21
5.2292
31
0.0000
0
TEXT
8
TABLES
10
11.7916
20
5.2292
30
0.0000
40
0.0700
1
EA
72
1
11
11.7916
21
5.2292
31
0.0000
0
TEXT
8
TABLES
10
12.0022
20
5.2292
30
0.0000
40
0.0700
1
D38999/26WD18SN
0
TEXT
8
TABLES
10
12.9941
20
5.2292
30
0.0000
40
0.0700
1
CONNECTOR, PLUG, 18 SKT
0
TEXT
8
TABLES
10
15.1634
20
5.2292
30
0.0000
40
0.0700
1
P1
0
LINE
8
TABLES
10
10.9682
20
5.1806
30
0.0000
11
16.2083
21
5.1806
31
0.0000
0
TEXT
8
TABLES
10
11.1399
20
5.0625
30
0.0000
40
0.0700
1
2
72
1
11
11.1399
21
5.0625
31
0.0000
0
TEXT
8
TABLES
10
11.4671
20
5.0625
30
0.0000
40
0.0700
1
1
72
1
11
11.4671
21
5.0625
31
0.0000
0
TEXT
8
TABLES
10
11.7916
20
5.0625
30
0.0000
40
0.0700
1
EA
72
1
11
11.7916
21
5.0625
31
0.0000
0
TEXT
8
TABLES
10
12.0022
20
5.0625
30
0.0000
40
0.0700
1
D38999/26WD18PN
0
TEXT
8
TABLES
10
12.9941
20
5.0625
30
0.0000
40
0.0700
1
CONNECTOR, PLUG, 18 PIN
0
TEXT
8
TABLES
10
15.1634
20
5.0625
30
0.0000
40
0.0700
1
P2
0
LINE
8
TABLES
10
10.9682
20
5.0139
30
0.0000
11
16.2083
21
5.0139
31
0.0000
0
TEXT
8
TABLES
10
11.1399
20
4.8958
30
0.0000
40
0.0700
1
3
72
1
11
11.1399
21
4.8958
31
0.0000
0
TEXT
8
TABLES
10
11.4671
20
4.8958
30
0.0000
40
0.0700
1
12
72
1
11
11.4671
21
4.8958
31
0.0000
0
TEXT
8
TABLES
10
11.7916
20
4.8958
30
0.0000
40
0.0700
1
EA
72
1
11
11.7916
21
4.8958
31
0.0000
0
TEXT
8
TABLES
10
12.0022
20
4.8958
30
0.0000
40
0.0700
1
M39029/56-351
0
TEXT
8
TABLES
10
12.9941
20
4.8958
30
0.0000
40
0.0700
1
CONTACT, SOCKET, SIZE 20
0
TEXT
8
TABLES
10
15.1634
20
4.8958
30
0.0000
40
0.0700
1
P1
0
LINE
8
TABLES
10
10.9682
20
4.8472
30
0.0000
11
16.2083
21
4.8472
31
0.0000
0
TEXT
8
TABLES
10
11.1399
20
4.7292
30
0.0000
40
0.0700
1
4
72
1
11
11.1399
21
4.7292
31
0.0000
0
TEXT
8
TABLES
10
11.4671
20
4.7292
30
0.0000
40
0.0700
1
12
72
1
11
11.4671
21
4.7292
31
0.0000
0
TEXT
8
TABLES
10
11.7916
20
4.7292
30
0.0000
40
0.0700
1
EA
72
1
11
11.7916
21
4.7292
31
0.0000
0
TEXT
8
TABLES
10
12.0022
20
4.7292
30
0.0000
40
0.0700
1
M39029/58-363
0
TEXT
8
TABLES
10
12.9941
20
4.7292
30
0.0000
40
0.0700
1
CONTACT, PIN, SIZE 20
0
TEXT
8
TABLES
10
15.1634
20
4.7292
30
0.0000
40
0.0700
1
P2
0
LINE
8
TABLES
10
10.9682
20
4.6806
30
0.0000
11
16.2083
21
4.6806
31
0.0000
0
TEXT
8
TABLES
10
11.1399
20
4.5625
30
0.0000
40
0.0700
1
5
72
1
11
11.1399
21
4.5625
31
0.0000
0
TEXT
8
TABLES
10
11.4671
20
4.5625
30
0.0000
40
0.0700
1
2
72
1
11
11.4671
21
4.5625
31
0.0000
0
TEXT
8
TABLES
10
11.7916
20
4.5625
30
0.0000
40
0.0700
1
EA
72
1
11
11.7916
21
4.5625
31
0.0000
0
TEXT
8
TABLES
10
12.0022
20
4.5625
30
0.0000
40
0.0700
1
M85049/38S15W
0
TEXT
8
TABLES
10
12.9941
20
4.5625
30
0.0000
40
0.0700
1
BACKSHELL, STRAIGHT, SHELL 15
0
TEXT
8
TABLES
10
15.1634
20
4.5625
30
0.0000
40
0.0700
1
P1, P2
0
LINE
8
TABLES
10
10.9682
20
4.5139
30
0.0000
11
16.2083
21
4.5139
31
0.0000
0
TEXT
8
TABLES
10
11.1399
20
4.3958
30
0.0000
40
0.0700
1
6
72
1
11
11.1399
21
4.3958
31
0.0000
0
TEXT
8
TABLES
10
11.4671
20
4.3958
30
0.0000
40
0.0700
1
2
72
1
11
11.4671
21
4.3958
31
0.0000
0
TEXT
8
TABLES
10
11.7916
20
4.3958
30
0.0000
40
0.0700
1
EA
72
1
11
11.7916
21
4.3958
31
0.0000
0
TEXT
8
TABLES
10
12.0022
20
4.3958
30
0.0000
40
0.0700
1
202K153-25/225-0
0
TEXT
8
TABLES
10
12.9941
20
4.3958
30
0.0000
40
0.0700
1
BOOT, HEATSHRINK, STRAIGHT
0
TEXT
8
TABLES
10
15.1634
20
4.3958
30
0.0000
40
0.0700
1
P1, P2
0
LINE
8
TABLES
10
10.9682
20
4.3472
30
0.0000
11
16.2083
21
4.3472
31
0.0000
0
TEXT
8
TABLES
10
11.1399
20
4.2292
30
0.0000
40
0.0700
1
7
72
1
11
11.1399
21
4.2292
31
0.0000
0
TEXT
8
TABLES
10
11.4671
20
4.2292
30
0.0000
40
0.0700
1
2
72
1
11
11.4671
21
4.2292
31
0.0000
0
TEXT
8
TABLES
10
11.7916
20
4.2292
30
0.0000
40
0.0700
1
EA
72
1
11
11.7916
21
4.2292
31
0.0000
0
TEXT
8
TABLES
10
12.0022
20
4.2292
30
0.0000
40
0.0700
1
TMS-SCE-1/2-2.0-9
0
TEXT
8
TABLES
10
12.9941
20
4.2292
30
0.0000
40
0.0700
1
SLEEVE, IDENTIFICATION, 1/2 IN
0
TEXT
8
TABLES
10
15.1634
20
4.2292
30
0.0000
40
0.0700
1
P1, P2
0
LINE
8
TABLES
10
10.9682
20
4.1806
30
0.0000
11
16.2083
21
4.1806
31
0.0000
0
TEXT
8
TABLES
10
11.1399
20
4.0625
30
0.0000
40
0.0700
1
8
72
1
11
11.1399
21
4.0625
31
0.0000
0
TEXT
8
TABLES
10
11.4671
20
4.0625
30
0.0000
40
0.0700
1
48
72
1
11
11.4671
21
4.0625
31
0.0000
0
TEXT
8
TABLES
10
11.7916
20
4.0625
30
0.0000
40
0.0700
1
IN
72
1
11
11.7916
21
4.0625
31
0.0000
0
TEXT
8
TABLES
10
12.0022
20
4.0625
30
0.0000
40
0.0700
1
M27500-22TG2T14
0
TEXT
8
TABLES
10
12.9941
20
4.0625
30
0.0000
40
0.0700
1
CABLE, SHIELDED TWISTED PAIR, 22 AWG
0
TEXT
8
TABLES
10
15.1634
20
4.0625
30
0.0000
40
0.0700
1
TSP1
0
LINE
8
TABLES
10
10.9682
20
4.0139
30
0.0000
11
16.2083
21
4.0139
31
0.0000
0
TEXT
8
TABLES
10
11.1399
20
3.8958
30
0.0000
40
0.0700
1
9
72
1
11
11.1399
21
3.8958
31
0.0000
0
TEXT
8
TABLES
10
11.4671
20
3.8958
30
0.0000
40
0.0700
1
48
72
1
11
11.4671
21
3.8958
31
0.0000
0
TEXT
8
TABLES
10
11.7916
20
3.8958
30
0.0000
40
0.0700
1
IN
72
1
11
11.7916
21
3.8958
31
0.0000
0
TEXT
8
TABLES
10
12.0022
20
3.8958
30
0.0000
40
0.0700
1
M22759/16-20-2
0
TEXT
8
TABLES
10
12.9941
20
3.8958
30
0.0000
40
0.0700
1
WIRE, 20 AWG, RED
0
TEXT
8
TABLES
10
15.1634
20
3.8958
30
0.0000
40
0.0700
1
W1
0
LINE
8
TABLES
10
10.9682
20
3.8472
30
0.0000
11
16.2083
21
3.8472
31
0.0000
0
TEXT
8
TABLES
10
11.1399
20
3.7292
30
0.0000
40
0.0700
1
10
72
1
11
11.1399
21
3.7292
31
0.0000
0
TEXT
8
TABLES
10
11.4671
20
3.7292
30
0.0000
40
0.0700
1
48
72
1
11
11.4671
21
3.7292
31
0.0000
0
TEXT
8
TABLES
10
11.7916
20
3.7292
30
0.0000
40
0.0700
1
IN
72
1
11
11.7916
21
3.7292
31
0.0000
0
TEXT
8
TABLES
10
12.0022
20
3.7292
30
0.0000
40
0.0700
1
M22759/16-20-0
0
TEXT
8
TABLES
10
12.9941
20
3.7292
30
0.0000
40
0.0700
1
WIRE, 20 AWG, BLK
0
TEXT
8
TABLES
10
15.1634
20
3.7292
30
0.0000
40
0.0700
1
W2
0
LINE
8
TABLES
10
10.9682
20
3.6806
30
0.0000
11
16.2083
21
3.6806
31
0.0000
0
TEXT
8
TABLES
10
11.1399
20
3.5625
30
0.0000
40
0.0700
1
11
72
1
11
11.1399
21
3.5625
31
0.0000
0
TEXT
8
TABLES
10
11.4671
20
3.5625
30
0.0000
40
0.0700
1
AR
72
1
11
11.4671
21
3.5625
31
0.0000
0
TEXT
8
TABLES
10
11.7916
20
3.5625
30
0.0000
40
0.0700
1
IN
72
1
11
11.7916
21
3.5625
31
0.0000
0
TEXT
8
TABLES
10
12.0022
20
3.5625
30
0.0000
40
0.0700
1
M22759/16-22-9
0
TEXT
8
TABLES
10
12.9941
20
3.5625
30
0.0000
40
0.0700
1
WIRE, 22 AWG, WHT
0
TEXT
8
TABLES
10
15.1634
20
3.5625
30
0.0000
40
0.0700
1
W5, W7, W8, W10
0
LINE
8
TABLES
10
10.9682
20
3.5139
30
0.0000
11
16.2083
21
3.5139
31
0.0000
0
TEXT
8
TABLES
10
11.1399
20
3.3958
30
0.0000
40
0.0700
1
12
72
1
11
11.1399
21
3.3958
31
0.0000
0
TEXT
8
TABLES
10
11.4671
20
3.3958
30
0.0000
40
0.0700
1
48
72
1
11
11.4671
21
3.3958
31
0.0000
0
TEXT
8
TABLES
10
11.7916
20
3.3958
30
0.0000
40
0.0700
1
IN
72
1
11
11.7916
21
3.3958
31
0.0000
0
TEXT
8
TABLES
10
12.0022
20
3.3958
30
0.0000
40
0.0700
1
M22759/16-22-6
0
TEXT
8
TABLES
10
12.9941
20
3.3958
30
0.0000
40
0.0700
1
WIRE, 22 AWG, BLU
0
TEXT
8
TABLES
10
15.1634
20
3.3958
30
0.0000
40
0.0700
1
W6
0
LINE
8
TABLES
10
10.9682
20
3.3472
30
0.0000
11
16.2083
21
3.3472
31
0.0000
0
TEXT
8
TABLES
10
11.1399
20
3.2292
30
0.0000
40
0.0700
1
13
72
1
11
11.1399
21
3.2292
31
0.0000
0
TEXT
8
TABLES
10
11.4671
20
3.2292
30
0.0000
40
0.0700
1
54
72
1
11
11.4671
21
3.2292
31
0.0000
0
TEXT
8
TABLES
10
11.7916
20
3.2292
30
0.0000
40
0.0700
1
IN
72
1
11
11.7916
21
3.2292
31
0.0000
0
TEXT
8
TABLES
10
12.0022
20
3.2292
30
0.0000
40
0.0700
1
M22759/16-22-0
0
TEXT
8
TABLES
10
12.9941
20
3.2292
30
0.0000
40
0.0700
1
WIRE, 22 AWG, BLK
0
TEXT
8
TABLES
10
15.1634
20
3.2292
30
0.0000
40
0.0700
1
W9, W12, W13
0
LINE
8
TABLES
10
10.9682
20
3.1806
30
0.0000
11
16.2083
21
3.1806
31
0.0000
0
TEXT
8
TABLES
10
11.1399
20
3.0625
30
0.0000
40
0.0700
1
14
72
1
11
11.1399
21
3.0625
31
0.0000
0
TEXT
8
TABLES
10
11.4671
20
3.0625
30
0.0000
40
0.0700
1
48
72
1
11
11.4671
21
3.0625
31
0.0000
0
TEXT
8
TABLES
10
11.7916
20
3.0625
30
0.0000
40
0.0700
1
IN
72
1
11
11.7916
21
3.0625
31
0.0000
0
TEXT
8
TABLES
10
12.0022
20
3.0625
30
0.0000
40
0.0700
1
M22759/16-20-5
0
TEXT
8
TABLES
10
12.9941
20
3.0625
30
0.0000
40
0.0700
1
WIRE, 20 AWG, GRN
0
TEXT
8
TABLES
10
15.1634
20
3.0625
30
0.0000
40
0.0700
1
W11
0
LINE
8
TABLES
10
10.9682
20
3.0139
30
0.0000
11
16.2083
21
3.0139
31
0.0000
0
TEXT
8
TABLES
10
11.1399
20
2.8958
30
0.0000
40
0.0700
1
15
72
1
11
11.1399
21
2.8958
31
0.0000
0
TEXT
8
TABLES
10
11.4671
20
2.8958
30
0.0000
40
0.0700
1
2
72
1
11
11.4671
21
2.8958
31
0.0000
0
TEXT
8
TABLES
10
11.7916
20
2.8958
30
0.0000
40
0.0700
1
EA
72
1
11
11.7916
21
2.8958
31
0.0000
0
TEXT
8
TABLES
10
12.0022
20
2.8958
30
0.0000
40
0.0700
1
M83519/2-3
0
TEXT
8
TABLES
10
12.9941
20
2.8958
30
0.0000
40
0.0700
1
SHIELD TERMINATION, SOLDER SLEEVE
0
TEXT
8
TABLES
10
15.1634
20
2.8958
30
0.0000
40
0.0700
1
TSP1@P1, TSP1@P2
0
LINE
8
TABLES
10
10.9682
20
2.8472
30
0.0000
11
16.2083
21
2.8472
31
0.0000
0
TEXT
8
TABLES
10
11.1399
20
2.7292
30
0.0000
40
0.0700
1
16
72
1
11
11.1399
21
2.7292
31
0.0000
0
TEXT
8
TABLES
10
11.4671
20
2.7292
30
0.0000
40
0.0700
1
1
72
1
11
11.4671
21
2.7292
31
0.0000
0
TEXT
8
TABLES
10
11.7916
20
2.7292
30
0.0000
40
0.0700
1
EA
72
1
11
11.7916
21
2.7292
31
0.0000
0
TEXT
8
TABLES
10
12.0022
20
2.7292
30
0.0000
40
0.0700
1
M81824/1-1
0
TEXT
8
TABLES
10
12.9941
20
2.7292
30
0.0000
40
0.0700
1
SPLICE, CRIMP, ENVIRONMENT RESISTANT
0
TEXT
8
TABLES
10
15.1634
20
2.7292
30
0.0000
40
0.0700
1
SP1
0
LINE
8
TABLES
10
10.9682
20
2.6806
30
0.0000
11
16.2083
21
2.6806
31
0.0000
0
TEXT
8
TABLES
10
11.1399
20
2.5625
30
0.0000
40
0.0700
1
17
72
1
11
11.1399
21
2.5625
31
0.0000
0
TEXT
8
TABLES
10
11.4671
20
2.5625
30
0.0000
40
0.0700
1
26
72
1
11
11.4671
21
2.5625
31
0.0000
0
TEXT
8
TABLES
10
11.7916
20
2.5625
30
0.0000
40
0.0700
1
EA
72
1
11
11.7916
21
2.5625
31
0.0000
0
TEXT
8
TABLES
10
12.0022
20
2.5625
30
0.0000
40
0.0700
1
TMS-SCE-1/8-2.0-9
0
TEXT
8
TABLES
10
12.9941
20
2.5625
30
0.0000
40
0.0700
1
MARKER, WIRE, 1/8 IN
0
TEXT
8
TABLES
10
15.1634
20
2.5625
30
0.0000
40
0.0700
1
W1-W13
0
LINE
8
TABLES
10
10.9682
20
2.5139
30
0.0000
11
16.2083
21
2.5139
31
0.0000
0
POLYLINE
8
TABLES
66
1
10
0.0000
20
0.0000
30
0.0000
70
1
0
VERTEX
8
TABLES
10
10.9682
20
5.5417
30
0.0000
0
VERTEX
8
TABLES
10
16.2083
20
5.5417
30
0.0000
0
VERTEX
8
TABLES
10
16.2083
20
2.5139
30
0.0000
0
VERTEX
8
TABLES
10
10.9682
20
2.5139
30
0.0000
0
SEQEND
8
TABLES
0
LINE
8
TABLES
10
11.3116
20
5.5417
30
0.0000
11
11.3116
21
2.5139
31
0.0000
0
LINE
8
TABLES
10
11.6226
20
5.5417
30
0.0000
11
11.6226
21
2.5139
31
0.0000
0
LINE
8
TABLES
10
11.9605
20
5.5417
30
0.0000
11
11.9605
21
2.5139
31
0.0000
0
LINE
8
TABLES
10
12.9524
20
5.5417
30
0.0000
11
12.9524
21
2.5139
31
0.0000
0
LINE
8
TABLES
10
15.1217
20
5.5417
30
0.0000
11
15.1217
21
2.5139
31
0.0000
0
TEXT
8
NOTES
10
0.7917
20
2.9889
30
0.0000
40
0.0900
1
NOTES:
0
TEXT
8
NOTES
10
0.7917
20
2.7667
30
0.0000
40
0.0800
1
1.
0
TEXT
8
NOTES
10
1.0417
20
2.7667
30
0.0000
40
0.0800
1
INTERPRET DRAWING PER ASME Y14.100.
0
TEXT
8
NOTES
10
0.7917
20
2.5861
30
0.0000
40
0.0800
1
2.
0
TEXT
8
NOTES
10
1.0417
20
2.5861
30
0.0000
40
0.0800
1
DIMENSIONS ARE IN INCHES. LENGTH TOLERANCE %%p0.5 IN.
0
TEXT
8
NOTES
10
0.7917
20
2.4056
30
0.0000
40
0.0800
1
3.
0
TEXT
8
NOTES
10
1.0417
20
2.4056
30
0.0000
40
0.0800
1
WIRE PER WIRE LIST. TERMINATE CONTACTS PER CONNECTOR MANUFACTURER'S INSTRUCTIONS.
0
TEXT
8
NOTES
10
0.7917
20
2.2250
30
0.0000
40
0.0800
1
4.
0
TEXT
8
NOTES
10
1.0417
20
2.2250
30
0.0000
40
0.0800
1
100% CONTINUITY AND ISOLATION TEST PER WIRE LIST.
0
TEXT
8
NOTES
10
0.7917
20
2.0444
30
0.0000
40
0.0800
1
5.
0
TEXT
8
NOTES
10
1.0417
20
2.0444
30
0.0000
40
0.0800
1
WIRING DIAGRAM ON SHEET 2. WIRE LIST, WIRE GROUPS, SPLICES AND LABEL SCHEDULE ON SHEET 3.
0
TEXT
8
NOTES
10
0.7917
20
1.8639
30
0.0000
40
0.0800
1
6.
0
TEXT
8
NOTES
10
1.0417
20
1.8639
30
0.0000
40
0.0800
1
TWIST THE WIRES OF EACH TWISTED GROUP TOGETHER OVER THEIR FULL LENGTH (SEE WIRE GROUPS TABLE).
0
TEXT
8
NOTES
10
0.7917
20
1.6833
30
0.0000
40
0.0800
1
7.
0
TEXT
8
NOTES
10
1.0417
20
1.6833
30
0.0000
40
0.0800
1
TERMINATE SHIELDS PER WIRE GROUPS TABLE USING ITEM 15. INSULATE FLOATING SHIELD ENDS.
0
TEXT
8
NOTES
10
0.7917
20
1.5028
30
0.0000
40
0.0800
1
8.
0
TEXT
8
NOTES
10
1.0417
20
1.5028
30
0.0000
40
0.0800
1
INSTALL SPLICES (ITEM 16) PER SPLICE TABLE.
0
TEXT
8
NOTES
10
0.7917
20
1.3222
30
0.0000
40
0.0800
1
9.
0
TEXT
8
NOTES
10
1.0417
20
1.3222
30
0.0000
40
0.0800
1
CALCULATED BUNDLE DIAMETER AT CONNECTORS (REF): P1 0.257 IN, P2 0.257 IN.
0
TEXT
8
NOTES
10
0.7917
20
1.1417
30
0.0000
40
0.0800
1
10.
0
TEXT
8
NOTES
10
1.0417
20
1.1417
30
0.0000
40
0.0800
1
RECOVER HEATSHRINK BOOTS (ITEM 6) OVER BACKSHELL CABLE CLAMPS.
0
TEXT
8
NOTES
10
0.7917
20
0.9611
30
0.0000
40
0.0800
1
11.
0
TEXT
8
NOTES
10
1.0417
20
0.9611
30
0.0000
40
0.0800
1
INSTALL CABLE IDENTIFICATION LABELS (ITEM 7) ADJACENT TO EACH CONNECTOR, MARKED PER LABEL SCHEDULE.
0
TEXT
8
NOTES
10
0.7917
20
0.7806
30
0.0000
40
0.0800
1
12.
0
TEXT
8
NOTES
10
1.0417
20
0.7806
30
0.0000
40
0.0800
1
INSTALL WIRE MARKERS (ITEM 17) AT EACH END OF EACH WIRE, MARKED WITH WIRE ID.
0
TEXT
8
0
10
0.7917
20
10.0417
30
0.0000
40
0.1200
1
ASSEMBLY VIEW (NOT TO SCALE)
0
POLYLINE
8
CABLE
66
1
10
0.0000
20
0.0000
30
0.0000
70
0
0
VERTEX
8
CABLE
10
4.5241
20
7.6741
30
0.0000
0
VERTEX
8
CABLE
10
8.4147
20
7.6741
30
0.0000
0
SEQEND
8
CABLE
0
POLYLINE
8
CABLE
66
1
10
0.0000
20
0.0000
30
0.0000
70
0
0
VERTEX
8
CABLE
10
4.5241
20
7.8659
30
0.0000
0
VERTEX
8
CABLE
10
8.4147
20
7.8659
30
0.0000
0
SEQEND
8
CABLE
0
POLYLINE
8
CABLE
66
1
10
0.0000
20
0.0000
30
0.0000
70
0
0
VERTEX
8
CABLE
10
12.3053
20
7.8659
30
0.0000
0
VERTEX
8
CABLE
10
8.4147
20
7.8659
30
0.0000
0
SEQEND
8
CABLE
0
POLYLINE
8
CABLE
66
1
10
0.0000
20
0.0000
30
0.0000
70
0
0
VERTEX
8
CABLE
10
12.3053
20
7.6741
30
0.0000
0
VERTEX
8
CABLE
10
8.4147
20
7.6741
30
0.0000
0
SEQEND
8
CABLE
0
LINE
8
ASSEMBLY
10
7.1407
20
7.6330
30
0.0000
11
7.2229
21
7.9070
31
0.0000
0
LINE
8
ASSEMBLY
10
7.2503
20
7.6330
30
0.0000
11
7.3325
21
7.9070
31
0.0000
0
POLYLINE
8
ASSEMBLY
66
1
10
0.0000
20
0.0000
30
0.0000
70
1
0
VERTEX
8
ASSEMBLY
10
2.2774
20
8.1947
30
0.0000
0
VERTEX
8
ASSEMBLY
10
2.5240
20
8.1947
30
0.0000
0
VERTEX
8
ASSEMBLY
10
2.5240
20
7.3454
30
0.0000
0
VERTEX
8
ASSEMBLY
10
2.2774
20
7.3454
30
0.0000
0
SEQEND
8
ASSEMBLY
0
LINE
8
ASSEMBLY
10
2.3391
20
8.1947
30
0.0000
11
2.3391
21
7.3454
31
0.0000
0
LINE
8
ASSEMBLY
10
2.4007
20
8.1947
30
0.0000
11
2.4007
21
7.3454
31
0.0000
0
LINE
8
ASSEMBLY
10
2.4624
20
8.1947
30
0.0000
11
2.4624
21
7.3454
31
0.0000
0
POLYLINE
8
ASSEMBLY
66
1
10
0.0000
20
0.0000
30
0.0000
70
1
0
VERTEX
8
ASSEMBLY
10
2.5240
20
8.1262
30
0.0000
0
VERTEX
8
ASSEMBLY
10
3.0446
20
8.1262
30
0.0000
0
VERTEX
8
ASSEMBLY
10
3.0446
20
7.4138
30
0.0000
0
VERTEX
8
ASSEMBLY
10
2.5240
20
7.4138
30
0.0000
0
SEQEND
8
ASSEMBLY
0
TEXT
8
ASSEMBLY
10
2.7843
20
7.7152
30
0.0000
40
0.1085
1
P1
72
1
11
2.7843
21
7.7152
31
0.0000
0
POLYLINE
8
ASSEMBLY
66
1
10
0.0000
20
0.0000
30
0.0000
70
1
0
VERTEX
8
ASSEMBLY
10
3.0446
20
8.0577
30
0.0000
0
VERTEX
8
ASSEMBLY
10
3.7022
20
7.9070
30
0.0000
0
VERTEX
8
ASSEMBLY
10
3.7022
20
7.6330
30
0.0000
0
VERTEX
8
ASSEMBLY
10
3.0446
20
7.4823
30
0.0000
0
SEQEND
8
ASSEMBLY
0
LINE
8
ASSEMBLY
10
3.1542
20
8.0344
30
0.0000
11
3.1542
21
7.5056
31
0.0000
0
POLYLINE
8
ASSEMBLY
66
1
10
0.0000
20
0.0000
30
0.0000
70
1
0
VERTEX
8
ASSEMBLY
10
3.4008
20
7.9481
30
0.0000
0
VERTEX
8
ASSEMBLY
10
4.2227
20
7.9481
30
0.0000
0
VERTEX
8
ASSEMBLY
10
4.2227
20
7.5919
30
0.0000
0
VERTEX
8
ASSEMBLY
10
3.4008
20
7.5919
30
0.0000
0
SEQEND
8
ASSEMBLY
0
POLYLINE
8
ASSEMBLY
66
1
10
0.0000
20
0.0000
30
0.0000
70
1
0
VERTEX
8
ASSEMBLY
10
4.5789
20
7.9070
30
0.0000
0
VERTEX
8
ASSEMBLY
10
5.3735
20
7.9070
30
0.0000
0
VERTEX
8
ASSEMBLY
10
5.3735
20
7.6330
30
0.0000
0
VERTEX
8
ASSEMBLY
10
4.5789
20
7.6330
30
0.0000
0
SEQEND
8
ASSEMBLY
0
TEXT
8
ASSEMBLY
10
4.9762
20
7.7358
30
0.0000
40
0.0690
1
W101-P1
72
1
11
4.9762
21
7.7358
31
0.0000
0
CIRCLE
8
ASSEMBLY
10
2.7843
20
8.6194
30
0.0000
40
0.1233
0
TEXT
8
ASSEMBLY
10
2.7843
20
8.5783
30
0.0000
40
0.0789
1
1
72
1
11
2.7843
21
8.5783
31
0.0000
0
LINE
8
ASSEMBLY
10
2.7843
20
8.4961
30
0.0000
11
2.7843
21
8.1262
31
0.0000
0
CIRCLE
8
ASSEMBLY
10
2.7843
20
8.1262
30
0.0000
40
0.0192
0
CIRCLE
8
ASSEMBLY
10
3.2364
20
8.6194
30
0.0000
40
0.1233
0
TEXT
8
ASSEMBLY
10
3.2364
20
8.5783
30
0.0000
40
0.0789
1
5
72
1
11
3.2364
21
8.5783
31
0.0000
0
LINE
8
ASSEMBLY
10
3.2364
20
8.4961
30
0.0000
11
3.2364
21
8.0166
31
0.0000
0
CIRCLE
8
ASSEMBLY
10
3.2364
20
8.0166
30
0.0000
40
0.0192
0
CIRCLE
8
ASSEMBLY
10
3.8940
20
8.6194
30
0.0000
40
0.1233
0
TEXT
8
ASSEMBLY
10
3.8940
20
8.5783
30
0.0000
40
0.0789
1
6
72
1
11
3.8940
21
8.5783
31
0.0000
0
LINE
8
ASSEMBLY
10
3.8940
20
8.4961
30
0.0000
11
3.8940
21
7.9481
31
0.0000
0
CIRCLE
8
ASSEMBLY
10
3.8940
20
7.9481
30
0.0000
40
0.0192
0
CIRCLE
8
ASSEMBLY
10
4.9762
20
8.6194
30
0.0000
40
0.1233
0
TEXT
8
ASSEMBLY
10
4.9762
20
8.5783
30
0.0000
40
0.0789
1
7
72
1
11
4.9762
21
8.5783
31
0.0000
0
LINE
8
ASSEMBLY
10
4.9762
20
8.4961
30
0.0000
11
4.9762
21
7.9070
31
0.0000
0
CIRCLE
8
ASSEMBLY
10
4.9762
20
7.9070
30
0.0000
40
0.0192
0
TEXT
8
ASSEMBLY
10
2.1678
20
7.7289
30
0.0000
40
0.0789
1
TO FLIGHT COMPUTER J3
72
2
11
2.1678
21
7.7289
31
0.0000
0
CIRCLE
8
ASSEMBLY
10
6.0585
20
8.4070
30
0.0000
40
0.1233
0
TEXT
8
ASSEMBLY
10
6.0585
20
8.3660
30
0.0000
40
0.0789
1
8
72
1
11
6.0585
21
8.3660
31
0.0000
0
LINE
8
ASSEMBLY
10
6.0226
20
8.2891
30
0.0000
11
5.8941
21
7.8659
31
0.0000
0
CIRCLE
8
ASSEMBLY
10
5.8941
20
7.8659
30
0.0000
40
0.0192
0
CIRCLE
8
ASSEMBLY
10
6.3050
20
8.4070
30
0.0000
40
0.1233
0
TEXT
8
ASSEMBLY
10
6.3050
20
8.3660
30
0.0000
40
0.0789
1
9
72
1
11
6.3050
21
8.3660
31
0.0000
0
CIRCLE
8
ASSEMBLY
10
6.5516
20
8.4070
30
0.0000
40
0.1233
0
TEXT
8
ASSEMBLY
10
6.5516
20
8.3660
30
0.0000
40
0.0789
1
10
72
1
11
6.5516
21
8.3660
31
0.0000
0
CIRCLE
8
ASSEMBLY
10
6.7982
20
8.4070
30
0.0000
40
0.1233
0
TEXT
8
ASSEMBLY
10
6.7982
20
8.3660
30
0.0000
40
0.0789
1
11
72
1
11
6.7982
21
8.3660
31
0.0000
0
CIRCLE
8
ASSEMBLY
10
6.0585
20
8.6536
30
0.0000
40
0.1233
0
TEXT
8
ASSEMBLY
10
6.0585
20
8.6125
30
0.0000
40
0.0789
1
12
72
1
11
6.0585
21
8.6125
31
0.0000
0
CIRCLE
8
ASSEMBLY
10
6.3050
20
8.6536
30
0.0000
40
0.1233
0
TEXT
8
ASSEMBLY
10
6.3050
20
8.6125
30
0.0000
40
0.0789
1
13
72
1
11
6.3050
21
8.6125
31
0.0000
0
CIRCLE
8
ASSEMBLY
10
6.5516
20
8.6536
30
0.0000
40
0.1233
0
TEXT
8
ASSEMBLY
10
6.5516
20
8.6125
30
0.0000
40
0.0789
1
14
72
1
11
6.5516
21
8.6125
31
0.0000
0
CIRCLE
8
ASSEMBLY
10
6.7982
20
8.6536
30
0.0000
40
0.1233
0
TEXT
8
ASSEMBLY
10
6.7982
20
8.6125
30
0.0000
40
0.0789
1
15
72
1
11
6.7982
21
8.6125
31
0.0000
0
CIRCLE
8
ASSEMBLY
10
6.0585
20
8.9002
30
0.0000
40
0.1233
0
TEXT
8
ASSEMBLY
10
6.0585
20
8.8591
30
0.0000
40
0.0789
1
17
72
1
11
6.0585
21
8.8591
31
0.0000
0
LINE
8
ASSEMBLY
10
9.4970
20
7.6330
30
0.0000
11
9.5792
21
7.9070
31
0.0000
0
LINE
8
ASSEMBLY
10
9.6066
20
7.6330
30
0.0000
11
9.6888
21
7.9070
31
0.0000
0
POLYLINE
8
ASSEMBLY
66
1
10
0.0000
20
0.0000
30
0.0000
70
1
0
VERTEX
8
ASSEMBLY
10
14.3054
20
8.1947
30
0.0000
0
VERTEX
8
ASSEMBLY
10
14.5520
20
8.1947
30
0.0000
0
VERTEX
8
ASSEMBLY
10
14.5520
20
7.3454
30
0.0000
0
VERTEX
8
ASSEMBLY
10
14.3054
20
7.3454
30
0.0000
0
SEQEND
8
ASSEMBLY
0
LINE
8
ASSEMBLY
10
14.4904
20
8.1947
30
0.0000
11
14.4904
21
7.3454
31
0.0000
0
LINE
8
ASSEMBLY
10
14.4287
20
8.1947
30
0.0000
11
14.4287
21
7.3454
31
0.0000
0
LINE
8
ASSEMBLY
10
14.3671
20
8.1947
30
0.0000
11
14.3671
21
7.3454
31
0.0000
0
POLYLINE
8
ASSEMBLY
66
1
10
0.0000
20
0.0000
30
0.0000
70
1
0
VERTEX
8
ASSEMBLY
10
13.7849
20
8.1262
30
0.0000
0
VERTEX
8
ASSEMBLY
10
14.3054
20
8.1262
30
0.0000
0
VERTEX
8
ASSEMBLY
10
14.3054
20
7.4138
30
0.0000
0
VERTEX
8
ASSEMBLY
10
13.7849
20
7.4138
30
0.0000
0
SEQEND
8
ASSEMBLY
0
TEXT
8
ASSEMBLY
10
14.0452
20
7.7152
30
0.0000
40
0.1085
1
P2
72
1
11
14.0452
21
7.7152
31
0.0000
0
POLYLINE
8
ASSEMBLY
66
1
10
0.0000
20
0.0000
30
0.0000
70
1
0
VERTEX
8
ASSEMBLY
10
13.7849
20
8.0577
30
0.0000
0
VERTEX
8
ASSEMBLY
10
13.1273
20
7.9070
30
0.0000
0
VERTEX
8
ASSEMBLY
10
13.1273
20
7.6330
30
0.0000
0
VERTEX
8
ASSEMBLY
10
13.7849
20
7.4823
30
0.0000
0
SEQEND
8
ASSEMBLY
0
LINE
8
ASSEMBLY
10
13.6753
20
8.0344
30
0.0000
11
13.6753
21
7.5056
31
0.0000
0
POLYLINE
8
ASSEMBLY
66
1
10
0.0000
20
0.0000
30
0.0000
70
1
0
VERTEX
8
ASSEMBLY
10
12.6067
20
7.9481
30
0.0000
0
VERTEX
8
ASSEMBLY
10
13.4287
20
7.9481
30
0.0000
0
VERTEX
8
ASSEMBLY
10
13.4287
20
7.5919
30
0.0000
0
VERTEX
8
ASSEMBLY
10
12.6067
20
7.5919
30
0.0000
0
SEQEND
8
ASSEMBLY
0
POLYLINE
8
ASSEMBLY
66
1
10
0.0000
20
0.0000
30
0.0000
70
1
0
VERTEX
8
ASSEMBLY
10
11.4560
20
7.9070
30
0.0000
0
VERTEX
8
ASSEMBLY
10
12.2505
20
7.9070
30
0.0000
0
VERTEX
8
ASSEMBLY
10
12.2505
20
7.6330
30
0.0000
0
VERTEX
8
ASSEMBLY
10
11.4560
20
7.6330
30
0.0000
0
SEQEND
8
ASSEMBLY
0
TEXT
8
ASSEMBLY
10
11.8533
20
7.7358
30
0.0000
40
0.0690
1
W101-P2
72
1
11
11.8533
21
7.7358
31
0.0000
0
CIRCLE
8
ASSEMBLY
10
14.0452
20
8.6194
30
0.0000
40
0.1233
0
TEXT
8
ASSEMBLY
10
14.0452
20
8.5783
30
0.0000
40
0.0789
1
2
72
1
11
14.0452
21
8.5783
31
0.0000
0
LINE
8
ASSEMBLY
10
14.0452
20
8.4961
30
0.0000
11
14.0452
21
8.1262
31
0.0000
0
CIRCLE
8
ASSEMBLY
10
14.0452
20
8.1262
30
0.0000
40
0.0192
0
CIRCLE
8
ASSEMBLY
10
13.5931
20
8.6194
30
0.0000
40
0.1233
0
TEXT
8
ASSEMBLY
10
13.5931
20
8.5783
30
0.0000
40
0.0789
1
5
72
1
11
13.5931
21
8.5783
31
0.0000
0
LINE
8
ASSEMBLY
10
13.5931
20
8.4961
30
0.0000
11
13.5931
21
8.0166
31
0.0000
0
CIRCLE
8
ASSEMBLY
10
13.5931
20
8.0166
30
0.0000
40
0.0192
0
CIRCLE
8
ASSEMBLY
10
12.9355
20
8.6194
30
0.0000
40
0.1233
0
TEXT
8
ASSEMBLY
10
12.9355
20
8.5783
30
0.0000
40
0.0789
1
6
72
1
11
12.9355
21
8.5783
31
0.0000
0
LINE
8
ASSEMBLY
10
12.9355
20
8.4961
30
0.0000
11
12.9355
21
7.9481
31
0.0000
0
CIRCLE
8
ASSEMBLY
10
12.9355
20
7.9481
30
0.0000
40
0.0192
0
CIRCLE
8
ASSEMBLY
10
11.8533
20
8.6194
30
0.0000
40
0.1233
0
TEXT
8
ASSEMBLY
10
11.8533
20
8.5783
30
0.0000
40
0.0789
1
7
72
1
11
11.8533
21
8.5783
31
0.0000
0
LINE
8
ASSEMBLY
10
11.8533
20
8.4961
30
0.0000
11
11.8533
21
7.9070
31
0.0000
0
CIRCLE
8
ASSEMBLY
10
11.8533
20
7.9070
30
0.0000
40
0.0192
0
TEXT
8
ASSEMBLY
10
14.6616
20
7.7289
30
0.0000
40
0.0789
1
TO POWER DISTRIBUTION J7
0
POLYLINE
8
ASSEMBLY
66
1
10
0.0000
20
0.0000
30
0.0000
70
1
0
VERTEX
8
ASSEMBLY
10
10.5861
20
7.9070
30
0.0000
0
VERTEX
8
ASSEMBLY
10
10.8053
20
7.9070
30
0.0000
0
VERTEX
8
ASSEMBLY
10
10.8053
20
7.6330
30
0.0000
0
VERTEX
8
ASSEMBLY
10
10.5861
20
7.6330
30
0.0000
0
SEQEND
8
ASSEMBLY
0
CIRCLE
8
ASSEMBLY
10
10.6957
20
7.2769
30
0.0000
40
0.1233
0
TEXT
8
ASSEMBLY
10
10.6957
20
7.2358
30
0.0000
40
0.0789
1
16
72
1
11
10.6957
21
7.2358
31
0.0000
0
LINE
8
ASSEMBLY
10
10.6957
20
7.4001
30
0.0000
11
10.6957
21
7.6330
31
0.0000
0
CIRCLE
8
ASSEMBLY
10
10.6957
20
7.6330
30
0.0000
40
0.0192
0
TEXT
8
ASSEMBLY
10
10.8738
20
7.2358
30
0.0000
40
0.0690
1
SP1 @ 6 IN FROM P2
0
LINE
8
ASSEMBLY
10
2.2774
20
7.3043
30
0.0000
11
2.2774
21
6.7015
31
0.0000
0
LINE
8
ASSEMBLY
10
14.5520
20
7.3043
30
0.0000
11
14.5520
21
6.7015
31
0.0000
0
LINE
8
ASSEMBLY
10
2.2774
20
6.7837
30
0.0000
11
14.5520
21
6.7837
31
0.0000
0
SOLID
8
ASSEMBLY
10
2.2774
20
6.7837
30
0.0000
11
2.3547
21
6.8118
31
0.0000
13
2.3547
23
6.7556
33
0.0000
12
2.3547
22
6.7556
32
0.0000
0
SOLID
8
ASSEMBLY
10
14.5520
20
6.7837
30
0.0000
11
14.4748
21
6.7556
31
0.0000
13
14.4748
23
6.8118
33
0.0000
12
14.4748
22
6.8118
32
0.0000
0
TEXT
8
ASSEMBLY
10
8.4147
20
6.7357
30
0.0000
40
0.0888
1
48 IN
72
1
11
8.4147
21
6.7357
31
0.0000
0
POLYLINE
8
TITLE_BLOCK
66
1
10
0.0000
20
0.0000
30
0.0000
70
1
0
VERTEX
8
TITLE_BLOCK
10
10.3750
20
2.3472
30
0.0000
0
VERTEX
8
TITLE_BLOCK
10
16.3750
20
2.3472
30
0.0000
0
VERTEX
8
TITLE_BLOCK
10
16.3750
20
0.6250
30
0.0000
0
VERTEX
8
TITLE_BLOCK
10
10.3750
20
0.6250
30
0.0000
0
SEQEND
8
TITLE_BLOCK
0
POLYLINE
8
TITLE_BLOCK
66
1
10
0.0000
20
0.0000
30
0.0000
70
1
0
VERTEX
8
TITLE_BLOCK
10
10.3750
20
2.3472
30
0.0000
0
VERTEX
8
TITLE_BLOCK
10
16.3750
20
2.3472
30
0.0000
0
VERTEX
8
TITLE_BLOCK
10
16.3750
20
2.0417
30
0.0000
0
VERTEX
8
TITLE_BLOCK
10
10.3750
20
2.0417
30
0.0000
0
SEQEND
8
TITLE_BLOCK
0
TEXT
8
TITLE_BLOCK
10
10.4167
20
2.2500
30
0.0000
40
0.0550
1
COMPANY
0
TEXT
8
TITLE_BLOCK
10
13.3750
20
2.1389
30
0.0000
40
0.1000
1
ACME AEROSPACE
72
1
11
13.3750
21
2.1389
31
0.0000
0
POLYLINE
8
TITLE_BLOCK
66
1
10
0.0000
20
0.0000
30
0.0000
70
1
0
VERTEX
8
TITLE_BLOCK
10
10.3750
20
2.0417
30
0.0000
0
VERTEX
8
TITLE_BLOCK
10
16.3750
20
2.0417
30
0.0000
0
VERTEX
8
TITLE_BLOCK
10
16.3750
20
1.5694
30
0.0000
0
VERTEX
8
TITLE_BLOCK
10
10.3750
20
1.5694
30
0.0000
0
SEQEND
8
TITLE_BLOCK
0
TEXT
8
TITLE_BLOCK
10
10.4167
20
1.9444
30
0.0000
40
0.0550
1
TITLE
0
TEXT
8
TITLE_BLOCK
10
13.3750
20
1.6667
30
0.0000
40
0.1200
1
CABLE ASSY, FCC TO PDU
72
1
11
13.3750
21
1.6667
31
0.0000
0
POLYLINE
8
TITLE_BLOCK
66
1
10
0.0000
20
0.0000
30
0.0000
70
1
0
VERTEX
8
TITLE_BLOCK
10
10.3750
20
1.5694
30
0.0000
0
VERTEX
8
TITLE_BLOCK
10
11.2083
20
1.5694
30
0.0000
0
VERTEX
8
TITLE_BLOCK
10
11.2083
20
1.2639
30
0.0000
0
VERTEX
8
TITLE_BLOCK
10
10.3750
20
1.2639
30
0.0000
0
SEQEND
8
TITLE_BLOCK
0
TEXT
8
TITLE_BLOCK
10
10.4167
20
1.4722
30
0.0000
40
0.0550
1
SIZE
0
TEXT
8
TITLE_BLOCK
10
10.7917
20
1.3611
30
0.0000
40
0.0900
1
B
72
1
11
10.7917
21
1.3611
31
0.0000
0
POLYLINE
8
TITLE_BLOCK
66
1
10
0.0000
20
0.0000
30
0.0000
70
1
0
VERTEX
8
TITLE_BLOCK
10
11.2083
20
1.5694
30
0.0000
0
VERTEX
8
TITLE_BLOCK
10
15.3750
20
1.5694
30
0.0000
0
VERTEX
8
TITLE_BLOCK
10
15.3750
20
1.2639
30
0.0000
0
VERTEX
8
TITLE_BLOCK
10
11.2083
20
1.2639
30
0.0000
0
SEQEND
8
TITLE_BLOCK
0
TEXT
8
TITLE_BLOCK
10
11.2500
20
1.4722
30
0.0000
40
0.0550
1
DWG NO.
0
TEXT
8
TITLE_BLOCK
10
11.2778
20
1.3472
30
0.0000
40
0.1000
1
W101-001
0
POLYLINE
8
TITLE_BLOCK
66
1
10
0.0000
20
0.0000
30
0.0000
70
1
0
VERTEX
8
TITLE_BLOCK
10
15.3750
20
1.5694
30
0.0000
0
VERTEX
8
TITLE_BLOCK
10
16.3750
20
1.5694
30
0.0000
0
VERTEX
8
TITLE_BLOCK
10
16.3750
20
1.2639
30
0.0000
0
VERTEX
8
TITLE_BLOCK
10
15.3750
20
1.2639
30
0.0000
0
SEQEND
8
TITLE_BLOCK
0
TEXT
8
TITLE_BLOCK
10
15.4167
20
1.4722
30
0.0000
40
0.0550
1
REV
0
TEXT
8
TITLE_BLOCK
10
15.8750
20
1.3611
30
0.0000
40
0.1000
1
-
72
1
11
15.8750
21
1.3611
31
0.0000
0
POLYLINE
8
TITLE_BLOCK
66
1
10
0.0000
20
0.0000
30
0.0000
70
1
0
VERTEX
8
TITLE_BLOCK
10
10.3750
20
1.2639
30
0.0000
0
VERTEX
8
TITLE_BLOCK
10
12.3750
20
1.2639
30
0.0000
0
VERTEX
8
TITLE_BLOCK
10
12.3750
20
0.9583
30
0.0000
0
VERTEX
8
TITLE_BLOCK
10
10.3750
20
0.9583
30
0.0000
0
SEQEND
8
TITLE_BLOCK
0
TEXT
8
TITLE_BLOCK
10
10.4167
20
1.1667
30
0.0000
40
0.0550
1
DRAWN
0
POLYLINE
8
TITLE_BLOCK
66
1
10
0.0000
20
0.0000
30
0.0000
70
1
0
VERTEX
8
TITLE_BLOCK
10
12.3750
20
1.2639
30
0.0000
0
VERTEX
8
TITLE_BLOCK
10
14.3750
20
1.2639
30
0.0000
0
VERTEX
8
TITLE_BLOCK
10
14.3750
20
0.9583
30
0.0000
0
VERTEX
8
TITLE_BLOCK
10
12.3750
20
0.9583
30
0.0000
0
SEQEND
8
TITLE_BLOCK
0
TEXT
8
TITLE_BLOCK
10
12.4167
20
1.1667
30
0.0000
40
0.0550
1
CHECKED
0
POLYLINE
8
TITLE_BLOCK
66
1
10
0.0000
20
0.0000
30
0.0000
70
1
0
VERTEX
8
TITLE_BLOCK
10
14.3750
20
1.2639
30
0.0000
0
VERTEX
8
TITLE_BLOCK
10
16.3750
20
1.2639
30
0.0000
0
VERTEX
8
TITLE_BLOCK
10
16.3750
20
0.9583
30
0.0000
0
VERTEX
8
TITLE_BLOCK
10
14.3750
20
0.9583
30
0.0000
0
SEQEND
8
TITLE_BLOCK
0
TEXT
8
TITLE_BLOCK
10
14.4167
20
1.1667
30
0.0000
40
0.0550
1
DATE
0
POLYLINE
8
TITLE_BLOCK
66
1
10
0.0000
20
0.0000
30
0.0000
70
1
0
VERTEX
8
TITLE_BLOCK
10
10.3750
20
0.9583
30
0.0000
0
VERTEX
8
TITLE_BLOCK
10
12.3750
20
0.9583
30
0.0000
0
VERTEX
8
TITLE_BLOCK
10
12.3750
20
0.6250
30
0.0000
0
VERTEX
8
TITLE_BLOCK
10
10.3750
20
0.6250
30
0.0000
0
SEQEND
8
TITLE_BLOCK
0
TEXT
8
TITLE_BLOCK
10
10.4167
20
0.8611
30
0.0000
40
0.0550
1
SCALE
0
TEXT
8
TITLE_BLOCK
10
10.4444
20
0.7083
30
0.0000
40
0.0900
1
NONE
0
POLYLINE
8
TITLE_BLOCK
66
1
10
0.0000
20
0.0000
30
0.0000
70
1
0
VERTEX
8
TITLE_BLOCK
10
12.3750
20
0.9583
30
0.0000
0
VERTEX
8
TITLE_BLOCK
10
14.3750
20
0.9583
30
0.0000
0
VERTEX
8
TITLE_BLOCK
10
14.3750
20
0.6250
30
0.0000
0
VERTEX
8
TITLE_BLOCK
10
12.3750
20
0.6250
30
0.0000
0
SEQEND
8
TITLE_BLOCK
0
TEXT
8
TITLE_BLOCK
10
12.4167
20
0.8611
30
0.0000
40
0.0550
1
UNITS
0
TEXT
8
TITLE_BLOCK
10
12.4444
20
0.7083
30
0.0000
40
0.0900
1
IN
0
POLYLINE
8
TITLE_BLOCK
66
1
10
0.0000
20
0.0000
30
0.0000
70
1
0
VERTEX
8
TITLE_BLOCK
10
14.3750
20
0.9583
30
0.0000
0
VERTEX
8
TITLE_BLOCK
10
16.3750
20
0.9583
30
0.0000
0
VERTEX
8
TITLE_BLOCK
10
16.3750
20
0.6250
30
0.0000
0
VERTEX
8
TITLE_BLOCK
10
14.3750
20
0.6250
30
0.0000
0
SEQEND
8
TITLE_BLOCK
0
TEXT
8
TITLE_BLOCK
10
14.4167
20
0.8611
30
0.0000
40
0.0550
1
SHEET
0
TEXT
8
TITLE_BLOCK
10
14.4444
20
0.7083
30
0.0000
40
0.0900
1
1 OF 3
0
ENDSEC
0
EOF
