0
SECTION
2
HEADER
9
$ACADVER
1
AC1009
9
$INSUNITS
70
1
9
$EXTMIN
10
0.0000
20
0.0000
30
0.0000
9
$EXTMAX
10
34.0000
20
22.0000
30
0.0000
9
$LIMMIN
10
0.0000
20
0.0000
9
$LIMMAX
10
34.0000
20
22.0000
0
ENDSEC
0
SECTION
2
TABLES
0
TABLE
2
LTYPE
70
2
0
LTYPE
2
CONTINUOUS
70
0
3
Solid line
72
65
73
0
40
0.0000
0
LTYPE
2
DASHED
70
0
3
__ __ __
72
65
73
2
40
0.1500
49
0.1000
49
-0.0500
0
ENDTAB
0
TABLE
2
LAYER
70
13
0
LAYER
2
0
70
0
62
7
6
CONTINUOUS
0
LAYER
2
BORDER
70
0
62
7
6
CONTINUOUS
0
LAYER
2
TITLE_BLOCK
70
0
62
7
6
CONTINUOUS
0
LAYER
2
ASSEMBLY
70
0
62
7
6
CONTINUOUS
0
LAYER
2
CABLE
70
0
62
7
6
CONTINUOUS
0
LAYER
2
DIMENSIONS
70
0
62
3
6
CONTINUOUS
0
LAYER
2
BALLOONS
70
0
62
5
6
CONTINUOUS
0
LAYER
2
WIRING
70
0
62
7
6
CONTINUOUS
0
LAYER
2
SHIELDS
70
0
62
4
6
CONTINUOUS
0
LAYER
2
FACE_VIEWS
70
0
62
7
6
CONTINUOUS
0
LAYER
2
TABLES
70
0
62
7
6
CONTINUOUS
0
LAYER
2
NOTES
70
0
62
7
6
CONTINUOUS
0
LAYER
2
TEXT
70
0
62
7
6
CONTINUOUS
0
ENDTAB
0
ENDSEC
0
SECTION
2
ENTITIES
0
POLYLINE
8
BORDER
66
1
10
0.0000
20
0.0000
30
0.0000
70
1
0
VERTEX
8
BORDER
10
0.3750
20
21.6250
30
0.0000
0
VERTEX
8
BORDER
10
33.6250
20
21.6250
30
0.0000
0
VERTEX
8
BORDER
10
33.6250
20
0.3750
30
0.0000
0
VERTEX
8
BORDER
10
0.3750
20
0.3750
30
0.0000
0
SEQEND
8
BORDER
0
POLYLINE
8
BORDER
66
1
10
0.0000
20
0.0000
30
0.0000
70
1
0
VERTEX
8
BORDER
10
0.7500
20
21.2500
30
0.0000
0
VERTEX
8
BORDER
10
33.2500
20
21.2500
30
0.0000
0
VERTEX
8
BORDER
10
33.2500
20
0.7500
30
0.0000
0
VERTEX
8
BORDER
10
0.7500
20
0.7500
30
0.0000
0
SEQEND
8
BORDER
0
TEXT
8
BORDER
10
2.7812
20
21.3148
30
0.0000
40
0.2448
1
8
72
1
11
2.7812
21
21.3148
31
0.0000
0
TEXT
8
BORDER
10
2.7812
20
0.4398
30
0.0000
40
0.2448
1
8
72
1
11
2.7812
21
0.4398
31
0.0000
0
TEXT
8
BORDER
10
6.8438
20
21.3148
30
0.0000
40
0.2448
1
7
72
1
11
6.8438
21
21.3148
31
0.0000
0
TEXT
8
BORDER
10
6.8438
20
0.4398
30
0.0000
40
0.2448
1
7
72
1
11
6.8438
21
0.4398
31
0.0000
0
LINE
8
BORDER
10
4.8125
20
21.6250
30
0.0000
11
4.8125
21
21.2500
31
0.0000
0
LINE
8
BORDER
10
4.8125
20
0.7500
30
0.0000
11
4.8125
21
0.3750
31
0.0000
0
TEXT
8
BORDER
10
10.9062
20
21.3148
30
0.0000
40
0.2448
1
6
72
1
11
10.9062
21
21.3148
31
0.0000
0
TEXT
8
BORDER
10
10.9062
20
0.4398
30
0.0000
40
0.2448
1
6
72
1
11
10.9062
21
0.4398
31
0.0000
0
LINE
8
BORDER
10
8.8750
20
21.6250
30
0.0000
11
8.8750
21
21.2500
31
0.0000
0
LINE
8
BORDER
10
8.8750
20
0.7500
30
0.0000
11
8.8750
21
0.3750
31
0.0000
0
TEXT
8
BORDER
10
14.9688
20
21.3148
30
0.0000
40
0.2448
1
5
72
1
11
14.9688
21
21.3148
31
0.0000
0
TEXT
8
BORDER
10
14.9688
20
0.4398
30
0.0000
40
0.2448
1
5
72
1
11
14.9688
21
0.4398
31
0.0000
0
LINE
8
BORDER
10
12.9375
20
21.6250
30
0.0000
11
12.9375
21
21.2500
31
0.0000
0
LINE
8
BORDER
10
12.9375
20
0.7500
30
0.0000
11
12.9375
21
0.3750
31
0.0000
0
TEXT
8
BORDER
10
19.0312
20
21.3148
30
0.0000
40
0.2448
1
4
72
1
11
19.0312
21
21.3148
31
0.0000
0
TEXT
8
BORDER
10
19.0312
20
0.4398
30
0.0000
40
0.2448
1
4
72
1
11
19.0312
21
0.4398
31
0.0000
0
LINE
8
BORDER
10
17.0000
20
21.6250
30
0.0000
11
17.0000
21
21.2500
31
0.0000
0
LINE
8
BORDER
10
17.0000
20
0.7500
30
0.0000
11
17.0000
21
0.3750
31
0.0000
0
TEXT
8
BORDER
10
23.0938
20
21.3148
30
0.0000
40
0.2448
1
3
72
1
11
23.0938
21
21.3148
31
0.0000
0
TEXT
8
BORDER
10
23.0938
20
0.4398
30
0.0000
40
0.2448
1
3
72
1
11
23.0938
21
0.4398
31
0.0000
0
LINE
8
BORDER
10
21.0625
20
21.6250
30
0.0000
11
21.0625
21
21.2500
31
0.0000
0
LINE
8
BORDER
10
21.0625
20
0.7500
30
0.0000
11
21.0625
21
0.3750
31
0.0000
0
TEXT
8
BORDER
10
27.1562
20
21.3148
30
0.0000
40
0.2448
1
2
72
1
11
27.1562
21
21.3148
31
0.0000
0
TEXT
8
BORDER
10
27.1562
20
0.4398
30
0.0000
40
0.2448
1
2
72
1
11
27.1562
21
0.4398
31
0.0000
0
LINE
8
BORDER
10
25.1250
20
21.6250
30
0.0000
11
25.1250
21
21.2500
31
0.0000
0
LINE
8
BORDER
10
25.1250
20
0.7500
30
0.0000
11
25.1250
21
0.3750
31
0.0000
0
TEXT
8
BORDER
10
31.2188
20
21.3148
30
0.0000
40
0.2448
1
1
72
1
11
31.2188
21
21.3148
31
0.0000
0
TEXT
8
BORDER
10
31.2188
20
0.4398
30
0.0000
40
0.2448
1
1
72
1
11
31.2188
21
0.4398
31
0.0000
0
LINE
8
BORDER
10
29.1875
20
21.6250
30
0.0000
11
29.1875
21
21.2500
31
0.0000
0
LINE
8
BORDER
10
29.1875
20
0.7500
30
0.0000
11
29.1875
21
0.3750
31
0.0000
0
TEXT
8
BORDER
10
0.5625
20
18.5648
30
0.0000
40
0.2448
1
D
72
1
11
0.5625
21
18.5648
31
0.0000
0
TEXT
8
BORDER
10
33.4375
20
18.5648
30
0.0000
40
0.2448
1
D
72
1
11
33.4375
21
18.5648
31
0.0000
0
TEXT
8
BORDER
10
0.5625
20
13.4398
30
0.0000
40
0.2448
1
C
72
1
11
0.5625
21
13.4398
31
0.0000
0
TEXT
8
BORDER
10
33.4375
20
13.4398
30
0.0000
40
0.2448
1
C
72
1
11
33.4375
21
13.4398
31
0.0000
0
LINE
8
BORDER
10
0.3750
20
16.1250
30
0.0000
11
0.7500
21
16.1250
31
0.0000
0
LINE
8
BORDER
10
33.2500
20
16.1250
30
0.0000
11
33.6250
21
16.1250
31
0.0000
0
TEXT
8
BORDER
10
0.5625
20
8.3148
30
0.0000
40
0.2448
1
B
72
1
11
0.5625
21
8.3148
31
0.0000
0
TEXT
8
BORDER
10
33.4375
20
8.3148
30
0.0000
40
0.2448
1
B
72
1
11
33.4375
21
8.3148
31
0.0000
0
LINE
8
BORDER
10
0.3750
20
11.0000
30
0.0000
11
0.7500
21
11.0000
31
0.0000
0
LINE
8
BORDER
10
33.2500
20
11.0000
30
0.0000
11
33.6250
21
11.0000
31
0.0000
0
TEXT
8
BORDER
10
0.5625
20
3.1898
30
0.0000
40
0.2448
1
A
72
1
11
0.5625
21
3.1898
31
0.0000
0
TEXT
8
BORDER
10
33.4375
20
3.1898
30
0.0000
40
0.2448
1
A
72
1
11
33.4375
21
3.1898
31
0.0000
0
LINE
8
BORDER
10
0.3750
20
5.8750
30
0.0000
11
0.7500
21
5.8750
31
0.0000
0
LINE
8
BORDER
10
33.2500
20
5.8750
30
0.0000
11
33.6250
21
5.8750
31
0.0000
0
POLYLINE
8
BORDER
66
1
10
0.0000
20
0.0000
30
0.0000
70
1
0
VERTEX
8
BORDER
10
0.7500
20
21.2500
30
0.0000
0
VERTEX
8
BORDER
10
3.5000
20
21.2500
30
0.0000
0
VERTEX
8
BORDER
10
3.5000
20
20.7500
30
0.0000
0
VERTEX
8
BORDER
10
0.7500
20
20.7500
30
0.0000
0
SEQEND
8
BORDER
0
TEXT
8
BORDER
10
2.1250
20
21.0614
30
0.0000
40
0.1224
1
W101-001  REV A
50
180.0000
72
1
11
2.1250
21
21.0614
31
0.0000
0
TEXT
8
0
10
0.9167
20
20.4129
30
0.0000
40
0.1224
1
WIRE LIST AND TABLES
0
TEXT
8
TABLES
10
0.9167
20
19.9939
30
0.0000
40
0.1224
1
WIRE LIST
0
POLYLINE
8
TABLES
66
1
10
0.0000
20
0.0000
30
0.0000
70
1
0
VERTEX
8
TABLES
10
0.9167
20
19.8843
30
0.0000
0
VERTEX
8
TABLES
10
11.9267
20
19.8843
30
0.0000
0
VERTEX
8
TABLES
10
11.9267
20
19.5434
30
0.0000
0
VERTEX
8
TABLES
10
0.9167
20
19.5434
30
0.0000
0
SEQEND
8
TABLES
0
TEXT
8
TABLES
10
1.2366
20
19.6408
30
0.0000
40
0.1224
1
WIRE
72
1
11
1.2366
21
19.6408
31
0.0000
0
TEXT
8
TABLES
10
1.9050
20
19.6408
30
0.0000
40
0.1224
1
FROM
72
1
11
1.9050
21
19.6408
31
0.0000
0
TEXT
8
TABLES
10
2.4968
20
19.6408
30
0.0000
40
0.1224
1
PIN
72
1
11
2.4968
21
19.6408
31
0.0000
0
TEXT
8
TABLES
10
2.9989
20
19.6408
30
0.0000
40
0.1224
1
TO
72
1
11
2.9989
21
19.6408
31
0.0000
0
TEXT
8
TABLES
10
3.5009
20
19.6408
30
0.0000
40
0.1224
1
PIN
72
1
11
3.5009
21
19.6408
31
0.0000
0
TEXT
8
TABLES
10
4.5475
20
19.6408
30
0.0000
40
0.1224
1
SIGNAL
72
1
11
4.5475
21
19.6408
31
0.0000
0
TEXT
8
TABLES
10
5.6564
20
19.6408
30
0.0000
40
0.1224
1
AWG
72
1
11
5.6564
21
19.6408
31
0.0000
0
TEXT
8
TABLES
10
6.3673
20
19.6408
30
0.0000
40
0.1224
1
COLOR
72
1
11
6.3673
21
19.6408
31
0.0000
0
TEXT
8
TABLES
10
7.6705
20
19.6408
30
0.0000
40
0.1224
1
WIRE P/N
72
1
11
7.6705
21
19.6408
31
0.0000
0
TEXT
8
TABLES
10
8.9784
20
19.6408
30
0.0000
40
0.1224
1
GROUP
72
1
11
8.9784
21
19.6408
31
0.0000
0
TEXT
8
TABLES
10
9.9729
20
19.6408
30
0.0000
40
0.1224
1
LENGTH (IN)
72
1
11
9.9729
21
19.6408
31
0.0000
0
TEXT
8
TABLES
10
11.2420
20
19.6408
30
0.0000
40
0.1224
1
NOTES
72
1
11
11.2420
21
19.6408
31
0.0000
0
TEXT
8
TABLES
10
0.9897
20
19.3242
30
0.0000
40
0.1224
1
W1
0
TEXT
8
TABLES
10
1.6297
20
19.3242
30
0.0000
40
0.1224
1
P1
0
TEXT
8
TABLES
10
2.4968
20
19.3242
30
0.0000
40
0.1224
1
A
72
1
11
2.4968
21
19.3242
31
0.0000
0
TEXT
8
TABLES
10
2.8134
20
19.3242
30
0.0000
40
0.1224
1
P2
0
TEXT
8
TABLES
10
3.5009
20
19.3242
30
0.0000
40
0.1224
1
A
72
1
11
3.5009
21
19.3242
31
0.0000
0
TEXT
8
TABLES
10
3.8175
20
19.3242
30
0.0000
40
0.1224
1
+28V PWR
0
TEXT
8
TABLES
10
5.6564
20
19.3242
30
0.0000
40
0.1224
1
20
72
1
11
5.6564
21
19.3242
31
0.0000
0
TEXT
8
TABLES
10
6.0352
20
19.3242
30
0.0000
40
0.1224
1
RED
0
TEXT
8
TABLES
10
6.8456
20
19.3242
30
0.0000
40
0.1224
1
M22759/16-20-2
0
TEXT
8
TABLES
10
9.9729
20
19.3242
30
0.0000
40
0.1224
1
48
72
1
11
9.9729
21
19.3242
31
0.0000
0
LINE
8
TABLES
10
0.9167
20
19.2390
30
0.0000
11
11.9267
21
19.2390
31
0.0000
0
TEXT
8
TABLES
10
0.9897
20
19.0198
30
0.0000
40
0.1224
1
W2
0
TEXT
8
TABLES
10
1.6297
20
19.0198
30
0.0000
40
0.1224
1
P1
0
TEXT
8
TABLES
10
2.4968
20
19.0198
30
0.0000
40
0.1224
1
B
72
1
11
2.4968
21
19.0198
31
0.0000
0
TEXT
8
TABLES
10
2.8134
20
19.0198
30
0.0000
40
0.1224
1
P2
0
TEXT
8
TABLES
10
3.5009
20
19.0198
30
0.0000
40
0.1224
1
B
72
1
11
3.5009
21
19.0198
31
0.0000
0
TEXT
8
TABLES
10
3.8175
20
19.0198
30
0.0000
40
0.1224
1
28V RTN
0
TEXT
8
TABLES
10
5.6564
20
19.0198
30
0.0000
40
0.1224
1
20
72
1
11
5.6564
21
19.0198
31
0.0000
0
TEXT
8
TABLES
10
6.0352
20
19.0198
30
0.0000
40
0.1224
1
BLK
0
TEXT
8
TABLES
10
6.8456
20
19.0198
30
0.0000
40
0.1224
1
M22759/16-20-0
0
TEXT
8
TABLES
10
9.9729
20
19.0198
30
0.0000
40
0.1224
1
48
72
1
11
9.9729
21
19.0198
31
0.0000
0
LINE
8
TABLES
10
0.9167
20
18.9345
30
0.0000
11
11.9267
21
18.9345
31
0.0000
0
TEXT
8
TABLES
10
0.9897
20
18.7154
30
0.0000
40
0.1224
1
W3
0
TEXT
8
TABLES
10
1.6297
20
18.7154
30
0.0000
40
0.1224
1
P1
0
TEXT
8
TABLES
10
2.4968
20
18.7154
30
0.0000
40
0.1224
1
C
72
1
11
2.4968
21
18.7154
31
0.0000
0
TEXT
8
TABLES
10
2.8134
20
18.7154
30
0.0000
40
0.1224
1
P2
0
TEXT
8
TABLES
10
3.5009
20
18.7154
30
0.0000
40
0.1224
1
C
72
1
11
3.5009
21
18.7154
31
0.0000
0
TEXT
8
TABLES
10
3.8175
20
18.7154
30
0.0000
40
0.1224
1
RS422 TX+
0
TEXT
8
TABLES
10
5.6564
20
18.7154
30
0.0000
40
0.1224
1
22
72
1
11
5.6564
21
18.7154
31
0.0000
0
TEXT
8
TABLES
10
6.0352
20
18.7154
30
0.0000
40
0.1224
1
WHT
0
TEXT
8
TABLES
10
6.8456
20
18.7154
30
0.0000
40
0.1224
1
(M27500-22TG2T14)
0
TEXT
8
TABLES
10
8.6415
20
18.7154
30
0.0000
40
0.1224
1
TSP1
0
TEXT
8
TABLES
10
9.9729
20
18.7154
30
0.0000
40
0.1224
1
48
72
1
11
9.9729
21
18.7154
31
0.0000
0
LINE
8
TABLES
10
0.9167
20
18.6301
30
0.0000
11
11.9267
21
18.6301
31
0.0000
0
TEXT
8
TABLES
10
0.9897
20
18.4109
30
0.0000
40
0.1224
1
W4
0
TEXT
8
TABLES
10
1.6297
20
18.4109
30
0.0000
40
0.1224
1
P1
0
TEXT
8
TABLES
10
2.4968
20
18.4109
30
0.0000
40
0.1224
1
D
72
1
11
2.4968
21
18.4109
31
0.0000
0
TEXT
8
TABLES
10
2.8134
20
18.4109
30
0.0000
40
0.1224
1
P2
0
TEXT
8
TABLES
10
3.5009
20
18.4109
30
0.0000
40
0.1224
1
D
72
1
11
3.5009
21
18.4109
31
0.0000
0
TEXT
8
TABLES
10
3.8175
20
18.4109
30
0.0000
40
0.1224
1
RS422 TX-
0
TEXT
8
TABLES
10
5.6564
20
18.4109
30
0.0000
40
0.1224
1
22
72
1
11
5.6564
21
18.4109
31
0.0000
0
TEXT
8
TABLES
10
6.0352
20
18.4109
30
0.0000
40
0.1224
1
BLU
0
TEXT
8
TABLES
10
6.8456
20
18.4109
30
0.0000
40
0.1224
1
(M27500-22TG2T14)
0
TEXT
8
TABLES
10
8.6415
20
18.4109
30
0.0000
40
0.1224
1
TSP1
0
TEXT
8
TABLES
10
9.9729
20
18.4109
30
0.0000
40
0.1224
1
48
72
1
11
9.9729
21
18.4109
31
0.0000
0
LINE
8
TABLES
10
0.9167
20
18.3257
30
0.0000
11
11.9267
21
18.3257
31
0.0000
0
TEXT
8
TABLES
10
0.9897
20
18.1065
30
0.0000
40
0.1224
1
W5
0
TEXT
8
TABLES
10
1.6297
20
18.1065
30
0.0000
40
0.1224
1
P1
0
TEXT
8
TABLES
10
2.4968
20
18.1065
30
0.0000
40
0.1224
1
E
72
1
11
2.4968
21
18.1065
31
0.0000
0
TEXT
8
TABLES
10
2.8134
20
18.1065
30
0.0000
40
0.1224
1
P2
0
TEXT
8
TABLES
10
3.5009
20
18.1065
30
0.0000
40
0.1224
1
E
72
1
11
3.5009
21
18.1065
31
0.0000
0
TEXT
8
TABLES
10
3.8175
20
18.1065
30
0.0000
40
0.1224
1
RS422 RX+
0
TEXT
8
TABLES
10
5.6564
20
18.1065
30
0.0000
40
0.1224
1
22
72
1
11
5.6564
21
18.1065
31
0.0000
0
TEXT
8
TABLES
10
6.0352
20
18.1065
30
0.0000
40
0.1224
1
WHT
0
TEXT
8
TABLES
10
6.8456
20
18.1065
30
0.0000
40
0.1224
1
M22759/16-22-9
0
TEXT
8
TABLES
10
8.6415
20
18.1065
30
0.0000
40
0.1224
1
TP2
0
TEXT
8
TABLES
10
9.9729
20
18.1065
30
0.0000
40
0.1224
1
48
72
1
11
9.9729
21
18.1065
31
0.0000
0
LINE
8
TABLES
10
0.9167
20
18.0213
30
0.0000
11
11.9267
21
18.0213
31
0.0000
0
TEXT
8
TABLES
10
0.9897
20
17.8021
30
0.0000
40
0.1224
1
W6
0
TEXT
8
TABLES
10
1.6297
20
17.8021
30
0.0000
40
0.1224
1
P1
0
TEXT
8
TABLES
10
2.4968
20
17.8021
30
0.0000
40
0.1224
1
F
72
1
11
2.4968
21
17.8021
31
0.0000
0
TEXT
8
TABLES
10
2.8134
20
17.8021
30
0.0000
40
0.1224
1
P2
0
TEXT
8
TABLES
10
3.5009
20
17.8021
30
0.0000
40
0.1224
1
F
72
1
11
3.5009
21
17.8021
31
0.0000
0
TEXT
8
TABLES
10
3.8175
20
17.8021
30
0.0000
40
0.1224
1
RS422 RX-
0
TEXT
8
TABLES
10
5.6564
20
17.8021
30
0.0000
40
0.1224
1
22
72
1
11
5.6564
21
17.8021
31
0.0000
0
TEXT
8
TABLES
10
6.0352
20
17.8021
30
0.0000
40
0.1224
1
BLU
0
TEXT
8
TABLES
10
6.8456
20
17.8021
30
0.0000
40
0.1224
1
M22759/16-22-6
0
TEXT
8
TABLES
10
8.6415
20
17.8021
30
0.0000
40
0.1224
1
TP2
0
TEXT
8
TABLES
10
9.9729
20
17.8021
30
0.0000
40
0.1224
1
48
72
1
11
9.9729
21
17.8021
31
0.0000
0
LINE
8
TABLES
10
0.9167
20
17.7169
30
0.0000
11
11.9267
21
17.7169
31
0.0000
0
TEXT
8
TABLES
10
0.9897
20
17.4977
30
0.0000
40
0.1224
1
W7
0
TEXT
8
TABLES
10
1.6297
20
17.4977
30
0.0000
40
0.1224
1
P1
0
TEXT
8
TABLES
10
2.4968
20
17.4977
30
0.0000
40
0.1224
1
G
72
1
11
2.4968
21
17.4977
31
0.0000
0
TEXT
8
TABLES
10
2.8134
20
17.4977
30
0.0000
40
0.1224
1
P2
0
TEXT
8
TABLES
10
3.5009
20
17.4977
30
0.0000
40
0.1224
1
H
72
1
11
3.5009
21
17.4977
31
0.0000
0
TEXT
8
TABLES
10
3.8175
20
17.4977
30
0.0000
40
0.1224
1
DISCRETE IN 1
0
TEXT
8
TABLES
10
5.6564
20
17.4977
30
0.0000
40
0.1224
1
22
72
1
11
5.6564
21
17.4977
31
0.0000
0
TEXT
8
TABLES
10
6.0352
20
17.4977
30
0.0000
40
0.1224
1
WHT
0
TEXT
8
TABLES
10
6.8456
20
17.4977
30
0.0000
40
0.1224
1
M22759/16-22-9
0
TEXT
8
TABLES
10
9.9729
20
17.4977
30
0.0000
40
0.1224
1
48
72
1
11
9.9729
21
17.4977
31
0.0000
0
LINE
8
TABLES
10
0.9167
20
17.4125
30
0.0000
11
11.9267
21
17.4125
31
0.0000
0
TEXT
8
TABLES
10
0.9897
20
17.1933
30
0.0000
40
0.1224
1
W8
0
TEXT
8
TABLES
10
1.6297
20
17.1933
30
0.0000
40
0.1224
1
P1
0
TEXT
8
TABLES
10
2.4968
20
17.1933
30
0.0000
40
0.1224
1
H
72
1
11
2.4968
21
17.1933
31
0.0000
0
TEXT
8
TABLES
10
2.8134
20
17.1933
30
0.0000
40
0.1224
1
P2
0
TEXT
8
TABLES
10
3.5009
20
17.1933
30
0.0000
40
0.1224
1
G
72
1
11
3.5009
21
17.1933
31
0.0000
0
TEXT
8
TABLES
10
3.8175
20
17.1933
30
0.0000
40
0.1224
1
DISCRETE OUT 1
0
TEXT
8
TABLES
10
5.6564
20
17.1933
30
0.0000
40
0.1224
1
22
72
1
11
5.6564
21
17.1933
31
0.0000
0
TEXT
8
TABLES
10
6.0352
20
17.1933
30
0.0000
40
0.1224
1
WHT
0
TEXT
8
TABLES
10
6.8456
20
17.1933
30
0.0000
40
0.1224
1
M22759/16-22-9
0
TEXT
8
TABLES
10
9.9729
20
17.1933
30
0.0000
40
0.1224
1
48
72
1
11
9.9729
21
17.1933
31
0.0000
0
LINE
8
TABLES
10
0.9167
20
17.1080
30
0.0000
11
11.9267
21
17.1080
31
0.0000
0
TEXT
8
TABLES
10
0.9897
20
16.8889
30
0.0000
40
0.1224
1
W9
0
TEXT
8
TABLES
10
1.6297
20
16.8889
30
0.0000
40
0.1224
1
P1
0
TEXT
8
TABLES
10
2.4968
20
16.8889
30
0.0000
40
0.1224
1
J
72
1
11
2.4968
21
16.8889
31
0.0000
0
TEXT
8
TABLES
10
2.8134
20
16.8889
30
0.0000
40
0.1224
1
SP1
0
TEXT
8
TABLES
10
3.8175
20
16.8889
30
0.0000
40
0.1224
1
SIG GND
0
TEXT
8
TABLES
10
5.6564
20
16.8889
30
0.0000
40
0.1224
1
22
72
1
11
5.6564
21
16.8889
31
0.0000
0
TEXT
8
TABLES
10
6.0352
20
16.8889
30
0.0000
40
0.1224
1
BLK
0
TEXT
8
TABLES
10
6.8456
20
16.8889
30
0.0000
40
0.1224
1
M22759/16-22-0
0
TEXT
8
TABLES
10
9.9729
20
16.8889
30
0.0000
40
0.1224
1
42
72
1
11
9.9729
21
16.8889
31
0.0000
0
LINE
8
TABLES
10
0.9167
20
16.8036
30
0.0000
11
11.9267
21
16.8036
31
0.0000
0
TEXT
8
TABLES
10
0.9897
20
16.5844
30
0.0000
40
0.1224
1
W10
0
TEXT
8
TABLES
10
1.6297
20
16.5844
30
0.0000
40
0.1224
1
P1
0
TEXT
8
TABLES
10
2.4968
20
16.5844
30
0.0000
40
0.1224
1
K
72
1
11
2.4968
21
16.5844
31
0.0000
0
TEXT
8
TABLES
10
2.8134
20
16.5844
30
0.0000
40
0.1224
1
P1
0
TEXT
8
TABLES
10
3.5009
20
16.5844
30
0.0000
40
0.1224
1
L
72
1
11
3.5009
21
16.5844
31
0.0000
0
TEXT
8
TABLES
10
3.8175
20
16.5844
30
0.0000
40
0.1224
1
ADDR STRAP
0
TEXT
8
TABLES
10
5.6564
20
16.5844
30
0.0000
40
0.1224
1
22
72
1
11
5.6564
21
16.5844
31
0.0000
0
TEXT
8
TABLES
10
6.0352
20
16.5844
30
0.0000
40
0.1224
1
WHT
0
TEXT
8
TABLES
10
6.8456
20
16.5844
30
0.0000
40
0.1224
1
M22759/16-22-9
0
TEXT
8
TABLES
10
9.9729
20
16.5844
30
0.0000
40
0.1224
1
AR
72
1
11
9.9729
21
16.5844
31
0.0000
0
TEXT
8
TABLES
10
10.6304
20
16.5844
30
0.0000
40
0.1224
1
JUMPER IN P1
0
LINE
8
TABLES
10
0.9167
20
16.4992
30
0.0000
11
11.9267
21
16.4992
31
0.0000
0
TEXT
8
TABLES
10
0.9897
20
16.2800
30
0.0000
40
0.1224
1
W11
0
TEXT
8
TABLES
10
1.6297
20
16.2800
30
0.0000
40
0.1224
1
P1
0
TEXT
8
TABLES
10
2.4968
20
16.2800
30
0.0000
40
0.1224
1
M
72
1
11
2.4968
21
16.2800
31
0.0000
0
TEXT
8
TABLES
10
2.8134
20
16.2800
30
0.0000
40
0.1224
1
P2
0
TEXT
8
TABLES
10
3.5009
20
16.2800
30
0.0000
40
0.1224
1
M
72
1
11
3.5009
21
16.2800
31
0.0000
0
TEXT
8
TABLES
10
3.8175
20
16.2800
30
0.0000
40
0.1224
1
CHASSIS GND
0
TEXT
8
TABLES
10
5.6564
20
16.2800
30
0.0000
40
0.1224
1
20
72
1
11
5.6564
21
16.2800
31
0.0000
0
TEXT
8
TABLES
10
6.0352
20
16.2800
30
0.0000
40
0.1224
1
GRN
0
TEXT
8
TABLES
10
6.8456
20
16.2800
30
0.0000
40
0.1224
1
M22759/16-20-5
0
TEXT
8
TABLES
10
9.9729
20
16.2800
30
0.0000
40
0.1224
1
48
72
1
11
9.9729
21
16.2800
31
0.0000
0
LINE
8
TABLES
10
0.9167
20
16.1948
30
0.0000
11
11.9267
21
16.1948
31
0.0000
0
TEXT
8
TABLES
10
0.9897
20
15.9756
30
0.0000
40
0.1224
1
W12
0
TEXT
8
TABLES
10
1.6297
20
15.9756
30
0.0000
40
0.1224
1
SP1
0
TEXT
8
TABLES
10
2.8134
20
15.9756
30
0.0000
40
0.1224
1
P2
0
TEXT
8
TABLES
10
3.5009
20
15.9756
30
0.0000
40
0.1224
1
J
72
1
11
3.5009
21
15.9756
31
0.0000
0
TEXT
8
TABLES
10
3.8175
20
15.9756
30
0.0000
40
0.1224
1
SIG GND A
0
TEXT
8
TABLES
10
5.6564
20
15.9756
30
0.0000
40
0.1224
1
22
72
1
11
5.6564
21
15.9756
31
0.0000
0
TEXT
8
TABLES
10
6.0352
20
15.9756
30
0.0000
40
0.1224
1
BLK
0
TEXT
8
TABLES
10
6.8456
20
15.9756
30
0.0000
40
0.1224
1
M22759/16-22-0
0
TEXT
8
TABLES
10
9.9729
20
15.9756
30
0.0000
40
0.1224
1
6
72
1
11
9.9729
21
15.9756
31
0.0000
0
LINE
8
TABLES
10
0.9167
20
15.8904
30
0.0000
11
11.9267
21
15.8904
31
0.0000
0
TEXT
8
TABLES
10
0.9897
20
15.6712
30
0.0000
40
0.1224
1
W13
0
TEXT
8
TABLES
10
1.6297
20
15.6712
30
0.0000
40
0.1224
1
SP1
0
TEXT
8
TABLES
10
2.8134
20
15.6712
30
0.0000
40
0.1224
1
P2
0
TEXT
8
TABLES
10
3.5009
20
15.6712
30
0.0000
40
0.1224
1
K
72
1
11
3.5009
21
15.6712
31
0.0000
0
TEXT
8
TABLES
10
3.8175
20
15.6712
30
0.0000
40
0.1224
1
SIG GND B
0
TEXT
8
TABLES
10
5.6564
20
15.6712
30
0.0000
40
0.1224
1
22
72
1
11
5.6564
21
15.6712
31
0.0000
0
TEXT
8
TABLES
10
6.0352
20
15.6712
30
0.0000
40
0.1224
1
BLK
0
TEXT
8
TABLES
10
6.8456
20
15.6712
30
0.0000
40
0.1224
1
M22759/16-22-0
0
TEXT
8
TABLES
10
9.9729
20
15.6712
30
0.0000
40
0.1224
1
6
72
1
11
9.9729
21
15.6712
31
0.0000
0
LINE
8
TABLES
10
0.9167
20
15.5859
30
0.0000
11
11.9267
21
15.5859
31
0.0000
0
POLYLINE
8
TABLES
66
1
10
0.0000
20
0.0000
30
0.0000
70
1
0
VERTEX
8
TABLES
10
0.9167
20
19.8843
30
0.0000
0
VERTEX
8
TABLES
10
11.9267
20
19.8843
30
0.0000
0
VERTEX
8
TABLES
10
11.9267
20
15.5859
30
0.0000
0
VERTEX
8
TABLES
10
0.9167
20
15.5859
30
0.0000
0
SEQEND
8
TABLES
0
LINE
8
TABLES
10
1.5566
20
19.8843
30
0.0000
11
1.5566
21
15.5859
31
0.0000
0
LINE
8
TABLES
10
2.2533
20
19.8843
30
0.0000
11
2.2533
21
15.5859
31
0.0000
0
LINE
8
TABLES
10
2.7404
20
19.8843
30
0.0000
11
2.7404
21
15.5859
31
0.0000
0
LINE
8
TABLES
10
3.2574
20
19.8843
30
0.0000
11
3.2574
21
15.5859
31
0.0000
0
LINE
8
TABLES
10
3.7445
20
19.8843
30
0.0000
11
3.7445
21
15.5859
31
0.0000
0
LINE
8
TABLES
10
5.3506
20
19.8843
30
0.0000
11
5.3506
21
15.5859
31
0.0000
0
LINE
8
TABLES
10
5.9621
20
19.8843
30
0.0000
11
5.9621
21
15.5859
31
0.0000
0
LINE
8
TABLES
10
6.7725
20
19.8843
30
0.0000
11
6.7725
21
15.5859
31
0.0000
0
LINE
8
TABLES
10
8.5684
20
19.8843
30
0.0000
11
8.5684
21
15.5859
31
0.0000
0
LINE
8
TABLES
10
9.3884
20
19.8843
30
0.0000
11
9.3884
21
15.5859
31
0.0000
0
LINE
8
TABLES
10
10.5573
20
19.8843
30
0.0000
11
10.5573
21
15.5859
31
0.0000
0
TEXT
8
TABLES
10
0.9167
20
15.0281
30
0.0000
40
0.1224
1
WIRE GROUPS AND SHIELDS
0
POLYLINE
8
TABLES
66
1
10
0.0000
20
0.0000
30
0.0000
70
1
0
VERTEX
8
TABLES
10
0.9167
20
14.9185
30
0.0000
0
VERTEX
8
TABLES
10
16.3666
20
14.9185
30
0.0000
0
VERTEX
8
TABLES
10
16.3666
20
14.5776
30
0.0000
0
VERTEX
8
TABLES
10
0.9167
20
14.5776
30
0.0000
0
SEQEND
8
TABLES
0
TEXT
8
TABLES
10
1.3266
20
14.6750
30
0.0000
40
0.1224
1
GROUP
72
1
11
1.3266
21
14.6750
31
0.0000
0
TEXT
8
TABLES
10
2.8902
20
14.6750
30
0.0000
40
0.1224
1
TYPE
72
1
11
2.8902
21
14.6750
31
0.0000
0
TEXT
8
TABLES
10
4.4443
20
14.6750
30
0.0000
40
0.1224
1
WIRES
72
1
11
4.4443
21
14.6750
31
0.0000
0
TEXT
8
TABLES
10
5.6860
20
14.6750
30
0.0000
40
0.1224
1
CABLE P/N
72
1
11
5.6860
21
14.6750
31
0.0000
0
TEXT
8
TABLES
10
7.1030
20
14.6750
30
0.0000
40
0.1224
1
SHIELD P/N
72
1
11
7.1030
21
14.6750
31
0.0000
0
TEXT
8
TABLES
10
8.8040
20
14.6750
30
0.0000
40
0.1224
1
SHIELD TERM
72
1
11
8.8040
21
14.6750
31
0.0000
0
TEXT
8
TABLES
10
10.8743
20
14.6750
30
0.0000
40
0.1224
1
SHIELD (FROM END)
72
1
11
10.8743
21
14.6750
31
0.0000
0
TEXT
8
TABLES
10
12.6318
20
14.6750
30
0.0000
40
0.1224
1
SHIELD (TO END)
72
1
11
12.6318
21
14.6750
31
0.0000
0
TEXT
8
TABLES
10
14.9054
20
14.6750
30
0.0000
40
0.1224
1
NOTES
72
1
11
14.9054
21
14.6750
31
0.0000
0
TEXT
8
TABLES
10
0.9897
20
14.3584
30
0.0000
40
0.1224
1
TSP1
0
TEXT
8
TABLES
10
1.8097
20
14.3584
30
0.0000
40
0.1224
1
SHIELDED TWISTED PAIR
0
TEXT
8
TABLES
10
4.1168
20
14.3584
30
0.0000
40
0.1224
1
W3, W4
0
TEXT
8
TABLES
10
4.9179
20
14.3584
30
0.0000
40
0.1224
1
M27500-22TG2T14
0
TEXT
8
TABLES
10
7.7518
20
14.3584
30
0.0000
40
0.1224
1
M83519/2-3 (FIND NO. 13)
0
TEXT
8
TABLES
10
10.0023
20
14.3584
30
0.0000
40
0.1224
1
P1: BACKSHELL
0
TEXT
8
TABLES
10
11.8924
20
14.3584
30
0.0000
40
0.1224
1
P2: PIN L
0
TEXT
8
TABLES
10
13.5173
20
14.3584
30
0.0000
40
0.1224
1
RS422 TX
0
LINE
8
TABLES
10
0.9167
20
14.2732
30
0.0000
11
16.3666
21
14.2732
31
0.0000
0
TEXT
8
TABLES
10
0.9897
20
14.0540
30
0.0000
40
0.1224
1
TP2
0
TEXT
8
TABLES
10
1.8097
20
14.0540
30
0.0000
40
0.1224
1
TWISTED PAIR
0
TEXT
8
TABLES
10
4.1168
20
14.0540
30
0.0000
40
0.1224
1
W5, W6
0
TEXT
8
TABLES
10
13.5173
20
14.0540
30
0.0000
40
0.1224
1
RS422 RX; 10 TWISTS PER FOO...
0
LINE
8
TABLES
10
0.9167
20
13.9687
30
0.0000
11
16.3666
21
13.9687
31
0.0000
0
POLYLINE
8
TABLES
66
1
10
0.0000
20
0.0000
30
0.0000
70
1
0
VERTEX
8
TABLES
10
0.9167
20
14.9185
30
0.0000
0
VERTEX
8
TABLES
10
16.3666
20
14.9185
30
0.0000
0
VERTEX
8
TABLES
10
16.3666
20
13.9687
30
0.0000
0
VERTEX
8
TABLES
10
0.9167
20
13.9687
30
0.0000
0
SEQEND
8
TABLES
0
LINE
8
TABLES
10
1.7366
20
14.9185
30
0.0000
11
1.7366
21
13.9687
31
0.0000
0
LINE
8
TABLES
10
4.0438
20
14.9185
30
0.0000
11
4.0438
21
13.9687
31
0.0000
0
LINE
8
TABLES
10
4.8448
20
14.9185
30
0.0000
11
4.8448
21
13.9687
31
0.0000
0
LINE
8
TABLES
10
6.5272
20
14.9185
30
0.0000
11
6.5272
21
13.9687
31
0.0000
0
LINE
8
TABLES
10
7.6787
20
14.9185
30
0.0000
11
7.6787
21
13.9687
31
0.0000
0
LINE
8
TABLES
10
9.9293
20
14.9185
30
0.0000
11
9.9293
21
13.9687
31
0.0000
0
LINE
8
TABLES
10
11.8193
20
14.9185
30
0.0000
11
11.8193
21
13.9687
31
0.0000
0
LINE
8
TABLES
10
13.4442
20
14.9185
30
0.0000
11
13.4442
21
13.9687
31
0.0000
0
TEXT
8
TABLES
10
0.9167
20
13.4109
30
0.0000
40
0.1224
1
SPLICES
0
POLYLINE
8
TABLES
66
1
10
0.0000
20
0.0000
30
0.0000
70
1
0
VERTEX
8
TABLES
10
0.9167
20
13.3013
30
0.0000
0
VERTEX
8
TABLES
10
9.1807
20
13.3013
30
0.0000
0
VERTEX
8
TABLES
10
9.1807
20
12.9604
30
0.0000
0
VERTEX
8
TABLES
10
0.9167
20
12.9604
30
0.0000
0
SEQEND
8
TABLES
0
TEXT
8
TABLES
10
1.3220
20
13.0578
30
0.0000
40
0.1224
1
SPLICE
72
1
11
1.3220
21
13.0578
31
0.0000
0
TEXT
8
TABLES
10
2.1656
20
13.0578
30
0.0000
40
0.1224
1
FIND NO
72
1
11
2.1656
21
13.0578
31
0.0000
0
TEXT
8
TABLES
10
3.1750
20
13.0578
30
0.0000
40
0.1224
1
SPLICE P/N
72
1
11
3.1750
21
13.0578
31
0.0000
0
TEXT
8
TABLES
10
4.6534
20
13.0578
30
0.0000
40
0.1224
1
LOCATION
72
1
11
4.6534
21
13.0578
31
0.0000
0
TEXT
8
TABLES
10
6.2313
20
13.0578
30
0.0000
40
0.1224
1
WIRES
72
1
11
6.2313
21
13.0578
31
0.0000
0
TEXT
8
TABLES
10
8.0413
20
13.0578
30
0.0000
40
0.1224
1
NOTES
72
1
11
8.0413
21
13.0578
31
0.0000
0
TEXT
8
TABLES
10
0.9897
20
12.7412
30
0.0000
40
0.1224
1
SP1
0
TEXT
8
TABLES
10
2.1656
20
12.7412
30
0.0000
40
0.1224
1
14
72
1
11
2.1656
21
12.7412
31
0.0000
0
TEXT
8
TABLES
10
2.6770
20
12.7412
30
0.0000
40
0.1224
1
M81824/1-1
0
TEXT
8
TABLES
10
3.8192
20
12.7412
30
0.0000
40
0.1224
1
6 IN FROM P2 FACE
0
TEXT
8
TABLES
10
5.6338
20
12.7412
30
0.0000
40
0.1224
1
W9, W12, W13
0
TEXT
8
TABLES
10
6.9749
20
12.7412
30
0.0000
40
0.1224
1
SIGNAL GROUND SPLICE
0
LINE
8
TABLES
10
0.9167
20
12.6559
30
0.0000
11
9.1807
21
12.6559
31
0.0000
0
POLYLINE
8
TABLES
66
1
10
0.0000
20
0.0000
30
0.0000
70
1
0
VERTEX
8
TABLES
10
0.9167
20
13.3013
30
0.0000
0
VERTEX
8
TABLES
10
9.1807
20
13.3013
30
0.0000
0
VERTEX
8
TABLES
10
9.1807
20
12.6559
30
0.0000
0
VERTEX
8
TABLES
10
0.9167
20
12.6559
30
0.0000
0
SEQEND
8
TABLES
0
LINE
8
TABLES
10
1.7272
20
13.3013
30
0.0000
11
1.7272
21
12.6559
31
0.0000
0
LINE
8
TABLES
10
2.6040
20
13.3013
30
0.0000
11
2.6040
21
12.6559
31
0.0000
0
LINE
8
TABLES
10
3.7461
20
13.3013
30
0.0000
11
3.7461
21
12.6559
31
0.0000
0
LINE
8
TABLES
10
5.5608
20
13.3013
30
0.0000
11
5.5608
21
12.6559
31
0.0000
0
LINE
8
TABLES
10
6.9019
20
13.3013
30
0.0000
11
6.9019
21
12.6559
31
0.0000
0
TEXT
8
TABLES
10
0.9167
20
12.0981
30
0.0000
40
0.1224
1
LABEL SCHEDULE
0
POLYLINE
8
TABLES
66
1
10
0.0000
20
0.0000
30
0.0000
70
1
0
VERTEX
8
TABLES
10
0.9167
20
11.9885
30
0.0000
0
VERTEX
8
TABLES
10
7.6121
20
11.9885
30
0.0000
0
VERTEX
8
TABLES
10
7.6121
20
11.6476
30
0.0000
0
VERTEX
8
TABLES
10
0.9167
20
11.6476
30
0.0000
0
SEQEND
8
TABLES
0
TEXT
8
TABLES
10
1.3550
20
11.7450
30
0.0000
40
0.1224
1
FIND NO
72
1
11
1.3550
21
11.7450
31
0.0000
0
TEXT
8
TABLES
10
2.6439
20
11.7450
30
0.0000
40
0.1224
1
LABEL P/N
72
1
11
2.6439
21
11.7450
31
0.0000
0
TEXT
8
TABLES
10
3.9470
20
11.7450
30
0.0000
40
0.1224
1
LEGEND
72
1
11
3.9470
21
11.7450
31
0.0000
0
TEXT
8
TABLES
10
5.7332
20
11.7450
30
0.0000
40
0.1224
1
LOCATION
72
1
11
5.7332
21
11.7450
31
0.0000
0
TEXT
8
TABLES
10
7.3394
20
11.7450
30
0.0000
40
0.1224
1
QTY
72
1
11
7.3394
21
11.7450
31
0.0000
0
TEXT
8
TABLES
10
1.3550
20
11.4284
30
0.0000
40
0.1224
1
5
72
1
11
1.3550
21
11.4284
31
0.0000
0
TEXT
8
TABLES
10
1.8664
20
11.4284
30
0.0000
40
0.1224
1
TMS-SCE-1/2-2.0-9
0
TEXT
8
TABLES
10
3.5674
20
11.4284
30
0.0000
40
0.1224
1
W101-P1
0
TEXT
8
TABLES
10
4.4728
20
11.4284
30
0.0000
40
0.1224
1
CABLE, ADJACENT TO P1
0
TEXT
8
TABLES
10
7.3394
20
11.4284
30
0.0000
40
0.1224
1
1
72
1
11
7.3394
21
11.4284
31
0.0000
0
LINE
8
TABLES
10
0.9167
20
11.3431
30
0.0000
11
7.6121
21
11.3431
31
0.0000
0
TEXT
8
TABLES
10
1.3550
20
11.1240
30
0.0000
40
0.1224
1
5
72
1
11
1.3550
21
11.1240
31
0.0000
0
TEXT
8
TABLES
10
1.8664
20
11.1240
30
0.0000
40
0.1224
1
TMS-SCE-1/2-2.0-9
0
TEXT
8
TABLES
10
3.5674
20
11.1240
30
0.0000
40
0.1224
1
W101-P2
0
TEXT
8
TABLES
10
4.4728
20
11.1240
30
0.0000
40
0.1224
1
CABLE, ADJACENT TO P2
0
TEXT
8
TABLES
10
7.3394
20
11.1240
30
0.0000
40
0.1224
1
1
72
1
11
7.3394
21
11.1240
31
0.0000
0
LINE
8
TABLES
10
0.9167
20
11.0387
30
0.0000
11
7.6121
21
11.0387
31
0.0000
0
TEXT
8
TABLES
10
1.3550
20
10.8195
30
0.0000
40
0.1224
1
15
72
1
11
1.3550
21
10.8195
31
0.0000
0
TEXT
8
TABLES
10
1.8664
20
10.8195
30
0.0000
40
0.1224
1
TMS-SCE-1/8-2.0-9
0
TEXT
8
TABLES
10
3.5674
20
10.8195
30
0.0000
40
0.1224
1
W1
0
TEXT
8
TABLES
10
4.4728
20
10.8195
30
0.0000
40
0.1224
1
WIRE W1, AT P1-A AND P2-A
0
TEXT
8
TABLES
10
7.3394
20
10.8195
30
0.0000
40
0.1224
1
2
72
1
11
7.3394
21
10.8195
31
0.0000
0
LINE
8
TABLES
10
0.9167
20
10.7343
30
0.0000
11
7.6121
21
10.7343
31
0.0000
0
TEXT
8
TABLES
10
1.3550
20
10.5151
30
0.0000
40
0.1224
1
15
72
1
11
1.3550
21
10.5151
31
0.0000
0
TEXT
8
TABLES
10
1.8664
20
10.5151
30
0.0000
40
0.1224
1
TMS-SCE-1/8-2.0-9
0
TEXT
8
TABLES
10
3.5674
20
10.5151
30
0.0000
40
0.1224
1
W2
0
TEXT
8
TABLES
10
4.4728
20
10.5151
30
0.0000
40
0.1224
1
WIRE W2, AT P1-B AND P2-B
0
TEXT
8
TABLES
10
7.3394
20
10.5151
30
0.0000
40
0.1224
1
2
72
1
11
7.3394
21
10.5151
31
0.0000
0
LINE
8
TABLES
10
0.9167
20
10.4299
30
0.0000
11
7.6121
21
10.4299
31
0.0000
0
TEXT
8
TABLES
10
1.3550
20
10.2107
30
0.0000
40
0.1224
1
15
72
1
11
1.3550
21
10.2107
31
0.0000
0
TEXT
8
TABLES
10
1.8664
20
10.2107
30
0.0000
40
0.1224
1
TMS-SCE-1/8-2.0-9
0
TEXT
8
TABLES
10
3.5674
20
10.2107
30
0.0000
40
0.1224
1
W3
0
TEXT
8
TABLES
10
4.4728
20
10.2107
30
0.0000
40
0.1224
1
WIRE W3, AT P1-C AND P2-C
0
TEXT
8
TABLES
10
7.3394
20
10.2107
30
0.0000
40
0.1224
1
2
72
1
11
7.3394
21
10.2107
31
0.0000
0
LINE
8
TABLES
10
0.9167
20
10.1255
30
0.0000
11
7.6121
21
10.1255
31
0.0000
0
TEXT
8
TABLES
10
1.3550
20
9.9063
30
0.0000
40
0.1224
1
15
72
1
11
1.3550
21
9.9063
31
0.0000
0
TEXT
8
TABLES
10
1.8664
20
9.9063
30
0.0000
40
0.1224
1
TMS-SCE-1/8-2.0-9
0
TEXT
8
TABLES
10
3.5674
20
9.9063
30
0.0000
40
0.1224
1
W4
0
TEXT
8
TABLES
10
4.4728
20
9.9063
30
0.0000
40
0.1224
1
WIRE W4, AT P1-D AND P2-D
0
TEXT
8
TABLES
10
7.3394
20
9.9063
30
0.0000
40
0.1224
1
2
72
1
11
7.3394
21
9.9063
31
0.0000
0
LINE
8
TABLES
10
0.9167
20
9.8211
30
0.0000
11
7.6121
21
9.8211
31
0.0000
0
TEXT
8
TABLES
10
1.3550
20
9.6019
30
0.0000
40
0.1224
1
15
72
1
11
1.3550
21
9.6019
31
0.0000
0
TEXT
8
TABLES
10
1.8664
20
9.6019
30
0.0000
40
0.1224
1
TMS-SCE-1/8-2.0-9
0
TEXT
8
TABLES
10
3.5674
20
9.6019
30
0.0000
40
0.1224
1
W5
0
TEXT
8
TABLES
10
4.4728
20
9.6019
30
0.0000
40
0.1224
1
WIRE W5, AT P1-E AND P2-E
0
TEXT
8
TABLES
10
7.3394
20
9.6019
30
0.0000
40
0.1224
1
2
72
1
11
7.3394
21
9.6019
31
0.0000
0
LINE
8
TABLES
10
0.9167
20
9.5166
30
0.0000
11
7.6121
21
9.5166
31
0.0000
0
TEXT
8
TABLES
10
1.3550
20
9.2975
30
0.0000
40
0.1224
1
15
72
1
11
1.3550
21
9.2975
31
0.0000
0
TEXT
8
TABLES
10
1.8664
20
9.2975
30
0.0000
40
0.1224
1
TMS-SCE-1/8-2.0-9
0
TEXT
8
TABLES
10
3.5674
20
9.2975
30
0.0000
40
0.1224
1
W6
0
TEXT
8
TABLES
10
4.4728
20
9.2975
30
0.0000
40
0.1224
1
WIRE W6, AT P1-F AND P2-F
0
TEXT
8
TABLES
10
7.3394
20
9.2975
30
0.0000
40
0.1224
1
2
72
1
11
7.3394
21
9.2975
31
0.0000
0
LINE
8
TABLES
10
0.9167
20
9.2122
30
0.0000
11
7.6121
21
9.2122
31
0.0000
0
TEXT
8
TABLES
10
1.3550
20
8.9930
30
0.0000
40
0.1224
1
15
72
1
11
1.3550
21
8.9930
31
0.0000
0
TEXT
8
TABLES
10
1.8664
20
8.9930
30
0.0000
40
0.1224
1
TMS-SCE-1/8-2.0-9
0
TEXT
8
TABLES
10
3.5674
20
8.9930
30
0.0000
40
0.1224
1
W7
0
TEXT
8
TABLES
10
4.4728
20
8.9930
30
0.0000
40
0.1224
1
WIRE W7, AT P1-G AND P2-H
0
TEXT
8
TABLES
10
7.3394
20
8.9930
30
0.0000
40
0.1224
1
2
72
1
11
7.3394
21
8.9930
31
0.0000
0
LINE
8
TABLES
10
0.9167
20
8.9078
30
0.0000
11
7.6121
21
8.9078
31
0.0000
0
TEXT
8
TABLES
10
1.3550
20
8.6886
30
0.0000
40
0.1224
1
15
72
1
11
1.3550
21
8.6886
31
0.0000
0
TEXT
8
TABLES
10
1.8664
20
8.6886
30
0.0000
40
0.1224
1
TMS-SCE-1/8-2.0-9
0
TEXT
8
TABLES
10
3.5674
20
8.6886
30
0.0000
40
0.1224
1
W8
0
TEXT
8
TABLES
10
4.4728
20
8.6886
30
0.0000
40
0.1224
1
WIRE W8, AT P1-H AND P2-G
0
TEXT
8
TABLES
10
7.3394
20
8.6886
30
0.0000
40
0.1224
1
2
72
1
11
7.3394
21
8.6886
31
0.0000
0
LINE
8
TABLES
10
0.9167
20
8.6034
30
0.0000
11
7.6121
21
8.6034
31
0.0000
0
TEXT
8
TABLES
10
1.3550
20
8.3842
30
0.0000
40
0.1224
1
15
72
1
11
1.3550
21
8.3842
31
0.0000
0
TEXT
8
TABLES
10
1.8664
20
8.3842
30
0.0000
40
0.1224
1
TMS-SCE-1/8-2.0-9
0
TEXT
8
TABLES
10
3.5674
20
8.3842
30
0.0000
40
0.1224
1
W9
0
TEXT
8
TABLES
10
4.4728
20
8.3842
30
0.0000
40
0.1224
1
WIRE W9, AT P1-J AND SP1
0
TEXT
8
TABLES
10
7.3394
20
8.3842
30
0.0000
40
0.1224
1
2
72
1
11
7.3394
21
8.3842
31
0.0000
0
LINE
8
TABLES
10
0.9167
20
8.2990
30
0.0000
11
7.6121
21
8.2990
31
0.0000
0
TEXT
8
TABLES
10
1.3550
20
8.0798
30
0.0000
40
0.1224
1
15
72
1
11
1.3550
21
8.0798
31
0.0000
0
TEXT
8
TABLES
10
1.8664
20
8.0798
30
0.0000
40
0.1224
1
TMS-SCE-1/8-2.0-9
0
TEXT
8
TABLES
10
3.5674
20
8.0798
30
0.0000
40
0.1224
1
W10
0
TEXT
8
TABLES
10
4.4728
20
8.0798
30
0.0000
40
0.1224
1
WIRE W10, AT P1-K AND P1-L
0
TEXT
8
TABLES
10
7.3394
20
8.0798
30
0.0000
40
0.1224
1
2
72
1
11
7.3394
21
8.0798
31
0.0000
0
LINE
8
TABLES
10
0.9167
20
7.9946
30
0.0000
11
7.6121
21
7.9946
31
0.0000
0
TEXT
8
TABLES
10
1.3550
20
7.7754
30
0.0000
40
0.1224
1
15
72
1
11
1.3550
21
7.7754
31
0.0000
0
TEXT
8
TABLES
10
1.8664
20
7.7754
30
0.0000
40
0.1224
1
TMS-SCE-1/8-2.0-9
0
TEXT
8
TABLES
10
3.5674
20
7.7754
30
0.0000
40
0.1224
1
W11
0
TEXT
8
TABLES
10
4.4728
20
7.7754
30
0.0000
40
0.1224
1
WIRE W11, AT P1-M AND P2-M
0
TEXT
8
TABLES
10
7.3394
20
7.7754
30
0.0000
40
0.1224
1
2
72
1
11
7.3394
21
7.7754
31
0.0000
0
LINE
8
TABLES
10
0.9167
20
7.6901
30
0.0000
11
7.6121
21
7.6901
31
0.0000
0
TEXT
8
TABLES
10
1.3550
20
7.4710
30
0.0000
40
0.1224
1
15
72
1
11
1.3550
21
7.4710
31
0.0000
0
TEXT
8
TABLES
10
1.8664
20
7.4710
30
0.0000
40
0.1224
1
TMS-SCE-1/8-2.0-9
0
TEXT
8
TABLES
10
3.5674
20
7.4710
30
0.0000
40
0.1224
1
W12
0
TEXT
8
TABLES
10
4.4728
20
7.4710
30
0.0000
40
0.1224
1
WIRE W12, AT SP1 AND P2-J
0
TEXT
8
TABLES
10
7.3394
20
7.4710
30
0.0000
40
0.1224
1
2
72
1
11
7.3394
21
7.4710
31
0.0000
0
LINE
8
TABLES
10
0.9167
20
7.3857
30
0.0000
11
7.6121
21
7.3857
31
0.0000
0
TEXT
8
TABLES
10
1.3550
20
7.1665
30
0.0000
40
0.1224
1
15
72
1
11
1.3550
21
7.1665
31
0.0000
0
TEXT
8
TABLES
10
1.8664
20
7.1665
30
0.0000
40
0.1224
1
TMS-SCE-1/8-2.0-9
0
TEXT
8
TABLES
10
3.5674
20
7.1665
30
0.0000
40
0.1224
1
W13
0
TEXT
8
TABLES
10
4.4728
20
7.1665
30
0.0000
40
0.1224
1
WIRE W13, AT SP1 AND P2-K
0
TEXT
8
TABLES
10
7.3394
20
7.1665
30
0.0000
40
0.1224
1
2
72
1
11
7.3394
21
7.1665
31
0.0000
0
LINE
8
TABLES
10
0.9167
20
7.0813
30
0.0000
11
7.6121
21
7.0813
31
0.0000
0
POLYLINE
8
TABLES
66
1
10
0.0000
20
0.0000
30
0.0000
70
1
0
VERTEX
8
TABLES
10
0.9167
20
11.9885
30
0.0000
0
VERTEX
8
TABLES
10
7.6121
20
11.9885
30
0.0000
0
VERTEX
8
TABLES
10
7.6121
20
7.0813
30
0.0000
0
VERTEX
8
TABLES
10
0.9167
20
7.0813
30
0.0000
0
SEQEND
8
TABLES
0
LINE
8
TABLES
10
1.7934
20
11.9885
30
0.0000
11
1.7934
21
7.0813
31
0.0000
0
LINE
8
TABLES
10
3.4943
20
11.9885
30
0.0000
11
3.4943
21
7.0813
31
0.0000
0
LINE
8
TABLES
10
4.3997
20
11.9885
30
0.0000
11
4.3997
21
7.0813
31
0.0000
0
LINE
8
TABLES
10
7.0667
20
11.9885
30
0.0000
11
7.0667
21
7.0813
31
0.0000
0
POLYLINE
8
TITLE_BLOCK
66
1
10
0.0000
20
0.0000
30
0.0000
70
1
0
VERTEX
8
TITLE_BLOCK
10
29.2500
20
1.6000
30
0.0000
0
VERTEX
8
TITLE_BLOCK
10
33.2500
20
1.6000
30
0.0000
0
VERTEX
8
TITLE_BLOCK
10
33.2500
20
0.7500
30
0.0000
0
VERTEX
8
TITLE_BLOCK
10
29.2500
20
0.7500
30
0.0000
0
SEQEND
8
TITLE_BLOCK
0
POLYLINE
8
TITLE_BLOCK
66
1
10
0.0000
20
0.0000
30
0.0000
70
1
0
VERTEX
8
TITLE_BLOCK
10
29.2500
20
1.6000
30
0.0000
0
VERTEX
8
TITLE_BLOCK
10
29.8500
20
1.6000
30
0.0000
0
VERTEX
8
TITLE_BLOCK
10
29.8500
20
1.1000
30
0.0000
0
VERTEX
8
TITLE_BLOCK
10
29.2500
20
1.1000
30
0.0000
0
SEQEND
8
TITLE_BLOCK
0
TEXT
8
TITLE_BLOCK
10
29.2917
20
1.4792
30
0.0000
40
0.1020
1
SIZE
0
TEXT
8
TITLE_BLOCK
10
29.5500
20
1.1694
30
0.0000
40
0.2448
1
D
72
1
11
29.5500
21
1.1694
31
0.0000
0
POLYLINE
8
TITLE_BLOCK
66
1
10
0.0000
20
0.0000
30
0.0000
70
1
0
VERTEX
8
TITLE_BLOCK
10
29.8500
20
1.6000
30
0.0000
0
VERTEX
8
TITLE_BLOCK
10
30.8500
20
1.6000
30
0.0000
0
VERTEX
8
TITLE_BLOCK
10
30.8500
20
1.1000
30
0.0000
0
VERTEX
8
TITLE_BLOCK
10
29.8500
20
1.1000
30
0.0000
0
SEQEND
8
TITLE_BLOCK
0
TEXT
8
TITLE_BLOCK
10
29.8917
20
1.4792
30
0.0000
40
0.1020
1
CAGE CODE
0
POLYLINE
8
TITLE_BLOCK
66
1
10
0.0000
20
0.0000
30
0.0000
70
1
0
VERTEX
8
TITLE_BLOCK
10
30.8500
20
1.6000
30
0.0000
0
VERTEX
8
TITLE_BLOCK
10
32.6500
20
1.6000
30
0.0000
0
VERTEX
8
TITLE_BLOCK
10
32.6500
20
1.1000
30
0.0000
0
VERTEX
8
TITLE_BLOCK
10
30.8500
20
1.1000
30
0.0000
0
SEQEND
8
TITLE_BLOCK
0
TEXT
8
TITLE_BLOCK
10
30.8917
20
1.4792
30
0.0000
40
0.1020
1
DWG NO.
0
TEXT
8
TITLE_BLOCK
10
30.9194
20
1.1694
30
0.0000
40
0.2448
1
W101-001
0
POLYLINE
8
TITLE_BLOCK
66
1
10
0.0000
20
0.0000
30
0.0000
70
1
0
VERTEX
8
TITLE_BLOCK
10
32.6500
20
1.6000
30
0.0000
0
VERTEX
8
TITLE_BLOCK
10
33.2500
20
1.6000
30
0.0000
0
VERTEX
8
TITLE_BLOCK
10
33.2500
20
1.1000
30
0.0000
0
VERTEX
8
TITLE_BLOCK
10
32.6500
20
1.1000
30
0.0000
0
SEQEND
8
TITLE_BLOCK
0
TEXT
8
TITLE_BLOCK
10
32.6917
20
1.4792
30
0.0000
40
0.1020
1
REV
0
TEXT
8
TITLE_BLOCK
10
32.9500
20
1.1694
30
0.0000
40
0.1224
1
A
72
1
11
32.9500
21
1.1694
31
0.0000
0
POLYLINE
8
TITLE_BLOCK
66
1
10
0.0000
20
0.0000
30
0.0000
70
1
0
VERTEX
8
TITLE_BLOCK
10
29.2500
20
1.1000
30
0.0000
0
VERTEX
8
TITLE_BLOCK
10
30.5833
20
1.1000
30
0.0000
0
VERTEX
8
TITLE_BLOCK
10
30.5833
20
0.7500
30
0.0000
0
VERTEX
8
TITLE_BLOCK
10
29.2500
20
0.7500
30
0.0000
0
SEQEND
8
TITLE_BLOCK
0
TEXT
8
TITLE_BLOCK
10
29.2917
20
0.9792
30
0.0000
40
0.1020
1
SCALE
0
TEXT
8
TITLE_BLOCK
10
29.3194
20
0.8194
30
0.0000
40
0.1224
1
NONE
0
POLYLINE
8
TITLE_BLOCK
66
1
10
0.0000
20
0.0000
30
0.0000
70
1
0
VERTEX
8
TITLE_BLOCK
10
30.5833
20
1.1000
30
0.0000
0
VERTEX
8
TITLE_BLOCK
10
31.9167
20
1.1000
30
0.0000
0
VERTEX
8
TITLE_BLOCK
10
31.9167
20
0.7500
30
0.0000
0
VERTEX
8
TITLE_BLOCK
10
30.5833
20
0.7500
30
0.0000
0
SEQEND
8
TITLE_BLOCK
0
TEXT
8
TITLE_BLOCK
10
30.6250
20
0.9792
30
0.0000
40
0.1020
1
WEIGHT
0
POLYLINE
8
TITLE_BLOCK
66
1
10
0.0000
20
0.0000
30
0.0000
70
1
0
VERTEX
8
TITLE_BLOCK
10
31.9167
20
1.1000
30
0.0000
0
VERTEX
8
TITLE_BLOCK
10
33.2500
20
1.1000
30
0.0000
0
VERTEX
8
TITLE_BLOCK
10
33.2500
20
0.7500
30
0.0000
0
VERTEX
8
TITLE_BLOCK
10
31.9167
20
0.7500
30
0.0000
0
SEQEND
8
TITLE_BLOCK
0
TEXT
8
TITLE_BLOCK
10
31.9583
20
0.9792
30
0.0000
40
0.1020
1
SHEET
0
TEXT
8
TITLE_BLOCK
10
31.9861
20
0.8194
30
0.0000
40
0.1224
1
3 OF 3
0
ENDSEC
0
EOF
