0
SECTION
2
HEADER
9
$ACADVER
1
AC1009
9
$INSUNITS
70
1
9
$EXTMIN
10
0.0000
20
0.0000
30
0.0000
9
$EXTMAX
10
34.0000
20
22.0000
30
0.0000
9
$LIMMIN
10
0.0000
20
0.0000
9
$LIMMAX
10
34.0000
20
22.0000
0
ENDSEC
0
SECTION
2
TABLES
0
TABLE
2
LTYPE
70
2
0
LTYPE
2
CONTINUOUS
70
0
3
Solid line
72
65
73
0
40
0.0000
0
LTYPE
2
DASHED
70
0
3
__ __ __
72
65
73
2
40
0.1500
49
0.1000
49
-0.0500
0
ENDTAB
0
TABLE
2
LAYER
70
13
0
LAYER
2
0
70
0
62
7
6
CONTINUOUS
0
LAYER
2
BORDER
70
0
62
7
6
CONTINUOUS
0
LAYER
2
TITLE_BLOCK
70
0
62
7
6
CONTINUOUS
0
LAYER
2
ASSEMBLY
70
0
62
7
6
CONTINUOUS
0
LAYER
2
CABLE
70
0
62
7
6
CONTINUOUS
0
LAYER
2
DIMENSIONS
70
0
62
3
6
CONTINUOUS
0
LAYER
2
BALLOONS
70
0
62
5
6
CONTINUOUS
0
LAYER
2
WIRING
70
0
62
7
6
CONTINUOUS
0
LAYER
2
SHIELDS
70
0
62
4
6
CONTINUOUS
0
LAYER
2
FACE_VIEWS
70
0
62
7
6
CONTINUOUS
0
LAYER
2
TABLES
70
0
62
7
6
CONTINUOUS
0
LAYER
2
NOTES
70
0
62
7
6
CONTINUOUS
0
LAYER
2
TEXT
70
0
62
7
6
CONTINUOUS
0
ENDTAB
0
ENDSEC
0
SECTION
2
ENTITIES
0
POLYLINE
8
BORDER
66
1
10
0.0000
20
0.0000
30
0.0000
70
1
0
VERTEX
8
BORDER
10
0.3750
20
21.6250
30
0.0000
0
VERTEX
8
BORDER
10
33.6250
20
21.6250
30
0.0000
0
VERTEX
8
BORDER
10
33.6250
20
0.3750
30
0.0000
0
VERTEX
8
BORDER
10
0.3750
20
0.3750
30
0.0000
0
SEQEND
8
BORDER
0
POLYLINE
8
BORDER
66
1
10
0.0000
20
0.0000
30
0.0000
70
1
0
VERTEX
8
BORDER
10
0.7500
20
21.2500
30
0.0000
0
VERTEX
8
BORDER
10
33.2500
20
21.2500
30
0.0000
0
VERTEX
8
BORDER
10
33.2500
20
0.7500
30
0.0000
0
VERTEX
8
BORDER
10
0.7500
20
0.7500
30
0.0000
0
SEQEND
8
BORDER
0
TEXT
8
BORDER
10
2.7812
20
21.3148
30
0.0000
40
0.2448
1
8
72
1
11
2.7812
21
21.3148
31
0.0000
0
TEXT
8
BORDER
10
2.7812
20
0.4398
30
0.0000
40
0.2448
1
8
72
1
11
2.7812
21
0.4398
31
0.0000
0
TEXT
8
BORDER
10
6.8438
20
21.3148
30
0.0000
40
0.2448
1
7
72
1
11
6.8438
21
21.3148
31
0.0000
0
TEXT
8
BORDER
10
6.8438
20
0.4398
30
0.0000
40
0.2448
1
7
72
1
11
6.8438
21
0.4398
31
0.0000
0
LINE
8
BORDER
10
4.8125
20
21.6250
30
0.0000
11
4.8125
21
21.2500
31
0.0000
0
LINE
8
BORDER
10
4.8125
20
0.7500
30
0.0000
11
4.8125
21
0.3750
31
0.0000
0
TEXT
8
BORDER
10
10.9062
20
21.3148
30
0.0000
40
0.2448
1
6
72
1
11
10.9062
21
21.3148
31
0.0000
0
TEXT
8
BORDER
10
10.9062
20
0.4398
30
0.0000
40
0.2448
1
6
72
1
11
10.9062
21
0.4398
31
0.0000
0
LINE
8
BORDER
10
8.8750
20
21.6250
30
0.0000
11
8.8750
21
21.2500
31
0.0000
0
LINE
8
BORDER
10
8.8750
20
0.7500
30
0.0000
11
8.8750
21
0.3750
31
0.0000
0
TEXT
8
BORDER
10
14.9688
20
21.3148
30
0.0000
40
0.2448
1
5
72
1
11
14.9688
21
21.3148
31
0.0000
0
TEXT
8
BORDER
10
14.9688
20
0.4398
30
0.0000
40
0.2448
1
5
72
1
11
14.9688
21
0.4398
31
0.0000
0
LINE
8
BORDER
10
12.9375
20
21.6250
30
0.0000
11
12.9375
21
21.2500
31
0.0000
0
LINE
8
BORDER
10
12.9375
20
0.7500
30
0.0000
11
12.9375
21
0.3750
31
0.0000
0
TEXT
8
BORDER
10
19.0312
20
21.3148
30
0.0000
40
0.2448
1
4
72
1
11
19.0312
21
21.3148
31
0.0000
0
TEXT
8
BORDER
10
19.0312
20
0.4398
30
0.0000
40
0.2448
1
4
72
1
11
19.0312
21
0.4398
31
0.0000
0
LINE
8
BORDER
10
17.0000
20
21.6250
30
0.0000
11
17.0000
21
21.2500
31
0.0000
0
LINE
8
BORDER
10
17.0000
20
0.7500
30
0.0000
11
17.0000
21
0.3750
31
0.0000
0
TEXT
8
BORDER
10
23.0938
20
21.3148
30
0.0000
40
0.2448
1
3
72
1
11
23.0938
21
21.3148
31
0.0000
0
TEXT
8
BORDER
10
23.0938
20
0.4398
30
0.0000
40
0.2448
1
3
72
1
11
23.0938
21
0.4398
31
0.0000
0
LINE
8
BORDER
10
21.0625
20
21.6250
30
0.0000
11
21.0625
21
21.2500
31
0.0000
0
LINE
8
BORDER
10
21.0625
20
0.7500
30
0.0000
11
21.0625
21
0.3750
31
0.0000
0
TEXT
8
BORDER
10
27.1562
20
21.3148
30
0.0000
40
0.2448
1
2
72
1
11
27.1562
21
21.3148
31
0.0000
0
TEXT
8
BORDER
10
27.1562
20
0.4398
30
0.0000
40
0.2448
1
2
72
1
11
27.1562
21
0.4398
31
0.0000
0
LINE
8
BORDER
10
25.1250
20
21.6250
30
0.0000
11
25.1250
21
21.2500
31
0.0000
0
LINE
8
BORDER
10
25.1250
20
0.7500
30
0.0000
11
25.1250
21
0.3750
31
0.0000
0
TEXT
8
BORDER
10
31.2188
20
21.3148
30
0.0000
40
0.2448
1
1
72
1
11
31.2188
21
21.3148
31
0.0000
0
TEXT
8
BORDER
10
31.2188
20
0.4398
30
0.0000
40
0.2448
1
1
72
1
11
31.2188
21
0.4398
31
0.0000
0
LINE
8
BORDER
10
29.1875
20
21.6250
30
0.0000
11
29.1875
21
21.2500
31
0.0000
0
LINE
8
BORDER
10
29.1875
20
0.7500
30
0.0000
11
29.1875
21
0.3750
31
0.0000
0
TEXT
8
BORDER
10
0.5625
20
18.5648
30
0.0000
40
0.2448
1
D
72
1
11
0.5625
21
18.5648
31
0.0000
0
TEXT
8
BORDER
10
33.4375
20
18.5648
30
0.0000
40
0.2448
1
D
72
1
11
33.4375
21
18.5648
31
0.0000
0
TEXT
8
BORDER
10
0.5625
20
13.4398
30
0.0000
40
0.2448
1
C
72
1
11
0.5625
21
13.4398
31
0.0000
0
TEXT
8
BORDER
10
33.4375
20
13.4398
30
0.0000
40
0.2448
1
C
72
1
11
33.4375
21
13.4398
31
0.0000
0
LINE
8
BORDER
10
0.3750
20
16.1250
30
0.0000
11
0.7500
21
16.1250
31
0.0000
0
LINE
8
BORDER
10
33.2500
20
16.1250
30
0.0000
11
33.6250
21
16.1250
31
0.0000
0
TEXT
8
BORDER
10
0.5625
20
8.3148
30
0.0000
40
0.2448
1
B
72
1
11
0.5625
21
8.3148
31
0.0000
0
TEXT
8
BORDER
10
33.4375
20
8.3148
30
0.0000
40
0.2448
1
B
72
1
11
33.4375
21
8.3148
31
0.0000
0
LINE
8
BORDER
10
0.3750
20
11.0000
30
0.0000
11
0.7500
21
11.0000
31
0.0000
0
LINE
8
BORDER
10
33.2500
20
11.0000
30
0.0000
11
33.6250
21
11.0000
31
0.0000
0
TEXT
8
BORDER
10
0.5625
20
3.1898
30
0.0000
40
0.2448
1
A
72
1
11
0.5625
21
3.1898
31
0.0000
0
TEXT
8
BORDER
10
33.4375
20
3.1898
30
0.0000
40
0.2448
1
A
72
1
11
33.4375
21
3.1898
31
0.0000
0
LINE
8
BORDER
10
0.3750
20
5.8750
30
0.0000
11
0.7500
21
5.8750
31
0.0000
0
LINE
8
BORDER
10
33.2500
20
5.8750
30
0.0000
11
33.6250
21
5.8750
31
0.0000
0
POLYLINE
8
BORDER
66
1
10
0.0000
20
0.0000
30
0.0000
70
1
0
VERTEX
8
BORDER
10
0.7500
20
21.2500
30
0.0000
0
VERTEX
8
BORDER
10
3.5000
20
21.2500
30
0.0000
0
VERTEX
8
BORDER
10
3.5000
20
20.7500
30
0.0000
0
VERTEX
8
BORDER
10
0.7500
20
20.7500
30
0.0000
0
SEQEND
8
BORDER
0
TEXT
8
BORDER
10
2.1250
20
21.0614
30
0.0000
40
0.1224
1
W101-001  REV A
50
180.0000
72
1
11
2.1250
21
21.0614
31
0.0000
0
POLYLINE
8
0
66
1
10
0.0000
20
0.0000
30
0.0000
70
1
0
VERTEX
8
0
10
27.2500
20
21.2500
30
0.0000
0
VERTEX
8
0
10
33.2500
20
21.2500
30
0.0000
0
VERTEX
8
0
10
33.2500
20
20.9684
30
0.0000
0
VERTEX
8
0
10
27.2500
20
20.9684
30
0.0000
0
SEQEND
8
0
0
TEXT
8
0
10
30.2500
20
21.0517
30
0.0000
40
0.1224
1
REVISIONS
72
1
11
30.2500
21
21.0517
31
0.0000
0
POLYLINE
8
0
66
1
10
0.0000
20
0.0000
30
0.0000
70
1
0
VERTEX
8
0
10
27.2500
20
20.9684
30
0.0000
0
VERTEX
8
0
10
27.8500
20
20.9684
30
0.0000
0
VERTEX
8
0
10
27.8500
20
20.6868
30
0.0000
0
VERTEX
8
0
10
27.2500
20
20.6868
30
0.0000
0
SEQEND
8
0
0
TEXT
8
0
10
27.5500
20
20.7563
30
0.0000
40
0.1020
1
ZONE
72
1
11
27.5500
21
20.7563
31
0.0000
0
POLYLINE
8
0
66
1
10
0.0000
20
0.0000
30
0.0000
70
1
0
VERTEX
8
0
10
27.8500
20
20.9684
30
0.0000
0
VERTEX
8
0
10
28.3500
20
20.9684
30
0.0000
0
VERTEX
8
0
10
28.3500
20
20.6868
30
0.0000
0
VERTEX
8
0
10
27.8500
20
20.6868
30
0.0000
0
SEQEND
8
0
0
TEXT
8
0
10
28.1000
20
20.7563
30
0.0000
40
0.1020
1
REV
72
1
11
28.1000
21
20.7563
31
0.0000
0
POLYLINE
8
0
66
1
10
0.0000
20
0.0000
30
0.0000
70
1
0
VERTEX
8
0
10
28.3500
20
20.9684
30
0.0000
0
VERTEX
8
0
10
31.0500
20
20.9684
30
0.0000
0
VERTEX
8
0
10
31.0500
20
20.6868
30
0.0000
0
VERTEX
8
0
10
28.3500
20
20.6868
30
0.0000
0
SEQEND
8
0
0
TEXT
8
0
10
29.7000
20
20.7563
30
0.0000
40
0.1020
1
DESCRIPTION
72
1
11
29.7000
21
20.7563
31
0.0000
0
POLYLINE
8
0
66
1
10
0.0000
20
0.0000
30
0.0000
70
1
0
VERTEX
8
0
10
31.0500
20
20.9684
30
0.0000
0
VERTEX
8
0
10
32.0500
20
20.9684
30
0.0000
0
VERTEX
8
0
10
32.0500
20
20.6868
30
0.0000
0
VERTEX
8
0
10
31.0500
20
20.6868
30
0.0000
0
SEQEND
8
0
0
TEXT
8
0
10
31.5500
20
20.7563
30
0.0000
40
0.1020
1
DATE
72
1
11
31.5500
21
20.7563
31
0.0000
0
POLYLINE
8
0
66
1
10
0.0000
20
0.0000
30
0.0000
70
1
0
VERTEX
8
0
10
32.0500
20
20.9684
30
0.0000
0
VERTEX
8
0
10
33.2500
20
20.9684
30
0.0000
0
VERTEX
8
0
10
33.2500
20
20.6868
30
0.0000
0
VERTEX
8
0
10
32.0500
20
20.6868
30
0.0000
0
SEQEND
8
0
0
TEXT
8
0
10
32.6500
20
20.7563
30
0.0000
40
0.1020
1
APPROVED
72
1
11
32.6500
21
20.7563
31
0.0000
0
POLYLINE
8
0
66
1
10
0.0000
20
0.0000
30
0.0000
70
1
0
VERTEX
8
0
10
27.2500
20
20.6868
30
0.0000
0
VERTEX
8
0
10
27.8500
20
20.6868
30
0.0000
0
VERTEX
8
0
10
27.8500
20
20.4052
30
0.0000
0
VERTEX
8
0
10
27.2500
20
20.4052
30
0.0000
0
SEQEND
8
0
0
POLYLINE
8
0
66
1
10
0.0000
20
0.0000
30
0.0000
70
1
0
VERTEX
8
0
10
27.8500
20
20.6868
30
0.0000
0
VERTEX
8
0
10
28.3500
20
20.6868
30
0.0000
0
VERTEX
8
0
10
28.3500
20
20.4052
30
0.0000
0
VERTEX
8
0
10
27.8500
20
20.4052
30
0.0000
0
SEQEND
8
0
0
TEXT
8
0
10
28.1000
20
20.4747
30
0.0000
40
0.1224
1
A
72
1
11
28.1000
21
20.4747
31
0.0000
0
POLYLINE
8
0
66
1
10
0.0000
20
0.0000
30
0.0000
70
1
0
VERTEX
8
0
10
28.3500
20
20.6868
30
0.0000
0
VERTEX
8
0
10
31.0500
20
20.6868
30
0.0000
0
VERTEX
8
0
10
31.0500
20
20.4052
30
0.0000
0
VERTEX
8
0
10
28.3500
20
20.4052
30
0.0000
0
SEQEND
8
0
0
TEXT
8
0
10
28.4194
20
20.4747
30
0.0000
40
0.1224
1
INITIAL RELEASE
0
POLYLINE
8
0
66
1
10
0.0000
20
0.0000
30
0.0000
70
1
0
VERTEX
8
0
10
31.0500
20
20.6868
30
0.0000
0
VERTEX
8
0
10
32.0500
20
20.6868
30
0.0000
0
VERTEX
8
0
10
32.0500
20
20.4052
30
0.0000
0
VERTEX
8
0
10
31.0500
20
20.4052
30
0.0000
0
SEQEND
8
0
0
TEXT
8
0
10
31.5500
20
20.4747
30
0.0000
40
0.1224
1
2026-10-08
72
1
11
31.5500
21
20.4747
31
0.0000
0
POLYLINE
8
0
66
1
10
0.0000
20
0.0000
30
0.0000
70
1
0
VERTEX
8
0
10
32.0500
20
20.6868
30
0.0000
0
VERTEX
8
0
10
33.2500
20
20.6868
30
0.0000
0
VERTEX
8
0
10
33.2500
20
20.4052
30
0.0000
0
VERTEX
8
0
10
32.0500
20
20.4052
30
0.0000
0
SEQEND
8
0
0
TEXT
8
0
10
32.6500
20
20.4747
30
0.0000
40
0.1224
1
J. SMITH
72
1
11
32.6500
21
20.4747
31
0.0000
0
POLYLINE
8
0
66
1
10
0.0000
20
0.0000
30
0.0000
70
1
0
VERTEX
8
0
10
27.2500
20
21.2500
30
0.0000
0
VERTEX
8
0
10
33.2500
20
21.2500
30
0.0000
0
VERTEX
8
0
10
33.2500
20
20.4052
30
0.0000
0
VERTEX
8
0
10
27.2500
20
20.4052
30
0.0000
0
SEQEND
8
0
0
POLYLINE
8
TABLES
66
1
10
0.0000
20
0.0000
30
0.0000
70
1
0
VERTEX
8
TABLES
10
23.0179
20
3.4397
30
0.0000
0
VERTEX
8
TABLES
10
33.2500
20
3.4397
30
0.0000
0
VERTEX
8
TABLES
10
33.2500
20
3.0500
30
0.0000
0
VERTEX
8
TABLES
10
23.0179
20
3.0500
30
0.0000
0
SEQEND
8
TABLES
0
TEXT
8
TABLES
10
28.1340
20
3.1596
30
0.0000
40
0.1224
1
PARTS LIST
72
1
11
28.1340
21
3.1596
31
0.0000
0
POLYLINE
8
TABLES
66
1
10
0.0000
20
0.0000
30
0.0000
70
1
0
VERTEX
8
TABLES
10
23.0179
20
3.7806
30
0.0000
0
VERTEX
8
TABLES
10
33.2500
20
3.7806
30
0.0000
0
VERTEX
8
TABLES
10
33.2500
20
3.4397
30
0.0000
0
VERTEX
8
TABLES
10
23.0179
20
3.4397
30
0.0000
0
SEQEND
8
TABLES
0
TEXT
8
TABLES
10
23.4658
20
3.5371
30
0.0000
40
0.1224
1
FIND NO
72
1
11
23.4658
21
3.5371
31
0.0000
0
TEXT
8
TABLES
10
24.4562
20
3.5371
30
0.0000
40
0.1224
1
QTY REQD
72
1
11
24.4562
21
3.5371
31
0.0000
0
TEXT
8
TABLES
10
25.6124
20
3.5371
30
0.0000
40
0.1224
1
CAGE CODE
72
1
11
25.6124
21
3.5371
31
0.0000
0
TEXT
8
TABLES
10
27.4221
20
3.5371
30
0.0000
40
0.1224
1
PART OR IDENTIFYING NO
72
1
11
27.4221
21
3.5371
31
0.0000
0
TEXT
8
TABLES
10
30.5201
20
3.5371
30
0.0000
40
0.1224
1
NOMENCLATURE OR DESCRIPTION
72
1
11
30.5201
21
3.5371
31
0.0000
0
TEXT
8
TABLES
10
32.8360
20
3.5371
30
0.0000
40
0.1224
1
NOTE
72
1
11
32.8360
21
3.5371
31
0.0000
0
TEXT
8
TABLES
10
23.4658
20
3.8658
30
0.0000
40
0.1224
1
1
72
1
11
23.4658
21
3.8658
31
0.0000
0
TEXT
8
TABLES
10
24.4562
20
3.8658
30
0.0000
40
0.1224
1
1
72
1
11
24.4562
21
3.8658
31
0.0000
0
TEXT
8
TABLES
10
26.2991
20
3.8658
30
0.0000
40
0.1224
1
D38999/26WD18SN
0
TEXT
8
TABLES
10
28.6913
20
3.8658
30
0.0000
40
0.1224
1
CONNECTOR, PLUG, 18 SKT
0
LINE
8
TABLES
10
23.0179
20
3.7806
30
0.0000
11
33.2500
21
3.7806
31
0.0000
0
TEXT
8
TABLES
10
23.4658
20
4.1703
30
0.0000
40
0.1224
1
2
72
1
11
23.4658
21
4.1703
31
0.0000
0
TEXT
8
TABLES
10
24.4562
20
4.1703
30
0.0000
40
0.1224
1
1
72
1
11
24.4562
21
4.1703
31
0.0000
0
TEXT
8
TABLES
10
26.2991
20
4.1703
30
0.0000
40
0.1224
1
D38999/26WD18PN
0
TEXT
8
TABLES
10
28.6913
20
4.1703
30
0.0000
40
0.1224
1
CONNECTOR, PLUG, 18 PIN
0
LINE
8
TABLES
10
23.0179
20
4.0850
30
0.0000
11
33.2500
21
4.0850
31
0.0000
0
TEXT
8
TABLES
10
23.4658
20
4.4747
30
0.0000
40
0.1224
1
3
72
1
11
23.4658
21
4.4747
31
0.0000
0
TEXT
8
TABLES
10
24.4562
20
4.4747
30
0.0000
40
0.1224
1
2
72
1
11
24.4562
21
4.4747
31
0.0000
0
TEXT
8
TABLES
10
26.2991
20
4.4747
30
0.0000
40
0.1224
1
M85049/38S15W
0
TEXT
8
TABLES
10
28.6913
20
4.4747
30
0.0000
40
0.1224
1
BACKSHELL, STRAIGHT, SHELL 15
0
LINE
8
TABLES
10
23.0179
20
4.3894
30
0.0000
11
33.2500
21
4.3894
31
0.0000
0
TEXT
8
TABLES
10
23.4658
20
4.7791
30
0.0000
40
0.1224
1
4
72
1
11
23.4658
21
4.7791
31
0.0000
0
TEXT
8
TABLES
10
24.4562
20
4.7791
30
0.0000
40
0.1224
1
2
72
1
11
24.4562
21
4.7791
31
0.0000
0
TEXT
8
TABLES
10
26.2991
20
4.7791
30
0.0000
40
0.1224
1
202K153-25/225-0
0
TEXT
8
TABLES
10
28.6913
20
4.7791
30
0.0000
40
0.1224
1
BOOT, HEATSHRINK, STRAIGHT
0
POLYLINE
8
TABLES
66
1
10
0.0000
20
0.0000
30
0.0000
70
1
0
VERTEX
8
TABLES
10
32.6899
20
5.0078
30
0.0000
0
VERTEX
8
TABLES
10
32.8518
20
4.7273
30
0.0000
0
VERTEX
8
TABLES
10
32.5279
20
4.7273
30
0.0000
0
SEQEND
8
TABLES
0
TEXT
8
TABLES
10
32.6899
20
4.7497
30
0.0000
40
0.1224
1
12
72
1
11
32.6899
21
4.7497
31
0.0000
0
LINE
8
TABLES
10
23.0179
20
4.6939
30
0.0000
11
33.2500
21
4.6939
31
0.0000
0
TEXT
8
TABLES
10
23.4658
20
5.0835
30
0.0000
40
0.1224
1
5
72
1
11
23.4658
21
5.0835
31
0.0000
0
TEXT
8
TABLES
10
24.4562
20
5.0835
30
0.0000
40
0.1224
1
2
72
1
11
24.4562
21
5.0835
31
0.0000
0
TEXT
8
TABLES
10
26.2991
20
5.0835
30
0.0000
40
0.1224
1
TMS-SCE-1/2-2.0-9
0
TEXT
8
TABLES
10
28.6913
20
5.0835
30
0.0000
40
0.1224
1
SLEEVE, IDENTIFICATION, 1/2 IN
0
POLYLINE
8
TABLES
66
1
10
0.0000
20
0.0000
30
0.0000
70
1
0
VERTEX
8
TABLES
10
32.6899
20
5.3122
30
0.0000
0
VERTEX
8
TABLES
10
32.8518
20
5.0317
30
0.0000
0
VERTEX
8
TABLES
10
32.5279
20
5.0317
30
0.0000
0
SEQEND
8
TABLES
0
TEXT
8
TABLES
10
32.6899
20
5.0541
30
0.0000
40
0.1224
1
13
72
1
11
32.6899
21
5.0541
31
0.0000
0
LINE
8
TABLES
10
23.0179
20
4.9983
30
0.0000
11
33.2500
21
4.9983
31
0.0000
0
TEXT
8
TABLES
10
23.4658
20
5.3879
30
0.0000
40
0.1224
1
6
72
1
11
23.4658
21
5.3879
31
0.0000
0
TEXT
8
TABLES
10
24.4562
20
5.3879
30
0.0000
40
0.1224
1
48 IN
72
1
11
24.4562
21
5.3879
31
0.0000
0
TEXT
8
TABLES
10
26.2991
20
5.3879
30
0.0000
40
0.1224
1
M27500-22TG2T14
0
TEXT
8
TABLES
10
28.6913
20
5.3879
30
0.0000
40
0.1224
1
CABLE, SHIELDED TWISTED PAIR, 22 AWG
0
LINE
8
TABLES
10
23.0179
20
5.3027
30
0.0000
11
33.2500
21
5.3027
31
0.0000
0
TEXT
8
TABLES
10
23.4658
20
5.6923
30
0.0000
40
0.1224
1
7
72
1
11
23.4658
21
5.6923
31
0.0000
0
TEXT
8
TABLES
10
24.4562
20
5.6923
30
0.0000
40
0.1224
1
48 IN
72
1
11
24.4562
21
5.6923
31
0.0000
0
TEXT
8
TABLES
10
26.2991
20
5.6923
30
0.0000
40
0.1224
1
M22759/16-20-2
0
TEXT
8
TABLES
10
28.6913
20
5.6923
30
0.0000
40
0.1224
1
WIRE, 20 AWG, RED
0
LINE
8
TABLES
10
23.0179
20
5.6071
30
0.0000
11
33.2500
21
5.6071
31
0.0000
0
TEXT
8
TABLES
10
23.4658
20
5.9968
30
0.0000
40
0.1224
1
8
72
1
11
23.4658
21
5.9968
31
0.0000
0
TEXT
8
TABLES
10
24.4562
20
5.9968
30
0.0000
40
0.1224
1
48 IN
72
1
11
24.4562
21
5.9968
31
0.0000
0
TEXT
8
TABLES
10
26.2991
20
5.9968
30
0.0000
40
0.1224
1
M22759/16-20-0
0
TEXT
8
TABLES
10
28.6913
20
5.9968
30
0.0000
40
0.1224
1
WIRE, 20 AWG, BLK
0
LINE
8
TABLES
10
23.0179
20
5.9115
30
0.0000
11
33.2500
21
5.9115
31
0.0000
0
TEXT
8
TABLES
10
23.4658
20
6.3012
30
0.0000
40
0.1224
1
9
72
1
11
23.4658
21
6.3012
31
0.0000
0
TEXT
8
TABLES
10
24.4562
20
6.3012
30
0.0000
40
0.1224
1
AR
72
1
11
24.4562
21
6.3012
31
0.0000
0
TEXT
8
TABLES
10
26.2991
20
6.3012
30
0.0000
40
0.1224
1
M22759/16-22-9
0
TEXT
8
TABLES
10
28.6913
20
6.3012
30
0.0000
40
0.1224
1
WIRE, 22 AWG, WHT
0
LINE
8
TABLES
10
23.0179
20
6.2159
30
0.0000
11
33.2500
21
6.2159
31
0.0000
0
TEXT
8
TABLES
10
23.4658
20
6.6056
30
0.0000
40
0.1224
1
10
72
1
11
23.4658
21
6.6056
31
0.0000
0
TEXT
8
TABLES
10
24.4562
20
6.6056
30
0.0000
40
0.1224
1
48 IN
72
1
11
24.4562
21
6.6056
31
0.0000
0
TEXT
8
TABLES
10
26.2991
20
6.6056
30
0.0000
40
0.1224
1
M22759/16-22-6
0
TEXT
8
TABLES
10
28.6913
20
6.6056
30
0.0000
40
0.1224
1
WIRE, 22 AWG, BLU
0
LINE
8
TABLES
10
23.0179
20
6.5204
30
0.0000
11
33.2500
21
6.5204
31
0.0000
0
TEXT
8
TABLES
10
23.4658
20
6.9100
30
0.0000
40
0.1224
1
11
72
1
11
23.4658
21
6.9100
31
0.0000
0
TEXT
8
TABLES
10
24.4562
20
6.9100
30
0.0000
40
0.1224
1
54 IN
72
1
11
24.4562
21
6.9100
31
0.0000
0
TEXT
8
TABLES
10
26.2991
20
6.9100
30
0.0000
40
0.1224
1
M22759/16-22-0
0
TEXT
8
TABLES
10
28.6913
20
6.9100
30
0.0000
40
0.1224
1
WIRE, 22 AWG, BLK
0
LINE
8
TABLES
10
23.0179
20
6.8248
30
0.0000
11
33.2500
21
6.8248
31
0.0000
0
TEXT
8
TABLES
10
23.4658
20
7.2144
30
0.0000
40
0.1224
1
12
72
1
11
23.4658
21
7.2144
31
0.0000
0
TEXT
8
TABLES
10
24.4562
20
7.2144
30
0.0000
40
0.1224
1
48 IN
72
1
11
24.4562
21
7.2144
31
0.0000
0
TEXT
8
TABLES
10
26.2991
20
7.2144
30
0.0000
40
0.1224
1
M22759/16-20-5
0
TEXT
8
TABLES
10
28.6913
20
7.2144
30
0.0000
40
0.1224
1
WIRE, 20 AWG, GRN
0
LINE
8
TABLES
10
23.0179
20
7.1292
30
0.0000
11
33.2500
21
7.1292
31
0.0000
0
TEXT
8
TABLES
10
23.4658
20
7.5188
30
0.0000
40
0.1224
1
13
72
1
11
23.4658
21
7.5188
31
0.0000
0
TEXT
8
TABLES
10
24.4562
20
7.5188
30
0.0000
40
0.1224
1
2
72
1
11
24.4562
21
7.5188
31
0.0000
0
TEXT
8
TABLES
10
26.2991
20
7.5188
30
0.0000
40
0.1224
1
M83519/2-3
0
TEXT
8
TABLES
10
28.6913
20
7.5188
30
0.0000
40
0.1224
1
SHIELD TERMINATION, SOLDER SLEEVE
0
POLYLINE
8
TABLES
66
1
10
0.0000
20
0.0000
30
0.0000
70
1
0
VERTEX
8
TABLES
10
32.6899
20
7.7476
30
0.0000
0
VERTEX
8
TABLES
10
32.8518
20
7.4670
30
0.0000
0
VERTEX
8
TABLES
10
32.5279
20
7.4670
30
0.0000
0
SEQEND
8
TABLES
0
TEXT
8
TABLES
10
32.6899
20
7.4895
30
0.0000
40
0.1224
1
10
72
1
11
32.6899
21
7.4895
31
0.0000
0
LINE
8
TABLES
10
23.0179
20
7.4336
30
0.0000
11
33.2500
21
7.4336
31
0.0000
0
TEXT
8
TABLES
10
23.4658
20
7.8233
30
0.0000
40
0.1224
1
14
72
1
11
23.4658
21
7.8233
31
0.0000
0
TEXT
8
TABLES
10
24.4562
20
7.8233
30
0.0000
40
0.1224
1
1
72
1
11
24.4562
21
7.8233
31
0.0000
0
TEXT
8
TABLES
10
26.2991
20
7.8233
30
0.0000
40
0.1224
1
M81824/1-1
0
TEXT
8
TABLES
10
28.6913
20
7.8233
30
0.0000
40
0.1224
1
SPLICE, CRIMP, ENVIRONMENT RESISTANT
0
POLYLINE
8
TABLES
66
1
10
0.0000
20
0.0000
30
0.0000
70
1
0
VERTEX
8
TABLES
10
32.6899
20
8.0520
30
0.0000
0
VERTEX
8
TABLES
10
32.8518
20
7.7715
30
0.0000
0
VERTEX
8
TABLES
10
32.5279
20
7.7715
30
0.0000
0
SEQEND
8
TABLES
0
TEXT
8
TABLES
10
32.6899
20
7.7939
30
0.0000
40
0.1224
1
11
72
1
11
32.6899
21
7.7939
31
0.0000
0
LINE
8
TABLES
10
23.0179
20
7.7380
30
0.0000
11
33.2500
21
7.7380
31
0.0000
0
TEXT
8
TABLES
10
23.4658
20
8.1277
30
0.0000
40
0.1224
1
15
72
1
11
23.4658
21
8.1277
31
0.0000
0
TEXT
8
TABLES
10
24.4562
20
8.1277
30
0.0000
40
0.1224
1
26
72
1
11
24.4562
21
8.1277
31
0.0000
0
TEXT
8
TABLES
10
26.2991
20
8.1277
30
0.0000
40
0.1224
1
TMS-SCE-1/8-2.0-9
0
TEXT
8
TABLES
10
28.6913
20
8.1277
30
0.0000
40
0.1224
1
MARKER, WIRE, 1/8 IN
0
POLYLINE
8
TABLES
66
1
10
0.0000
20
0.0000
30
0.0000
70
1
0
VERTEX
8
TABLES
10
32.6899
20
8.3564
30
0.0000
0
VERTEX
8
TABLES
10
32.8518
20
8.0759
30
0.0000
0
VERTEX
8
TABLES
10
32.5279
20
8.0759
30
0.0000
0
SEQEND
8
TABLES
0
TEXT
8
TABLES
10
32.6899
20
8.0983
30
0.0000
40
0.1224
1
14
72
1
11
32.6899
21
8.0983
31
0.0000
0
LINE
8
TABLES
10
23.0179
20
8.0424
30
0.0000
11
33.2500
21
8.0424
31
0.0000
0
POLYLINE
8
TABLES
66
1
10
0.0000
20
0.0000
30
0.0000
70
1
0
VERTEX
8
TABLES
10
23.0179
20
8.3469
30
0.0000
0
VERTEX
8
TABLES
10
33.2500
20
8.3469
30
0.0000
0
VERTEX
8
TABLES
10
33.2500
20
3.4397
30
0.0000
0
VERTEX
8
TABLES
10
23.0179
20
3.4397
30
0.0000
0
SEQEND
8
TABLES
0
LINE
8
TABLES
10
23.9136
20
8.3469
30
0.0000
11
23.9136
21
3.4397
31
0.0000
0
LINE
8
TABLES
10
24.9988
20
8.3469
30
0.0000
11
24.9988
21
3.4397
31
0.0000
0
LINE
8
TABLES
10
26.2260
20
8.3469
30
0.0000
11
26.2260
21
3.4397
31
0.0000
0
LINE
8
TABLES
10
28.6182
20
8.3469
30
0.0000
11
28.6182
21
3.4397
31
0.0000
0
LINE
8
TABLES
10
32.4220
20
8.3469
30
0.0000
11
32.4220
21
3.4397
31
0.0000
0
CIRCLE
8
FACE_VIEWS
10
18.4605
20
5.4778
30
0.0000
40
1.0458
0
CIRCLE
8
FACE_VIEWS
10
18.4605
20
5.4778
30
0.0000
40
1.1714
0
CIRCLE
8
FACE_VIEWS
10
18.2694
20
6.2002
30
0.0000
40
0.0804
0
TEXT
8
FACE_VIEWS
10
18.1543
20
6.2770
30
0.0000
40
0.1224
1
A
72
1
11
18.1543
21
6.2770
31
0.0000
0
CIRCLE
8
FACE_VIEWS
10
17.8354
20
5.8410
30
0.0000
40
0.0804
0
TEXT
8
FACE_VIEWS
10
17.7310
20
5.9157
30
0.0000
40
0.1224
1
B
72
1
11
17.7310
21
5.9157
31
0.0000
0
CIRCLE
8
FACE_VIEWS
10
17.6263
20
5.4787
30
0.0000
40
0.0799
0
TEXT
8
FACE_VIEWS
10
17.5173
20
5.5200
30
0.0000
40
0.1224
1
C
72
1
11
17.5173
21
5.5200
31
0.0000
0
CIRCLE
8
FACE_VIEWS
10
17.8354
20
5.1162
30
0.0000
40
0.0804
0
TEXT
8
FACE_VIEWS
10
17.6975
20
5.1282
30
0.0000
40
0.1224
1
D
72
1
11
17.6975
21
5.1282
31
0.0000
0
CIRCLE
8
FACE_VIEWS
10
18.0433
20
4.7570
30
0.0000
40
0.0804
0
TEXT
8
FACE_VIEWS
10
17.9028
20
4.7520
30
0.0000
40
0.1224
1
E
72
1
11
17.9028
21
4.7520
31
0.0000
0
CIRCLE
8
FACE_VIEWS
10
18.4605
20
4.7569
30
0.0000
40
0.0797
0
TEXT
8
FACE_VIEWS
10
18.3277
20
4.7885
30
0.0000
40
0.1224
1
F
72
1
11
18.3277
21
4.7885
31
0.0000
0
CIRCLE
8
FACE_VIEWS
10
18.8776
20
4.7564
30
0.0000
40
0.0806
0
TEXT
8
FACE_VIEWS
10
19.0044
20
4.7882
30
0.0000
40
0.1224
1
G
72
1
11
19.0044
21
4.7882
31
0.0000
0
CIRCLE
8
FACE_VIEWS
10
19.0855
20
5.1161
30
0.0000
40
0.0804
0
TEXT
8
FACE_VIEWS
10
19.2159
20
5.1601
30
0.0000
40
0.1224
1
H
72
1
11
19.2159
21
5.1601
31
0.0000
0
CIRCLE
8
FACE_VIEWS
10
19.2934
20
5.4786
30
0.0000
40
0.0804
0
TEXT
8
FACE_VIEWS
10
19.4017
20
5.5476
30
0.0000
40
0.1224
1
J
72
1
11
19.4017
21
5.5476
31
0.0000
0
CIRCLE
8
FACE_VIEWS
10
19.0855
20
5.8410
30
0.0000
40
0.0804
0
TEXT
8
FACE_VIEWS
10
19.1928
20
5.9141
30
0.0000
40
0.1224
1
K
72
1
11
19.1928
21
5.9141
31
0.0000
0
CIRCLE
8
FACE_VIEWS
10
18.6900
20
6.2001
30
0.0000
40
0.0797
0
TEXT
8
FACE_VIEWS
10
18.7992
20
6.2781
30
0.0000
40
0.1224
1
L
72
1
11
18.7992
21
6.2781
31
0.0000
0
CIRCLE
8
FACE_VIEWS
10
18.6684
20
5.8412
30
0.0000
40
0.0797
0
TEXT
8
FACE_VIEWS
10
18.7906
20
5.9025
30
0.0000
40
0.1224
1
M
72
1
11
18.7906
21
5.9025
31
0.0000
0
CIRCLE
8
FACE_VIEWS
10
18.2513
20
5.8408
30
0.0000
40
0.0804
0
TEXT
8
FACE_VIEWS
10
18.1387
20
5.9151
30
0.0000
40
0.1224
1
N
72
1
11
18.1387
21
5.9151
31
0.0000
0
CIRCLE
8
FACE_VIEWS
10
18.0433
20
5.4787
30
0.0000
40
0.0804
0
TEXT
8
FACE_VIEWS
10
17.9225
20
5.5454
30
0.0000
40
0.1224
1
P
72
1
11
17.9225
21
5.5454
31
0.0000
0
CIRCLE
8
FACE_VIEWS
10
18.2513
20
5.1161
30
0.0000
40
0.0804
0
TEXT
8
FACE_VIEWS
10
18.1087
20
5.1556
30
0.0000
40
0.1224
1
R
72
1
11
18.1087
21
5.1556
31
0.0000
0
CIRCLE
8
FACE_VIEWS
10
18.6684
20
5.1164
30
0.0000
40
0.0795
0
TEXT
8
FACE_VIEWS
10
18.7889
20
5.1537
30
0.0000
40
0.1224
1
S
72
1
11
18.7889
21
5.1537
31
0.0000
0
CIRCLE
8
FACE_VIEWS
10
18.8776
20
5.4786
30
0.0000
40
0.0804
0
TEXT
8
FACE_VIEWS
10
18.9900
20
5.5270
30
0.0000
40
0.1224
1
T
72
1
11
18.9900
21
5.5270
31
0.0000
0
CIRCLE
8
FACE_VIEWS
10
18.4605
20
5.4787
30
0.0000
40
0.0798
0
TEXT
8
FACE_VIEWS
10
18.5276
20
5.5600
30
0.0000
40
0.1224
1
U
72
1
11
18.5276
21
5.5600
31
0.0000
0
TEXT
8
FACE_VIEWS
10
18.4605
20
3.9899
30
0.0000
40
0.1224
1
VIEW P1 MATING FACE
72
1
11
18.4605
21
3.9899
31
0.0000
0
TEXT
8
FACE_VIEWS
10
18.4605
20
3.7464
30
0.0000
40
0.1224
1
INSERT 15-18, KEY N
72
1
11
18.4605
21
3.7464
31
0.0000
0
TEXT
8
FACE_VIEWS
10
18.4605
20
3.5028
30
0.0000
40
0.1224
1
SOCKET CONTACTS
72
1
11
18.4605
21
3.5028
31
0.0000
0
TEXT
8
FACE_VIEWS
10
18.4605
20
3.2593
30
0.0000
40
0.1224
1
D38999/26WD18SN
72
1
11
18.4605
21
3.2593
31
0.0000
0
CIRCLE
8
FACE_VIEWS
10
21.6799
20
5.4778
30
0.0000
40
1.0458
0
CIRCLE
8
FACE_VIEWS
10
21.6799
20
5.4778
30
0.0000
40
1.1714
0
CIRCLE
8
FACE_VIEWS
10
21.8710
20
6.2002
30
0.0000
40
0.0804
0
TEXT
8
FACE_VIEWS
10
21.9861
20
6.2770
30
0.0000
40
0.1224
1
A
72
1
11
21.9861
21
6.2770
31
0.0000
0
CIRCLE
8
FACE_VIEWS
10
22.3050
20
5.8410
30
0.0000
40
0.0804
0
TEXT
8
FACE_VIEWS
10
22.4094
20
5.9157
30
0.0000
40
0.1224
1
B
72
1
11
22.4094
21
5.9157
31
0.0000
0
CIRCLE
8
FACE_VIEWS
10
22.5141
20
5.4787
30
0.0000
40
0.0799
0
TEXT
8
FACE_VIEWS
10
22.6231
20
5.5200
30
0.0000
40
0.1224
1
C
72
1
11
22.6231
21
5.5200
31
0.0000
0
CIRCLE
8
FACE_VIEWS
10
22.3050
20
5.1162
30
0.0000
40
0.0804
0
TEXT
8
FACE_VIEWS
10
22.4429
20
5.1282
30
0.0000
40
0.1224
1
D
72
1
11
22.4429
21
5.1282
31
0.0000
0
CIRCLE
8
FACE_VIEWS
10
22.0971
20
4.7570
30
0.0000
40
0.0804
0
TEXT
8
FACE_VIEWS
10
22.2376
20
4.7520
30
0.0000
40
0.1224
1
E
72
1
11
22.2376
21
4.7520
31
0.0000
0
CIRCLE
8
FACE_VIEWS
10
21.6799
20
4.7569
30
0.0000
40
0.0797
0
TEXT
8
FACE_VIEWS
10
21.8127
20
4.7885
30
0.0000
40
0.1224
1
F
72
1
11
21.8127
21
4.7885
31
0.0000
0
CIRCLE
8
FACE_VIEWS
10
21.2628
20
4.7564
30
0.0000
40
0.0806
0
TEXT
8
FACE_VIEWS
10
21.1360
20
4.7882
30
0.0000
40
0.1224
1
G
72
1
11
21.1360
21
4.7882
31
0.0000
0
CIRCLE
8
FACE_VIEWS
10
21.0549
20
5.1161
30
0.0000
40
0.0804
0
TEXT
8
FACE_VIEWS
10
20.9245
20
5.1601
30
0.0000
40
0.1224
1
H
72
1
11
20.9245
21
5.1601
31
0.0000
0
CIRCLE
8
FACE_VIEWS
10
20.8470
20
5.4786
30
0.0000
40
0.0804
0
TEXT
8
FACE_VIEWS
10
20.7388
20
5.5476
30
0.0000
40
0.1224
1
J
72
1
11
20.7388
21
5.5476
31
0.0000
0
CIRCLE
8
FACE_VIEWS
10
21.0549
20
5.8410
30
0.0000
40
0.0804
0
TEXT
8
FACE_VIEWS
10
20.9476
20
5.9141
30
0.0000
40
0.1224
1
K
72
1
11
20.9476
21
5.9141
31
0.0000
0
CIRCLE
8
FACE_VIEWS
10
21.4505
20
6.2001
30
0.0000
40
0.0797
0
TEXT
8
FACE_VIEWS
10
21.3412
20
6.2781
30
0.0000
40
0.1224
1
L
72
1
11
21.3412
21
6.2781
31
0.0000
0
CIRCLE
8
FACE_VIEWS
10
21.4720
20
5.8412
30
0.0000
40
0.0797
0
TEXT
8
FACE_VIEWS
10
21.3498
20
5.9025
30
0.0000
40
0.1224
1
M
72
1
11
21.3498
21
5.9025
31
0.0000
0
CIRCLE
8
FACE_VIEWS
10
21.8891
20
5.8408
30
0.0000
40
0.0804
0
TEXT
8
FACE_VIEWS
10
22.0017
20
5.9151
30
0.0000
40
0.1224
1
N
72
1
11
22.0017
21
5.9151
31
0.0000
0
CIRCLE
8
FACE_VIEWS
10
22.0971
20
5.4787
30
0.0000
40
0.0804
0
TEXT
8
FACE_VIEWS
10
22.2179
20
5.5454
30
0.0000
40
0.1224
1
P
72
1
11
22.2179
21
5.5454
31
0.0000
0
CIRCLE
8
FACE_VIEWS
10
21.8891
20
5.1161
30
0.0000
40
0.0804
0
TEXT
8
FACE_VIEWS
10
22.0317
20
5.1556
30
0.0000
40
0.1224
1
R
72
1
11
22.0317
21
5.1556
31
0.0000
0
CIRCLE
8
FACE_VIEWS
10
21.4720
20
5.1164
30
0.0000
40
0.0795
0
TEXT
8
FACE_VIEWS
10
21.3515
20
5.1537
30
0.0000
40
0.1224
1
S
72
1
11
21.3515
21
5.1537
31
0.0000
0
CIRCLE
8
FACE_VIEWS
10
21.2628
20
5.4786
30
0.0000
40
0.0804
0
TEXT
8
FACE_VIEWS
10
21.1504
20
5.5270
30
0.0000
40
0.1224
1
T
72
1
11
21.1504
21
5.5270
31
0.0000
0
CIRCLE
8
FACE_VIEWS
10
21.6799
20
5.4787
30
0.0000
40
0.0798
0
TEXT
8
FACE_VIEWS
10
21.6128
20
5.5600
30
0.0000
40
0.1224
1
U
72
1
11
21.6128
21
5.5600
31
0.0000
0
TEXT
8
FACE_VIEWS
10
21.6799
20
3.9899
30
0.0000
40
0.1224
1
VIEW P2 MATING FACE
72
1
11
21.6799
21
3.9899
31
0.0000
0
TEXT
8
FACE_VIEWS
10
21.6799
20
3.7464
30
0.0000
40
0.1224
1
INSERT 15-18, KEY N
72
1
11
21.6799
21
3.7464
31
0.0000
0
TEXT
8
FACE_VIEWS
10
21.6799
20
3.5028
30
0.0000
40
0.1224
1
PIN CONTACTS
72
1
11
21.6799
21
3.5028
31
0.0000
0
TEXT
8
FACE_VIEWS
10
21.6799
20
3.2593
30
0.0000
40
0.1224
1
D38999/26WD18PN
72
1
11
21.6799
21
3.2593
31
0.0000
0
TEXT
8
NOTES
10
0.9167
20
7.9438
30
0.0000
40
0.1399
1
NOTES:
0
TEXT
8
NOTES
10
0.9167
20
7.5785
30
0.0000
40
0.1224
1
1.
0
TEXT
8
NOTES
10
1.4037
20
7.5785
30
0.0000
40
0.1224
1
INTERPRET DRAWING PER ASME Y14.100.
0
TEXT
8
NOTES
10
0.9167
20
7.2619
30
0.0000
40
0.1224
1
2.
0
TEXT
8
NOTES
10
1.4037
20
7.2619
30
0.0000
40
0.1224
1
DIMENSIONS ARE IN INCHES. LENGTH TOLERANCE %%p0.5 IN.
0
TEXT
8
NOTES
10
0.9167
20
6.9453
30
0.0000
40
0.1224
1
3.
0
TEXT
8
NOTES
10
1.4037
20
6.9453
30
0.0000
40
0.1224
1
WIRE PER WIRE LIST. TERMINATE CONTACTS PER CONNECTOR MANUFACTURER'S INSTRUCTIONS.
0
TEXT
8
NOTES
10
0.9167
20
6.6287
30
0.0000
40
0.1224
1
4.
0
TEXT
8
NOTES
10
1.4037
20
6.6287
30
0.0000
40
0.1224
1
100% CONTINUITY AND ISOLATION TEST PER WIRE LIST.
0
TEXT
8
NOTES
10
0.9167
20
6.3121
30
0.0000
40
0.1224
1
5.
0
TEXT
8
NOTES
10
1.4037
20
6.3121
30
0.0000
40
0.1224
1
WIRING DIAGRAM ON SHEET 2. WIRE LIST, WIRE GROUPS, SPLICES AND LABEL SCHEDULE ON SHEET 3.
0
TEXT
8
NOTES
10
0.9167
20
5.9955
30
0.0000
40
0.1224
1
6.
0
TEXT
8
NOTES
10
1.4037
20
5.9955
30
0.0000
40
0.1224
1
CONTACTS (M39029/56-351, M39029/58-363) ARE SUPPLIED WITH CONNECTORS (FIND NOS. 1, 2); DO NOT ORDER SEPARATELY.
0
TEXT
8
NOTES
10
0.9167
20
5.6789
30
0.0000
40
0.1224
1
7.
0
TEXT
8
NOTES
10
1.4037
20
5.6789
30
0.0000
40
0.1224
1
CONNECTOR FACE VIEWS SHOW THE MATING FACE PER MIL-STD-1560 (SOCKET INSERTS MIRRORED). FILLED CAVITIES ARE WIRED; UNFILLED CAVITIES ARE UNUSED. MASTER
0
TEXT
8
NOTES
10
1.4037
20
5.4354
30
0.0000
40
0.1224
1
KEYWAY NOT SHOWN.
0
TEXT
8
NOTES
10
0.9167
20
5.1188
30
0.0000
40
0.1224
1
8.
0
TEXT
8
NOTES
10
1.4037
20
5.1188
30
0.0000
40
0.1224
1
TWIST THE WIRES OF EACH TWISTED GROUP TOGETHER OVER THEIR FULL LENGTH (SEE WIRE GROUPS TABLE).
0
TEXT
8
NOTES
10
0.9167
20
4.8022
30
0.0000
40
0.1224
1
9.
0
TEXT
8
NOTES
10
1.4037
20
4.8022
30
0.0000
40
0.1224
1
CALCULATED BUNDLE DIAMETER AT CONNECTORS (REF): P1 0.257 IN, P2 0.257 IN.
0
POLYLINE
8
NOTES
66
1
10
0.0000
20
0.0000
30
0.0000
70
1
0
VERTEX
8
NOTES
10
1.0628
20
4.7204
30
0.0000
0
VERTEX
8
NOTES
10
1.2247
20
4.4399
30
0.0000
0
VERTEX
8
NOTES
10
0.9008
20
4.4399
30
0.0000
0
SEQEND
8
NOTES
0
TEXT
8
NOTES
10
1.0628
20
4.4623
30
0.0000
40
0.1224
1
10
72
1
11
1.0628
21
4.4623
31
0.0000
0
TEXT
8
NOTES
10
1.4037
20
4.4856
30
0.0000
40
0.1224
1
TERMINATE SHIELDS PER WIRE GROUPS TABLE USING FIND NO. 13. INSULATE FLOATING SHIELD ENDS.
0
POLYLINE
8
NOTES
66
1
10
0.0000
20
0.0000
30
0.0000
70
1
0
VERTEX
8
NOTES
10
1.0628
20
4.4038
30
0.0000
0
VERTEX
8
NOTES
10
1.2247
20
4.1233
30
0.0000
0
VERTEX
8
NOTES
10
0.9008
20
4.1233
30
0.0000
0
SEQEND
8
NOTES
0
TEXT
8
NOTES
10
1.0628
20
4.1457
30
0.0000
40
0.1224
1
11
72
1
11
1.0628
21
4.1457
31
0.0000
0
TEXT
8
NOTES
10
1.4037
20
4.1690
30
0.0000
40
0.1224
1
INSTALL SPLICE (FIND NO. 14) AT LOCATION SHOWN; SEE SPLICE TABLE.
0
POLYLINE
8
NOTES
66
1
10
0.0000
20
0.0000
30
0.0000
70
1
0
VERTEX
8
NOTES
10
1.0628
20
4.0872
30
0.0000
0
VERTEX
8
NOTES
10
1.2247
20
3.8067
30
0.0000
0
VERTEX
8
NOTES
10
0.9008
20
3.8067
30
0.0000
0
SEQEND
8
NOTES
0
TEXT
8
NOTES
10
1.0628
20
3.8292
30
0.0000
40
0.1224
1
12
72
1
11
1.0628
21
3.8292
31
0.0000
0
TEXT
8
NOTES
10
1.4037
20
3.8524
30
0.0000
40
0.1224
1
RECOVER HEATSHRINK BOOT (FIND NO. 4) OVER BACKSHELL CABLE CLAMP.
0
POLYLINE
8
NOTES
66
1
10
0.0000
20
0.0000
30
0.0000
70
1
0
VERTEX
8
NOTES
10
1.0628
20
3.7706
30
0.0000
0
VERTEX
8
NOTES
10
1.2247
20
3.4901
30
0.0000
0
VERTEX
8
NOTES
10
0.9008
20
3.4901
30
0.0000
0
SEQEND
8
NOTES
0
TEXT
8
NOTES
10
1.0628
20
3.5126
30
0.0000
40
0.1224
1
13
72
1
11
1.0628
21
3.5126
31
0.0000
0
TEXT
8
NOTES
10
1.4037
20
3.5358
30
0.0000
40
0.1224
1
INSTALL IDENTIFICATION LABEL (FIND NO. 5) ADJACENT TO CONNECTOR; MARK PER LABEL SCHEDULE.
0
POLYLINE
8
NOTES
66
1
10
0.0000
20
0.0000
30
0.0000
70
1
0
VERTEX
8
NOTES
10
1.0628
20
3.4540
30
0.0000
0
VERTEX
8
NOTES
10
1.2247
20
3.1735
30
0.0000
0
VERTEX
8
NOTES
10
0.9008
20
3.1735
30
0.0000
0
SEQEND
8
NOTES
0
TEXT
8
NOTES
10
1.0628
20
3.1960
30
0.0000
40
0.1224
1
14
72
1
11
1.0628
21
3.1960
31
0.0000
0
TEXT
8
NOTES
10
1.4037
20
3.2192
30
0.0000
40
0.1224
1
INSTALL WIRE MARKER (FIND NO. 15) AT EACH END OF EACH WIRE; MARK WITH WIRE ID.
0
TEXT
8
0
10
0.9167
20
20.4129
30
0.0000
40
0.1224
1
ASSEMBLY VIEW (NOT TO SCALE)
0
POLYLINE
8
CABLE
66
1
10
0.0000
20
0.0000
30
0.0000
70
0
0
VERTEX
8
CABLE
10
9.9618
20
13.8738
30
0.0000
0
VERTEX
8
CABLE
10
16.8294
20
13.8738
30
0.0000
0
SEQEND
8
CABLE
0
POLYLINE
8
CABLE
66
1
10
0.0000
20
0.0000
30
0.0000
70
0
0
VERTEX
8
CABLE
10
9.9618
20
14.3852
30
0.0000
0
VERTEX
8
CABLE
10
16.8294
20
14.3852
30
0.0000
0
SEQEND
8
CABLE
0
POLYLINE
8
CABLE
66
1
10
0.0000
20
0.0000
30
0.0000
70
0
0
VERTEX
8
CABLE
10
23.6971
20
14.3852
30
0.0000
0
VERTEX
8
CABLE
10
16.8294
20
14.3852
30
0.0000
0
SEQEND
8
CABLE
0
POLYLINE
8
CABLE
66
1
10
0.0000
20
0.0000
30
0.0000
70
0
0
VERTEX
8
CABLE
10
23.6971
20
13.8738
30
0.0000
0
VERTEX
8
CABLE
10
16.8294
20
13.8738
30
0.0000
0
SEQEND
8
CABLE
0
LINE
8
ASSEMBLY
10
15.8833
20
13.7642
30
0.0000
11
16.1025
21
14.4948
31
0.0000
0
LINE
8
ASSEMBLY
10
16.1756
20
13.7642
30
0.0000
11
16.3947
21
14.4948
31
0.0000
0
POLYLINE
8
ASSEMBLY
66
1
10
0.0000
20
0.0000
30
0.0000
70
1
0
VERTEX
8
ASSEMBLY
10
4.3362
20
15.2619
30
0.0000
0
VERTEX
8
ASSEMBLY
10
4.9937
20
15.2619
30
0.0000
0
VERTEX
8
ASSEMBLY
10
4.9937
20
12.9970
30
0.0000
0
VERTEX
8
ASSEMBLY
10
4.3362
20
12.9970
30
0.0000
0
SEQEND
8
ASSEMBLY
0
LINE
8
ASSEMBLY
10
4.5006
20
15.2619
30
0.0000
11
4.5006
21
12.9970
31
0.0000
0
LINE
8
ASSEMBLY
10
4.6649
20
15.2619
30
0.0000
11
4.6649
21
12.9970
31
0.0000
0
LINE
8
ASSEMBLY
10
4.8293
20
15.2619
30
0.0000
11
4.8293
21
12.9970
31
0.0000
0
POLYLINE
8
ASSEMBLY
66
1
10
0.0000
20
0.0000
30
0.0000
70
1
0
VERTEX
8
ASSEMBLY
10
4.9937
20
15.0793
30
0.0000
0
VERTEX
8
ASSEMBLY
10
6.3818
20
15.0793
30
0.0000
0
VERTEX
8
ASSEMBLY
10
6.3818
20
13.1797
30
0.0000
0
VERTEX
8
ASSEMBLY
10
4.9937
20
13.1797
30
0.0000
0
SEQEND
8
ASSEMBLY
0
TEXT
8
ASSEMBLY
10
5.6878
20
13.9834
30
0.0000
40
0.2885
1
P1
72
1
11
5.6878
21
13.9834
31
0.0000
0
POLYLINE
8
ASSEMBLY
66
1
10
0.0000
20
0.0000
30
0.0000
70
1
0
VERTEX
8
ASSEMBLY
10
6.3818
20
14.8966
30
0.0000
0
VERTEX
8
ASSEMBLY
10
8.1353
20
14.4948
30
0.0000
0
VERTEX
8
ASSEMBLY
10
8.1353
20
13.7642
30
0.0000
0
VERTEX
8
ASSEMBLY
10
6.3818
20
13.3623
30
0.0000
0
SEQEND
8
ASSEMBLY
0
LINE
8
ASSEMBLY
10
6.6741
20
14.8345
30
0.0000
11
6.6741
21
13.4244
31
0.0000
0
POLYLINE
8
ASSEMBLY
66
1
10
0.0000
20
0.0000
30
0.0000
70
1
0
VERTEX
8
ASSEMBLY
10
7.3316
20
14.6044
30
0.0000
0
VERTEX
8
ASSEMBLY
10
9.5234
20
14.6044
30
0.0000
0
VERTEX
8
ASSEMBLY
10
9.5234
20
13.6546
30
0.0000
0
VERTEX
8
ASSEMBLY
10
7.3316
20
13.6546
30
0.0000
0
SEQEND
8
ASSEMBLY
0
POLYLINE
8
ASSEMBLY
66
1
10
0.0000
20
0.0000
30
0.0000
70
1
0
VERTEX
8
ASSEMBLY
10
10.1079
20
14.4948
30
0.0000
0
VERTEX
8
ASSEMBLY
10
12.2267
20
14.4948
30
0.0000
0
VERTEX
8
ASSEMBLY
10
12.2267
20
13.7642
30
0.0000
0
VERTEX
8
ASSEMBLY
10
10.1079
20
13.7642
30
0.0000
0
SEQEND
8
ASSEMBLY
0
TEXT
8
ASSEMBLY
10
11.1673
20
14.0381
30
0.0000
40
0.1836
1
W101-P1
72
1
11
11.1673
21
14.0381
31
0.0000
0
CIRCLE
8
ASSEMBLY
10
5.6878
20
16.5405
30
0.0000
40
0.3288
0
TEXT
8
ASSEMBLY
10
5.6878
20
16.4491
30
0.0000
40
0.1836
1
1
72
1
11
5.6878
21
16.4491
31
0.0000
0
LINE
8
ASSEMBLY
10
5.6878
20
16.2117
30
0.0000
11
5.6878
21
15.0793
31
0.0000
0
CIRCLE
8
ASSEMBLY
10
5.6878
20
15.0793
30
0.0000
40
0.0511
0
CIRCLE
8
ASSEMBLY
10
6.8933
20
16.5405
30
0.0000
40
0.3288
0
TEXT
8
ASSEMBLY
10
6.8933
20
16.4491
30
0.0000
40
0.1836
1
3
72
1
11
6.8933
21
16.4491
31
0.0000
0
LINE
8
ASSEMBLY
10
6.8933
20
16.2117
30
0.0000
11
6.8933
21
14.7870
31
0.0000
0
CIRCLE
8
ASSEMBLY
10
6.8933
20
14.7870
30
0.0000
40
0.0511
0
CIRCLE
8
ASSEMBLY
10
8.6467
20
16.5405
30
0.0000
40
0.3288
0
TEXT
8
ASSEMBLY
10
8.6467
20
16.4491
30
0.0000
40
0.1836
1
4
72
1
11
8.6467
21
16.4491
31
0.0000
0
LINE
8
ASSEMBLY
10
8.6467
20
16.2117
30
0.0000
11
8.6467
21
14.6044
31
0.0000
0
CIRCLE
8
ASSEMBLY
10
8.6467
20
14.6044
30
0.0000
40
0.0511
0
POLYLINE
8
ASSEMBLY
66
1
10
0.0000
20
0.0000
30
0.0000
70
1
0
VERTEX
8
ASSEMBLY
10
9.3043
20
16.8013
30
0.0000
0
VERTEX
8
ASSEMBLY
10
9.5472
20
16.3806
30
0.0000
0
VERTEX
8
ASSEMBLY
10
9.0613
20
16.3806
30
0.0000
0
SEQEND
8
ASSEMBLY
0
TEXT
8
ASSEMBLY
10
9.3043
20
16.4142
30
0.0000
40
0.1836
1
12
72
1
11
9.3043
21
16.4142
31
0.0000
0
CIRCLE
8
ASSEMBLY
10
11.1673
20
16.5405
30
0.0000
40
0.3288
0
TEXT
8
ASSEMBLY
10
11.1673
20
16.4491
30
0.0000
40
0.1836
1
5
72
1
11
11.1673
21
16.4491
31
0.0000
0
LINE
8
ASSEMBLY
10
11.1673
20
16.2117
30
0.0000
11
11.1673
21
14.4948
31
0.0000
0
CIRCLE
8
ASSEMBLY
10
11.1673
20
14.4948
30
0.0000
40
0.0511
0
POLYLINE
8
ASSEMBLY
66
1
10
0.0000
20
0.0000
30
0.0000
70
1
0
VERTEX
8
ASSEMBLY
10
11.8248
20
16.8013
30
0.0000
0
VERTEX
8
ASSEMBLY
10
12.0678
20
16.3806
30
0.0000
0
VERTEX
8
ASSEMBLY
10
11.5819
20
16.3806
30
0.0000
0
SEQEND
8
ASSEMBLY
0
TEXT
8
ASSEMBLY
10
11.8248
20
16.4142
30
0.0000
40
0.1836
1
13
72
1
11
11.8248
21
16.4142
31
0.0000
0
TEXT
8
ASSEMBLY
10
4.1170
20
14.1843
30
0.0000
40
0.1836
1
TO FLIGHT
72
2
11
4.1170
21
14.1843
31
0.0000
0
TEXT
8
ASSEMBLY
10
4.1170
20
13.8555
30
0.0000
40
0.1836
1
COMPUTER J3
72
2
11
4.1170
21
13.8555
31
0.0000
0
CIRCLE
8
ASSEMBLY
10
13.3226
20
15.9377
30
0.0000
40
0.3288
0
TEXT
8
ASSEMBLY
10
13.3226
20
15.8464
30
0.0000
40
0.1836
1
6
72
1
11
13.3226
21
15.8464
31
0.0000
0
LINE
8
ASSEMBLY
10
13.2332
20
15.6213
30
0.0000
11
12.8842
21
14.3852
31
0.0000
0
CIRCLE
8
ASSEMBLY
10
12.8842
20
14.3852
30
0.0000
40
0.0511
0
CIRCLE
8
ASSEMBLY
10
13.9801
20
15.9377
30
0.0000
40
0.3288
0
TEXT
8
ASSEMBLY
10
13.9801
20
15.8464
30
0.0000
40
0.1836
1
7
72
1
11
13.9801
21
15.8464
31
0.0000
0
CIRCLE
8
ASSEMBLY
10
14.6376
20
15.9377
30
0.0000
40
0.3288
0
TEXT
8
ASSEMBLY
10
14.6376
20
15.8464
30
0.0000
40
0.1836
1
8
72
1
11
14.6376
21
15.8464
31
0.0000
0
CIRCLE
8
ASSEMBLY
10
15.2952
20
15.9377
30
0.0000
40
0.3288
0
TEXT
8
ASSEMBLY
10
15.2952
20
15.8464
30
0.0000
40
0.1836
1
9
72
1
11
15.2952
21
15.8464
31
0.0000
0
CIRCLE
8
ASSEMBLY
10
13.3226
20
16.5953
30
0.0000
40
0.3288
0
TEXT
8
ASSEMBLY
10
13.3226
20
16.5039
30
0.0000
40
0.1836
1
10
72
1
11
13.3226
21
16.5039
31
0.0000
0
CIRCLE
8
ASSEMBLY
10
13.9801
20
16.5953
30
0.0000
40
0.3288
0
TEXT
8
ASSEMBLY
10
13.9801
20
16.5039
30
0.0000
40
0.1836
1
11
72
1
11
13.9801
21
16.5039
31
0.0000
0
CIRCLE
8
ASSEMBLY
10
14.6376
20
16.5953
30
0.0000
40
0.3288
0
TEXT
8
ASSEMBLY
10
14.6376
20
16.5039
30
0.0000
40
0.1836
1
12
72
1
11
14.6376
21
16.5039
31
0.0000
0
CIRCLE
8
ASSEMBLY
10
15.2952
20
16.5953
30
0.0000
40
0.3288
0
TEXT
8
ASSEMBLY
10
15.2952
20
16.5039
30
0.0000
40
0.1836
1
13
72
1
11
15.2952
21
16.5039
31
0.0000
0
POLYLINE
8
ASSEMBLY
66
1
10
0.0000
20
0.0000
30
0.0000
70
1
0
VERTEX
8
ASSEMBLY
10
15.9527
20
16.8561
30
0.0000
0
VERTEX
8
ASSEMBLY
10
16.1956
20
16.4354
30
0.0000
0
VERTEX
8
ASSEMBLY
10
15.7098
20
16.4354
30
0.0000
0
SEQEND
8
ASSEMBLY
0
TEXT
8
ASSEMBLY
10
15.9527
20
16.4690
30
0.0000
40
0.1836
1
10
72
1
11
15.9527
21
16.4690
31
0.0000
0
CIRCLE
8
ASSEMBLY
10
13.3226
20
17.2528
30
0.0000
40
0.3288
0
TEXT
8
ASSEMBLY
10
13.3226
20
17.1615
30
0.0000
40
0.1836
1
15
72
1
11
13.3226
21
17.1615
31
0.0000
0
POLYLINE
8
ASSEMBLY
66
1
10
0.0000
20
0.0000
30
0.0000
70
1
0
VERTEX
8
ASSEMBLY
10
13.9801
20
17.5137
30
0.0000
0
VERTEX
8
ASSEMBLY
10
14.2230
20
17.0929
30
0.0000
0
VERTEX
8
ASSEMBLY
10
13.7372
20
17.0929
30
0.0000
0
SEQEND
8
ASSEMBLY
0
TEXT
8
ASSEMBLY
10
13.9801
20
17.1266
30
0.0000
40
0.1836
1
14
72
1
11
13.9801
21
17.1266
31
0.0000
0
LINE
8
ASSEMBLY
10
17.2641
20
13.7642
30
0.0000
11
17.4833
21
14.4948
31
0.0000
0
LINE
8
ASSEMBLY
10
17.5564
20
13.7642
30
0.0000
11
17.7756
21
14.4948
31
0.0000
0
POLYLINE
8
ASSEMBLY
66
1
10
0.0000
20
0.0000
30
0.0000
70
1
0
VERTEX
8
ASSEMBLY
10
28.6652
20
15.2619
30
0.0000
0
VERTEX
8
ASSEMBLY
10
29.3227
20
15.2619
30
0.0000
0
VERTEX
8
ASSEMBLY
10
29.3227
20
12.9970
30
0.0000
0
VERTEX
8
ASSEMBLY
10
28.6652
20
12.9970
30
0.0000
0
SEQEND
8
ASSEMBLY
0
LINE
8
ASSEMBLY
10
29.1583
20
15.2619
30
0.0000
11
29.1583
21
12.9970
31
0.0000
0
LINE
8
ASSEMBLY
10
28.9939
20
15.2619
30
0.0000
11
28.9939
21
12.9970
31
0.0000
0
LINE
8
ASSEMBLY
10
28.8296
20
15.2619
30
0.0000
11
28.8296
21
12.9970
31
0.0000
0
POLYLINE
8
ASSEMBLY
66
1
10
0.0000
20
0.0000
30
0.0000
70
1
0
VERTEX
8
ASSEMBLY
10
27.2770
20
15.0793
30
0.0000
0
VERTEX
8
ASSEMBLY
10
28.6652
20
15.0793
30
0.0000
0
VERTEX
8
ASSEMBLY
10
28.6652
20
13.1797
30
0.0000
0
VERTEX
8
ASSEMBLY
10
27.2770
20
13.1797
30
0.0000
0
SEQEND
8
ASSEMBLY
0
TEXT
8
ASSEMBLY
10
27.9711
20
13.9834
30
0.0000
40
0.2885
1
P2
72
1
11
27.9711
21
13.9834
31
0.0000
0
POLYLINE
8
ASSEMBLY
66
1
10
0.0000
20
0.0000
30
0.0000
70
1
0
VERTEX
8
ASSEMBLY
10
27.2770
20
14.8966
30
0.0000
0
VERTEX
8
ASSEMBLY
10
25.5236
20
14.4948
30
0.0000
0
VERTEX
8
ASSEMBLY
10
25.5236
20
13.7642
30
0.0000
0
VERTEX
8
ASSEMBLY
10
27.2770
20
13.3623
30
0.0000
0
SEQEND
8
ASSEMBLY
0
LINE
8
ASSEMBLY
10
26.9848
20
14.8345
30
0.0000
11
26.9848
21
13.4244
31
0.0000
0
POLYLINE
8
ASSEMBLY
66
1
10
0.0000
20
0.0000
30
0.0000
70
1
0
VERTEX
8
ASSEMBLY
10
24.1354
20
14.6044
30
0.0000
0
VERTEX
8
ASSEMBLY
10
26.3273
20
14.6044
30
0.0000
0
VERTEX
8
ASSEMBLY
10
26.3273
20
13.6546
30
0.0000
0
VERTEX
8
ASSEMBLY
10
24.1354
20
13.6546
30
0.0000
0
SEQEND
8
ASSEMBLY
0
POLYLINE
8
ASSEMBLY
66
1
10
0.0000
20
0.0000
30
0.0000
70
1
0
VERTEX
8
ASSEMBLY
10
21.4322
20
14.4948
30
0.0000
0
VERTEX
8
ASSEMBLY
10
23.5510
20
14.4948
30
0.0000
0
VERTEX
8
ASSEMBLY
10
23.5510
20
13.7642
30
0.0000
0
VERTEX
8
ASSEMBLY
10
21.4322
20
13.7642
30
0.0000
0
SEQEND
8
ASSEMBLY
0
TEXT
8
ASSEMBLY
10
22.4916
20
14.0381
30
0.0000
40
0.1836
1
W101-P2
72
1
11
22.4916
21
14.0381
31
0.0000
0
CIRCLE
8
ASSEMBLY
10
27.9711
20
16.5405
30
0.0000
40
0.3288
0
TEXT
8
ASSEMBLY
10
27.9711
20
16.4491
30
0.0000
40
0.1836
1
2
72
1
11
27.9711
21
16.4491
31
0.0000
0
LINE
8
ASSEMBLY
10
27.9711
20
16.2117
30
0.0000
11
27.9711
21
15.0793
31
0.0000
0
CIRCLE
8
ASSEMBLY
10
27.9711
20
15.0793
30
0.0000
40
0.0511
0
CIRCLE
8
ASSEMBLY
10
26.7656
20
16.5405
30
0.0000
40
0.3288
0
TEXT
8
ASSEMBLY
10
26.7656
20
16.4491
30
0.0000
40
0.1836
1
3
72
1
11
26.7656
21
16.4491
31
0.0000
0
LINE
8
ASSEMBLY
10
26.7656
20
16.2117
30
0.0000
11
26.7656
21
14.7870
31
0.0000
0
CIRCLE
8
ASSEMBLY
10
26.7656
20
14.7870
30
0.0000
40
0.0511
0
CIRCLE
8
ASSEMBLY
10
25.0122
20
16.5405
30
0.0000
40
0.3288
0
TEXT
8
ASSEMBLY
10
25.0122
20
16.4491
30
0.0000
40
0.1836
1
4
72
1
11
25.0122
21
16.4491
31
0.0000
0
LINE
8
ASSEMBLY
10
25.0122
20
16.2117
30
0.0000
11
25.0122
21
14.6044
31
0.0000
0
CIRCLE
8
ASSEMBLY
10
25.0122
20
14.6044
30
0.0000
40
0.0511
0
POLYLINE
8
ASSEMBLY
66
1
10
0.0000
20
0.0000
30
0.0000
70
1
0
VERTEX
8
ASSEMBLY
10
24.3546
20
16.8013
30
0.0000
0
VERTEX
8
ASSEMBLY
10
24.5976
20
16.3806
30
0.0000
0
VERTEX
8
ASSEMBLY
10
24.1117
20
16.3806
30
0.0000
0
SEQEND
8
ASSEMBLY
0
TEXT
8
ASSEMBLY
10
24.3546
20
16.4142
30
0.0000
40
0.1836
1
12
72
1
11
24.3546
21
16.4142
31
0.0000
0
CIRCLE
8
ASSEMBLY
10
22.4916
20
16.5405
30
0.0000
40
0.3288
0
TEXT
8
ASSEMBLY
10
22.4916
20
16.4491
30
0.0000
40
0.1836
1
5
72
1
11
22.4916
21
16.4491
31
0.0000
0
LINE
8
ASSEMBLY
10
22.4916
20
16.2117
30
0.0000
11
22.4916
21
14.4948
31
0.0000
0
CIRCLE
8
ASSEMBLY
10
22.4916
20
14.4948
30
0.0000
40
0.0511
0
POLYLINE
8
ASSEMBLY
66
1
10
0.0000
20
0.0000
30
0.0000
70
1
0
VERTEX
8
ASSEMBLY
10
21.8341
20
16.8013
30
0.0000
0
VERTEX
8
ASSEMBLY
10
22.0770
20
16.3806
30
0.0000
0
VERTEX
8
ASSEMBLY
10
21.5911
20
16.3806
30
0.0000
0
SEQEND
8
ASSEMBLY
0
TEXT
8
ASSEMBLY
10
21.8341
20
16.4142
30
0.0000
40
0.1836
1
13
72
1
11
21.8341
21
16.4142
31
0.0000
0
TEXT
8
ASSEMBLY
10
29.5419
20
14.1843
30
0.0000
40
0.1836
1
TO POWER
0
TEXT
8
ASSEMBLY
10
29.5419
20
13.8555
30
0.0000
40
0.1836
1
DISTRIBUTION J7
0
POLYLINE
8
ASSEMBLY
66
1
10
0.0000
20
0.0000
30
0.0000
70
1
0
VERTEX
8
ASSEMBLY
10
19.9893
20
14.4948
30
0.0000
0
VERTEX
8
ASSEMBLY
10
20.5738
20
14.4948
30
0.0000
0
VERTEX
8
ASSEMBLY
10
20.5738
20
13.7642
30
0.0000
0
VERTEX
8
ASSEMBLY
10
19.9893
20
13.7642
30
0.0000
0
SEQEND
8
ASSEMBLY
0
CIRCLE
8
ASSEMBLY
10
20.2815
20
15.3715
30
0.0000
40
0.3288
0
TEXT
8
ASSEMBLY
10
20.2815
20
15.2802
30
0.0000
40
0.1836
1
14
72
1
11
20.2815
21
15.2802
31
0.0000
0
LINE
8
ASSEMBLY
10
20.2815
20
15.0427
30
0.0000
11
20.2815
21
14.4948
31
0.0000
0
CIRCLE
8
ASSEMBLY
10
20.2815
20
14.4948
30
0.0000
40
0.0511
0
POLYLINE
8
ASSEMBLY
66
1
10
0.0000
20
0.0000
30
0.0000
70
1
0
VERTEX
8
ASSEMBLY
10
20.9391
20
15.6324
30
0.0000
0
VERTEX
8
ASSEMBLY
10
21.1820
20
15.2116
30
0.0000
0
VERTEX
8
ASSEMBLY
10
20.6961
20
15.2116
30
0.0000
0
SEQEND
8
ASSEMBLY
0
TEXT
8
ASSEMBLY
10
20.9391
20
15.2453
30
0.0000
40
0.1836
1
11
72
1
11
20.9391
21
15.2453
31
0.0000
0
TEXT
8
ASSEMBLY
10
19.7701
20
15.2619
30
0.0000
40
0.1836
1
SP1
72
2
11
19.7701
21
15.2619
31
0.0000
0
LINE
8
ASSEMBLY
10
29.3227
20
12.8875
30
0.0000
11
29.3227
21
12.3030
31
0.0000
0
LINE
8
ASSEMBLY
10
20.2815
20
13.6911
30
0.0000
11
20.2815
21
12.3030
31
0.0000
0
LINE
8
ASSEMBLY
10
20.2815
20
12.4491
30
0.0000
11
29.3227
21
12.4491
31
0.0000
0
SOLID
8
ASSEMBLY
10
20.2815
20
12.4491
30
0.0000
11
20.4977
21
12.4851
31
0.0000
13
20.4977
23
12.4131
33
0.0000
12
20.4977
22
12.4131
32
0.0000
0
SOLID
8
ASSEMBLY
10
29.3227
20
12.4491
30
0.0000
11
29.1065
21
12.4131
31
0.0000
13
29.1065
23
12.4851
33
0.0000
12
29.1065
22
12.4851
32
0.0000
0
TEXT
8
ASSEMBLY
10
24.8021
20
12.3395
30
0.0000
40
0.2098
1
6
72
1
11
24.8021
21
12.3395
31
0.0000
0
LINE
8
ASSEMBLY
10
4.3362
20
12.8875
30
0.0000
11
4.3362
21
11.2071
31
0.0000
0
LINE
8
ASSEMBLY
10
29.3227
20
12.8875
30
0.0000
11
29.3227
21
11.2071
31
0.0000
0
LINE
8
ASSEMBLY
10
4.3362
20
11.3532
30
0.0000
11
29.3227
21
11.3532
31
0.0000
0
SOLID
8
ASSEMBLY
10
4.3362
20
11.3532
30
0.0000
11
4.5524
21
11.3892
31
0.0000
13
4.5524
23
11.3172
33
0.0000
12
4.5524
22
11.3172
32
0.0000
0
SOLID
8
ASSEMBLY
10
29.3227
20
11.3532
30
0.0000
11
29.1065
21
11.3172
31
0.0000
13
29.1065
23
11.3892
33
0.0000
12
29.1065
22
11.3892
32
0.0000
0
TEXT
8
ASSEMBLY
10
16.8294
20
11.2436
30
0.0000
40
0.2098
1
48
72
1
11
16.8294
21
11.2436
31
0.0000
0
POLYLINE
8
TITLE_BLOCK
66
1
10
0.0000
20
0.0000
30
0.0000
70
1
0
VERTEX
8
TITLE_BLOCK
10
21.2800
20
3.0500
30
0.0000
0
VERTEX
8
TITLE_BLOCK
10
23.5300
20
3.0500
30
0.0000
0
VERTEX
8
TITLE_BLOCK
10
23.5300
20
0.7500
30
0.0000
0
VERTEX
8
TITLE_BLOCK
10
21.2800
20
0.7500
30
0.0000
0
SEQEND
8
TITLE_BLOCK
0
POLYLINE
8
TITLE_BLOCK
66
1
10
0.0000
20
0.0000
30
0.0000
70
1
0
VERTEX
8
TITLE_BLOCK
10
21.2800
20
3.0500
30
0.0000
0
VERTEX
8
TITLE_BLOCK
10
23.5300
20
3.0500
30
0.0000
0
VERTEX
8
TITLE_BLOCK
10
23.5300
20
2.8000
30
0.0000
0
VERTEX
8
TITLE_BLOCK
10
21.2800
20
2.8000
30
0.0000
0
SEQEND
8
TITLE_BLOCK
0
TEXT
8
TITLE_BLOCK
10
22.4050
20
2.8694
30
0.0000
40
0.1020
1
APPLICATION
72
1
11
22.4050
21
2.8694
31
0.0000
0
POLYLINE
8
TITLE_BLOCK
66
1
10
0.0000
20
0.0000
30
0.0000
70
1
0
VERTEX
8
TITLE_BLOCK
10
21.2800
20
2.8000
30
0.0000
0
VERTEX
8
TITLE_BLOCK
10
22.4050
20
2.8000
30
0.0000
0
VERTEX
8
TITLE_BLOCK
10
22.4050
20
2.2000
30
0.0000
0
VERTEX
8
TITLE_BLOCK
10
21.2800
20
2.2000
30
0.0000
0
SEQEND
8
TITLE_BLOCK
0
TEXT
8
TITLE_BLOCK
10
21.3217
20
2.6792
30
0.0000
40
0.1020
1
NEXT ASSY
0
TEXT
8
TITLE_BLOCK
10
21.3494
20
2.2694
30
0.0000
40
0.1224
1
A1000-001
0
POLYLINE
8
TITLE_BLOCK
66
1
10
0.0000
20
0.0000
30
0.0000
70
1
0
VERTEX
8
TITLE_BLOCK
10
22.4050
20
2.8000
30
0.0000
0
VERTEX
8
TITLE_BLOCK
10
23.5300
20
2.8000
30
0.0000
0
VERTEX
8
TITLE_BLOCK
10
23.5300
20
2.2000
30
0.0000
0
VERTEX
8
TITLE_BLOCK
10
22.4050
20
2.2000
30
0.0000
0
SEQEND
8
TITLE_BLOCK
0
TEXT
8
TITLE_BLOCK
10
22.4467
20
2.6792
30
0.0000
40
0.1020
1
USED ON
0
TEXT
8
TITLE_BLOCK
10
22.4744
20
2.2694
30
0.0000
40
0.1224
1
FCC INST...
0
POLYLINE
8
TITLE_BLOCK
66
1
10
0.0000
20
0.0000
30
0.0000
70
1
0
VERTEX
8
TITLE_BLOCK
10
23.5300
20
3.0500
30
0.0000
0
VERTEX
8
TITLE_BLOCK
10
26.6300
20
3.0500
30
0.0000
0
VERTEX
8
TITLE_BLOCK
10
26.6300
20
0.7500
30
0.0000
0
VERTEX
8
TITLE_BLOCK
10
23.5300
20
0.7500
30
0.0000
0
SEQEND
8
TITLE_BLOCK
0
TEXT
8
TITLE_BLOCK
10
23.6133
20
2.8240
30
0.0000
40
0.1224
1
UNLESS OTHERWISE SPECIFIED:
0
TEXT
8
TITLE_BLOCK
10
23.6133
20
2.6118
30
0.0000
40
0.1224
1
DIMENSIONS ARE IN INCHES
0
TEXT
8
TITLE_BLOCK
10
23.6133
20
2.3997
30
0.0000
40
0.1224
1
LENGTH TOLERANCE %%p0.5
0
TEXT
8
TITLE_BLOCK
10
23.6133
20
2.1876
30
0.0000
40
0.1224
1
INTERPRET PER ASME Y14.5
0
TEXT
8
TITLE_BLOCK
10
23.6133
20
1.9754
30
0.0000
40
0.1224
1
DO NOT SCALE DRAWING
0
LINE
8
TITLE_BLOCK
10
23.5300
20
1.3000
30
0.0000
11
26.6300
21
1.3000
31
0.0000
0
TEXT
8
TITLE_BLOCK
10
23.5856
20
1.1579
30
0.0000
40
0.1020
1
THIRD ANGLE PROJECTION
0
POLYLINE
8
TITLE_BLOCK
66
1
10
0.0000
20
0.0000
30
0.0000
70
1
0
VERTEX
8
TITLE_BLOCK
10
24.7300
20
1.0500
30
0.0000
0
VERTEX
8
TITLE_BLOCK
10
24.9500
20
1.0000
30
0.0000
0
VERTEX
8
TITLE_BLOCK
10
24.9500
20
0.9000
30
0.0000
0
VERTEX
8
TITLE_BLOCK
10
24.7300
20
0.8500
30
0.0000
0
SEQEND
8
TITLE_BLOCK
0
LINE
8
TITLE_BLOCK
6
DASHED
10
24.6883
20
0.9500
30
0.0000
11
24.9917
21
0.9500
31
0.0000
0
CIRCLE
8
TITLE_BLOCK
10
25.1400
20
0.9500
30
0.0000
40
0.1000
0
CIRCLE
8
TITLE_BLOCK
10
25.1400
20
0.9500
30
0.0000
40
0.0500
0
LINE
8
TITLE_BLOCK
6
DASHED
10
24.9983
20
0.9500
30
0.0000
11
25.2817
21
0.9500
31
0.0000
0
LINE
8
TITLE_BLOCK
6
DASHED
10
25.1400
20
1.0917
30
0.0000
11
25.1400
21
0.8083
31
0.0000
0
POLYLINE
8
TITLE_BLOCK
66
1
10
0.0000
20
0.0000
30
0.0000
70
1
0
VERTEX
8
TITLE_BLOCK
10
26.6300
20
3.0500
30
0.0000
0
VERTEX
8
TITLE_BLOCK
10
33.2500
20
3.0500
30
0.0000
0
VERTEX
8
TITLE_BLOCK
10
33.2500
20
0.7500
30
0.0000
0
VERTEX
8
TITLE_BLOCK
10
26.6300
20
0.7500
30
0.0000
0
SEQEND
8
TITLE_BLOCK
0
POLYLINE
8
TITLE_BLOCK
66
1
10
0.0000
20
0.0000
30
0.0000
70
1
0
VERTEX
8
TITLE_BLOCK
10
26.6300
20
3.0500
30
0.0000
0
VERTEX
8
TITLE_BLOCK
10
29.2500
20
3.0500
30
0.0000
0
VERTEX
8
TITLE_BLOCK
10
29.2500
20
2.6300
30
0.0000
0
VERTEX
8
TITLE_BLOCK
10
26.6300
20
2.6300
30
0.0000
0
SEQEND
8
TITLE_BLOCK
0
TEXT
8
TITLE_BLOCK
10
26.6717
20
2.9292
30
0.0000
40
0.1020
1
CONTRACT NO.
0
POLYLINE
8
TITLE_BLOCK
66
1
10
0.0000
20
0.0000
30
0.0000
70
1
0
VERTEX
8
TITLE_BLOCK
10
26.6300
20
2.6300
30
0.0000
0
VERTEX
8
TITLE_BLOCK
10
29.2500
20
2.6300
30
0.0000
0
VERTEX
8
TITLE_BLOCK
10
29.2500
20
2.4100
30
0.0000
0
VERTEX
8
TITLE_BLOCK
10
26.6300
20
2.4100
30
0.0000
0
SEQEND
8
TITLE_BLOCK
0
TEXT
8
TITLE_BLOCK
10
26.6856
20
2.4879
30
0.0000
40
0.1020
1
APPROVALS
0
TEXT
8
TITLE_BLOCK
10
28.2020
20
2.4879
30
0.0000
40
0.1020
1
DATE
0
POLYLINE
8
TITLE_BLOCK
66
1
10
0.0000
20
0.0000
30
0.0000
70
1
0
VERTEX
8
TITLE_BLOCK
10
26.6300
20
2.4100
30
0.0000
0
VERTEX
8
TITLE_BLOCK
10
28.0972
20
2.4100
30
0.0000
0
VERTEX
8
TITLE_BLOCK
10
28.0972
20
1.9950
30
0.0000
0
VERTEX
8
TITLE_BLOCK
10
26.6300
20
1.9950
30
0.0000
0
SEQEND
8
TITLE_BLOCK
0
TEXT
8
TITLE_BLOCK
10
26.6717
20
2.2892
30
0.0000
40
0.1020
1
DRAWN
0
TEXT
8
TITLE_BLOCK
10
26.6994
20
2.0644
30
0.0000
40
0.1224
1
K. KIPER
0
POLYLINE
8
TITLE_BLOCK
66
1
10
0.0000
20
0.0000
30
0.0000
70
1
0
VERTEX
8
TITLE_BLOCK
10
28.0972
20
2.4100
30
0.0000
0
VERTEX
8
TITLE_BLOCK
10
29.2500
20
2.4100
30
0.0000
0
VERTEX
8
TITLE_BLOCK
10
29.2500
20
1.9950
30
0.0000
0
VERTEX
8
TITLE_BLOCK
10
28.0972
20
1.9950
30
0.0000
0
SEQEND
8
TITLE_BLOCK
0
TEXT
8
TITLE_BLOCK
10
28.1666
20
2.0644
30
0.0000
40
0.1224
1
2026-10-08
0
POLYLINE
8
TITLE_BLOCK
66
1
10
0.0000
20
0.0000
30
0.0000
70
1
0
VERTEX
8
TITLE_BLOCK
10
26.6300
20
1.9950
30
0.0000
0
VERTEX
8
TITLE_BLOCK
10
28.0972
20
1.9950
30
0.0000
0
VERTEX
8
TITLE_BLOCK
10
28.0972
20
1.5800
30
0.0000
0
VERTEX
8
TITLE_BLOCK
10
26.6300
20
1.5800
30
0.0000
0
SEQEND
8
TITLE_BLOCK
0
TEXT
8
TITLE_BLOCK
10
26.6717
20
1.8742
30
0.0000
40
0.1020
1
CHECKED
0
TEXT
8
TITLE_BLOCK
10
26.6994
20
1.6494
30
0.0000
40
0.1224
1
J. SMITH
0
POLYLINE
8
TITLE_BLOCK
66
1
10
0.0000
20
0.0000
30
0.0000
70
1
0
VERTEX
8
TITLE_BLOCK
10
28.0972
20
1.9950
30
0.0000
0
VERTEX
8
TITLE_BLOCK
10
29.2500
20
1.9950
30
0.0000
0
VERTEX
8
TITLE_BLOCK
10
29.2500
20
1.5800
30
0.0000
0
VERTEX
8
TITLE_BLOCK
10
28.0972
20
1.5800
30
0.0000
0
SEQEND
8
TITLE_BLOCK
0
TEXT
8
TITLE_BLOCK
10
28.1666
20
1.6494
30
0.0000
40
0.1224
1
2026-10-08
0
POLYLINE
8
TITLE_BLOCK
66
1
10
0.0000
20
0.0000
30
0.0000
70
1
0
VERTEX
8
TITLE_BLOCK
10
26.6300
20
1.5800
30
0.0000
0
VERTEX
8
TITLE_BLOCK
10
28.0972
20
1.5800
30
0.0000
0
VERTEX
8
TITLE_BLOCK
10
28.0972
20
1.1650
30
0.0000
0
VERTEX
8
TITLE_BLOCK
10
26.6300
20
1.1650
30
0.0000
0
SEQEND
8
TITLE_BLOCK
0
TEXT
8
TITLE_BLOCK
10
26.6717
20
1.4592
30
0.0000
40
0.1020
1
ENGR
0
POLYLINE
8
TITLE_BLOCK
66
1
10
0.0000
20
0.0000
30
0.0000
70
1
0
VERTEX
8
TITLE_BLOCK
10
28.0972
20
1.5800
30
0.0000
0
VERTEX
8
TITLE_BLOCK
10
29.2500
20
1.5800
30
0.0000
0
VERTEX
8
TITLE_BLOCK
10
29.2500
20
1.1650
30
0.0000
0
VERTEX
8
TITLE_BLOCK
10
28.0972
20
1.1650
30
0.0000
0
SEQEND
8
TITLE_BLOCK
0
POLYLINE
8
TITLE_BLOCK
66
1
10
0.0000
20
0.0000
30
0.0000
70
1
0
VERTEX
8
TITLE_BLOCK
10
26.6300
20
1.1650
30
0.0000
0
VERTEX
8
TITLE_BLOCK
10
28.0972
20
1.1650
30
0.0000
0
VERTEX
8
TITLE_BLOCK
10
28.0972
20
0.7500
30
0.0000
0
VERTEX
8
TITLE_BLOCK
10
26.6300
20
0.7500
30
0.0000
0
SEQEND
8
TITLE_BLOCK
0
TEXT
8
TITLE_BLOCK
10
26.6717
20
1.0442
30
0.0000
40
0.1020
1
APPROVED
0
POLYLINE
8
TITLE_BLOCK
66
1
10
0.0000
20
0.0000
30
0.0000
70
1
0
VERTEX
8
TITLE_BLOCK
10
28.0972
20
1.1650
30
0.0000
0
VERTEX
8
TITLE_BLOCK
10
29.2500
20
1.1650
30
0.0000
0
VERTEX
8
TITLE_BLOCK
10
29.2500
20
0.7500
30
0.0000
0
VERTEX
8
TITLE_BLOCK
10
28.0972
20
0.7500
30
0.0000
0
SEQEND
8
TITLE_BLOCK
0
POLYLINE
8
TITLE_BLOCK
66
1
10
0.0000
20
0.0000
30
0.0000
70
1
0
VERTEX
8
TITLE_BLOCK
10
29.2500
20
3.0500
30
0.0000
0
VERTEX
8
TITLE_BLOCK
10
33.2500
20
3.0500
30
0.0000
0
VERTEX
8
TITLE_BLOCK
10
33.2500
20
2.6500
30
0.0000
0
VERTEX
8
TITLE_BLOCK
10
29.2500
20
2.6500
30
0.0000
0
SEQEND
8
TITLE_BLOCK
0
TEXT
8
TITLE_BLOCK
10
31.2500
20
2.8694
30
0.0000
40
0.1224
1
ACME AEROSPACE (EXAMPLE)
72
1
11
31.2500
21
2.8694
31
0.0000
0
POLYLINE
8
TITLE_BLOCK
66
1
10
0.0000
20
0.0000
30
0.0000
70
1
0
VERTEX
8
TITLE_BLOCK
10
29.2500
20
2.6500
30
0.0000
0
VERTEX
8
TITLE_BLOCK
10
33.2500
20
2.6500
30
0.0000
0
VERTEX
8
TITLE_BLOCK
10
33.2500
20
1.7000
30
0.0000
0
VERTEX
8
TITLE_BLOCK
10
29.2500
20
1.7000
30
0.0000
0
SEQEND
8
TITLE_BLOCK
0
TEXT
8
TITLE_BLOCK
10
29.2917
20
2.5292
30
0.0000
40
0.1020
1
TITLE
0
TEXT
8
TITLE_BLOCK
10
31.2500
20
2.1448
30
0.0000
40
0.2448
1
CABLE ASSY, FCC TO
72
1
11
31.2500
21
2.1448
31
0.0000
0
TEXT
8
TITLE_BLOCK
10
31.2500
20
1.7899
30
0.0000
40
0.2448
1
PDU
72
1
11
31.2500
21
1.7899
31
0.0000
0
POLYLINE
8
TITLE_BLOCK
66
1
10
0.0000
20
0.0000
30
0.0000
70
1
0
VERTEX
8
TITLE_BLOCK
10
29.2500
20
1.7000
30
0.0000
0
VERTEX
8
TITLE_BLOCK
10
29.8500
20
1.7000
30
0.0000
0
VERTEX
8
TITLE_BLOCK
10
29.8500
20
1.1500
30
0.0000
0
VERTEX
8
TITLE_BLOCK
10
29.2500
20
1.1500
30
0.0000
0
SEQEND
8
TITLE_BLOCK
0
TEXT
8
TITLE_BLOCK
10
29.2917
20
1.5792
30
0.0000
40
0.1020
1
SIZE
0
TEXT
8
TITLE_BLOCK
10
29.5500
20
1.2194
30
0.0000
40
0.2448
1
D
72
1
11
29.5500
21
1.2194
31
0.0000
0
POLYLINE
8
TITLE_BLOCK
66
1
10
0.0000
20
0.0000
30
0.0000
70
1
0
VERTEX
8
TITLE_BLOCK
10
29.8500
20
1.7000
30
0.0000
0
VERTEX
8
TITLE_BLOCK
10
30.8500
20
1.7000
30
0.0000
0
VERTEX
8
TITLE_BLOCK
10
30.8500
20
1.1500
30
0.0000
0
VERTEX
8
TITLE_BLOCK
10
29.8500
20
1.1500
30
0.0000
0
SEQEND
8
TITLE_BLOCK
0
TEXT
8
TITLE_BLOCK
10
29.8917
20
1.5792
30
0.0000
40
0.1020
1
CAGE CODE
0
POLYLINE
8
TITLE_BLOCK
66
1
10
0.0000
20
0.0000
30
0.0000
70
1
0
VERTEX
8
TITLE_BLOCK
10
30.8500
20
1.7000
30
0.0000
0
VERTEX
8
TITLE_BLOCK
10
32.6500
20
1.7000
30
0.0000
0
VERTEX
8
TITLE_BLOCK
10
32.6500
20
1.1500
30
0.0000
0
VERTEX
8
TITLE_BLOCK
10
30.8500
20
1.1500
30
0.0000
0
SEQEND
8
TITLE_BLOCK
0
TEXT
8
TITLE_BLOCK
10
30.8917
20
1.5792
30
0.0000
40
0.1020
1
DWG NO.
0
TEXT
8
TITLE_BLOCK
10
30.9194
20
1.2194
30
0.0000
40
0.2448
1
W101-001
0
POLYLINE
8
TITLE_BLOCK
66
1
10
0.0000
20
0.0000
30
0.0000
70
1
0
VERTEX
8
TITLE_BLOCK
10
32.6500
20
1.7000
30
0.0000
0
VERTEX
8
TITLE_BLOCK
10
33.2500
20
1.7000
30
0.0000
0
VERTEX
8
TITLE_BLOCK
10
33.2500
20
1.1500
30
0.0000
0
VERTEX
8
TITLE_BLOCK
10
32.6500
20
1.1500
30
0.0000
0
SEQEND
8
TITLE_BLOCK
0
TEXT
8
TITLE_BLOCK
10
32.6917
20
1.5792
30
0.0000
40
0.1020
1
REV
0
TEXT
8
TITLE_BLOCK
10
32.9500
20
1.2194
30
0.0000
40
0.1224
1
A
72
1
11
32.9500
21
1.2194
31
0.0000
0
POLYLINE
8
TITLE_BLOCK
66
1
10
0.0000
20
0.0000
30
0.0000
70
1
0
VERTEX
8
TITLE_BLOCK
10
29.2500
20
1.1500
30
0.0000
0
VERTEX
8
TITLE_BLOCK
10
30.5833
20
1.1500
30
0.0000
0
VERTEX
8
TITLE_BLOCK
10
30.5833
20
0.7500
30
0.0000
0
VERTEX
8
TITLE_BLOCK
10
29.2500
20
0.7500
30
0.0000
0
SEQEND
8
TITLE_BLOCK
0
TEXT
8
TITLE_BLOCK
10
29.2917
20
1.0292
30
0.0000
40
0.1020
1
SCALE
0
TEXT
8
TITLE_BLOCK
10
29.3194
20
0.8194
30
0.0000
40
0.1224
1
NONE
0
POLYLINE
8
TITLE_BLOCK
66
1
10
0.0000
20
0.0000
30
0.0000
70
1
0
VERTEX
8
TITLE_BLOCK
10
30.5833
20
1.1500
30
0.0000
0
VERTEX
8
TITLE_BLOCK
10
31.9167
20
1.1500
30
0.0000
0
VERTEX
8
TITLE_BLOCK
10
31.9167
20
0.7500
30
0.0000
0
VERTEX
8
TITLE_BLOCK
10
30.5833
20
0.7500
30
0.0000
0
SEQEND
8
TITLE_BLOCK
0
TEXT
8
TITLE_BLOCK
10
30.6250
20
1.0292
30
0.0000
40
0.1020
1
WEIGHT
0
POLYLINE
8
TITLE_BLOCK
66
1
10
0.0000
20
0.0000
30
0.0000
70
1
0
VERTEX
8
TITLE_BLOCK
10
31.9167
20
1.1500
30
0.0000
0
VERTEX
8
TITLE_BLOCK
10
33.2500
20
1.1500
30
0.0000
0
VERTEX
8
TITLE_BLOCK
10
33.2500
20
0.7500
30
0.0000
0
VERTEX
8
TITLE_BLOCK
10
31.9167
20
0.7500
30
0.0000
0
SEQEND
8
TITLE_BLOCK
0
TEXT
8
TITLE_BLOCK
10
31.9583
20
1.0292
30
0.0000
40
0.1020
1
SHEET
0
TEXT
8
TITLE_BLOCK
10
31.9861
20
0.8194
30
0.0000
40
0.1224
1
1 OF 3
0
ENDSEC
0
EOF
