0
SECTION
2
HEADER
9
$ACADVER
1
AC1009
9
$INSUNITS
70
1
9
$EXTMIN
10
0.0000
20
0.0000
30
0.0000
9
$EXTMAX
10
22.0000
20
17.0000
30
0.0000
9
$LIMMIN
10
0.0000
20
0.0000
9
$LIMMAX
10
22.0000
20
17.0000
0
ENDSEC
0
SECTION
2
TABLES
0
TABLE
2
LTYPE
70
2
0
LTYPE
2
CONTINUOUS
70
0
3
Solid line
72
65
73
0
40
0.0000
0
LTYPE
2
DASHED
70
0
3
__ __ __
72
65
73
2
40
0.1500
49
0.1000
49
-0.0500
0
ENDTAB
0
TABLE
2
LAYER
70
13
0
LAYER
2
0
70
0
62
7
6
CONTINUOUS
0
LAYER
2
BORDER
70
0
62
7
6
CONTINUOUS
0
LAYER
2
TITLE_BLOCK
70
0
62
7
6
CONTINUOUS
0
LAYER
2
ASSEMBLY
70
0
62
7
6
CONTINUOUS
0
LAYER
2
CABLE
70
0
62
7
6
CONTINUOUS
0
LAYER
2
DIMENSIONS
70
0
62
3
6
CONTINUOUS
0
LAYER
2
BALLOONS
70
0
62
5
6
CONTINUOUS
0
LAYER
2
WIRING
70
0
62
7
6
CONTINUOUS
0
LAYER
2
SHIELDS
70
0
62
4
6
CONTINUOUS
0
LAYER
2
FACE_VIEWS
70
0
62
7
6
CONTINUOUS
0
LAYER
2
TABLES
70
0
62
7
6
CONTINUOUS
0
LAYER
2
NOTES
70
0
62
7
6
CONTINUOUS
0
LAYER
2
TEXT
70
0
62
7
6
CONTINUOUS
0
ENDTAB
0
ENDSEC
0
SECTION
2
ENTITIES
0
POLYLINE
8
BORDER
66
1
10
0.0000
20
0.0000
30
0.0000
70
1
0
VERTEX
8
BORDER
10
0.3750
20
16.6250
30
0.0000
0
VERTEX
8
BORDER
10
21.6250
20
16.6250
30
0.0000
0
VERTEX
8
BORDER
10
21.6250
20
0.3750
30
0.0000
0
VERTEX
8
BORDER
10
0.3750
20
0.3750
30
0.0000
0
SEQEND
8
BORDER
0
POLYLINE
8
BORDER
66
1
10
0.0000
20
0.0000
30
0.0000
70
1
0
VERTEX
8
BORDER
10
0.7500
20
16.2500
30
0.0000
0
VERTEX
8
BORDER
10
21.2500
20
16.2500
30
0.0000
0
VERTEX
8
BORDER
10
21.2500
20
0.7500
30
0.0000
0
VERTEX
8
BORDER
10
0.7500
20
0.7500
30
0.0000
0
SEQEND
8
BORDER
0
TEXT
8
BORDER
10
2.8000
20
16.3148
30
0.0000
40
0.2448
1
5
72
1
11
2.8000
21
16.3148
31
0.0000
0
TEXT
8
BORDER
10
2.8000
20
0.4398
30
0.0000
40
0.2448
1
5
72
1
11
2.8000
21
0.4398
31
0.0000
0
TEXT
8
BORDER
10
6.9000
20
16.3148
30
0.0000
40
0.2448
1
4
72
1
11
6.9000
21
16.3148
31
0.0000
0
TEXT
8
BORDER
10
6.9000
20
0.4398
30
0.0000
40
0.2448
1
4
72
1
11
6.9000
21
0.4398
31
0.0000
0
LINE
8
BORDER
10
4.8500
20
16.6250
30
0.0000
11
4.8500
21
16.2500
31
0.0000
0
LINE
8
BORDER
10
4.8500
20
0.7500
30
0.0000
11
4.8500
21
0.3750
31
0.0000
0
TEXT
8
BORDER
10
11.0000
20
16.3148
30
0.0000
40
0.2448
1
3
72
1
11
11.0000
21
16.3148
31
0.0000
0
TEXT
8
BORDER
10
11.0000
20
0.4398
30
0.0000
40
0.2448
1
3
72
1
11
11.0000
21
0.4398
31
0.0000
0
LINE
8
BORDER
10
8.9500
20
16.6250
30
0.0000
11
8.9500
21
16.2500
31
0.0000
0
LINE
8
BORDER
10
8.9500
20
0.7500
30
0.0000
11
8.9500
21
0.3750
31
0.0000
0
TEXT
8
BORDER
10
15.1000
20
16.3148
30
0.0000
40
0.2448
1
2
72
1
11
15.1000
21
16.3148
31
0.0000
0
TEXT
8
BORDER
10
15.1000
20
0.4398
30
0.0000
40
0.2448
1
2
72
1
11
15.1000
21
0.4398
31
0.0000
0
LINE
8
BORDER
10
13.0500
20
16.6250
30
0.0000
11
13.0500
21
16.2500
31
0.0000
0
LINE
8
BORDER
10
13.0500
20
0.7500
30
0.0000
11
13.0500
21
0.3750
31
0.0000
0
TEXT
8
BORDER
10
19.2000
20
16.3148
30
0.0000
40
0.2448
1
1
72
1
11
19.2000
21
16.3148
31
0.0000
0
TEXT
8
BORDER
10
19.2000
20
0.4398
30
0.0000
40
0.2448
1
1
72
1
11
19.2000
21
0.4398
31
0.0000
0
LINE
8
BORDER
10
17.1500
20
16.6250
30
0.0000
11
17.1500
21
16.2500
31
0.0000
0
LINE
8
BORDER
10
17.1500
20
0.7500
30
0.0000
11
17.1500
21
0.3750
31
0.0000
0
TEXT
8
BORDER
10
0.5625
20
13.5439
30
0.0000
40
0.2448
1
C
72
1
11
0.5625
21
13.5439
31
0.0000
0
TEXT
8
BORDER
10
21.4375
20
13.5439
30
0.0000
40
0.2448
1
C
72
1
11
21.4375
21
13.5439
31
0.0000
0
TEXT
8
BORDER
10
0.5625
20
8.3773
30
0.0000
40
0.2448
1
B
72
1
11
0.5625
21
8.3773
31
0.0000
0
TEXT
8
BORDER
10
21.4375
20
8.3773
30
0.0000
40
0.2448
1
B
72
1
11
21.4375
21
8.3773
31
0.0000
0
LINE
8
BORDER
10
0.3750
20
11.0833
30
0.0000
11
0.7500
21
11.0833
31
0.0000
0
LINE
8
BORDER
10
21.2500
20
11.0833
30
0.0000
11
21.6250
21
11.0833
31
0.0000
0
TEXT
8
BORDER
10
0.5625
20
3.2106
30
0.0000
40
0.2448
1
A
72
1
11
0.5625
21
3.2106
31
0.0000
0
TEXT
8
BORDER
10
21.4375
20
3.2106
30
0.0000
40
0.2448
1
A
72
1
11
21.4375
21
3.2106
31
0.0000
0
LINE
8
BORDER
10
0.3750
20
5.9167
30
0.0000
11
0.7500
21
5.9167
31
0.0000
0
LINE
8
BORDER
10
21.2500
20
5.9167
30
0.0000
11
21.6250
21
5.9167
31
0.0000
0
POLYLINE
8
BORDER
66
1
10
0.0000
20
0.0000
30
0.0000
70
1
0
VERTEX
8
BORDER
10
0.7500
20
16.2500
30
0.0000
0
VERTEX
8
BORDER
10
3.5000
20
16.2500
30
0.0000
0
VERTEX
8
BORDER
10
3.5000
20
15.7500
30
0.0000
0
VERTEX
8
BORDER
10
0.7500
20
15.7500
30
0.0000
0
SEQEND
8
BORDER
0
TEXT
8
BORDER
10
2.1250
20
16.0614
30
0.0000
40
0.1224
1
W101-001  REV A
50
180.0000
72
1
11
2.1250
21
16.0614
31
0.0000
0
POLYLINE
8
0
66
1
10
0.0000
20
0.0000
30
0.0000
70
1
0
VERTEX
8
0
10
15.2500
20
16.2500
30
0.0000
0
VERTEX
8
0
10
21.2500
20
16.2500
30
0.0000
0
VERTEX
8
0
10
21.2500
20
15.9684
30
0.0000
0
VERTEX
8
0
10
15.2500
20
15.9684
30
0.0000
0
SEQEND
8
0
0
TEXT
8
0
10
18.2500
20
16.0517
30
0.0000
40
0.1224
1
REVISIONS
72
1
11
18.2500
21
16.0517
31
0.0000
0
POLYLINE
8
0
66
1
10
0.0000
20
0.0000
30
0.0000
70
1
0
VERTEX
8
0
10
15.2500
20
15.9684
30
0.0000
0
VERTEX
8
0
10
15.8500
20
15.9684
30
0.0000
0
VERTEX
8
0
10
15.8500
20
15.6868
30
0.0000
0
VERTEX
8
0
10
15.2500
20
15.6868
30
0.0000
0
SEQEND
8
0
0
TEXT
8
0
10
15.5500
20
15.7563
30
0.0000
40
0.1020
1
ZONE
72
1
11
15.5500
21
15.7563
31
0.0000
0
POLYLINE
8
0
66
1
10
0.0000
20
0.0000
30
0.0000
70
1
0
VERTEX
8
0
10
15.8500
20
15.9684
30
0.0000
0
VERTEX
8
0
10
16.3500
20
15.9684
30
0.0000
0
VERTEX
8
0
10
16.3500
20
15.6868
30
0.0000
0
VERTEX
8
0
10
15.8500
20
15.6868
30
0.0000
0
SEQEND
8
0
0
TEXT
8
0
10
16.1000
20
15.7563
30
0.0000
40
0.1020
1
REV
72
1
11
16.1000
21
15.7563
31
0.0000
0
POLYLINE
8
0
66
1
10
0.0000
20
0.0000
30
0.0000
70
1
0
VERTEX
8
0
10
16.3500
20
15.9684
30
0.0000
0
VERTEX
8
0
10
19.0500
20
15.9684
30
0.0000
0
VERTEX
8
0
10
19.0500
20
15.6868
30
0.0000
0
VERTEX
8
0
10
16.3500
20
15.6868
30
0.0000
0
SEQEND
8
0
0
TEXT
8
0
10
17.7000
20
15.7563
30
0.0000
40
0.1020
1
DESCRIPTION
72
1
11
17.7000
21
15.7563
31
0.0000
0
POLYLINE
8
0
66
1
10
0.0000
20
0.0000
30
0.0000
70
1
0
VERTEX
8
0
10
19.0500
20
15.9684
30
0.0000
0
VERTEX
8
0
10
20.0500
20
15.9684
30
0.0000
0
VERTEX
8
0
10
20.0500
20
15.6868
30
0.0000
0
VERTEX
8
0
10
19.0500
20
15.6868
30
0.0000
0
SEQEND
8
0
0
TEXT
8
0
10
19.5500
20
15.7563
30
0.0000
40
0.1020
1
DATE
72
1
11
19.5500
21
15.7563
31
0.0000
0
POLYLINE
8
0
66
1
10
0.0000
20
0.0000
30
0.0000
70
1
0
VERTEX
8
0
10
20.0500
20
15.9684
30
0.0000
0
VERTEX
8
0
10
21.2500
20
15.9684
30
0.0000
0
VERTEX
8
0
10
21.2500
20
15.6868
30
0.0000
0
VERTEX
8
0
10
20.0500
20
15.6868
30
0.0000
0
SEQEND
8
0
0
TEXT
8
0
10
20.6500
20
15.7563
30
0.0000
40
0.1020
1
APPROVED
72
1
11
20.6500
21
15.7563
31
0.0000
0
POLYLINE
8
0
66
1
10
0.0000
20
0.0000
30
0.0000
70
1
0
VERTEX
8
0
10
15.2500
20
15.6868
30
0.0000
0
VERTEX
8
0
10
15.8500
20
15.6868
30
0.0000
0
VERTEX
8
0
10
15.8500
20
15.4052
30
0.0000
0
VERTEX
8
0
10
15.2500
20
15.4052
30
0.0000
0
SEQEND
8
0
0
POLYLINE
8
0
66
1
10
0.0000
20
0.0000
30
0.0000
70
1
0
VERTEX
8
0
10
15.8500
20
15.6868
30
0.0000
0
VERTEX
8
0
10
16.3500
20
15.6868
30
0.0000
0
VERTEX
8
0
10
16.3500
20
15.4052
30
0.0000
0
VERTEX
8
0
10
15.8500
20
15.4052
30
0.0000
0
SEQEND
8
0
0
TEXT
8
0
10
16.1000
20
15.4747
30
0.0000
40
0.1224
1
A
72
1
11
16.1000
21
15.4747
31
0.0000
0
POLYLINE
8
0
66
1
10
0.0000
20
0.0000
30
0.0000
70
1
0
VERTEX
8
0
10
16.3500
20
15.6868
30
0.0000
0
VERTEX
8
0
10
19.0500
20
15.6868
30
0.0000
0
VERTEX
8
0
10
19.0500
20
15.4052
30
0.0000
0
VERTEX
8
0
10
16.3500
20
15.4052
30
0.0000
0
SEQEND
8
0
0
TEXT
8
0
10
16.4194
20
15.4747
30
0.0000
40
0.1224
1
INITIAL RELEASE
0
POLYLINE
8
0
66
1
10
0.0000
20
0.0000
30
0.0000
70
1
0
VERTEX
8
0
10
19.0500
20
15.6868
30
0.0000
0
VERTEX
8
0
10
20.0500
20
15.6868
30
0.0000
0
VERTEX
8
0
10
20.0500
20
15.4052
30
0.0000
0
VERTEX
8
0
10
19.0500
20
15.4052
30
0.0000
0
SEQEND
8
0
0
TEXT
8
0
10
19.5500
20
15.4747
30
0.0000
40
0.1224
1
2026-10-08
72
1
11
19.5500
21
15.4747
31
0.0000
0
POLYLINE
8
0
66
1
10
0.0000
20
0.0000
30
0.0000
70
1
0
VERTEX
8
0
10
20.0500
20
15.6868
30
0.0000
0
VERTEX
8
0
10
21.2500
20
15.6868
30
0.0000
0
VERTEX
8
0
10
21.2500
20
15.4052
30
0.0000
0
VERTEX
8
0
10
20.0500
20
15.4052
30
0.0000
0
SEQEND
8
0
0
TEXT
8
0
10
20.6500
20
15.4747
30
0.0000
40
0.1224
1
J. SMITH
72
1
11
20.6500
21
15.4747
31
0.0000
0
POLYLINE
8
0
66
1
10
0.0000
20
0.0000
30
0.0000
70
1
0
VERTEX
8
0
10
15.2500
20
16.2500
30
0.0000
0
VERTEX
8
0
10
21.2500
20
16.2500
30
0.0000
0
VERTEX
8
0
10
21.2500
20
15.4052
30
0.0000
0
VERTEX
8
0
10
15.2500
20
15.4052
30
0.0000
0
SEQEND
8
0
0
POLYLINE
8
TABLES
66
1
10
0.0000
20
0.0000
30
0.0000
70
1
0
VERTEX
8
TABLES
10
11.0179
20
3.4397
30
0.0000
0
VERTEX
8
TABLES
10
21.2500
20
3.4397
30
0.0000
0
VERTEX
8
TABLES
10
21.2500
20
3.0500
30
0.0000
0
VERTEX
8
TABLES
10
11.0179
20
3.0500
30
0.0000
0
SEQEND
8
TABLES
0
TEXT
8
TABLES
10
16.1340
20
3.1596
30
0.0000
40
0.1224
1
PARTS LIST
72
1
11
16.1340
21
3.1596
31
0.0000
0
POLYLINE
8
TABLES
66
1
10
0.0000
20
0.0000
30
0.0000
70
1
0
VERTEX
8
TABLES
10
11.0179
20
3.7806
30
0.0000
0
VERTEX
8
TABLES
10
21.2500
20
3.7806
30
0.0000
0
VERTEX
8
TABLES
10
21.2500
20
3.4397
30
0.0000
0
VERTEX
8
TABLES
10
11.0179
20
3.4397
30
0.0000
0
SEQEND
8
TABLES
0
TEXT
8
TABLES
10
11.4658
20
3.5371
30
0.0000
40
0.1224
1
FIND NO
72
1
11
11.4658
21
3.5371
31
0.0000
0
TEXT
8
TABLES
10
12.4562
20
3.5371
30
0.0000
40
0.1224
1
QTY REQD
72
1
11
12.4562
21
3.5371
31
0.0000
0
TEXT
8
TABLES
10
13.6124
20
3.5371
30
0.0000
40
0.1224
1
CAGE CODE
72
1
11
13.6124
21
3.5371
31
0.0000
0
TEXT
8
TABLES
10
15.4221
20
3.5371
30
0.0000
40
0.1224
1
PART OR IDENTIFYING NO
72
1
11
15.4221
21
3.5371
31
0.0000
0
TEXT
8
TABLES
10
18.5201
20
3.5371
30
0.0000
40
0.1224
1
NOMENCLATURE OR DESCRIPTION
72
1
11
18.5201
21
3.5371
31
0.0000
0
TEXT
8
TABLES
10
20.8360
20
3.5371
30
0.0000
40
0.1224
1
NOTE
72
1
11
20.8360
21
3.5371
31
0.0000
0
TEXT
8
TABLES
10
11.4658
20
3.8658
30
0.0000
40
0.1224
1
1
72
1
11
11.4658
21
3.8658
31
0.0000
0
TEXT
8
TABLES
10
12.4562
20
3.8658
30
0.0000
40
0.1224
1
1
72
1
11
12.4562
21
3.8658
31
0.0000
0
TEXT
8
TABLES
10
14.2991
20
3.8658
30
0.0000
40
0.1224
1
D38999/26WD18SN
0
TEXT
8
TABLES
10
16.6913
20
3.8658
30
0.0000
40
0.1224
1
CONNECTOR, PLUG, 18 SKT
0
LINE
8
TABLES
10
11.0179
20
3.7806
30
0.0000
11
21.2500
21
3.7806
31
0.0000
0
TEXT
8
TABLES
10
11.4658
20
4.1703
30
0.0000
40
0.1224
1
2
72
1
11
11.4658
21
4.1703
31
0.0000
0
TEXT
8
TABLES
10
12.4562
20
4.1703
30
0.0000
40
0.1224
1
1
72
1
11
12.4562
21
4.1703
31
0.0000
0
TEXT
8
TABLES
10
14.2991
20
4.1703
30
0.0000
40
0.1224
1
D38999/26WD18PN
0
TEXT
8
TABLES
10
16.6913
20
4.1703
30
0.0000
40
0.1224
1
CONNECTOR, PLUG, 18 PIN
0
LINE
8
TABLES
10
11.0179
20
4.0850
30
0.0000
11
21.2500
21
4.0850
31
0.0000
0
TEXT
8
TABLES
10
11.4658
20
4.4747
30
0.0000
40
0.1224
1
3
72
1
11
11.4658
21
4.4747
31
0.0000
0
TEXT
8
TABLES
10
12.4562
20
4.4747
30
0.0000
40
0.1224
1
2
72
1
11
12.4562
21
4.4747
31
0.0000
0
TEXT
8
TABLES
10
14.2991
20
4.4747
30
0.0000
40
0.1224
1
M85049/38S15W
0
TEXT
8
TABLES
10
16.6913
20
4.4747
30
0.0000
40
0.1224
1
BACKSHELL, STRAIGHT, SHELL 15
0
LINE
8
TABLES
10
11.0179
20
4.3894
30
0.0000
11
21.2500
21
4.3894
31
0.0000
0
TEXT
8
TABLES
10
11.4658
20
4.7791
30
0.0000
40
0.1224
1
4
72
1
11
11.4658
21
4.7791
31
0.0000
0
TEXT
8
TABLES
10
12.4562
20
4.7791
30
0.0000
40
0.1224
1
2
72
1
11
12.4562
21
4.7791
31
0.0000
0
TEXT
8
TABLES
10
14.2991
20
4.7791
30
0.0000
40
0.1224
1
202K153-25/225-0
0
TEXT
8
TABLES
10
16.6913
20
4.7791
30
0.0000
40
0.1224
1
BOOT, HEATSHRINK, STRAIGHT
0
POLYLINE
8
TABLES
66
1
10
0.0000
20
0.0000
30
0.0000
70
1
0
VERTEX
8
TABLES
10
20.6899
20
5.0078
30
0.0000
0
VERTEX
8
TABLES
10
20.8518
20
4.7273
30
0.0000
0
VERTEX
8
TABLES
10
20.5279
20
4.7273
30
0.0000
0
SEQEND
8
TABLES
0
TEXT
8
TABLES
10
20.6899
20
4.7497
30
0.0000
40
0.1224
1
14
72
1
11
20.6899
21
4.7497
31
0.0000
0
LINE
8
TABLES
10
11.0179
20
4.6939
30
0.0000
11
21.2500
21
4.6939
31
0.0000
0
TEXT
8
TABLES
10
11.4658
20
5.0835
30
0.0000
40
0.1224
1
5
72
1
11
11.4658
21
5.0835
31
0.0000
0
TEXT
8
TABLES
10
12.4562
20
5.0835
30
0.0000
40
0.1224
1
2
72
1
11
12.4562
21
5.0835
31
0.0000
0
TEXT
8
TABLES
10
14.2991
20
5.0835
30
0.0000
40
0.1224
1
TMS-SCE-1/2-2.0-9
0
TEXT
8
TABLES
10
16.6913
20
5.0835
30
0.0000
40
0.1224
1
SLEEVE, IDENTIFICATION, 1/2 IN
0
POLYLINE
8
TABLES
66
1
10
0.0000
20
0.0000
30
0.0000
70
1
0
VERTEX
8
TABLES
10
20.6899
20
5.3122
30
0.0000
0
VERTEX
8
TABLES
10
20.8518
20
5.0317
30
0.0000
0
VERTEX
8
TABLES
10
20.5279
20
5.0317
30
0.0000
0
SEQEND
8
TABLES
0
TEXT
8
TABLES
10
20.6899
20
5.0541
30
0.0000
40
0.1224
1
15
72
1
11
20.6899
21
5.0541
31
0.0000
0
LINE
8
TABLES
10
11.0179
20
4.9983
30
0.0000
11
21.2500
21
4.9983
31
0.0000
0
TEXT
8
TABLES
10
11.4658
20
5.3879
30
0.0000
40
0.1224
1
6
72
1
11
11.4658
21
5.3879
31
0.0000
0
TEXT
8
TABLES
10
12.4562
20
5.3879
30
0.0000
40
0.1224
1
48 IN
72
1
11
12.4562
21
5.3879
31
0.0000
0
TEXT
8
TABLES
10
14.2991
20
5.3879
30
0.0000
40
0.1224
1
M27500-22TG2T14
0
TEXT
8
TABLES
10
16.6913
20
5.3879
30
0.0000
40
0.1224
1
CABLE, SHIELDED TWISTED PAIR, 22 AWG
0
LINE
8
TABLES
10
11.0179
20
5.3027
30
0.0000
11
21.2500
21
5.3027
31
0.0000
0
TEXT
8
TABLES
10
11.4658
20
5.6923
30
0.0000
40
0.1224
1
7
72
1
11
11.4658
21
5.6923
31
0.0000
0
TEXT
8
TABLES
10
12.4562
20
5.6923
30
0.0000
40
0.1224
1
48 IN
72
1
11
12.4562
21
5.6923
31
0.0000
0
TEXT
8
TABLES
10
14.2991
20
5.6923
30
0.0000
40
0.1224
1
M22759/16-20-2
0
TEXT
8
TABLES
10
16.6913
20
5.6923
30
0.0000
40
0.1224
1
WIRE, 20 AWG, RED
0
LINE
8
TABLES
10
11.0179
20
5.6071
30
0.0000
11
21.2500
21
5.6071
31
0.0000
0
TEXT
8
TABLES
10
11.4658
20
5.9968
30
0.0000
40
0.1224
1
8
72
1
11
11.4658
21
5.9968
31
0.0000
0
TEXT
8
TABLES
10
12.4562
20
5.9968
30
0.0000
40
0.1224
1
48 IN
72
1
11
12.4562
21
5.9968
31
0.0000
0
TEXT
8
TABLES
10
14.2991
20
5.9968
30
0.0000
40
0.1224
1
M22759/16-20-0
0
TEXT
8
TABLES
10
16.6913
20
5.9968
30
0.0000
40
0.1224
1
WIRE, 20 AWG, BLK
0
LINE
8
TABLES
10
11.0179
20
5.9115
30
0.0000
11
21.2500
21
5.9115
31
0.0000
0
TEXT
8
TABLES
10
11.4658
20
6.3012
30
0.0000
40
0.1224
1
9
72
1
11
11.4658
21
6.3012
31
0.0000
0
TEXT
8
TABLES
10
12.4562
20
6.3012
30
0.0000
40
0.1224
1
AR
72
1
11
12.4562
21
6.3012
31
0.0000
0
TEXT
8
TABLES
10
14.2991
20
6.3012
30
0.0000
40
0.1224
1
M22759/16-22-9
0
TEXT
8
TABLES
10
16.6913
20
6.3012
30
0.0000
40
0.1224
1
WIRE, 22 AWG, WHT
0
LINE
8
TABLES
10
11.0179
20
6.2159
30
0.0000
11
21.2500
21
6.2159
31
0.0000
0
TEXT
8
TABLES
10
11.4658
20
6.6056
30
0.0000
40
0.1224
1
10
72
1
11
11.4658
21
6.6056
31
0.0000
0
TEXT
8
TABLES
10
12.4562
20
6.6056
30
0.0000
40
0.1224
1
48 IN
72
1
11
12.4562
21
6.6056
31
0.0000
0
TEXT
8
TABLES
10
14.2991
20
6.6056
30
0.0000
40
0.1224
1
M22759/16-22-6
0
TEXT
8
TABLES
10
16.6913
20
6.6056
30
0.0000
40
0.1224
1
WIRE, 22 AWG, BLU
0
LINE
8
TABLES
10
11.0179
20
6.5204
30
0.0000
11
21.2500
21
6.5204
31
0.0000
0
TEXT
8
TABLES
10
11.4658
20
6.9100
30
0.0000
40
0.1224
1
11
72
1
11
11.4658
21
6.9100
31
0.0000
0
TEXT
8
TABLES
10
12.4562
20
6.9100
30
0.0000
40
0.1224
1
54 IN
72
1
11
12.4562
21
6.9100
31
0.0000
0
TEXT
8
TABLES
10
14.2991
20
6.9100
30
0.0000
40
0.1224
1
M22759/16-22-0
0
TEXT
8
TABLES
10
16.6913
20
6.9100
30
0.0000
40
0.1224
1
WIRE, 22 AWG, BLK
0
LINE
8
TABLES
10
11.0179
20
6.8248
30
0.0000
11
21.2500
21
6.8248
31
0.0000
0
TEXT
8
TABLES
10
11.4658
20
7.2144
30
0.0000
40
0.1224
1
12
72
1
11
11.4658
21
7.2144
31
0.0000
0
TEXT
8
TABLES
10
12.4562
20
7.2144
30
0.0000
40
0.1224
1
48 IN
72
1
11
12.4562
21
7.2144
31
0.0000
0
TEXT
8
TABLES
10
14.2991
20
7.2144
30
0.0000
40
0.1224
1
M22759/16-20-5
0
TEXT
8
TABLES
10
16.6913
20
7.2144
30
0.0000
40
0.1224
1
WIRE, 20 AWG, GRN
0
LINE
8
TABLES
10
11.0179
20
7.1292
30
0.0000
11
21.2500
21
7.1292
31
0.0000
0
TEXT
8
TABLES
10
11.4658
20
7.5188
30
0.0000
40
0.1224
1
13
72
1
11
11.4658
21
7.5188
31
0.0000
0
TEXT
8
TABLES
10
12.4562
20
7.5188
30
0.0000
40
0.1224
1
2
72
1
11
12.4562
21
7.5188
31
0.0000
0
TEXT
8
TABLES
10
14.2991
20
7.5188
30
0.0000
40
0.1224
1
M83519/2-3
0
TEXT
8
TABLES
10
16.6913
20
7.5188
30
0.0000
40
0.1224
1
SHIELD TERMINATION, SOLDER SLEEVE
0
POLYLINE
8
TABLES
66
1
10
0.0000
20
0.0000
30
0.0000
70
1
0
VERTEX
8
TABLES
10
20.6899
20
7.7476
30
0.0000
0
VERTEX
8
TABLES
10
20.8518
20
7.4670
30
0.0000
0
VERTEX
8
TABLES
10
20.5279
20
7.4670
30
0.0000
0
SEQEND
8
TABLES
0
TEXT
8
TABLES
10
20.6899
20
7.4895
30
0.0000
40
0.1224
1
12
72
1
11
20.6899
21
7.4895
31
0.0000
0
LINE
8
TABLES
10
11.0179
20
7.4336
30
0.0000
11
21.2500
21
7.4336
31
0.0000
0
TEXT
8
TABLES
10
11.4658
20
7.8233
30
0.0000
40
0.1224
1
14
72
1
11
11.4658
21
7.8233
31
0.0000
0
TEXT
8
TABLES
10
12.4562
20
7.8233
30
0.0000
40
0.1224
1
1
72
1
11
12.4562
21
7.8233
31
0.0000
0
TEXT
8
TABLES
10
14.2991
20
7.8233
30
0.0000
40
0.1224
1
M81824/1-1
0
TEXT
8
TABLES
10
16.6913
20
7.8233
30
0.0000
40
0.1224
1
SPLICE, CRIMP, ENVIRONMENT RESISTANT
0
POLYLINE
8
TABLES
66
1
10
0.0000
20
0.0000
30
0.0000
70
1
0
VERTEX
8
TABLES
10
20.6899
20
8.0520
30
0.0000
0
VERTEX
8
TABLES
10
20.8518
20
7.7715
30
0.0000
0
VERTEX
8
TABLES
10
20.5279
20
7.7715
30
0.0000
0
SEQEND
8
TABLES
0
TEXT
8
TABLES
10
20.6899
20
7.7939
30
0.0000
40
0.1224
1
13
72
1
11
20.6899
21
7.7939
31
0.0000
0
LINE
8
TABLES
10
11.0179
20
7.7380
30
0.0000
11
21.2500
21
7.7380
31
0.0000
0
TEXT
8
TABLES
10
11.4658
20
8.1277
30
0.0000
40
0.1224
1
15
72
1
11
11.4658
21
8.1277
31
0.0000
0
TEXT
8
TABLES
10
12.4562
20
8.1277
30
0.0000
40
0.1224
1
26
72
1
11
12.4562
21
8.1277
31
0.0000
0
TEXT
8
TABLES
10
14.2991
20
8.1277
30
0.0000
40
0.1224
1
TMS-SCE-1/8-2.0-9
0
TEXT
8
TABLES
10
16.6913
20
8.1277
30
0.0000
40
0.1224
1
MARKER, WIRE, 1/8 IN
0
POLYLINE
8
TABLES
66
1
10
0.0000
20
0.0000
30
0.0000
70
1
0
VERTEX
8
TABLES
10
20.6899
20
8.3564
30
0.0000
0
VERTEX
8
TABLES
10
20.8518
20
8.0759
30
0.0000
0
VERTEX
8
TABLES
10
20.5279
20
8.0759
30
0.0000
0
SEQEND
8
TABLES
0
TEXT
8
TABLES
10
20.6899
20
8.0983
30
0.0000
40
0.1224
1
16
72
1
11
20.6899
21
8.0983
31
0.0000
0
LINE
8
TABLES
10
11.0179
20
8.0424
30
0.0000
11
21.2500
21
8.0424
31
0.0000
0
POLYLINE
8
TABLES
66
1
10
0.0000
20
0.0000
30
0.0000
70
1
0
VERTEX
8
TABLES
10
11.0179
20
8.3469
30
0.0000
0
VERTEX
8
TABLES
10
21.2500
20
8.3469
30
0.0000
0
VERTEX
8
TABLES
10
21.2500
20
3.4397
30
0.0000
0
VERTEX
8
TABLES
10
11.0179
20
3.4397
30
0.0000
0
SEQEND
8
TABLES
0
LINE
8
TABLES
10
11.9136
20
8.3469
30
0.0000
11
11.9136
21
3.4397
31
0.0000
0
LINE
8
TABLES
10
12.9988
20
8.3469
30
0.0000
11
12.9988
21
3.4397
31
0.0000
0
LINE
8
TABLES
10
14.2260
20
8.3469
30
0.0000
11
14.2260
21
3.4397
31
0.0000
0
LINE
8
TABLES
10
16.6182
20
8.3469
30
0.0000
11
16.6182
21
3.4397
31
0.0000
0
LINE
8
TABLES
10
20.4220
20
8.3469
30
0.0000
11
20.4220
21
3.4397
31
0.0000
0
TEXT
8
NOTES
10
0.9325
20
15.4275
30
0.0000
40
0.1399
1
NOTES:
0
TEXT
8
NOTES
10
0.9325
20
15.0622
30
0.0000
40
0.1224
1
1.
0
TEXT
8
NOTES
10
1.4196
20
15.0622
30
0.0000
40
0.1224
1
INTERPRET DRAWING PER ASME Y14.100.
0
TEXT
8
NOTES
10
0.9325
20
14.7456
30
0.0000
40
0.1224
1
2.
0
TEXT
8
NOTES
10
1.4196
20
14.7456
30
0.0000
40
0.1224
1
DIMENSIONS ARE IN INCHES. LENGTH TOLERANCE %%p0.5 IN.
0
TEXT
8
NOTES
10
0.9325
20
14.4290
30
0.0000
40
0.1224
1
3.
0
TEXT
8
NOTES
10
1.4196
20
14.4290
30
0.0000
40
0.1224
1
WIRE PER WIRE LIST. TERMINATE CONTACTS PER CONNECTOR MANUFACTURER'S INSTRUCTIONS.
0
TEXT
8
NOTES
10
0.9325
20
14.1124
30
0.0000
40
0.1224
1
4.
0
TEXT
8
NOTES
10
1.4196
20
14.1124
30
0.0000
40
0.1224
1
100% CONTINUITY AND ISOLATION TEST PER WIRE LIST.
0
TEXT
8
NOTES
10
0.9325
20
13.7958
30
0.0000
40
0.1224
1
5.
0
TEXT
8
NOTES
10
1.4196
20
13.7958
30
0.0000
40
0.1224
1
ASSEMBLY VIEW AND CONNECTOR PINOUTS ON SHEET 2. WIRING DIAGRAM ON SHEET 3. WIRE LIST, WIRE
0
TEXT
8
NOTES
10
1.4196
20
13.5523
30
0.0000
40
0.1224
1
GROUPS, SPLICES AND LABEL SCHEDULE ON SHEET 4.
0
TEXT
8
NOTES
10
0.9325
20
13.2357
30
0.0000
40
0.1224
1
6.
0
TEXT
8
NOTES
10
1.4196
20
13.2357
30
0.0000
40
0.1224
1
DIMENSIONS PER IPC-D-620: HARNESS DIMENSIONS, INCLUDING BREAKOUT AND SPLICE LOCATIONS, ARE
0
TEXT
8
NOTES
10
1.4196
20
12.9921
30
0.0000
40
0.1224
1
MEASURED FROM DATUM A, THE P1 CONNECTOR FACE. HARNESS LENGTH IS MEASURED FROM DATUM A TO
0
TEXT
8
NOTES
10
1.4196
20
12.7486
30
0.0000
40
0.1224
1
THE FINAL TERMINATION. BREAKOUT LENGTHS ARE MEASURED FROM THE APPROXIMATE CENTERLINE OF
0
TEXT
8
NOTES
10
1.4196
20
12.5051
30
0.0000
40
0.1224
1
THE HARNESS AT THE BREAKOUT TO THE FINAL TERMINATION.
0
TEXT
8
NOTES
10
0.9325
20
12.1885
30
0.0000
40
0.1224
1
7.
0
TEXT
8
NOTES
10
1.4196
20
12.1885
30
0.0000
40
0.1224
1
CONTACTS (M39029/56-351, M39029/58-363) ARE SUPPLIED WITH CONNECTORS (FIND NOS. 1, 2); DO NOT
0
TEXT
8
NOTES
10
1.4196
20
11.9449
30
0.0000
40
0.1224
1
ORDER SEPARATELY.
0
TEXT
8
NOTES
10
0.9325
20
11.6283
30
0.0000
40
0.1224
1
8.
0
TEXT
8
NOTES
10
1.4196
20
11.6283
30
0.0000
40
0.1224
1
CONNECTOR PINOUTS SHOW THE FRONT (ENGAGING) FACE OF THE CONNECTOR CALLED OUT: INSERT
0
TEXT
8
NOTES
10
1.4196
20
11.3848
30
0.0000
40
0.1224
1
ARRANGEMENT PER MIL-STD-1560, SOCKET INSERTS AS THE MIRROR IMAGE OF THE PIN INSERT. FILLED
0
TEXT
8
NOTES
10
1.4196
20
11.1413
30
0.0000
40
0.1224
1
CAVITIES ARE WIRED; OPEN CAVITIES ARE NC. MASTER KEYWAY NOT SHOWN.
0
TEXT
8
NOTES
10
0.9325
20
10.8247
30
0.0000
40
0.1224
1
9.
0
TEXT
8
NOTES
10
1.4196
20
10.8247
30
0.0000
40
0.1224
1
NC (NO CONNECTION) CONTACT POSITIONS: P1: N, P, R, S, T, U; P2: N, P, R, S, T, U.
0
TEXT
8
NOTES
10
0.9325
20
10.5081
30
0.0000
40
0.1224
1
10.
0
TEXT
8
NOTES
10
1.4196
20
10.5081
30
0.0000
40
0.1224
1
TWIST THE WIRES OF EACH TWISTED GROUP TOGETHER OVER THEIR FULL LENGTH (SEE WIRE GROUPS
0
TEXT
8
NOTES
10
1.4196
20
10.2646
30
0.0000
40
0.1224
1
TABLE).
0
TEXT
8
NOTES
10
0.9325
20
9.9480
30
0.0000
40
0.1224
1
11.
0
TEXT
8
NOTES
10
1.4196
20
9.9480
30
0.0000
40
0.1224
1
CALCULATED BUNDLE DIAMETER AT CONNECTORS (REF): P1 0.257 IN, P2 0.257 IN.
0
POLYLINE
8
NOTES
66
1
10
0.0000
20
0.0000
30
0.0000
70
1
0
VERTEX
8
NOTES
10
1.0786
20
9.8662
30
0.0000
0
VERTEX
8
NOTES
10
1.2406
20
9.5857
30
0.0000
0
VERTEX
8
NOTES
10
0.9167
20
9.5857
30
0.0000
0
SEQEND
8
NOTES
0
TEXT
8
NOTES
10
1.0786
20
9.6081
30
0.0000
40
0.1224
1
12
72
1
11
1.0786
21
9.6081
31
0.0000
0
TEXT
8
NOTES
10
1.4196
20
9.6314
30
0.0000
40
0.1224
1
TERMINATE SHIELDS PER WIRE GROUPS TABLE USING FIND NO. 13. INSULATE FLOATING SHIELD ENDS.
0
POLYLINE
8
NOTES
66
1
10
0.0000
20
0.0000
30
0.0000
70
1
0
VERTEX
8
NOTES
10
1.0786
20
9.5496
30
0.0000
0
VERTEX
8
NOTES
10
1.2406
20
9.2691
30
0.0000
0
VERTEX
8
NOTES
10
0.9167
20
9.2691
30
0.0000
0
SEQEND
8
NOTES
0
TEXT
8
NOTES
10
1.0786
20
9.2915
30
0.0000
40
0.1224
1
13
72
1
11
1.0786
21
9.2915
31
0.0000
0
TEXT
8
NOTES
10
1.4196
20
9.3148
30
0.0000
40
0.1224
1
INSTALL SPLICE (FIND NO. 14) AT LOCATION SHOWN; SEE SPLICE TABLE.
0
POLYLINE
8
NOTES
66
1
10
0.0000
20
0.0000
30
0.0000
70
1
0
VERTEX
8
NOTES
10
1.0786
20
9.2330
30
0.0000
0
VERTEX
8
NOTES
10
1.2406
20
8.9525
30
0.0000
0
VERTEX
8
NOTES
10
0.9167
20
8.9525
30
0.0000
0
SEQEND
8
NOTES
0
TEXT
8
NOTES
10
1.0786
20
8.9749
30
0.0000
40
0.1224
1
14
72
1
11
1.0786
21
8.9749
31
0.0000
0
TEXT
8
NOTES
10
1.4196
20
8.9982
30
0.0000
40
0.1224
1
RECOVER HEATSHRINK BOOT (FIND NO. 4) OVER BACKSHELL CABLE CLAMP.
0
POLYLINE
8
NOTES
66
1
10
0.0000
20
0.0000
30
0.0000
70
1
0
VERTEX
8
NOTES
10
1.0786
20
8.9164
30
0.0000
0
VERTEX
8
NOTES
10
1.2406
20
8.6359
30
0.0000
0
VERTEX
8
NOTES
10
0.9167
20
8.6359
30
0.0000
0
SEQEND
8
NOTES
0
TEXT
8
NOTES
10
1.0786
20
8.6583
30
0.0000
40
0.1224
1
15
72
1
11
1.0786
21
8.6583
31
0.0000
0
TEXT
8
NOTES
10
1.4196
20
8.6816
30
0.0000
40
0.1224
1
INSTALL IDENTIFICATION LABEL (FIND NO. 5) ADJACENT TO CONNECTOR; MARK PER LABEL SCHEDULE.
0
POLYLINE
8
NOTES
66
1
10
0.0000
20
0.0000
30
0.0000
70
1
0
VERTEX
8
NOTES
10
1.0786
20
8.5998
30
0.0000
0
VERTEX
8
NOTES
10
1.2406
20
8.3193
30
0.0000
0
VERTEX
8
NOTES
10
0.9167
20
8.3193
30
0.0000
0
SEQEND
8
NOTES
0
TEXT
8
NOTES
10
1.0786
20
8.3417
30
0.0000
40
0.1224
1
16
72
1
11
1.0786
21
8.3417
31
0.0000
0
TEXT
8
NOTES
10
1.4196
20
8.3650
30
0.0000
40
0.1224
1
INSTALL WIRE MARKER (FIND NO. 15) AT EACH END OF EACH WIRE; MARK WITH WIRE ID.
0
POLYLINE
8
TITLE_BLOCK
66
1
10
0.0000
20
0.0000
30
0.0000
70
1
0
VERTEX
8
TITLE_BLOCK
10
9.2800
20
3.0500
30
0.0000
0
VERTEX
8
TITLE_BLOCK
10
11.5300
20
3.0500
30
0.0000
0
VERTEX
8
TITLE_BLOCK
10
11.5300
20
0.7500
30
0.0000
0
VERTEX
8
TITLE_BLOCK
10
9.2800
20
0.7500
30
0.0000
0
SEQEND
8
TITLE_BLOCK
0
POLYLINE
8
TITLE_BLOCK
66
1
10
0.0000
20
0.0000
30
0.0000
70
1
0
VERTEX
8
TITLE_BLOCK
10
9.2800
20
3.0500
30
0.0000
0
VERTEX
8
TITLE_BLOCK
10
11.5300
20
3.0500
30
0.0000
0
VERTEX
8
TITLE_BLOCK
10
11.5300
20
2.8000
30
0.0000
0
VERTEX
8
TITLE_BLOCK
10
9.2800
20
2.8000
30
0.0000
0
SEQEND
8
TITLE_BLOCK
0
TEXT
8
TITLE_BLOCK
10
10.4050
20
2.8694
30
0.0000
40
0.1020
1
APPLICATION
72
1
11
10.4050
21
2.8694
31
0.0000
0
POLYLINE
8
TITLE_BLOCK
66
1
10
0.0000
20
0.0000
30
0.0000
70
1
0
VERTEX
8
TITLE_BLOCK
10
9.2800
20
2.8000
30
0.0000
0
VERTEX
8
TITLE_BLOCK
10
10.4050
20
2.8000
30
0.0000
0
VERTEX
8
TITLE_BLOCK
10
10.4050
20
2.2000
30
0.0000
0
VERTEX
8
TITLE_BLOCK
10
9.2800
20
2.2000
30
0.0000
0
SEQEND
8
TITLE_BLOCK
0
TEXT
8
TITLE_BLOCK
10
9.3217
20
2.6792
30
0.0000
40
0.1020
1
NEXT ASSY
0
TEXT
8
TITLE_BLOCK
10
9.3494
20
2.2694
30
0.0000
40
0.1224
1
A1000-001
0
POLYLINE
8
TITLE_BLOCK
66
1
10
0.0000
20
0.0000
30
0.0000
70
1
0
VERTEX
8
TITLE_BLOCK
10
10.4050
20
2.8000
30
0.0000
0
VERTEX
8
TITLE_BLOCK
10
11.5300
20
2.8000
30
0.0000
0
VERTEX
8
TITLE_BLOCK
10
11.5300
20
2.2000
30
0.0000
0
VERTEX
8
TITLE_BLOCK
10
10.4050
20
2.2000
30
0.0000
0
SEQEND
8
TITLE_BLOCK
0
TEXT
8
TITLE_BLOCK
10
10.4467
20
2.6792
30
0.0000
40
0.1020
1
USED ON
0
TEXT
8
TITLE_BLOCK
10
10.4744
20
2.2694
30
0.0000
40
0.1224
1
FCC INST...
0
POLYLINE
8
TITLE_BLOCK
66
1
10
0.0000
20
0.0000
30
0.0000
70
1
0
VERTEX
8
TITLE_BLOCK
10
11.5300
20
3.0500
30
0.0000
0
VERTEX
8
TITLE_BLOCK
10
14.6300
20
3.0500
30
0.0000
0
VERTEX
8
TITLE_BLOCK
10
14.6300
20
0.7500
30
0.0000
0
VERTEX
8
TITLE_BLOCK
10
11.5300
20
0.7500
30
0.0000
0
SEQEND
8
TITLE_BLOCK
0
TEXT
8
TITLE_BLOCK
10
11.6133
20
2.8240
30
0.0000
40
0.1224
1
UNLESS OTHERWISE SPECIFIED:
0
TEXT
8
TITLE_BLOCK
10
11.6133
20
2.6118
30
0.0000
40
0.1224
1
DIMENSIONS ARE IN INCHES
0
TEXT
8
TITLE_BLOCK
10
11.6133
20
2.3997
30
0.0000
40
0.1224
1
LENGTH TOLERANCE %%p0.5
0
TEXT
8
TITLE_BLOCK
10
11.6133
20
2.1876
30
0.0000
40
0.1224
1
INTERPRET PER ASME Y14.5
0
TEXT
8
TITLE_BLOCK
10
11.6133
20
1.9754
30
0.0000
40
0.1224
1
DO NOT SCALE DRAWING
0
LINE
8
TITLE_BLOCK
10
11.5300
20
1.3000
30
0.0000
11
14.6300
21
1.3000
31
0.0000
0
TEXT
8
TITLE_BLOCK
10
11.5856
20
1.1579
30
0.0000
40
0.1020
1
THIRD ANGLE PROJECTION
0
POLYLINE
8
TITLE_BLOCK
66
1
10
0.0000
20
0.0000
30
0.0000
70
1
0
VERTEX
8
TITLE_BLOCK
10
12.7300
20
1.0500
30
0.0000
0
VERTEX
8
TITLE_BLOCK
10
12.9500
20
1.0000
30
0.0000
0
VERTEX
8
TITLE_BLOCK
10
12.9500
20
0.9000
30
0.0000
0
VERTEX
8
TITLE_BLOCK
10
12.7300
20
0.8500
30
0.0000
0
SEQEND
8
TITLE_BLOCK
0
LINE
8
TITLE_BLOCK
6
DASHED
10
12.6883
20
0.9500
30
0.0000
11
12.9917
21
0.9500
31
0.0000
0
CIRCLE
8
TITLE_BLOCK
10
13.1400
20
0.9500
30
0.0000
40
0.1000
0
CIRCLE
8
TITLE_BLOCK
10
13.1400
20
0.9500
30
0.0000
40
0.0500
0
LINE
8
TITLE_BLOCK
6
DASHED
10
12.9983
20
0.9500
30
0.0000
11
13.2817
21
0.9500
31
0.0000
0
LINE
8
TITLE_BLOCK
6
DASHED
10
13.1400
20
1.0917
30
0.0000
11
13.1400
21
0.8083
31
0.0000
0
POLYLINE
8
TITLE_BLOCK
66
1
10
0.0000
20
0.0000
30
0.0000
70
1
0
VERTEX
8
TITLE_BLOCK
10
14.6300
20
3.0500
30
0.0000
0
VERTEX
8
TITLE_BLOCK
10
21.2500
20
3.0500
30
0.0000
0
VERTEX
8
TITLE_BLOCK
10
21.2500
20
0.7500
30
0.0000
0
VERTEX
8
TITLE_BLOCK
10
14.6300
20
0.7500
30
0.0000
0
SEQEND
8
TITLE_BLOCK
0
POLYLINE
8
TITLE_BLOCK
66
1
10
0.0000
20
0.0000
30
0.0000
70
1
0
VERTEX
8
TITLE_BLOCK
10
14.6300
20
3.0500
30
0.0000
0
VERTEX
8
TITLE_BLOCK
10
17.2500
20
3.0500
30
0.0000
0
VERTEX
8
TITLE_BLOCK
10
17.2500
20
2.6300
30
0.0000
0
VERTEX
8
TITLE_BLOCK
10
14.6300
20
2.6300
30
0.0000
0
SEQEND
8
TITLE_BLOCK
0
TEXT
8
TITLE_BLOCK
10
14.6717
20
2.9292
30
0.0000
40
0.1020
1
CONTRACT NO.
0
POLYLINE
8
TITLE_BLOCK
66
1
10
0.0000
20
0.0000
30
0.0000
70
1
0
VERTEX
8
TITLE_BLOCK
10
14.6300
20
2.6300
30
0.0000
0
VERTEX
8
TITLE_BLOCK
10
17.2500
20
2.6300
30
0.0000
0
VERTEX
8
TITLE_BLOCK
10
17.2500
20
2.4100
30
0.0000
0
VERTEX
8
TITLE_BLOCK
10
14.6300
20
2.4100
30
0.0000
0
SEQEND
8
TITLE_BLOCK
0
TEXT
8
TITLE_BLOCK
10
14.6856
20
2.4879
30
0.0000
40
0.1020
1
APPROVALS
0
TEXT
8
TITLE_BLOCK
10
16.2020
20
2.4879
30
0.0000
40
0.1020
1
DATE
0
POLYLINE
8
TITLE_BLOCK
66
1
10
0.0000
20
0.0000
30
0.0000
70
1
0
VERTEX
8
TITLE_BLOCK
10
14.6300
20
2.4100
30
0.0000
0
VERTEX
8
TITLE_BLOCK
10
16.0972
20
2.4100
30
0.0000
0
VERTEX
8
TITLE_BLOCK
10
16.0972
20
1.9950
30
0.0000
0
VERTEX
8
TITLE_BLOCK
10
14.6300
20
1.9950
30
0.0000
0
SEQEND
8
TITLE_BLOCK
0
TEXT
8
TITLE_BLOCK
10
14.6717
20
2.2892
30
0.0000
40
0.1020
1
DRAWN
0
TEXT
8
TITLE_BLOCK
10
14.6994
20
2.0644
30
0.0000
40
0.1224
1
K. KIPER
0
POLYLINE
8
TITLE_BLOCK
66
1
10
0.0000
20
0.0000
30
0.0000
70
1
0
VERTEX
8
TITLE_BLOCK
10
16.0972
20
2.4100
30
0.0000
0
VERTEX
8
TITLE_BLOCK
10
17.2500
20
2.4100
30
0.0000
0
VERTEX
8
TITLE_BLOCK
10
17.2500
20
1.9950
30
0.0000
0
VERTEX
8
TITLE_BLOCK
10
16.0972
20
1.9950
30
0.0000
0
SEQEND
8
TITLE_BLOCK
0
TEXT
8
TITLE_BLOCK
10
16.1666
20
2.0644
30
0.0000
40
0.1224
1
2026-10-08
0
POLYLINE
8
TITLE_BLOCK
66
1
10
0.0000
20
0.0000
30
0.0000
70
1
0
VERTEX
8
TITLE_BLOCK
10
14.6300
20
1.9950
30
0.0000
0
VERTEX
8
TITLE_BLOCK
10
16.0972
20
1.9950
30
0.0000
0
VERTEX
8
TITLE_BLOCK
10
16.0972
20
1.5800
30
0.0000
0
VERTEX
8
TITLE_BLOCK
10
14.6300
20
1.5800
30
0.0000
0
SEQEND
8
TITLE_BLOCK
0
TEXT
8
TITLE_BLOCK
10
14.6717
20
1.8742
30
0.0000
40
0.1020
1
CHECKED
0
TEXT
8
TITLE_BLOCK
10
14.6994
20
1.6494
30
0.0000
40
0.1224
1
J. SMITH
0
POLYLINE
8
TITLE_BLOCK
66
1
10
0.0000
20
0.0000
30
0.0000
70
1
0
VERTEX
8
TITLE_BLOCK
10
16.0972
20
1.9950
30
0.0000
0
VERTEX
8
TITLE_BLOCK
10
17.2500
20
1.9950
30
0.0000
0
VERTEX
8
TITLE_BLOCK
10
17.2500
20
1.5800
30
0.0000
0
VERTEX
8
TITLE_BLOCK
10
16.0972
20
1.5800
30
0.0000
0
SEQEND
8
TITLE_BLOCK
0
TEXT
8
TITLE_BLOCK
10
16.1666
20
1.6494
30
0.0000
40
0.1224
1
2026-10-08
0
POLYLINE
8
TITLE_BLOCK
66
1
10
0.0000
20
0.0000
30
0.0000
70
1
0
VERTEX
8
TITLE_BLOCK
10
14.6300
20
1.5800
30
0.0000
0
VERTEX
8
TITLE_BLOCK
10
16.0972
20
1.5800
30
0.0000
0
VERTEX
8
TITLE_BLOCK
10
16.0972
20
1.1650
30
0.0000
0
VERTEX
8
TITLE_BLOCK
10
14.6300
20
1.1650
30
0.0000
0
SEQEND
8
TITLE_BLOCK
0
TEXT
8
TITLE_BLOCK
10
14.6717
20
1.4592
30
0.0000
40
0.1020
1
ENGR
0
POLYLINE
8
TITLE_BLOCK
66
1
10
0.0000
20
0.0000
30
0.0000
70
1
0
VERTEX
8
TITLE_BLOCK
10
16.0972
20
1.5800
30
0.0000
0
VERTEX
8
TITLE_BLOCK
10
17.2500
20
1.5800
30
0.0000
0
VERTEX
8
TITLE_BLOCK
10
17.2500
20
1.1650
30
0.0000
0
VERTEX
8
TITLE_BLOCK
10
16.0972
20
1.1650
30
0.0000
0
SEQEND
8
TITLE_BLOCK
0
POLYLINE
8
TITLE_BLOCK
66
1
10
0.0000
20
0.0000
30
0.0000
70
1
0
VERTEX
8
TITLE_BLOCK
10
14.6300
20
1.1650
30
0.0000
0
VERTEX
8
TITLE_BLOCK
10
16.0972
20
1.1650
30
0.0000
0
VERTEX
8
TITLE_BLOCK
10
16.0972
20
0.7500
30
0.0000
0
VERTEX
8
TITLE_BLOCK
10
14.6300
20
0.7500
30
0.0000
0
SEQEND
8
TITLE_BLOCK
0
TEXT
8
TITLE_BLOCK
10
14.6717
20
1.0442
30
0.0000
40
0.1020
1
APPROVED
0
POLYLINE
8
TITLE_BLOCK
66
1
10
0.0000
20
0.0000
30
0.0000
70
1
0
VERTEX
8
TITLE_BLOCK
10
16.0972
20
1.1650
30
0.0000
0
VERTEX
8
TITLE_BLOCK
10
17.2500
20
1.1650
30
0.0000
0
VERTEX
8
TITLE_BLOCK
10
17.2500
20
0.7500
30
0.0000
0
VERTEX
8
TITLE_BLOCK
10
16.0972
20
0.7500
30
0.0000
0
SEQEND
8
TITLE_BLOCK
0
POLYLINE
8
TITLE_BLOCK
66
1
10
0.0000
20
0.0000
30
0.0000
70
1
0
VERTEX
8
TITLE_BLOCK
10
17.2500
20
3.0500
30
0.0000
0
VERTEX
8
TITLE_BLOCK
10
21.2500
20
3.0500
30
0.0000
0
VERTEX
8
TITLE_BLOCK
10
21.2500
20
2.6500
30
0.0000
0
VERTEX
8
TITLE_BLOCK
10
17.2500
20
2.6500
30
0.0000
0
SEQEND
8
TITLE_BLOCK
0
TEXT
8
TITLE_BLOCK
10
19.2500
20
2.8694
30
0.0000
40
0.1224
1
ACME AEROSPACE (EXAMPLE)
72
1
11
19.2500
21
2.8694
31
0.0000
0
POLYLINE
8
TITLE_BLOCK
66
1
10
0.0000
20
0.0000
30
0.0000
70
1
0
VERTEX
8
TITLE_BLOCK
10
17.2500
20
2.6500
30
0.0000
0
VERTEX
8
TITLE_BLOCK
10
21.2500
20
2.6500
30
0.0000
0
VERTEX
8
TITLE_BLOCK
10
21.2500
20
1.7000
30
0.0000
0
VERTEX
8
TITLE_BLOCK
10
17.2500
20
1.7000
30
0.0000
0
SEQEND
8
TITLE_BLOCK
0
TEXT
8
TITLE_BLOCK
10
17.2917
20
2.5292
30
0.0000
40
0.1020
1
TITLE
0
TEXT
8
TITLE_BLOCK
10
19.2500
20
2.1448
30
0.0000
40
0.2448
1
CABLE ASSY, FCC TO
72
1
11
19.2500
21
2.1448
31
0.0000
0
TEXT
8
TITLE_BLOCK
10
19.2500
20
1.7899
30
0.0000
40
0.2448
1
PDU
72
1
11
19.2500
21
1.7899
31
0.0000
0
POLYLINE
8
TITLE_BLOCK
66
1
10
0.0000
20
0.0000
30
0.0000
70
1
0
VERTEX
8
TITLE_BLOCK
10
17.2500
20
1.7000
30
0.0000
0
VERTEX
8
TITLE_BLOCK
10
17.8500
20
1.7000
30
0.0000
0
VERTEX
8
TITLE_BLOCK
10
17.8500
20
1.1500
30
0.0000
0
VERTEX
8
TITLE_BLOCK
10
17.2500
20
1.1500
30
0.0000
0
SEQEND
8
TITLE_BLOCK
0
TEXT
8
TITLE_BLOCK
10
17.2917
20
1.5792
30
0.0000
40
0.1020
1
SIZE
0
TEXT
8
TITLE_BLOCK
10
17.5500
20
1.2194
30
0.0000
40
0.2448
1
C
72
1
11
17.5500
21
1.2194
31
0.0000
0
POLYLINE
8
TITLE_BLOCK
66
1
10
0.0000
20
0.0000
30
0.0000
70
1
0
VERTEX
8
TITLE_BLOCK
10
17.8500
20
1.7000
30
0.0000
0
VERTEX
8
TITLE_BLOCK
10
18.8500
20
1.7000
30
0.0000
0
VERTEX
8
TITLE_BLOCK
10
18.8500
20
1.1500
30
0.0000
0
VERTEX
8
TITLE_BLOCK
10
17.8500
20
1.1500
30
0.0000
0
SEQEND
8
TITLE_BLOCK
0
TEXT
8
TITLE_BLOCK
10
17.8917
20
1.5792
30
0.0000
40
0.1020
1
CAGE CODE
0
POLYLINE
8
TITLE_BLOCK
66
1
10
0.0000
20
0.0000
30
0.0000
70
1
0
VERTEX
8
TITLE_BLOCK
10
18.8500
20
1.7000
30
0.0000
0
VERTEX
8
TITLE_BLOCK
10
20.6500
20
1.7000
30
0.0000
0
VERTEX
8
TITLE_BLOCK
10
20.6500
20
1.1500
30
0.0000
0
VERTEX
8
TITLE_BLOCK
10
18.8500
20
1.1500
30
0.0000
0
SEQEND
8
TITLE_BLOCK
0
TEXT
8
TITLE_BLOCK
10
18.8917
20
1.5792
30
0.0000
40
0.1020
1
DWG NO.
0
TEXT
8
TITLE_BLOCK
10
18.9194
20
1.2194
30
0.0000
40
0.2448
1
W101-001
0
POLYLINE
8
TITLE_BLOCK
66
1
10
0.0000
20
0.0000
30
0.0000
70
1
0
VERTEX
8
TITLE_BLOCK
10
20.6500
20
1.7000
30
0.0000
0
VERTEX
8
TITLE_BLOCK
10
21.2500
20
1.7000
30
0.0000
0
VERTEX
8
TITLE_BLOCK
10
21.2500
20
1.1500
30
0.0000
0
VERTEX
8
TITLE_BLOCK
10
20.6500
20
1.1500
30
0.0000
0
SEQEND
8
TITLE_BLOCK
0
TEXT
8
TITLE_BLOCK
10
20.6917
20
1.5792
30
0.0000
40
0.1020
1
REV
0
TEXT
8
TITLE_BLOCK
10
20.9500
20
1.2194
30
0.0000
40
0.1224
1
A
72
1
11
20.9500
21
1.2194
31
0.0000
0
POLYLINE
8
TITLE_BLOCK
66
1
10
0.0000
20
0.0000
30
0.0000
70
1
0
VERTEX
8
TITLE_BLOCK
10
17.2500
20
1.1500
30
0.0000
0
VERTEX
8
TITLE_BLOCK
10
18.5833
20
1.1500
30
0.0000
0
VERTEX
8
TITLE_BLOCK
10
18.5833
20
0.7500
30
0.0000
0
VERTEX
8
TITLE_BLOCK
10
17.2500
20
0.7500
30
0.0000
0
SEQEND
8
TITLE_BLOCK
0
TEXT
8
TITLE_BLOCK
10
17.2917
20
1.0292
30
0.0000
40
0.1020
1
SCALE
0
TEXT
8
TITLE_BLOCK
10
17.3194
20
0.8194
30
0.0000
40
0.1224
1
NONE
0
POLYLINE
8
TITLE_BLOCK
66
1
10
0.0000
20
0.0000
30
0.0000
70
1
0
VERTEX
8
TITLE_BLOCK
10
18.5833
20
1.1500
30
0.0000
0
VERTEX
8
TITLE_BLOCK
10
19.9167
20
1.1500
30
0.0000
0
VERTEX
8
TITLE_BLOCK
10
19.9167
20
0.7500
30
0.0000
0
VERTEX
8
TITLE_BLOCK
10
18.5833
20
0.7500
30
0.0000
0
SEQEND
8
TITLE_BLOCK
0
TEXT
8
TITLE_BLOCK
10
18.6250
20
1.0292
30
0.0000
40
0.1020
1
WEIGHT
0
POLYLINE
8
TITLE_BLOCK
66
1
10
0.0000
20
0.0000
30
0.0000
70
1
0
VERTEX
8
TITLE_BLOCK
10
19.9167
20
1.1500
30
0.0000
0
VERTEX
8
TITLE_BLOCK
10
21.2500
20
1.1500
30
0.0000
0
VERTEX
8
TITLE_BLOCK
10
21.2500
20
0.7500
30
0.0000
0
VERTEX
8
TITLE_BLOCK
10
19.9167
20
0.7500
30
0.0000
0
SEQEND
8
TITLE_BLOCK
0
TEXT
8
TITLE_BLOCK
10
19.9583
20
1.0292
30
0.0000
40
0.1020
1
SHEET
0
TEXT
8
TITLE_BLOCK
10
19.9861
20
0.8194
30
0.0000
40
0.1224
1
1 OF 4
0
ENDSEC
0
EOF
