0
SECTION
2
HEADER
9
$ACADVER
1
AC1009
9
$INSUNITS
70
1
9
$EXTMIN
10
0.0000
20
0.0000
30
0.0000
9
$EXTMAX
10
22.0000
20
17.0000
30
0.0000
9
$LIMMIN
10
0.0000
20
0.0000
9
$LIMMAX
10
22.0000
20
17.0000
0
ENDSEC
0
SECTION
2
TABLES
0
TABLE
2
LTYPE
70
2
0
LTYPE
2
CONTINUOUS
70
0
3
Solid line
72
65
73
0
40
0.0000
0
LTYPE
2
DASHED
70
0
3
__ __ __
72
65
73
2
40
0.1500
49
0.1000
49
-0.0500
0
ENDTAB
0
TABLE
2
LAYER
70
13
0
LAYER
2
0
70
0
62
7
6
CONTINUOUS
0
LAYER
2
BORDER
70
0
62
7
6
CONTINUOUS
0
LAYER
2
TITLE_BLOCK
70
0
62
7
6
CONTINUOUS
0
LAYER
2
ASSEMBLY
70
0
62
7
6
CONTINUOUS
0
LAYER
2
CABLE
70
0
62
7
6
CONTINUOUS
0
LAYER
2
DIMENSIONS
70
0
62
3
6
CONTINUOUS
0
LAYER
2
BALLOONS
70
0
62
5
6
CONTINUOUS
0
LAYER
2
WIRING
70
0
62
7
6
CONTINUOUS
0
LAYER
2
SHIELDS
70
0
62
4
6
CONTINUOUS
0
LAYER
2
FACE_VIEWS
70
0
62
7
6
CONTINUOUS
0
LAYER
2
TABLES
70
0
62
7
6
CONTINUOUS
0
LAYER
2
NOTES
70
0
62
7
6
CONTINUOUS
0
LAYER
2
TEXT
70
0
62
7
6
CONTINUOUS
0
ENDTAB
0
ENDSEC
0
SECTION
2
ENTITIES
0
POLYLINE
8
BORDER
66
1
10
0.0000
20
0.0000
30
0.0000
70
1
0
VERTEX
8
BORDER
10
0.3750
20
16.6250
30
0.0000
0
VERTEX
8
BORDER
10
21.6250
20
16.6250
30
0.0000
0
VERTEX
8
BORDER
10
21.6250
20
0.3750
30
0.0000
0
VERTEX
8
BORDER
10
0.3750
20
0.3750
30
0.0000
0
SEQEND
8
BORDER
0
POLYLINE
8
BORDER
66
1
10
0.0000
20
0.0000
30
0.0000
70
1
0
VERTEX
8
BORDER
10
0.7500
20
16.2500
30
0.0000
0
VERTEX
8
BORDER
10
21.2500
20
16.2500
30
0.0000
0
VERTEX
8
BORDER
10
21.2500
20
0.7500
30
0.0000
0
VERTEX
8
BORDER
10
0.7500
20
0.7500
30
0.0000
0
SEQEND
8
BORDER
0
TEXT
8
BORDER
10
2.8000
20
16.3148
30
0.0000
40
0.2448
1
5
72
1
11
2.8000
21
16.3148
31
0.0000
0
TEXT
8
BORDER
10
2.8000
20
0.4398
30
0.0000
40
0.2448
1
5
72
1
11
2.8000
21
0.4398
31
0.0000
0
TEXT
8
BORDER
10
6.9000
20
16.3148
30
0.0000
40
0.2448
1
4
72
1
11
6.9000
21
16.3148
31
0.0000
0
TEXT
8
BORDER
10
6.9000
20
0.4398
30
0.0000
40
0.2448
1
4
72
1
11
6.9000
21
0.4398
31
0.0000
0
LINE
8
BORDER
10
4.8500
20
16.6250
30
0.0000
11
4.8500
21
16.2500
31
0.0000
0
LINE
8
BORDER
10
4.8500
20
0.7500
30
0.0000
11
4.8500
21
0.3750
31
0.0000
0
TEXT
8
BORDER
10
11.0000
20
16.3148
30
0.0000
40
0.2448
1
3
72
1
11
11.0000
21
16.3148
31
0.0000
0
TEXT
8
BORDER
10
11.0000
20
0.4398
30
0.0000
40
0.2448
1
3
72
1
11
11.0000
21
0.4398
31
0.0000
0
LINE
8
BORDER
10
8.9500
20
16.6250
30
0.0000
11
8.9500
21
16.2500
31
0.0000
0
LINE
8
BORDER
10
8.9500
20
0.7500
30
0.0000
11
8.9500
21
0.3750
31
0.0000
0
TEXT
8
BORDER
10
15.1000
20
16.3148
30
0.0000
40
0.2448
1
2
72
1
11
15.1000
21
16.3148
31
0.0000
0
TEXT
8
BORDER
10
15.1000
20
0.4398
30
0.0000
40
0.2448
1
2
72
1
11
15.1000
21
0.4398
31
0.0000
0
LINE
8
BORDER
10
13.0500
20
16.6250
30
0.0000
11
13.0500
21
16.2500
31
0.0000
0
LINE
8
BORDER
10
13.0500
20
0.7500
30
0.0000
11
13.0500
21
0.3750
31
0.0000
0
TEXT
8
BORDER
10
19.2000
20
16.3148
30
0.0000
40
0.2448
1
1
72
1
11
19.2000
21
16.3148
31
0.0000
0
TEXT
8
BORDER
10
19.2000
20
0.4398
30
0.0000
40
0.2448
1
1
72
1
11
19.2000
21
0.4398
31
0.0000
0
LINE
8
BORDER
10
17.1500
20
16.6250
30
0.0000
11
17.1500
21
16.2500
31
0.0000
0
LINE
8
BORDER
10
17.1500
20
0.7500
30
0.0000
11
17.1500
21
0.3750
31
0.0000
0
TEXT
8
BORDER
10
0.5625
20
13.5439
30
0.0000
40
0.2448
1
C
72
1
11
0.5625
21
13.5439
31
0.0000
0
TEXT
8
BORDER
10
21.4375
20
13.5439
30
0.0000
40
0.2448
1
C
72
1
11
21.4375
21
13.5439
31
0.0000
0
TEXT
8
BORDER
10
0.5625
20
8.3773
30
0.0000
40
0.2448
1
B
72
1
11
0.5625
21
8.3773
31
0.0000
0
TEXT
8
BORDER
10
21.4375
20
8.3773
30
0.0000
40
0.2448
1
B
72
1
11
21.4375
21
8.3773
31
0.0000
0
LINE
8
BORDER
10
0.3750
20
11.0833
30
0.0000
11
0.7500
21
11.0833
31
0.0000
0
LINE
8
BORDER
10
21.2500
20
11.0833
30
0.0000
11
21.6250
21
11.0833
31
0.0000
0
TEXT
8
BORDER
10
0.5625
20
3.2106
30
0.0000
40
0.2448
1
A
72
1
11
0.5625
21
3.2106
31
0.0000
0
TEXT
8
BORDER
10
21.4375
20
3.2106
30
0.0000
40
0.2448
1
A
72
1
11
21.4375
21
3.2106
31
0.0000
0
LINE
8
BORDER
10
0.3750
20
5.9167
30
0.0000
11
0.7500
21
5.9167
31
0.0000
0
LINE
8
BORDER
10
21.2500
20
5.9167
30
0.0000
11
21.6250
21
5.9167
31
0.0000
0
POLYLINE
8
BORDER
66
1
10
0.0000
20
0.0000
30
0.0000
70
1
0
VERTEX
8
BORDER
10
0.7500
20
16.2500
30
0.0000
0
VERTEX
8
BORDER
10
3.5000
20
16.2500
30
0.0000
0
VERTEX
8
BORDER
10
3.5000
20
15.7500
30
0.0000
0
VERTEX
8
BORDER
10
0.7500
20
15.7500
30
0.0000
0
SEQEND
8
BORDER
0
TEXT
8
BORDER
10
2.1250
20
16.0614
30
0.0000
40
0.1224
1
W101-001  REV A
50
180.0000
72
1
11
2.1250
21
16.0614
31
0.0000
0
TEXT
8
0
10
0.9167
20
15.4129
30
0.0000
40
0.1224
1
WIRING DIAGRAM
0
POLYLINE
8
WIRING
66
1
10
0.0000
20
0.0000
30
0.0000
70
1
0
VERTEX
8
WIRING
10
0.9167
20
15.1906
30
0.0000
0
VERTEX
8
WIRING
10
4.0573
20
15.1906
30
0.0000
0
VERTEX
8
WIRING
10
4.0573
20
14.1524
30
0.0000
0
VERTEX
8
WIRING
10
0.9167
20
14.1524
30
0.0000
0
SEQEND
8
WIRING
0
TEXT
8
WIRING
10
2.4870
20
14.8354
30
0.0000
40
0.1962
1
P1
72
1
11
2.4870
21
14.8354
31
0.0000
0
TEXT
8
WIRING
10
2.4870
20
14.5622
30
0.0000
40
0.1373
1
D38999/26WD18SN
72
1
11
2.4870
21
14.5622
31
0.0000
0
TEXT
8
WIRING
10
2.4870
20
14.2890
30
0.0000
40
0.1373
1
TO FLIGHT COMPUTER J3
72
1
11
2.4870
21
14.2890
31
0.0000
0
POLYLINE
8
WIRING
66
1
10
0.0000
20
0.0000
30
0.0000
70
1
0
VERTEX
8
WIRING
10
0.9167
20
14.1524
30
0.0000
0
VERTEX
8
WIRING
10
4.0573
20
14.1524
30
0.0000
0
VERTEX
8
WIRING
10
4.0573
20
13.8245
30
0.0000
0
VERTEX
8
WIRING
10
0.9167
20
13.8245
30
0.0000
0
SEQEND
8
WIRING
0
TEXT
8
WIRING
10
1.3941
20
13.9065
30
0.0000
40
0.1373
1
PIN
72
1
11
1.3941
21
13.9065
31
0.0000
0
TEXT
8
WIRING
10
2.9644
20
13.9065
30
0.0000
40
0.1373
1
SIGNAL
72
1
11
2.9644
21
13.9065
31
0.0000
0
POLYLINE
8
WIRING
66
1
10
0.0000
20
0.0000
30
0.0000
70
1
0
VERTEX
8
WIRING
10
0.9167
20
13.8245
30
0.0000
0
VERTEX
8
WIRING
10
4.0573
20
13.8245
30
0.0000
0
VERTEX
8
WIRING
10
4.0573
20
6.5565
30
0.0000
0
VERTEX
8
WIRING
10
0.9167
20
6.5565
30
0.0000
0
SEQEND
8
WIRING
0
LINE
8
WIRING
10
1.8715
20
14.1524
30
0.0000
11
1.8715
21
6.5565
31
0.0000
0
TEXT
8
WIRING
10
1.3941
20
13.5513
30
0.0000
40
0.1373
1
A
72
1
11
1.3941
21
13.5513
31
0.0000
0
TEXT
8
WIRING
10
1.9808
20
13.5513
30
0.0000
40
0.1373
1
+28V PWR
0
CIRCLE
8
WIRING
10
4.0573
20
13.6332
30
0.0000
40
0.0355
0
LINE
8
WIRING
10
4.0573
20
13.6332
30
0.0000
11
7.7888
21
13.6332
31
0.0000
0
TEXT
8
WIRING
10
4.1940
20
13.7015
30
0.0000
40
0.1373
1
W1  20 AWG  RED
0
LINE
8
WIRING
10
0.9167
20
13.4420
30
0.0000
11
4.0573
21
13.4420
31
0.0000
0
TEXT
8
WIRING
10
1.3941
20
13.1687
30
0.0000
40
0.1373
1
B
72
1
11
1.3941
21
13.1687
31
0.0000
0
TEXT
8
WIRING
10
1.9808
20
13.1687
30
0.0000
40
0.1373
1
28V RTN
0
CIRCLE
8
WIRING
10
4.0573
20
13.2507
30
0.0000
40
0.0355
0
LINE
8
WIRING
10
4.0573
20
13.2507
30
0.0000
11
7.7888
21
13.2507
31
0.0000
0
TEXT
8
WIRING
10
4.1940
20
13.3190
30
0.0000
40
0.1373
1
W2  20 AWG  BLK
0
LINE
8
WIRING
10
0.9167
20
13.0594
30
0.0000
11
4.0573
21
13.0594
31
0.0000
0
TEXT
8
WIRING
10
1.3941
20
12.7862
30
0.0000
40
0.1373
1
C
72
1
11
1.3941
21
12.7862
31
0.0000
0
TEXT
8
WIRING
10
1.9808
20
12.7862
30
0.0000
40
0.1373
1
RS422 TX+
0
CIRCLE
8
WIRING
10
4.0573
20
12.8682
30
0.0000
40
0.0355
0
LINE
8
WIRING
10
4.0573
20
12.8682
30
0.0000
11
7.7888
21
12.8682
31
0.0000
0
TEXT
8
WIRING
10
4.1940
20
12.9365
30
0.0000
40
0.1373
1
W3  22 AWG  WHT
0
LINE
8
WIRING
10
0.9167
20
12.6769
30
0.0000
11
4.0573
21
12.6769
31
0.0000
0
TEXT
8
WIRING
10
1.3941
20
12.4037
30
0.0000
40
0.1373
1
D
72
1
11
1.3941
21
12.4037
31
0.0000
0
TEXT
8
WIRING
10
1.9808
20
12.4037
30
0.0000
40
0.1373
1
RS422 TX-
0
CIRCLE
8
WIRING
10
4.0573
20
12.4857
30
0.0000
40
0.0355
0
LINE
8
WIRING
10
4.0573
20
12.4857
30
0.0000
11
7.7888
21
12.4857
31
0.0000
0
TEXT
8
WIRING
10
4.1940
20
12.5540
30
0.0000
40
0.1373
1
W4  22 AWG  BLU
0
LINE
8
WIRING
10
0.9167
20
12.2944
30
0.0000
11
4.0573
21
12.2944
31
0.0000
0
TEXT
8
WIRING
10
1.3941
20
12.0212
30
0.0000
40
0.1373
1
E
72
1
11
1.3941
21
12.0212
31
0.0000
0
TEXT
8
WIRING
10
1.9808
20
12.0212
30
0.0000
40
0.1373
1
RS422 RX+
0
CIRCLE
8
WIRING
10
4.0573
20
12.1031
30
0.0000
40
0.0355
0
LINE
8
WIRING
10
4.0573
20
12.1031
30
0.0000
11
7.7888
21
12.1031
31
0.0000
0
TEXT
8
WIRING
10
4.1940
20
12.1714
30
0.0000
40
0.1373
1
W5  22 AWG  WHT
0
LINE
8
WIRING
10
0.9167
20
11.9119
30
0.0000
11
4.0573
21
11.9119
31
0.0000
0
TEXT
8
WIRING
10
1.3941
20
11.6386
30
0.0000
40
0.1373
1
F
72
1
11
1.3941
21
11.6386
31
0.0000
0
TEXT
8
WIRING
10
1.9808
20
11.6386
30
0.0000
40
0.1373
1
RS422 RX-
0
CIRCLE
8
WIRING
10
4.0573
20
11.7206
30
0.0000
40
0.0355
0
LINE
8
WIRING
10
4.0573
20
11.7206
30
0.0000
11
7.7888
21
11.7206
31
0.0000
0
TEXT
8
WIRING
10
4.1940
20
11.7889
30
0.0000
40
0.1373
1
W6  22 AWG  BLU
0
LINE
8
WIRING
10
0.9167
20
11.5293
30
0.0000
11
4.0573
21
11.5293
31
0.0000
0
TEXT
8
WIRING
10
1.3941
20
11.2561
30
0.0000
40
0.1373
1
G
72
1
11
1.3941
21
11.2561
31
0.0000
0
TEXT
8
WIRING
10
1.9808
20
11.2561
30
0.0000
40
0.1373
1
DISCRETE IN 1
0
CIRCLE
8
WIRING
10
4.0573
20
11.3381
30
0.0000
40
0.0355
0
LINE
8
WIRING
10
4.0573
20
11.3381
30
0.0000
11
7.7888
21
11.3381
31
0.0000
0
TEXT
8
WIRING
10
4.1940
20
11.4064
30
0.0000
40
0.1373
1
W7  22 AWG  WHT
0
LINE
8
WIRING
10
0.9167
20
11.1468
30
0.0000
11
4.0573
21
11.1468
31
0.0000
0
TEXT
8
WIRING
10
1.3941
20
10.8736
30
0.0000
40
0.1373
1
H
72
1
11
1.3941
21
10.8736
31
0.0000
0
TEXT
8
WIRING
10
1.9808
20
10.8736
30
0.0000
40
0.1373
1
DISCRETE OUT 1
0
CIRCLE
8
WIRING
10
4.0573
20
10.9556
30
0.0000
40
0.0355
0
LINE
8
WIRING
10
4.0573
20
10.9556
30
0.0000
11
7.7888
21
10.9556
31
0.0000
0
TEXT
8
WIRING
10
4.1940
20
11.0239
30
0.0000
40
0.1373
1
W8  22 AWG  WHT
0
LINE
8
WIRING
10
0.9167
20
10.7643
30
0.0000
11
4.0573
21
10.7643
31
0.0000
0
TEXT
8
WIRING
10
1.3941
20
10.4911
30
0.0000
40
0.1373
1
J
72
1
11
1.3941
21
10.4911
31
0.0000
0
TEXT
8
WIRING
10
1.9808
20
10.4911
30
0.0000
40
0.1373
1
SIG GND
0
CIRCLE
8
WIRING
10
4.0573
20
10.5730
30
0.0000
40
0.0355
0
LINE
8
WIRING
10
4.0573
20
10.5730
30
0.0000
11
7.7888
21
10.5730
31
0.0000
0
TEXT
8
WIRING
10
4.1940
20
10.6413
30
0.0000
40
0.1373
1
W9  22 AWG  BLK
0
LINE
8
WIRING
10
0.9167
20
10.3818
30
0.0000
11
4.0573
21
10.3818
31
0.0000
0
TEXT
8
WIRING
10
1.3941
20
10.1085
30
0.0000
40
0.1373
1
K
72
1
11
1.3941
21
10.1085
31
0.0000
0
TEXT
8
WIRING
10
1.9808
20
10.1085
30
0.0000
40
0.1373
1
ADDR STRAP
0
CIRCLE
8
WIRING
10
4.0573
20
10.1905
30
0.0000
40
0.0355
0
LINE
8
WIRING
10
4.0573
20
10.1905
30
0.0000
11
7.7888
21
10.1905
31
0.0000
0
TEXT
8
WIRING
10
4.1940
20
10.2588
30
0.0000
40
0.1373
1
W10  22 AWG  WHT
0
LINE
8
WIRING
10
0.9167
20
9.9993
30
0.0000
11
4.0573
21
9.9993
31
0.0000
0
TEXT
8
WIRING
10
1.3941
20
9.7260
30
0.0000
40
0.1373
1
L
72
1
11
1.3941
21
9.7260
31
0.0000
0
TEXT
8
WIRING
10
1.9808
20
9.7260
30
0.0000
40
0.1373
1
ADDR STRAP
0
CIRCLE
8
WIRING
10
4.0573
20
9.8080
30
0.0000
40
0.0355
0
LINE
8
WIRING
10
4.0573
20
9.8080
30
0.0000
11
7.7888
21
9.8080
31
0.0000
0
TEXT
8
WIRING
10
4.1940
20
9.8763
30
0.0000
40
0.1373
1
W10  22 AWG  WHT
0
LINE
8
WIRING
10
0.9167
20
9.6167
30
0.0000
11
4.0573
21
9.6167
31
0.0000
0
TEXT
8
WIRING
10
1.3941
20
9.3435
30
0.0000
40
0.1373
1
M
72
1
11
1.3941
21
9.3435
31
0.0000
0
TEXT
8
WIRING
10
1.9808
20
9.3435
30
0.0000
40
0.1373
1
CHASSIS GND
0
CIRCLE
8
WIRING
10
4.0573
20
9.4255
30
0.0000
40
0.0355
0
LINE
8
WIRING
10
4.0573
20
9.4255
30
0.0000
11
7.7888
21
9.4255
31
0.0000
0
TEXT
8
WIRING
10
4.1940
20
9.4938
30
0.0000
40
0.1373
1
W11  20 AWG  GRN
0
LINE
8
WIRING
10
0.9167
20
9.2342
30
0.0000
11
4.0573
21
9.2342
31
0.0000
0
TEXT
8
WIRING
10
1.3941
20
8.9610
30
0.0000
40
0.1373
1
N
72
1
11
1.3941
21
8.9610
31
0.0000
0
TEXT
8
WIRING
10
1.9808
20
8.9610
30
0.0000
40
0.1373
1
NC
0
LINE
8
WIRING
10
0.9167
20
8.8517
30
0.0000
11
4.0573
21
8.8517
31
0.0000
0
TEXT
8
WIRING
10
1.3941
20
8.5785
30
0.0000
40
0.1373
1
P
72
1
11
1.3941
21
8.5785
31
0.0000
0
TEXT
8
WIRING
10
1.9808
20
8.5785
30
0.0000
40
0.1373
1
NC
0
LINE
8
WIRING
10
0.9167
20
8.4692
30
0.0000
11
4.0573
21
8.4692
31
0.0000
0
TEXT
8
WIRING
10
1.3941
20
8.1959
30
0.0000
40
0.1373
1
R
72
1
11
1.3941
21
8.1959
31
0.0000
0
TEXT
8
WIRING
10
1.9808
20
8.1959
30
0.0000
40
0.1373
1
NC
0
LINE
8
WIRING
10
0.9167
20
8.0866
30
0.0000
11
4.0573
21
8.0866
31
0.0000
0
TEXT
8
WIRING
10
1.3941
20
7.8134
30
0.0000
40
0.1373
1
S
72
1
11
1.3941
21
7.8134
31
0.0000
0
TEXT
8
WIRING
10
1.9808
20
7.8134
30
0.0000
40
0.1373
1
NC
0
LINE
8
WIRING
10
0.9167
20
7.7041
30
0.0000
11
4.0573
21
7.7041
31
0.0000
0
TEXT
8
WIRING
10
1.3941
20
7.4309
30
0.0000
40
0.1373
1
T
72
1
11
1.3941
21
7.4309
31
0.0000
0
TEXT
8
WIRING
10
1.9808
20
7.4309
30
0.0000
40
0.1373
1
NC
0
LINE
8
WIRING
10
0.9167
20
7.3216
30
0.0000
11
4.0573
21
7.3216
31
0.0000
0
TEXT
8
WIRING
10
1.3941
20
7.0484
30
0.0000
40
0.1373
1
U
72
1
11
1.3941
21
7.0484
31
0.0000
0
TEXT
8
WIRING
10
1.9808
20
7.0484
30
0.0000
40
0.1373
1
NC
0
POLYLINE
8
WIRING
66
1
10
0.0000
20
0.0000
30
0.0000
70
1
0
VERTEX
8
WIRING
10
0.9167
20
6.9391
30
0.0000
0
VERTEX
8
WIRING
10
4.0573
20
6.9391
30
0.0000
0
VERTEX
8
WIRING
10
4.0573
20
6.5565
30
0.0000
0
VERTEX
8
WIRING
10
0.9167
20
6.5565
30
0.0000
0
SEQEND
8
WIRING
0
LINE
8
WIRING
10
0.9167
20
6.9391
30
0.0000
11
4.0573
21
6.9391
31
0.0000
0
TEXT
8
WIRING
10
1.3941
20
6.6658
30
0.0000
40
0.1373
1
SHELL
72
1
11
1.3941
21
6.6658
31
0.0000
0
TEXT
8
WIRING
10
1.9808
20
6.6658
30
0.0000
40
0.1373
1
BACKSHELL
0
CIRCLE
8
WIRING
10
4.0573
20
6.7478
30
0.0000
40
0.0355
0
POLYLINE
8
WIRING
66
1
10
0.0000
20
0.0000
30
0.0000
70
1
0
VERTEX
8
WIRING
10
18.0778
20
15.1906
30
0.0000
0
VERTEX
8
WIRING
10
21.0833
20
15.1906
30
0.0000
0
VERTEX
8
WIRING
10
21.0833
20
14.1524
30
0.0000
0
VERTEX
8
WIRING
10
18.0778
20
14.1524
30
0.0000
0
SEQEND
8
WIRING
0
TEXT
8
WIRING
10
19.5806
20
14.8354
30
0.0000
40
0.1962
1
P2
72
1
11
19.5806
21
14.8354
31
0.0000
0
TEXT
8
WIRING
10
19.5806
20
14.5622
30
0.0000
40
0.1373
1
D38999/26WD18PN
72
1
11
19.5806
21
14.5622
31
0.0000
0
TEXT
8
WIRING
10
19.5806
20
14.2890
30
0.0000
40
0.1373
1
TO POWER DISTRIBUTION J7
72
1
11
19.5806
21
14.2890
31
0.0000
0
POLYLINE
8
WIRING
66
1
10
0.0000
20
0.0000
30
0.0000
70
1
0
VERTEX
8
WIRING
10
18.0778
20
14.1524
30
0.0000
0
VERTEX
8
WIRING
10
21.0833
20
14.1524
30
0.0000
0
VERTEX
8
WIRING
10
21.0833
20
13.8245
30
0.0000
0
VERTEX
8
WIRING
10
18.0778
20
13.8245
30
0.0000
0
SEQEND
8
WIRING
0
TEXT
8
WIRING
10
20.6735
20
13.9065
30
0.0000
40
0.1373
1
PIN
72
1
11
20.6735
21
13.9065
31
0.0000
0
TEXT
8
WIRING
10
19.1707
20
13.9065
30
0.0000
40
0.1373
1
SIGNAL
72
1
11
19.1707
21
13.9065
31
0.0000
0
POLYLINE
8
WIRING
66
1
10
0.0000
20
0.0000
30
0.0000
70
1
0
VERTEX
8
WIRING
10
18.0778
20
13.8245
30
0.0000
0
VERTEX
8
WIRING
10
21.0833
20
13.8245
30
0.0000
0
VERTEX
8
WIRING
10
21.0833
20
6.9391
30
0.0000
0
VERTEX
8
WIRING
10
18.0778
20
6.9391
30
0.0000
0
SEQEND
8
WIRING
0
LINE
8
WIRING
10
20.2636
20
14.1524
30
0.0000
11
20.2636
21
6.9391
31
0.0000
0
TEXT
8
WIRING
10
20.6735
20
13.5513
30
0.0000
40
0.1373
1
A
72
1
11
20.6735
21
13.5513
31
0.0000
0
TEXT
8
WIRING
10
18.1871
20
13.5513
30
0.0000
40
0.1373
1
+28V PWR
0
CIRCLE
8
WIRING
10
18.0778
20
13.6332
30
0.0000
40
0.0355
0
LINE
8
WIRING
10
18.0778
20
13.6332
30
0.0000
11
14.3463
21
13.6332
31
0.0000
0
TEXT
8
WIRING
10
17.9412
20
13.7015
30
0.0000
40
0.1373
1
W1  20 AWG  RED
72
2
11
17.9412
21
13.7015
31
0.0000
0
LINE
8
WIRING
10
18.0778
20
13.4420
30
0.0000
11
21.0833
21
13.4420
31
0.0000
0
TEXT
8
WIRING
10
20.6735
20
13.1687
30
0.0000
40
0.1373
1
B
72
1
11
20.6735
21
13.1687
31
0.0000
0
TEXT
8
WIRING
10
18.1871
20
13.1687
30
0.0000
40
0.1373
1
28V RTN
0
CIRCLE
8
WIRING
10
18.0778
20
13.2507
30
0.0000
40
0.0355
0
LINE
8
WIRING
10
18.0778
20
13.2507
30
0.0000
11
14.3463
21
13.2507
31
0.0000
0
TEXT
8
WIRING
10
17.9412
20
13.3190
30
0.0000
40
0.1373
1
W2  20 AWG  BLK
72
2
11
17.9412
21
13.3190
31
0.0000
0
LINE
8
WIRING
10
18.0778
20
13.0594
30
0.0000
11
21.0833
21
13.0594
31
0.0000
0
TEXT
8
WIRING
10
20.6735
20
12.7862
30
0.0000
40
0.1373
1
C
72
1
11
20.6735
21
12.7862
31
0.0000
0
TEXT
8
WIRING
10
18.1871
20
12.7862
30
0.0000
40
0.1373
1
RS422 TX+
0
CIRCLE
8
WIRING
10
18.0778
20
12.8682
30
0.0000
40
0.0355
0
LINE
8
WIRING
10
18.0778
20
12.8682
30
0.0000
11
14.3463
21
12.8682
31
0.0000
0
TEXT
8
WIRING
10
17.9412
20
12.9365
30
0.0000
40
0.1373
1
W3  22 AWG  WHT
72
2
11
17.9412
21
12.9365
31
0.0000
0
LINE
8
WIRING
10
18.0778
20
12.6769
30
0.0000
11
21.0833
21
12.6769
31
0.0000
0
TEXT
8
WIRING
10
20.6735
20
12.4037
30
0.0000
40
0.1373
1
D
72
1
11
20.6735
21
12.4037
31
0.0000
0
TEXT
8
WIRING
10
18.1871
20
12.4037
30
0.0000
40
0.1373
1
RS422 TX-
0
CIRCLE
8
WIRING
10
18.0778
20
12.4857
30
0.0000
40
0.0355
0
LINE
8
WIRING
10
18.0778
20
12.4857
30
0.0000
11
14.3463
21
12.4857
31
0.0000
0
TEXT
8
WIRING
10
17.9412
20
12.5540
30
0.0000
40
0.1373
1
W4  22 AWG  BLU
72
2
11
17.9412
21
12.5540
31
0.0000
0
LINE
8
WIRING
10
18.0778
20
12.2944
30
0.0000
11
21.0833
21
12.2944
31
0.0000
0
TEXT
8
WIRING
10
20.6735
20
12.0212
30
0.0000
40
0.1373
1
E
72
1
11
20.6735
21
12.0212
31
0.0000
0
TEXT
8
WIRING
10
18.1871
20
12.0212
30
0.0000
40
0.1373
1
RS422 RX+
0
CIRCLE
8
WIRING
10
18.0778
20
12.1031
30
0.0000
40
0.0355
0
LINE
8
WIRING
10
18.0778
20
12.1031
30
0.0000
11
14.3463
21
12.1031
31
0.0000
0
TEXT
8
WIRING
10
17.9412
20
12.1714
30
0.0000
40
0.1373
1
W5  22 AWG  WHT
72
2
11
17.9412
21
12.1714
31
0.0000
0
LINE
8
WIRING
10
18.0778
20
11.9119
30
0.0000
11
21.0833
21
11.9119
31
0.0000
0
TEXT
8
WIRING
10
20.6735
20
11.6386
30
0.0000
40
0.1373
1
F
72
1
11
20.6735
21
11.6386
31
0.0000
0
TEXT
8
WIRING
10
18.1871
20
11.6386
30
0.0000
40
0.1373
1
RS422 RX-
0
CIRCLE
8
WIRING
10
18.0778
20
11.7206
30
0.0000
40
0.0355
0
LINE
8
WIRING
10
18.0778
20
11.7206
30
0.0000
11
14.3463
21
11.7206
31
0.0000
0
TEXT
8
WIRING
10
17.9412
20
11.7889
30
0.0000
40
0.1373
1
W6  22 AWG  BLU
72
2
11
17.9412
21
11.7889
31
0.0000
0
LINE
8
WIRING
10
18.0778
20
11.5293
30
0.0000
11
21.0833
21
11.5293
31
0.0000
0
TEXT
8
WIRING
10
20.6735
20
11.2561
30
0.0000
40
0.1373
1
G
72
1
11
20.6735
21
11.2561
31
0.0000
0
TEXT
8
WIRING
10
18.1871
20
11.2561
30
0.0000
40
0.1373
1
DISCRETE OUT 1
0
CIRCLE
8
WIRING
10
18.0778
20
11.3381
30
0.0000
40
0.0355
0
LINE
8
WIRING
10
18.0778
20
11.3381
30
0.0000
11
14.3463
21
11.3381
31
0.0000
0
TEXT
8
WIRING
10
17.9412
20
11.4064
30
0.0000
40
0.1373
1
W8  22 AWG  WHT
72
2
11
17.9412
21
11.4064
31
0.0000
0
LINE
8
WIRING
10
18.0778
20
11.1468
30
0.0000
11
21.0833
21
11.1468
31
0.0000
0
TEXT
8
WIRING
10
20.6735
20
10.8736
30
0.0000
40
0.1373
1
H
72
1
11
20.6735
21
10.8736
31
0.0000
0
TEXT
8
WIRING
10
18.1871
20
10.8736
30
0.0000
40
0.1373
1
DISCRETE IN 1
0
CIRCLE
8
WIRING
10
18.0778
20
10.9556
30
0.0000
40
0.0355
0
LINE
8
WIRING
10
18.0778
20
10.9556
30
0.0000
11
14.3463
21
10.9556
31
0.0000
0
TEXT
8
WIRING
10
17.9412
20
11.0239
30
0.0000
40
0.1373
1
W7  22 AWG  WHT
72
2
11
17.9412
21
11.0239
31
0.0000
0
LINE
8
WIRING
10
18.0778
20
10.7643
30
0.0000
11
21.0833
21
10.7643
31
0.0000
0
TEXT
8
WIRING
10
20.6735
20
10.4911
30
0.0000
40
0.1373
1
J
72
1
11
20.6735
21
10.4911
31
0.0000
0
TEXT
8
WIRING
10
18.1871
20
10.4911
30
0.0000
40
0.1373
1
SIG GND A
0
CIRCLE
8
WIRING
10
18.0778
20
10.5730
30
0.0000
40
0.0355
0
LINE
8
WIRING
10
18.0778
20
10.5730
30
0.0000
11
14.3463
21
10.5730
31
0.0000
0
TEXT
8
WIRING
10
17.9412
20
10.6413
30
0.0000
40
0.1373
1
W12  22 AWG  BLK
72
2
11
17.9412
21
10.6413
31
0.0000
0
LINE
8
WIRING
10
18.0778
20
10.3818
30
0.0000
11
21.0833
21
10.3818
31
0.0000
0
TEXT
8
WIRING
10
20.6735
20
10.1085
30
0.0000
40
0.1373
1
K
72
1
11
20.6735
21
10.1085
31
0.0000
0
TEXT
8
WIRING
10
18.1871
20
10.1085
30
0.0000
40
0.1373
1
SIG GND B
0
CIRCLE
8
WIRING
10
18.0778
20
10.1905
30
0.0000
40
0.0355
0
LINE
8
WIRING
10
18.0778
20
10.1905
30
0.0000
11
14.3463
21
10.1905
31
0.0000
0
TEXT
8
WIRING
10
17.9412
20
10.2588
30
0.0000
40
0.1373
1
W13  22 AWG  BLK
72
2
11
17.9412
21
10.2588
31
0.0000
0
LINE
8
WIRING
10
18.0778
20
9.9993
30
0.0000
11
21.0833
21
9.9993
31
0.0000
0
TEXT
8
WIRING
10
20.6735
20
9.7260
30
0.0000
40
0.1373
1
L
72
1
11
20.6735
21
9.7260
31
0.0000
0
TEXT
8
WIRING
10
18.1871
20
9.7260
30
0.0000
40
0.1373
1
TSP1 SHIELD
0
CIRCLE
8
WIRING
10
18.0778
20
9.8080
30
0.0000
40
0.0355
0
LINE
8
WIRING
10
18.0778
20
9.6167
30
0.0000
11
21.0833
21
9.6167
31
0.0000
0
TEXT
8
WIRING
10
20.6735
20
9.3435
30
0.0000
40
0.1373
1
M
72
1
11
20.6735
21
9.3435
31
0.0000
0
TEXT
8
WIRING
10
18.1871
20
9.3435
30
0.0000
40
0.1373
1
CHASSIS GND
0
CIRCLE
8
WIRING
10
18.0778
20
9.4255
30
0.0000
40
0.0355
0
LINE
8
WIRING
10
18.0778
20
9.4255
30
0.0000
11
14.3463
21
9.4255
31
0.0000
0
TEXT
8
WIRING
10
17.9412
20
9.4938
30
0.0000
40
0.1373
1
W11  20 AWG  GRN
72
2
11
17.9412
21
9.4938
31
0.0000
0
LINE
8
WIRING
10
18.0778
20
9.2342
30
0.0000
11
21.0833
21
9.2342
31
0.0000
0
TEXT
8
WIRING
10
20.6735
20
8.9610
30
0.0000
40
0.1373
1
N
72
1
11
20.6735
21
8.9610
31
0.0000
0
TEXT
8
WIRING
10
18.1871
20
8.9610
30
0.0000
40
0.1373
1
NC
0
LINE
8
WIRING
10
18.0778
20
8.8517
30
0.0000
11
21.0833
21
8.8517
31
0.0000
0
TEXT
8
WIRING
10
20.6735
20
8.5785
30
0.0000
40
0.1373
1
P
72
1
11
20.6735
21
8.5785
31
0.0000
0
TEXT
8
WIRING
10
18.1871
20
8.5785
30
0.0000
40
0.1373
1
NC
0
LINE
8
WIRING
10
18.0778
20
8.4692
30
0.0000
11
21.0833
21
8.4692
31
0.0000
0
TEXT
8
WIRING
10
20.6735
20
8.1959
30
0.0000
40
0.1373
1
R
72
1
11
20.6735
21
8.1959
31
0.0000
0
TEXT
8
WIRING
10
18.1871
20
8.1959
30
0.0000
40
0.1373
1
NC
0
LINE
8
WIRING
10
18.0778
20
8.0866
30
0.0000
11
21.0833
21
8.0866
31
0.0000
0
TEXT
8
WIRING
10
20.6735
20
7.8134
30
0.0000
40
0.1373
1
S
72
1
11
20.6735
21
7.8134
31
0.0000
0
TEXT
8
WIRING
10
18.1871
20
7.8134
30
0.0000
40
0.1373
1
NC
0
LINE
8
WIRING
10
18.0778
20
7.7041
30
0.0000
11
21.0833
21
7.7041
31
0.0000
0
TEXT
8
WIRING
10
20.6735
20
7.4309
30
0.0000
40
0.1373
1
T
72
1
11
20.6735
21
7.4309
31
0.0000
0
TEXT
8
WIRING
10
18.1871
20
7.4309
30
0.0000
40
0.1373
1
NC
0
LINE
8
WIRING
10
18.0778
20
7.3216
30
0.0000
11
21.0833
21
7.3216
31
0.0000
0
TEXT
8
WIRING
10
20.6735
20
7.0484
30
0.0000
40
0.1373
1
U
72
1
11
20.6735
21
7.0484
31
0.0000
0
TEXT
8
WIRING
10
18.1871
20
7.0484
30
0.0000
40
0.1373
1
NC
0
LINE
8
WIRING
10
7.7888
20
13.6332
30
0.0000
11
14.3463
21
13.6332
31
0.0000
0
LINE
8
WIRING
10
7.7888
20
13.2507
30
0.0000
11
14.3463
21
13.2507
31
0.0000
0
LINE
8
WIRING
10
7.7888
20
12.8682
30
0.0000
11
14.3463
21
12.8682
31
0.0000
0
LINE
8
WIRING
10
7.7888
20
12.4857
30
0.0000
11
14.3463
21
12.4857
31
0.0000
0
LINE
8
WIRING
10
7.7888
20
12.1031
30
0.0000
11
14.3463
21
12.1031
31
0.0000
0
LINE
8
WIRING
10
7.7888
20
11.7206
30
0.0000
11
14.3463
21
11.7206
31
0.0000
0
LINE
8
WIRING
10
7.7888
20
11.3381
30
0.0000
11
14.3463
21
10.9556
31
0.0000
0
LINE
8
WIRING
10
7.7888
20
10.9556
30
0.0000
11
14.3463
21
11.3381
31
0.0000
0
LINE
8
WIRING
10
7.7888
20
10.5730
30
0.0000
11
11.0676
21
10.4455
31
0.0000
0
POLYLINE
8
WIRING
66
1
10
0.0000
20
0.0000
30
0.0000
70
0
0
VERTEX
8
WIRING
10
7.7888
20
10.1905
30
0.0000
0
VERTEX
8
WIRING
10
8.1167
20
10.1905
30
0.0000
0
VERTEX
8
WIRING
10
8.1167
20
9.8080
30
0.0000
0
VERTEX
8
WIRING
10
7.7888
20
9.8080
30
0.0000
0
SEQEND
8
WIRING
0
LINE
8
WIRING
10
7.7888
20
9.4255
30
0.0000
11
14.3463
21
9.4255
31
0.0000
0
LINE
8
WIRING
10
11.0676
20
10.4455
30
0.0000
11
14.3463
21
10.5730
31
0.0000
0
LINE
8
WIRING
10
11.0676
20
10.4455
30
0.0000
11
14.3463
21
10.1905
31
0.0000
0
CIRCLE
8
WIRING
10
11.0676
20
10.4455
30
0.0000
40
0.0956
0
TEXT
8
WIRING
10
11.0676
20
10.6368
30
0.0000
40
0.1569
1
SP1
72
1
11
11.0676
21
10.6368
31
0.0000
0
TEXT
8
WIRING
10
11.0676
20
10.0630
30
0.0000
40
0.1373
1
M81824/1-1
72
1
11
11.0676
21
10.0630
31
0.0000
0
LINE
8
SHIELDS
10
6.9554
20
12.8682
30
0.0000
11
7.1467
21
12.4857
31
0.0000
0
LINE
8
SHIELDS
10
6.9554
20
12.4857
30
0.0000
11
7.1467
21
12.8682
31
0.0000
0
POLYLINE
8
SHIELDS
6
DASHED
66
1
10
0.0000
20
0.0000
30
0.0000
70
1
0
VERTEX
8
SHIELDS
10
6.8871
20
12.8682
30
0.0000
0
VERTEX
8
SHIELDS
10
6.8996
20
12.9309
30
0.0000
0
VERTEX
8
SHIELDS
10
6.9352
20
12.9841
30
0.0000
0
VERTEX
8
SHIELDS
10
6.9883
20
13.0196
30
0.0000
0
VERTEX
8
SHIELDS
10
7.0511
20
13.0321
30
0.0000
0
VERTEX
8
SHIELDS
10
7.1138
20
13.0196
30
0.0000
0
VERTEX
8
SHIELDS
10
7.1670
20
12.9841
30
0.0000
0
VERTEX
8
SHIELDS
10
7.2025
20
12.9309
30
0.0000
0
VERTEX
8
SHIELDS
10
7.2150
20
12.8682
30
0.0000
0
VERTEX
8
SHIELDS
10
7.2150
20
12.4857
30
0.0000
0
VERTEX
8
SHIELDS
10
7.2025
20
12.4229
30
0.0000
0
VERTEX
8
SHIELDS
10
7.1670
20
12.3697
30
0.0000
0
VERTEX
8
SHIELDS
10
7.1138
20
12.3342
30
0.0000
0
VERTEX
8
SHIELDS
10
7.0511
20
12.3217
30
0.0000
0
VERTEX
8
SHIELDS
10
6.9883
20
12.3342
30
0.0000
0
VERTEX
8
SHIELDS
10
6.9352
20
12.3697
30
0.0000
0
VERTEX
8
SHIELDS
10
6.8996
20
12.4229
30
0.0000
0
VERTEX
8
SHIELDS
10
6.8871
20
12.4857
30
0.0000
0
SEQEND
8
SHIELDS
0
TEXT
8
SHIELDS
10
7.0511
20
13.1004
30
0.0000
40
0.1373
1
TSP1
72
1
11
7.0511
21
13.1004
31
0.0000
0
POLYLINE
8
SHIELDS
6
DASHED
66
1
10
0.0000
20
0.0000
30
0.0000
70
0
0
VERTEX
8
SHIELDS
10
7.0511
20
12.3217
30
0.0000
0
VERTEX
8
SHIELDS
10
7.0511
20
6.7478
30
0.0000
0
VERTEX
8
SHIELDS
10
4.1393
20
6.7478
30
0.0000
0
SEQEND
8
SHIELDS
0
LINE
8
SHIELDS
10
14.9884
20
12.8682
30
0.0000
11
15.1797
21
12.4857
31
0.0000
0
LINE
8
SHIELDS
10
14.9884
20
12.4857
30
0.0000
11
15.1797
21
12.8682
31
0.0000
0
POLYLINE
8
SHIELDS
6
DASHED
66
1
10
0.0000
20
0.0000
30
0.0000
70
1
0
VERTEX
8
SHIELDS
10
14.9201
20
12.8682
30
0.0000
0
VERTEX
8
SHIELDS
10
14.9326
20
12.9309
30
0.0000
0
VERTEX
8
SHIELDS
10
14.9681
20
12.9841
30
0.0000
0
VERTEX
8
SHIELDS
10
15.0213
20
13.0196
30
0.0000
0
VERTEX
8
SHIELDS
10
15.0841
20
13.0321
30
0.0000
0
VERTEX
8
SHIELDS
10
15.1468
20
13.0196
30
0.0000
0
VERTEX
8
SHIELDS
10
15.2000
20
12.9841
30
0.0000
0
VERTEX
8
SHIELDS
10
15.2355
20
12.9309
30
0.0000
0
VERTEX
8
SHIELDS
10
15.2480
20
12.8682
30
0.0000
0
VERTEX
8
SHIELDS
10
15.2480
20
12.4857
30
0.0000
0
VERTEX
8
SHIELDS
10
15.2355
20
12.4229
30
0.0000
0
VERTEX
8
SHIELDS
10
15.2000
20
12.3697
30
0.0000
0
VERTEX
8
SHIELDS
10
15.1468
20
12.3342
30
0.0000
0
VERTEX
8
SHIELDS
10
15.0841
20
12.3217
30
0.0000
0
VERTEX
8
SHIELDS
10
15.0213
20
12.3342
30
0.0000
0
VERTEX
8
SHIELDS
10
14.9681
20
12.3697
30
0.0000
0
VERTEX
8
SHIELDS
10
14.9326
20
12.4229
30
0.0000
0
VERTEX
8
SHIELDS
10
14.9201
20
12.4857
30
0.0000
0
SEQEND
8
SHIELDS
0
TEXT
8
SHIELDS
10
15.0841
20
13.1004
30
0.0000
40
0.1373
1
TSP1
72
1
11
15.0841
21
13.1004
31
0.0000
0
POLYLINE
8
SHIELDS
6
DASHED
66
1
10
0.0000
20
0.0000
30
0.0000
70
0
0
VERTEX
8
SHIELDS
10
15.0841
20
12.3217
30
0.0000
0
VERTEX
8
SHIELDS
10
15.0841
20
9.8080
30
0.0000
0
VERTEX
8
SHIELDS
10
17.9958
20
9.8080
30
0.0000
0
SEQEND
8
SHIELDS
0
LINE
8
SHIELDS
10
6.3543
20
12.1031
30
0.0000
11
6.5456
21
11.7206
31
0.0000
0
LINE
8
SHIELDS
10
6.3543
20
11.7206
30
0.0000
11
6.5456
21
12.1031
31
0.0000
0
TEXT
8
SHIELDS
10
6.4500
20
12.3354
30
0.0000
40
0.1373
1
TP2
72
1
11
6.4500
21
12.3354
31
0.0000
0
LINE
8
SHIELDS
10
15.5895
20
12.1031
30
0.0000
11
15.7808
21
11.7206
31
0.0000
0
LINE
8
SHIELDS
10
15.5895
20
11.7206
30
0.0000
11
15.7808
21
12.1031
31
0.0000
0
TEXT
8
SHIELDS
10
15.6852
20
12.3354
30
0.0000
40
0.1373
1
TP2
72
1
11
15.6852
21
12.3354
31
0.0000
0
TEXT
8
WIRING
10
0.9167
20
6.0647
30
0.0000
40
0.1373
1
LEGEND:
0
LINE
8
WIRING
10
2.0506
20
6.2287
30
0.0000
11
2.2692
21
6.0647
31
0.0000
0
LINE
8
WIRING
10
2.0506
20
6.0647
30
0.0000
11
2.2692
21
6.2287
31
0.0000
0
TEXT
8
WIRING
10
2.3785
20
6.0647
30
0.0000
40
0.1373
1
TWISTED
0
POLYLINE
8
WIRING
6
DASHED
66
1
10
0.0000
20
0.0000
30
0.0000
70
1
0
VERTEX
8
WIRING
10
3.5670
20
6.2013
30
0.0000
0
VERTEX
8
WIRING
10
3.5753
20
6.2432
30
0.0000
0
VERTEX
8
WIRING
10
3.5990
20
6.2786
30
0.0000
0
VERTEX
8
WIRING
10
3.6345
20
6.3023
30
0.0000
0
VERTEX
8
WIRING
10
3.6763
20
6.3106
30
0.0000
0
VERTEX
8
WIRING
10
3.7181
20
6.3023
30
0.0000
0
VERTEX
8
WIRING
10
3.7536
20
6.2786
30
0.0000
0
VERTEX
8
WIRING
10
3.7773
20
6.2432
30
0.0000
0
VERTEX
8
WIRING
10
3.7856
20
6.2013
30
0.0000
0
VERTEX
8
WIRING
10
3.7856
20
6.0921
30
0.0000
0
VERTEX
8
WIRING
10
3.7773
20
6.0502
30
0.0000
0
VERTEX
8
WIRING
10
3.7536
20
6.0148
30
0.0000
0
VERTEX
8
WIRING
10
3.7181
20
5.9911
30
0.0000
0
VERTEX
8
WIRING
10
3.6763
20
5.9828
30
0.0000
0
VERTEX
8
WIRING
10
3.6345
20
5.9911
30
0.0000
0
VERTEX
8
WIRING
10
3.5990
20
6.0148
30
0.0000
0
VERTEX
8
WIRING
10
3.5753
20
6.0502
30
0.0000
0
VERTEX
8
WIRING
10
3.5670
20
6.0921
30
0.0000
0
SEQEND
8
WIRING
0
TEXT
8
WIRING
10
3.8949
20
6.0647
30
0.0000
40
0.1373
1
SHIELD
0
POLYLINE
8
WIRING
66
1
10
0.0000
20
0.0000
30
0.0000
70
1
0
VERTEX
8
WIRING
10
4.9136
20
6.2013
30
0.0000
0
VERTEX
8
WIRING
10
4.9219
20
6.2432
30
0.0000
0
VERTEX
8
WIRING
10
4.9456
20
6.2786
30
0.0000
0
VERTEX
8
WIRING
10
4.9811
20
6.3023
30
0.0000
0
VERTEX
8
WIRING
10
5.0229
20
6.3106
30
0.0000
0
VERTEX
8
WIRING
10
5.0647
20
6.3023
30
0.0000
0
VERTEX
8
WIRING
10
5.1002
20
6.2786
30
0.0000
0
VERTEX
8
WIRING
10
5.1239
20
6.2432
30
0.0000
0
VERTEX
8
WIRING
10
5.1322
20
6.2013
30
0.0000
0
VERTEX
8
WIRING
10
5.1322
20
6.0921
30
0.0000
0
VERTEX
8
WIRING
10
5.1239
20
6.0502
30
0.0000
0
VERTEX
8
WIRING
10
5.1002
20
6.0148
30
0.0000
0
VERTEX
8
WIRING
10
5.0647
20
5.9911
30
0.0000
0
VERTEX
8
WIRING
10
5.0229
20
5.9828
30
0.0000
0
VERTEX
8
WIRING
10
4.9811
20
5.9911
30
0.0000
0
VERTEX
8
WIRING
10
4.9456
20
6.0148
30
0.0000
0
VERTEX
8
WIRING
10
4.9219
20
6.0502
30
0.0000
0
VERTEX
8
WIRING
10
4.9136
20
6.0921
30
0.0000
0
SEQEND
8
WIRING
0
TEXT
8
WIRING
10
5.2415
20
6.0647
30
0.0000
40
0.1373
1
JACKETED CABLE
0
TEXT
8
WIRING
10
7.3579
20
6.0647
30
0.0000
40
0.1373
1
SHELL = SHIELD TERMINATED TO CONNECTOR SHELL / BACKSHELL
0
TEXT
8
WIRING
10
14.1561
20
6.0647
30
0.0000
40
0.1373
1
? = SHIELD TERMINATION NOT SPECIFIED
0
POLYLINE
8
TITLE_BLOCK
66
1
10
0.0000
20
0.0000
30
0.0000
70
1
0
VERTEX
8
TITLE_BLOCK
10
17.2500
20
1.6000
30
0.0000
0
VERTEX
8
TITLE_BLOCK
10
21.2500
20
1.6000
30
0.0000
0
VERTEX
8
TITLE_BLOCK
10
21.2500
20
0.7500
30
0.0000
0
VERTEX
8
TITLE_BLOCK
10
17.2500
20
0.7500
30
0.0000
0
SEQEND
8
TITLE_BLOCK
0
POLYLINE
8
TITLE_BLOCK
66
1
10
0.0000
20
0.0000
30
0.0000
70
1
0
VERTEX
8
TITLE_BLOCK
10
17.2500
20
1.6000
30
0.0000
0
VERTEX
8
TITLE_BLOCK
10
17.8500
20
1.6000
30
0.0000
0
VERTEX
8
TITLE_BLOCK
10
17.8500
20
1.1000
30
0.0000
0
VERTEX
8
TITLE_BLOCK
10
17.2500
20
1.1000
30
0.0000
0
SEQEND
8
TITLE_BLOCK
0
TEXT
8
TITLE_BLOCK
10
17.2917
20
1.4792
30
0.0000
40
0.1020
1
SIZE
0
TEXT
8
TITLE_BLOCK
10
17.5500
20
1.1694
30
0.0000
40
0.2448
1
C
72
1
11
17.5500
21
1.1694
31
0.0000
0
POLYLINE
8
TITLE_BLOCK
66
1
10
0.0000
20
0.0000
30
0.0000
70
1
0
VERTEX
8
TITLE_BLOCK
10
17.8500
20
1.6000
30
0.0000
0
VERTEX
8
TITLE_BLOCK
10
18.8500
20
1.6000
30
0.0000
0
VERTEX
8
TITLE_BLOCK
10
18.8500
20
1.1000
30
0.0000
0
VERTEX
8
TITLE_BLOCK
10
17.8500
20
1.1000
30
0.0000
0
SEQEND
8
TITLE_BLOCK
0
TEXT
8
TITLE_BLOCK
10
17.8917
20
1.4792
30
0.0000
40
0.1020
1
CAGE CODE
0
POLYLINE
8
TITLE_BLOCK
66
1
10
0.0000
20
0.0000
30
0.0000
70
1
0
VERTEX
8
TITLE_BLOCK
10
18.8500
20
1.6000
30
0.0000
0
VERTEX
8
TITLE_BLOCK
10
20.6500
20
1.6000
30
0.0000
0
VERTEX
8
TITLE_BLOCK
10
20.6500
20
1.1000
30
0.0000
0
VERTEX
8
TITLE_BLOCK
10
18.8500
20
1.1000
30
0.0000
0
SEQEND
8
TITLE_BLOCK
0
TEXT
8
TITLE_BLOCK
10
18.8917
20
1.4792
30
0.0000
40
0.1020
1
DWG NO.
0
TEXT
8
TITLE_BLOCK
10
18.9194
20
1.1694
30
0.0000
40
0.2448
1
W101-001
0
POLYLINE
8
TITLE_BLOCK
66
1
10
0.0000
20
0.0000
30
0.0000
70
1
0
VERTEX
8
TITLE_BLOCK
10
20.6500
20
1.6000
30
0.0000
0
VERTEX
8
TITLE_BLOCK
10
21.2500
20
1.6000
30
0.0000
0
VERTEX
8
TITLE_BLOCK
10
21.2500
20
1.1000
30
0.0000
0
VERTEX
8
TITLE_BLOCK
10
20.6500
20
1.1000
30
0.0000
0
SEQEND
8
TITLE_BLOCK
0
TEXT
8
TITLE_BLOCK
10
20.6917
20
1.4792
30
0.0000
40
0.1020
1
REV
0
TEXT
8
TITLE_BLOCK
10
20.9500
20
1.1694
30
0.0000
40
0.1224
1
A
72
1
11
20.9500
21
1.1694
31
0.0000
0
POLYLINE
8
TITLE_BLOCK
66
1
10
0.0000
20
0.0000
30
0.0000
70
1
0
VERTEX
8
TITLE_BLOCK
10
17.2500
20
1.1000
30
0.0000
0
VERTEX
8
TITLE_BLOCK
10
18.5833
20
1.1000
30
0.0000
0
VERTEX
8
TITLE_BLOCK
10
18.5833
20
0.7500
30
0.0000
0
VERTEX
8
TITLE_BLOCK
10
17.2500
20
0.7500
30
0.0000
0
SEQEND
8
TITLE_BLOCK
0
TEXT
8
TITLE_BLOCK
10
17.2917
20
0.9792
30
0.0000
40
0.1020
1
SCALE
0
TEXT
8
TITLE_BLOCK
10
17.3194
20
0.8194
30
0.0000
40
0.1224
1
NONE
0
POLYLINE
8
TITLE_BLOCK
66
1
10
0.0000
20
0.0000
30
0.0000
70
1
0
VERTEX
8
TITLE_BLOCK
10
18.5833
20
1.1000
30
0.0000
0
VERTEX
8
TITLE_BLOCK
10
19.9167
20
1.1000
30
0.0000
0
VERTEX
8
TITLE_BLOCK
10
19.9167
20
0.7500
30
0.0000
0
VERTEX
8
TITLE_BLOCK
10
18.5833
20
0.7500
30
0.0000
0
SEQEND
8
TITLE_BLOCK
0
TEXT
8
TITLE_BLOCK
10
18.6250
20
0.9792
30
0.0000
40
0.1020
1
WEIGHT
0
POLYLINE
8
TITLE_BLOCK
66
1
10
0.0000
20
0.0000
30
0.0000
70
1
0
VERTEX
8
TITLE_BLOCK
10
19.9167
20
1.1000
30
0.0000
0
VERTEX
8
TITLE_BLOCK
10
21.2500
20
1.1000
30
0.0000
0
VERTEX
8
TITLE_BLOCK
10
21.2500
20
0.7500
30
0.0000
0
VERTEX
8
TITLE_BLOCK
10
19.9167
20
0.7500
30
0.0000
0
SEQEND
8
TITLE_BLOCK
0
TEXT
8
TITLE_BLOCK
10
19.9583
20
0.9792
30
0.0000
40
0.1020
1
SHEET
0
TEXT
8
TITLE_BLOCK
10
19.9861
20
0.8194
30
0.0000
40
0.1224
1
3 OF 4
0
ENDSEC
0
EOF
