0
SECTION
2
HEADER
9
$ACADVER
1
AC1009
9
$INSUNITS
70
1
9
$EXTMIN
10
0.0000
20
0.0000
30
0.0000
9
$EXTMAX
10
34.0000
20
22.0000
30
0.0000
9
$LIMMIN
10
0.0000
20
0.0000
9
$LIMMAX
10
34.0000
20
22.0000
0
ENDSEC
0
SECTION
2
TABLES
0
TABLE
2
LTYPE
70
2
0
LTYPE
2
CONTINUOUS
70
0
3
Solid line
72
65
73
0
40
0.0000
0
LTYPE
2
DASHED
70
0
3
__ __ __
72
65
73
2
40
0.1500
49
0.1000
49
-0.0500
0
ENDTAB
0
TABLE
2
LAYER
70
13
0
LAYER
2
0
70
0
62
7
6
CONTINUOUS
0
LAYER
2
BORDER
70
0
62
7
6
CONTINUOUS
0
LAYER
2
TITLE_BLOCK
70
0
62
7
6
CONTINUOUS
0
LAYER
2
ASSEMBLY
70
0
62
7
6
CONTINUOUS
0
LAYER
2
CABLE
70
0
62
7
6
CONTINUOUS
0
LAYER
2
DIMENSIONS
70
0
62
3
6
CONTINUOUS
0
LAYER
2
BALLOONS
70
0
62
5
6
CONTINUOUS
0
LAYER
2
WIRING
70
0
62
7
6
CONTINUOUS
0
LAYER
2
SHIELDS
70
0
62
4
6
CONTINUOUS
0
LAYER
2
FACE_VIEWS
70
0
62
7
6
CONTINUOUS
0
LAYER
2
TABLES
70
0
62
7
6
CONTINUOUS
0
LAYER
2
NOTES
70
0
62
7
6
CONTINUOUS
0
LAYER
2
TEXT
70
0
62
7
6
CONTINUOUS
0
ENDTAB
0
ENDSEC
0
SECTION
2
ENTITIES
0
POLYLINE
8
BORDER
66
1
10
0.0000
20
0.0000
30
0.0000
70
1
0
VERTEX
8
BORDER
10
0.3750
20
21.6250
30
0.0000
0
VERTEX
8
BORDER
10
33.6250
20
21.6250
30
0.0000
0
VERTEX
8
BORDER
10
33.6250
20
0.3750
30
0.0000
0
VERTEX
8
BORDER
10
0.3750
20
0.3750
30
0.0000
0
SEQEND
8
BORDER
0
POLYLINE
8
BORDER
66
1
10
0.0000
20
0.0000
30
0.0000
70
1
0
VERTEX
8
BORDER
10
0.7500
20
21.2500
30
0.0000
0
VERTEX
8
BORDER
10
33.2500
20
21.2500
30
0.0000
0
VERTEX
8
BORDER
10
33.2500
20
0.7500
30
0.0000
0
VERTEX
8
BORDER
10
0.7500
20
0.7500
30
0.0000
0
SEQEND
8
BORDER
0
TEXT
8
BORDER
10
2.7812
20
21.3148
30
0.0000
40
0.2448
1
8
72
1
11
2.7812
21
21.3148
31
0.0000
0
TEXT
8
BORDER
10
2.7812
20
0.4398
30
0.0000
40
0.2448
1
8
72
1
11
2.7812
21
0.4398
31
0.0000
0
TEXT
8
BORDER
10
6.8438
20
21.3148
30
0.0000
40
0.2448
1
7
72
1
11
6.8438
21
21.3148
31
0.0000
0
TEXT
8
BORDER
10
6.8438
20
0.4398
30
0.0000
40
0.2448
1
7
72
1
11
6.8438
21
0.4398
31
0.0000
0
LINE
8
BORDER
10
4.8125
20
21.6250
30
0.0000
11
4.8125
21
21.2500
31
0.0000
0
LINE
8
BORDER
10
4.8125
20
0.7500
30
0.0000
11
4.8125
21
0.3750
31
0.0000
0
TEXT
8
BORDER
10
10.9062
20
21.3148
30
0.0000
40
0.2448
1
6
72
1
11
10.9062
21
21.3148
31
0.0000
0
TEXT
8
BORDER
10
10.9062
20
0.4398
30
0.0000
40
0.2448
1
6
72
1
11
10.9062
21
0.4398
31
0.0000
0
LINE
8
BORDER
10
8.8750
20
21.6250
30
0.0000
11
8.8750
21
21.2500
31
0.0000
0
LINE
8
BORDER
10
8.8750
20
0.7500
30
0.0000
11
8.8750
21
0.3750
31
0.0000
0
TEXT
8
BORDER
10
14.9688
20
21.3148
30
0.0000
40
0.2448
1
5
72
1
11
14.9688
21
21.3148
31
0.0000
0
TEXT
8
BORDER
10
14.9688
20
0.4398
30
0.0000
40
0.2448
1
5
72
1
11
14.9688
21
0.4398
31
0.0000
0
LINE
8
BORDER
10
12.9375
20
21.6250
30
0.0000
11
12.9375
21
21.2500
31
0.0000
0
LINE
8
BORDER
10
12.9375
20
0.7500
30
0.0000
11
12.9375
21
0.3750
31
0.0000
0
TEXT
8
BORDER
10
19.0312
20
21.3148
30
0.0000
40
0.2448
1
4
72
1
11
19.0312
21
21.3148
31
0.0000
0
TEXT
8
BORDER
10
19.0312
20
0.4398
30
0.0000
40
0.2448
1
4
72
1
11
19.0312
21
0.4398
31
0.0000
0
LINE
8
BORDER
10
17.0000
20
21.6250
30
0.0000
11
17.0000
21
21.2500
31
0.0000
0
LINE
8
BORDER
10
17.0000
20
0.7500
30
0.0000
11
17.0000
21
0.3750
31
0.0000
0
TEXT
8
BORDER
10
23.0938
20
21.3148
30
0.0000
40
0.2448
1
3
72
1
11
23.0938
21
21.3148
31
0.0000
0
TEXT
8
BORDER
10
23.0938
20
0.4398
30
0.0000
40
0.2448
1
3
72
1
11
23.0938
21
0.4398
31
0.0000
0
LINE
8
BORDER
10
21.0625
20
21.6250
30
0.0000
11
21.0625
21
21.2500
31
0.0000
0
LINE
8
BORDER
10
21.0625
20
0.7500
30
0.0000
11
21.0625
21
0.3750
31
0.0000
0
TEXT
8
BORDER
10
27.1562
20
21.3148
30
0.0000
40
0.2448
1
2
72
1
11
27.1562
21
21.3148
31
0.0000
0
TEXT
8
BORDER
10
27.1562
20
0.4398
30
0.0000
40
0.2448
1
2
72
1
11
27.1562
21
0.4398
31
0.0000
0
LINE
8
BORDER
10
25.1250
20
21.6250
30
0.0000
11
25.1250
21
21.2500
31
0.0000
0
LINE
8
BORDER
10
25.1250
20
0.7500
30
0.0000
11
25.1250
21
0.3750
31
0.0000
0
TEXT
8
BORDER
10
31.2188
20
21.3148
30
0.0000
40
0.2448
1
1
72
1
11
31.2188
21
21.3148
31
0.0000
0
TEXT
8
BORDER
10
31.2188
20
0.4398
30
0.0000
40
0.2448
1
1
72
1
11
31.2188
21
0.4398
31
0.0000
0
LINE
8
BORDER
10
29.1875
20
21.6250
30
0.0000
11
29.1875
21
21.2500
31
0.0000
0
LINE
8
BORDER
10
29.1875
20
0.7500
30
0.0000
11
29.1875
21
0.3750
31
0.0000
0
TEXT
8
BORDER
10
0.5625
20
18.5648
30
0.0000
40
0.2448
1
D
72
1
11
0.5625
21
18.5648
31
0.0000
0
TEXT
8
BORDER
10
33.4375
20
18.5648
30
0.0000
40
0.2448
1
D
72
1
11
33.4375
21
18.5648
31
0.0000
0
TEXT
8
BORDER
10
0.5625
20
13.4398
30
0.0000
40
0.2448
1
C
72
1
11
0.5625
21
13.4398
31
0.0000
0
TEXT
8
BORDER
10
33.4375
20
13.4398
30
0.0000
40
0.2448
1
C
72
1
11
33.4375
21
13.4398
31
0.0000
0
LINE
8
BORDER
10
0.3750
20
16.1250
30
0.0000
11
0.7500
21
16.1250
31
0.0000
0
LINE
8
BORDER
10
33.2500
20
16.1250
30
0.0000
11
33.6250
21
16.1250
31
0.0000
0
TEXT
8
BORDER
10
0.5625
20
8.3148
30
0.0000
40
0.2448
1
B
72
1
11
0.5625
21
8.3148
31
0.0000
0
TEXT
8
BORDER
10
33.4375
20
8.3148
30
0.0000
40
0.2448
1
B
72
1
11
33.4375
21
8.3148
31
0.0000
0
LINE
8
BORDER
10
0.3750
20
11.0000
30
0.0000
11
0.7500
21
11.0000
31
0.0000
0
LINE
8
BORDER
10
33.2500
20
11.0000
30
0.0000
11
33.6250
21
11.0000
31
0.0000
0
TEXT
8
BORDER
10
0.5625
20
3.1898
30
0.0000
40
0.2448
1
A
72
1
11
0.5625
21
3.1898
31
0.0000
0
TEXT
8
BORDER
10
33.4375
20
3.1898
30
0.0000
40
0.2448
1
A
72
1
11
33.4375
21
3.1898
31
0.0000
0
LINE
8
BORDER
10
0.3750
20
5.8750
30
0.0000
11
0.7500
21
5.8750
31
0.0000
0
LINE
8
BORDER
10
33.2500
20
5.8750
30
0.0000
11
33.6250
21
5.8750
31
0.0000
0
POLYLINE
8
BORDER
66
1
10
0.0000
20
0.0000
30
0.0000
70
1
0
VERTEX
8
BORDER
10
0.7500
20
21.2500
30
0.0000
0
VERTEX
8
BORDER
10
3.5000
20
21.2500
30
0.0000
0
VERTEX
8
BORDER
10
3.5000
20
20.7500
30
0.0000
0
VERTEX
8
BORDER
10
0.7500
20
20.7500
30
0.0000
0
SEQEND
8
BORDER
0
TEXT
8
BORDER
10
2.1250
20
21.0614
30
0.0000
40
0.1224
1
W101-001  REV A
50
180.0000
72
1
11
2.1250
21
21.0614
31
0.0000
0
TEXT
8
0
10
0.9167
20
20.4129
30
0.0000
40
0.1224
1
WIRING DIAGRAM
0
POLYLINE
8
WIRING
66
1
10
0.0000
20
0.0000
30
0.0000
70
1
0
VERTEX
8
WIRING
10
3.4179
20
20.1906
30
0.0000
0
VERTEX
8
WIRING
10
7.7041
20
20.1906
30
0.0000
0
VERTEX
8
WIRING
10
7.7041
20
18.7100
30
0.0000
0
VERTEX
8
WIRING
10
3.4179
20
18.7100
30
0.0000
0
SEQEND
8
WIRING
0
TEXT
8
WIRING
10
5.5610
20
19.6841
30
0.0000
40
0.2798
1
P1
72
1
11
5.5610
21
19.6841
31
0.0000
0
TEXT
8
WIRING
10
5.5610
20
19.2944
30
0.0000
40
0.1958
1
D38999/26WD18SN
72
1
11
5.5610
21
19.2944
31
0.0000
0
TEXT
8
WIRING
10
5.5610
20
18.9048
30
0.0000
40
0.1958
1
TO FLIGHT COMPUTER J3
72
1
11
5.5610
21
18.9048
31
0.0000
0
POLYLINE
8
WIRING
66
1
10
0.0000
20
0.0000
30
0.0000
70
1
0
VERTEX
8
WIRING
10
3.4179
20
18.7100
30
0.0000
0
VERTEX
8
WIRING
10
7.7041
20
18.7100
30
0.0000
0
VERTEX
8
WIRING
10
7.7041
20
18.2424
30
0.0000
0
VERTEX
8
WIRING
10
3.4179
20
18.2424
30
0.0000
0
SEQEND
8
WIRING
0
TEXT
8
WIRING
10
4.0024
20
18.3593
30
0.0000
40
0.1958
1
PIN
72
1
11
4.0024
21
18.3593
31
0.0000
0
TEXT
8
WIRING
10
6.1455
20
18.3593
30
0.0000
40
0.1958
1
SIGNAL
72
1
11
6.1455
21
18.3593
31
0.0000
0
POLYLINE
8
WIRING
66
1
10
0.0000
20
0.0000
30
0.0000
70
1
0
VERTEX
8
WIRING
10
3.4179
20
18.2424
30
0.0000
0
VERTEX
8
WIRING
10
7.7041
20
18.2424
30
0.0000
0
VERTEX
8
WIRING
10
7.7041
20
11.6962
30
0.0000
0
VERTEX
8
WIRING
10
3.4179
20
11.6962
30
0.0000
0
SEQEND
8
WIRING
0
LINE
8
WIRING
10
4.5869
20
18.7100
30
0.0000
11
4.5869
21
11.6962
31
0.0000
0
TEXT
8
WIRING
10
4.0024
20
17.8527
30
0.0000
40
0.1958
1
A
72
1
11
4.0024
21
17.8527
31
0.0000
0
TEXT
8
WIRING
10
4.7427
20
17.8527
30
0.0000
40
0.1958
1
+28V PWR
0
CIRCLE
8
WIRING
10
7.7041
20
17.9696
30
0.0000
40
0.0507
0
LINE
8
WIRING
10
7.7041
20
17.9696
30
0.0000
11
12.3242
21
17.9696
31
0.0000
0
TEXT
8
WIRING
10
7.8989
20
18.0670
30
0.0000
40
0.1958
1
W1  20 AWG  RED
0
LINE
8
WIRING
10
3.4179
20
17.6969
30
0.0000
11
7.7041
21
17.6969
31
0.0000
0
TEXT
8
WIRING
10
4.0024
20
17.3072
30
0.0000
40
0.1958
1
B
72
1
11
4.0024
21
17.3072
31
0.0000
0
TEXT
8
WIRING
10
4.7427
20
17.3072
30
0.0000
40
0.1958
1
28V RTN
0
CIRCLE
8
WIRING
10
7.7041
20
17.4241
30
0.0000
40
0.0507
0
LINE
8
WIRING
10
7.7041
20
17.4241
30
0.0000
11
12.3242
21
17.4241
31
0.0000
0
TEXT
8
WIRING
10
7.8989
20
17.5215
30
0.0000
40
0.1958
1
W2  20 AWG  BLK
0
LINE
8
WIRING
10
3.4179
20
17.1513
30
0.0000
11
7.7041
21
17.1513
31
0.0000
0
TEXT
8
WIRING
10
4.0024
20
16.7617
30
0.0000
40
0.1958
1
C
72
1
11
4.0024
21
16.7617
31
0.0000
0
TEXT
8
WIRING
10
4.7427
20
16.7617
30
0.0000
40
0.1958
1
RS422 TX+
0
CIRCLE
8
WIRING
10
7.7041
20
16.8786
30
0.0000
40
0.0507
0
LINE
8
WIRING
10
7.7041
20
16.8786
30
0.0000
11
12.3242
21
16.8786
31
0.0000
0
TEXT
8
WIRING
10
7.8989
20
16.9760
30
0.0000
40
0.1958
1
W3  22 AWG  WHT
0
LINE
8
WIRING
10
3.4179
20
16.6058
30
0.0000
11
7.7041
21
16.6058
31
0.0000
0
TEXT
8
WIRING
10
4.0024
20
16.2162
30
0.0000
40
0.1958
1
D
72
1
11
4.0024
21
16.2162
31
0.0000
0
TEXT
8
WIRING
10
4.7427
20
16.2162
30
0.0000
40
0.1958
1
RS422 TX-
0
CIRCLE
8
WIRING
10
7.7041
20
16.3331
30
0.0000
40
0.0507
0
LINE
8
WIRING
10
7.7041
20
16.3331
30
0.0000
11
12.3242
21
16.3331
31
0.0000
0
TEXT
8
WIRING
10
7.8989
20
16.4305
30
0.0000
40
0.1958
1
W4  22 AWG  BLU
0
LINE
8
WIRING
10
3.4179
20
16.0603
30
0.0000
11
7.7041
21
16.0603
31
0.0000
0
TEXT
8
WIRING
10
4.0024
20
15.6707
30
0.0000
40
0.1958
1
E
72
1
11
4.0024
21
15.6707
31
0.0000
0
TEXT
8
WIRING
10
4.7427
20
15.6707
30
0.0000
40
0.1958
1
RS422 RX+
0
CIRCLE
8
WIRING
10
7.7041
20
15.7875
30
0.0000
40
0.0507
0
LINE
8
WIRING
10
7.7041
20
15.7875
30
0.0000
11
12.3242
21
15.7875
31
0.0000
0
TEXT
8
WIRING
10
7.8989
20
15.8850
30
0.0000
40
0.1958
1
W5  22 AWG  WHT
0
LINE
8
WIRING
10
3.4179
20
15.5148
30
0.0000
11
7.7041
21
15.5148
31
0.0000
0
TEXT
8
WIRING
10
4.0024
20
15.1251
30
0.0000
40
0.1958
1
F
72
1
11
4.0024
21
15.1251
31
0.0000
0
TEXT
8
WIRING
10
4.7427
20
15.1251
30
0.0000
40
0.1958
1
RS422 RX-
0
CIRCLE
8
WIRING
10
7.7041
20
15.2420
30
0.0000
40
0.0507
0
LINE
8
WIRING
10
7.7041
20
15.2420
30
0.0000
11
12.3242
21
15.2420
31
0.0000
0
TEXT
8
WIRING
10
7.8989
20
15.3394
30
0.0000
40
0.1958
1
W6  22 AWG  BLU
0
LINE
8
WIRING
10
3.4179
20
14.9693
30
0.0000
11
7.7041
21
14.9693
31
0.0000
0
TEXT
8
WIRING
10
4.0024
20
14.5796
30
0.0000
40
0.1958
1
G
72
1
11
4.0024
21
14.5796
31
0.0000
0
TEXT
8
WIRING
10
4.7427
20
14.5796
30
0.0000
40
0.1958
1
DISCRETE IN 1
0
CIRCLE
8
WIRING
10
7.7041
20
14.6965
30
0.0000
40
0.0507
0
LINE
8
WIRING
10
7.7041
20
14.6965
30
0.0000
11
12.3242
21
14.6965
31
0.0000
0
TEXT
8
WIRING
10
7.8989
20
14.7939
30
0.0000
40
0.1958
1
W7  22 AWG  WHT
0
LINE
8
WIRING
10
3.4179
20
14.4238
30
0.0000
11
7.7041
21
14.4238
31
0.0000
0
TEXT
8
WIRING
10
4.0024
20
14.0341
30
0.0000
40
0.1958
1
H
72
1
11
4.0024
21
14.0341
31
0.0000
0
TEXT
8
WIRING
10
4.7427
20
14.0341
30
0.0000
40
0.1958
1
DISCRETE OUT 1
0
CIRCLE
8
WIRING
10
7.7041
20
14.1510
30
0.0000
40
0.0507
0
LINE
8
WIRING
10
7.7041
20
14.1510
30
0.0000
11
12.3242
21
14.1510
31
0.0000
0
TEXT
8
WIRING
10
7.8989
20
14.2484
30
0.0000
40
0.1958
1
W8  22 AWG  WHT
0
LINE
8
WIRING
10
3.4179
20
13.8782
30
0.0000
11
7.7041
21
13.8782
31
0.0000
0
TEXT
8
WIRING
10
4.0024
20
13.4886
30
0.0000
40
0.1958
1
J
72
1
11
4.0024
21
13.4886
31
0.0000
0
TEXT
8
WIRING
10
4.7427
20
13.4886
30
0.0000
40
0.1958
1
SIG GND
0
CIRCLE
8
WIRING
10
7.7041
20
13.6055
30
0.0000
40
0.0507
0
LINE
8
WIRING
10
7.7041
20
13.6055
30
0.0000
11
12.3242
21
13.6055
31
0.0000
0
TEXT
8
WIRING
10
7.8989
20
13.7029
30
0.0000
40
0.1958
1
W9  22 AWG  BLK
0
LINE
8
WIRING
10
3.4179
20
13.3327
30
0.0000
11
7.7041
21
13.3327
31
0.0000
0
TEXT
8
WIRING
10
4.0024
20
12.9431
30
0.0000
40
0.1958
1
K
72
1
11
4.0024
21
12.9431
31
0.0000
0
TEXT
8
WIRING
10
4.7427
20
12.9431
30
0.0000
40
0.1958
1
ADDR STRAP
0
CIRCLE
8
WIRING
10
7.7041
20
13.0600
30
0.0000
40
0.0507
0
LINE
8
WIRING
10
7.7041
20
13.0600
30
0.0000
11
12.3242
21
13.0600
31
0.0000
0
TEXT
8
WIRING
10
7.8989
20
13.1574
30
0.0000
40
0.1958
1
W10  22 AWG  WHT
0
LINE
8
WIRING
10
3.4179
20
12.7872
30
0.0000
11
7.7041
21
12.7872
31
0.0000
0
TEXT
8
WIRING
10
4.0024
20
12.3976
30
0.0000
40
0.1958
1
L
72
1
11
4.0024
21
12.3976
31
0.0000
0
TEXT
8
WIRING
10
4.7427
20
12.3976
30
0.0000
40
0.1958
1
ADDR STRAP
0
CIRCLE
8
WIRING
10
7.7041
20
12.5145
30
0.0000
40
0.0507
0
LINE
8
WIRING
10
7.7041
20
12.5145
30
0.0000
11
12.3242
21
12.5145
31
0.0000
0
TEXT
8
WIRING
10
7.8989
20
12.6119
30
0.0000
40
0.1958
1
W10  22 AWG  WHT
0
LINE
8
WIRING
10
3.4179
20
12.2417
30
0.0000
11
7.7041
21
12.2417
31
0.0000
0
TEXT
8
WIRING
10
4.0024
20
11.8520
30
0.0000
40
0.1958
1
M
72
1
11
4.0024
21
11.8520
31
0.0000
0
TEXT
8
WIRING
10
4.7427
20
11.8520
30
0.0000
40
0.1958
1
CHASSIS GND
0
CIRCLE
8
WIRING
10
7.7041
20
11.9689
30
0.0000
40
0.0507
0
LINE
8
WIRING
10
7.7041
20
11.9689
30
0.0000
11
12.3242
21
11.9689
31
0.0000
0
TEXT
8
WIRING
10
7.8989
20
12.0664
30
0.0000
40
0.1958
1
W11  20 AWG  GRN
0
POLYLINE
8
WIRING
66
1
10
0.0000
20
0.0000
30
0.0000
70
1
0
VERTEX
8
WIRING
10
26.2959
20
20.1906
30
0.0000
0
VERTEX
8
WIRING
10
30.5821
20
20.1906
30
0.0000
0
VERTEX
8
WIRING
10
30.5821
20
18.7100
30
0.0000
0
VERTEX
8
WIRING
10
26.2959
20
18.7100
30
0.0000
0
SEQEND
8
WIRING
0
TEXT
8
WIRING
10
28.4390
20
19.6841
30
0.0000
40
0.2798
1
P2
72
1
11
28.4390
21
19.6841
31
0.0000
0
TEXT
8
WIRING
10
28.4390
20
19.2944
30
0.0000
40
0.1958
1
D38999/26WD18PN
72
1
11
28.4390
21
19.2944
31
0.0000
0
TEXT
8
WIRING
10
28.4390
20
18.9048
30
0.0000
40
0.1958
1
TO POWER DISTRIBUTION J7
72
1
11
28.4390
21
18.9048
31
0.0000
0
POLYLINE
8
WIRING
66
1
10
0.0000
20
0.0000
30
0.0000
70
1
0
VERTEX
8
WIRING
10
26.2959
20
18.7100
30
0.0000
0
VERTEX
8
WIRING
10
30.5821
20
18.7100
30
0.0000
0
VERTEX
8
WIRING
10
30.5821
20
18.2424
30
0.0000
0
VERTEX
8
WIRING
10
26.2959
20
18.2424
30
0.0000
0
SEQEND
8
WIRING
0
TEXT
8
WIRING
10
29.9976
20
18.3593
30
0.0000
40
0.1958
1
PIN
72
1
11
29.9976
21
18.3593
31
0.0000
0
TEXT
8
WIRING
10
27.8545
20
18.3593
30
0.0000
40
0.1958
1
SIGNAL
72
1
11
27.8545
21
18.3593
31
0.0000
0
POLYLINE
8
WIRING
66
1
10
0.0000
20
0.0000
30
0.0000
70
1
0
VERTEX
8
WIRING
10
26.2959
20
18.2424
30
0.0000
0
VERTEX
8
WIRING
10
30.5821
20
18.2424
30
0.0000
0
VERTEX
8
WIRING
10
30.5821
20
11.6962
30
0.0000
0
VERTEX
8
WIRING
10
26.2959
20
11.6962
30
0.0000
0
SEQEND
8
WIRING
0
LINE
8
WIRING
10
29.4131
20
18.7100
30
0.0000
11
29.4131
21
11.6962
31
0.0000
0
TEXT
8
WIRING
10
29.9976
20
17.8527
30
0.0000
40
0.1958
1
A
72
1
11
29.9976
21
17.8527
31
0.0000
0
TEXT
8
WIRING
10
26.4518
20
17.8527
30
0.0000
40
0.1958
1
+28V PWR
0
CIRCLE
8
WIRING
10
26.2959
20
17.9696
30
0.0000
40
0.0507
0
LINE
8
WIRING
10
26.2959
20
17.9696
30
0.0000
11
21.6758
21
17.9696
31
0.0000
0
TEXT
8
WIRING
10
26.1011
20
18.0670
30
0.0000
40
0.1958
1
W1  20 AWG  RED
72
2
11
26.1011
21
18.0670
31
0.0000
0
LINE
8
WIRING
10
26.2959
20
17.6969
30
0.0000
11
30.5821
21
17.6969
31
0.0000
0
TEXT
8
WIRING
10
29.9976
20
17.3072
30
0.0000
40
0.1958
1
B
72
1
11
29.9976
21
17.3072
31
0.0000
0
TEXT
8
WIRING
10
26.4518
20
17.3072
30
0.0000
40
0.1958
1
28V RTN
0
CIRCLE
8
WIRING
10
26.2959
20
17.4241
30
0.0000
40
0.0507
0
LINE
8
WIRING
10
26.2959
20
17.4241
30
0.0000
11
21.6758
21
17.4241
31
0.0000
0
TEXT
8
WIRING
10
26.1011
20
17.5215
30
0.0000
40
0.1958
1
W2  20 AWG  BLK
72
2
11
26.1011
21
17.5215
31
0.0000
0
LINE
8
WIRING
10
26.2959
20
17.1513
30
0.0000
11
30.5821
21
17.1513
31
0.0000
0
TEXT
8
WIRING
10
29.9976
20
16.7617
30
0.0000
40
0.1958
1
C
72
1
11
29.9976
21
16.7617
31
0.0000
0
TEXT
8
WIRING
10
26.4518
20
16.7617
30
0.0000
40
0.1958
1
RS422 TX+
0
CIRCLE
8
WIRING
10
26.2959
20
16.8786
30
0.0000
40
0.0507
0
LINE
8
WIRING
10
26.2959
20
16.8786
30
0.0000
11
21.6758
21
16.8786
31
0.0000
0
TEXT
8
WIRING
10
26.1011
20
16.9760
30
0.0000
40
0.1958
1
W3  22 AWG  WHT
72
2
11
26.1011
21
16.9760
31
0.0000
0
LINE
8
WIRING
10
26.2959
20
16.6058
30
0.0000
11
30.5821
21
16.6058
31
0.0000
0
TEXT
8
WIRING
10
29.9976
20
16.2162
30
0.0000
40
0.1958
1
D
72
1
11
29.9976
21
16.2162
31
0.0000
0
TEXT
8
WIRING
10
26.4518
20
16.2162
30
0.0000
40
0.1958
1
RS422 TX-
0
CIRCLE
8
WIRING
10
26.2959
20
16.3331
30
0.0000
40
0.0507
0
LINE
8
WIRING
10
26.2959
20
16.3331
30
0.0000
11
21.6758
21
16.3331
31
0.0000
0
TEXT
8
WIRING
10
26.1011
20
16.4305
30
0.0000
40
0.1958
1
W4  22 AWG  BLU
72
2
11
26.1011
21
16.4305
31
0.0000
0
LINE
8
WIRING
10
26.2959
20
16.0603
30
0.0000
11
30.5821
21
16.0603
31
0.0000
0
TEXT
8
WIRING
10
29.9976
20
15.6707
30
0.0000
40
0.1958
1
E
72
1
11
29.9976
21
15.6707
31
0.0000
0
TEXT
8
WIRING
10
26.4518
20
15.6707
30
0.0000
40
0.1958
1
RS422 RX+
0
CIRCLE
8
WIRING
10
26.2959
20
15.7875
30
0.0000
40
0.0507
0
LINE
8
WIRING
10
26.2959
20
15.7875
30
0.0000
11
21.6758
21
15.7875
31
0.0000
0
TEXT
8
WIRING
10
26.1011
20
15.8850
30
0.0000
40
0.1958
1
W5  22 AWG  WHT
72
2
11
26.1011
21
15.8850
31
0.0000
0
LINE
8
WIRING
10
26.2959
20
15.5148
30
0.0000
11
30.5821
21
15.5148
31
0.0000
0
TEXT
8
WIRING
10
29.9976
20
15.1251
30
0.0000
40
0.1958
1
F
72
1
11
29.9976
21
15.1251
31
0.0000
0
TEXT
8
WIRING
10
26.4518
20
15.1251
30
0.0000
40
0.1958
1
RS422 RX-
0
CIRCLE
8
WIRING
10
26.2959
20
15.2420
30
0.0000
40
0.0507
0
LINE
8
WIRING
10
26.2959
20
15.2420
30
0.0000
11
21.6758
21
15.2420
31
0.0000
0
TEXT
8
WIRING
10
26.1011
20
15.3394
30
0.0000
40
0.1958
1
W6  22 AWG  BLU
72
2
11
26.1011
21
15.3394
31
0.0000
0
LINE
8
WIRING
10
26.2959
20
14.9693
30
0.0000
11
30.5821
21
14.9693
31
0.0000
0
TEXT
8
WIRING
10
29.9976
20
14.5796
30
0.0000
40
0.1958
1
G
72
1
11
29.9976
21
14.5796
31
0.0000
0
TEXT
8
WIRING
10
26.4518
20
14.5796
30
0.0000
40
0.1958
1
DISCRETE OUT 1
0
CIRCLE
8
WIRING
10
26.2959
20
14.6965
30
0.0000
40
0.0507
0
LINE
8
WIRING
10
26.2959
20
14.6965
30
0.0000
11
21.6758
21
14.6965
31
0.0000
0
TEXT
8
WIRING
10
26.1011
20
14.7939
30
0.0000
40
0.1958
1
W8  22 AWG  WHT
72
2
11
26.1011
21
14.7939
31
0.0000
0
LINE
8
WIRING
10
26.2959
20
14.4238
30
0.0000
11
30.5821
21
14.4238
31
0.0000
0
TEXT
8
WIRING
10
29.9976
20
14.0341
30
0.0000
40
0.1958
1
H
72
1
11
29.9976
21
14.0341
31
0.0000
0
TEXT
8
WIRING
10
26.4518
20
14.0341
30
0.0000
40
0.1958
1
DISCRETE IN 1
0
CIRCLE
8
WIRING
10
26.2959
20
14.1510
30
0.0000
40
0.0507
0
LINE
8
WIRING
10
26.2959
20
14.1510
30
0.0000
11
21.6758
21
14.1510
31
0.0000
0
TEXT
8
WIRING
10
26.1011
20
14.2484
30
0.0000
40
0.1958
1
W7  22 AWG  WHT
72
2
11
26.1011
21
14.2484
31
0.0000
0
LINE
8
WIRING
10
26.2959
20
13.8782
30
0.0000
11
30.5821
21
13.8782
31
0.0000
0
TEXT
8
WIRING
10
29.9976
20
13.4886
30
0.0000
40
0.1958
1
J
72
1
11
29.9976
21
13.4886
31
0.0000
0
TEXT
8
WIRING
10
26.4518
20
13.4886
30
0.0000
40
0.1958
1
SIG GND A
0
CIRCLE
8
WIRING
10
26.2959
20
13.6055
30
0.0000
40
0.0507
0
LINE
8
WIRING
10
26.2959
20
13.6055
30
0.0000
11
21.6758
21
13.6055
31
0.0000
0
TEXT
8
WIRING
10
26.1011
20
13.7029
30
0.0000
40
0.1958
1
W12  22 AWG  BLK
72
2
11
26.1011
21
13.7029
31
0.0000
0
LINE
8
WIRING
10
26.2959
20
13.3327
30
0.0000
11
30.5821
21
13.3327
31
0.0000
0
TEXT
8
WIRING
10
29.9976
20
12.9431
30
0.0000
40
0.1958
1
K
72
1
11
29.9976
21
12.9431
31
0.0000
0
TEXT
8
WIRING
10
26.4518
20
12.9431
30
0.0000
40
0.1958
1
SIG GND B
0
CIRCLE
8
WIRING
10
26.2959
20
13.0600
30
0.0000
40
0.0507
0
LINE
8
WIRING
10
26.2959
20
13.0600
30
0.0000
11
21.6758
21
13.0600
31
0.0000
0
TEXT
8
WIRING
10
26.1011
20
13.1574
30
0.0000
40
0.1958
1
W13  22 AWG  BLK
72
2
11
26.1011
21
13.1574
31
0.0000
0
LINE
8
WIRING
10
26.2959
20
12.7872
30
0.0000
11
30.5821
21
12.7872
31
0.0000
0
TEXT
8
WIRING
10
29.9976
20
12.3976
30
0.0000
40
0.1958
1
L
72
1
11
29.9976
21
12.3976
31
0.0000
0
TEXT
8
WIRING
10
26.4518
20
12.3976
30
0.0000
40
0.1958
1
TSP1 SHIELD
0
CIRCLE
8
WIRING
10
26.2959
20
12.5145
30
0.0000
40
0.0507
0
LINE
8
WIRING
10
26.2959
20
12.2417
30
0.0000
11
30.5821
21
12.2417
31
0.0000
0
TEXT
8
WIRING
10
29.9976
20
11.8520
30
0.0000
40
0.1958
1
M
72
1
11
29.9976
21
11.8520
31
0.0000
0
TEXT
8
WIRING
10
26.4518
20
11.8520
30
0.0000
40
0.1958
1
CHASSIS GND
0
CIRCLE
8
WIRING
10
26.2959
20
11.9689
30
0.0000
40
0.0507
0
LINE
8
WIRING
10
26.2959
20
11.9689
30
0.0000
11
21.6758
21
11.9689
31
0.0000
0
TEXT
8
WIRING
10
26.1011
20
12.0664
30
0.0000
40
0.1958
1
W11  20 AWG  GRN
72
2
11
26.1011
21
12.0664
31
0.0000
0
LINE
8
WIRING
10
12.3242
20
17.9696
30
0.0000
11
21.6758
21
17.9696
31
0.0000
0
LINE
8
WIRING
10
12.3242
20
17.4241
30
0.0000
11
21.6758
21
17.4241
31
0.0000
0
LINE
8
WIRING
10
12.3242
20
16.8786
30
0.0000
11
21.6758
21
16.8786
31
0.0000
0
LINE
8
WIRING
10
12.3242
20
16.3331
30
0.0000
11
21.6758
21
16.3331
31
0.0000
0
LINE
8
WIRING
10
12.3242
20
15.7875
30
0.0000
11
21.6758
21
15.7875
31
0.0000
0
LINE
8
WIRING
10
12.3242
20
15.2420
30
0.0000
11
21.6758
21
15.2420
31
0.0000
0
LINE
8
WIRING
10
12.3242
20
14.6965
30
0.0000
11
21.6758
21
14.1510
31
0.0000
0
LINE
8
WIRING
10
12.3242
20
14.1510
30
0.0000
11
21.6758
21
14.6965
31
0.0000
0
LINE
8
WIRING
10
12.3242
20
13.6055
30
0.0000
11
17.0000
21
13.4236
31
0.0000
0
POLYLINE
8
WIRING
66
1
10
0.0000
20
0.0000
30
0.0000
70
0
0
VERTEX
8
WIRING
10
12.3242
20
13.0600
30
0.0000
0
VERTEX
8
WIRING
10
12.7917
20
13.0600
30
0.0000
0
VERTEX
8
WIRING
10
12.7917
20
12.5145
30
0.0000
0
VERTEX
8
WIRING
10
12.3242
20
12.5145
30
0.0000
0
SEQEND
8
WIRING
0
LINE
8
WIRING
10
12.3242
20
11.9689
30
0.0000
11
21.6758
21
11.9689
31
0.0000
0
LINE
8
WIRING
10
17.0000
20
13.4236
30
0.0000
11
21.6758
21
13.6055
31
0.0000
0
LINE
8
WIRING
10
17.0000
20
13.4236
30
0.0000
11
21.6758
21
13.0600
31
0.0000
0
CIRCLE
8
WIRING
10
17.0000
20
13.4236
30
0.0000
40
0.1364
0
TEXT
8
WIRING
10
17.0000
20
13.6964
30
0.0000
40
0.2238
1
SP1
72
1
11
17.0000
21
13.6964
31
0.0000
0
TEXT
8
WIRING
10
17.0000
20
12.8781
30
0.0000
40
0.1958
1
M81824/1-1
72
1
11
17.0000
21
12.8781
31
0.0000
0
LINE
8
SHIELDS
6
DASHED
10
26.2959
20
12.5145
30
0.0000
11
22.3383
21
12.5145
31
0.0000
0
TEXT
8
SHIELDS
10
26.1011
20
12.6119
30
0.0000
40
0.1958
1
TSP1 SHLD
72
2
11
26.1011
21
12.6119
31
0.0000
0
LINE
8
SHIELDS
10
10.9604
20
16.8786
30
0.0000
11
11.2721
21
16.3331
31
0.0000
0
LINE
8
SHIELDS
10
10.9604
20
16.3331
30
0.0000
11
11.2721
21
16.8786
31
0.0000
0
POLYLINE
8
SHIELDS
6
DASHED
66
1
10
0.0000
20
0.0000
30
0.0000
70
1
0
VERTEX
8
SHIELDS
10
11.3890
20
16.6058
30
0.0000
0
VERTEX
8
SHIELDS
10
11.3856
20
16.5296
30
0.0000
0
VERTEX
8
SHIELDS
10
11.3756
20
16.4553
30
0.0000
0
VERTEX
8
SHIELDS
10
11.3593
20
16.3847
30
0.0000
0
VERTEX
8
SHIELDS
10
11.3369
20
16.3195
30
0.0000
0
VERTEX
8
SHIELDS
10
11.3091
20
16.2614
30
0.0000
0
VERTEX
8
SHIELDS
10
11.2766
20
16.2118
30
0.0000
0
VERTEX
8
SHIELDS
10
11.2401
20
16.1718
30
0.0000
0
VERTEX
8
SHIELDS
10
11.2005
20
16.1426
30
0.0000
0
VERTEX
8
SHIELDS
10
11.1589
20
16.1248
30
0.0000
0
VERTEX
8
SHIELDS
10
11.1162
20
16.1188
30
0.0000
0
VERTEX
8
SHIELDS
10
11.0736
20
16.1248
30
0.0000
0
VERTEX
8
SHIELDS
10
11.0319
20
16.1426
30
0.0000
0
VERTEX
8
SHIELDS
10
10.9924
20
16.1718
30
0.0000
0
VERTEX
8
SHIELDS
10
10.9559
20
16.2118
30
0.0000
0
VERTEX
8
SHIELDS
10
10.9234
20
16.2614
30
0.0000
0
VERTEX
8
SHIELDS
10
10.8956
20
16.3195
30
0.0000
0
VERTEX
8
SHIELDS
10
10.8732
20
16.3847
30
0.0000
0
VERTEX
8
SHIELDS
10
10.8568
20
16.4553
30
0.0000
0
VERTEX
8
SHIELDS
10
10.8468
20
16.5296
30
0.0000
0
VERTEX
8
SHIELDS
10
10.8435
20
16.6058
30
0.0000
0
VERTEX
8
SHIELDS
10
10.8468
20
16.6820
30
0.0000
0
VERTEX
8
SHIELDS
10
10.8568
20
16.7563
30
0.0000
0
VERTEX
8
SHIELDS
10
10.8732
20
16.8269
30
0.0000
0
VERTEX
8
SHIELDS
10
10.8956
20
16.8921
30
0.0000
0
VERTEX
8
SHIELDS
10
10.9234
20
16.9502
30
0.0000
0
VERTEX
8
SHIELDS
10
10.9559
20
16.9999
30
0.0000
0
VERTEX
8
SHIELDS
10
10.9924
20
17.0398
30
0.0000
0
VERTEX
8
SHIELDS
10
11.0319
20
17.0691
30
0.0000
0
VERTEX
8
SHIELDS
10
11.0736
20
17.0869
30
0.0000
0
VERTEX
8
SHIELDS
10
11.1162
20
17.0929
30
0.0000
0
VERTEX
8
SHIELDS
10
11.1589
20
17.0869
30
0.0000
0
VERTEX
8
SHIELDS
10
11.2005
20
17.0691
30
0.0000
0
VERTEX
8
SHIELDS
10
11.2401
20
17.0398
30
0.0000
0
VERTEX
8
SHIELDS
10
11.2766
20
16.9999
30
0.0000
0
VERTEX
8
SHIELDS
10
11.3091
20
16.9502
30
0.0000
0
VERTEX
8
SHIELDS
10
11.3369
20
16.8921
30
0.0000
0
VERTEX
8
SHIELDS
10
11.3593
20
16.8269
30
0.0000
0
VERTEX
8
SHIELDS
10
11.3756
20
16.7563
30
0.0000
0
VERTEX
8
SHIELDS
10
11.3856
20
16.6820
30
0.0000
0
SEQEND
8
SHIELDS
0
TEXT
8
SHIELDS
10
11.4669
20
16.9760
30
0.0000
40
0.1958
1
TSP1
0
LINE
8
SHIELDS
6
DASHED
10
11.3890
20
16.6058
30
0.0000
11
11.6617
21
16.6058
31
0.0000
0
LINE
8
SHIELDS
10
11.6617
20
16.7812
30
0.0000
11
11.6617
21
16.4305
31
0.0000
0
LINE
8
SHIELDS
10
11.7475
20
16.7227
30
0.0000
11
11.7475
21
16.4889
31
0.0000
0
LINE
8
SHIELDS
10
11.8332
20
16.6643
30
0.0000
11
11.8332
21
16.5474
31
0.0000
0
LINE
8
SHIELDS
10
22.7279
20
16.8786
30
0.0000
11
23.0396
21
16.3331
31
0.0000
0
LINE
8
SHIELDS
10
22.7279
20
16.3331
30
0.0000
11
23.0396
21
16.8786
31
0.0000
0
POLYLINE
8
SHIELDS
6
DASHED
66
1
10
0.0000
20
0.0000
30
0.0000
70
1
0
VERTEX
8
SHIELDS
10
23.1565
20
16.6058
30
0.0000
0
VERTEX
8
SHIELDS
10
23.1532
20
16.5296
30
0.0000
0
VERTEX
8
SHIELDS
10
23.1432
20
16.4553
30
0.0000
0
VERTEX
8
SHIELDS
10
23.1268
20
16.3847
30
0.0000
0
VERTEX
8
SHIELDS
10
23.1044
20
16.3195
30
0.0000
0
VERTEX
8
SHIELDS
10
23.0766
20
16.2614
30
0.0000
0
VERTEX
8
SHIELDS
10
23.0441
20
16.2118
30
0.0000
0
VERTEX
8
SHIELDS
10
23.0076
20
16.1718
30
0.0000
0
VERTEX
8
SHIELDS
10
22.9681
20
16.1426
30
0.0000
0
VERTEX
8
SHIELDS
10
22.9264
20
16.1248
30
0.0000
0
VERTEX
8
SHIELDS
10
22.8838
20
16.1188
30
0.0000
0
VERTEX
8
SHIELDS
10
22.8411
20
16.1248
30
0.0000
0
VERTEX
8
SHIELDS
10
22.7995
20
16.1426
30
0.0000
0
VERTEX
8
SHIELDS
10
22.7599
20
16.1718
30
0.0000
0
VERTEX
8
SHIELDS
10
22.7234
20
16.2118
30
0.0000
0
VERTEX
8
SHIELDS
10
22.6909
20
16.2614
30
0.0000
0
VERTEX
8
SHIELDS
10
22.6631
20
16.3195
30
0.0000
0
VERTEX
8
SHIELDS
10
22.6407
20
16.3847
30
0.0000
0
VERTEX
8
SHIELDS
10
22.6244
20
16.4553
30
0.0000
0
VERTEX
8
SHIELDS
10
22.6144
20
16.5296
30
0.0000
0
VERTEX
8
SHIELDS
10
22.6110
20
16.6058
30
0.0000
0
VERTEX
8
SHIELDS
10
22.6144
20
16.6820
30
0.0000
0
VERTEX
8
SHIELDS
10
22.6244
20
16.7563
30
0.0000
0
VERTEX
8
SHIELDS
10
22.6407
20
16.8269
30
0.0000
0
VERTEX
8
SHIELDS
10
22.6631
20
16.8921
30
0.0000
0
VERTEX
8
SHIELDS
10
22.6909
20
16.9502
30
0.0000
0
VERTEX
8
SHIELDS
10
22.7234
20
16.9999
30
0.0000
0
VERTEX
8
SHIELDS
10
22.7599
20
17.0398
30
0.0000
0
VERTEX
8
SHIELDS
10
22.7995
20
17.0691
30
0.0000
0
VERTEX
8
SHIELDS
10
22.8411
20
17.0869
30
0.0000
0
VERTEX
8
SHIELDS
10
22.8838
20
17.0929
30
0.0000
0
VERTEX
8
SHIELDS
10
22.9264
20
17.0869
30
0.0000
0
VERTEX
8
SHIELDS
10
22.9681
20
17.0691
30
0.0000
0
VERTEX
8
SHIELDS
10
23.0076
20
17.0398
30
0.0000
0
VERTEX
8
SHIELDS
10
23.0441
20
16.9999
30
0.0000
0
VERTEX
8
SHIELDS
10
23.0766
20
16.9502
30
0.0000
0
VERTEX
8
SHIELDS
10
23.1044
20
16.8921
30
0.0000
0
VERTEX
8
SHIELDS
10
23.1268
20
16.8269
30
0.0000
0
VERTEX
8
SHIELDS
10
23.1432
20
16.7563
30
0.0000
0
VERTEX
8
SHIELDS
10
23.1532
20
16.6820
30
0.0000
0
SEQEND
8
SHIELDS
0
TEXT
8
SHIELDS
10
22.5331
20
16.9760
30
0.0000
40
0.1958
1
TSP1
72
2
11
22.5331
21
16.9760
31
0.0000
0
POLYLINE
8
SHIELDS
6
DASHED
66
1
10
0.0000
20
0.0000
30
0.0000
70
0
0
VERTEX
8
SHIELDS
10
22.6110
20
16.6058
30
0.0000
0
VERTEX
8
SHIELDS
10
22.3383
20
16.6058
30
0.0000
0
VERTEX
8
SHIELDS
10
22.3383
20
12.5145
30
0.0000
0
SEQEND
8
SHIELDS
0
CIRCLE
8
SHIELDS
10
22.3383
20
12.5145
30
0.0000
40
0.0546
0
LINE
8
SHIELDS
10
10.9604
20
15.7875
30
0.0000
11
11.2721
21
15.2420
31
0.0000
0
LINE
8
SHIELDS
10
10.9604
20
15.2420
30
0.0000
11
11.2721
21
15.7875
31
0.0000
0
TEXT
8
SHIELDS
10
11.4669
20
15.8850
30
0.0000
40
0.1958
1
TP2
0
LINE
8
SHIELDS
10
22.7279
20
15.7875
30
0.0000
11
23.0396
21
15.2420
31
0.0000
0
LINE
8
SHIELDS
10
22.7279
20
15.2420
30
0.0000
11
23.0396
21
15.7875
31
0.0000
0
TEXT
8
SHIELDS
10
22.5331
20
15.8850
30
0.0000
40
0.1958
1
TP2
72
2
11
22.5331
21
15.8850
31
0.0000
0
TEXT
8
WIRING
10
3.4179
20
10.9948
30
0.0000
40
0.1958
1
LEGEND:
0
LINE
8
WIRING
10
5.0350
20
11.2286
30
0.0000
11
5.3467
21
10.9948
31
0.0000
0
LINE
8
WIRING
10
5.0350
20
10.9948
30
0.0000
11
5.3467
21
11.2286
31
0.0000
0
TEXT
8
WIRING
10
5.5026
20
10.9948
30
0.0000
40
0.1958
1
TWISTED
0
POLYLINE
8
WIRING
6
DASHED
66
1
10
0.0000
20
0.0000
30
0.0000
70
1
0
VERTEX
8
WIRING
10
7.5482
20
11.1117
30
0.0000
0
VERTEX
8
WIRING
10
7.5458
20
11.0751
30
0.0000
0
VERTEX
8
WIRING
10
7.5387
20
11.0395
30
0.0000
0
VERTEX
8
WIRING
10
7.5270
20
11.0056
30
0.0000
0
VERTEX
8
WIRING
10
7.5110
20
10.9743
30
0.0000
0
VERTEX
8
WIRING
10
7.4912
20
10.9464
30
0.0000
0
VERTEX
8
WIRING
10
7.4679
20
10.9226
30
0.0000
0
VERTEX
8
WIRING
10
7.4419
20
10.9034
30
0.0000
0
VERTEX
8
WIRING
10
7.4136
20
10.8894
30
0.0000
0
VERTEX
8
WIRING
10
7.3839
20
10.8808
30
0.0000
0
VERTEX
8
WIRING
10
7.3534
20
10.8779
30
0.0000
0
VERTEX
8
WIRING
10
7.3229
20
10.8808
30
0.0000
0
VERTEX
8
WIRING
10
7.2932
20
10.8894
30
0.0000
0
VERTEX
8
WIRING
10
7.2650
20
10.9034
30
0.0000
0
VERTEX
8
WIRING
10
7.2389
20
10.9226
30
0.0000
0
VERTEX
8
WIRING
10
7.2157
20
10.9464
30
0.0000
0
VERTEX
8
WIRING
10
7.1958
20
10.9743
30
0.0000
0
VERTEX
8
WIRING
10
7.1798
20
11.0056
30
0.0000
0
VERTEX
8
WIRING
10
7.1681
20
11.0395
30
0.0000
0
VERTEX
8
WIRING
10
7.1610
20
11.0751
30
0.0000
0
VERTEX
8
WIRING
10
7.1586
20
11.1117
30
0.0000
0
VERTEX
8
WIRING
10
7.1610
20
11.1483
30
0.0000
0
VERTEX
8
WIRING
10
7.1681
20
11.1839
30
0.0000
0
VERTEX
8
WIRING
10
7.1798
20
11.2178
30
0.0000
0
VERTEX
8
WIRING
10
7.1958
20
11.2491
30
0.0000
0
VERTEX
8
WIRING
10
7.2157
20
11.2770
30
0.0000
0
VERTEX
8
WIRING
10
7.2389
20
11.3008
30
0.0000
0
VERTEX
8
WIRING
10
7.2650
20
11.3200
30
0.0000
0
VERTEX
8
WIRING
10
7.2932
20
11.3341
30
0.0000
0
VERTEX
8
WIRING
10
7.3229
20
11.3426
30
0.0000
0
VERTEX
8
WIRING
10
7.3534
20
11.3455
30
0.0000
0
VERTEX
8
WIRING
10
7.3839
20
11.3426
30
0.0000
0
VERTEX
8
WIRING
10
7.4136
20
11.3341
30
0.0000
0
VERTEX
8
WIRING
10
7.4419
20
11.3200
30
0.0000
0
VERTEX
8
WIRING
10
7.4679
20
11.3008
30
0.0000
0
VERTEX
8
WIRING
10
7.4912
20
11.2770
30
0.0000
0
VERTEX
8
WIRING
10
7.5110
20
11.2491
30
0.0000
0
VERTEX
8
WIRING
10
7.5270
20
11.2178
30
0.0000
0
VERTEX
8
WIRING
10
7.5387
20
11.1839
30
0.0000
0
VERTEX
8
WIRING
10
7.5458
20
11.1483
30
0.0000
0
SEQEND
8
WIRING
0
TEXT
8
WIRING
10
7.7041
20
10.9948
30
0.0000
40
0.1958
1
SHIELD
0
POLYLINE
8
WIRING
66
1
10
0.0000
20
0.0000
30
0.0000
70
1
0
VERTEX
8
WIRING
10
9.5076
20
11.1117
30
0.0000
0
VERTEX
8
WIRING
10
9.5052
20
11.0751
30
0.0000
0
VERTEX
8
WIRING
10
9.4980
20
11.0395
30
0.0000
0
VERTEX
8
WIRING
10
9.4863
20
11.0056
30
0.0000
0
VERTEX
8
WIRING
10
9.4704
20
10.9743
30
0.0000
0
VERTEX
8
WIRING
10
9.4505
20
10.9464
30
0.0000
0
VERTEX
8
WIRING
10
9.4273
20
10.9226
30
0.0000
0
VERTEX
8
WIRING
10
9.4012
20
10.9034
30
0.0000
0
VERTEX
8
WIRING
10
9.3730
20
10.8894
30
0.0000
0
VERTEX
8
WIRING
10
9.3432
20
10.8808
30
0.0000
0
VERTEX
8
WIRING
10
9.3128
20
10.8779
30
0.0000
0
VERTEX
8
WIRING
10
9.2823
20
10.8808
30
0.0000
0
VERTEX
8
WIRING
10
9.2525
20
10.8894
30
0.0000
0
VERTEX
8
WIRING
10
9.2243
20
10.9034
30
0.0000
0
VERTEX
8
WIRING
10
9.1982
20
10.9226
30
0.0000
0
VERTEX
8
WIRING
10
9.1750
20
10.9464
30
0.0000
0
VERTEX
8
WIRING
10
9.1551
20
10.9743
30
0.0000
0
VERTEX
8
WIRING
10
9.1392
20
11.0056
30
0.0000
0
VERTEX
8
WIRING
10
9.1275
20
11.0395
30
0.0000
0
VERTEX
8
WIRING
10
9.1203
20
11.0751
30
0.0000
0
VERTEX
8
WIRING
10
9.1179
20
11.1117
30
0.0000
0
VERTEX
8
WIRING
10
9.1203
20
11.1483
30
0.0000
0
VERTEX
8
WIRING
10
9.1275
20
11.1839
30
0.0000
0
VERTEX
8
WIRING
10
9.1392
20
11.2178
30
0.0000
0
VERTEX
8
WIRING
10
9.1551
20
11.2491
30
0.0000
0
VERTEX
8
WIRING
10
9.1750
20
11.2770
30
0.0000
0
VERTEX
8
WIRING
10
9.1982
20
11.3008
30
0.0000
0
VERTEX
8
WIRING
10
9.2243
20
11.3200
30
0.0000
0
VERTEX
8
WIRING
10
9.2525
20
11.3341
30
0.0000
0
VERTEX
8
WIRING
10
9.2823
20
11.3426
30
0.0000
0
VERTEX
8
WIRING
10
9.3128
20
11.3455
30
0.0000
0
VERTEX
8
WIRING
10
9.3432
20
11.3426
30
0.0000
0
VERTEX
8
WIRING
10
9.3730
20
11.3341
30
0.0000
0
VERTEX
8
WIRING
10
9.4012
20
11.3200
30
0.0000
0
VERTEX
8
WIRING
10
9.4273
20
11.3008
30
0.0000
0
VERTEX
8
WIRING
10
9.4505
20
11.2770
30
0.0000
0
VERTEX
8
WIRING
10
9.4704
20
11.2491
30
0.0000
0
VERTEX
8
WIRING
10
9.4863
20
11.2178
30
0.0000
0
VERTEX
8
WIRING
10
9.4980
20
11.1839
30
0.0000
0
VERTEX
8
WIRING
10
9.5052
20
11.1483
30
0.0000
0
SEQEND
8
WIRING
0
TEXT
8
WIRING
10
9.6634
20
10.9948
30
0.0000
40
0.1958
1
JACKETED CABLE
0
LINE
8
WIRING
10
12.6038
20
11.2870
30
0.0000
11
12.6038
21
10.9364
31
0.0000
0
LINE
8
WIRING
10
12.6895
20
11.2286
30
0.0000
11
12.6895
21
10.9948
31
0.0000
0
LINE
8
WIRING
10
12.7752
20
11.1702
30
0.0000
11
12.7752
21
11.0533
31
0.0000
0
TEXT
8
WIRING
10
12.9934
20
10.9948
30
0.0000
40
0.1958
1
SHIELD TO BACKSHELL
0
TEXT
8
WIRING
10
16.6615
20
10.9948
30
0.0000
40
0.1958
1
? = SHIELD TERMINATION NOT SPECIFIED
0
POLYLINE
8
TITLE_BLOCK
66
1
10
0.0000
20
0.0000
30
0.0000
70
1
0
VERTEX
8
TITLE_BLOCK
10
29.2500
20
1.6000
30
0.0000
0
VERTEX
8
TITLE_BLOCK
10
33.2500
20
1.6000
30
0.0000
0
VERTEX
8
TITLE_BLOCK
10
33.2500
20
0.7500
30
0.0000
0
VERTEX
8
TITLE_BLOCK
10
29.2500
20
0.7500
30
0.0000
0
SEQEND
8
TITLE_BLOCK
0
POLYLINE
8
TITLE_BLOCK
66
1
10
0.0000
20
0.0000
30
0.0000
70
1
0
VERTEX
8
TITLE_BLOCK
10
29.2500
20
1.6000
30
0.0000
0
VERTEX
8
TITLE_BLOCK
10
29.8500
20
1.6000
30
0.0000
0
VERTEX
8
TITLE_BLOCK
10
29.8500
20
1.1000
30
0.0000
0
VERTEX
8
TITLE_BLOCK
10
29.2500
20
1.1000
30
0.0000
0
SEQEND
8
TITLE_BLOCK
0
TEXT
8
TITLE_BLOCK
10
29.2917
20
1.4792
30
0.0000
40
0.1020
1
SIZE
0
TEXT
8
TITLE_BLOCK
10
29.5500
20
1.1694
30
0.0000
40
0.2448
1
D
72
1
11
29.5500
21
1.1694
31
0.0000
0
POLYLINE
8
TITLE_BLOCK
66
1
10
0.0000
20
0.0000
30
0.0000
70
1
0
VERTEX
8
TITLE_BLOCK
10
29.8500
20
1.6000
30
0.0000
0
VERTEX
8
TITLE_BLOCK
10
30.8500
20
1.6000
30
0.0000
0
VERTEX
8
TITLE_BLOCK
10
30.8500
20
1.1000
30
0.0000
0
VERTEX
8
TITLE_BLOCK
10
29.8500
20
1.1000
30
0.0000
0
SEQEND
8
TITLE_BLOCK
0
TEXT
8
TITLE_BLOCK
10
29.8917
20
1.4792
30
0.0000
40
0.1020
1
CAGE CODE
0
POLYLINE
8
TITLE_BLOCK
66
1
10
0.0000
20
0.0000
30
0.0000
70
1
0
VERTEX
8
TITLE_BLOCK
10
30.8500
20
1.6000
30
0.0000
0
VERTEX
8
TITLE_BLOCK
10
32.6500
20
1.6000
30
0.0000
0
VERTEX
8
TITLE_BLOCK
10
32.6500
20
1.1000
30
0.0000
0
VERTEX
8
TITLE_BLOCK
10
30.8500
20
1.1000
30
0.0000
0
SEQEND
8
TITLE_BLOCK
0
TEXT
8
TITLE_BLOCK
10
30.8917
20
1.4792
30
0.0000
40
0.1020
1
DWG NO.
0
TEXT
8
TITLE_BLOCK
10
30.9194
20
1.1694
30
0.0000
40
0.2448
1
W101-001
0
POLYLINE
8
TITLE_BLOCK
66
1
10
0.0000
20
0.0000
30
0.0000
70
1
0
VERTEX
8
TITLE_BLOCK
10
32.6500
20
1.6000
30
0.0000
0
VERTEX
8
TITLE_BLOCK
10
33.2500
20
1.6000
30
0.0000
0
VERTEX
8
TITLE_BLOCK
10
33.2500
20
1.1000
30
0.0000
0
VERTEX
8
TITLE_BLOCK
10
32.6500
20
1.1000
30
0.0000
0
SEQEND
8
TITLE_BLOCK
0
TEXT
8
TITLE_BLOCK
10
32.6917
20
1.4792
30
0.0000
40
0.1020
1
REV
0
TEXT
8
TITLE_BLOCK
10
32.9500
20
1.1694
30
0.0000
40
0.1224
1
A
72
1
11
32.9500
21
1.1694
31
0.0000
0
POLYLINE
8
TITLE_BLOCK
66
1
10
0.0000
20
0.0000
30
0.0000
70
1
0
VERTEX
8
TITLE_BLOCK
10
29.2500
20
1.1000
30
0.0000
0
VERTEX
8
TITLE_BLOCK
10
30.5833
20
1.1000
30
0.0000
0
VERTEX
8
TITLE_BLOCK
10
30.5833
20
0.7500
30
0.0000
0
VERTEX
8
TITLE_BLOCK
10
29.2500
20
0.7500
30
0.0000
0
SEQEND
8
TITLE_BLOCK
0
TEXT
8
TITLE_BLOCK
10
29.2917
20
0.9792
30
0.0000
40
0.1020
1
SCALE
0
TEXT
8
TITLE_BLOCK
10
29.3194
20
0.8194
30
0.0000
40
0.1224
1
NONE
0
POLYLINE
8
TITLE_BLOCK
66
1
10
0.0000
20
0.0000
30
0.0000
70
1
0
VERTEX
8
TITLE_BLOCK
10
30.5833
20
1.1000
30
0.0000
0
VERTEX
8
TITLE_BLOCK
10
31.9167
20
1.1000
30
0.0000
0
VERTEX
8
TITLE_BLOCK
10
31.9167
20
0.7500
30
0.0000
0
VERTEX
8
TITLE_BLOCK
10
30.5833
20
0.7500
30
0.0000
0
SEQEND
8
TITLE_BLOCK
0
TEXT
8
TITLE_BLOCK
10
30.6250
20
0.9792
30
0.0000
40
0.1020
1
WEIGHT
0
POLYLINE
8
TITLE_BLOCK
66
1
10
0.0000
20
0.0000
30
0.0000
70
1
0
VERTEX
8
TITLE_BLOCK
10
31.9167
20
1.1000
30
0.0000
0
VERTEX
8
TITLE_BLOCK
10
33.2500
20
1.1000
30
0.0000
0
VERTEX
8
TITLE_BLOCK
10
33.2500
20
0.7500
30
0.0000
0
VERTEX
8
TITLE_BLOCK
10
31.9167
20
0.7500
30
0.0000
0
SEQEND
8
TITLE_BLOCK
0
TEXT
8
TITLE_BLOCK
10
31.9583
20
0.9792
30
0.0000
40
0.1020
1
SHEET
0
TEXT
8
TITLE_BLOCK
10
31.9861
20
0.8194
30
0.0000
40
0.1224
1
2 OF 3
0
ENDSEC
0
EOF
