0
SECTION
2
HEADER
9
$ACADVER
1
AC1009
9
$INSUNITS
70
1
9
$EXTMIN
10
0.0000
20
0.0000
30
0.0000
9
$EXTMAX
10
17.0000
20
11.0000
30
0.0000
9
$LIMMIN
10
0.0000
20
0.0000
9
$LIMMAX
10
17.0000
20
11.0000
0
ENDSEC
0
SECTION
2
TABLES
0
TABLE
2
LTYPE
70
2
0
LTYPE
2
CONTINUOUS
70
0
3
Solid line
72
65
73
0
40
0.0000
0
LTYPE
2
DASHED
70
0
3
__ __ __
72
65
73
2
40
0.1500
49
0.1000
49
-0.0500
0
ENDTAB
0
TABLE
2
LAYER
70
12
0
LAYER
2
0
70
0
62
7
6
CONTINUOUS
0
LAYER
2
BORDER
70
0
62
7
6
CONTINUOUS
0
LAYER
2
TITLE_BLOCK
70
0
62
7
6
CONTINUOUS
0
LAYER
2
ASSEMBLY
70
0
62
7
6
CONTINUOUS
0
LAYER
2
CABLE
70
0
62
7
6
CONTINUOUS
0
LAYER
2
DIMENSIONS
70
0
62
3
6
CONTINUOUS
0
LAYER
2
BALLOONS
70
0
62
5
6
CONTINUOUS
0
LAYER
2
WIRING
70
0
62
7
6
CONTINUOUS
0
LAYER
2
SHIELDS
70
0
62
4
6
CONTINUOUS
0
LAYER
2
TABLES
70
0
62
7
6
CONTINUOUS
0
LAYER
2
NOTES
70
0
62
7
6
CONTINUOUS
0
LAYER
2
TEXT
70
0
62
7
6
CONTINUOUS
0
ENDTAB
0
ENDSEC
0
SECTION
2
ENTITIES
0
POLYLINE
8
BORDER
66
1
10
0.0000
20
0.0000
30
0.0000
70
1
0
VERTEX
8
BORDER
10
0.3750
20
10.6250
30
0.0000
0
VERTEX
8
BORDER
10
16.6250
20
10.6250
30
0.0000
0
VERTEX
8
BORDER
10
16.6250
20
0.3750
30
0.0000
0
VERTEX
8
BORDER
10
0.3750
20
0.3750
30
0.0000
0
SEQEND
8
BORDER
0
POLYLINE
8
BORDER
66
1
10
0.0000
20
0.0000
30
0.0000
70
1
0
VERTEX
8
BORDER
10
0.6250
20
10.3750
30
0.0000
0
VERTEX
8
BORDER
10
16.3750
20
10.3750
30
0.0000
0
VERTEX
8
BORDER
10
16.3750
20
0.6250
30
0.0000
0
VERTEX
8
BORDER
10
0.6250
20
0.6250
30
0.0000
0
SEQEND
8
BORDER
0
TEXT
8
BORDER
10
2.5938
20
10.4583
30
0.0000
40
0.0800
1
4
72
1
11
2.5938
21
10.4583
31
0.0000
0
TEXT
8
BORDER
10
2.5938
20
0.4583
30
0.0000
40
0.0800
1
4
72
1
11
2.5938
21
0.4583
31
0.0000
0
TEXT
8
BORDER
10
6.5312
20
10.4583
30
0.0000
40
0.0800
1
3
72
1
11
6.5312
21
10.4583
31
0.0000
0
TEXT
8
BORDER
10
6.5312
20
0.4583
30
0.0000
40
0.0800
1
3
72
1
11
6.5312
21
0.4583
31
0.0000
0
LINE
8
BORDER
10
4.5625
20
10.6250
30
0.0000
11
4.5625
21
10.3750
31
0.0000
0
LINE
8
BORDER
10
4.5625
20
0.6250
30
0.0000
11
4.5625
21
0.3750
31
0.0000
0
TEXT
8
BORDER
10
10.4688
20
10.4583
30
0.0000
40
0.0800
1
2
72
1
11
10.4688
21
10.4583
31
0.0000
0
TEXT
8
BORDER
10
10.4688
20
0.4583
30
0.0000
40
0.0800
1
2
72
1
11
10.4688
21
0.4583
31
0.0000
0
LINE
8
BORDER
10
8.5000
20
10.6250
30
0.0000
11
8.5000
21
10.3750
31
0.0000
0
LINE
8
BORDER
10
8.5000
20
0.6250
30
0.0000
11
8.5000
21
0.3750
31
0.0000
0
TEXT
8
BORDER
10
14.4062
20
10.4583
30
0.0000
40
0.0800
1
1
72
1
11
14.4062
21
10.4583
31
0.0000
0
TEXT
8
BORDER
10
14.4062
20
0.4583
30
0.0000
40
0.0800
1
1
72
1
11
14.4062
21
0.4583
31
0.0000
0
LINE
8
BORDER
10
12.4375
20
10.6250
30
0.0000
11
12.4375
21
10.3750
31
0.0000
0
LINE
8
BORDER
10
12.4375
20
0.6250
30
0.0000
11
12.4375
21
0.3750
31
0.0000
0
TEXT
8
BORDER
10
0.5000
20
7.8958
30
0.0000
40
0.0800
1
B
72
1
11
0.5000
21
7.8958
31
0.0000
0
TEXT
8
BORDER
10
16.5000
20
7.8958
30
0.0000
40
0.0800
1
B
72
1
11
16.5000
21
7.8958
31
0.0000
0
TEXT
8
BORDER
10
0.5000
20
3.0208
30
0.0000
40
0.0800
1
A
72
1
11
0.5000
21
3.0208
31
0.0000
0
TEXT
8
BORDER
10
16.5000
20
3.0208
30
0.0000
40
0.0800
1
A
72
1
11
16.5000
21
3.0208
31
0.0000
0
LINE
8
BORDER
10
0.3750
20
5.5000
30
0.0000
11
0.6250
21
5.5000
31
0.0000
0
LINE
8
BORDER
10
16.3750
20
5.5000
30
0.0000
11
16.6250
21
5.5000
31
0.0000
0
TEXT
8
0
10
0.7917
20
10.0417
30
0.0000
40
0.1200
1
WIRE LIST AND LABEL SCHEDULE
0
TEXT
8
TABLES
10
0.7917
20
9.7222
30
0.0000
40
0.0900
1
WIRE LIST
0
POLYLINE
8
TABLES
66
1
10
0.0000
20
0.0000
30
0.0000
70
1
0
VERTEX
8
TABLES
10
0.7917
20
9.6528
30
0.0000
0
VERTEX
8
TABLES
10
7.1039
20
9.6528
30
0.0000
0
VERTEX
8
TABLES
10
7.1039
20
9.4583
30
0.0000
0
VERTEX
8
TABLES
10
0.7917
20
9.4583
30
0.0000
0
SEQEND
8
TABLES
0
TEXT
8
TABLES
10
0.9741
20
9.5139
30
0.0000
40
0.0700
1
WIRE
72
1
11
0.9741
21
9.5139
31
0.0000
0
TEXT
8
TABLES
10
1.3553
20
9.5139
30
0.0000
40
0.0700
1
FROM
72
1
11
1.3553
21
9.5139
31
0.0000
0
TEXT
8
TABLES
10
1.6928
20
9.5139
30
0.0000
40
0.0700
1
PIN
72
1
11
1.6928
21
9.5139
31
0.0000
0
TEXT
8
TABLES
10
1.9792
20
9.5139
30
0.0000
40
0.0700
1
TO
72
1
11
1.9792
21
9.5139
31
0.0000
0
TEXT
8
TABLES
10
2.2655
20
9.5139
30
0.0000
40
0.0700
1
PIN
72
1
11
2.2655
21
9.5139
31
0.0000
0
TEXT
8
TABLES
10
2.8624
20
9.5139
30
0.0000
40
0.0700
1
SIGNAL
72
1
11
2.8624
21
9.5139
31
0.0000
0
TEXT
8
TABLES
10
3.4947
20
9.5139
30
0.0000
40
0.0700
1
AWG
72
1
11
3.4947
21
9.5139
31
0.0000
0
TEXT
8
TABLES
10
3.9002
20
9.5139
30
0.0000
40
0.0700
1
COLOR
72
1
11
3.9002
21
9.5139
31
0.0000
0
TEXT
8
TABLES
10
4.6434
20
9.5139
30
0.0000
40
0.0700
1
WIRE P/N
72
1
11
4.6434
21
9.5139
31
0.0000
0
TEXT
8
TABLES
10
5.3893
20
9.5139
30
0.0000
40
0.0700
1
GROUP
72
1
11
5.3893
21
9.5139
31
0.0000
0
TEXT
8
TABLES
10
5.9730
20
9.5139
30
0.0000
40
0.0700
1
LENGTH (IN)
72
1
11
5.9730
21
9.5139
31
0.0000
0
TEXT
8
TABLES
10
6.7134
20
9.5139
30
0.0000
40
0.0700
1
NOTES
72
1
11
6.7134
21
9.5139
31
0.0000
0
TEXT
8
TABLES
10
0.8333
20
9.3403
30
0.0000
40
0.0700
1
W1
0
TEXT
8
TABLES
10
1.1983
20
9.3403
30
0.0000
40
0.0700
1
P1
0
TEXT
8
TABLES
10
1.6928
20
9.3403
30
0.0000
40
0.0700
1
1
72
1
11
1.6928
21
9.3403
31
0.0000
0
TEXT
8
TABLES
10
1.8734
20
9.3403
30
0.0000
40
0.0700
1
P2
0
TEXT
8
TABLES
10
2.2655
20
9.3403
30
0.0000
40
0.0700
1
1
72
1
11
2.2655
21
9.3403
31
0.0000
0
TEXT
8
TABLES
10
2.4460
20
9.3403
30
0.0000
40
0.0700
1
+28V PWR
0
TEXT
8
TABLES
10
3.4947
20
9.3403
30
0.0000
40
0.0700
1
20
72
1
11
3.4947
21
9.3403
31
0.0000
0
TEXT
8
TABLES
10
3.7108
20
9.3403
30
0.0000
40
0.0700
1
RED
0
TEXT
8
TABLES
10
4.1730
20
9.3403
30
0.0000
40
0.0700
1
M22759/16-20-2
0
TEXT
8
TABLES
10
5.9730
20
9.3403
30
0.0000
40
0.0700
1
48
72
1
11
5.9730
21
9.3403
31
0.0000
0
LINE
8
TABLES
10
0.7917
20
9.2917
30
0.0000
11
7.1039
21
9.2917
31
0.0000
0
TEXT
8
TABLES
10
0.8333
20
9.1736
30
0.0000
40
0.0700
1
W2
0
TEXT
8
TABLES
10
1.1983
20
9.1736
30
0.0000
40
0.0700
1
P1
0
TEXT
8
TABLES
10
1.6928
20
9.1736
30
0.0000
40
0.0700
1
2
72
1
11
1.6928
21
9.1736
31
0.0000
0
TEXT
8
TABLES
10
1.8734
20
9.1736
30
0.0000
40
0.0700
1
P2
0
TEXT
8
TABLES
10
2.2655
20
9.1736
30
0.0000
40
0.0700
1
2
72
1
11
2.2655
21
9.1736
31
0.0000
0
TEXT
8
TABLES
10
2.4460
20
9.1736
30
0.0000
40
0.0700
1
28V RTN
0
TEXT
8
TABLES
10
3.4947
20
9.1736
30
0.0000
40
0.0700
1
20
72
1
11
3.4947
21
9.1736
31
0.0000
0
TEXT
8
TABLES
10
3.7108
20
9.1736
30
0.0000
40
0.0700
1
BLK
0
TEXT
8
TABLES
10
4.1730
20
9.1736
30
0.0000
40
0.0700
1
M22759/16-20-0
0
TEXT
8
TABLES
10
5.9730
20
9.1736
30
0.0000
40
0.0700
1
48
72
1
11
5.9730
21
9.1736
31
0.0000
0
LINE
8
TABLES
10
0.7917
20
9.1250
30
0.0000
11
7.1039
21
9.1250
31
0.0000
0
TEXT
8
TABLES
10
0.8333
20
9.0069
30
0.0000
40
0.0700
1
W3
0
TEXT
8
TABLES
10
1.1983
20
9.0069
30
0.0000
40
0.0700
1
P1
0
TEXT
8
TABLES
10
1.6928
20
9.0069
30
0.0000
40
0.0700
1
3
72
1
11
1.6928
21
9.0069
31
0.0000
0
TEXT
8
TABLES
10
1.8734
20
9.0069
30
0.0000
40
0.0700
1
P2
0
TEXT
8
TABLES
10
2.2655
20
9.0069
30
0.0000
40
0.0700
1
3
72
1
11
2.2655
21
9.0069
31
0.0000
0
TEXT
8
TABLES
10
2.4460
20
9.0069
30
0.0000
40
0.0700
1
RS422 TX+
0
TEXT
8
TABLES
10
3.4947
20
9.0069
30
0.0000
40
0.0700
1
22
72
1
11
3.4947
21
9.0069
31
0.0000
0
TEXT
8
TABLES
10
3.7108
20
9.0069
30
0.0000
40
0.0700
1
WHT
0
TEXT
8
TABLES
10
4.1730
20
9.0069
30
0.0000
40
0.0700
1
(M27500-22TG2T14)
0
TEXT
8
TABLES
10
5.1972
20
9.0069
30
0.0000
40
0.0700
1
TSP1
0
TEXT
8
TABLES
10
5.9730
20
9.0069
30
0.0000
40
0.0700
1
48
72
1
11
5.9730
21
9.0069
31
0.0000
0
LINE
8
TABLES
10
0.7917
20
8.9583
30
0.0000
11
7.1039
21
8.9583
31
0.0000
0
TEXT
8
TABLES
10
0.8333
20
8.8403
30
0.0000
40
0.0700
1
W4
0
TEXT
8
TABLES
10
1.1983
20
8.8403
30
0.0000
40
0.0700
1
P1
0
TEXT
8
TABLES
10
1.6928
20
8.8403
30
0.0000
40
0.0700
1
4
72
1
11
1.6928
21
8.8403
31
0.0000
0
TEXT
8
TABLES
10
1.8734
20
8.8403
30
0.0000
40
0.0700
1
P2
0
TEXT
8
TABLES
10
2.2655
20
8.8403
30
0.0000
40
0.0700
1
4
72
1
11
2.2655
21
8.8403
31
0.0000
0
TEXT
8
TABLES
10
2.4460
20
8.8403
30
0.0000
40
0.0700
1
RS422 TX-
0
TEXT
8
TABLES
10
3.4947
20
8.8403
30
0.0000
40
0.0700
1
22
72
1
11
3.4947
21
8.8403
31
0.0000
0
TEXT
8
TABLES
10
3.7108
20
8.8403
30
0.0000
40
0.0700
1
BLU
0
TEXT
8
TABLES
10
4.1730
20
8.8403
30
0.0000
40
0.0700
1
(M27500-22TG2T14)
0
TEXT
8
TABLES
10
5.1972
20
8.8403
30
0.0000
40
0.0700
1
TSP1
0
TEXT
8
TABLES
10
5.9730
20
8.8403
30
0.0000
40
0.0700
1
48
72
1
11
5.9730
21
8.8403
31
0.0000
0
LINE
8
TABLES
10
0.7917
20
8.7917
30
0.0000
11
7.1039
21
8.7917
31
0.0000
0
TEXT
8
TABLES
10
0.8333
20
8.6736
30
0.0000
40
0.0700
1
W5
0
TEXT
8
TABLES
10
1.1983
20
8.6736
30
0.0000
40
0.0700
1
P1
0
TEXT
8
TABLES
10
1.6928
20
8.6736
30
0.0000
40
0.0700
1
5
72
1
11
1.6928
21
8.6736
31
0.0000
0
TEXT
8
TABLES
10
1.8734
20
8.6736
30
0.0000
40
0.0700
1
P2
0
TEXT
8
TABLES
10
2.2655
20
8.6736
30
0.0000
40
0.0700
1
5
72
1
11
2.2655
21
8.6736
31
0.0000
0
TEXT
8
TABLES
10
2.4460
20
8.6736
30
0.0000
40
0.0700
1
RS422 RX+
0
TEXT
8
TABLES
10
3.4947
20
8.6736
30
0.0000
40
0.0700
1
22
72
1
11
3.4947
21
8.6736
31
0.0000
0
TEXT
8
TABLES
10
3.7108
20
8.6736
30
0.0000
40
0.0700
1
WHT
0
TEXT
8
TABLES
10
4.1730
20
8.6736
30
0.0000
40
0.0700
1
M22759/16-22-9
0
TEXT
8
TABLES
10
5.1972
20
8.6736
30
0.0000
40
0.0700
1
TP2
0
TEXT
8
TABLES
10
5.9730
20
8.6736
30
0.0000
40
0.0700
1
48
72
1
11
5.9730
21
8.6736
31
0.0000
0
LINE
8
TABLES
10
0.7917
20
8.6250
30
0.0000
11
7.1039
21
8.6250
31
0.0000
0
TEXT
8
TABLES
10
0.8333
20
8.5069
30
0.0000
40
0.0700
1
W6
0
TEXT
8
TABLES
10
1.1983
20
8.5069
30
0.0000
40
0.0700
1
P1
0
TEXT
8
TABLES
10
1.6928
20
8.5069
30
0.0000
40
0.0700
1
6
72
1
11
1.6928
21
8.5069
31
0.0000
0
TEXT
8
TABLES
10
1.8734
20
8.5069
30
0.0000
40
0.0700
1
P2
0
TEXT
8
TABLES
10
2.2655
20
8.5069
30
0.0000
40
0.0700
1
6
72
1
11
2.2655
21
8.5069
31
0.0000
0
TEXT
8
TABLES
10
2.4460
20
8.5069
30
0.0000
40
0.0700
1
RS422 RX-
0
TEXT
8
TABLES
10
3.4947
20
8.5069
30
0.0000
40
0.0700
1
22
72
1
11
3.4947
21
8.5069
31
0.0000
0
TEXT
8
TABLES
10
3.7108
20
8.5069
30
0.0000
40
0.0700
1
BLU
0
TEXT
8
TABLES
10
4.1730
20
8.5069
30
0.0000
40
0.0700
1
M22759/16-22-6
0
TEXT
8
TABLES
10
5.1972
20
8.5069
30
0.0000
40
0.0700
1
TP2
0
TEXT
8
TABLES
10
5.9730
20
8.5069
30
0.0000
40
0.0700
1
48
72
1
11
5.9730
21
8.5069
31
0.0000
0
LINE
8
TABLES
10
0.7917
20
8.4583
30
0.0000
11
7.1039
21
8.4583
31
0.0000
0
TEXT
8
TABLES
10
0.8333
20
8.3403
30
0.0000
40
0.0700
1
W7
0
TEXT
8
TABLES
10
1.1983
20
8.3403
30
0.0000
40
0.0700
1
P1
0
TEXT
8
TABLES
10
1.6928
20
8.3403
30
0.0000
40
0.0700
1
7
72
1
11
1.6928
21
8.3403
31
0.0000
0
TEXT
8
TABLES
10
1.8734
20
8.3403
30
0.0000
40
0.0700
1
P2
0
TEXT
8
TABLES
10
2.2655
20
8.3403
30
0.0000
40
0.0700
1
8
72
1
11
2.2655
21
8.3403
31
0.0000
0
TEXT
8
TABLES
10
2.4460
20
8.3403
30
0.0000
40
0.0700
1
DISCRETE IN 1
0
TEXT
8
TABLES
10
3.4947
20
8.3403
30
0.0000
40
0.0700
1
22
72
1
11
3.4947
21
8.3403
31
0.0000
0
TEXT
8
TABLES
10
3.7108
20
8.3403
30
0.0000
40
0.0700
1
WHT
0
TEXT
8
TABLES
10
4.1730
20
8.3403
30
0.0000
40
0.0700
1
M22759/16-22-9
0
TEXT
8
TABLES
10
5.9730
20
8.3403
30
0.0000
40
0.0700
1
48
72
1
11
5.9730
21
8.3403
31
0.0000
0
LINE
8
TABLES
10
0.7917
20
8.2917
30
0.0000
11
7.1039
21
8.2917
31
0.0000
0
TEXT
8
TABLES
10
0.8333
20
8.1736
30
0.0000
40
0.0700
1
W8
0
TEXT
8
TABLES
10
1.1983
20
8.1736
30
0.0000
40
0.0700
1
P1
0
TEXT
8
TABLES
10
1.6928
20
8.1736
30
0.0000
40
0.0700
1
8
72
1
11
1.6928
21
8.1736
31
0.0000
0
TEXT
8
TABLES
10
1.8734
20
8.1736
30
0.0000
40
0.0700
1
P2
0
TEXT
8
TABLES
10
2.2655
20
8.1736
30
0.0000
40
0.0700
1
7
72
1
11
2.2655
21
8.1736
31
0.0000
0
TEXT
8
TABLES
10
2.4460
20
8.1736
30
0.0000
40
0.0700
1
DISCRETE OUT 1
0
TEXT
8
TABLES
10
3.4947
20
8.1736
30
0.0000
40
0.0700
1
22
72
1
11
3.4947
21
8.1736
31
0.0000
0
TEXT
8
TABLES
10
3.7108
20
8.1736
30
0.0000
40
0.0700
1
WHT
0
TEXT
8
TABLES
10
4.1730
20
8.1736
30
0.0000
40
0.0700
1
M22759/16-22-9
0
TEXT
8
TABLES
10
5.9730
20
8.1736
30
0.0000
40
0.0700
1
48
72
1
11
5.9730
21
8.1736
31
0.0000
0
LINE
8
TABLES
10
0.7917
20
8.1250
30
0.0000
11
7.1039
21
8.1250
31
0.0000
0
TEXT
8
TABLES
10
0.8333
20
8.0069
30
0.0000
40
0.0700
1
W9
0
TEXT
8
TABLES
10
1.1983
20
8.0069
30
0.0000
40
0.0700
1
P1
0
TEXT
8
TABLES
10
1.6928
20
8.0069
30
0.0000
40
0.0700
1
9
72
1
11
1.6928
21
8.0069
31
0.0000
0
TEXT
8
TABLES
10
1.8734
20
8.0069
30
0.0000
40
0.0700
1
SP1
0
TEXT
8
TABLES
10
2.4460
20
8.0069
30
0.0000
40
0.0700
1
SIG GND
0
TEXT
8
TABLES
10
3.4947
20
8.0069
30
0.0000
40
0.0700
1
22
72
1
11
3.4947
21
8.0069
31
0.0000
0
TEXT
8
TABLES
10
3.7108
20
8.0069
30
0.0000
40
0.0700
1
BLK
0
TEXT
8
TABLES
10
4.1730
20
8.0069
30
0.0000
40
0.0700
1
M22759/16-22-0
0
TEXT
8
TABLES
10
5.9730
20
8.0069
30
0.0000
40
0.0700
1
42
72
1
11
5.9730
21
8.0069
31
0.0000
0
LINE
8
TABLES
10
0.7917
20
7.9583
30
0.0000
11
7.1039
21
7.9583
31
0.0000
0
TEXT
8
TABLES
10
0.8333
20
7.8403
30
0.0000
40
0.0700
1
W10
0
TEXT
8
TABLES
10
1.1983
20
7.8403
30
0.0000
40
0.0700
1
P1
0
TEXT
8
TABLES
10
1.6928
20
7.8403
30
0.0000
40
0.0700
1
10
72
1
11
1.6928
21
7.8403
31
0.0000
0
TEXT
8
TABLES
10
1.8734
20
7.8403
30
0.0000
40
0.0700
1
P1
0
TEXT
8
TABLES
10
2.2655
20
7.8403
30
0.0000
40
0.0700
1
11
72
1
11
2.2655
21
7.8403
31
0.0000
0
TEXT
8
TABLES
10
2.4460
20
7.8403
30
0.0000
40
0.0700
1
ADDR STRAP
0
TEXT
8
TABLES
10
3.4947
20
7.8403
30
0.0000
40
0.0700
1
22
72
1
11
3.4947
21
7.8403
31
0.0000
0
TEXT
8
TABLES
10
3.7108
20
7.8403
30
0.0000
40
0.0700
1
WHT
0
TEXT
8
TABLES
10
4.1730
20
7.8403
30
0.0000
40
0.0700
1
M22759/16-22-9
0
TEXT
8
TABLES
10
5.9730
20
7.8403
30
0.0000
40
0.0700
1
AR
72
1
11
5.9730
21
7.8403
31
0.0000
0
TEXT
8
TABLES
10
6.3646
20
7.8403
30
0.0000
40
0.0700
1
JUMPER IN P1
0
LINE
8
TABLES
10
0.7917
20
7.7917
30
0.0000
11
7.1039
21
7.7917
31
0.0000
0
TEXT
8
TABLES
10
0.8333
20
7.6736
30
0.0000
40
0.0700
1
W11
0
TEXT
8
TABLES
10
1.1983
20
7.6736
30
0.0000
40
0.0700
1
P1
0
TEXT
8
TABLES
10
1.6928
20
7.6736
30
0.0000
40
0.0700
1
12
72
1
11
1.6928
21
7.6736
31
0.0000
0
TEXT
8
TABLES
10
1.8734
20
7.6736
30
0.0000
40
0.0700
1
P2
0
TEXT
8
TABLES
10
2.2655
20
7.6736
30
0.0000
40
0.0700
1
12
72
1
11
2.2655
21
7.6736
31
0.0000
0
TEXT
8
TABLES
10
2.4460
20
7.6736
30
0.0000
40
0.0700
1
CHASSIS GND
0
TEXT
8
TABLES
10
3.4947
20
7.6736
30
0.0000
40
0.0700
1
20
72
1
11
3.4947
21
7.6736
31
0.0000
0
TEXT
8
TABLES
10
3.7108
20
7.6736
30
0.0000
40
0.0700
1
GRN
0
TEXT
8
TABLES
10
4.1730
20
7.6736
30
0.0000
40
0.0700
1
M22759/16-20-5
0
TEXT
8
TABLES
10
5.9730
20
7.6736
30
0.0000
40
0.0700
1
48
72
1
11
5.9730
21
7.6736
31
0.0000
0
LINE
8
TABLES
10
0.7917
20
7.6250
30
0.0000
11
7.1039
21
7.6250
31
0.0000
0
TEXT
8
TABLES
10
0.8333
20
7.5069
30
0.0000
40
0.0700
1
W12
0
TEXT
8
TABLES
10
1.1983
20
7.5069
30
0.0000
40
0.0700
1
SP1
0
TEXT
8
TABLES
10
1.8734
20
7.5069
30
0.0000
40
0.0700
1
P2
0
TEXT
8
TABLES
10
2.2655
20
7.5069
30
0.0000
40
0.0700
1
9
72
1
11
2.2655
21
7.5069
31
0.0000
0
TEXT
8
TABLES
10
2.4460
20
7.5069
30
0.0000
40
0.0700
1
SIG GND A
0
TEXT
8
TABLES
10
3.4947
20
7.5069
30
0.0000
40
0.0700
1
22
72
1
11
3.4947
21
7.5069
31
0.0000
0
TEXT
8
TABLES
10
3.7108
20
7.5069
30
0.0000
40
0.0700
1
BLK
0
TEXT
8
TABLES
10
4.1730
20
7.5069
30
0.0000
40
0.0700
1
M22759/16-22-0
0
TEXT
8
TABLES
10
5.9730
20
7.5069
30
0.0000
40
0.0700
1
6
72
1
11
5.9730
21
7.5069
31
0.0000
0
LINE
8
TABLES
10
0.7917
20
7.4583
30
0.0000
11
7.1039
21
7.4583
31
0.0000
0
TEXT
8
TABLES
10
0.8333
20
7.3403
30
0.0000
40
0.0700
1
W13
0
TEXT
8
TABLES
10
1.1983
20
7.3403
30
0.0000
40
0.0700
1
SP1
0
TEXT
8
TABLES
10
1.8734
20
7.3403
30
0.0000
40
0.0700
1
P2
0
TEXT
8
TABLES
10
2.2655
20
7.3403
30
0.0000
40
0.0700
1
10
72
1
11
2.2655
21
7.3403
31
0.0000
0
TEXT
8
TABLES
10
2.4460
20
7.3403
30
0.0000
40
0.0700
1
SIG GND B
0
TEXT
8
TABLES
10
3.4947
20
7.3403
30
0.0000
40
0.0700
1
22
72
1
11
3.4947
21
7.3403
31
0.0000
0
TEXT
8
TABLES
10
3.7108
20
7.3403
30
0.0000
40
0.0700
1
BLK
0
TEXT
8
TABLES
10
4.1730
20
7.3403
30
0.0000
40
0.0700
1
M22759/16-22-0
0
TEXT
8
TABLES
10
5.9730
20
7.3403
30
0.0000
40
0.0700
1
6
72
1
11
5.9730
21
7.3403
31
0.0000
0
LINE
8
TABLES
10
0.7917
20
7.2917
30
0.0000
11
7.1039
21
7.2917
31
0.0000
0
POLYLINE
8
TABLES
66
1
10
0.0000
20
0.0000
30
0.0000
70
1
0
VERTEX
8
TABLES
10
0.7917
20
9.6528
30
0.0000
0
VERTEX
8
TABLES
10
7.1039
20
9.6528
30
0.0000
0
VERTEX
8
TABLES
10
7.1039
20
7.2917
30
0.0000
0
VERTEX
8
TABLES
10
0.7917
20
7.2917
30
0.0000
0
SEQEND
8
TABLES
0
LINE
8
TABLES
10
1.1566
20
9.6528
30
0.0000
11
1.1566
21
7.2917
31
0.0000
0
LINE
8
TABLES
10
1.5540
20
9.6528
30
0.0000
11
1.5540
21
7.2917
31
0.0000
0
LINE
8
TABLES
10
1.8317
20
9.6528
30
0.0000
11
1.8317
21
7.2917
31
0.0000
0
LINE
8
TABLES
10
2.1266
20
9.6528
30
0.0000
11
2.1266
21
7.2917
31
0.0000
0
LINE
8
TABLES
10
2.4044
20
9.6528
30
0.0000
11
2.4044
21
7.2917
31
0.0000
0
LINE
8
TABLES
10
3.3204
20
9.6528
30
0.0000
11
3.3204
21
7.2917
31
0.0000
0
LINE
8
TABLES
10
3.6691
20
9.6528
30
0.0000
11
3.6691
21
7.2917
31
0.0000
0
LINE
8
TABLES
10
4.1313
20
9.6528
30
0.0000
11
4.1313
21
7.2917
31
0.0000
0
LINE
8
TABLES
10
5.1555
20
9.6528
30
0.0000
11
5.1555
21
7.2917
31
0.0000
0
LINE
8
TABLES
10
5.6231
20
9.6528
30
0.0000
11
5.6231
21
7.2917
31
0.0000
0
LINE
8
TABLES
10
6.3229
20
9.6528
30
0.0000
11
6.3229
21
7.2917
31
0.0000
0
TEXT
8
TABLES
10
0.7917
20
6.8611
30
0.0000
40
0.0900
1
WIRE GROUPS AND SHIELDS
0
POLYLINE
8
TABLES
66
1
10
0.0000
20
0.0000
30
0.0000
70
1
0
VERTEX
8
TABLES
10
0.7917
20
6.7917
30
0.0000
0
VERTEX
8
TABLES
10
9.5979
20
6.7917
30
0.0000
0
VERTEX
8
TABLES
10
9.5979
20
6.5972
30
0.0000
0
VERTEX
8
TABLES
10
0.7917
20
6.5972
30
0.0000
0
SEQEND
8
TABLES
0
TEXT
8
TABLES
10
1.0255
20
6.6528
30
0.0000
40
0.0700
1
GROUP
72
1
11
1.0255
21
6.6528
31
0.0000
0
TEXT
8
TABLES
10
1.9172
20
6.6528
30
0.0000
40
0.0700
1
TYPE
72
1
11
1.9172
21
6.6528
31
0.0000
0
TEXT
8
TABLES
10
2.8035
20
6.6528
30
0.0000
40
0.0700
1
WIRES
72
1
11
2.8035
21
6.6528
31
0.0000
0
TEXT
8
TABLES
10
3.5117
20
6.6528
30
0.0000
40
0.0700
1
CABLE P/N
72
1
11
3.5117
21
6.6528
31
0.0000
0
TEXT
8
TABLES
10
4.3197
20
6.6528
30
0.0000
40
0.0700
1
SHIELD P/N
72
1
11
4.3197
21
6.6528
31
0.0000
0
TEXT
8
TABLES
10
5.1926
20
6.6528
30
0.0000
40
0.0700
1
SHIELD TERM
72
1
11
5.1926
21
6.6528
31
0.0000
0
TEXT
8
TABLES
10
6.2761
20
6.6528
30
0.0000
40
0.0700
1
SHIELD (FROM END)
72
1
11
6.2761
21
6.6528
31
0.0000
0
TEXT
8
TABLES
10
7.2784
20
6.6528
30
0.0000
40
0.0700
1
SHIELD (TO END)
72
1
11
7.2784
21
6.6528
31
0.0000
0
TEXT
8
TABLES
10
8.6699
20
6.6528
30
0.0000
40
0.0700
1
NOTES
72
1
11
8.6699
21
6.6528
31
0.0000
0
TEXT
8
TABLES
10
0.8333
20
6.4792
30
0.0000
40
0.0700
1
TSP1
0
TEXT
8
TABLES
10
1.3010
20
6.4792
30
0.0000
40
0.0700
1
SHIELDED TWISTED PAIR
0
TEXT
8
TABLES
10
2.6168
20
6.4792
30
0.0000
40
0.0700
1
W3, W4
0
TEXT
8
TABLES
10
3.0736
20
6.4792
30
0.0000
40
0.0700
1
M27500-22TG2T14
0
TEXT
8
TABLES
10
4.6898
20
6.4792
30
0.0000
40
0.0700
1
M83519/2-3 (ITEM 15)
0
TEXT
8
TABLES
10
5.7788
20
6.4792
30
0.0000
40
0.0700
1
P1: BACKSHELL
0
TEXT
8
TABLES
10
6.8567
20
6.4792
30
0.0000
40
0.0700
1
P2: PIN 11
0
TEXT
8
TABLES
10
7.7834
20
6.4792
30
0.0000
40
0.0700
1
RS422 TX
0
LINE
8
TABLES
10
0.7917
20
6.4306
30
0.0000
11
9.5979
21
6.4306
31
0.0000
0
TEXT
8
TABLES
10
0.8333
20
6.3125
30
0.0000
40
0.0700
1
TP2
0
TEXT
8
TABLES
10
1.3010
20
6.3125
30
0.0000
40
0.0700
1
TWISTED PAIR
0
TEXT
8
TABLES
10
2.6168
20
6.3125
30
0.0000
40
0.0700
1
W5, W6
0
TEXT
8
TABLES
10
7.7834
20
6.3125
30
0.0000
40
0.0700
1
RS422 RX; 10 TWISTS PER FOOT MIN
0
LINE
8
TABLES
10
0.7917
20
6.2639
30
0.0000
11
9.5979
21
6.2639
31
0.0000
0
POLYLINE
8
TABLES
66
1
10
0.0000
20
0.0000
30
0.0000
70
1
0
VERTEX
8
TABLES
10
0.7917
20
6.7917
30
0.0000
0
VERTEX
8
TABLES
10
9.5979
20
6.7917
30
0.0000
0
VERTEX
8
TABLES
10
9.5979
20
6.2639
30
0.0000
0
VERTEX
8
TABLES
10
0.7917
20
6.2639
30
0.0000
0
SEQEND
8
TABLES
0
LINE
8
TABLES
10
1.2593
20
6.7917
30
0.0000
11
1.2593
21
6.2639
31
0.0000
0
LINE
8
TABLES
10
2.5751
20
6.7917
30
0.0000
11
2.5751
21
6.2639
31
0.0000
0
LINE
8
TABLES
10
3.0319
20
6.7917
30
0.0000
11
3.0319
21
6.2639
31
0.0000
0
LINE
8
TABLES
10
3.9914
20
6.7917
30
0.0000
11
3.9914
21
6.2639
31
0.0000
0
LINE
8
TABLES
10
4.6481
20
6.7917
30
0.0000
11
4.6481
21
6.2639
31
0.0000
0
LINE
8
TABLES
10
5.7372
20
6.7917
30
0.0000
11
5.7372
21
6.2639
31
0.0000
0
LINE
8
TABLES
10
6.8151
20
6.7917
30
0.0000
11
6.8151
21
6.2639
31
0.0000
0
LINE
8
TABLES
10
7.7418
20
6.7917
30
0.0000
11
7.7418
21
6.2639
31
0.0000
0
TEXT
8
TABLES
10
0.7917
20
5.8333
30
0.0000
40
0.0900
1
SPLICES
0
POLYLINE
8
TABLES
66
1
10
0.0000
20
0.0000
30
0.0000
70
1
0
VERTEX
8
TABLES
10
0.7917
20
5.7639
30
0.0000
0
VERTEX
8
TABLES
10
5.3481
20
5.7639
30
0.0000
0
VERTEX
8
TABLES
10
5.3481
20
5.5694
30
0.0000
0
VERTEX
8
TABLES
10
0.7917
20
5.5694
30
0.0000
0
SEQEND
8
TABLES
0
TEXT
8
TABLES
10
1.0228
20
5.6250
30
0.0000
40
0.0700
1
SPLICE
72
1
11
1.0228
21
5.6250
31
0.0000
0
TEXT
8
TABLES
10
1.4256
20
5.6250
30
0.0000
40
0.0700
1
ITEM
72
1
11
1.4256
21
5.6250
31
0.0000
0
TEXT
8
TABLES
10
1.9230
20
5.6250
30
0.0000
40
0.0700
1
SPLICE P/N
72
1
11
1.9230
21
5.6250
31
0.0000
0
TEXT
8
TABLES
10
2.7662
20
5.6250
30
0.0000
40
0.0700
1
LOCATION
72
1
11
2.7662
21
5.6250
31
0.0000
0
TEXT
8
TABLES
10
3.6660
20
5.6250
30
0.0000
40
0.0700
1
WIRES
72
1
11
3.6660
21
5.6250
31
0.0000
0
TEXT
8
TABLES
10
4.6983
20
5.6250
30
0.0000
40
0.0700
1
NOTES
72
1
11
4.6983
21
5.6250
31
0.0000
0
TEXT
8
TABLES
10
0.8333
20
5.4514
30
0.0000
40
0.0700
1
SP1
0
TEXT
8
TABLES
10
1.4256
20
5.4514
30
0.0000
40
0.0700
1
16
72
1
11
1.4256
21
5.4514
31
0.0000
0
TEXT
8
TABLES
10
1.6390
20
5.4514
30
0.0000
40
0.0700
1
M81824/1-1
0
TEXT
8
TABLES
10
2.2904
20
5.4514
30
0.0000
40
0.0700
1
6 IN FROM P2 FACE
0
TEXT
8
TABLES
10
3.3253
20
5.4514
30
0.0000
40
0.0700
1
W9, W12, W13
0
TEXT
8
TABLES
10
4.0901
20
5.4514
30
0.0000
40
0.0700
1
SIGNAL GROUND SPLICE
0
LINE
8
TABLES
10
0.7917
20
5.4028
30
0.0000
11
5.3481
21
5.4028
31
0.0000
0
POLYLINE
8
TABLES
66
1
10
0.0000
20
0.0000
30
0.0000
70
1
0
VERTEX
8
TABLES
10
0.7917
20
5.7639
30
0.0000
0
VERTEX
8
TABLES
10
5.3481
20
5.7639
30
0.0000
0
VERTEX
8
TABLES
10
5.3481
20
5.4028
30
0.0000
0
VERTEX
8
TABLES
10
0.7917
20
5.4028
30
0.0000
0
SEQEND
8
TABLES
0
LINE
8
TABLES
10
1.2539
20
5.7639
30
0.0000
11
1.2539
21
5.4028
31
0.0000
0
LINE
8
TABLES
10
1.5973
20
5.7639
30
0.0000
11
1.5973
21
5.4028
31
0.0000
0
LINE
8
TABLES
10
2.2487
20
5.7639
30
0.0000
11
2.2487
21
5.4028
31
0.0000
0
LINE
8
TABLES
10
3.2836
20
5.7639
30
0.0000
11
3.2836
21
5.4028
31
0.0000
0
LINE
8
TABLES
10
4.0484
20
5.7639
30
0.0000
11
4.0484
21
5.4028
31
0.0000
0
TEXT
8
TABLES
10
0.7917
20
4.9722
30
0.0000
40
0.0900
1
LABEL SCHEDULE
0
POLYLINE
8
TABLES
66
1
10
0.0000
20
0.0000
30
0.0000
70
1
0
VERTEX
8
TABLES
10
0.7917
20
4.9028
30
0.0000
0
VERTEX
8
TABLES
10
4.5077
20
4.9028
30
0.0000
0
VERTEX
8
TABLES
10
4.5077
20
4.7083
30
0.0000
0
VERTEX
8
TABLES
10
0.7917
20
4.7083
30
0.0000
0
SEQEND
8
TABLES
0
TEXT
8
TABLES
10
0.9634
20
4.7639
30
0.0000
40
0.0700
1
ITEM
72
1
11
0.9634
21
4.7639
31
0.0000
0
TEXT
8
TABLES
10
1.6201
20
4.7639
30
0.0000
40
0.0700
1
LABEL P/N
72
1
11
1.6201
21
4.7639
31
0.0000
0
TEXT
8
TABLES
10
2.3633
20
4.7639
30
0.0000
40
0.0700
1
LEGEND
72
1
11
2.3633
21
4.7639
31
0.0000
0
TEXT
8
TABLES
10
3.4091
20
4.7639
30
0.0000
40
0.0700
1
LOCATION
72
1
11
3.4091
21
4.7639
31
0.0000
0
TEXT
8
TABLES
10
4.3522
20
4.7639
30
0.0000
40
0.0700
1
QTY
72
1
11
4.3522
21
4.7639
31
0.0000
0
TEXT
8
TABLES
10
0.9634
20
4.5903
30
0.0000
40
0.0700
1
7
72
1
11
0.9634
21
4.5903
31
0.0000
0
TEXT
8
TABLES
10
1.1767
20
4.5903
30
0.0000
40
0.0700
1
TMS-SCE-1/2-2.0-9
0
TEXT
8
TABLES
10
2.1468
20
4.5903
30
0.0000
40
0.0700
1
W101-P1
0
TEXT
8
TABLES
10
2.6631
20
4.5903
30
0.0000
40
0.0700
1
CABLE, ADJACENT TO P1
0
TEXT
8
TABLES
10
4.3522
20
4.5903
30
0.0000
40
0.0700
1
1
72
1
11
4.3522
21
4.5903
31
0.0000
0
LINE
8
TABLES
10
0.7917
20
4.5417
30
0.0000
11
4.5077
21
4.5417
31
0.0000
0
TEXT
8
TABLES
10
0.9634
20
4.4236
30
0.0000
40
0.0700
1
7
72
1
11
0.9634
21
4.4236
31
0.0000
0
TEXT
8
TABLES
10
1.1767
20
4.4236
30
0.0000
40
0.0700
1
TMS-SCE-1/2-2.0-9
0
TEXT
8
TABLES
10
2.1468
20
4.4236
30
0.0000
40
0.0700
1
W101-P2
0
TEXT
8
TABLES
10
2.6631
20
4.4236
30
0.0000
40
0.0700
1
CABLE, ADJACENT TO P2
0
TEXT
8
TABLES
10
4.3522
20
4.4236
30
0.0000
40
0.0700
1
1
72
1
11
4.3522
21
4.4236
31
0.0000
0
LINE
8
TABLES
10
0.7917
20
4.3750
30
0.0000
11
4.5077
21
4.3750
31
0.0000
0
TEXT
8
TABLES
10
0.9634
20
4.2569
30
0.0000
40
0.0700
1
17
72
1
11
0.9634
21
4.2569
31
0.0000
0
TEXT
8
TABLES
10
1.1767
20
4.2569
30
0.0000
40
0.0700
1
TMS-SCE-1/8-2.0-9
0
TEXT
8
TABLES
10
2.1468
20
4.2569
30
0.0000
40
0.0700
1
W1
0
TEXT
8
TABLES
10
2.6631
20
4.2569
30
0.0000
40
0.0700
1
WIRE W1, AT P1-1 AND P2-1
0
TEXT
8
TABLES
10
4.3522
20
4.2569
30
0.0000
40
0.0700
1
2
72
1
11
4.3522
21
4.2569
31
0.0000
0
LINE
8
TABLES
10
0.7917
20
4.2083
30
0.0000
11
4.5077
21
4.2083
31
0.0000
0
TEXT
8
TABLES
10
0.9634
20
4.0903
30
0.0000
40
0.0700
1
17
72
1
11
0.9634
21
4.0903
31
0.0000
0
TEXT
8
TABLES
10
1.1767
20
4.0903
30
0.0000
40
0.0700
1
TMS-SCE-1/8-2.0-9
0
TEXT
8
TABLES
10
2.1468
20
4.0903
30
0.0000
40
0.0700
1
W2
0
TEXT
8
TABLES
10
2.6631
20
4.0903
30
0.0000
40
0.0700
1
WIRE W2, AT P1-2 AND P2-2
0
TEXT
8
TABLES
10
4.3522
20
4.0903
30
0.0000
40
0.0700
1
2
72
1
11
4.3522
21
4.0903
31
0.0000
0
LINE
8
TABLES
10
0.7917
20
4.0417
30
0.0000
11
4.5077
21
4.0417
31
0.0000
0
TEXT
8
TABLES
10
0.9634
20
3.9236
30
0.0000
40
0.0700
1
17
72
1
11
0.9634
21
3.9236
31
0.0000
0
TEXT
8
TABLES
10
1.1767
20
3.9236
30
0.0000
40
0.0700
1
TMS-SCE-1/8-2.0-9
0
TEXT
8
TABLES
10
2.1468
20
3.9236
30
0.0000
40
0.0700
1
W3
0
TEXT
8
TABLES
10
2.6631
20
3.9236
30
0.0000
40
0.0700
1
WIRE W3, AT P1-3 AND P2-3
0
TEXT
8
TABLES
10
4.3522
20
3.9236
30
0.0000
40
0.0700
1
2
72
1
11
4.3522
21
3.9236
31
0.0000
0
LINE
8
TABLES
10
0.7917
20
3.8750
30
0.0000
11
4.5077
21
3.8750
31
0.0000
0
TEXT
8
TABLES
10
0.9634
20
3.7569
30
0.0000
40
0.0700
1
17
72
1
11
0.9634
21
3.7569
31
0.0000
0
TEXT
8
TABLES
10
1.1767
20
3.7569
30
0.0000
40
0.0700
1
TMS-SCE-1/8-2.0-9
0
TEXT
8
TABLES
10
2.1468
20
3.7569
30
0.0000
40
0.0700
1
W4
0
TEXT
8
TABLES
10
2.6631
20
3.7569
30
0.0000
40
0.0700
1
WIRE W4, AT P1-4 AND P2-4
0
TEXT
8
TABLES
10
4.3522
20
3.7569
30
0.0000
40
0.0700
1
2
72
1
11
4.3522
21
3.7569
31
0.0000
0
LINE
8
TABLES
10
0.7917
20
3.7083
30
0.0000
11
4.5077
21
3.7083
31
0.0000
0
TEXT
8
TABLES
10
0.9634
20
3.5903
30
0.0000
40
0.0700
1
17
72
1
11
0.9634
21
3.5903
31
0.0000
0
TEXT
8
TABLES
10
1.1767
20
3.5903
30
0.0000
40
0.0700
1
TMS-SCE-1/8-2.0-9
0
TEXT
8
TABLES
10
2.1468
20
3.5903
30
0.0000
40
0.0700
1
W5
0
TEXT
8
TABLES
10
2.6631
20
3.5903
30
0.0000
40
0.0700
1
WIRE W5, AT P1-5 AND P2-5
0
TEXT
8
TABLES
10
4.3522
20
3.5903
30
0.0000
40
0.0700
1
2
72
1
11
4.3522
21
3.5903
31
0.0000
0
LINE
8
TABLES
10
0.7917
20
3.5417
30
0.0000
11
4.5077
21
3.5417
31
0.0000
0
TEXT
8
TABLES
10
0.9634
20
3.4236
30
0.0000
40
0.0700
1
17
72
1
11
0.9634
21
3.4236
31
0.0000
0
TEXT
8
TABLES
10
1.1767
20
3.4236
30
0.0000
40
0.0700
1
TMS-SCE-1/8-2.0-9
0
TEXT
8
TABLES
10
2.1468
20
3.4236
30
0.0000
40
0.0700
1
W6
0
TEXT
8
TABLES
10
2.6631
20
3.4236
30
0.0000
40
0.0700
1
WIRE W6, AT P1-6 AND P2-6
0
TEXT
8
TABLES
10
4.3522
20
3.4236
30
0.0000
40
0.0700
1
2
72
1
11
4.3522
21
3.4236
31
0.0000
0
LINE
8
TABLES
10
0.7917
20
3.3750
30
0.0000
11
4.5077
21
3.3750
31
0.0000
0
TEXT
8
TABLES
10
0.9634
20
3.2569
30
0.0000
40
0.0700
1
17
72
1
11
0.9634
21
3.2569
31
0.0000
0
TEXT
8
TABLES
10
1.1767
20
3.2569
30
0.0000
40
0.0700
1
TMS-SCE-1/8-2.0-9
0
TEXT
8
TABLES
10
2.1468
20
3.2569
30
0.0000
40
0.0700
1
W7
0
TEXT
8
TABLES
10
2.6631
20
3.2569
30
0.0000
40
0.0700
1
WIRE W7, AT P1-7 AND P2-8
0
TEXT
8
TABLES
10
4.3522
20
3.2569
30
0.0000
40
0.0700
1
2
72
1
11
4.3522
21
3.2569
31
0.0000
0
LINE
8
TABLES
10
0.7917
20
3.2083
30
0.0000
11
4.5077
21
3.2083
31
0.0000
0
TEXT
8
TABLES
10
0.9634
20
3.0903
30
0.0000
40
0.0700
1
17
72
1
11
0.9634
21
3.0903
31
0.0000
0
TEXT
8
TABLES
10
1.1767
20
3.0903
30
0.0000
40
0.0700
1
TMS-SCE-1/8-2.0-9
0
TEXT
8
TABLES
10
2.1468
20
3.0903
30
0.0000
40
0.0700
1
W8
0
TEXT
8
TABLES
10
2.6631
20
3.0903
30
0.0000
40
0.0700
1
WIRE W8, AT P1-8 AND P2-7
0
TEXT
8
TABLES
10
4.3522
20
3.0903
30
0.0000
40
0.0700
1
2
72
1
11
4.3522
21
3.0903
31
0.0000
0
LINE
8
TABLES
10
0.7917
20
3.0417
30
0.0000
11
4.5077
21
3.0417
31
0.0000
0
TEXT
8
TABLES
10
0.9634
20
2.9236
30
0.0000
40
0.0700
1
17
72
1
11
0.9634
21
2.9236
31
0.0000
0
TEXT
8
TABLES
10
1.1767
20
2.9236
30
0.0000
40
0.0700
1
TMS-SCE-1/8-2.0-9
0
TEXT
8
TABLES
10
2.1468
20
2.9236
30
0.0000
40
0.0700
1
W9
0
TEXT
8
TABLES
10
2.6631
20
2.9236
30
0.0000
40
0.0700
1
WIRE W9, AT P1-9 AND SP1
0
TEXT
8
TABLES
10
4.3522
20
2.9236
30
0.0000
40
0.0700
1
2
72
1
11
4.3522
21
2.9236
31
0.0000
0
LINE
8
TABLES
10
0.7917
20
2.8750
30
0.0000
11
4.5077
21
2.8750
31
0.0000
0
TEXT
8
TABLES
10
0.9634
20
2.7569
30
0.0000
40
0.0700
1
17
72
1
11
0.9634
21
2.7569
31
0.0000
0
TEXT
8
TABLES
10
1.1767
20
2.7569
30
0.0000
40
0.0700
1
TMS-SCE-1/8-2.0-9
0
TEXT
8
TABLES
10
2.1468
20
2.7569
30
0.0000
40
0.0700
1
W10
0
TEXT
8
TABLES
10
2.6631
20
2.7569
30
0.0000
40
0.0700
1
WIRE W10, AT P1-10 AND P1-11
0
TEXT
8
TABLES
10
4.3522
20
2.7569
30
0.0000
40
0.0700
1
2
72
1
11
4.3522
21
2.7569
31
0.0000
0
LINE
8
TABLES
10
0.7917
20
2.7083
30
0.0000
11
4.5077
21
2.7083
31
0.0000
0
TEXT
8
TABLES
10
0.9634
20
2.5903
30
0.0000
40
0.0700
1
17
72
1
11
0.9634
21
2.5903
31
0.0000
0
TEXT
8
TABLES
10
1.1767
20
2.5903
30
0.0000
40
0.0700
1
TMS-SCE-1/8-2.0-9
0
TEXT
8
TABLES
10
2.1468
20
2.5903
30
0.0000
40
0.0700
1
W11
0
TEXT
8
TABLES
10
2.6631
20
2.5903
30
0.0000
40
0.0700
1
WIRE W11, AT P1-12 AND P2-12
0
TEXT
8
TABLES
10
4.3522
20
2.5903
30
0.0000
40
0.0700
1
2
72
1
11
4.3522
21
2.5903
31
0.0000
0
LINE
8
TABLES
10
0.7917
20
2.5417
30
0.0000
11
4.5077
21
2.5417
31
0.0000
0
POLYLINE
8
TABLES
66
1
10
0.0000
20
0.0000
30
0.0000
70
1
0
VERTEX
8
TABLES
10
0.7917
20
4.9028
30
0.0000
0
VERTEX
8
TABLES
10
4.5077
20
4.9028
30
0.0000
0
VERTEX
8
TABLES
10
4.5077
20
2.5417
30
0.0000
0
VERTEX
8
TABLES
10
0.7917
20
2.5417
30
0.0000
0
SEQEND
8
TABLES
0
LINE
8
TABLES
10
1.1350
20
4.9028
30
0.0000
11
1.1350
21
2.5417
31
0.0000
0
LINE
8
TABLES
10
2.1051
20
4.9028
30
0.0000
11
2.1051
21
2.5417
31
0.0000
0
LINE
8
TABLES
10
2.6214
20
4.9028
30
0.0000
11
2.6214
21
2.5417
31
0.0000
0
LINE
8
TABLES
10
4.1967
20
4.9028
30
0.0000
11
4.1967
21
2.5417
31
0.0000
0
TEXT
8
TABLES
10
9.9313
20
9.7222
30
0.0000
40
0.0900
1
LABEL SCHEDULE (CONTINUED)
0
POLYLINE
8
TABLES
66
1
10
0.0000
20
0.0000
30
0.0000
70
1
0
VERTEX
8
TABLES
10
9.9313
20
9.6528
30
0.0000
0
VERTEX
8
TABLES
10
13.6473
20
9.6528
30
0.0000
0
VERTEX
8
TABLES
10
13.6473
20
9.4583
30
0.0000
0
VERTEX
8
TABLES
10
9.9313
20
9.4583
30
0.0000
0
SEQEND
8
TABLES
0
TEXT
8
TABLES
10
10.1030
20
9.5139
30
0.0000
40
0.0700
1
ITEM
72
1
11
10.1030
21
9.5139
31
0.0000
0
TEXT
8
TABLES
10
10.7597
20
9.5139
30
0.0000
40
0.0700
1
LABEL P/N
72
1
11
10.7597
21
9.5139
31
0.0000
0
TEXT
8
TABLES
10
11.5029
20
9.5139
30
0.0000
40
0.0700
1
LEGEND
72
1
11
11.5029
21
9.5139
31
0.0000
0
TEXT
8
TABLES
10
12.5487
20
9.5139
30
0.0000
40
0.0700
1
LOCATION
72
1
11
12.5487
21
9.5139
31
0.0000
0
TEXT
8
TABLES
10
13.4918
20
9.5139
30
0.0000
40
0.0700
1
QTY
72
1
11
13.4918
21
9.5139
31
0.0000
0
TEXT
8
TABLES
10
10.1030
20
9.3403
30
0.0000
40
0.0700
1
17
72
1
11
10.1030
21
9.3403
31
0.0000
0
TEXT
8
TABLES
10
10.3163
20
9.3403
30
0.0000
40
0.0700
1
TMS-SCE-1/8-2.0-9
0
TEXT
8
TABLES
10
11.2864
20
9.3403
30
0.0000
40
0.0700
1
W12
0
TEXT
8
TABLES
10
11.8027
20
9.3403
30
0.0000
40
0.0700
1
WIRE W12, AT SP1 AND P2-9
0
TEXT
8
TABLES
10
13.4918
20
9.3403
30
0.0000
40
0.0700
1
2
72
1
11
13.4918
21
9.3403
31
0.0000
0
LINE
8
TABLES
10
9.9313
20
9.2917
30
0.0000
11
13.6473
21
9.2917
31
0.0000
0
TEXT
8
TABLES
10
10.1030
20
9.1736
30
0.0000
40
0.0700
1
17
72
1
11
10.1030
21
9.1736
31
0.0000
0
TEXT
8
TABLES
10
10.3163
20
9.1736
30
0.0000
40
0.0700
1
TMS-SCE-1/8-2.0-9
0
TEXT
8
TABLES
10
11.2864
20
9.1736
30
0.0000
40
0.0700
1
W13
0
TEXT
8
TABLES
10
11.8027
20
9.1736
30
0.0000
40
0.0700
1
WIRE W13, AT SP1 AND P2-10
0
TEXT
8
TABLES
10
13.4918
20
9.1736
30
0.0000
40
0.0700
1
2
72
1
11
13.4918
21
9.1736
31
0.0000
0
LINE
8
TABLES
10
9.9313
20
9.1250
30
0.0000
11
13.6473
21
9.1250
31
0.0000
0
POLYLINE
8
TABLES
66
1
10
0.0000
20
0.0000
30
0.0000
70
1
0
VERTEX
8
TABLES
10
9.9313
20
9.6528
30
0.0000
0
VERTEX
8
TABLES
10
13.6473
20
9.6528
30
0.0000
0
VERTEX
8
TABLES
10
13.6473
20
9.1250
30
0.0000
0
VERTEX
8
TABLES
10
9.9313
20
9.1250
30
0.0000
0
SEQEND
8
TABLES
0
LINE
8
TABLES
10
10.2746
20
9.6528
30
0.0000
11
10.2746
21
9.1250
31
0.0000
0
LINE
8
TABLES
10
11.2447
20
9.6528
30
0.0000
11
11.2447
21
9.1250
31
0.0000
0
LINE
8
TABLES
10
11.7610
20
9.6528
30
0.0000
11
11.7610
21
9.1250
31
0.0000
0
LINE
8
TABLES
10
13.3363
20
9.6528
30
0.0000
11
13.3363
21
9.1250
31
0.0000
0
POLYLINE
8
TITLE_BLOCK
66
1
10
0.0000
20
0.0000
30
0.0000
70
1
0
VERTEX
8
TITLE_BLOCK
10
10.3750
20
2.3472
30
0.0000
0
VERTEX
8
TITLE_BLOCK
10
16.3750
20
2.3472
30
0.0000
0
VERTEX
8
TITLE_BLOCK
10
16.3750
20
0.6250
30
0.0000
0
VERTEX
8
TITLE_BLOCK
10
10.3750
20
0.6250
30
0.0000
0
SEQEND
8
TITLE_BLOCK
0
POLYLINE
8
TITLE_BLOCK
66
1
10
0.0000
20
0.0000
30
0.0000
70
1
0
VERTEX
8
TITLE_BLOCK
10
10.3750
20
2.3472
30
0.0000
0
VERTEX
8
TITLE_BLOCK
10
16.3750
20
2.3472
30
0.0000
0
VERTEX
8
TITLE_BLOCK
10
16.3750
20
2.0417
30
0.0000
0
VERTEX
8
TITLE_BLOCK
10
10.3750
20
2.0417
30
0.0000
0
SEQEND
8
TITLE_BLOCK
0
TEXT
8
TITLE_BLOCK
10
10.4167
20
2.2500
30
0.0000
40
0.0550
1
COMPANY
0
TEXT
8
TITLE_BLOCK
10
13.3750
20
2.1389
30
0.0000
40
0.1000
1
ACME AEROSPACE
72
1
11
13.3750
21
2.1389
31
0.0000
0
POLYLINE
8
TITLE_BLOCK
66
1
10
0.0000
20
0.0000
30
0.0000
70
1
0
VERTEX
8
TITLE_BLOCK
10
10.3750
20
2.0417
30
0.0000
0
VERTEX
8
TITLE_BLOCK
10
16.3750
20
2.0417
30
0.0000
0
VERTEX
8
TITLE_BLOCK
10
16.3750
20
1.5694
30
0.0000
0
VERTEX
8
TITLE_BLOCK
10
10.3750
20
1.5694
30
0.0000
0
SEQEND
8
TITLE_BLOCK
0
TEXT
8
TITLE_BLOCK
10
10.4167
20
1.9444
30
0.0000
40
0.0550
1
TITLE
0
TEXT
8
TITLE_BLOCK
10
13.3750
20
1.6667
30
0.0000
40
0.1200
1
CABLE ASSY, FCC TO PDU
72
1
11
13.3750
21
1.6667
31
0.0000
0
POLYLINE
8
TITLE_BLOCK
66
1
10
0.0000
20
0.0000
30
0.0000
70
1
0
VERTEX
8
TITLE_BLOCK
10
10.3750
20
1.5694
30
0.0000
0
VERTEX
8
TITLE_BLOCK
10
11.2083
20
1.5694
30
0.0000
0
VERTEX
8
TITLE_BLOCK
10
11.2083
20
1.2639
30
0.0000
0
VERTEX
8
TITLE_BLOCK
10
10.3750
20
1.2639
30
0.0000
0
SEQEND
8
TITLE_BLOCK
0
TEXT
8
TITLE_BLOCK
10
10.4167
20
1.4722
30
0.0000
40
0.0550
1
SIZE
0
TEXT
8
TITLE_BLOCK
10
10.7917
20
1.3611
30
0.0000
40
0.0900
1
B
72
1
11
10.7917
21
1.3611
31
0.0000
0
POLYLINE
8
TITLE_BLOCK
66
1
10
0.0000
20
0.0000
30
0.0000
70
1
0
VERTEX
8
TITLE_BLOCK
10
11.2083
20
1.5694
30
0.0000
0
VERTEX
8
TITLE_BLOCK
10
15.3750
20
1.5694
30
0.0000
0
VERTEX
8
TITLE_BLOCK
10
15.3750
20
1.2639
30
0.0000
0
VERTEX
8
TITLE_BLOCK
10
11.2083
20
1.2639
30
0.0000
0
SEQEND
8
TITLE_BLOCK
0
TEXT
8
TITLE_BLOCK
10
11.2500
20
1.4722
30
0.0000
40
0.0550
1
DWG NO.
0
TEXT
8
TITLE_BLOCK
10
11.2778
20
1.3472
30
0.0000
40
0.1000
1
W101-001
0
POLYLINE
8
TITLE_BLOCK
66
1
10
0.0000
20
0.0000
30
0.0000
70
1
0
VERTEX
8
TITLE_BLOCK
10
15.3750
20
1.5694
30
0.0000
0
VERTEX
8
TITLE_BLOCK
10
16.3750
20
1.5694
30
0.0000
0
VERTEX
8
TITLE_BLOCK
10
16.3750
20
1.2639
30
0.0000
0
VERTEX
8
TITLE_BLOCK
10
15.3750
20
1.2639
30
0.0000
0
SEQEND
8
TITLE_BLOCK
0
TEXT
8
TITLE_BLOCK
10
15.4167
20
1.4722
30
0.0000
40
0.0550
1
REV
0
TEXT
8
TITLE_BLOCK
10
15.8750
20
1.3611
30
0.0000
40
0.1000
1
-
72
1
11
15.8750
21
1.3611
31
0.0000
0
POLYLINE
8
TITLE_BLOCK
66
1
10
0.0000
20
0.0000
30
0.0000
70
1
0
VERTEX
8
TITLE_BLOCK
10
10.3750
20
1.2639
30
0.0000
0
VERTEX
8
TITLE_BLOCK
10
12.3750
20
1.2639
30
0.0000
0
VERTEX
8
TITLE_BLOCK
10
12.3750
20
0.9583
30
0.0000
0
VERTEX
8
TITLE_BLOCK
10
10.3750
20
0.9583
30
0.0000
0
SEQEND
8
TITLE_BLOCK
0
TEXT
8
TITLE_BLOCK
10
10.4167
20
1.1667
30
0.0000
40
0.0550
1
DRAWN
0
POLYLINE
8
TITLE_BLOCK
66
1
10
0.0000
20
0.0000
30
0.0000
70
1
0
VERTEX
8
TITLE_BLOCK
10
12.3750
20
1.2639
30
0.0000
0
VERTEX
8
TITLE_BLOCK
10
14.3750
20
1.2639
30
0.0000
0
VERTEX
8
TITLE_BLOCK
10
14.3750
20
0.9583
30
0.0000
0
VERTEX
8
TITLE_BLOCK
10
12.3750
20
0.9583
30
0.0000
0
SEQEND
8
TITLE_BLOCK
0
TEXT
8
TITLE_BLOCK
10
12.4167
20
1.1667
30
0.0000
40
0.0550
1
CHECKED
0
POLYLINE
8
TITLE_BLOCK
66
1
10
0.0000
20
0.0000
30
0.0000
70
1
0
VERTEX
8
TITLE_BLOCK
10
14.3750
20
1.2639
30
0.0000
0
VERTEX
8
TITLE_BLOCK
10
16.3750
20
1.2639
30
0.0000
0
VERTEX
8
TITLE_BLOCK
10
16.3750
20
0.9583
30
0.0000
0
VERTEX
8
TITLE_BLOCK
10
14.3750
20
0.9583
30
0.0000
0
SEQEND
8
TITLE_BLOCK
0
TEXT
8
TITLE_BLOCK
10
14.4167
20
1.1667
30
0.0000
40
0.0550
1
DATE
0
POLYLINE
8
TITLE_BLOCK
66
1
10
0.0000
20
0.0000
30
0.0000
70
1
0
VERTEX
8
TITLE_BLOCK
10
10.3750
20
0.9583
30
0.0000
0
VERTEX
8
TITLE_BLOCK
10
12.3750
20
0.9583
30
0.0000
0
VERTEX
8
TITLE_BLOCK
10
12.3750
20
0.6250
30
0.0000
0
VERTEX
8
TITLE_BLOCK
10
10.3750
20
0.6250
30
0.0000
0
SEQEND
8
TITLE_BLOCK
0
TEXT
8
TITLE_BLOCK
10
10.4167
20
0.8611
30
0.0000
40
0.0550
1
SCALE
0
TEXT
8
TITLE_BLOCK
10
10.4444
20
0.7083
30
0.0000
40
0.0900
1
NONE
0
POLYLINE
8
TITLE_BLOCK
66
1
10
0.0000
20
0.0000
30
0.0000
70
1
0
VERTEX
8
TITLE_BLOCK
10
12.3750
20
0.9583
30
0.0000
0
VERTEX
8
TITLE_BLOCK
10
14.3750
20
0.9583
30
0.0000
0
VERTEX
8
TITLE_BLOCK
10
14.3750
20
0.6250
30
0.0000
0
VERTEX
8
TITLE_BLOCK
10
12.3750
20
0.6250
30
0.0000
0
SEQEND
8
TITLE_BLOCK
0
TEXT
8
TITLE_BLOCK
10
12.4167
20
0.8611
30
0.0000
40
0.0550
1
UNITS
0
TEXT
8
TITLE_BLOCK
10
12.4444
20
0.7083
30
0.0000
40
0.0900
1
IN
0
POLYLINE
8
TITLE_BLOCK
66
1
10
0.0000
20
0.0000
30
0.0000
70
1
0
VERTEX
8
TITLE_BLOCK
10
14.3750
20
0.9583
30
0.0000
0
VERTEX
8
TITLE_BLOCK
10
16.3750
20
0.9583
30
0.0000
0
VERTEX
8
TITLE_BLOCK
10
16.3750
20
0.6250
30
0.0000
0
VERTEX
8
TITLE_BLOCK
10
14.3750
20
0.6250
30
0.0000
0
SEQEND
8
TITLE_BLOCK
0
TEXT
8
TITLE_BLOCK
10
14.4167
20
0.8611
30
0.0000
40
0.0550
1
SHEET
0
TEXT
8
TITLE_BLOCK
10
14.4444
20
0.7083
30
0.0000
40
0.0900
1
3 OF 3
0
ENDSEC
0
EOF
