0
SECTION
2
HEADER
9
$ACADVER
1
AC1009
9
$INSUNITS
70
1
9
$EXTMIN
10
0.0000
20
0.0000
30
0.0000
9
$EXTMAX
10
17.0000
20
11.0000
30
0.0000
9
$LIMMIN
10
0.0000
20
0.0000
9
$LIMMAX
10
17.0000
20
11.0000
0
ENDSEC
0
SECTION
2
TABLES
0
TABLE
2
LTYPE
70
2
0
LTYPE
2
CONTINUOUS
70
0
3
Solid line
72
65
73
0
40
0.0000
0
LTYPE
2
DASHED
70
0
3
__ __ __
72
65
73
2
40
0.1500
49
0.1000
49
-0.0500
0
ENDTAB
0
TABLE
2
LAYER
70
12
0
LAYER
2
0
70
0
62
7
6
CONTINUOUS
0
LAYER
2
BORDER
70
0
62
7
6
CONTINUOUS
0
LAYER
2
TITLE_BLOCK
70
0
62
7
6
CONTINUOUS
0
LAYER
2
ASSEMBLY
70
0
62
7
6
CONTINUOUS
0
LAYER
2
CABLE
70
0
62
7
6
CONTINUOUS
0
LAYER
2
DIMENSIONS
70
0
62
3
6
CONTINUOUS
0
LAYER
2
BALLOONS
70
0
62
5
6
CONTINUOUS
0
LAYER
2
WIRING
70
0
62
7
6
CONTINUOUS
0
LAYER
2
SHIELDS
70
0
62
4
6
CONTINUOUS
0
LAYER
2
TABLES
70
0
62
7
6
CONTINUOUS
0
LAYER
2
NOTES
70
0
62
7
6
CONTINUOUS
0
LAYER
2
TEXT
70
0
62
7
6
CONTINUOUS
0
ENDTAB
0
ENDSEC
0
SECTION
2
ENTITIES
0
POLYLINE
8
BORDER
66
1
10
0.0000
20
0.0000
30
0.0000
70
1
0
VERTEX
8
BORDER
10
0.3750
20
10.6250
30
0.0000
0
VERTEX
8
BORDER
10
16.6250
20
10.6250
30
0.0000
0
VERTEX
8
BORDER
10
16.6250
20
0.3750
30
0.0000
0
VERTEX
8
BORDER
10
0.3750
20
0.3750
30
0.0000
0
SEQEND
8
BORDER
0
POLYLINE
8
BORDER
66
1
10
0.0000
20
0.0000
30
0.0000
70
1
0
VERTEX
8
BORDER
10
0.6250
20
10.3750
30
0.0000
0
VERTEX
8
BORDER
10
16.3750
20
10.3750
30
0.0000
0
VERTEX
8
BORDER
10
16.3750
20
0.6250
30
0.0000
0
VERTEX
8
BORDER
10
0.6250
20
0.6250
30
0.0000
0
SEQEND
8
BORDER
0
TEXT
8
BORDER
10
2.5938
20
10.4583
30
0.0000
40
0.0800
1
4
72
1
11
2.5938
21
10.4583
31
0.0000
0
TEXT
8
BORDER
10
2.5938
20
0.4583
30
0.0000
40
0.0800
1
4
72
1
11
2.5938
21
0.4583
31
0.0000
0
TEXT
8
BORDER
10
6.5312
20
10.4583
30
0.0000
40
0.0800
1
3
72
1
11
6.5312
21
10.4583
31
0.0000
0
TEXT
8
BORDER
10
6.5312
20
0.4583
30
0.0000
40
0.0800
1
3
72
1
11
6.5312
21
0.4583
31
0.0000
0
LINE
8
BORDER
10
4.5625
20
10.6250
30
0.0000
11
4.5625
21
10.3750
31
0.0000
0
LINE
8
BORDER
10
4.5625
20
0.6250
30
0.0000
11
4.5625
21
0.3750
31
0.0000
0
TEXT
8
BORDER
10
10.4688
20
10.4583
30
0.0000
40
0.0800
1
2
72
1
11
10.4688
21
10.4583
31
0.0000
0
TEXT
8
BORDER
10
10.4688
20
0.4583
30
0.0000
40
0.0800
1
2
72
1
11
10.4688
21
0.4583
31
0.0000
0
LINE
8
BORDER
10
8.5000
20
10.6250
30
0.0000
11
8.5000
21
10.3750
31
0.0000
0
LINE
8
BORDER
10
8.5000
20
0.6250
30
0.0000
11
8.5000
21
0.3750
31
0.0000
0
TEXT
8
BORDER
10
14.4062
20
10.4583
30
0.0000
40
0.0800
1
1
72
1
11
14.4062
21
10.4583
31
0.0000
0
TEXT
8
BORDER
10
14.4062
20
0.4583
30
0.0000
40
0.0800
1
1
72
1
11
14.4062
21
0.4583
31
0.0000
0
LINE
8
BORDER
10
12.4375
20
10.6250
30
0.0000
11
12.4375
21
10.3750
31
0.0000
0
LINE
8
BORDER
10
12.4375
20
0.6250
30
0.0000
11
12.4375
21
0.3750
31
0.0000
0
TEXT
8
BORDER
10
0.5000
20
7.8958
30
0.0000
40
0.0800
1
B
72
1
11
0.5000
21
7.8958
31
0.0000
0
TEXT
8
BORDER
10
16.5000
20
7.8958
30
0.0000
40
0.0800
1
B
72
1
11
16.5000
21
7.8958
31
0.0000
0
TEXT
8
BORDER
10
0.5000
20
3.0208
30
0.0000
40
0.0800
1
A
72
1
11
0.5000
21
3.0208
31
0.0000
0
TEXT
8
BORDER
10
16.5000
20
3.0208
30
0.0000
40
0.0800
1
A
72
1
11
16.5000
21
3.0208
31
0.0000
0
LINE
8
BORDER
10
0.3750
20
5.5000
30
0.0000
11
0.6250
21
5.5000
31
0.0000
0
LINE
8
BORDER
10
16.3750
20
5.5000
30
0.0000
11
16.6250
21
5.5000
31
0.0000
0
TEXT
8
0
10
0.7917
20
10.0417
30
0.0000
40
0.1200
1
WIRING DIAGRAM
0
POLYLINE
8
WIRING
66
1
10
0.0000
20
0.0000
30
0.0000
70
1
0
VERTEX
8
WIRING
10
1.4176
20
9.7917
30
0.0000
0
VERTEX
8
WIRING
10
3.7092
20
9.7917
30
0.0000
0
VERTEX
8
WIRING
10
3.7092
20
9.0000
30
0.0000
0
VERTEX
8
WIRING
10
1.4176
20
9.0000
30
0.0000
0
SEQEND
8
WIRING
0
TEXT
8
WIRING
10
2.5634
20
9.5208
30
0.0000
40
0.1500
1
P1
72
1
11
2.5634
21
9.5208
31
0.0000
0
TEXT
8
WIRING
10
2.5634
20
9.3125
30
0.0000
40
0.1050
1
D38999/26WD18SN
72
1
11
2.5634
21
9.3125
31
0.0000
0
TEXT
8
WIRING
10
2.5634
20
9.1042
30
0.0000
40
0.1050
1
TO FLIGHT COMPUTER J3
72
1
11
2.5634
21
9.1042
31
0.0000
0
POLYLINE
8
WIRING
66
1
10
0.0000
20
0.0000
30
0.0000
70
1
0
VERTEX
8
WIRING
10
1.4176
20
9.0000
30
0.0000
0
VERTEX
8
WIRING
10
3.7092
20
9.0000
30
0.0000
0
VERTEX
8
WIRING
10
3.7092
20
8.7500
30
0.0000
0
VERTEX
8
WIRING
10
1.4176
20
8.7500
30
0.0000
0
SEQEND
8
WIRING
0
TEXT
8
WIRING
10
1.7301
20
8.8125
30
0.0000
40
0.0975
1
PIN
72
1
11
1.7301
21
8.8125
31
0.0000
0
TEXT
8
WIRING
10
2.8759
20
8.8125
30
0.0000
40
0.0975
1
SIGNAL
72
1
11
2.8759
21
8.8125
31
0.0000
0
POLYLINE
8
WIRING
66
1
10
0.0000
20
0.0000
30
0.0000
70
1
0
VERTEX
8
WIRING
10
1.4176
20
8.7500
30
0.0000
0
VERTEX
8
WIRING
10
3.7092
20
8.7500
30
0.0000
0
VERTEX
8
WIRING
10
3.7092
20
5.5000
30
0.0000
0
VERTEX
8
WIRING
10
1.4176
20
5.5000
30
0.0000
0
SEQEND
8
WIRING
0
LINE
8
WIRING
10
2.0426
20
9.0000
30
0.0000
11
2.0426
21
5.5000
31
0.0000
0
TEXT
8
WIRING
10
1.7301
20
8.5521
30
0.0000
40
0.1050
1
1
72
1
11
1.7301
21
8.5521
31
0.0000
0
TEXT
8
WIRING
10
2.1259
20
8.5521
30
0.0000
40
0.1050
1
+28V PWR
0
CIRCLE
8
WIRING
10
3.7092
20
8.6146
30
0.0000
40
0.0271
0
LINE
8
WIRING
10
3.7092
20
8.6146
30
0.0000
11
6.0000
21
8.6146
31
0.0000
0
TEXT
8
WIRING
10
3.8134
20
8.6667
30
0.0000
40
0.0975
1
W1  20 AWG  RED
0
LINE
8
WIRING
10
1.4176
20
8.4792
30
0.0000
11
3.7092
21
8.4792
31
0.0000
0
TEXT
8
WIRING
10
1.7301
20
8.2812
30
0.0000
40
0.1050
1
2
72
1
11
1.7301
21
8.2812
31
0.0000
0
TEXT
8
WIRING
10
2.1259
20
8.2812
30
0.0000
40
0.1050
1
28V RTN
0
CIRCLE
8
WIRING
10
3.7092
20
8.3438
30
0.0000
40
0.0271
0
LINE
8
WIRING
10
3.7092
20
8.3438
30
0.0000
11
6.0000
21
8.3438
31
0.0000
0
TEXT
8
WIRING
10
3.8134
20
8.3958
30
0.0000
40
0.0975
1
W2  20 AWG  BLK
0
LINE
8
WIRING
10
1.4176
20
8.2083
30
0.0000
11
3.7092
21
8.2083
31
0.0000
0
TEXT
8
WIRING
10
1.7301
20
8.0104
30
0.0000
40
0.1050
1
3
72
1
11
1.7301
21
8.0104
31
0.0000
0
TEXT
8
WIRING
10
2.1259
20
8.0104
30
0.0000
40
0.1050
1
RS422 TX+
0
CIRCLE
8
WIRING
10
3.7092
20
8.0729
30
0.0000
40
0.0271
0
LINE
8
WIRING
10
3.7092
20
8.0729
30
0.0000
11
6.0000
21
8.0729
31
0.0000
0
TEXT
8
WIRING
10
3.8134
20
8.1250
30
0.0000
40
0.0975
1
W3  22 AWG  WHT
0
LINE
8
WIRING
10
1.4176
20
7.9375
30
0.0000
11
3.7092
21
7.9375
31
0.0000
0
TEXT
8
WIRING
10
1.7301
20
7.7396
30
0.0000
40
0.1050
1
4
72
1
11
1.7301
21
7.7396
31
0.0000
0
TEXT
8
WIRING
10
2.1259
20
7.7396
30
0.0000
40
0.1050
1
RS422 TX-
0
CIRCLE
8
WIRING
10
3.7092
20
7.8021
30
0.0000
40
0.0271
0
LINE
8
WIRING
10
3.7092
20
7.8021
30
0.0000
11
6.0000
21
7.8021
31
0.0000
0
TEXT
8
WIRING
10
3.8134
20
7.8542
30
0.0000
40
0.0975
1
W4  22 AWG  BLU
0
LINE
8
WIRING
10
1.4176
20
7.6667
30
0.0000
11
3.7092
21
7.6667
31
0.0000
0
TEXT
8
WIRING
10
1.7301
20
7.4688
30
0.0000
40
0.1050
1
5
72
1
11
1.7301
21
7.4688
31
0.0000
0
TEXT
8
WIRING
10
2.1259
20
7.4688
30
0.0000
40
0.1050
1
RS422 RX+
0
CIRCLE
8
WIRING
10
3.7092
20
7.5312
30
0.0000
40
0.0271
0
LINE
8
WIRING
10
3.7092
20
7.5312
30
0.0000
11
6.0000
21
7.5312
31
0.0000
0
TEXT
8
WIRING
10
3.8134
20
7.5833
30
0.0000
40
0.0975
1
W5  22 AWG  WHT
0
LINE
8
WIRING
10
1.4176
20
7.3958
30
0.0000
11
3.7092
21
7.3958
31
0.0000
0
TEXT
8
WIRING
10
1.7301
20
7.1979
30
0.0000
40
0.1050
1
6
72
1
11
1.7301
21
7.1979
31
0.0000
0
TEXT
8
WIRING
10
2.1259
20
7.1979
30
0.0000
40
0.1050
1
RS422 RX-
0
CIRCLE
8
WIRING
10
3.7092
20
7.2604
30
0.0000
40
0.0271
0
LINE
8
WIRING
10
3.7092
20
7.2604
30
0.0000
11
6.0000
21
7.2604
31
0.0000
0
TEXT
8
WIRING
10
3.8134
20
7.3125
30
0.0000
40
0.0975
1
W6  22 AWG  BLU
0
LINE
8
WIRING
10
1.4176
20
7.1250
30
0.0000
11
3.7092
21
7.1250
31
0.0000
0
TEXT
8
WIRING
10
1.7301
20
6.9271
30
0.0000
40
0.1050
1
7
72
1
11
1.7301
21
6.9271
31
0.0000
0
TEXT
8
WIRING
10
2.1259
20
6.9271
30
0.0000
40
0.1050
1
DISCRETE IN 1
0
CIRCLE
8
WIRING
10
3.7092
20
6.9896
30
0.0000
40
0.0271
0
LINE
8
WIRING
10
3.7092
20
6.9896
30
0.0000
11
6.0000
21
6.9896
31
0.0000
0
TEXT
8
WIRING
10
3.8134
20
7.0417
30
0.0000
40
0.0975
1
W7  22 AWG  WHT
0
LINE
8
WIRING
10
1.4176
20
6.8542
30
0.0000
11
3.7092
21
6.8542
31
0.0000
0
TEXT
8
WIRING
10
1.7301
20
6.6562
30
0.0000
40
0.1050
1
8
72
1
11
1.7301
21
6.6562
31
0.0000
0
TEXT
8
WIRING
10
2.1259
20
6.6562
30
0.0000
40
0.1050
1
DISCRETE OUT 1
0
CIRCLE
8
WIRING
10
3.7092
20
6.7188
30
0.0000
40
0.0271
0
LINE
8
WIRING
10
3.7092
20
6.7188
30
0.0000
11
6.0000
21
6.7188
31
0.0000
0
TEXT
8
WIRING
10
3.8134
20
6.7708
30
0.0000
40
0.0975
1
W8  22 AWG  WHT
0
LINE
8
WIRING
10
1.4176
20
6.5833
30
0.0000
11
3.7092
21
6.5833
31
0.0000
0
TEXT
8
WIRING
10
1.7301
20
6.3854
30
0.0000
40
0.1050
1
9
72
1
11
1.7301
21
6.3854
31
0.0000
0
TEXT
8
WIRING
10
2.1259
20
6.3854
30
0.0000
40
0.1050
1
SIG GND
0
CIRCLE
8
WIRING
10
3.7092
20
6.4479
30
0.0000
40
0.0271
0
LINE
8
WIRING
10
3.7092
20
6.4479
30
0.0000
11
6.0000
21
6.4479
31
0.0000
0
TEXT
8
WIRING
10
3.8134
20
6.5000
30
0.0000
40
0.0975
1
W9  22 AWG  BLK
0
LINE
8
WIRING
10
1.4176
20
6.3125
30
0.0000
11
3.7092
21
6.3125
31
0.0000
0
TEXT
8
WIRING
10
1.7301
20
6.1146
30
0.0000
40
0.1050
1
10
72
1
11
1.7301
21
6.1146
31
0.0000
0
TEXT
8
WIRING
10
2.1259
20
6.1146
30
0.0000
40
0.1050
1
ADDR STRAP
0
CIRCLE
8
WIRING
10
3.7092
20
6.1771
30
0.0000
40
0.0271
0
LINE
8
WIRING
10
3.7092
20
6.1771
30
0.0000
11
6.0000
21
6.1771
31
0.0000
0
TEXT
8
WIRING
10
3.8134
20
6.2292
30
0.0000
40
0.0975
1
W10  22 AWG  WHT
0
LINE
8
WIRING
10
1.4176
20
6.0417
30
0.0000
11
3.7092
21
6.0417
31
0.0000
0
TEXT
8
WIRING
10
1.7301
20
5.8438
30
0.0000
40
0.1050
1
11
72
1
11
1.7301
21
5.8438
31
0.0000
0
TEXT
8
WIRING
10
2.1259
20
5.8438
30
0.0000
40
0.1050
1
ADDR STRAP
0
CIRCLE
8
WIRING
10
3.7092
20
5.9062
30
0.0000
40
0.0271
0
LINE
8
WIRING
10
3.7092
20
5.9062
30
0.0000
11
6.0000
21
5.9062
31
0.0000
0
TEXT
8
WIRING
10
3.8134
20
5.9583
30
0.0000
40
0.0975
1
W10  22 AWG  WHT
0
LINE
8
WIRING
10
1.4176
20
5.7708
30
0.0000
11
3.7092
21
5.7708
31
0.0000
0
TEXT
8
WIRING
10
1.7301
20
5.5729
30
0.0000
40
0.1050
1
12
72
1
11
1.7301
21
5.5729
31
0.0000
0
TEXT
8
WIRING
10
2.1259
20
5.5729
30
0.0000
40
0.1050
1
CHASSIS GND
0
CIRCLE
8
WIRING
10
3.7092
20
5.6354
30
0.0000
40
0.0271
0
LINE
8
WIRING
10
3.7092
20
5.6354
30
0.0000
11
6.0000
21
5.6354
31
0.0000
0
TEXT
8
WIRING
10
3.8134
20
5.6875
30
0.0000
40
0.0975
1
W11  20 AWG  GRN
0
POLYLINE
8
WIRING
66
1
10
0.0000
20
0.0000
30
0.0000
70
1
0
VERTEX
8
WIRING
10
13.2907
20
9.7917
30
0.0000
0
VERTEX
8
WIRING
10
15.5824
20
9.7917
30
0.0000
0
VERTEX
8
WIRING
10
15.5824
20
9.0000
30
0.0000
0
VERTEX
8
WIRING
10
13.2907
20
9.0000
30
0.0000
0
SEQEND
8
WIRING
0
TEXT
8
WIRING
10
14.4366
20
9.5208
30
0.0000
40
0.1500
1
P2
72
1
11
14.4366
21
9.5208
31
0.0000
0
TEXT
8
WIRING
10
14.4366
20
9.3125
30
0.0000
40
0.1050
1
D38999/26WD18PN
72
1
11
14.4366
21
9.3125
31
0.0000
0
TEXT
8
WIRING
10
14.4366
20
9.1042
30
0.0000
40
0.1050
1
TO POWER DISTRIBUTION J7
72
1
11
14.4366
21
9.1042
31
0.0000
0
POLYLINE
8
WIRING
66
1
10
0.0000
20
0.0000
30
0.0000
70
1
0
VERTEX
8
WIRING
10
13.2907
20
9.0000
30
0.0000
0
VERTEX
8
WIRING
10
15.5824
20
9.0000
30
0.0000
0
VERTEX
8
WIRING
10
15.5824
20
8.7500
30
0.0000
0
VERTEX
8
WIRING
10
13.2907
20
8.7500
30
0.0000
0
SEQEND
8
WIRING
0
TEXT
8
WIRING
10
15.2699
20
8.8125
30
0.0000
40
0.0975
1
PIN
72
1
11
15.2699
21
8.8125
31
0.0000
0
TEXT
8
WIRING
10
14.1241
20
8.8125
30
0.0000
40
0.0975
1
SIGNAL
72
1
11
14.1241
21
8.8125
31
0.0000
0
POLYLINE
8
WIRING
66
1
10
0.0000
20
0.0000
30
0.0000
70
1
0
VERTEX
8
WIRING
10
13.2907
20
8.7500
30
0.0000
0
VERTEX
8
WIRING
10
15.5824
20
8.7500
30
0.0000
0
VERTEX
8
WIRING
10
15.5824
20
5.5000
30
0.0000
0
VERTEX
8
WIRING
10
13.2907
20
5.5000
30
0.0000
0
SEQEND
8
WIRING
0
LINE
8
WIRING
10
14.9574
20
9.0000
30
0.0000
11
14.9574
21
5.5000
31
0.0000
0
TEXT
8
WIRING
10
15.2699
20
8.5521
30
0.0000
40
0.1050
1
1
72
1
11
15.2699
21
8.5521
31
0.0000
0
TEXT
8
WIRING
10
13.3741
20
8.5521
30
0.0000
40
0.1050
1
+28V PWR
0
CIRCLE
8
WIRING
10
13.2907
20
8.6146
30
0.0000
40
0.0271
0
LINE
8
WIRING
10
13.2907
20
8.6146
30
0.0000
11
11.0000
21
8.6146
31
0.0000
0
TEXT
8
WIRING
10
13.1866
20
8.6667
30
0.0000
40
0.0975
1
W1  20 AWG  RED
72
2
11
13.1866
21
8.6667
31
0.0000
0
LINE
8
WIRING
10
13.2907
20
8.4792
30
0.0000
11
15.5824
21
8.4792
31
0.0000
0
TEXT
8
WIRING
10
15.2699
20
8.2812
30
0.0000
40
0.1050
1
2
72
1
11
15.2699
21
8.2812
31
0.0000
0
TEXT
8
WIRING
10
13.3741
20
8.2812
30
0.0000
40
0.1050
1
28V RTN
0
CIRCLE
8
WIRING
10
13.2907
20
8.3438
30
0.0000
40
0.0271
0
LINE
8
WIRING
10
13.2907
20
8.3438
30
0.0000
11
11.0000
21
8.3438
31
0.0000
0
TEXT
8
WIRING
10
13.1866
20
8.3958
30
0.0000
40
0.0975
1
W2  20 AWG  BLK
72
2
11
13.1866
21
8.3958
31
0.0000
0
LINE
8
WIRING
10
13.2907
20
8.2083
30
0.0000
11
15.5824
21
8.2083
31
0.0000
0
TEXT
8
WIRING
10
15.2699
20
8.0104
30
0.0000
40
0.1050
1
3
72
1
11
15.2699
21
8.0104
31
0.0000
0
TEXT
8
WIRING
10
13.3741
20
8.0104
30
0.0000
40
0.1050
1
RS422 TX+
0
CIRCLE
8
WIRING
10
13.2907
20
8.0729
30
0.0000
40
0.0271
0
LINE
8
WIRING
10
13.2907
20
8.0729
30
0.0000
11
11.0000
21
8.0729
31
0.0000
0
TEXT
8
WIRING
10
13.1866
20
8.1250
30
0.0000
40
0.0975
1
W3  22 AWG  WHT
72
2
11
13.1866
21
8.1250
31
0.0000
0
LINE
8
WIRING
10
13.2907
20
7.9375
30
0.0000
11
15.5824
21
7.9375
31
0.0000
0
TEXT
8
WIRING
10
15.2699
20
7.7396
30
0.0000
40
0.1050
1
4
72
1
11
15.2699
21
7.7396
31
0.0000
0
TEXT
8
WIRING
10
13.3741
20
7.7396
30
0.0000
40
0.1050
1
RS422 TX-
0
CIRCLE
8
WIRING
10
13.2907
20
7.8021
30
0.0000
40
0.0271
0
LINE
8
WIRING
10
13.2907
20
7.8021
30
0.0000
11
11.0000
21
7.8021
31
0.0000
0
TEXT
8
WIRING
10
13.1866
20
7.8542
30
0.0000
40
0.0975
1
W4  22 AWG  BLU
72
2
11
13.1866
21
7.8542
31
0.0000
0
LINE
8
WIRING
10
13.2907
20
7.6667
30
0.0000
11
15.5824
21
7.6667
31
0.0000
0
TEXT
8
WIRING
10
15.2699
20
7.4688
30
0.0000
40
0.1050
1
5
72
1
11
15.2699
21
7.4688
31
0.0000
0
TEXT
8
WIRING
10
13.3741
20
7.4688
30
0.0000
40
0.1050
1
RS422 RX+
0
CIRCLE
8
WIRING
10
13.2907
20
7.5312
30
0.0000
40
0.0271
0
LINE
8
WIRING
10
13.2907
20
7.5312
30
0.0000
11
11.0000
21
7.5312
31
0.0000
0
TEXT
8
WIRING
10
13.1866
20
7.5833
30
0.0000
40
0.0975
1
W5  22 AWG  WHT
72
2
11
13.1866
21
7.5833
31
0.0000
0
LINE
8
WIRING
10
13.2907
20
7.3958
30
0.0000
11
15.5824
21
7.3958
31
0.0000
0
TEXT
8
WIRING
10
15.2699
20
7.1979
30
0.0000
40
0.1050
1
6
72
1
11
15.2699
21
7.1979
31
0.0000
0
TEXT
8
WIRING
10
13.3741
20
7.1979
30
0.0000
40
0.1050
1
RS422 RX-
0
CIRCLE
8
WIRING
10
13.2907
20
7.2604
30
0.0000
40
0.0271
0
LINE
8
WIRING
10
13.2907
20
7.2604
30
0.0000
11
11.0000
21
7.2604
31
0.0000
0
TEXT
8
WIRING
10
13.1866
20
7.3125
30
0.0000
40
0.0975
1
W6  22 AWG  BLU
72
2
11
13.1866
21
7.3125
31
0.0000
0
LINE
8
WIRING
10
13.2907
20
7.1250
30
0.0000
11
15.5824
21
7.1250
31
0.0000
0
TEXT
8
WIRING
10
15.2699
20
6.9271
30
0.0000
40
0.1050
1
7
72
1
11
15.2699
21
6.9271
31
0.0000
0
TEXT
8
WIRING
10
13.3741
20
6.9271
30
0.0000
40
0.1050
1
DISCRETE OUT 1
0
CIRCLE
8
WIRING
10
13.2907
20
6.9896
30
0.0000
40
0.0271
0
LINE
8
WIRING
10
13.2907
20
6.9896
30
0.0000
11
11.0000
21
6.9896
31
0.0000
0
TEXT
8
WIRING
10
13.1866
20
7.0417
30
0.0000
40
0.0975
1
W8  22 AWG  WHT
72
2
11
13.1866
21
7.0417
31
0.0000
0
LINE
8
WIRING
10
13.2907
20
6.8542
30
0.0000
11
15.5824
21
6.8542
31
0.0000
0
TEXT
8
WIRING
10
15.2699
20
6.6562
30
0.0000
40
0.1050
1
8
72
1
11
15.2699
21
6.6562
31
0.0000
0
TEXT
8
WIRING
10
13.3741
20
6.6562
30
0.0000
40
0.1050
1
DISCRETE IN 1
0
CIRCLE
8
WIRING
10
13.2907
20
6.7188
30
0.0000
40
0.0271
0
LINE
8
WIRING
10
13.2907
20
6.7188
30
0.0000
11
11.0000
21
6.7188
31
0.0000
0
TEXT
8
WIRING
10
13.1866
20
6.7708
30
0.0000
40
0.0975
1
W7  22 AWG  WHT
72
2
11
13.1866
21
6.7708
31
0.0000
0
LINE
8
WIRING
10
13.2907
20
6.5833
30
0.0000
11
15.5824
21
6.5833
31
0.0000
0
TEXT
8
WIRING
10
15.2699
20
6.3854
30
0.0000
40
0.1050
1
9
72
1
11
15.2699
21
6.3854
31
0.0000
0
TEXT
8
WIRING
10
13.3741
20
6.3854
30
0.0000
40
0.1050
1
SIG GND A
0
CIRCLE
8
WIRING
10
13.2907
20
6.4479
30
0.0000
40
0.0271
0
LINE
8
WIRING
10
13.2907
20
6.4479
30
0.0000
11
11.0000
21
6.4479
31
0.0000
0
TEXT
8
WIRING
10
13.1866
20
6.5000
30
0.0000
40
0.0975
1
W12  22 AWG  BLK
72
2
11
13.1866
21
6.5000
31
0.0000
0
LINE
8
WIRING
10
13.2907
20
6.3125
30
0.0000
11
15.5824
21
6.3125
31
0.0000
0
TEXT
8
WIRING
10
15.2699
20
6.1146
30
0.0000
40
0.1050
1
10
72
1
11
15.2699
21
6.1146
31
0.0000
0
TEXT
8
WIRING
10
13.3741
20
6.1146
30
0.0000
40
0.1050
1
SIG GND B
0
CIRCLE
8
WIRING
10
13.2907
20
6.1771
30
0.0000
40
0.0271
0
LINE
8
WIRING
10
13.2907
20
6.1771
30
0.0000
11
11.0000
21
6.1771
31
0.0000
0
TEXT
8
WIRING
10
13.1866
20
6.2292
30
0.0000
40
0.0975
1
W13  22 AWG  BLK
72
2
11
13.1866
21
6.2292
31
0.0000
0
LINE
8
WIRING
10
13.2907
20
6.0417
30
0.0000
11
15.5824
21
6.0417
31
0.0000
0
TEXT
8
WIRING
10
15.2699
20
5.8438
30
0.0000
40
0.1050
1
11
72
1
11
15.2699
21
5.8438
31
0.0000
0
TEXT
8
WIRING
10
13.3741
20
5.8438
30
0.0000
40
0.1050
1
TSP1 SHIELD
0
CIRCLE
8
WIRING
10
13.2907
20
5.9062
30
0.0000
40
0.0271
0
LINE
8
WIRING
10
13.2907
20
5.7708
30
0.0000
11
15.5824
21
5.7708
31
0.0000
0
TEXT
8
WIRING
10
15.2699
20
5.5729
30
0.0000
40
0.1050
1
12
72
1
11
15.2699
21
5.5729
31
0.0000
0
TEXT
8
WIRING
10
13.3741
20
5.5729
30
0.0000
40
0.1050
1
CHASSIS GND
0
CIRCLE
8
WIRING
10
13.2907
20
5.6354
30
0.0000
40
0.0271
0
LINE
8
WIRING
10
13.2907
20
5.6354
30
0.0000
11
11.0000
21
5.6354
31
0.0000
0
TEXT
8
WIRING
10
13.1866
20
5.6875
30
0.0000
40
0.0975
1
W11  20 AWG  GRN
72
2
11
13.1866
21
5.6875
31
0.0000
0
LINE
8
WIRING
10
6.0000
20
8.6146
30
0.0000
11
11.0000
21
8.6146
31
0.0000
0
LINE
8
WIRING
10
6.0000
20
8.3438
30
0.0000
11
11.0000
21
8.3438
31
0.0000
0
LINE
8
WIRING
10
6.0000
20
8.0729
30
0.0000
11
11.0000
21
8.0729
31
0.0000
0
LINE
8
WIRING
10
6.0000
20
7.8021
30
0.0000
11
11.0000
21
7.8021
31
0.0000
0
LINE
8
WIRING
10
6.0000
20
7.5312
30
0.0000
11
11.0000
21
7.5312
31
0.0000
0
LINE
8
WIRING
10
6.0000
20
7.2604
30
0.0000
11
11.0000
21
7.2604
31
0.0000
0
LINE
8
WIRING
10
6.0000
20
6.9896
30
0.0000
11
11.0000
21
6.7188
31
0.0000
0
LINE
8
WIRING
10
6.0000
20
6.7188
30
0.0000
11
11.0000
21
6.9896
31
0.0000
0
LINE
8
WIRING
10
6.0000
20
6.4479
30
0.0000
11
8.5000
21
6.3576
31
0.0000
0
POLYLINE
8
WIRING
66
1
10
0.0000
20
0.0000
30
0.0000
70
0
0
VERTEX
8
WIRING
10
6.0000
20
6.1771
30
0.0000
0
VERTEX
8
WIRING
10
6.2500
20
6.1771
30
0.0000
0
VERTEX
8
WIRING
10
6.2500
20
5.9062
30
0.0000
0
VERTEX
8
WIRING
10
6.0000
20
5.9062
30
0.0000
0
SEQEND
8
WIRING
0
LINE
8
WIRING
10
6.0000
20
5.6354
30
0.0000
11
11.0000
21
5.6354
31
0.0000
0
LINE
8
WIRING
10
8.5000
20
6.3576
30
0.0000
11
11.0000
21
6.4479
31
0.0000
0
LINE
8
WIRING
10
8.5000
20
6.3576
30
0.0000
11
11.0000
21
6.1771
31
0.0000
0
CIRCLE
8
WIRING
10
8.5000
20
6.3576
30
0.0000
40
0.0729
0
TEXT
8
WIRING
10
8.5000
20
6.5035
30
0.0000
40
0.1125
1
SP1
72
1
11
8.5000
21
6.5035
31
0.0000
0
TEXT
8
WIRING
10
8.5000
20
6.0868
30
0.0000
40
0.0900
1
M81824/1-1
72
1
11
8.5000
21
6.0868
31
0.0000
0
LINE
8
SHIELDS
6
DASHED
10
13.2907
20
5.9062
30
0.0000
11
11.2917
21
5.9062
31
0.0000
0
TEXT
8
SHIELDS
10
13.1866
20
5.9583
30
0.0000
40
0.0975
1
TSP1 SHLD
72
2
11
13.1866
21
5.9583
31
0.0000
0
LINE
8
SHIELDS
10
5.3333
20
8.0729
30
0.0000
11
5.5000
21
7.8021
31
0.0000
0
LINE
8
SHIELDS
10
5.3333
20
7.8021
30
0.0000
11
5.5000
21
8.0729
31
0.0000
0
POLYLINE
8
SHIELDS
6
DASHED
66
1
10
0.0000
20
0.0000
30
0.0000
70
1
0
VERTEX
8
SHIELDS
10
5.5625
20
7.9375
30
0.0000
0
VERTEX
8
SHIELDS
10
5.5607
20
7.8984
30
0.0000
0
VERTEX
8
SHIELDS
10
5.5554
20
7.8602
30
0.0000
0
VERTEX
8
SHIELDS
10
5.5466
20
7.8240
30
0.0000
0
VERTEX
8
SHIELDS
10
5.5346
20
7.7906
30
0.0000
0
VERTEX
8
SHIELDS
10
5.5198
20
7.7607
30
0.0000
0
VERTEX
8
SHIELDS
10
5.5024
20
7.7352
30
0.0000
0
VERTEX
8
SHIELDS
10
5.4829
20
7.7147
30
0.0000
0
VERTEX
8
SHIELDS
10
5.4617
20
7.6997
30
0.0000
0
VERTEX
8
SHIELDS
10
5.4395
20
7.6906
30
0.0000
0
VERTEX
8
SHIELDS
10
5.4167
20
7.6875
30
0.0000
0
VERTEX
8
SHIELDS
10
5.3939
20
7.6906
30
0.0000
0
VERTEX
8
SHIELDS
10
5.3716
20
7.6997
30
0.0000
0
VERTEX
8
SHIELDS
10
5.3505
20
7.7147
30
0.0000
0
VERTEX
8
SHIELDS
10
5.3309
20
7.7352
30
0.0000
0
VERTEX
8
SHIELDS
10
5.3135
20
7.7607
30
0.0000
0
VERTEX
8
SHIELDS
10
5.2987
20
7.7906
30
0.0000
0
VERTEX
8
SHIELDS
10
5.2867
20
7.8240
30
0.0000
0
VERTEX
8
SHIELDS
10
5.2780
20
7.8602
30
0.0000
0
VERTEX
8
SHIELDS
10
5.2726
20
7.8984
30
0.0000
0
VERTEX
8
SHIELDS
10
5.2708
20
7.9375
30
0.0000
0
VERTEX
8
SHIELDS
10
5.2726
20
7.9766
30
0.0000
0
VERTEX
8
SHIELDS
10
5.2780
20
8.0148
30
0.0000
0
VERTEX
8
SHIELDS
10
5.2867
20
8.0510
30
0.0000
0
VERTEX
8
SHIELDS
10
5.2987
20
8.0844
30
0.0000
0
VERTEX
8
SHIELDS
10
5.3135
20
8.1143
30
0.0000
0
VERTEX
8
SHIELDS
10
5.3309
20
8.1398
30
0.0000
0
VERTEX
8
SHIELDS
10
5.3505
20
8.1603
30
0.0000
0
VERTEX
8
SHIELDS
10
5.3716
20
8.1753
30
0.0000
0
VERTEX
8
SHIELDS
10
5.3939
20
8.1844
30
0.0000
0
VERTEX
8
SHIELDS
10
5.4167
20
8.1875
30
0.0000
0
VERTEX
8
SHIELDS
10
5.4395
20
8.1844
30
0.0000
0
VERTEX
8
SHIELDS
10
5.4617
20
8.1753
30
0.0000
0
VERTEX
8
SHIELDS
10
5.4829
20
8.1603
30
0.0000
0
VERTEX
8
SHIELDS
10
5.5024
20
8.1398
30
0.0000
0
VERTEX
8
SHIELDS
10
5.5198
20
8.1143
30
0.0000
0
VERTEX
8
SHIELDS
10
5.5346
20
8.0844
30
0.0000
0
VERTEX
8
SHIELDS
10
5.5466
20
8.0510
30
0.0000
0
VERTEX
8
SHIELDS
10
5.5554
20
8.0148
30
0.0000
0
VERTEX
8
SHIELDS
10
5.5607
20
7.9766
30
0.0000
0
SEQEND
8
SHIELDS
0
TEXT
8
SHIELDS
10
5.6042
20
8.1250
30
0.0000
40
0.0825
1
TSP1
0
LINE
8
SHIELDS
6
DASHED
10
5.5625
20
7.9375
30
0.0000
11
5.7083
21
7.9375
31
0.0000
0
LINE
8
SHIELDS
10
5.7083
20
8.0312
30
0.0000
11
5.7083
21
7.8438
31
0.0000
0
LINE
8
SHIELDS
10
5.7542
20
8.0000
30
0.0000
11
5.7542
21
7.8750
31
0.0000
0
LINE
8
SHIELDS
10
5.8000
20
7.9688
30
0.0000
11
5.8000
21
7.9062
31
0.0000
0
LINE
8
SHIELDS
10
11.5000
20
8.0729
30
0.0000
11
11.6667
21
7.8021
31
0.0000
0
LINE
8
SHIELDS
10
11.5000
20
7.8021
30
0.0000
11
11.6667
21
8.0729
31
0.0000
0
POLYLINE
8
SHIELDS
6
DASHED
66
1
10
0.0000
20
0.0000
30
0.0000
70
1
0
VERTEX
8
SHIELDS
10
11.7292
20
7.9375
30
0.0000
0
VERTEX
8
SHIELDS
10
11.7274
20
7.8984
30
0.0000
0
VERTEX
8
SHIELDS
10
11.7220
20
7.8602
30
0.0000
0
VERTEX
8
SHIELDS
10
11.7133
20
7.8240
30
0.0000
0
VERTEX
8
SHIELDS
10
11.7013
20
7.7906
30
0.0000
0
VERTEX
8
SHIELDS
10
11.6865
20
7.7607
30
0.0000
0
VERTEX
8
SHIELDS
10
11.6691
20
7.7352
30
0.0000
0
VERTEX
8
SHIELDS
10
11.6495
20
7.7147
30
0.0000
0
VERTEX
8
SHIELDS
10
11.6284
20
7.6997
30
0.0000
0
VERTEX
8
SHIELDS
10
11.6061
20
7.6906
30
0.0000
0
VERTEX
8
SHIELDS
10
11.5833
20
7.6875
30
0.0000
0
VERTEX
8
SHIELDS
10
11.5605
20
7.6906
30
0.0000
0
VERTEX
8
SHIELDS
10
11.5383
20
7.6997
30
0.0000
0
VERTEX
8
SHIELDS
10
11.5171
20
7.7147
30
0.0000
0
VERTEX
8
SHIELDS
10
11.4976
20
7.7352
30
0.0000
0
VERTEX
8
SHIELDS
10
11.4802
20
7.7607
30
0.0000
0
VERTEX
8
SHIELDS
10
11.4654
20
7.7906
30
0.0000
0
VERTEX
8
SHIELDS
10
11.4534
20
7.8240
30
0.0000
0
VERTEX
8
SHIELDS
10
11.4446
20
7.8602
30
0.0000
0
VERTEX
8
SHIELDS
10
11.4393
20
7.8984
30
0.0000
0
VERTEX
8
SHIELDS
10
11.4375
20
7.9375
30
0.0000
0
VERTEX
8
SHIELDS
10
11.4393
20
7.9766
30
0.0000
0
VERTEX
8
SHIELDS
10
11.4446
20
8.0148
30
0.0000
0
VERTEX
8
SHIELDS
10
11.4534
20
8.0510
30
0.0000
0
VERTEX
8
SHIELDS
10
11.4654
20
8.0844
30
0.0000
0
VERTEX
8
SHIELDS
10
11.4802
20
8.1143
30
0.0000
0
VERTEX
8
SHIELDS
10
11.4976
20
8.1398
30
0.0000
0
VERTEX
8
SHIELDS
10
11.5171
20
8.1603
30
0.0000
0
VERTEX
8
SHIELDS
10
11.5383
20
8.1753
30
0.0000
0
VERTEX
8
SHIELDS
10
11.5605
20
8.1844
30
0.0000
0
VERTEX
8
SHIELDS
10
11.5833
20
8.1875
30
0.0000
0
VERTEX
8
SHIELDS
10
11.6061
20
8.1844
30
0.0000
0
VERTEX
8
SHIELDS
10
11.6284
20
8.1753
30
0.0000
0
VERTEX
8
SHIELDS
10
11.6495
20
8.1603
30
0.0000
0
VERTEX
8
SHIELDS
10
11.6691
20
8.1398
30
0.0000
0
VERTEX
8
SHIELDS
10
11.6865
20
8.1143
30
0.0000
0
VERTEX
8
SHIELDS
10
11.7013
20
8.0844
30
0.0000
0
VERTEX
8
SHIELDS
10
11.7133
20
8.0510
30
0.0000
0
VERTEX
8
SHIELDS
10
11.7220
20
8.0148
30
0.0000
0
VERTEX
8
SHIELDS
10
11.7274
20
7.9766
30
0.0000
0
SEQEND
8
SHIELDS
0
TEXT
8
SHIELDS
10
11.3958
20
8.1250
30
0.0000
40
0.0825
1
TSP1
72
2
11
11.3958
21
8.1250
31
0.0000
0
POLYLINE
8
SHIELDS
6
DASHED
66
1
10
0.0000
20
0.0000
30
0.0000
70
0
0
VERTEX
8
SHIELDS
10
11.4375
20
7.9375
30
0.0000
0
VERTEX
8
SHIELDS
10
11.2917
20
7.9375
30
0.0000
0
VERTEX
8
SHIELDS
10
11.2917
20
5.9062
30
0.0000
0
SEQEND
8
SHIELDS
0
CIRCLE
8
SHIELDS
10
11.2917
20
5.9062
30
0.0000
40
0.0292
0
LINE
8
SHIELDS
10
5.3333
20
7.5312
30
0.0000
11
5.5000
21
7.2604
31
0.0000
0
LINE
8
SHIELDS
10
5.3333
20
7.2604
30
0.0000
11
5.5000
21
7.5312
31
0.0000
0
TEXT
8
SHIELDS
10
5.6042
20
7.5833
30
0.0000
40
0.0825
1
TP2
0
LINE
8
SHIELDS
10
11.5000
20
7.5312
30
0.0000
11
11.6667
21
7.2604
31
0.0000
0
LINE
8
SHIELDS
10
11.5000
20
7.2604
30
0.0000
11
11.6667
21
7.5312
31
0.0000
0
TEXT
8
SHIELDS
10
11.3958
20
7.5833
30
0.0000
40
0.0825
1
TP2
72
2
11
11.3958
21
7.5833
31
0.0000
0
TEXT
8
WIRING
10
1.4176
20
5.1250
30
0.0000
40
0.1050
1
LEGEND:
0
LINE
8
WIRING
10
2.3759
20
5.2500
30
0.0000
11
2.5426
21
5.1250
31
0.0000
0
LINE
8
WIRING
10
2.3759
20
5.1250
30
0.0000
11
2.5426
21
5.2500
31
0.0000
0
TEXT
8
WIRING
10
2.6259
20
5.1250
30
0.0000
40
0.0975
1
TWISTED
0
POLYLINE
8
WIRING
6
DASHED
66
1
10
0.0000
20
0.0000
30
0.0000
70
1
0
VERTEX
8
WIRING
10
3.8134
20
5.1875
30
0.0000
0
VERTEX
8
WIRING
10
3.8121
20
5.1679
30
0.0000
0
VERTEX
8
WIRING
10
3.8083
20
5.1489
30
0.0000
0
VERTEX
8
WIRING
10
3.8021
20
5.1308
30
0.0000
0
VERTEX
8
WIRING
10
3.7935
20
5.1140
30
0.0000
0
VERTEX
8
WIRING
10
3.7829
20
5.0991
30
0.0000
0
VERTEX
8
WIRING
10
3.7705
20
5.0864
30
0.0000
0
VERTEX
8
WIRING
10
3.7565
20
5.0761
30
0.0000
0
VERTEX
8
WIRING
10
3.7414
20
5.0686
30
0.0000
0
VERTEX
8
WIRING
10
3.7255
20
5.0640
30
0.0000
0
VERTEX
8
WIRING
10
3.7092
20
5.0625
30
0.0000
0
VERTEX
8
WIRING
10
3.6930
20
5.0640
30
0.0000
0
VERTEX
8
WIRING
10
3.6771
20
5.0686
30
0.0000
0
VERTEX
8
WIRING
10
3.6620
20
5.0761
30
0.0000
0
VERTEX
8
WIRING
10
3.6480
20
5.0864
30
0.0000
0
VERTEX
8
WIRING
10
3.6356
20
5.0991
30
0.0000
0
VERTEX
8
WIRING
10
3.6250
20
5.1140
30
0.0000
0
VERTEX
8
WIRING
10
3.6164
20
5.1308
30
0.0000
0
VERTEX
8
WIRING
10
3.6102
20
5.1489
30
0.0000
0
VERTEX
8
WIRING
10
3.6064
20
5.1679
30
0.0000
0
VERTEX
8
WIRING
10
3.6051
20
5.1875
30
0.0000
0
VERTEX
8
WIRING
10
3.6064
20
5.2071
30
0.0000
0
VERTEX
8
WIRING
10
3.6102
20
5.2261
30
0.0000
0
VERTEX
8
WIRING
10
3.6164
20
5.2442
30
0.0000
0
VERTEX
8
WIRING
10
3.6250
20
5.2610
30
0.0000
0
VERTEX
8
WIRING
10
3.6356
20
5.2759
30
0.0000
0
VERTEX
8
WIRING
10
3.6480
20
5.2886
30
0.0000
0
VERTEX
8
WIRING
10
3.6620
20
5.2989
30
0.0000
0
VERTEX
8
WIRING
10
3.6771
20
5.3064
30
0.0000
0
VERTEX
8
WIRING
10
3.6930
20
5.3110
30
0.0000
0
VERTEX
8
WIRING
10
3.7092
20
5.3125
30
0.0000
0
VERTEX
8
WIRING
10
3.7255
20
5.3110
30
0.0000
0
VERTEX
8
WIRING
10
3.7414
20
5.3064
30
0.0000
0
VERTEX
8
WIRING
10
3.7565
20
5.2989
30
0.0000
0
VERTEX
8
WIRING
10
3.7705
20
5.2886
30
0.0000
0
VERTEX
8
WIRING
10
3.7829
20
5.2759
30
0.0000
0
VERTEX
8
WIRING
10
3.7935
20
5.2610
30
0.0000
0
VERTEX
8
WIRING
10
3.8021
20
5.2442
30
0.0000
0
VERTEX
8
WIRING
10
3.8083
20
5.2261
30
0.0000
0
VERTEX
8
WIRING
10
3.8121
20
5.2071
30
0.0000
0
SEQEND
8
WIRING
0
TEXT
8
WIRING
10
3.8967
20
5.1250
30
0.0000
40
0.0975
1
SHIELD
0
POLYLINE
8
WIRING
66
1
10
0.0000
20
0.0000
30
0.0000
70
1
0
VERTEX
8
WIRING
10
4.8551
20
5.1875
30
0.0000
0
VERTEX
8
WIRING
10
4.8538
20
5.1679
30
0.0000
0
VERTEX
8
WIRING
10
4.8500
20
5.1489
30
0.0000
0
VERTEX
8
WIRING
10
4.8437
20
5.1308
30
0.0000
0
VERTEX
8
WIRING
10
4.8352
20
5.1140
30
0.0000
0
VERTEX
8
WIRING
10
4.8246
20
5.0991
30
0.0000
0
VERTEX
8
WIRING
10
4.8121
20
5.0864
30
0.0000
0
VERTEX
8
WIRING
10
4.7982
20
5.0761
30
0.0000
0
VERTEX
8
WIRING
10
4.7831
20
5.0686
30
0.0000
0
VERTEX
8
WIRING
10
4.7672
20
5.0640
30
0.0000
0
VERTEX
8
WIRING
10
4.7509
20
5.0625
30
0.0000
0
VERTEX
8
WIRING
10
4.7346
20
5.0640
30
0.0000
0
VERTEX
8
WIRING
10
4.7187
20
5.0686
30
0.0000
0
VERTEX
8
WIRING
10
4.7036
20
5.0761
30
0.0000
0
VERTEX
8
WIRING
10
4.6897
20
5.0864
30
0.0000
0
VERTEX
8
WIRING
10
4.6773
20
5.0991
30
0.0000
0
VERTEX
8
WIRING
10
4.6666
20
5.1140
30
0.0000
0
VERTEX
8
WIRING
10
4.6581
20
5.1308
30
0.0000
0
VERTEX
8
WIRING
10
4.6518
20
5.1489
30
0.0000
0
VERTEX
8
WIRING
10
4.6480
20
5.1679
30
0.0000
0
VERTEX
8
WIRING
10
4.6467
20
5.1875
30
0.0000
0
VERTEX
8
WIRING
10
4.6480
20
5.2071
30
0.0000
0
VERTEX
8
WIRING
10
4.6518
20
5.2261
30
0.0000
0
VERTEX
8
WIRING
10
4.6581
20
5.2442
30
0.0000
0
VERTEX
8
WIRING
10
4.6666
20
5.2610
30
0.0000
0
VERTEX
8
WIRING
10
4.6773
20
5.2759
30
0.0000
0
VERTEX
8
WIRING
10
4.6897
20
5.2886
30
0.0000
0
VERTEX
8
WIRING
10
4.7036
20
5.2989
30
0.0000
0
VERTEX
8
WIRING
10
4.7187
20
5.3064
30
0.0000
0
VERTEX
8
WIRING
10
4.7346
20
5.3110
30
0.0000
0
VERTEX
8
WIRING
10
4.7509
20
5.3125
30
0.0000
0
VERTEX
8
WIRING
10
4.7672
20
5.3110
30
0.0000
0
VERTEX
8
WIRING
10
4.7831
20
5.3064
30
0.0000
0
VERTEX
8
WIRING
10
4.7982
20
5.2989
30
0.0000
0
VERTEX
8
WIRING
10
4.8121
20
5.2886
30
0.0000
0
VERTEX
8
WIRING
10
4.8246
20
5.2759
30
0.0000
0
VERTEX
8
WIRING
10
4.8352
20
5.2610
30
0.0000
0
VERTEX
8
WIRING
10
4.8437
20
5.2442
30
0.0000
0
VERTEX
8
WIRING
10
4.8500
20
5.2261
30
0.0000
0
VERTEX
8
WIRING
10
4.8538
20
5.2071
30
0.0000
0
SEQEND
8
WIRING
0
TEXT
8
WIRING
10
4.9384
20
5.1250
30
0.0000
40
0.0975
1
JACKETED CABLE
0
LINE
8
WIRING
10
6.3342
20
5.2812
30
0.0000
11
6.3342
21
5.0938
31
0.0000
0
LINE
8
WIRING
10
6.3801
20
5.2500
30
0.0000
11
6.3801
21
5.1250
31
0.0000
0
LINE
8
WIRING
10
6.4259
20
5.2188
30
0.0000
11
6.4259
21
5.1562
31
0.0000
0
TEXT
8
WIRING
10
6.5426
20
5.1250
30
0.0000
40
0.0975
1
SHIELD TO BACKSHELL
0
TEXT
8
WIRING
10
8.2926
20
5.1250
30
0.0000
40
0.0975
1
? = SHIELD TERMINATION NOT SPECIFIED
0
POLYLINE
8
TITLE_BLOCK
66
1
10
0.0000
20
0.0000
30
0.0000
70
1
0
VERTEX
8
TITLE_BLOCK
10
10.3750
20
2.3472
30
0.0000
0
VERTEX
8
TITLE_BLOCK
10
16.3750
20
2.3472
30
0.0000
0
VERTEX
8
TITLE_BLOCK
10
16.3750
20
0.6250
30
0.0000
0
VERTEX
8
TITLE_BLOCK
10
10.3750
20
0.6250
30
0.0000
0
SEQEND
8
TITLE_BLOCK
0
POLYLINE
8
TITLE_BLOCK
66
1
10
0.0000
20
0.0000
30
0.0000
70
1
0
VERTEX
8
TITLE_BLOCK
10
10.3750
20
2.3472
30
0.0000
0
VERTEX
8
TITLE_BLOCK
10
16.3750
20
2.3472
30
0.0000
0
VERTEX
8
TITLE_BLOCK
10
16.3750
20
2.0417
30
0.0000
0
VERTEX
8
TITLE_BLOCK
10
10.3750
20
2.0417
30
0.0000
0
SEQEND
8
TITLE_BLOCK
0
TEXT
8
TITLE_BLOCK
10
10.4167
20
2.2500
30
0.0000
40
0.0550
1
COMPANY
0
TEXT
8
TITLE_BLOCK
10
13.3750
20
2.1389
30
0.0000
40
0.1000
1
ACME AEROSPACE
72
1
11
13.3750
21
2.1389
31
0.0000
0
POLYLINE
8
TITLE_BLOCK
66
1
10
0.0000
20
0.0000
30
0.0000
70
1
0
VERTEX
8
TITLE_BLOCK
10
10.3750
20
2.0417
30
0.0000
0
VERTEX
8
TITLE_BLOCK
10
16.3750
20
2.0417
30
0.0000
0
VERTEX
8
TITLE_BLOCK
10
16.3750
20
1.5694
30
0.0000
0
VERTEX
8
TITLE_BLOCK
10
10.3750
20
1.5694
30
0.0000
0
SEQEND
8
TITLE_BLOCK
0
TEXT
8
TITLE_BLOCK
10
10.4167
20
1.9444
30
0.0000
40
0.0550
1
TITLE
0
TEXT
8
TITLE_BLOCK
10
13.3750
20
1.6667
30
0.0000
40
0.1200
1
CABLE ASSY, FCC TO PDU
72
1
11
13.3750
21
1.6667
31
0.0000
0
POLYLINE
8
TITLE_BLOCK
66
1
10
0.0000
20
0.0000
30
0.0000
70
1
0
VERTEX
8
TITLE_BLOCK
10
10.3750
20
1.5694
30
0.0000
0
VERTEX
8
TITLE_BLOCK
10
11.2083
20
1.5694
30
0.0000
0
VERTEX
8
TITLE_BLOCK
10
11.2083
20
1.2639
30
0.0000
0
VERTEX
8
TITLE_BLOCK
10
10.3750
20
1.2639
30
0.0000
0
SEQEND
8
TITLE_BLOCK
0
TEXT
8
TITLE_BLOCK
10
10.4167
20
1.4722
30
0.0000
40
0.0550
1
SIZE
0
TEXT
8
TITLE_BLOCK
10
10.7917
20
1.3611
30
0.0000
40
0.0900
1
B
72
1
11
10.7917
21
1.3611
31
0.0000
0
POLYLINE
8
TITLE_BLOCK
66
1
10
0.0000
20
0.0000
30
0.0000
70
1
0
VERTEX
8
TITLE_BLOCK
10
11.2083
20
1.5694
30
0.0000
0
VERTEX
8
TITLE_BLOCK
10
15.3750
20
1.5694
30
0.0000
0
VERTEX
8
TITLE_BLOCK
10
15.3750
20
1.2639
30
0.0000
0
VERTEX
8
TITLE_BLOCK
10
11.2083
20
1.2639
30
0.0000
0
SEQEND
8
TITLE_BLOCK
0
TEXT
8
TITLE_BLOCK
10
11.2500
20
1.4722
30
0.0000
40
0.0550
1
DWG NO.
0
TEXT
8
TITLE_BLOCK
10
11.2778
20
1.3472
30
0.0000
40
0.1000
1
W101-001
0
POLYLINE
8
TITLE_BLOCK
66
1
10
0.0000
20
0.0000
30
0.0000
70
1
0
VERTEX
8
TITLE_BLOCK
10
15.3750
20
1.5694
30
0.0000
0
VERTEX
8
TITLE_BLOCK
10
16.3750
20
1.5694
30
0.0000
0
VERTEX
8
TITLE_BLOCK
10
16.3750
20
1.2639
30
0.0000
0
VERTEX
8
TITLE_BLOCK
10
15.3750
20
1.2639
30
0.0000
0
SEQEND
8
TITLE_BLOCK
0
TEXT
8
TITLE_BLOCK
10
15.4167
20
1.4722
30
0.0000
40
0.0550
1
REV
0
TEXT
8
TITLE_BLOCK
10
15.8750
20
1.3611
30
0.0000
40
0.1000
1
-
72
1
11
15.8750
21
1.3611
31
0.0000
0
POLYLINE
8
TITLE_BLOCK
66
1
10
0.0000
20
0.0000
30
0.0000
70
1
0
VERTEX
8
TITLE_BLOCK
10
10.3750
20
1.2639
30
0.0000
0
VERTEX
8
TITLE_BLOCK
10
12.3750
20
1.2639
30
0.0000
0
VERTEX
8
TITLE_BLOCK
10
12.3750
20
0.9583
30
0.0000
0
VERTEX
8
TITLE_BLOCK
10
10.3750
20
0.9583
30
0.0000
0
SEQEND
8
TITLE_BLOCK
0
TEXT
8
TITLE_BLOCK
10
10.4167
20
1.1667
30
0.0000
40
0.0550
1
DRAWN
0
POLYLINE
8
TITLE_BLOCK
66
1
10
0.0000
20
0.0000
30
0.0000
70
1
0
VERTEX
8
TITLE_BLOCK
10
12.3750
20
1.2639
30
0.0000
0
VERTEX
8
TITLE_BLOCK
10
14.3750
20
1.2639
30
0.0000
0
VERTEX
8
TITLE_BLOCK
10
14.3750
20
0.9583
30
0.0000
0
VERTEX
8
TITLE_BLOCK
10
12.3750
20
0.9583
30
0.0000
0
SEQEND
8
TITLE_BLOCK
0
TEXT
8
TITLE_BLOCK
10
12.4167
20
1.1667
30
0.0000
40
0.0550
1
CHECKED
0
POLYLINE
8
TITLE_BLOCK
66
1
10
0.0000
20
0.0000
30
0.0000
70
1
0
VERTEX
8
TITLE_BLOCK
10
14.3750
20
1.2639
30
0.0000
0
VERTEX
8
TITLE_BLOCK
10
16.3750
20
1.2639
30
0.0000
0
VERTEX
8
TITLE_BLOCK
10
16.3750
20
0.9583
30
0.0000
0
VERTEX
8
TITLE_BLOCK
10
14.3750
20
0.9583
30
0.0000
0
SEQEND
8
TITLE_BLOCK
0
TEXT
8
TITLE_BLOCK
10
14.4167
20
1.1667
30
0.0000
40
0.0550
1
DATE
0
POLYLINE
8
TITLE_BLOCK
66
1
10
0.0000
20
0.0000
30
0.0000
70
1
0
VERTEX
8
TITLE_BLOCK
10
10.3750
20
0.9583
30
0.0000
0
VERTEX
8
TITLE_BLOCK
10
12.3750
20
0.9583
30
0.0000
0
VERTEX
8
TITLE_BLOCK
10
12.3750
20
0.6250
30
0.0000
0
VERTEX
8
TITLE_BLOCK
10
10.3750
20
0.6250
30
0.0000
0
SEQEND
8
TITLE_BLOCK
0
TEXT
8
TITLE_BLOCK
10
10.4167
20
0.8611
30
0.0000
40
0.0550
1
SCALE
0
TEXT
8
TITLE_BLOCK
10
10.4444
20
0.7083
30
0.0000
40
0.0900
1
NONE
0
POLYLINE
8
TITLE_BLOCK
66
1
10
0.0000
20
0.0000
30
0.0000
70
1
0
VERTEX
8
TITLE_BLOCK
10
12.3750
20
0.9583
30
0.0000
0
VERTEX
8
TITLE_BLOCK
10
14.3750
20
0.9583
30
0.0000
0
VERTEX
8
TITLE_BLOCK
10
14.3750
20
0.6250
30
0.0000
0
VERTEX
8
TITLE_BLOCK
10
12.3750
20
0.6250
30
0.0000
0
SEQEND
8
TITLE_BLOCK
0
TEXT
8
TITLE_BLOCK
10
12.4167
20
0.8611
30
0.0000
40
0.0550
1
UNITS
0
TEXT
8
TITLE_BLOCK
10
12.4444
20
0.7083
30
0.0000
40
0.0900
1
IN
0
POLYLINE
8
TITLE_BLOCK
66
1
10
0.0000
20
0.0000
30
0.0000
70
1
0
VERTEX
8
TITLE_BLOCK
10
14.3750
20
0.9583
30
0.0000
0
VERTEX
8
TITLE_BLOCK
10
16.3750
20
0.9583
30
0.0000
0
VERTEX
8
TITLE_BLOCK
10
16.3750
20
0.6250
30
0.0000
0
VERTEX
8
TITLE_BLOCK
10
14.3750
20
0.6250
30
0.0000
0
SEQEND
8
TITLE_BLOCK
0
TEXT
8
TITLE_BLOCK
10
14.4167
20
0.8611
30
0.0000
40
0.0550
1
SHEET
0
TEXT
8
TITLE_BLOCK
10
14.4444
20
0.7083
30
0.0000
40
0.0900
1
2 OF 3
0
ENDSEC
0
EOF
