0
SECTION
2
HEADER
9
$ACADVER
1
AC1009
9
$INSUNITS
70
1
9
$EXTMIN
10
0.0000
20
0.0000
30
0.0000
9
$EXTMAX
10
22.0000
20
17.0000
30
0.0000
9
$LIMMIN
10
0.0000
20
0.0000
9
$LIMMAX
10
22.0000
20
17.0000
0
ENDSEC
0
SECTION
2
TABLES
0
TABLE
2
LTYPE
70
2
0
LTYPE
2
CONTINUOUS
70
0
3
Solid line
72
65
73
0
40
0.0000
0
LTYPE
2
DASHED
70
0
3
__ __ __
72
65
73
2
40
0.1500
49
0.1000
49
-0.0500
0
ENDTAB
0
TABLE
2
LAYER
70
13
0
LAYER
2
0
70
0
62
7
6
CONTINUOUS
0
LAYER
2
BORDER
70
0
62
7
6
CONTINUOUS
0
LAYER
2
TITLE_BLOCK
70
0
62
7
6
CONTINUOUS
0
LAYER
2
ASSEMBLY
70
0
62
7
6
CONTINUOUS
0
LAYER
2
CABLE
70
0
62
7
6
CONTINUOUS
0
LAYER
2
DIMENSIONS
70
0
62
3
6
CONTINUOUS
0
LAYER
2
BALLOONS
70
0
62
5
6
CONTINUOUS
0
LAYER
2
WIRING
70
0
62
7
6
CONTINUOUS
0
LAYER
2
SHIELDS
70
0
62
4
6
CONTINUOUS
0
LAYER
2
FACE_VIEWS
70
0
62
7
6
CONTINUOUS
0
LAYER
2
TABLES
70
0
62
7
6
CONTINUOUS
0
LAYER
2
NOTES
70
0
62
7
6
CONTINUOUS
0
LAYER
2
TEXT
70
0
62
7
6
CONTINUOUS
0
ENDTAB
0
ENDSEC
0
SECTION
2
ENTITIES
0
POLYLINE
8
BORDER
66
1
10
0.0000
20
0.0000
30
0.0000
70
1
0
VERTEX
8
BORDER
10
0.3750
20
16.6250
30
0.0000
0
VERTEX
8
BORDER
10
21.6250
20
16.6250
30
0.0000
0
VERTEX
8
BORDER
10
21.6250
20
0.3750
30
0.0000
0
VERTEX
8
BORDER
10
0.3750
20
0.3750
30
0.0000
0
SEQEND
8
BORDER
0
POLYLINE
8
BORDER
66
1
10
0.0000
20
0.0000
30
0.0000
70
1
0
VERTEX
8
BORDER
10
0.7500
20
16.2500
30
0.0000
0
VERTEX
8
BORDER
10
21.2500
20
16.2500
30
0.0000
0
VERTEX
8
BORDER
10
21.2500
20
0.7500
30
0.0000
0
VERTEX
8
BORDER
10
0.7500
20
0.7500
30
0.0000
0
SEQEND
8
BORDER
0
TEXT
8
BORDER
10
2.8000
20
16.3148
30
0.0000
40
0.2448
1
5
72
1
11
2.8000
21
16.3148
31
0.0000
0
TEXT
8
BORDER
10
2.8000
20
0.4398
30
0.0000
40
0.2448
1
5
72
1
11
2.8000
21
0.4398
31
0.0000
0
TEXT
8
BORDER
10
6.9000
20
16.3148
30
0.0000
40
0.2448
1
4
72
1
11
6.9000
21
16.3148
31
0.0000
0
TEXT
8
BORDER
10
6.9000
20
0.4398
30
0.0000
40
0.2448
1
4
72
1
11
6.9000
21
0.4398
31
0.0000
0
LINE
8
BORDER
10
4.8500
20
16.6250
30
0.0000
11
4.8500
21
16.2500
31
0.0000
0
LINE
8
BORDER
10
4.8500
20
0.7500
30
0.0000
11
4.8500
21
0.3750
31
0.0000
0
TEXT
8
BORDER
10
11.0000
20
16.3148
30
0.0000
40
0.2448
1
3
72
1
11
11.0000
21
16.3148
31
0.0000
0
TEXT
8
BORDER
10
11.0000
20
0.4398
30
0.0000
40
0.2448
1
3
72
1
11
11.0000
21
0.4398
31
0.0000
0
LINE
8
BORDER
10
8.9500
20
16.6250
30
0.0000
11
8.9500
21
16.2500
31
0.0000
0
LINE
8
BORDER
10
8.9500
20
0.7500
30
0.0000
11
8.9500
21
0.3750
31
0.0000
0
TEXT
8
BORDER
10
15.1000
20
16.3148
30
0.0000
40
0.2448
1
2
72
1
11
15.1000
21
16.3148
31
0.0000
0
TEXT
8
BORDER
10
15.1000
20
0.4398
30
0.0000
40
0.2448
1
2
72
1
11
15.1000
21
0.4398
31
0.0000
0
LINE
8
BORDER
10
13.0500
20
16.6250
30
0.0000
11
13.0500
21
16.2500
31
0.0000
0
LINE
8
BORDER
10
13.0500
20
0.7500
30
0.0000
11
13.0500
21
0.3750
31
0.0000
0
TEXT
8
BORDER
10
19.2000
20
16.3148
30
0.0000
40
0.2448
1
1
72
1
11
19.2000
21
16.3148
31
0.0000
0
TEXT
8
BORDER
10
19.2000
20
0.4398
30
0.0000
40
0.2448
1
1
72
1
11
19.2000
21
0.4398
31
0.0000
0
LINE
8
BORDER
10
17.1500
20
16.6250
30
0.0000
11
17.1500
21
16.2500
31
0.0000
0
LINE
8
BORDER
10
17.1500
20
0.7500
30
0.0000
11
17.1500
21
0.3750
31
0.0000
0
TEXT
8
BORDER
10
0.5625
20
13.5439
30
0.0000
40
0.2448
1
C
72
1
11
0.5625
21
13.5439
31
0.0000
0
TEXT
8
BORDER
10
21.4375
20
13.5439
30
0.0000
40
0.2448
1
C
72
1
11
21.4375
21
13.5439
31
0.0000
0
TEXT
8
BORDER
10
0.5625
20
8.3773
30
0.0000
40
0.2448
1
B
72
1
11
0.5625
21
8.3773
31
0.0000
0
TEXT
8
BORDER
10
21.4375
20
8.3773
30
0.0000
40
0.2448
1
B
72
1
11
21.4375
21
8.3773
31
0.0000
0
LINE
8
BORDER
10
0.3750
20
11.0833
30
0.0000
11
0.7500
21
11.0833
31
0.0000
0
LINE
8
BORDER
10
21.2500
20
11.0833
30
0.0000
11
21.6250
21
11.0833
31
0.0000
0
TEXT
8
BORDER
10
0.5625
20
3.2106
30
0.0000
40
0.2448
1
A
72
1
11
0.5625
21
3.2106
31
0.0000
0
TEXT
8
BORDER
10
21.4375
20
3.2106
30
0.0000
40
0.2448
1
A
72
1
11
21.4375
21
3.2106
31
0.0000
0
LINE
8
BORDER
10
0.3750
20
5.9167
30
0.0000
11
0.7500
21
5.9167
31
0.0000
0
LINE
8
BORDER
10
21.2500
20
5.9167
30
0.0000
11
21.6250
21
5.9167
31
0.0000
0
POLYLINE
8
BORDER
66
1
10
0.0000
20
0.0000
30
0.0000
70
1
0
VERTEX
8
BORDER
10
0.7500
20
16.2500
30
0.0000
0
VERTEX
8
BORDER
10
3.5000
20
16.2500
30
0.0000
0
VERTEX
8
BORDER
10
3.5000
20
15.7500
30
0.0000
0
VERTEX
8
BORDER
10
0.7500
20
15.7500
30
0.0000
0
SEQEND
8
BORDER
0
TEXT
8
BORDER
10
2.1250
20
16.0614
30
0.0000
40
0.1224
1
W101-001  REV A
50
180.0000
72
1
11
2.1250
21
16.0614
31
0.0000
0
TEXT
8
0
10
0.9167
20
15.4129
30
0.0000
40
0.1224
1
WIRING DIAGRAM
0
POLYLINE
8
WIRING
66
1
10
0.0000
20
0.0000
30
0.0000
70
1
0
VERTEX
8
WIRING
10
0.9167
20
15.1906
30
0.0000
0
VERTEX
8
WIRING
10
4.0841
20
15.1906
30
0.0000
0
VERTEX
8
WIRING
10
4.0841
20
14.1540
30
0.0000
0
VERTEX
8
WIRING
10
0.9167
20
14.1540
30
0.0000
0
SEQEND
8
WIRING
0
TEXT
8
WIRING
10
2.5004
20
14.8360
30
0.0000
40
0.1959
1
P1
72
1
11
2.5004
21
14.8360
31
0.0000
0
TEXT
8
WIRING
10
2.5004
20
14.5632
30
0.0000
40
0.1371
1
D38999/26WD18SN
72
1
11
2.5004
21
14.5632
31
0.0000
0
TEXT
8
WIRING
10
2.5004
20
14.2904
30
0.0000
40
0.1371
1
TO FLIGHT COMPUTER J3
72
1
11
2.5004
21
14.2904
31
0.0000
0
POLYLINE
8
WIRING
66
1
10
0.0000
20
0.0000
30
0.0000
70
1
0
VERTEX
8
WIRING
10
0.9167
20
14.1540
30
0.0000
0
VERTEX
8
WIRING
10
4.0841
20
14.1540
30
0.0000
0
VERTEX
8
WIRING
10
4.0841
20
13.8266
30
0.0000
0
VERTEX
8
WIRING
10
0.9167
20
13.8266
30
0.0000
0
SEQEND
8
WIRING
0
TEXT
8
WIRING
10
1.4092
20
13.9085
30
0.0000
40
0.1371
1
PIN
72
1
11
1.4092
21
13.9085
31
0.0000
0
TEXT
8
WIRING
10
2.9929
20
13.9085
30
0.0000
40
0.1371
1
SIGNAL
72
1
11
2.9929
21
13.9085
31
0.0000
0
POLYLINE
8
WIRING
66
1
10
0.0000
20
0.0000
30
0.0000
70
1
0
VERTEX
8
WIRING
10
0.9167
20
13.8266
30
0.0000
0
VERTEX
8
WIRING
10
4.0841
20
13.8266
30
0.0000
0
VERTEX
8
WIRING
10
4.0841
20
6.5701
30
0.0000
0
VERTEX
8
WIRING
10
0.9167
20
6.5701
30
0.0000
0
SEQEND
8
WIRING
0
LINE
8
WIRING
10
1.9017
20
14.1540
30
0.0000
11
1.9017
21
6.5701
31
0.0000
0
TEXT
8
WIRING
10
1.4092
20
13.5538
30
0.0000
40
0.1371
1
A
72
1
11
1.4092
21
13.5538
31
0.0000
0
TEXT
8
WIRING
10
2.0108
20
13.5538
30
0.0000
40
0.1371
1
+28V PWR
0
CIRCLE
8
WIRING
10
4.0841
20
13.6357
30
0.0000
40
0.0355
0
LINE
8
WIRING
10
4.0841
20
13.6357
30
0.0000
11
7.8097
21
13.6357
31
0.0000
0
TEXT
8
WIRING
10
4.2205
20
13.7039
30
0.0000
40
0.1371
1
W1  20 AWG  RED
0
LINE
8
WIRING
10
0.9167
20
13.4447
30
0.0000
11
4.0841
21
13.4447
31
0.0000
0
TEXT
8
WIRING
10
1.4092
20
13.1719
30
0.0000
40
0.1371
1
B
72
1
11
1.4092
21
13.1719
31
0.0000
0
TEXT
8
WIRING
10
2.0108
20
13.1719
30
0.0000
40
0.1371
1
28V RTN
0
CIRCLE
8
WIRING
10
4.0841
20
13.2537
30
0.0000
40
0.0355
0
LINE
8
WIRING
10
4.0841
20
13.2537
30
0.0000
11
7.8097
21
13.2537
31
0.0000
0
TEXT
8
WIRING
10
4.2205
20
13.3219
30
0.0000
40
0.1371
1
W2  20 AWG  BLK
0
LINE
8
WIRING
10
0.9167
20
13.0628
30
0.0000
11
4.0841
21
13.0628
31
0.0000
0
TEXT
8
WIRING
10
1.4092
20
12.7900
30
0.0000
40
0.1371
1
C
72
1
11
1.4092
21
12.7900
31
0.0000
0
TEXT
8
WIRING
10
2.0108
20
12.7900
30
0.0000
40
0.1371
1
RS422 TX+
0
CIRCLE
8
WIRING
10
4.0841
20
12.8718
30
0.0000
40
0.0355
0
LINE
8
WIRING
10
4.0841
20
12.8718
30
0.0000
11
7.8097
21
12.8718
31
0.0000
0
TEXT
8
WIRING
10
4.2205
20
12.9400
30
0.0000
40
0.1371
1
W3  22 AWG  WHT
0
LINE
8
WIRING
10
0.9167
20
12.6809
30
0.0000
11
4.0841
21
12.6809
31
0.0000
0
TEXT
8
WIRING
10
1.4092
20
12.4081
30
0.0000
40
0.1371
1
D
72
1
11
1.4092
21
12.4081
31
0.0000
0
TEXT
8
WIRING
10
2.0108
20
12.4081
30
0.0000
40
0.1371
1
RS422 TX-
0
CIRCLE
8
WIRING
10
4.0841
20
12.4899
30
0.0000
40
0.0355
0
LINE
8
WIRING
10
4.0841
20
12.4899
30
0.0000
11
7.8097
21
12.4899
31
0.0000
0
TEXT
8
WIRING
10
4.2205
20
12.5581
30
0.0000
40
0.1371
1
W4  22 AWG  BLU
0
LINE
8
WIRING
10
0.9167
20
12.2989
30
0.0000
11
4.0841
21
12.2989
31
0.0000
0
TEXT
8
WIRING
10
1.4092
20
12.0261
30
0.0000
40
0.1371
1
ADPTR
72
1
11
1.4092
21
12.0261
31
0.0000
0
TEXT
8
WIRING
10
2.0108
20
12.0261
30
0.0000
40
0.1371
1
TSP1 SHIELD
0
CIRCLE
8
WIRING
10
4.0841
20
12.1080
30
0.0000
40
0.0355
0
LINE
8
WIRING
10
0.9167
20
11.9170
30
0.0000
11
4.0841
21
11.9170
31
0.0000
0
TEXT
8
WIRING
10
1.4092
20
11.6442
30
0.0000
40
0.1371
1
E
72
1
11
1.4092
21
11.6442
31
0.0000
0
TEXT
8
WIRING
10
2.0108
20
11.6442
30
0.0000
40
0.1371
1
RS422 RX+
0
CIRCLE
8
WIRING
10
4.0841
20
11.7261
30
0.0000
40
0.0355
0
LINE
8
WIRING
10
4.0841
20
11.7261
30
0.0000
11
7.8097
21
11.7261
31
0.0000
0
TEXT
8
WIRING
10
4.2205
20
11.7943
30
0.0000
40
0.1371
1
W5  22 AWG  WHT
0
LINE
8
WIRING
10
0.9167
20
11.5351
30
0.0000
11
4.0841
21
11.5351
31
0.0000
0
TEXT
8
WIRING
10
1.4092
20
11.2623
30
0.0000
40
0.1371
1
F
72
1
11
1.4092
21
11.2623
31
0.0000
0
TEXT
8
WIRING
10
2.0108
20
11.2623
30
0.0000
40
0.1371
1
RS422 RX-
0
CIRCLE
8
WIRING
10
4.0841
20
11.3441
30
0.0000
40
0.0355
0
LINE
8
WIRING
10
4.0841
20
11.3441
30
0.0000
11
7.8097
21
11.3441
31
0.0000
0
TEXT
8
WIRING
10
4.2205
20
11.4123
30
0.0000
40
0.1371
1
W6  22 AWG  BLU
0
LINE
8
WIRING
10
0.9167
20
11.1532
30
0.0000
11
4.0841
21
11.1532
31
0.0000
0
TEXT
8
WIRING
10
1.4092
20
10.8804
30
0.0000
40
0.1371
1
G
72
1
11
1.4092
21
10.8804
31
0.0000
0
TEXT
8
WIRING
10
2.0108
20
10.8804
30
0.0000
40
0.1371
1
DISCRETE IN 1
0
CIRCLE
8
WIRING
10
4.0841
20
10.9622
30
0.0000
40
0.0355
0
LINE
8
WIRING
10
4.0841
20
10.9622
30
0.0000
11
7.8097
21
10.9622
31
0.0000
0
TEXT
8
WIRING
10
4.2205
20
11.0304
30
0.0000
40
0.1371
1
W7  22 AWG  WHT
0
LINE
8
WIRING
10
0.9167
20
10.7713
30
0.0000
11
4.0841
21
10.7713
31
0.0000
0
TEXT
8
WIRING
10
1.4092
20
10.4985
30
0.0000
40
0.1371
1
H
72
1
11
1.4092
21
10.4985
31
0.0000
0
TEXT
8
WIRING
10
2.0108
20
10.4985
30
0.0000
40
0.1371
1
DISCRETE OUT 1
0
CIRCLE
8
WIRING
10
4.0841
20
10.5803
30
0.0000
40
0.0355
0
LINE
8
WIRING
10
4.0841
20
10.5803
30
0.0000
11
7.8097
21
10.5803
31
0.0000
0
TEXT
8
WIRING
10
4.2205
20
10.6485
30
0.0000
40
0.1371
1
W8  22 AWG  WHT
0
LINE
8
WIRING
10
0.9167
20
10.3893
30
0.0000
11
4.0841
21
10.3893
31
0.0000
0
TEXT
8
WIRING
10
1.4092
20
10.1165
30
0.0000
40
0.1371
1
J
72
1
11
1.4092
21
10.1165
31
0.0000
0
TEXT
8
WIRING
10
2.0108
20
10.1165
30
0.0000
40
0.1371
1
SIG GND
0
CIRCLE
8
WIRING
10
4.0841
20
10.1984
30
0.0000
40
0.0355
0
LINE
8
WIRING
10
4.0841
20
10.1984
30
0.0000
11
7.8097
21
10.1984
31
0.0000
0
TEXT
8
WIRING
10
4.2205
20
10.2666
30
0.0000
40
0.1371
1
W9  22 AWG  BLK
0
LINE
8
WIRING
10
0.9167
20
10.0074
30
0.0000
11
4.0841
21
10.0074
31
0.0000
0
TEXT
8
WIRING
10
1.4092
20
9.7346
30
0.0000
40
0.1371
1
K
72
1
11
1.4092
21
9.7346
31
0.0000
0
TEXT
8
WIRING
10
2.0108
20
9.7346
30
0.0000
40
0.1371
1
ADDR STRAP
0
CIRCLE
8
WIRING
10
4.0841
20
9.8165
30
0.0000
40
0.0355
0
LINE
8
WIRING
10
4.0841
20
9.8165
30
0.0000
11
7.8097
21
9.8165
31
0.0000
0
TEXT
8
WIRING
10
4.2205
20
9.8847
30
0.0000
40
0.1371
1
W10  22 AWG  WHT
0
LINE
8
WIRING
10
0.9167
20
9.6255
30
0.0000
11
4.0841
21
9.6255
31
0.0000
0
TEXT
8
WIRING
10
1.4092
20
9.3527
30
0.0000
40
0.1371
1
L
72
1
11
1.4092
21
9.3527
31
0.0000
0
TEXT
8
WIRING
10
2.0108
20
9.3527
30
0.0000
40
0.1371
1
ADDR STRAP
0
CIRCLE
8
WIRING
10
4.0841
20
9.4345
30
0.0000
40
0.0355
0
LINE
8
WIRING
10
4.0841
20
9.4345
30
0.0000
11
7.8097
21
9.4345
31
0.0000
0
TEXT
8
WIRING
10
4.2205
20
9.5027
30
0.0000
40
0.1371
1
W10  22 AWG  WHT
0
LINE
8
WIRING
10
0.9167
20
9.2436
30
0.0000
11
4.0841
21
9.2436
31
0.0000
0
TEXT
8
WIRING
10
1.4092
20
8.9708
30
0.0000
40
0.1371
1
M
72
1
11
1.4092
21
8.9708
31
0.0000
0
TEXT
8
WIRING
10
2.0108
20
8.9708
30
0.0000
40
0.1371
1
CHASSIS GND
0
CIRCLE
8
WIRING
10
4.0841
20
9.0526
30
0.0000
40
0.0355
0
LINE
8
WIRING
10
4.0841
20
9.0526
30
0.0000
11
7.8097
21
9.0526
31
0.0000
0
TEXT
8
WIRING
10
4.2205
20
9.1208
30
0.0000
40
0.1371
1
W11  20 AWG  GRN
0
LINE
8
WIRING
10
0.9167
20
8.8616
30
0.0000
11
4.0841
21
8.8616
31
0.0000
0
TEXT
8
WIRING
10
1.4092
20
8.5888
30
0.0000
40
0.1371
1
N
72
1
11
1.4092
21
8.5888
31
0.0000
0
TEXT
8
WIRING
10
2.0108
20
8.5888
30
0.0000
40
0.1371
1
NC
0
LINE
8
WIRING
10
0.9167
20
8.4797
30
0.0000
11
4.0841
21
8.4797
31
0.0000
0
TEXT
8
WIRING
10
1.4092
20
8.2069
30
0.0000
40
0.1371
1
P
72
1
11
1.4092
21
8.2069
31
0.0000
0
TEXT
8
WIRING
10
2.0108
20
8.2069
30
0.0000
40
0.1371
1
NC
0
LINE
8
WIRING
10
0.9167
20
8.0978
30
0.0000
11
4.0841
21
8.0978
31
0.0000
0
TEXT
8
WIRING
10
1.4092
20
7.8250
30
0.0000
40
0.1371
1
R
72
1
11
1.4092
21
7.8250
31
0.0000
0
TEXT
8
WIRING
10
2.0108
20
7.8250
30
0.0000
40
0.1371
1
NC
0
LINE
8
WIRING
10
0.9167
20
7.7159
30
0.0000
11
4.0841
21
7.7159
31
0.0000
0
TEXT
8
WIRING
10
1.4092
20
7.4431
30
0.0000
40
0.1371
1
S
72
1
11
1.4092
21
7.4431
31
0.0000
0
TEXT
8
WIRING
10
2.0108
20
7.4431
30
0.0000
40
0.1371
1
NC
0
LINE
8
WIRING
10
0.9167
20
7.3340
30
0.0000
11
4.0841
21
7.3340
31
0.0000
0
TEXT
8
WIRING
10
1.4092
20
7.0612
30
0.0000
40
0.1371
1
T
72
1
11
1.4092
21
7.0612
31
0.0000
0
TEXT
8
WIRING
10
2.0108
20
7.0612
30
0.0000
40
0.1371
1
NC
0
LINE
8
WIRING
10
0.9167
20
6.9520
30
0.0000
11
4.0841
21
6.9520
31
0.0000
0
TEXT
8
WIRING
10
1.4092
20
6.6792
30
0.0000
40
0.1371
1
U
72
1
11
1.4092
21
6.6792
31
0.0000
0
TEXT
8
WIRING
10
2.0108
20
6.6792
30
0.0000
40
0.1371
1
NC
0
POLYLINE
8
WIRING
66
1
10
0.0000
20
0.0000
30
0.0000
70
1
0
VERTEX
8
WIRING
10
18.0825
20
15.1906
30
0.0000
0
VERTEX
8
WIRING
10
21.0833
20
15.1906
30
0.0000
0
VERTEX
8
WIRING
10
21.0833
20
14.1540
30
0.0000
0
VERTEX
8
WIRING
10
18.0825
20
14.1540
30
0.0000
0
SEQEND
8
WIRING
0
TEXT
8
WIRING
10
19.5829
20
14.8360
30
0.0000
40
0.1959
1
P2
72
1
11
19.5829
21
14.8360
31
0.0000
0
TEXT
8
WIRING
10
19.5829
20
14.5632
30
0.0000
40
0.1371
1
D38999/26WD18PN
72
1
11
19.5829
21
14.5632
31
0.0000
0
TEXT
8
WIRING
10
19.5829
20
14.2904
30
0.0000
40
0.1371
1
TO POWER DISTRIBUTION J7
72
1
11
19.5829
21
14.2904
31
0.0000
0
POLYLINE
8
WIRING
66
1
10
0.0000
20
0.0000
30
0.0000
70
1
0
VERTEX
8
WIRING
10
18.0825
20
14.1540
30
0.0000
0
VERTEX
8
WIRING
10
21.0833
20
14.1540
30
0.0000
0
VERTEX
8
WIRING
10
21.0833
20
13.8266
30
0.0000
0
VERTEX
8
WIRING
10
18.0825
20
13.8266
30
0.0000
0
SEQEND
8
WIRING
0
TEXT
8
WIRING
10
20.6741
20
13.9085
30
0.0000
40
0.1371
1
PIN
72
1
11
20.6741
21
13.9085
31
0.0000
0
TEXT
8
WIRING
10
19.1737
20
13.9085
30
0.0000
40
0.1371
1
SIGNAL
72
1
11
19.1737
21
13.9085
31
0.0000
0
POLYLINE
8
WIRING
66
1
10
0.0000
20
0.0000
30
0.0000
70
1
0
VERTEX
8
WIRING
10
18.0825
20
13.8266
30
0.0000
0
VERTEX
8
WIRING
10
21.0833
20
13.8266
30
0.0000
0
VERTEX
8
WIRING
10
21.0833
20
6.9520
30
0.0000
0
VERTEX
8
WIRING
10
18.0825
20
6.9520
30
0.0000
0
SEQEND
8
WIRING
0
LINE
8
WIRING
10
20.2649
20
14.1540
30
0.0000
11
20.2649
21
6.9520
31
0.0000
0
TEXT
8
WIRING
10
20.6741
20
13.5538
30
0.0000
40
0.1371
1
A
72
1
11
20.6741
21
13.5538
31
0.0000
0
TEXT
8
WIRING
10
18.1916
20
13.5538
30
0.0000
40
0.1371
1
+28V PWR
0
CIRCLE
8
WIRING
10
18.0825
20
13.6357
30
0.0000
40
0.0355
0
LINE
8
WIRING
10
18.0825
20
13.6357
30
0.0000
11
14.3569
21
13.6357
31
0.0000
0
TEXT
8
WIRING
10
17.9461
20
13.7039
30
0.0000
40
0.1371
1
W1  20 AWG  RED
72
2
11
17.9461
21
13.7039
31
0.0000
0
LINE
8
WIRING
10
18.0825
20
13.4447
30
0.0000
11
21.0833
21
13.4447
31
0.0000
0
TEXT
8
WIRING
10
20.6741
20
13.1719
30
0.0000
40
0.1371
1
B
72
1
11
20.6741
21
13.1719
31
0.0000
0
TEXT
8
WIRING
10
18.1916
20
13.1719
30
0.0000
40
0.1371
1
28V RTN
0
CIRCLE
8
WIRING
10
18.0825
20
13.2537
30
0.0000
40
0.0355
0
LINE
8
WIRING
10
18.0825
20
13.2537
30
0.0000
11
14.3569
21
13.2537
31
0.0000
0
TEXT
8
WIRING
10
17.9461
20
13.3219
30
0.0000
40
0.1371
1
W2  20 AWG  BLK
72
2
11
17.9461
21
13.3219
31
0.0000
0
LINE
8
WIRING
10
18.0825
20
13.0628
30
0.0000
11
21.0833
21
13.0628
31
0.0000
0
TEXT
8
WIRING
10
20.6741
20
12.7900
30
0.0000
40
0.1371
1
C
72
1
11
20.6741
21
12.7900
31
0.0000
0
TEXT
8
WIRING
10
18.1916
20
12.7900
30
0.0000
40
0.1371
1
RS422 TX+
0
CIRCLE
8
WIRING
10
18.0825
20
12.8718
30
0.0000
40
0.0355
0
LINE
8
WIRING
10
18.0825
20
12.8718
30
0.0000
11
14.3569
21
12.8718
31
0.0000
0
TEXT
8
WIRING
10
17.9461
20
12.9400
30
0.0000
40
0.1371
1
W3  22 AWG  WHT
72
2
11
17.9461
21
12.9400
31
0.0000
0
LINE
8
WIRING
10
18.0825
20
12.6809
30
0.0000
11
21.0833
21
12.6809
31
0.0000
0
TEXT
8
WIRING
10
20.6741
20
12.4081
30
0.0000
40
0.1371
1
D
72
1
11
20.6741
21
12.4081
31
0.0000
0
TEXT
8
WIRING
10
18.1916
20
12.4081
30
0.0000
40
0.1371
1
RS422 TX-
0
CIRCLE
8
WIRING
10
18.0825
20
12.4899
30
0.0000
40
0.0355
0
LINE
8
WIRING
10
18.0825
20
12.4899
30
0.0000
11
14.3569
21
12.4899
31
0.0000
0
TEXT
8
WIRING
10
17.9461
20
12.5581
30
0.0000
40
0.1371
1
W4  22 AWG  BLU
72
2
11
17.9461
21
12.5581
31
0.0000
0
LINE
8
WIRING
10
18.0825
20
12.2989
30
0.0000
11
21.0833
21
12.2989
31
0.0000
0
TEXT
8
WIRING
10
20.6741
20
12.0261
30
0.0000
40
0.1371
1
E
72
1
11
20.6741
21
12.0261
31
0.0000
0
TEXT
8
WIRING
10
18.1916
20
12.0261
30
0.0000
40
0.1371
1
RS422 RX+
0
CIRCLE
8
WIRING
10
18.0825
20
12.1080
30
0.0000
40
0.0355
0
LINE
8
WIRING
10
18.0825
20
12.1080
30
0.0000
11
14.3569
21
12.1080
31
0.0000
0
TEXT
8
WIRING
10
17.9461
20
12.1762
30
0.0000
40
0.1371
1
W5  22 AWG  WHT
72
2
11
17.9461
21
12.1762
31
0.0000
0
LINE
8
WIRING
10
18.0825
20
11.9170
30
0.0000
11
21.0833
21
11.9170
31
0.0000
0
TEXT
8
WIRING
10
20.6741
20
11.6442
30
0.0000
40
0.1371
1
F
72
1
11
20.6741
21
11.6442
31
0.0000
0
TEXT
8
WIRING
10
18.1916
20
11.6442
30
0.0000
40
0.1371
1
RS422 RX-
0
CIRCLE
8
WIRING
10
18.0825
20
11.7261
30
0.0000
40
0.0355
0
LINE
8
WIRING
10
18.0825
20
11.7261
30
0.0000
11
14.3569
21
11.7261
31
0.0000
0
TEXT
8
WIRING
10
17.9461
20
11.7943
30
0.0000
40
0.1371
1
W6  22 AWG  BLU
72
2
11
17.9461
21
11.7943
31
0.0000
0
LINE
8
WIRING
10
18.0825
20
11.5351
30
0.0000
11
21.0833
21
11.5351
31
0.0000
0
TEXT
8
WIRING
10
20.6741
20
11.2623
30
0.0000
40
0.1371
1
G
72
1
11
20.6741
21
11.2623
31
0.0000
0
TEXT
8
WIRING
10
18.1916
20
11.2623
30
0.0000
40
0.1371
1
DISCRETE OUT 1
0
CIRCLE
8
WIRING
10
18.0825
20
11.3441
30
0.0000
40
0.0355
0
LINE
8
WIRING
10
18.0825
20
11.3441
30
0.0000
11
14.3569
21
11.3441
31
0.0000
0
TEXT
8
WIRING
10
17.9461
20
11.4123
30
0.0000
40
0.1371
1
W8  22 AWG  WHT
72
2
11
17.9461
21
11.4123
31
0.0000
0
LINE
8
WIRING
10
18.0825
20
11.1532
30
0.0000
11
21.0833
21
11.1532
31
0.0000
0
TEXT
8
WIRING
10
20.6741
20
10.8804
30
0.0000
40
0.1371
1
H
72
1
11
20.6741
21
10.8804
31
0.0000
0
TEXT
8
WIRING
10
18.1916
20
10.8804
30
0.0000
40
0.1371
1
DISCRETE IN 1
0
CIRCLE
8
WIRING
10
18.0825
20
10.9622
30
0.0000
40
0.0355
0
LINE
8
WIRING
10
18.0825
20
10.9622
30
0.0000
11
14.3569
21
10.9622
31
0.0000
0
TEXT
8
WIRING
10
17.9461
20
11.0304
30
0.0000
40
0.1371
1
W7  22 AWG  WHT
72
2
11
17.9461
21
11.0304
31
0.0000
0
LINE
8
WIRING
10
18.0825
20
10.7713
30
0.0000
11
21.0833
21
10.7713
31
0.0000
0
TEXT
8
WIRING
10
20.6741
20
10.4985
30
0.0000
40
0.1371
1
J
72
1
11
20.6741
21
10.4985
31
0.0000
0
TEXT
8
WIRING
10
18.1916
20
10.4985
30
0.0000
40
0.1371
1
SIG GND A
0
CIRCLE
8
WIRING
10
18.0825
20
10.5803
30
0.0000
40
0.0355
0
LINE
8
WIRING
10
18.0825
20
10.5803
30
0.0000
11
14.3569
21
10.5803
31
0.0000
0
TEXT
8
WIRING
10
17.9461
20
10.6485
30
0.0000
40
0.1371
1
W12  22 AWG  BLK
72
2
11
17.9461
21
10.6485
31
0.0000
0
LINE
8
WIRING
10
18.0825
20
10.3893
30
0.0000
11
21.0833
21
10.3893
31
0.0000
0
TEXT
8
WIRING
10
20.6741
20
10.1165
30
0.0000
40
0.1371
1
K
72
1
11
20.6741
21
10.1165
31
0.0000
0
TEXT
8
WIRING
10
18.1916
20
10.1165
30
0.0000
40
0.1371
1
SIG GND B
0
CIRCLE
8
WIRING
10
18.0825
20
10.1984
30
0.0000
40
0.0355
0
LINE
8
WIRING
10
18.0825
20
10.1984
30
0.0000
11
14.3569
21
10.1984
31
0.0000
0
TEXT
8
WIRING
10
17.9461
20
10.2666
30
0.0000
40
0.1371
1
W13  22 AWG  BLK
72
2
11
17.9461
21
10.2666
31
0.0000
0
LINE
8
WIRING
10
18.0825
20
10.0074
30
0.0000
11
21.0833
21
10.0074
31
0.0000
0
TEXT
8
WIRING
10
20.6741
20
9.7346
30
0.0000
40
0.1371
1
L
72
1
11
20.6741
21
9.7346
31
0.0000
0
TEXT
8
WIRING
10
18.1916
20
9.7346
30
0.0000
40
0.1371
1
TSP1 SHIELD
0
CIRCLE
8
WIRING
10
18.0825
20
9.8165
30
0.0000
40
0.0355
0
LINE
8
WIRING
10
18.0825
20
9.6255
30
0.0000
11
21.0833
21
9.6255
31
0.0000
0
TEXT
8
WIRING
10
20.6741
20
9.3527
30
0.0000
40
0.1371
1
M
72
1
11
20.6741
21
9.3527
31
0.0000
0
TEXT
8
WIRING
10
18.1916
20
9.3527
30
0.0000
40
0.1371
1
CHASSIS GND
0
CIRCLE
8
WIRING
10
18.0825
20
9.4345
30
0.0000
40
0.0355
0
LINE
8
WIRING
10
18.0825
20
9.4345
30
0.0000
11
14.3569
21
9.4345
31
0.0000
0
TEXT
8
WIRING
10
17.9461
20
9.5027
30
0.0000
40
0.1371
1
W11  20 AWG  GRN
72
2
11
17.9461
21
9.5027
31
0.0000
0
LINE
8
WIRING
10
18.0825
20
9.2436
30
0.0000
11
21.0833
21
9.2436
31
0.0000
0
TEXT
8
WIRING
10
20.6741
20
8.9708
30
0.0000
40
0.1371
1
N
72
1
11
20.6741
21
8.9708
31
0.0000
0
TEXT
8
WIRING
10
18.1916
20
8.9708
30
0.0000
40
0.1371
1
NC
0
LINE
8
WIRING
10
18.0825
20
8.8616
30
0.0000
11
21.0833
21
8.8616
31
0.0000
0
TEXT
8
WIRING
10
20.6741
20
8.5888
30
0.0000
40
0.1371
1
P
72
1
11
20.6741
21
8.5888
31
0.0000
0
TEXT
8
WIRING
10
18.1916
20
8.5888
30
0.0000
40
0.1371
1
NC
0
LINE
8
WIRING
10
18.0825
20
8.4797
30
0.0000
11
21.0833
21
8.4797
31
0.0000
0
TEXT
8
WIRING
10
20.6741
20
8.2069
30
0.0000
40
0.1371
1
R
72
1
11
20.6741
21
8.2069
31
0.0000
0
TEXT
8
WIRING
10
18.1916
20
8.2069
30
0.0000
40
0.1371
1
NC
0
LINE
8
WIRING
10
18.0825
20
8.0978
30
0.0000
11
21.0833
21
8.0978
31
0.0000
0
TEXT
8
WIRING
10
20.6741
20
7.8250
30
0.0000
40
0.1371
1
S
72
1
11
20.6741
21
7.8250
31
0.0000
0
TEXT
8
WIRING
10
18.1916
20
7.8250
30
0.0000
40
0.1371
1
NC
0
LINE
8
WIRING
10
18.0825
20
7.7159
30
0.0000
11
21.0833
21
7.7159
31
0.0000
0
TEXT
8
WIRING
10
20.6741
20
7.4431
30
0.0000
40
0.1371
1
T
72
1
11
20.6741
21
7.4431
31
0.0000
0
TEXT
8
WIRING
10
18.1916
20
7.4431
30
0.0000
40
0.1371
1
NC
0
LINE
8
WIRING
10
18.0825
20
7.3340
30
0.0000
11
21.0833
21
7.3340
31
0.0000
0
TEXT
8
WIRING
10
20.6741
20
7.0612
30
0.0000
40
0.1371
1
U
72
1
11
20.6741
21
7.0612
31
0.0000
0
TEXT
8
WIRING
10
18.1916
20
7.0612
30
0.0000
40
0.1371
1
NC
0
LINE
8
WIRING
10
7.8097
20
13.6357
30
0.0000
11
14.3569
21
13.6357
31
0.0000
0
LINE
8
WIRING
10
7.8097
20
13.2537
30
0.0000
11
14.3569
21
13.2537
31
0.0000
0
LINE
8
WIRING
10
7.8097
20
12.8718
30
0.0000
11
14.3569
21
12.8718
31
0.0000
0
LINE
8
WIRING
10
7.8097
20
12.4899
30
0.0000
11
14.3569
21
12.4899
31
0.0000
0
LINE
8
WIRING
10
7.8097
20
11.7261
30
0.0000
11
14.3569
21
12.1080
31
0.0000
0
LINE
8
WIRING
10
7.8097
20
11.3441
30
0.0000
11
14.3569
21
11.7261
31
0.0000
0
LINE
8
WIRING
10
7.8097
20
10.9622
30
0.0000
11
14.3569
21
10.9622
31
0.0000
0
LINE
8
WIRING
10
7.8097
20
10.5803
30
0.0000
11
14.3569
21
11.3441
31
0.0000
0
LINE
8
WIRING
10
7.8097
20
10.1984
30
0.0000
11
11.0833
21
10.3257
31
0.0000
0
POLYLINE
8
WIRING
66
1
10
0.0000
20
0.0000
30
0.0000
70
0
0
VERTEX
8
WIRING
10
7.8097
20
9.8165
30
0.0000
0
VERTEX
8
WIRING
10
8.1371
20
9.8165
30
0.0000
0
VERTEX
8
WIRING
10
8.1371
20
9.4345
30
0.0000
0
VERTEX
8
WIRING
10
7.8097
20
9.4345
30
0.0000
0
SEQEND
8
WIRING
0
LINE
8
WIRING
10
7.8097
20
9.0526
30
0.0000
11
14.3569
21
9.4345
31
0.0000
0
LINE
8
WIRING
10
11.0833
20
10.3257
30
0.0000
11
14.3569
21
10.5803
31
0.0000
0
LINE
8
WIRING
10
11.0833
20
10.3257
30
0.0000
11
14.3569
21
10.1984
31
0.0000
0
CIRCLE
8
WIRING
10
11.0833
20
10.3257
30
0.0000
40
0.0955
0
TEXT
8
WIRING
10
11.0833
20
10.5166
30
0.0000
40
0.1567
1
SP1
72
1
11
11.0833
21
10.5166
31
0.0000
0
TEXT
8
WIRING
10
11.0833
20
9.9438
30
0.0000
40
0.1371
1
M81824/1-1
72
1
11
11.0833
21
9.9438
31
0.0000
0
LINE
8
SHIELDS
10
6.3775
20
12.8718
30
0.0000
11
6.5685
21
12.4899
31
0.0000
0
LINE
8
SHIELDS
10
6.3775
20
12.4899
30
0.0000
11
6.5685
21
12.8718
31
0.0000
0
POLYLINE
8
SHIELDS
6
DASHED
66
1
10
0.0000
20
0.0000
30
0.0000
70
1
0
VERTEX
8
SHIELDS
10
6.3093
20
12.8718
30
0.0000
0
VERTEX
8
SHIELDS
10
6.3218
20
12.9345
30
0.0000
0
VERTEX
8
SHIELDS
10
6.3572
20
12.9876
30
0.0000
0
VERTEX
8
SHIELDS
10
6.4103
20
13.0230
30
0.0000
0
VERTEX
8
SHIELDS
10
6.4730
20
13.0355
30
0.0000
0
VERTEX
8
SHIELDS
10
6.5356
20
13.0230
30
0.0000
0
VERTEX
8
SHIELDS
10
6.5887
20
12.9876
30
0.0000
0
VERTEX
8
SHIELDS
10
6.6242
20
12.9345
30
0.0000
0
VERTEX
8
SHIELDS
10
6.6367
20
12.8718
30
0.0000
0
VERTEX
8
SHIELDS
10
6.6367
20
12.4899
30
0.0000
0
VERTEX
8
SHIELDS
10
6.6242
20
12.4273
30
0.0000
0
VERTEX
8
SHIELDS
10
6.5887
20
12.3742
30
0.0000
0
VERTEX
8
SHIELDS
10
6.5356
20
12.3387
30
0.0000
0
VERTEX
8
SHIELDS
10
6.4730
20
12.3262
30
0.0000
0
VERTEX
8
SHIELDS
10
6.4103
20
12.3387
30
0.0000
0
VERTEX
8
SHIELDS
10
6.3572
20
12.3742
30
0.0000
0
VERTEX
8
SHIELDS
10
6.3218
20
12.4273
30
0.0000
0
VERTEX
8
SHIELDS
10
6.3093
20
12.4899
30
0.0000
0
SEQEND
8
SHIELDS
0
TEXT
8
SHIELDS
10
6.4730
20
13.1037
30
0.0000
40
0.1371
1
TSP1
72
1
11
6.4730
21
13.1037
31
0.0000
0
POLYLINE
8
SHIELDS
6
DASHED
66
1
10
0.0000
20
0.0000
30
0.0000
70
0
0
VERTEX
8
SHIELDS
10
6.4730
20
12.3262
30
0.0000
0
VERTEX
8
SHIELDS
10
6.4730
20
12.1080
30
0.0000
0
VERTEX
8
SHIELDS
10
4.1659
20
12.1080
30
0.0000
0
SEQEND
8
SHIELDS
0
LINE
8
SHIELDS
10
14.9980
20
12.8718
30
0.0000
11
15.1890
21
12.4899
31
0.0000
0
LINE
8
SHIELDS
10
14.9980
20
12.4899
30
0.0000
11
15.1890
21
12.8718
31
0.0000
0
POLYLINE
8
SHIELDS
6
DASHED
66
1
10
0.0000
20
0.0000
30
0.0000
70
1
0
VERTEX
8
SHIELDS
10
14.9298
20
12.8718
30
0.0000
0
VERTEX
8
SHIELDS
10
14.9423
20
12.9345
30
0.0000
0
VERTEX
8
SHIELDS
10
14.9778
20
12.9876
30
0.0000
0
VERTEX
8
SHIELDS
10
15.0309
20
13.0230
30
0.0000
0
VERTEX
8
SHIELDS
10
15.0935
20
13.0355
30
0.0000
0
VERTEX
8
SHIELDS
10
15.1561
20
13.0230
30
0.0000
0
VERTEX
8
SHIELDS
10
15.2092
20
12.9876
30
0.0000
0
VERTEX
8
SHIELDS
10
15.2447
20
12.9345
30
0.0000
0
VERTEX
8
SHIELDS
10
15.2572
20
12.8718
30
0.0000
0
VERTEX
8
SHIELDS
10
15.2572
20
12.4899
30
0.0000
0
VERTEX
8
SHIELDS
10
15.2447
20
12.4273
30
0.0000
0
VERTEX
8
SHIELDS
10
15.2092
20
12.3742
30
0.0000
0
VERTEX
8
SHIELDS
10
15.1561
20
12.3387
30
0.0000
0
VERTEX
8
SHIELDS
10
15.0935
20
12.3262
30
0.0000
0
VERTEX
8
SHIELDS
10
15.0309
20
12.3387
30
0.0000
0
VERTEX
8
SHIELDS
10
14.9778
20
12.3742
30
0.0000
0
VERTEX
8
SHIELDS
10
14.9423
20
12.4273
30
0.0000
0
VERTEX
8
SHIELDS
10
14.9298
20
12.4899
30
0.0000
0
SEQEND
8
SHIELDS
0
TEXT
8
SHIELDS
10
15.0935
20
13.1037
30
0.0000
40
0.1371
1
TSP1
72
1
11
15.0935
21
13.1037
31
0.0000
0
POLYLINE
8
SHIELDS
6
DASHED
66
1
10
0.0000
20
0.0000
30
0.0000
70
0
0
VERTEX
8
SHIELDS
10
15.0935
20
12.3262
30
0.0000
0
VERTEX
8
SHIELDS
10
15.0935
20
9.8165
30
0.0000
0
VERTEX
8
SHIELDS
10
18.0007
20
9.8165
30
0.0000
0
SEQEND
8
SHIELDS
0
LINE
8
SHIELDS
10
6.3775
20
11.7261
30
0.0000
11
6.5685
21
11.3441
31
0.0000
0
LINE
8
SHIELDS
10
6.3775
20
11.3441
30
0.0000
11
6.5685
21
11.7261
31
0.0000
0
TEXT
8
SHIELDS
10
6.4730
20
11.9579
30
0.0000
40
0.1371
1
TP2
72
1
11
6.4730
21
11.9579
31
0.0000
0
LINE
8
SHIELDS
10
15.5982
20
12.1080
30
0.0000
11
15.7891
21
11.7261
31
0.0000
0
LINE
8
SHIELDS
10
15.5982
20
11.7261
30
0.0000
11
15.7891
21
12.1080
31
0.0000
0
TEXT
8
SHIELDS
10
15.6937
20
12.3399
30
0.0000
40
0.1371
1
TP2
72
1
11
15.6937
21
12.3399
31
0.0000
0
TEXT
8
WIRING
10
0.9167
20
6.0791
30
0.0000
40
0.1371
1
LEGEND:
0
LINE
8
WIRING
10
2.0488
20
6.2428
30
0.0000
11
2.2670
21
6.0791
31
0.0000
0
LINE
8
WIRING
10
2.0488
20
6.0791
30
0.0000
11
2.2670
21
6.2428
31
0.0000
0
TEXT
8
WIRING
10
2.3762
20
6.0791
30
0.0000
40
0.1371
1
TWISTED
0
POLYLINE
8
WIRING
6
DASHED
66
1
10
0.0000
20
0.0000
30
0.0000
70
1
0
VERTEX
8
WIRING
10
3.5628
20
6.2155
30
0.0000
0
VERTEX
8
WIRING
10
3.5711
20
6.2572
30
0.0000
0
VERTEX
8
WIRING
10
3.5948
20
6.2926
30
0.0000
0
VERTEX
8
WIRING
10
3.6302
20
6.3163
30
0.0000
0
VERTEX
8
WIRING
10
3.6720
20
6.3246
30
0.0000
0
VERTEX
8
WIRING
10
3.7137
20
6.3163
30
0.0000
0
VERTEX
8
WIRING
10
3.7491
20
6.2926
30
0.0000
0
VERTEX
8
WIRING
10
3.7728
20
6.2572
30
0.0000
0
VERTEX
8
WIRING
10
3.7811
20
6.2155
30
0.0000
0
VERTEX
8
WIRING
10
3.7811
20
6.1064
30
0.0000
0
VERTEX
8
WIRING
10
3.7728
20
6.0646
30
0.0000
0
VERTEX
8
WIRING
10
3.7491
20
6.0292
30
0.0000
0
VERTEX
8
WIRING
10
3.7137
20
6.0055
30
0.0000
0
VERTEX
8
WIRING
10
3.6720
20
5.9972
30
0.0000
0
VERTEX
8
WIRING
10
3.6302
20
6.0055
30
0.0000
0
VERTEX
8
WIRING
10
3.5948
20
6.0292
30
0.0000
0
VERTEX
8
WIRING
10
3.5711
20
6.0646
30
0.0000
0
VERTEX
8
WIRING
10
3.5628
20
6.1064
30
0.0000
0
SEQEND
8
WIRING
0
TEXT
8
WIRING
10
3.8902
20
6.0791
30
0.0000
40
0.1371
1
SHIELD
0
POLYLINE
8
WIRING
66
1
10
0.0000
20
0.0000
30
0.0000
70
1
0
VERTEX
8
WIRING
10
4.9073
20
6.2155
30
0.0000
0
VERTEX
8
WIRING
10
4.9156
20
6.2572
30
0.0000
0
VERTEX
8
WIRING
10
4.9393
20
6.2926
30
0.0000
0
VERTEX
8
WIRING
10
4.9747
20
6.3163
30
0.0000
0
VERTEX
8
WIRING
10
5.0164
20
6.3246
30
0.0000
0
VERTEX
8
WIRING
10
5.0582
20
6.3163
30
0.0000
0
VERTEX
8
WIRING
10
5.0936
20
6.2926
30
0.0000
0
VERTEX
8
WIRING
10
5.1172
20
6.2572
30
0.0000
0
VERTEX
8
WIRING
10
5.1256
20
6.2155
30
0.0000
0
VERTEX
8
WIRING
10
5.1256
20
6.1064
30
0.0000
0
VERTEX
8
WIRING
10
5.1172
20
6.0646
30
0.0000
0
VERTEX
8
WIRING
10
5.0936
20
6.0292
30
0.0000
0
VERTEX
8
WIRING
10
5.0582
20
6.0055
30
0.0000
0
VERTEX
8
WIRING
10
5.0164
20
5.9972
30
0.0000
0
VERTEX
8
WIRING
10
4.9747
20
6.0055
30
0.0000
0
VERTEX
8
WIRING
10
4.9393
20
6.0292
30
0.0000
0
VERTEX
8
WIRING
10
4.9156
20
6.0646
30
0.0000
0
VERTEX
8
WIRING
10
4.9073
20
6.1064
30
0.0000
0
SEQEND
8
WIRING
0
TEXT
8
WIRING
10
5.2347
20
6.0791
30
0.0000
40
0.1371
1
JACKETED CABLE
0
TEXT
8
WIRING
10
7.3478
20
6.0791
30
0.0000
40
0.1371
1
SHELL / ADPTR = SHIELD TERMINATED TO CONNECTOR SHELL / BACKSHELL (ADAPTER)
0
TEXT
8
WIRING
10
16.0239
20
6.0791
30
0.0000
40
0.1371
1
? = SHIELD TERMINATION NOT SPECIFIED
0
POLYLINE
8
TITLE_BLOCK
66
1
10
0.0000
20
0.0000
30
0.0000
70
1
0
VERTEX
8
TITLE_BLOCK
10
17.2500
20
1.6000
30
0.0000
0
VERTEX
8
TITLE_BLOCK
10
21.2500
20
1.6000
30
0.0000
0
VERTEX
8
TITLE_BLOCK
10
21.2500
20
0.7500
30
0.0000
0
VERTEX
8
TITLE_BLOCK
10
17.2500
20
0.7500
30
0.0000
0
SEQEND
8
TITLE_BLOCK
0
POLYLINE
8
TITLE_BLOCK
66
1
10
0.0000
20
0.0000
30
0.0000
70
1
0
VERTEX
8
TITLE_BLOCK
10
17.2500
20
1.6000
30
0.0000
0
VERTEX
8
TITLE_BLOCK
10
17.8500
20
1.6000
30
0.0000
0
VERTEX
8
TITLE_BLOCK
10
17.8500
20
1.1000
30
0.0000
0
VERTEX
8
TITLE_BLOCK
10
17.2500
20
1.1000
30
0.0000
0
SEQEND
8
TITLE_BLOCK
0
TEXT
8
TITLE_BLOCK
10
17.2917
20
1.4792
30
0.0000
40
0.1020
1
SIZE
0
TEXT
8
TITLE_BLOCK
10
17.5500
20
1.1694
30
0.0000
40
0.2448
1
C
72
1
11
17.5500
21
1.1694
31
0.0000
0
POLYLINE
8
TITLE_BLOCK
66
1
10
0.0000
20
0.0000
30
0.0000
70
1
0
VERTEX
8
TITLE_BLOCK
10
17.8500
20
1.6000
30
0.0000
0
VERTEX
8
TITLE_BLOCK
10
18.8500
20
1.6000
30
0.0000
0
VERTEX
8
TITLE_BLOCK
10
18.8500
20
1.1000
30
0.0000
0
VERTEX
8
TITLE_BLOCK
10
17.8500
20
1.1000
30
0.0000
0
SEQEND
8
TITLE_BLOCK
0
TEXT
8
TITLE_BLOCK
10
17.8917
20
1.4792
30
0.0000
40
0.1020
1
CAGE CODE
0
POLYLINE
8
TITLE_BLOCK
66
1
10
0.0000
20
0.0000
30
0.0000
70
1
0
VERTEX
8
TITLE_BLOCK
10
18.8500
20
1.6000
30
0.0000
0
VERTEX
8
TITLE_BLOCK
10
20.6500
20
1.6000
30
0.0000
0
VERTEX
8
TITLE_BLOCK
10
20.6500
20
1.1000
30
0.0000
0
VERTEX
8
TITLE_BLOCK
10
18.8500
20
1.1000
30
0.0000
0
SEQEND
8
TITLE_BLOCK
0
TEXT
8
TITLE_BLOCK
10
18.8917
20
1.4792
30
0.0000
40
0.1020
1
DWG NO.
0
TEXT
8
TITLE_BLOCK
10
18.9194
20
1.1694
30
0.0000
40
0.2448
1
W101-001
0
POLYLINE
8
TITLE_BLOCK
66
1
10
0.0000
20
0.0000
30
0.0000
70
1
0
VERTEX
8
TITLE_BLOCK
10
20.6500
20
1.6000
30
0.0000
0
VERTEX
8
TITLE_BLOCK
10
21.2500
20
1.6000
30
0.0000
0
VERTEX
8
TITLE_BLOCK
10
21.2500
20
1.1000
30
0.0000
0
VERTEX
8
TITLE_BLOCK
10
20.6500
20
1.1000
30
0.0000
0
SEQEND
8
TITLE_BLOCK
0
TEXT
8
TITLE_BLOCK
10
20.6917
20
1.4792
30
0.0000
40
0.1020
1
REV
0
TEXT
8
TITLE_BLOCK
10
20.9500
20
1.1694
30
0.0000
40
0.1224
1
A
72
1
11
20.9500
21
1.1694
31
0.0000
0
POLYLINE
8
TITLE_BLOCK
66
1
10
0.0000
20
0.0000
30
0.0000
70
1
0
VERTEX
8
TITLE_BLOCK
10
17.2500
20
1.1000
30
0.0000
0
VERTEX
8
TITLE_BLOCK
10
18.5833
20
1.1000
30
0.0000
0
VERTEX
8
TITLE_BLOCK
10
18.5833
20
0.7500
30
0.0000
0
VERTEX
8
TITLE_BLOCK
10
17.2500
20
0.7500
30
0.0000
0
SEQEND
8
TITLE_BLOCK
0
TEXT
8
TITLE_BLOCK
10
17.2917
20
0.9792
30
0.0000
40
0.1020
1
SCALE
0
TEXT
8
TITLE_BLOCK
10
17.3194
20
0.8194
30
0.0000
40
0.1224
1
NONE
0
POLYLINE
8
TITLE_BLOCK
66
1
10
0.0000
20
0.0000
30
0.0000
70
1
0
VERTEX
8
TITLE_BLOCK
10
18.5833
20
1.1000
30
0.0000
0
VERTEX
8
TITLE_BLOCK
10
19.9167
20
1.1000
30
0.0000
0
VERTEX
8
TITLE_BLOCK
10
19.9167
20
0.7500
30
0.0000
0
VERTEX
8
TITLE_BLOCK
10
18.5833
20
0.7500
30
0.0000
0
SEQEND
8
TITLE_BLOCK
0
TEXT
8
TITLE_BLOCK
10
18.6250
20
0.9792
30
0.0000
40
0.1020
1
WEIGHT
0
POLYLINE
8
TITLE_BLOCK
66
1
10
0.0000
20
0.0000
30
0.0000
70
1
0
VERTEX
8
TITLE_BLOCK
10
19.9167
20
1.1000
30
0.0000
0
VERTEX
8
TITLE_BLOCK
10
21.2500
20
1.1000
30
0.0000
0
VERTEX
8
TITLE_BLOCK
10
21.2500
20
0.7500
30
0.0000
0
VERTEX
8
TITLE_BLOCK
10
19.9167
20
0.7500
30
0.0000
0
SEQEND
8
TITLE_BLOCK
0
TEXT
8
TITLE_BLOCK
10
19.9583
20
0.9792
30
0.0000
40
0.1020
1
SHEET
0
TEXT
8
TITLE_BLOCK
10
19.9861
20
0.8194
30
0.0000
40
0.1224
1
3 OF 4
0
ENDSEC
0
EOF
