0
SECTION
2
HEADER
9
$ACADVER
1
AC1009
9
$INSUNITS
70
1
9
$EXTMIN
10
0.0000
20
0.0000
30
0.0000
9
$EXTMAX
10
22.0000
20
17.0000
30
0.0000
9
$LIMMIN
10
0.0000
20
0.0000
9
$LIMMAX
10
22.0000
20
17.0000
0
ENDSEC
0
SECTION
2
TABLES
0
TABLE
2
LTYPE
70
2
0
LTYPE
2
CONTINUOUS
70
0
3
Solid line
72
65
73
0
40
0.0000
0
LTYPE
2
DASHED
70
0
3
__ __ __
72
65
73
2
40
0.1500
49
0.1000
49
-0.0500
0
ENDTAB
0
TABLE
2
LAYER
70
12
0
LAYER
2
0
70
0
62
7
6
CONTINUOUS
0
LAYER
2
BORDER
70
0
62
7
6
CONTINUOUS
0
LAYER
2
TITLE_BLOCK
70
0
62
7
6
CONTINUOUS
0
LAYER
2
ASSEMBLY
70
0
62
7
6
CONTINUOUS
0
LAYER
2
CABLE
70
0
62
7
6
CONTINUOUS
0
LAYER
2
DIMENSIONS
70
0
62
3
6
CONTINUOUS
0
LAYER
2
BALLOONS
70
0
62
5
6
CONTINUOUS
0
LAYER
2
WIRING
70
0
62
7
6
CONTINUOUS
0
LAYER
2
SHIELDS
70
0
62
4
6
CONTINUOUS
0
LAYER
2
TABLES
70
0
62
7
6
CONTINUOUS
0
LAYER
2
NOTES
70
0
62
7
6
CONTINUOUS
0
LAYER
2
TEXT
70
0
62
7
6
CONTINUOUS
0
ENDTAB
0
ENDSEC
0
SECTION
2
ENTITIES
0
POLYLINE
8
BORDER
66
1
10
0.0000
20
0.0000
30
0.0000
70
1
0
VERTEX
8
BORDER
10
0.3750
20
16.6250
30
0.0000
0
VERTEX
8
BORDER
10
21.6250
20
16.6250
30
0.0000
0
VERTEX
8
BORDER
10
21.6250
20
0.3750
30
0.0000
0
VERTEX
8
BORDER
10
0.3750
20
0.3750
30
0.0000
0
SEQEND
8
BORDER
0
POLYLINE
8
BORDER
66
1
10
0.0000
20
0.0000
30
0.0000
70
1
0
VERTEX
8
BORDER
10
0.7500
20
16.2500
30
0.0000
0
VERTEX
8
BORDER
10
21.2500
20
16.2500
30
0.0000
0
VERTEX
8
BORDER
10
21.2500
20
0.7500
30
0.0000
0
VERTEX
8
BORDER
10
0.7500
20
0.7500
30
0.0000
0
SEQEND
8
BORDER
0
TEXT
8
BORDER
10
2.8000
20
16.3148
30
0.0000
40
0.2448
1
5
72
1
11
2.8000
21
16.3148
31
0.0000
0
TEXT
8
BORDER
10
2.8000
20
0.4398
30
0.0000
40
0.2448
1
5
72
1
11
2.8000
21
0.4398
31
0.0000
0
TEXT
8
BORDER
10
6.9000
20
16.3148
30
0.0000
40
0.2448
1
4
72
1
11
6.9000
21
16.3148
31
0.0000
0
TEXT
8
BORDER
10
6.9000
20
0.4398
30
0.0000
40
0.2448
1
4
72
1
11
6.9000
21
0.4398
31
0.0000
0
LINE
8
BORDER
10
4.8500
20
16.6250
30
0.0000
11
4.8500
21
16.2500
31
0.0000
0
LINE
8
BORDER
10
4.8500
20
0.7500
30
0.0000
11
4.8500
21
0.3750
31
0.0000
0
TEXT
8
BORDER
10
11.0000
20
16.3148
30
0.0000
40
0.2448
1
3
72
1
11
11.0000
21
16.3148
31
0.0000
0
TEXT
8
BORDER
10
11.0000
20
0.4398
30
0.0000
40
0.2448
1
3
72
1
11
11.0000
21
0.4398
31
0.0000
0
LINE
8
BORDER
10
8.9500
20
16.6250
30
0.0000
11
8.9500
21
16.2500
31
0.0000
0
LINE
8
BORDER
10
8.9500
20
0.7500
30
0.0000
11
8.9500
21
0.3750
31
0.0000
0
TEXT
8
BORDER
10
15.1000
20
16.3148
30
0.0000
40
0.2448
1
2
72
1
11
15.1000
21
16.3148
31
0.0000
0
TEXT
8
BORDER
10
15.1000
20
0.4398
30
0.0000
40
0.2448
1
2
72
1
11
15.1000
21
0.4398
31
0.0000
0
LINE
8
BORDER
10
13.0500
20
16.6250
30
0.0000
11
13.0500
21
16.2500
31
0.0000
0
LINE
8
BORDER
10
13.0500
20
0.7500
30
0.0000
11
13.0500
21
0.3750
31
0.0000
0
TEXT
8
BORDER
10
19.2000
20
16.3148
30
0.0000
40
0.2448
1
1
72
1
11
19.2000
21
16.3148
31
0.0000
0
TEXT
8
BORDER
10
19.2000
20
0.4398
30
0.0000
40
0.2448
1
1
72
1
11
19.2000
21
0.4398
31
0.0000
0
LINE
8
BORDER
10
17.1500
20
16.6250
30
0.0000
11
17.1500
21
16.2500
31
0.0000
0
LINE
8
BORDER
10
17.1500
20
0.7500
30
0.0000
11
17.1500
21
0.3750
31
0.0000
0
TEXT
8
BORDER
10
0.5625
20
13.5439
30
0.0000
40
0.2448
1
C
72
1
11
0.5625
21
13.5439
31
0.0000
0
TEXT
8
BORDER
10
21.4375
20
13.5439
30
0.0000
40
0.2448
1
C
72
1
11
21.4375
21
13.5439
31
0.0000
0
TEXT
8
BORDER
10
0.5625
20
8.3773
30
0.0000
40
0.2448
1
B
72
1
11
0.5625
21
8.3773
31
0.0000
0
TEXT
8
BORDER
10
21.4375
20
8.3773
30
0.0000
40
0.2448
1
B
72
1
11
21.4375
21
8.3773
31
0.0000
0
LINE
8
BORDER
10
0.3750
20
11.0833
30
0.0000
11
0.7500
21
11.0833
31
0.0000
0
LINE
8
BORDER
10
21.2500
20
11.0833
30
0.0000
11
21.6250
21
11.0833
31
0.0000
0
TEXT
8
BORDER
10
0.5625
20
3.2106
30
0.0000
40
0.2448
1
A
72
1
11
0.5625
21
3.2106
31
0.0000
0
TEXT
8
BORDER
10
21.4375
20
3.2106
30
0.0000
40
0.2448
1
A
72
1
11
21.4375
21
3.2106
31
0.0000
0
LINE
8
BORDER
10
0.3750
20
5.9167
30
0.0000
11
0.7500
21
5.9167
31
0.0000
0
LINE
8
BORDER
10
21.2500
20
5.9167
30
0.0000
11
21.6250
21
5.9167
31
0.0000
0
POLYLINE
8
BORDER
66
1
10
0.0000
20
0.0000
30
0.0000
70
1
0
VERTEX
8
BORDER
10
0.7500
20
16.2500
30
0.0000
0
VERTEX
8
BORDER
10
3.5000
20
16.2500
30
0.0000
0
VERTEX
8
BORDER
10
3.5000
20
15.7500
30
0.0000
0
VERTEX
8
BORDER
10
0.7500
20
15.7500
30
0.0000
0
SEQEND
8
BORDER
0
TEXT
8
BORDER
10
2.1250
20
16.0614
30
0.0000
40
0.1224
1
W101-001  REV A
50
180.0000
72
1
11
2.1250
21
16.0614
31
0.0000
0
TEXT
8
0
10
0.9167
20
15.4129
30
0.0000
40
0.1224
1
WIRE LIST AND TABLES
0
TEXT
8
TABLES
10
0.9167
20
14.9939
30
0.0000
40
0.1224
1
WIRE LIST
0
POLYLINE
8
TABLES
66
1
10
0.0000
20
0.0000
30
0.0000
70
1
0
VERTEX
8
TABLES
10
0.9167
20
14.8843
30
0.0000
0
VERTEX
8
TABLES
10
11.9267
20
14.8843
30
0.0000
0
VERTEX
8
TABLES
10
11.9267
20
14.5434
30
0.0000
0
VERTEX
8
TABLES
10
0.9167
20
14.5434
30
0.0000
0
SEQEND
8
TABLES
0
TEXT
8
TABLES
10
1.2366
20
14.6408
30
0.0000
40
0.1224
1
WIRE
72
1
11
1.2366
21
14.6408
31
0.0000
0
TEXT
8
TABLES
10
1.9050
20
14.6408
30
0.0000
40
0.1224
1
FROM
72
1
11
1.9050
21
14.6408
31
0.0000
0
TEXT
8
TABLES
10
2.4968
20
14.6408
30
0.0000
40
0.1224
1
PIN
72
1
11
2.4968
21
14.6408
31
0.0000
0
TEXT
8
TABLES
10
2.9989
20
14.6408
30
0.0000
40
0.1224
1
TO
72
1
11
2.9989
21
14.6408
31
0.0000
0
TEXT
8
TABLES
10
3.5009
20
14.6408
30
0.0000
40
0.1224
1
PIN
72
1
11
3.5009
21
14.6408
31
0.0000
0
TEXT
8
TABLES
10
4.5475
20
14.6408
30
0.0000
40
0.1224
1
SIGNAL
72
1
11
4.5475
21
14.6408
31
0.0000
0
TEXT
8
TABLES
10
5.6564
20
14.6408
30
0.0000
40
0.1224
1
AWG
72
1
11
5.6564
21
14.6408
31
0.0000
0
TEXT
8
TABLES
10
6.3673
20
14.6408
30
0.0000
40
0.1224
1
COLOR
72
1
11
6.3673
21
14.6408
31
0.0000
0
TEXT
8
TABLES
10
7.6705
20
14.6408
30
0.0000
40
0.1224
1
WIRE P/N
72
1
11
7.6705
21
14.6408
31
0.0000
0
TEXT
8
TABLES
10
8.9784
20
14.6408
30
0.0000
40
0.1224
1
GROUP
72
1
11
8.9784
21
14.6408
31
0.0000
0
TEXT
8
TABLES
10
9.9729
20
14.6408
30
0.0000
40
0.1224
1
LENGTH (IN)
72
1
11
9.9729
21
14.6408
31
0.0000
0
TEXT
8
TABLES
10
11.2420
20
14.6408
30
0.0000
40
0.1224
1
NOTES
72
1
11
11.2420
21
14.6408
31
0.0000
0
TEXT
8
TABLES
10
0.9897
20
14.3242
30
0.0000
40
0.1224
1
W1
0
TEXT
8
TABLES
10
1.6297
20
14.3242
30
0.0000
40
0.1224
1
P1
0
TEXT
8
TABLES
10
2.4968
20
14.3242
30
0.0000
40
0.1224
1
1
72
1
11
2.4968
21
14.3242
31
0.0000
0
TEXT
8
TABLES
10
2.8134
20
14.3242
30
0.0000
40
0.1224
1
P2
0
TEXT
8
TABLES
10
3.5009
20
14.3242
30
0.0000
40
0.1224
1
1
72
1
11
3.5009
21
14.3242
31
0.0000
0
TEXT
8
TABLES
10
3.8175
20
14.3242
30
0.0000
40
0.1224
1
+28V PWR
0
TEXT
8
TABLES
10
5.6564
20
14.3242
30
0.0000
40
0.1224
1
20
72
1
11
5.6564
21
14.3242
31
0.0000
0
TEXT
8
TABLES
10
6.0352
20
14.3242
30
0.0000
40
0.1224
1
RED
0
TEXT
8
TABLES
10
6.8456
20
14.3242
30
0.0000
40
0.1224
1
M22759/16-20-2
0
TEXT
8
TABLES
10
9.9729
20
14.3242
30
0.0000
40
0.1224
1
48
72
1
11
9.9729
21
14.3242
31
0.0000
0
LINE
8
TABLES
10
0.9167
20
14.2390
30
0.0000
11
11.9267
21
14.2390
31
0.0000
0
TEXT
8
TABLES
10
0.9897
20
14.0198
30
0.0000
40
0.1224
1
W2
0
TEXT
8
TABLES
10
1.6297
20
14.0198
30
0.0000
40
0.1224
1
P1
0
TEXT
8
TABLES
10
2.4968
20
14.0198
30
0.0000
40
0.1224
1
2
72
1
11
2.4968
21
14.0198
31
0.0000
0
TEXT
8
TABLES
10
2.8134
20
14.0198
30
0.0000
40
0.1224
1
P2
0
TEXT
8
TABLES
10
3.5009
20
14.0198
30
0.0000
40
0.1224
1
2
72
1
11
3.5009
21
14.0198
31
0.0000
0
TEXT
8
TABLES
10
3.8175
20
14.0198
30
0.0000
40
0.1224
1
28V RTN
0
TEXT
8
TABLES
10
5.6564
20
14.0198
30
0.0000
40
0.1224
1
20
72
1
11
5.6564
21
14.0198
31
0.0000
0
TEXT
8
TABLES
10
6.0352
20
14.0198
30
0.0000
40
0.1224
1
BLK
0
TEXT
8
TABLES
10
6.8456
20
14.0198
30
0.0000
40
0.1224
1
M22759/16-20-0
0
TEXT
8
TABLES
10
9.9729
20
14.0198
30
0.0000
40
0.1224
1
48
72
1
11
9.9729
21
14.0198
31
0.0000
0
LINE
8
TABLES
10
0.9167
20
13.9345
30
0.0000
11
11.9267
21
13.9345
31
0.0000
0
TEXT
8
TABLES
10
0.9897
20
13.7154
30
0.0000
40
0.1224
1
W3
0
TEXT
8
TABLES
10
1.6297
20
13.7154
30
0.0000
40
0.1224
1
P1
0
TEXT
8
TABLES
10
2.4968
20
13.7154
30
0.0000
40
0.1224
1
3
72
1
11
2.4968
21
13.7154
31
0.0000
0
TEXT
8
TABLES
10
2.8134
20
13.7154
30
0.0000
40
0.1224
1
P2
0
TEXT
8
TABLES
10
3.5009
20
13.7154
30
0.0000
40
0.1224
1
3
72
1
11
3.5009
21
13.7154
31
0.0000
0
TEXT
8
TABLES
10
3.8175
20
13.7154
30
0.0000
40
0.1224
1
RS422 TX+
0
TEXT
8
TABLES
10
5.6564
20
13.7154
30
0.0000
40
0.1224
1
22
72
1
11
5.6564
21
13.7154
31
0.0000
0
TEXT
8
TABLES
10
6.0352
20
13.7154
30
0.0000
40
0.1224
1
WHT
0
TEXT
8
TABLES
10
6.8456
20
13.7154
30
0.0000
40
0.1224
1
(M27500-22TG2T14)
0
TEXT
8
TABLES
10
8.6415
20
13.7154
30
0.0000
40
0.1224
1
TSP1
0
TEXT
8
TABLES
10
9.9729
20
13.7154
30
0.0000
40
0.1224
1
48
72
1
11
9.9729
21
13.7154
31
0.0000
0
LINE
8
TABLES
10
0.9167
20
13.6301
30
0.0000
11
11.9267
21
13.6301
31
0.0000
0
TEXT
8
TABLES
10
0.9897
20
13.4109
30
0.0000
40
0.1224
1
W4
0
TEXT
8
TABLES
10
1.6297
20
13.4109
30
0.0000
40
0.1224
1
P1
0
TEXT
8
TABLES
10
2.4968
20
13.4109
30
0.0000
40
0.1224
1
4
72
1
11
2.4968
21
13.4109
31
0.0000
0
TEXT
8
TABLES
10
2.8134
20
13.4109
30
0.0000
40
0.1224
1
P2
0
TEXT
8
TABLES
10
3.5009
20
13.4109
30
0.0000
40
0.1224
1
4
72
1
11
3.5009
21
13.4109
31
0.0000
0
TEXT
8
TABLES
10
3.8175
20
13.4109
30
0.0000
40
0.1224
1
RS422 TX-
0
TEXT
8
TABLES
10
5.6564
20
13.4109
30
0.0000
40
0.1224
1
22
72
1
11
5.6564
21
13.4109
31
0.0000
0
TEXT
8
TABLES
10
6.0352
20
13.4109
30
0.0000
40
0.1224
1
BLU
0
TEXT
8
TABLES
10
6.8456
20
13.4109
30
0.0000
40
0.1224
1
(M27500-22TG2T14)
0
TEXT
8
TABLES
10
8.6415
20
13.4109
30
0.0000
40
0.1224
1
TSP1
0
TEXT
8
TABLES
10
9.9729
20
13.4109
30
0.0000
40
0.1224
1
48
72
1
11
9.9729
21
13.4109
31
0.0000
0
LINE
8
TABLES
10
0.9167
20
13.3257
30
0.0000
11
11.9267
21
13.3257
31
0.0000
0
TEXT
8
TABLES
10
0.9897
20
13.1065
30
0.0000
40
0.1224
1
W5
0
TEXT
8
TABLES
10
1.6297
20
13.1065
30
0.0000
40
0.1224
1
P1
0
TEXT
8
TABLES
10
2.4968
20
13.1065
30
0.0000
40
0.1224
1
5
72
1
11
2.4968
21
13.1065
31
0.0000
0
TEXT
8
TABLES
10
2.8134
20
13.1065
30
0.0000
40
0.1224
1
P2
0
TEXT
8
TABLES
10
3.5009
20
13.1065
30
0.0000
40
0.1224
1
5
72
1
11
3.5009
21
13.1065
31
0.0000
0
TEXT
8
TABLES
10
3.8175
20
13.1065
30
0.0000
40
0.1224
1
RS422 RX+
0
TEXT
8
TABLES
10
5.6564
20
13.1065
30
0.0000
40
0.1224
1
22
72
1
11
5.6564
21
13.1065
31
0.0000
0
TEXT
8
TABLES
10
6.0352
20
13.1065
30
0.0000
40
0.1224
1
WHT
0
TEXT
8
TABLES
10
6.8456
20
13.1065
30
0.0000
40
0.1224
1
M22759/16-22-9
0
TEXT
8
TABLES
10
8.6415
20
13.1065
30
0.0000
40
0.1224
1
TP2
0
TEXT
8
TABLES
10
9.9729
20
13.1065
30
0.0000
40
0.1224
1
48
72
1
11
9.9729
21
13.1065
31
0.0000
0
LINE
8
TABLES
10
0.9167
20
13.0213
30
0.0000
11
11.9267
21
13.0213
31
0.0000
0
TEXT
8
TABLES
10
0.9897
20
12.8021
30
0.0000
40
0.1224
1
W6
0
TEXT
8
TABLES
10
1.6297
20
12.8021
30
0.0000
40
0.1224
1
P1
0
TEXT
8
TABLES
10
2.4968
20
12.8021
30
0.0000
40
0.1224
1
6
72
1
11
2.4968
21
12.8021
31
0.0000
0
TEXT
8
TABLES
10
2.8134
20
12.8021
30
0.0000
40
0.1224
1
P2
0
TEXT
8
TABLES
10
3.5009
20
12.8021
30
0.0000
40
0.1224
1
6
72
1
11
3.5009
21
12.8021
31
0.0000
0
TEXT
8
TABLES
10
3.8175
20
12.8021
30
0.0000
40
0.1224
1
RS422 RX-
0
TEXT
8
TABLES
10
5.6564
20
12.8021
30
0.0000
40
0.1224
1
22
72
1
11
5.6564
21
12.8021
31
0.0000
0
TEXT
8
TABLES
10
6.0352
20
12.8021
30
0.0000
40
0.1224
1
BLU
0
TEXT
8
TABLES
10
6.8456
20
12.8021
30
0.0000
40
0.1224
1
M22759/16-22-6
0
TEXT
8
TABLES
10
8.6415
20
12.8021
30
0.0000
40
0.1224
1
TP2
0
TEXT
8
TABLES
10
9.9729
20
12.8021
30
0.0000
40
0.1224
1
48
72
1
11
9.9729
21
12.8021
31
0.0000
0
LINE
8
TABLES
10
0.9167
20
12.7169
30
0.0000
11
11.9267
21
12.7169
31
0.0000
0
TEXT
8
TABLES
10
0.9897
20
12.4977
30
0.0000
40
0.1224
1
W7
0
TEXT
8
TABLES
10
1.6297
20
12.4977
30
0.0000
40
0.1224
1
P1
0
TEXT
8
TABLES
10
2.4968
20
12.4977
30
0.0000
40
0.1224
1
7
72
1
11
2.4968
21
12.4977
31
0.0000
0
TEXT
8
TABLES
10
2.8134
20
12.4977
30
0.0000
40
0.1224
1
P2
0
TEXT
8
TABLES
10
3.5009
20
12.4977
30
0.0000
40
0.1224
1
8
72
1
11
3.5009
21
12.4977
31
0.0000
0
TEXT
8
TABLES
10
3.8175
20
12.4977
30
0.0000
40
0.1224
1
DISCRETE IN 1
0
TEXT
8
TABLES
10
5.6564
20
12.4977
30
0.0000
40
0.1224
1
22
72
1
11
5.6564
21
12.4977
31
0.0000
0
TEXT
8
TABLES
10
6.0352
20
12.4977
30
0.0000
40
0.1224
1
WHT
0
TEXT
8
TABLES
10
6.8456
20
12.4977
30
0.0000
40
0.1224
1
M22759/16-22-9
0
TEXT
8
TABLES
10
9.9729
20
12.4977
30
0.0000
40
0.1224
1
48
72
1
11
9.9729
21
12.4977
31
0.0000
0
LINE
8
TABLES
10
0.9167
20
12.4125
30
0.0000
11
11.9267
21
12.4125
31
0.0000
0
TEXT
8
TABLES
10
0.9897
20
12.1933
30
0.0000
40
0.1224
1
W8
0
TEXT
8
TABLES
10
1.6297
20
12.1933
30
0.0000
40
0.1224
1
P1
0
TEXT
8
TABLES
10
2.4968
20
12.1933
30
0.0000
40
0.1224
1
8
72
1
11
2.4968
21
12.1933
31
0.0000
0
TEXT
8
TABLES
10
2.8134
20
12.1933
30
0.0000
40
0.1224
1
P2
0
TEXT
8
TABLES
10
3.5009
20
12.1933
30
0.0000
40
0.1224
1
7
72
1
11
3.5009
21
12.1933
31
0.0000
0
TEXT
8
TABLES
10
3.8175
20
12.1933
30
0.0000
40
0.1224
1
DISCRETE OUT 1
0
TEXT
8
TABLES
10
5.6564
20
12.1933
30
0.0000
40
0.1224
1
22
72
1
11
5.6564
21
12.1933
31
0.0000
0
TEXT
8
TABLES
10
6.0352
20
12.1933
30
0.0000
40
0.1224
1
WHT
0
TEXT
8
TABLES
10
6.8456
20
12.1933
30
0.0000
40
0.1224
1
M22759/16-22-9
0
TEXT
8
TABLES
10
9.9729
20
12.1933
30
0.0000
40
0.1224
1
48
72
1
11
9.9729
21
12.1933
31
0.0000
0
LINE
8
TABLES
10
0.9167
20
12.1080
30
0.0000
11
11.9267
21
12.1080
31
0.0000
0
TEXT
8
TABLES
10
0.9897
20
11.8889
30
0.0000
40
0.1224
1
W9
0
TEXT
8
TABLES
10
1.6297
20
11.8889
30
0.0000
40
0.1224
1
P1
0
TEXT
8
TABLES
10
2.4968
20
11.8889
30
0.0000
40
0.1224
1
9
72
1
11
2.4968
21
11.8889
31
0.0000
0
TEXT
8
TABLES
10
2.8134
20
11.8889
30
0.0000
40
0.1224
1
SP1
0
TEXT
8
TABLES
10
3.8175
20
11.8889
30
0.0000
40
0.1224
1
SIG GND
0
TEXT
8
TABLES
10
5.6564
20
11.8889
30
0.0000
40
0.1224
1
22
72
1
11
5.6564
21
11.8889
31
0.0000
0
TEXT
8
TABLES
10
6.0352
20
11.8889
30
0.0000
40
0.1224
1
BLK
0
TEXT
8
TABLES
10
6.8456
20
11.8889
30
0.0000
40
0.1224
1
M22759/16-22-0
0
TEXT
8
TABLES
10
9.9729
20
11.8889
30
0.0000
40
0.1224
1
42
72
1
11
9.9729
21
11.8889
31
0.0000
0
LINE
8
TABLES
10
0.9167
20
11.8036
30
0.0000
11
11.9267
21
11.8036
31
0.0000
0
TEXT
8
TABLES
10
0.9897
20
11.5844
30
0.0000
40
0.1224
1
W10
0
TEXT
8
TABLES
10
1.6297
20
11.5844
30
0.0000
40
0.1224
1
P1
0
TEXT
8
TABLES
10
2.4968
20
11.5844
30
0.0000
40
0.1224
1
10
72
1
11
2.4968
21
11.5844
31
0.0000
0
TEXT
8
TABLES
10
2.8134
20
11.5844
30
0.0000
40
0.1224
1
P1
0
TEXT
8
TABLES
10
3.5009
20
11.5844
30
0.0000
40
0.1224
1
11
72
1
11
3.5009
21
11.5844
31
0.0000
0
TEXT
8
TABLES
10
3.8175
20
11.5844
30
0.0000
40
0.1224
1
ADDR STRAP
0
TEXT
8
TABLES
10
5.6564
20
11.5844
30
0.0000
40
0.1224
1
22
72
1
11
5.6564
21
11.5844
31
0.0000
0
TEXT
8
TABLES
10
6.0352
20
11.5844
30
0.0000
40
0.1224
1
WHT
0
TEXT
8
TABLES
10
6.8456
20
11.5844
30
0.0000
40
0.1224
1
M22759/16-22-9
0
TEXT
8
TABLES
10
9.9729
20
11.5844
30
0.0000
40
0.1224
1
AR
72
1
11
9.9729
21
11.5844
31
0.0000
0
TEXT
8
TABLES
10
10.6304
20
11.5844
30
0.0000
40
0.1224
1
JUMPER IN P1
0
LINE
8
TABLES
10
0.9167
20
11.4992
30
0.0000
11
11.9267
21
11.4992
31
0.0000
0
TEXT
8
TABLES
10
0.9897
20
11.2800
30
0.0000
40
0.1224
1
W11
0
TEXT
8
TABLES
10
1.6297
20
11.2800
30
0.0000
40
0.1224
1
P1
0
TEXT
8
TABLES
10
2.4968
20
11.2800
30
0.0000
40
0.1224
1
12
72
1
11
2.4968
21
11.2800
31
0.0000
0
TEXT
8
TABLES
10
2.8134
20
11.2800
30
0.0000
40
0.1224
1
P2
0
TEXT
8
TABLES
10
3.5009
20
11.2800
30
0.0000
40
0.1224
1
12
72
1
11
3.5009
21
11.2800
31
0.0000
0
TEXT
8
TABLES
10
3.8175
20
11.2800
30
0.0000
40
0.1224
1
CHASSIS GND
0
TEXT
8
TABLES
10
5.6564
20
11.2800
30
0.0000
40
0.1224
1
20
72
1
11
5.6564
21
11.2800
31
0.0000
0
TEXT
8
TABLES
10
6.0352
20
11.2800
30
0.0000
40
0.1224
1
GRN
0
TEXT
8
TABLES
10
6.8456
20
11.2800
30
0.0000
40
0.1224
1
M22759/16-20-5
0
TEXT
8
TABLES
10
9.9729
20
11.2800
30
0.0000
40
0.1224
1
48
72
1
11
9.9729
21
11.2800
31
0.0000
0
LINE
8
TABLES
10
0.9167
20
11.1948
30
0.0000
11
11.9267
21
11.1948
31
0.0000
0
TEXT
8
TABLES
10
0.9897
20
10.9756
30
0.0000
40
0.1224
1
W12
0
TEXT
8
TABLES
10
1.6297
20
10.9756
30
0.0000
40
0.1224
1
SP1
0
TEXT
8
TABLES
10
2.8134
20
10.9756
30
0.0000
40
0.1224
1
P2
0
TEXT
8
TABLES
10
3.5009
20
10.9756
30
0.0000
40
0.1224
1
9
72
1
11
3.5009
21
10.9756
31
0.0000
0
TEXT
8
TABLES
10
3.8175
20
10.9756
30
0.0000
40
0.1224
1
SIG GND A
0
TEXT
8
TABLES
10
5.6564
20
10.9756
30
0.0000
40
0.1224
1
22
72
1
11
5.6564
21
10.9756
31
0.0000
0
TEXT
8
TABLES
10
6.0352
20
10.9756
30
0.0000
40
0.1224
1
BLK
0
TEXT
8
TABLES
10
6.8456
20
10.9756
30
0.0000
40
0.1224
1
M22759/16-22-0
0
TEXT
8
TABLES
10
9.9729
20
10.9756
30
0.0000
40
0.1224
1
6
72
1
11
9.9729
21
10.9756
31
0.0000
0
LINE
8
TABLES
10
0.9167
20
10.8904
30
0.0000
11
11.9267
21
10.8904
31
0.0000
0
TEXT
8
TABLES
10
0.9897
20
10.6712
30
0.0000
40
0.1224
1
W13
0
TEXT
8
TABLES
10
1.6297
20
10.6712
30
0.0000
40
0.1224
1
SP1
0
TEXT
8
TABLES
10
2.8134
20
10.6712
30
0.0000
40
0.1224
1
P2
0
TEXT
8
TABLES
10
3.5009
20
10.6712
30
0.0000
40
0.1224
1
10
72
1
11
3.5009
21
10.6712
31
0.0000
0
TEXT
8
TABLES
10
3.8175
20
10.6712
30
0.0000
40
0.1224
1
SIG GND B
0
TEXT
8
TABLES
10
5.6564
20
10.6712
30
0.0000
40
0.1224
1
22
72
1
11
5.6564
21
10.6712
31
0.0000
0
TEXT
8
TABLES
10
6.0352
20
10.6712
30
0.0000
40
0.1224
1
BLK
0
TEXT
8
TABLES
10
6.8456
20
10.6712
30
0.0000
40
0.1224
1
M22759/16-22-0
0
TEXT
8
TABLES
10
9.9729
20
10.6712
30
0.0000
40
0.1224
1
6
72
1
11
9.9729
21
10.6712
31
0.0000
0
LINE
8
TABLES
10
0.9167
20
10.5859
30
0.0000
11
11.9267
21
10.5859
31
0.0000
0
POLYLINE
8
TABLES
66
1
10
0.0000
20
0.0000
30
0.0000
70
1
0
VERTEX
8
TABLES
10
0.9167
20
14.8843
30
0.0000
0
VERTEX
8
TABLES
10
11.9267
20
14.8843
30
0.0000
0
VERTEX
8
TABLES
10
11.9267
20
10.5859
30
0.0000
0
VERTEX
8
TABLES
10
0.9167
20
10.5859
30
0.0000
0
SEQEND
8
TABLES
0
LINE
8
TABLES
10
1.5566
20
14.8843
30
0.0000
11
1.5566
21
10.5859
31
0.0000
0
LINE
8
TABLES
10
2.2533
20
14.8843
30
0.0000
11
2.2533
21
10.5859
31
0.0000
0
LINE
8
TABLES
10
2.7404
20
14.8843
30
0.0000
11
2.7404
21
10.5859
31
0.0000
0
LINE
8
TABLES
10
3.2574
20
14.8843
30
0.0000
11
3.2574
21
10.5859
31
0.0000
0
LINE
8
TABLES
10
3.7445
20
14.8843
30
0.0000
11
3.7445
21
10.5859
31
0.0000
0
LINE
8
TABLES
10
5.3506
20
14.8843
30
0.0000
11
5.3506
21
10.5859
31
0.0000
0
LINE
8
TABLES
10
5.9621
20
14.8843
30
0.0000
11
5.9621
21
10.5859
31
0.0000
0
LINE
8
TABLES
10
6.7725
20
14.8843
30
0.0000
11
6.7725
21
10.5859
31
0.0000
0
LINE
8
TABLES
10
8.5684
20
14.8843
30
0.0000
11
8.5684
21
10.5859
31
0.0000
0
LINE
8
TABLES
10
9.3884
20
14.8843
30
0.0000
11
9.3884
21
10.5859
31
0.0000
0
LINE
8
TABLES
10
10.5573
20
14.8843
30
0.0000
11
10.5573
21
10.5859
31
0.0000
0
TEXT
8
TABLES
10
0.9167
20
10.0281
30
0.0000
40
0.1224
1
WIRE GROUPS AND SHIELDS
0
POLYLINE
8
TABLES
66
1
10
0.0000
20
0.0000
30
0.0000
70
1
0
VERTEX
8
TABLES
10
0.9167
20
9.9185
30
0.0000
0
VERTEX
8
TABLES
10
16.3666
20
9.9185
30
0.0000
0
VERTEX
8
TABLES
10
16.3666
20
9.5776
30
0.0000
0
VERTEX
8
TABLES
10
0.9167
20
9.5776
30
0.0000
0
SEQEND
8
TABLES
0
TEXT
8
TABLES
10
1.3266
20
9.6750
30
0.0000
40
0.1224
1
GROUP
72
1
11
1.3266
21
9.6750
31
0.0000
0
TEXT
8
TABLES
10
2.8902
20
9.6750
30
0.0000
40
0.1224
1
TYPE
72
1
11
2.8902
21
9.6750
31
0.0000
0
TEXT
8
TABLES
10
4.4443
20
9.6750
30
0.0000
40
0.1224
1
WIRES
72
1
11
4.4443
21
9.6750
31
0.0000
0
TEXT
8
TABLES
10
5.6860
20
9.6750
30
0.0000
40
0.1224
1
CABLE P/N
72
1
11
5.6860
21
9.6750
31
0.0000
0
TEXT
8
TABLES
10
7.1030
20
9.6750
30
0.0000
40
0.1224
1
SHIELD P/N
72
1
11
7.1030
21
9.6750
31
0.0000
0
TEXT
8
TABLES
10
8.8040
20
9.6750
30
0.0000
40
0.1224
1
SHIELD TERM
72
1
11
8.8040
21
9.6750
31
0.0000
0
TEXT
8
TABLES
10
10.8743
20
9.6750
30
0.0000
40
0.1224
1
SHIELD (FROM END)
72
1
11
10.8743
21
9.6750
31
0.0000
0
TEXT
8
TABLES
10
12.6318
20
9.6750
30
0.0000
40
0.1224
1
SHIELD (TO END)
72
1
11
12.6318
21
9.6750
31
0.0000
0
TEXT
8
TABLES
10
14.9054
20
9.6750
30
0.0000
40
0.1224
1
NOTES
72
1
11
14.9054
21
9.6750
31
0.0000
0
TEXT
8
TABLES
10
0.9897
20
9.3584
30
0.0000
40
0.1224
1
TSP1
0
TEXT
8
TABLES
10
1.8097
20
9.3584
30
0.0000
40
0.1224
1
SHIELDED TWISTED PAIR
0
TEXT
8
TABLES
10
4.1168
20
9.3584
30
0.0000
40
0.1224
1
W3, W4
0
TEXT
8
TABLES
10
4.9179
20
9.3584
30
0.0000
40
0.1224
1
M27500-22TG2T14
0
TEXT
8
TABLES
10
7.7518
20
9.3584
30
0.0000
40
0.1224
1
M83519/2-3 (FIND NO. 15)
0
TEXT
8
TABLES
10
10.0023
20
9.3584
30
0.0000
40
0.1224
1
P1: BACKSHELL
0
TEXT
8
TABLES
10
11.8924
20
9.3584
30
0.0000
40
0.1224
1
P2: PIN 11
0
TEXT
8
TABLES
10
13.5173
20
9.3584
30
0.0000
40
0.1224
1
RS422 TX
0
LINE
8
TABLES
10
0.9167
20
9.2732
30
0.0000
11
16.3666
21
9.2732
31
0.0000
0
TEXT
8
TABLES
10
0.9897
20
9.0540
30
0.0000
40
0.1224
1
TP2
0
TEXT
8
TABLES
10
1.8097
20
9.0540
30
0.0000
40
0.1224
1
TWISTED PAIR
0
TEXT
8
TABLES
10
4.1168
20
9.0540
30
0.0000
40
0.1224
1
W5, W6
0
TEXT
8
TABLES
10
13.5173
20
9.0540
30
0.0000
40
0.1224
1
RS422 RX; 10 TWISTS PER FOO...
0
LINE
8
TABLES
10
0.9167
20
8.9687
30
0.0000
11
16.3666
21
8.9687
31
0.0000
0
POLYLINE
8
TABLES
66
1
10
0.0000
20
0.0000
30
0.0000
70
1
0
VERTEX
8
TABLES
10
0.9167
20
9.9185
30
0.0000
0
VERTEX
8
TABLES
10
16.3666
20
9.9185
30
0.0000
0
VERTEX
8
TABLES
10
16.3666
20
8.9687
30
0.0000
0
VERTEX
8
TABLES
10
0.9167
20
8.9687
30
0.0000
0
SEQEND
8
TABLES
0
LINE
8
TABLES
10
1.7366
20
9.9185
30
0.0000
11
1.7366
21
8.9687
31
0.0000
0
LINE
8
TABLES
10
4.0438
20
9.9185
30
0.0000
11
4.0438
21
8.9687
31
0.0000
0
LINE
8
TABLES
10
4.8448
20
9.9185
30
0.0000
11
4.8448
21
8.9687
31
0.0000
0
LINE
8
TABLES
10
6.5272
20
9.9185
30
0.0000
11
6.5272
21
8.9687
31
0.0000
0
LINE
8
TABLES
10
7.6787
20
9.9185
30
0.0000
11
7.6787
21
8.9687
31
0.0000
0
LINE
8
TABLES
10
9.9293
20
9.9185
30
0.0000
11
9.9293
21
8.9687
31
0.0000
0
LINE
8
TABLES
10
11.8193
20
9.9185
30
0.0000
11
11.8193
21
8.9687
31
0.0000
0
LINE
8
TABLES
10
13.4442
20
9.9185
30
0.0000
11
13.4442
21
8.9687
31
0.0000
0
TEXT
8
TABLES
10
0.9167
20
8.4109
30
0.0000
40
0.1224
1
SPLICES
0
POLYLINE
8
TABLES
66
1
10
0.0000
20
0.0000
30
0.0000
70
1
0
VERTEX
8
TABLES
10
0.9167
20
8.3013
30
0.0000
0
VERTEX
8
TABLES
10
9.1807
20
8.3013
30
0.0000
0
VERTEX
8
TABLES
10
9.1807
20
7.9604
30
0.0000
0
VERTEX
8
TABLES
10
0.9167
20
7.9604
30
0.0000
0
SEQEND
8
TABLES
0
TEXT
8
TABLES
10
1.3220
20
8.0578
30
0.0000
40
0.1224
1
SPLICE
72
1
11
1.3220
21
8.0578
31
0.0000
0
TEXT
8
TABLES
10
2.1656
20
8.0578
30
0.0000
40
0.1224
1
FIND NO
72
1
11
2.1656
21
8.0578
31
0.0000
0
TEXT
8
TABLES
10
3.1750
20
8.0578
30
0.0000
40
0.1224
1
SPLICE P/N
72
1
11
3.1750
21
8.0578
31
0.0000
0
TEXT
8
TABLES
10
4.6534
20
8.0578
30
0.0000
40
0.1224
1
LOCATION
72
1
11
4.6534
21
8.0578
31
0.0000
0
TEXT
8
TABLES
10
6.2313
20
8.0578
30
0.0000
40
0.1224
1
WIRES
72
1
11
6.2313
21
8.0578
31
0.0000
0
TEXT
8
TABLES
10
8.0413
20
8.0578
30
0.0000
40
0.1224
1
NOTES
72
1
11
8.0413
21
8.0578
31
0.0000
0
TEXT
8
TABLES
10
0.9897
20
7.7412
30
0.0000
40
0.1224
1
SP1
0
TEXT
8
TABLES
10
2.1656
20
7.7412
30
0.0000
40
0.1224
1
16
72
1
11
2.1656
21
7.7412
31
0.0000
0
TEXT
8
TABLES
10
2.6770
20
7.7412
30
0.0000
40
0.1224
1
M81824/1-1
0
TEXT
8
TABLES
10
3.8192
20
7.7412
30
0.0000
40
0.1224
1
6 IN FROM P2 FACE
0
TEXT
8
TABLES
10
5.6338
20
7.7412
30
0.0000
40
0.1224
1
W9, W12, W13
0
TEXT
8
TABLES
10
6.9749
20
7.7412
30
0.0000
40
0.1224
1
SIGNAL GROUND SPLICE
0
LINE
8
TABLES
10
0.9167
20
7.6559
30
0.0000
11
9.1807
21
7.6559
31
0.0000
0
POLYLINE
8
TABLES
66
1
10
0.0000
20
0.0000
30
0.0000
70
1
0
VERTEX
8
TABLES
10
0.9167
20
8.3013
30
0.0000
0
VERTEX
8
TABLES
10
9.1807
20
8.3013
30
0.0000
0
VERTEX
8
TABLES
10
9.1807
20
7.6559
30
0.0000
0
VERTEX
8
TABLES
10
0.9167
20
7.6559
30
0.0000
0
SEQEND
8
TABLES
0
LINE
8
TABLES
10
1.7272
20
8.3013
30
0.0000
11
1.7272
21
7.6559
31
0.0000
0
LINE
8
TABLES
10
2.6040
20
8.3013
30
0.0000
11
2.6040
21
7.6559
31
0.0000
0
LINE
8
TABLES
10
3.7461
20
8.3013
30
0.0000
11
3.7461
21
7.6559
31
0.0000
0
LINE
8
TABLES
10
5.5608
20
8.3013
30
0.0000
11
5.5608
21
7.6559
31
0.0000
0
LINE
8
TABLES
10
6.9019
20
8.3013
30
0.0000
11
6.9019
21
7.6559
31
0.0000
0
TEXT
8
TABLES
10
0.9167
20
7.0981
30
0.0000
40
0.1224
1
LABEL SCHEDULE
0
POLYLINE
8
TABLES
66
1
10
0.0000
20
0.0000
30
0.0000
70
1
0
VERTEX
8
TABLES
10
0.9167
20
6.9885
30
0.0000
0
VERTEX
8
TABLES
10
7.7072
20
6.9885
30
0.0000
0
VERTEX
8
TABLES
10
7.7072
20
6.6476
30
0.0000
0
VERTEX
8
TABLES
10
0.9167
20
6.6476
30
0.0000
0
SEQEND
8
TABLES
0
TEXT
8
TABLES
10
1.3550
20
6.7450
30
0.0000
40
0.1224
1
FIND NO
72
1
11
1.3550
21
6.7450
31
0.0000
0
TEXT
8
TABLES
10
2.6439
20
6.7450
30
0.0000
40
0.1224
1
LABEL P/N
72
1
11
2.6439
21
6.7450
31
0.0000
0
TEXT
8
TABLES
10
3.9470
20
6.7450
30
0.0000
40
0.1224
1
LEGEND
72
1
11
3.9470
21
6.7450
31
0.0000
0
TEXT
8
TABLES
10
5.7808
20
6.7450
30
0.0000
40
0.1224
1
LOCATION
72
1
11
5.7808
21
6.7450
31
0.0000
0
TEXT
8
TABLES
10
7.4345
20
6.7450
30
0.0000
40
0.1224
1
QTY
72
1
11
7.4345
21
6.7450
31
0.0000
0
TEXT
8
TABLES
10
1.3550
20
6.4284
30
0.0000
40
0.1224
1
7
72
1
11
1.3550
21
6.4284
31
0.0000
0
TEXT
8
TABLES
10
1.8664
20
6.4284
30
0.0000
40
0.1224
1
TMS-SCE-1/2-2.0-9
0
TEXT
8
TABLES
10
3.5674
20
6.4284
30
0.0000
40
0.1224
1
W101-P1
0
TEXT
8
TABLES
10
4.4728
20
6.4284
30
0.0000
40
0.1224
1
CABLE, ADJACENT TO P1
0
TEXT
8
TABLES
10
7.4345
20
6.4284
30
0.0000
40
0.1224
1
1
72
1
11
7.4345
21
6.4284
31
0.0000
0
LINE
8
TABLES
10
0.9167
20
6.3431
30
0.0000
11
7.7072
21
6.3431
31
0.0000
0
TEXT
8
TABLES
10
1.3550
20
6.1240
30
0.0000
40
0.1224
1
7
72
1
11
1.3550
21
6.1240
31
0.0000
0
TEXT
8
TABLES
10
1.8664
20
6.1240
30
0.0000
40
0.1224
1
TMS-SCE-1/2-2.0-9
0
TEXT
8
TABLES
10
3.5674
20
6.1240
30
0.0000
40
0.1224
1
W101-P2
0
TEXT
8
TABLES
10
4.4728
20
6.1240
30
0.0000
40
0.1224
1
CABLE, ADJACENT TO P2
0
TEXT
8
TABLES
10
7.4345
20
6.1240
30
0.0000
40
0.1224
1
1
72
1
11
7.4345
21
6.1240
31
0.0000
0
LINE
8
TABLES
10
0.9167
20
6.0387
30
0.0000
11
7.7072
21
6.0387
31
0.0000
0
TEXT
8
TABLES
10
1.3550
20
5.8195
30
0.0000
40
0.1224
1
17
72
1
11
1.3550
21
5.8195
31
0.0000
0
TEXT
8
TABLES
10
1.8664
20
5.8195
30
0.0000
40
0.1224
1
TMS-SCE-1/8-2.0-9
0
TEXT
8
TABLES
10
3.5674
20
5.8195
30
0.0000
40
0.1224
1
W1
0
TEXT
8
TABLES
10
4.4728
20
5.8195
30
0.0000
40
0.1224
1
WIRE W1, AT P1-1 AND P2-1
0
TEXT
8
TABLES
10
7.4345
20
5.8195
30
0.0000
40
0.1224
1
2
72
1
11
7.4345
21
5.8195
31
0.0000
0
LINE
8
TABLES
10
0.9167
20
5.7343
30
0.0000
11
7.7072
21
5.7343
31
0.0000
0
TEXT
8
TABLES
10
1.3550
20
5.5151
30
0.0000
40
0.1224
1
17
72
1
11
1.3550
21
5.5151
31
0.0000
0
TEXT
8
TABLES
10
1.8664
20
5.5151
30
0.0000
40
0.1224
1
TMS-SCE-1/8-2.0-9
0
TEXT
8
TABLES
10
3.5674
20
5.5151
30
0.0000
40
0.1224
1
W2
0
TEXT
8
TABLES
10
4.4728
20
5.5151
30
0.0000
40
0.1224
1
WIRE W2, AT P1-2 AND P2-2
0
TEXT
8
TABLES
10
7.4345
20
5.5151
30
0.0000
40
0.1224
1
2
72
1
11
7.4345
21
5.5151
31
0.0000
0
LINE
8
TABLES
10
0.9167
20
5.4299
30
0.0000
11
7.7072
21
5.4299
31
0.0000
0
TEXT
8
TABLES
10
1.3550
20
5.2107
30
0.0000
40
0.1224
1
17
72
1
11
1.3550
21
5.2107
31
0.0000
0
TEXT
8
TABLES
10
1.8664
20
5.2107
30
0.0000
40
0.1224
1
TMS-SCE-1/8-2.0-9
0
TEXT
8
TABLES
10
3.5674
20
5.2107
30
0.0000
40
0.1224
1
W3
0
TEXT
8
TABLES
10
4.4728
20
5.2107
30
0.0000
40
0.1224
1
WIRE W3, AT P1-3 AND P2-3
0
TEXT
8
TABLES
10
7.4345
20
5.2107
30
0.0000
40
0.1224
1
2
72
1
11
7.4345
21
5.2107
31
0.0000
0
LINE
8
TABLES
10
0.9167
20
5.1255
30
0.0000
11
7.7072
21
5.1255
31
0.0000
0
TEXT
8
TABLES
10
1.3550
20
4.9063
30
0.0000
40
0.1224
1
17
72
1
11
1.3550
21
4.9063
31
0.0000
0
TEXT
8
TABLES
10
1.8664
20
4.9063
30
0.0000
40
0.1224
1
TMS-SCE-1/8-2.0-9
0
TEXT
8
TABLES
10
3.5674
20
4.9063
30
0.0000
40
0.1224
1
W4
0
TEXT
8
TABLES
10
4.4728
20
4.9063
30
0.0000
40
0.1224
1
WIRE W4, AT P1-4 AND P2-4
0
TEXT
8
TABLES
10
7.4345
20
4.9063
30
0.0000
40
0.1224
1
2
72
1
11
7.4345
21
4.9063
31
0.0000
0
LINE
8
TABLES
10
0.9167
20
4.8211
30
0.0000
11
7.7072
21
4.8211
31
0.0000
0
TEXT
8
TABLES
10
1.3550
20
4.6019
30
0.0000
40
0.1224
1
17
72
1
11
1.3550
21
4.6019
31
0.0000
0
TEXT
8
TABLES
10
1.8664
20
4.6019
30
0.0000
40
0.1224
1
TMS-SCE-1/8-2.0-9
0
TEXT
8
TABLES
10
3.5674
20
4.6019
30
0.0000
40
0.1224
1
W5
0
TEXT
8
TABLES
10
4.4728
20
4.6019
30
0.0000
40
0.1224
1
WIRE W5, AT P1-5 AND P2-5
0
TEXT
8
TABLES
10
7.4345
20
4.6019
30
0.0000
40
0.1224
1
2
72
1
11
7.4345
21
4.6019
31
0.0000
0
LINE
8
TABLES
10
0.9167
20
4.5166
30
0.0000
11
7.7072
21
4.5166
31
0.0000
0
TEXT
8
TABLES
10
1.3550
20
4.2975
30
0.0000
40
0.1224
1
17
72
1
11
1.3550
21
4.2975
31
0.0000
0
TEXT
8
TABLES
10
1.8664
20
4.2975
30
0.0000
40
0.1224
1
TMS-SCE-1/8-2.0-9
0
TEXT
8
TABLES
10
3.5674
20
4.2975
30
0.0000
40
0.1224
1
W6
0
TEXT
8
TABLES
10
4.4728
20
4.2975
30
0.0000
40
0.1224
1
WIRE W6, AT P1-6 AND P2-6
0
TEXT
8
TABLES
10
7.4345
20
4.2975
30
0.0000
40
0.1224
1
2
72
1
11
7.4345
21
4.2975
31
0.0000
0
LINE
8
TABLES
10
0.9167
20
4.2122
30
0.0000
11
7.7072
21
4.2122
31
0.0000
0
TEXT
8
TABLES
10
1.3550
20
3.9930
30
0.0000
40
0.1224
1
17
72
1
11
1.3550
21
3.9930
31
0.0000
0
TEXT
8
TABLES
10
1.8664
20
3.9930
30
0.0000
40
0.1224
1
TMS-SCE-1/8-2.0-9
0
TEXT
8
TABLES
10
3.5674
20
3.9930
30
0.0000
40
0.1224
1
W7
0
TEXT
8
TABLES
10
4.4728
20
3.9930
30
0.0000
40
0.1224
1
WIRE W7, AT P1-7 AND P2-8
0
TEXT
8
TABLES
10
7.4345
20
3.9930
30
0.0000
40
0.1224
1
2
72
1
11
7.4345
21
3.9930
31
0.0000
0
LINE
8
TABLES
10
0.9167
20
3.9078
30
0.0000
11
7.7072
21
3.9078
31
0.0000
0
TEXT
8
TABLES
10
1.3550
20
3.6886
30
0.0000
40
0.1224
1
17
72
1
11
1.3550
21
3.6886
31
0.0000
0
TEXT
8
TABLES
10
1.8664
20
3.6886
30
0.0000
40
0.1224
1
TMS-SCE-1/8-2.0-9
0
TEXT
8
TABLES
10
3.5674
20
3.6886
30
0.0000
40
0.1224
1
W8
0
TEXT
8
TABLES
10
4.4728
20
3.6886
30
0.0000
40
0.1224
1
WIRE W8, AT P1-8 AND P2-7
0
TEXT
8
TABLES
10
7.4345
20
3.6886
30
0.0000
40
0.1224
1
2
72
1
11
7.4345
21
3.6886
31
0.0000
0
LINE
8
TABLES
10
0.9167
20
3.6034
30
0.0000
11
7.7072
21
3.6034
31
0.0000
0
TEXT
8
TABLES
10
1.3550
20
3.3842
30
0.0000
40
0.1224
1
17
72
1
11
1.3550
21
3.3842
31
0.0000
0
TEXT
8
TABLES
10
1.8664
20
3.3842
30
0.0000
40
0.1224
1
TMS-SCE-1/8-2.0-9
0
TEXT
8
TABLES
10
3.5674
20
3.3842
30
0.0000
40
0.1224
1
W9
0
TEXT
8
TABLES
10
4.4728
20
3.3842
30
0.0000
40
0.1224
1
WIRE W9, AT P1-9 AND SP1
0
TEXT
8
TABLES
10
7.4345
20
3.3842
30
0.0000
40
0.1224
1
2
72
1
11
7.4345
21
3.3842
31
0.0000
0
LINE
8
TABLES
10
0.9167
20
3.2990
30
0.0000
11
7.7072
21
3.2990
31
0.0000
0
TEXT
8
TABLES
10
1.3550
20
3.0798
30
0.0000
40
0.1224
1
17
72
1
11
1.3550
21
3.0798
31
0.0000
0
TEXT
8
TABLES
10
1.8664
20
3.0798
30
0.0000
40
0.1224
1
TMS-SCE-1/8-2.0-9
0
TEXT
8
TABLES
10
3.5674
20
3.0798
30
0.0000
40
0.1224
1
W10
0
TEXT
8
TABLES
10
4.4728
20
3.0798
30
0.0000
40
0.1224
1
WIRE W10, AT P1-10 AND P1-11
0
TEXT
8
TABLES
10
7.4345
20
3.0798
30
0.0000
40
0.1224
1
2
72
1
11
7.4345
21
3.0798
31
0.0000
0
LINE
8
TABLES
10
0.9167
20
2.9946
30
0.0000
11
7.7072
21
2.9946
31
0.0000
0
TEXT
8
TABLES
10
1.3550
20
2.7754
30
0.0000
40
0.1224
1
17
72
1
11
1.3550
21
2.7754
31
0.0000
0
TEXT
8
TABLES
10
1.8664
20
2.7754
30
0.0000
40
0.1224
1
TMS-SCE-1/8-2.0-9
0
TEXT
8
TABLES
10
3.5674
20
2.7754
30
0.0000
40
0.1224
1
W11
0
TEXT
8
TABLES
10
4.4728
20
2.7754
30
0.0000
40
0.1224
1
WIRE W11, AT P1-12 AND P2-12
0
TEXT
8
TABLES
10
7.4345
20
2.7754
30
0.0000
40
0.1224
1
2
72
1
11
7.4345
21
2.7754
31
0.0000
0
LINE
8
TABLES
10
0.9167
20
2.6901
30
0.0000
11
7.7072
21
2.6901
31
0.0000
0
TEXT
8
TABLES
10
1.3550
20
2.4710
30
0.0000
40
0.1224
1
17
72
1
11
1.3550
21
2.4710
31
0.0000
0
TEXT
8
TABLES
10
1.8664
20
2.4710
30
0.0000
40
0.1224
1
TMS-SCE-1/8-2.0-9
0
TEXT
8
TABLES
10
3.5674
20
2.4710
30
0.0000
40
0.1224
1
W12
0
TEXT
8
TABLES
10
4.4728
20
2.4710
30
0.0000
40
0.1224
1
WIRE W12, AT SP1 AND P2-9
0
TEXT
8
TABLES
10
7.4345
20
2.4710
30
0.0000
40
0.1224
1
2
72
1
11
7.4345
21
2.4710
31
0.0000
0
LINE
8
TABLES
10
0.9167
20
2.3857
30
0.0000
11
7.7072
21
2.3857
31
0.0000
0
TEXT
8
TABLES
10
1.3550
20
2.1665
30
0.0000
40
0.1224
1
17
72
1
11
1.3550
21
2.1665
31
0.0000
0
TEXT
8
TABLES
10
1.8664
20
2.1665
30
0.0000
40
0.1224
1
TMS-SCE-1/8-2.0-9
0
TEXT
8
TABLES
10
3.5674
20
2.1665
30
0.0000
40
0.1224
1
W13
0
TEXT
8
TABLES
10
4.4728
20
2.1665
30
0.0000
40
0.1224
1
WIRE W13, AT SP1 AND P2-10
0
TEXT
8
TABLES
10
7.4345
20
2.1665
30
0.0000
40
0.1224
1
2
72
1
11
7.4345
21
2.1665
31
0.0000
0
LINE
8
TABLES
10
0.9167
20
2.0813
30
0.0000
11
7.7072
21
2.0813
31
0.0000
0
POLYLINE
8
TABLES
66
1
10
0.0000
20
0.0000
30
0.0000
70
1
0
VERTEX
8
TABLES
10
0.9167
20
6.9885
30
0.0000
0
VERTEX
8
TABLES
10
7.7072
20
6.9885
30
0.0000
0
VERTEX
8
TABLES
10
7.7072
20
2.0813
30
0.0000
0
VERTEX
8
TABLES
10
0.9167
20
2.0813
30
0.0000
0
SEQEND
8
TABLES
0
LINE
8
TABLES
10
1.7934
20
6.9885
30
0.0000
11
1.7934
21
2.0813
31
0.0000
0
LINE
8
TABLES
10
3.4943
20
6.9885
30
0.0000
11
3.4943
21
2.0813
31
0.0000
0
LINE
8
TABLES
10
4.3997
20
6.9885
30
0.0000
11
4.3997
21
2.0813
31
0.0000
0
LINE
8
TABLES
10
7.1619
20
6.9885
30
0.0000
11
7.1619
21
2.0813
31
0.0000
0
POLYLINE
8
TITLE_BLOCK
66
1
10
0.0000
20
0.0000
30
0.0000
70
1
0
VERTEX
8
TITLE_BLOCK
10
17.2500
20
1.6000
30
0.0000
0
VERTEX
8
TITLE_BLOCK
10
21.2500
20
1.6000
30
0.0000
0
VERTEX
8
TITLE_BLOCK
10
21.2500
20
0.7500
30
0.0000
0
VERTEX
8
TITLE_BLOCK
10
17.2500
20
0.7500
30
0.0000
0
SEQEND
8
TITLE_BLOCK
0
POLYLINE
8
TITLE_BLOCK
66
1
10
0.0000
20
0.0000
30
0.0000
70
1
0
VERTEX
8
TITLE_BLOCK
10
17.2500
20
1.6000
30
0.0000
0
VERTEX
8
TITLE_BLOCK
10
17.8500
20
1.6000
30
0.0000
0
VERTEX
8
TITLE_BLOCK
10
17.8500
20
1.1000
30
0.0000
0
VERTEX
8
TITLE_BLOCK
10
17.2500
20
1.1000
30
0.0000
0
SEQEND
8
TITLE_BLOCK
0
TEXT
8
TITLE_BLOCK
10
17.2917
20
1.4792
30
0.0000
40
0.1020
1
SIZE
0
TEXT
8
TITLE_BLOCK
10
17.5500
20
1.1694
30
0.0000
40
0.2448
1
C
72
1
11
17.5500
21
1.1694
31
0.0000
0
POLYLINE
8
TITLE_BLOCK
66
1
10
0.0000
20
0.0000
30
0.0000
70
1
0
VERTEX
8
TITLE_BLOCK
10
17.8500
20
1.6000
30
0.0000
0
VERTEX
8
TITLE_BLOCK
10
18.8500
20
1.6000
30
0.0000
0
VERTEX
8
TITLE_BLOCK
10
18.8500
20
1.1000
30
0.0000
0
VERTEX
8
TITLE_BLOCK
10
17.8500
20
1.1000
30
0.0000
0
SEQEND
8
TITLE_BLOCK
0
TEXT
8
TITLE_BLOCK
10
17.8917
20
1.4792
30
0.0000
40
0.1020
1
CAGE CODE
0
POLYLINE
8
TITLE_BLOCK
66
1
10
0.0000
20
0.0000
30
0.0000
70
1
0
VERTEX
8
TITLE_BLOCK
10
18.8500
20
1.6000
30
0.0000
0
VERTEX
8
TITLE_BLOCK
10
20.6500
20
1.6000
30
0.0000
0
VERTEX
8
TITLE_BLOCK
10
20.6500
20
1.1000
30
0.0000
0
VERTEX
8
TITLE_BLOCK
10
18.8500
20
1.1000
30
0.0000
0
SEQEND
8
TITLE_BLOCK
0
TEXT
8
TITLE_BLOCK
10
18.8917
20
1.4792
30
0.0000
40
0.1020
1
DWG NO.
0
TEXT
8
TITLE_BLOCK
10
18.9194
20
1.1694
30
0.0000
40
0.2448
1
W101-001
0
POLYLINE
8
TITLE_BLOCK
66
1
10
0.0000
20
0.0000
30
0.0000
70
1
0
VERTEX
8
TITLE_BLOCK
10
20.6500
20
1.6000
30
0.0000
0
VERTEX
8
TITLE_BLOCK
10
21.2500
20
1.6000
30
0.0000
0
VERTEX
8
TITLE_BLOCK
10
21.2500
20
1.1000
30
0.0000
0
VERTEX
8
TITLE_BLOCK
10
20.6500
20
1.1000
30
0.0000
0
SEQEND
8
TITLE_BLOCK
0
TEXT
8
TITLE_BLOCK
10
20.6917
20
1.4792
30
0.0000
40
0.1020
1
REV
0
TEXT
8
TITLE_BLOCK
10
20.9500
20
1.1694
30
0.0000
40
0.1224
1
A
72
1
11
20.9500
21
1.1694
31
0.0000
0
POLYLINE
8
TITLE_BLOCK
66
1
10
0.0000
20
0.0000
30
0.0000
70
1
0
VERTEX
8
TITLE_BLOCK
10
17.2500
20
1.1000
30
0.0000
0
VERTEX
8
TITLE_BLOCK
10
18.5833
20
1.1000
30
0.0000
0
VERTEX
8
TITLE_BLOCK
10
18.5833
20
0.7500
30
0.0000
0
VERTEX
8
TITLE_BLOCK
10
17.2500
20
0.7500
30
0.0000
0
SEQEND
8
TITLE_BLOCK
0
TEXT
8
TITLE_BLOCK
10
17.2917
20
0.9792
30
0.0000
40
0.1020
1
SCALE
0
TEXT
8
TITLE_BLOCK
10
17.3194
20
0.8194
30
0.0000
40
0.1224
1
NONE
0
POLYLINE
8
TITLE_BLOCK
66
1
10
0.0000
20
0.0000
30
0.0000
70
1
0
VERTEX
8
TITLE_BLOCK
10
18.5833
20
1.1000
30
0.0000
0
VERTEX
8
TITLE_BLOCK
10
19.9167
20
1.1000
30
0.0000
0
VERTEX
8
TITLE_BLOCK
10
19.9167
20
0.7500
30
0.0000
0
VERTEX
8
TITLE_BLOCK
10
18.5833
20
0.7500
30
0.0000
0
SEQEND
8
TITLE_BLOCK
0
TEXT
8
TITLE_BLOCK
10
18.6250
20
0.9792
30
0.0000
40
0.1020
1
WEIGHT
0
POLYLINE
8
TITLE_BLOCK
66
1
10
0.0000
20
0.0000
30
0.0000
70
1
0
VERTEX
8
TITLE_BLOCK
10
19.9167
20
1.1000
30
0.0000
0
VERTEX
8
TITLE_BLOCK
10
21.2500
20
1.1000
30
0.0000
0
VERTEX
8
TITLE_BLOCK
10
21.2500
20
0.7500
30
0.0000
0
VERTEX
8
TITLE_BLOCK
10
19.9167
20
0.7500
30
0.0000
0
SEQEND
8
TITLE_BLOCK
0
TEXT
8
TITLE_BLOCK
10
19.9583
20
0.9792
30
0.0000
40
0.1020
1
SHEET
0
TEXT
8
TITLE_BLOCK
10
19.9861
20
0.8194
30
0.0000
40
0.1224
1
3 OF 3
0
ENDSEC
0
EOF
